<svg width="14" height="26" viewBox="0 0 14 26" fill="none" xmlns="http://www.w3.org/2000/svg">
<path d="M8.28467 25.6512H4.50039C3.8683 25.6512 3.35411 25.0931 3.35411 24.4069V15.1416H1.14628C0.514186 15.1416 0 14.5832 0 13.8973V9.92705C0 9.24091 0.514186 8.68277 1.14628 8.68277H3.35411V6.69462C3.35411 4.7233 3.92437 3.04612 5.00304 1.8447C6.08658 0.637797 7.60084 0 9.3821 0L12.2682 0.00508826C12.8992 0.0062625 13.4125 0.564408 13.4125 1.24937V4.93564C13.4125 5.62177 12.8985 6.17992 12.2666 6.17992L10.3234 6.1807C9.73078 6.1807 9.57988 6.30967 9.5476 6.3492C9.49442 6.41476 9.43114 6.60009 9.43114 7.11186V8.68257H12.1205C12.323 8.68257 12.5191 8.73678 12.6877 8.83894C13.0514 9.05949 13.2774 9.47654 13.2774 9.92724L13.276 13.8975C13.276 14.5832 12.7618 15.1414 12.1297 15.1414H9.43114V24.4069C9.43114 25.0931 8.91677 25.6512 8.28467 25.6512ZM4.73946 24.1474H8.04561V14.4683C8.04561 14.0102 8.38906 13.6376 8.81094 13.6376H11.8906L11.8919 10.1865H8.81076C8.38888 10.1865 8.04561 9.81393 8.04561 9.35579V7.11186C8.04561 6.52435 8.1006 5.85622 8.50914 5.35405C9.00277 4.74698 9.78072 4.67692 10.323 4.67692L12.0271 4.67613V1.50848L9.38102 1.50378C6.51838 1.50378 4.73946 3.49291 4.73946 6.69462V9.35579C4.73946 9.81373 4.39619 10.1865 3.97431 10.1865H1.38535V13.6376H3.97431C4.39619 13.6376 4.73946 14.0102 4.73946 14.4683V24.1474ZM12.2655 1.50887H12.2657H12.2655Z" fill="white"/>
</svg>
