<svg width="24" height="24" viewBox="0 0 24 24" fill="none" xmlns="http://www.w3.org/2000/svg">
<path d="M23.2158 0.814453H0.404297V23.8023H23.2158V0.814453ZM21.7675 22.3428H1.85265V2.274H21.7675V22.3428Z" fill="white"/>
<path d="M11.8108 17.6003C14.7075 17.6003 17.061 15.2285 17.061 12.3094C17.061 9.39033 14.7075 7.01855 11.8108 7.01855C8.9141 7.01855 6.56055 9.39033 6.56055 12.3094C6.56055 15.2285 8.9141 17.6003 11.8108 17.6003ZM11.8108 8.47811C13.9109 8.47811 15.6127 10.1931 15.6127 12.3094C15.6127 14.4258 13.9109 16.1408 11.8108 16.1408C9.71069 16.1408 8.00889 14.4258 8.00889 12.3094C8.00889 10.1931 9.71069 8.47811 11.8108 8.47811Z" fill="white"/>
<path d="M19.5948 4.46387H18.1465V5.92362H19.5948V4.46387Z" fill="white"/>
</svg>
