<svg width="29" height="24" viewBox="0 0 29 24" fill="none" xmlns="http://www.w3.org/2000/svg">
<path d="M28.6428 3.50887C26.871 3.59017 26.9097 3.58354 26.7094 3.60023L27.7588 0.616901C27.7588 0.616901 24.4834 1.81643 23.653 2.03101C21.4723 0.07971 18.2309 -0.00650579 15.9135 1.41146C14.0158 2.57291 12.9972 4.56743 13.337 6.89868C9.64362 6.38844 6.53178 4.64551 4.07492 1.70733L3.29787 0.778208L2.71724 1.83975C1.98338 3.18113 1.73969 4.71483 2.03087 6.15825C2.15035 6.75042 2.35342 7.31521 2.63472 7.84406L1.96812 7.58691L1.88904 8.69573C1.80889 9.8221 2.18559 11.1369 2.89689 12.2126C3.09716 12.5155 3.35503 12.8482 3.68188 13.1764L3.33741 13.1238L3.75774 14.3943C4.31023 16.0637 5.45775 17.3552 6.94695 18.0731C5.45968 18.7015 4.25822 19.1024 2.28337 19.7491L0.476562 20.3404L2.14541 21.2488C2.7817 21.5952 5.03011 22.7519 7.25166 23.0989C12.1899 23.8699 17.7498 23.242 21.4927 19.886C24.6454 17.0593 25.6799 13.0384 25.465 8.85404C25.4326 8.22058 25.6068 7.616 25.9558 7.15198C26.6549 6.22286 28.6385 3.51508 28.6428 3.50887ZM24.6362 6.16787C24.0566 6.93825 23.7663 7.92214 23.8183 8.93791C24.0351 13.1586 22.8816 16.4318 20.3895 18.6662C17.4783 21.2764 12.7828 22.3009 7.50717 21.4771C6.55176 21.328 5.56433 20.994 4.7471 20.6605C6.40284 20.0933 7.68145 19.5878 9.74634 18.6148L12.6289 17.2566L9.44635 17.0537C7.92191 16.9566 6.65254 16.2211 5.87227 15.0269C6.28658 15.003 6.68607 14.9362 7.08383 14.8258L10.1192 13.9842L7.05847 13.238C5.57121 12.8754 4.72346 11.9895 4.27413 11.31C3.97908 10.8635 3.78632 10.4061 3.67071 9.98448C3.97758 10.0664 4.33537 10.1248 4.91235 10.1817L7.74527 10.4607L5.50073 8.71755C3.88345 7.46175 3.23534 5.57506 3.71046 3.76132C8.75784 8.9732 14.6841 8.58149 15.2807 8.71926C15.1494 7.44956 15.1459 7.44656 15.1115 7.32569C14.3476 4.63717 16.0218 3.27205 16.7769 2.80995C18.3542 1.84489 20.8579 1.69941 22.5921 3.28938C22.9667 3.63253 23.4732 3.76752 23.9472 3.65029C24.3727 3.54503 24.7219 3.43357 25.0638 3.31227L24.3521 5.33567L25.2606 5.33631C25.0892 5.56522 24.8835 5.83927 24.6362 6.16787Z" fill="white"/>
</svg>
