<svg width="35" height="25" viewBox="0 0 35 25" fill="none" xmlns="http://www.w3.org/2000/svg">
<path d="M27.4937 2.44385H7.55243C4.73508 2.44385 2.45117 4.72744 2.45117 7.54439V18.2092C2.45117 21.0261 4.73508 23.3097 7.55243 23.3097H27.4937C30.3111 23.3097 32.595 21.0261 32.595 18.2092V7.54439C32.595 4.72744 30.3111 2.44385 27.4937 2.44385Z" stroke="white" stroke-width="3" stroke-linecap="round" stroke-linejoin="round"/>
<path d="M21.6993 12.0525C21.8512 12.1303 21.9787 12.2485 22.0677 12.3942C22.1567 12.5398 22.2039 12.7072 22.2039 12.8778C22.2039 13.0485 22.1567 13.2159 22.0677 13.3615C21.9787 13.5072 21.8512 13.6254 21.6993 13.7032L18.8008 15.1963L15.6288 16.8238C15.4878 16.8959 15.3307 16.9306 15.1724 16.9247C15.0142 16.9189 14.8601 16.8726 14.7248 16.7903C14.5895 16.708 14.4775 16.5925 14.3995 16.4547C14.3216 16.3169 14.2802 16.1614 14.2793 16.0031V9.7526C14.2794 9.59388 14.3202 9.43783 14.3979 9.2994C14.4755 9.16096 14.5874 9.04477 14.7228 8.96195C14.8582 8.87913 15.0127 8.83244 15.1713 8.82636C15.3299 8.82029 15.4874 8.85502 15.6288 8.92724L18.8008 10.5594L21.6993 12.0525Z" fill="white"/>
</svg>
