<svg width="20" height="20" viewBox="0 0 20 20" fill="none" xmlns="http://www.w3.org/2000/svg">
<path d="M3.09637 6.90332H0.585938C0.262344 6.90332 0 7.16566 0 7.48926V13.7653C0 14.0889 0.262344 14.3513 0.585938 14.3513H3.09637C3.41996 14.3513 3.6823 14.0889 3.6823 13.7653V7.48926C3.6823 7.16566 3.41996 6.90332 3.09637 6.90332Z" fill="#222222"/>
<path d="M14.0795 13.6826C14.403 13.6826 14.6654 13.4203 14.6654 13.0967V11.7998H14.707C15.0306 11.7998 15.293 11.5375 15.293 11.2139C15.293 10.8903 15.0306 10.628 14.707 10.628H14.6654V7.44827C14.6654 7.21132 14.5227 6.99765 14.3037 6.90694C14.0848 6.81624 13.8328 6.86632 13.6652 7.0339C13.6652 7.0339 11.8358 8.86269 10.9684 9.72941C10.5789 10.1211 10.3555 10.6622 10.3555 11.2139C10.3555 11.5375 10.6178 11.7998 10.9414 11.7998H13.4935V13.0967C13.4935 13.4203 13.7558 13.6826 14.0795 13.6826ZM11.7346 10.628C11.7545 10.6033 11.7757 10.5796 11.798 10.5571C12.2369 10.1185 12.9233 9.43249 13.4935 8.86249V10.628H11.7346Z" fill="#222222"/>
<path d="M9.33133 13.0967C9.33133 12.7731 9.06898 12.5107 8.74539 12.5107H6.40059C6.42047 12.4861 6.44164 12.4623 6.46402 12.4398C7.33016 11.5743 9.15965 9.74543 9.15965 9.74543C9.26957 9.63555 9.33137 9.48648 9.33137 9.33105V9.01727C9.33137 7.82902 8.36469 6.8623 7.17645 6.8623C5.97691 6.8623 5.02148 7.83395 5.02148 9.0166V9.01723C5.02148 9.34082 5.28383 9.60285 5.60742 9.60285C5.93102 9.60285 6.19336 9.3402 6.19336 9.0166C6.19336 8.47906 6.62617 8.03418 7.17645 8.03418C7.71852 8.03418 8.15949 8.4752 8.15949 9.01727V9.08828C7.68438 9.56324 6.34059 10.9065 5.63441 11.6122C5.24484 12.0039 5.02148 12.545 5.02148 13.0967C5.02148 13.4203 5.28383 13.6826 5.60742 13.6826H8.74543C9.06898 13.6826 9.33133 13.4203 9.33133 13.0967Z" fill="#222222"/>
<path d="M9.99945 1.17188C12.9403 1.17188 15.4183 3.19172 16.119 5.91699C16.3552 5.79871 16.6214 5.73176 16.9031 5.73176H17.2802C16.4871 2.44734 13.5239 0 9.99945 0C6.47496 0 3.51176 2.44734 2.71875 5.73176H3.09582C3.3775 5.73176 3.64367 5.79871 3.87992 5.91699C4.58062 3.19172 7.05859 1.17188 9.99945 1.17188Z" fill="#222222"/>
<path d="M16.0045 15.2754C15.4188 16.6257 14.0729 17.5727 12.5098 17.5727H11.7444C11.499 16.8439 10.8097 16.3175 9.99938 16.3175C8.98418 16.3175 8.1582 17.1434 8.1582 18.1586C8.1582 19.1738 8.98414 19.9997 9.99934 19.9997C10.8097 19.9997 11.499 19.4732 11.7443 18.7445H12.5097C14.6367 18.7445 16.4562 17.4038 17.1682 15.5232H16.903C16.5748 15.5232 16.2676 15.4325 16.0045 15.2754Z" fill="#222222"/>
<path d="M19.4147 6.90332H16.9043C16.5807 6.90332 16.3184 7.16566 16.3184 7.48926V13.7653C16.3184 14.0889 16.5807 14.3513 16.9043 14.3513H19.4147C19.7383 14.3513 20.0007 14.0889 20.0007 13.7653V7.48926C20.0007 7.16566 19.7383 6.90332 19.4147 6.90332Z" fill="#222222"/>
</svg>
