<svg width="20" height="20" viewBox="0 0 20 20" fill="none" xmlns="http://www.w3.org/2000/svg">
<path d="M18.125 11.0727C18.125 10.7741 18.0181 10.4854 17.8237 10.2588C17.6293 10.0322 17.3602 9.88263 17.0651 9.83723L16.7708 9.79199L13.6263 14.0146C13.5681 14.0928 13.4925 14.1562 13.4055 14.1999C13.3184 14.2436 13.2224 14.2664 13.125 14.2664C13.0276 14.2664 12.9316 14.2436 12.8445 14.1999C12.7575 14.1562 12.6819 14.0928 12.6237 14.0146L9.47918 9.79199L9.18492 9.83723C8.88981 9.88263 8.6207 10.0322 8.42629 10.2588C8.23188 10.4854 8.125 10.7741 8.125 11.0727V15.3128H18.125V11.0727Z" fill="#222222"/>
<path d="M0.15625 15.7812H19.8438V19.8437H0.15625V15.7812Z" fill="#222222"/>
<path d="M1.875 15.4687H5.625C5.74932 15.4687 5.86855 15.4194 5.95646 15.3315C6.04436 15.2435 6.09375 15.1243 6.09375 15C6.09375 13.7609 5.35762 12.8818 4.21875 12.6941V12.5C4.21875 12.3757 4.16936 12.2565 4.08146 12.1685C3.99355 12.0806 3.87432 12.0312 3.75 12.0312C3.62568 12.0312 3.50645 12.0806 3.41854 12.1685C3.33064 12.2565 3.28125 12.3757 3.28125 12.5V12.6941C2.14238 12.8816 1.40625 13.7609 1.40625 15C1.40625 15.1243 1.45564 15.2435 1.54354 15.3315C1.63145 15.4194 1.75068 15.4687 1.875 15.4687Z" fill="#222222"/>
<path d="M2.75646 11.5056C2.88705 11.375 3.04208 11.2714 3.2127 11.2008C3.38332 11.1301 3.56619 11.0937 3.75088 11.0937C3.93556 11.0937 4.11843 11.1301 4.28906 11.2008C4.45968 11.2714 4.61471 11.375 4.74529 11.5056C4.83345 11.5924 4.9523 11.6407 5.07595 11.6402C5.19961 11.6397 5.31806 11.5904 5.40549 11.5029C5.49293 11.4155 5.54227 11.297 5.54277 11.1734C5.54326 11.0497 5.49487 10.9309 5.40814 10.8427C4.96861 10.4032 4.37247 10.1562 3.75088 10.1562C3.12928 10.1562 2.53315 10.4032 2.09361 10.8427C2.00688 10.9309 1.95849 11.0497 1.95899 11.1734C1.95948 11.297 2.00882 11.4155 2.09626 11.5029C2.18369 11.5904 2.30214 11.6397 2.4258 11.6402C2.54946 11.6407 2.66831 11.5924 2.75646 11.5056Z" fill="#222222"/>
<path d="M1.42913 10.1798C1.73383 9.87515 2.09555 9.63345 2.49365 9.46855C2.89175 9.30366 3.31843 9.21878 3.74933 9.21878C4.18023 9.21878 4.60691 9.30366 5.00501 9.46855C5.40311 9.63345 5.76484 9.87515 6.06953 10.1798C6.11306 10.2234 6.16473 10.2579 6.22161 10.2815C6.27848 10.305 6.33944 10.3171 6.40099 10.3171C6.46255 10.3171 6.52351 10.305 6.58038 10.2815C6.63725 10.2579 6.68893 10.2234 6.73246 10.1798C6.77599 10.1363 6.81052 10.0846 6.83407 10.0278C6.85763 9.97089 6.86976 9.90994 6.86976 9.84838C6.86976 9.78682 6.85763 9.72586 6.83407 9.66899C6.81052 9.61212 6.77599 9.56044 6.73246 9.51691C6.34071 9.12516 5.87564 8.8144 5.36379 8.60239C4.85194 8.39037 4.30335 8.28125 3.74933 8.28125C3.19531 8.28125 2.64672 8.39037 2.13487 8.60239C1.62303 8.8144 1.15795 9.12516 0.766204 9.51691C0.722675 9.56044 0.688146 9.61212 0.664589 9.66899C0.641031 9.72586 0.628906 9.78682 0.628906 9.84838C0.628906 9.90994 0.641031 9.97089 0.664589 10.0278C0.688146 10.0846 0.722675 10.1363 0.766204 10.1798C0.854114 10.2678 0.973345 10.3171 1.09767 10.3171C1.15923 10.3171 1.22018 10.305 1.27706 10.2815C1.33393 10.2579 1.38561 10.2234 1.42913 10.1798Z" fill="#222222"/>
<path d="M12.0556 9.04904C11.9787 9.17686 11.8729 9.28489 11.7467 9.36447C11.6206 9.44406 11.4775 9.49298 11.329 9.50732L10.4023 9.64986C11.0856 10.2506 12.0523 10.6254 13.124 10.6254C14.1958 10.6254 15.1625 10.2506 15.8459 9.64986L14.9192 9.50732C14.4454 9.46521 14.055 9.05357 14.0615 8.57107V8.19518C14.4738 8.04409 14.8437 7.79622 15.1402 7.47242C15.4368 7.14862 15.6512 6.75835 15.7655 6.33443C15.7322 6.37068 15.7582 4.90185 14.5993 3.71283C14.4903 3.59765 14.3582 3.50669 14.2117 3.44586C14.0652 3.38503 13.9076 3.35569 13.749 3.35974C13.2241 3.35974 12.5033 3.93209 11.9128 4.81787C11.4237 5.55083 11.0912 6.3769 10.9362 7.24432C11.2528 7.67375 11.6869 8.00235 12.1862 8.19045C12.1875 8.45842 12.2131 8.8217 12.0556 9.04904Z" fill="#222222"/>
<path d="M16.4806 3.5904C16.7462 3.5519 16.9979 3.44753 17.2129 3.28683C17.4278 3.12612 17.5991 2.91417 17.7112 2.67031C17.8232 2.42644 17.8725 2.15841 17.8544 1.89064C17.8364 1.62287 17.7516 1.36388 17.6078 1.13726C17.464 0.910645 17.2658 0.723615 17.0312 0.593216C16.7967 0.462816 16.5332 0.393194 16.2648 0.390695C15.9965 0.388195 15.7317 0.452897 15.4948 0.578904C15.2578 0.704911 15.0562 0.888217 14.9082 1.11211C15.097 1.17196 15.2765 1.25791 15.4416 1.36747C15.8983 1.67184 16.4391 2.30348 16.4806 3.5904Z" fill="#222222"/>
<path d="M10.446 7.34688C10.5951 6.3491 10.9628 5.3966 11.5229 4.5575C12.2187 3.51375 13.0509 2.89062 13.7491 2.89062C13.9703 2.88652 14.1899 2.92836 14.394 3.01351C14.5982 3.09865 14.7824 3.22525 14.9351 3.38527C15.3682 3.83479 15.6944 4.37621 15.8893 4.96922C15.977 4.56885 16.0191 4.15984 16.0148 3.75C16.0148 2.80984 15.7267 2.12086 15.1816 1.7575C14.9516 1.60493 14.6874 1.51185 14.4126 1.4866L14.2952 1.47727L14.1961 1.41359C13.7231 1.10146 13.1691 0.934294 12.6024 0.932617C12.3127 0.933585 12.0246 0.974477 11.7462 1.05414C11.0152 1.2607 10.4253 1.69734 10.1866 2.01562C9.4671 2.97496 9.34452 4.30695 9.83225 5.86758C9.9937 6.37748 10.199 6.87243 10.446 7.34688Z" fill="#222222"/>
</svg>
