<svg width="20" height="20" viewBox="0 0 20 20" fill="none" xmlns="http://www.w3.org/2000/svg">
<g clip-path="url(#clip0_2547_17954)">
<path d="M16.2069 6.89624C17.9182 6.89624 19.3103 5.50416 19.3103 3.79285C19.3103 2.08153 17.9182 0.689453 16.2069 0.689453C14.4956 0.689453 13.1035 2.08153 13.1035 3.79285C13.1035 5.50416 14.4956 6.89624 16.2069 6.89624ZM16.2069 4.13767C15.6366 4.13767 15.1724 3.67347 15.1724 3.1032C15.1724 2.65433 15.4617 2.27499 15.8621 2.13221V1.3791H16.5517V2.13221C16.9521 2.27499 17.2414 2.65433 17.2414 3.1032H16.5517C16.5517 2.91294 16.3973 2.75838 16.2069 2.75838C16.0167 2.75838 15.8621 2.91294 15.8621 3.1032C15.8621 3.29346 16.0167 3.44802 16.2069 3.44802C16.7772 3.44802 17.2414 3.91222 17.2414 4.48249C17.2414 4.93136 16.9521 5.3107 16.5517 5.45348V6.20659H15.8621V5.45348C15.4617 5.3107 15.1724 4.93136 15.1724 4.48249H15.8621C15.8621 4.67275 16.0167 4.82731 16.2069 4.82731C16.3973 4.82731 16.5517 4.67275 16.5517 4.48249C16.5517 4.29257 16.3973 4.13767 16.2069 4.13767Z" fill="#222222"/>
<path d="M3.44922 4.81194V7.93115C3.44922 9.64246 4.8413 11.0345 6.55262 11.0345C8.26393 11.0345 9.65601 9.64246 9.65601 7.93115V4.82642C8.31562 4.79779 7.00503 4.35919 5.9182 3.57812C5.28092 4.2809 4.39361 4.72439 3.44922 4.81194ZM4.82851 6.89669C4.63825 6.89669 4.48368 6.74213 4.48368 6.55187C4.48368 6.36161 4.63825 6.20705 4.82851 6.20705C5.01893 6.20705 5.17333 6.36161 5.17333 6.55187C5.17333 6.74263 5.01893 6.89669 4.82851 6.89669ZM8.27673 6.20705C8.46715 6.20705 8.62155 6.36161 8.62155 6.55187C8.62155 6.74213 8.46715 6.89669 8.27673 6.89669C8.08647 6.89669 7.9319 6.74213 7.9319 6.55187C7.9319 6.36161 8.08647 6.20705 8.27673 6.20705ZM6.55262 9.31044C6.93296 9.31044 7.24226 9.00114 7.24226 8.6208H7.9319C7.9319 9.38149 7.31331 10.0001 6.55262 10.0001C5.79192 10.0001 5.17333 9.38149 5.17333 8.6208H5.86297C5.86297 9.00114 6.17227 9.31044 6.55262 9.31044Z" fill="#222222"/>
<path d="M4.60963 12.5049L1.17893 13.6483C0.473793 13.8835 0 14.5406 0 15.2842V19.9999H2.06893V16.8965H2.75857V19.9999H6.20679V13.7638C5.49374 13.6466 4.89098 13.1715 4.60963 12.5049ZM5.51714 19.3099H4.8275V18.6202H5.51714V19.3099ZM5.51714 17.9306H4.8275V17.241H5.51714V17.9306ZM5.51714 16.5513H4.8275V15.8617H5.51714V16.5513ZM5.51714 15.172H4.8275V14.4824H5.51714V15.172Z" fill="#222222"/>
<path d="M10.3446 7.93117C10.3446 8.02765 10.3373 8.12227 10.3301 8.21707C10.7381 8.07833 11.0342 7.69595 11.0342 7.24151C11.0342 6.79263 10.745 6.41329 10.3446 6.27051V7.93117Z" fill="#222222"/>
<path d="M2.758 4.13786H3.10283C4.07415 4.13786 5.00238 3.67366 5.58561 2.89613L5.79894 2.61209L6.07691 2.83417C7.12788 3.67484 8.4479 4.13786 9.79335 4.13786H10.3441V5.552C10.6003 5.60436 10.8324 5.71818 11.0337 5.87055V4.14712C11.0337 1.86032 9.17307 0 6.88661 0C5.49654 0 4.20666 0.690317 3.43552 1.84651L3.31565 2.02616L3.18634 2.05866C2.52801 2.22349 2.06836 2.81228 2.06836 3.49065V5.87089C2.26973 5.71852 2.50174 5.60436 2.758 5.55234V4.13786Z" fill="#222222"/>
<path d="M2.77249 8.21707C2.76525 8.12261 2.75801 8.02765 2.75801 7.93117V6.27051C2.35762 6.41329 2.06836 6.79263 2.06836 7.24151C2.06836 7.69595 2.36453 8.07833 2.77249 8.21707Z" fill="#222222"/>
<path d="M7.93011 12.0265L7.93045 12.0255V11.4609C7.50211 11.629 7.03809 11.7244 6.55116 11.7244C6.06423 11.7244 5.60021 11.629 5.17188 11.4609V12.0265C5.33082 12.6613 5.89805 13.1037 6.55116 13.1037C7.20494 13.1034 7.77218 12.6606 7.93011 12.0265Z" fill="#222222"/>
<path d="M11.0343 14.8272C11.0343 14.3383 11.1088 13.8665 11.2443 13.4217L8.49364 12.5049C8.21263 13.171 7.60987 13.6466 6.89648 13.7638V19.9995H10.3447V16.8961H11.0343V19.9995H13.1033V18.7834C11.8543 17.9099 11.0343 16.4638 11.0343 14.8272ZM9.65506 15.5169H8.27577V14.8272H9.65506V15.5169Z" fill="#222222"/>
<path d="M16.2067 12.7588H15.5171V14.4829H13.793V15.1725H15.5171V16.8966H16.2067V15.1725H17.9308V14.4829H16.2067V12.7588Z" fill="#222222"/>
<path d="M15.8625 10.6895C13.5807 10.6895 11.7246 12.5456 11.7246 14.8273C11.7246 17.1091 13.5807 18.9652 15.8625 18.9652C18.1442 18.9652 20.0003 17.1091 20.0003 14.8273C20.0003 12.5456 18.1442 10.6895 15.8625 10.6895ZM18.6211 15.8618H16.8969V17.5859H14.828V15.8618H13.1039V13.7928H14.828V12.0687H16.8969V13.7928H18.6211V15.8618Z" fill="#222222"/>
</g>
<defs>
<clipPath id="clip0_2547_17954">
<rect width="20" height="20" fill="white"/>
</clipPath>
</defs>
</svg>
