<svg width="22" height="24" viewBox="0 0 22 24" fill="none" xmlns="http://www.w3.org/2000/svg">
<path d="M16.8077 8.93776C16.434 10.3664 15.5621 10.681 15.0969 10.7442C14.8103 11.3171 14.1804 12.488 13.5502 13.0763C13.2984 13.3114 12.971 13.5098 12.5774 13.666C12.0749 13.8654 11.5441 13.9666 11 13.9666C10.456 13.9666 9.92522 13.8654 9.42267 13.666C9.02915 13.5099 8.70173 13.3115 8.44985 13.0763C7.8196 12.4881 7.18969 11.3171 6.90311 10.7442C6.438 10.681 5.56609 10.3665 5.19244 8.93776C4.99261 8.17378 5.04377 7.55099 5.34462 7.08665C5.47759 6.88144 5.63877 6.74167 5.78887 6.64702C5.78931 6.49451 5.79568 6.30357 5.81335 6.08638C5.54314 5.71087 5.17575 4.90066 5.63076 3.58922C6.11168 2.20279 7.19902 1.98868 7.72386 1.97013C7.90129 1.64029 8.23651 1.172 8.84524 0.741473C9.52094 0.263298 10.4033 0 11.3297 0C12.4696 0 13.6167 0.401206 14.6468 1.16025C16.317 2.39088 16.1739 5.1207 16.1329 5.61633C16.1935 6.03181 16.2103 6.39218 16.2111 6.64691C16.3612 6.74156 16.5224 6.88133 16.6554 7.08654C16.9562 7.55099 17.0074 8.17367 16.8077 8.93776ZM21.6922 19.5761V23.451C21.6922 23.7542 21.4463 24 21.1432 24H0.856803C0.553648 24 0.307808 23.7542 0.307808 23.451V19.5761C0.307808 17.9886 1.26021 16.5819 2.73415 15.9922L7.53402 14.0723C7.67214 14.0172 7.82674 14.0201 7.96256 14.0812C8.09827 14.142 8.20357 14.2554 8.25408 14.3953L9.46077 17.7313L9.69969 17.0444L9.31957 16.1152C9.2504 15.9459 9.26994 15.7532 9.37194 15.6014C9.47395 15.4495 9.64479 15.3584 9.82772 15.3584H12.1724C12.3553 15.3584 12.5263 15.4495 12.6281 15.6014C12.7302 15.7532 12.7497 15.9459 12.6805 16.1152L12.3004 17.0444L12.5393 17.7313L13.746 14.3953C13.7965 14.2554 13.9018 14.142 14.0375 14.0812C14.1733 14.0202 14.3281 14.0173 14.4661 14.0723L19.2659 15.9922C20.7399 16.5819 21.6922 17.9886 21.6922 19.5761ZM18.7698 19.9974C18.7698 19.6942 18.5239 19.4484 18.2208 19.4484H14.5348C14.2317 19.4484 13.9858 19.6942 13.9858 19.9974V21.7092C13.9858 22.0123 14.2317 22.2581 14.5348 22.2581H18.2208C18.5239 22.2581 18.7698 22.0123 18.7698 21.7092V19.9974Z" fill="#222222"/>
</svg>
