<svg width="20" height="20" viewBox="0 0 20 20" fill="none" xmlns="http://www.w3.org/2000/svg">
<g clip-path="url(#clip0_450_11412)">
<path d="M18.3332 3.33398H1.6665V18.334H18.3332V3.33398Z" fill="white"/>
<path d="M6.95 9.40833L4.625 8.24167L5.375 6.75833L6.38333 7.25833L7.64167 5.375L9.025 6.29167L6.95 9.40833Z" fill="#F9C41F"/>
<path d="M15.175 6.84154L13.9917 5.6582L13.3334 6.32487L12.675 5.6582L11.4917 6.84154L12.1584 7.49987L11.4917 8.1582L12.675 9.34154L13.3334 8.67487L13.9917 9.34154L15.175 8.1582L14.5084 7.49987L15.175 6.84154Z" fill="#F9C41F" fill-opacity="0.2"/>
<path d="M15.8335 2.50065V0.833984H14.1668V2.50065H10.8335V0.833984H9.16683V2.50065H5.8335V0.833984H4.16683V2.50065H0.833496V19.1673H19.1668V2.50065H15.8335ZM17.5002 17.5006H2.50016V4.16732H17.5002V17.5006Z" fill="#4E4E4E"/>
<path d="M9.1665 10.834H4.1665V12.5007H9.1665V10.834Z" fill="#4E4E4E"/>
<path d="M9.1665 14.166H4.1665V15.8327H9.1665V14.166Z" fill="#4E4E4E"/>
<path d="M15.8335 10.834H10.8335V12.5007H15.8335V10.834Z" fill="#4E4E4E"/>
<path d="M15.8335 14.166H10.8335V15.8327H15.8335V14.166Z" fill="#4E4E4E"/>
</g>
<defs>
<clipPath id="clip0_450_11412">
<rect width="20" height="20" fill="white"/>
</clipPath>
</defs>
</svg>
