<svg width="20" height="20" viewBox="0 0 20 20" fill="none" xmlns="http://www.w3.org/2000/svg">
<path d="M7.53231 16.4948C7.57798 16.564 7.64925 16.6122 7.73045 16.6288C7.81165 16.6454 7.89612 16.6291 7.96528 16.5834L8.38716 16.3048L8.71165 16.4923V17.2579L8.38716 17.4454L7.96528 17.1668C7.89612 17.1214 7.81178 17.1053 7.73077 17.122C7.64975 17.1387 7.57866 17.1869 7.53308 17.2559C7.4875 17.3249 7.47115 17.4092 7.48762 17.4903C7.50408 17.5713 7.55201 17.6426 7.62091 17.6884L8.07364 17.9873L8.10618 18.5289C8.11094 18.6083 8.14584 18.6829 8.20374 18.7375C8.26165 18.7921 8.3382 18.8226 8.41778 18.8226C8.42411 18.8226 8.43044 18.8225 8.4368 18.8221C8.51953 18.8171 8.5969 18.7795 8.65189 18.7175C8.70687 18.6554 8.73497 18.5741 8.73001 18.4914L8.69969 17.9867L9.02423 17.7992L9.68751 18.182V18.5567L9.23524 18.7828C9.16178 18.8203 9.1061 18.8853 9.08033 18.9636C9.05457 19.0419 9.06081 19.1273 9.09769 19.201C9.13457 19.2748 9.1991 19.331 9.27723 19.3573C9.35535 19.3837 9.44074 19.3781 9.51477 19.3418L10 19.0995L10.4852 19.3421C10.5593 19.3784 10.6447 19.384 10.7228 19.3576C10.8009 19.3312 10.8654 19.275 10.9023 19.2013C10.9392 19.1275 10.9454 19.0422 10.9197 18.9639C10.8939 18.8855 10.8382 18.8206 10.7648 18.7831L10.3125 18.557V18.1823L10.9758 17.7994L11.3003 17.9869L11.27 18.4917C11.265 18.5744 11.2931 18.6557 11.3481 18.7177C11.4031 18.7797 11.4805 18.8174 11.5632 18.8223C11.5696 18.8227 11.5759 18.8229 11.5822 18.8229C11.6618 18.8228 11.7384 18.7924 11.7963 18.7378C11.8542 18.6832 11.8891 18.6086 11.8938 18.5291L11.9264 17.9876L12.3791 17.6886C12.4135 17.6661 12.4431 17.637 12.4662 17.6029C12.4893 17.5689 12.5055 17.5307 12.5138 17.4904C12.5221 17.4502 12.5223 17.4087 12.5146 17.3683C12.5068 17.3279 12.4911 17.2895 12.4685 17.2551C12.4458 17.2208 12.4166 17.1913 12.3825 17.1683C12.3485 17.1453 12.3102 17.1293 12.2699 17.1211C12.2296 17.1129 12.1881 17.1128 12.1477 17.1206C12.1074 17.1285 12.069 17.1443 12.0347 17.1671L11.6129 17.4457L11.2884 17.2582V16.4923L11.6129 16.3048L12.0347 16.5834C12.069 16.6062 12.1074 16.622 12.1477 16.6299C12.1881 16.6377 12.2296 16.6376 12.2699 16.6294C12.3102 16.6212 12.3485 16.6052 12.3825 16.5822C12.4166 16.5592 12.4458 16.5297 12.4685 16.4953C12.4911 16.461 12.5068 16.4226 12.5146 16.3822C12.5223 16.3418 12.5221 16.3003 12.5138 16.2601C12.5055 16.2198 12.4893 16.1816 12.4662 16.1475C12.4431 16.1135 12.4135 16.0844 12.3791 16.0619L11.9264 15.7629L11.8938 15.2214C11.8919 15.18 11.8817 15.1395 11.864 15.1022C11.8462 15.0648 11.8212 15.0313 11.7905 15.0037C11.7597 14.9761 11.7237 14.9548 11.6847 14.9412C11.6456 14.9275 11.6042 14.9218 11.563 14.9243C11.5217 14.9268 11.4813 14.9374 11.4441 14.9556C11.407 14.9738 11.3738 14.9992 11.3466 15.0303C11.3193 15.0615 11.2985 15.0977 11.2854 15.1369C11.2722 15.1761 11.267 15.2176 11.27 15.2588L11.3003 15.7635L10.9758 15.951L10.3125 15.5682V15.1935L10.7648 14.9674C10.8018 14.9492 10.8349 14.9239 10.8621 14.8929C10.8893 14.8619 10.9101 14.8258 10.9233 14.7868C10.9365 14.7477 10.9418 14.7064 10.9389 14.6652C10.9361 14.6241 10.9251 14.5839 10.9067 14.547C10.8882 14.5101 10.8627 14.4773 10.8315 14.4503C10.8003 14.4233 10.764 14.4028 10.7248 14.3899C10.6857 14.3771 10.6443 14.3721 10.6032 14.3752C10.5621 14.3784 10.522 14.3897 10.4852 14.4084L10 14.6507L9.51477 14.4081C9.47803 14.3894 9.43794 14.3781 9.39682 14.3749C9.3557 14.3718 9.31436 14.3768 9.27518 14.3897C9.236 14.4026 9.19976 14.4231 9.16855 14.45C9.13734 14.477 9.11177 14.5099 9.09333 14.5468C9.07488 14.5836 9.06392 14.6238 9.06107 14.665C9.05823 14.7061 9.06355 14.7474 9.07675 14.7865C9.08994 14.8256 9.11074 14.8616 9.13794 14.8926C9.16514 14.9236 9.19821 14.9489 9.23524 14.9671L9.68751 15.1932V15.568L9.02423 15.9508L8.69969 15.7633L8.73001 15.2585C8.733 15.2173 8.72777 15.1759 8.71462 15.1366C8.70148 15.0974 8.68068 15.0612 8.65343 15.0301C8.62618 14.999 8.59302 14.9736 8.55588 14.9553C8.51873 14.9371 8.47835 14.9265 8.43706 14.924C8.39577 14.9215 8.3544 14.9273 8.31534 14.9409C8.27629 14.9545 8.24033 14.9758 8.20955 15.0034C8.17877 15.0311 8.15378 15.0645 8.13604 15.1019C8.1183 15.1393 8.10815 15.1798 8.10618 15.2211L8.07364 15.7627L7.62091 16.0616C7.58662 16.0842 7.55713 16.1134 7.53412 16.1474C7.51111 16.1814 7.49503 16.2196 7.4868 16.2599C7.47858 16.3001 7.47836 16.3416 7.48617 16.3819C7.49398 16.4222 7.50966 16.4606 7.53231 16.4948ZM9.33673 16.4922L10 16.1094L10.6633 16.4922V17.2579L10 17.6407L9.33673 17.2579V16.4922Z" fill="#222222"/>
<path d="M3.74128 14.1685L3.55562 14.2756L3.25874 14.0796C3.18958 14.0342 3.10524 14.0181 3.02423 14.0348C2.94321 14.0515 2.87212 14.0997 2.82654 14.1687C2.78096 14.2377 2.76461 14.322 2.78108 14.4031C2.79754 14.4841 2.84547 14.5554 2.91437 14.6011L3.24214 14.8176L3.26558 15.2096C3.27033 15.2891 3.30522 15.3637 3.36313 15.4183C3.42103 15.4729 3.49759 15.5034 3.57718 15.5035C3.58347 15.5035 3.58987 15.5035 3.59624 15.5029C3.67897 15.4979 3.75634 15.4603 3.81132 15.3983C3.86631 15.3362 3.89441 15.2549 3.88944 15.1722L3.86812 14.8167L4.05378 14.7095L4.50796 14.9718V15.1861L4.1896 15.3453C4.11614 15.3828 4.06046 15.4478 4.03469 15.5261C4.00893 15.6044 4.01517 15.6897 4.05205 15.7635C4.08893 15.8373 4.15346 15.8934 4.23159 15.9198C4.30971 15.9462 4.3951 15.9406 4.46913 15.9043L4.82046 15.7285L5.17183 15.9043C5.24597 15.9414 5.33179 15.9475 5.41041 15.9212C5.44935 15.9083 5.48534 15.8877 5.51634 15.8608C5.54734 15.834 5.57274 15.8012 5.59109 15.7645C5.60944 15.7278 5.62038 15.6878 5.62328 15.6469C5.62619 15.606 5.621 15.5649 5.60802 15.5259C5.59503 15.487 5.57451 15.451 5.54762 15.42C5.52073 15.389 5.48799 15.3636 5.45128 15.3452L5.13312 15.1863V14.972L5.5873 14.7097L5.77296 14.8169L5.75164 15.1724C5.74667 15.2551 5.77477 15.3364 5.82976 15.3985C5.88474 15.4605 5.96211 15.4981 6.04484 15.5031C6.05121 15.5035 6.05757 15.5036 6.0639 15.5036C6.14349 15.5036 6.22005 15.4731 6.27795 15.4185C6.33586 15.3639 6.37075 15.2893 6.3755 15.2098L6.39894 14.8177L6.72672 14.6013C6.76109 14.5788 6.79068 14.5497 6.81379 14.5157C6.83689 14.4817 6.85306 14.4434 6.86136 14.4031C6.86966 14.3629 6.86994 14.3214 6.86217 14.281C6.8544 14.2406 6.83874 14.2022 6.81608 14.1679C6.79343 14.1335 6.76422 14.104 6.73015 14.081C6.69607 14.058 6.65778 14.042 6.61749 14.0338C6.5772 14.0256 6.53569 14.0255 6.49533 14.0334C6.45498 14.0412 6.41658 14.057 6.38234 14.0798L6.08546 14.2758L5.8998 14.1687V13.644L6.08546 13.5369L6.38234 13.7329C6.41658 13.7557 6.45498 13.7715 6.49533 13.7794C6.53569 13.7873 6.5772 13.7871 6.61749 13.7789C6.65778 13.7707 6.69607 13.7547 6.73015 13.7317C6.76422 13.7087 6.79343 13.6792 6.81608 13.6449C6.83874 13.6105 6.8544 13.5721 6.86217 13.5317C6.86994 13.4914 6.86966 13.4498 6.86136 13.4096C6.85306 13.3693 6.83689 13.3311 6.81379 13.2971C6.79068 13.263 6.76109 13.2339 6.72672 13.2114L6.39894 12.995L6.3755 12.6029C6.37329 12.5618 6.36296 12.5215 6.34511 12.4843C6.32726 12.4472 6.30225 12.414 6.27151 12.3865C6.24077 12.3591 6.20491 12.338 6.16599 12.3245C6.12707 12.311 6.08587 12.3053 6.04474 12.3078C6.00362 12.3102 5.96339 12.3208 5.92637 12.3389C5.88935 12.357 5.85626 12.3822 5.82902 12.4131C5.80178 12.444 5.78092 12.48 5.76764 12.519C5.75436 12.558 5.74892 12.5992 5.75164 12.6403L5.77296 12.9958L5.5873 13.103L5.13312 12.8406V12.6262L5.45144 12.467C5.52558 12.43 5.58195 12.365 5.60817 12.2864C5.63439 12.2077 5.6283 12.1219 5.59124 12.0478C5.55419 11.9736 5.4892 11.9173 5.41057 11.891C5.33194 11.8648 5.24612 11.8709 5.17199 11.908L4.82062 12.0838L4.46929 11.908C4.39525 11.8717 4.30987 11.8661 4.23174 11.8925C4.15362 11.9189 4.08908 11.975 4.0522 12.0488C4.01532 12.1225 4.00908 12.2079 4.03485 12.2862C4.06062 12.3645 4.1163 12.4295 4.18976 12.467L4.50812 12.6261V12.8405L4.05394 13.1027L3.86827 12.9956L3.8896 12.6401C3.89232 12.599 3.88688 12.5577 3.8736 12.5187C3.86032 12.4797 3.83945 12.4438 3.81221 12.4129C3.78497 12.3819 3.75189 12.3567 3.71487 12.3387C3.67785 12.3206 3.63762 12.31 3.59649 12.3075C3.55537 12.3051 3.51416 12.3108 3.47525 12.3243C3.43633 12.3378 3.40047 12.3589 3.36973 12.3863C3.33899 12.4137 3.31398 12.447 3.29613 12.4841C3.27828 12.5212 3.26795 12.5615 3.26573 12.6027L3.2423 12.9947L2.91452 13.2111C2.88014 13.2337 2.85055 13.2628 2.82745 13.2968C2.80434 13.3308 2.78818 13.3691 2.77987 13.4093C2.77157 13.4496 2.7713 13.4911 2.77907 13.5315C2.78684 13.5719 2.8025 13.6103 2.82516 13.6446C2.84781 13.6789 2.87701 13.7084 2.91109 13.7314C2.94517 13.7544 2.98345 13.7705 3.02375 13.7787C3.06404 13.7869 3.10555 13.787 3.1459 13.7791C3.18625 13.7712 3.22465 13.7555 3.2589 13.7327L3.55577 13.5367L3.74144 13.6438L3.74128 14.1685ZM4.36628 13.644L4.82046 13.3818L5.27464 13.644V14.1685L4.82062 14.4307L4.36644 14.1685L4.36628 13.644Z" fill="#222222"/>
<path d="M13.947 12.6223C13.906 12.6198 13.865 12.6254 13.8262 12.6388C13.7874 12.6522 13.7516 12.6732 13.7209 12.7004C13.6902 12.7276 13.6652 12.7606 13.6472 12.7975C13.6293 12.8345 13.6188 12.8745 13.6163 12.9155L13.5929 13.3076L13.2651 13.524C13.2307 13.5465 13.2011 13.5756 13.178 13.6097C13.1549 13.6437 13.1388 13.6819 13.1305 13.7222C13.1222 13.7624 13.1219 13.804 13.1297 13.8443C13.1374 13.8847 13.1531 13.9231 13.1757 13.9575C13.1984 13.9918 13.2276 14.0213 13.2617 14.0443C13.2958 14.0673 13.334 14.0833 13.3743 14.0915C13.4146 14.0997 13.4561 14.0999 13.4965 14.092C13.5368 14.0841 13.5752 14.0683 13.6095 14.0455L13.9064 13.8495L14.092 13.9566V14.4811L13.9064 14.5882L13.6095 14.3922C13.5403 14.3468 13.456 14.3307 13.375 14.3474C13.294 14.3641 13.2229 14.4123 13.1773 14.4813C13.1317 14.5503 13.1154 14.6346 13.1318 14.7157C13.1483 14.7967 13.1962 14.868 13.2651 14.9137L13.5929 15.1301L13.6163 15.5222C13.6211 15.6017 13.656 15.6763 13.7139 15.7309C13.7718 15.7855 13.8483 15.816 13.9279 15.816C13.9342 15.816 13.9406 15.816 13.947 15.8155C14.0297 15.8105 14.1071 15.7729 14.1621 15.7108C14.217 15.6488 14.2451 15.5675 14.2402 15.4848L14.2189 15.1293L14.4045 15.0221L14.8587 15.2844V15.4987L14.5403 15.6579C14.4669 15.6954 14.4112 15.7603 14.3854 15.8387C14.3597 15.917 14.3659 16.0023 14.4028 16.0761C14.4397 16.1498 14.5042 16.206 14.5823 16.2324C14.6604 16.2588 14.7458 16.2532 14.8199 16.2169L15.1712 16.0411L15.5225 16.2169C15.5965 16.2532 15.6819 16.2588 15.76 16.2324C15.8382 16.206 15.9027 16.1498 15.9396 16.0761C15.9764 16.0023 15.9827 15.917 15.9569 15.8387C15.9312 15.7603 15.8755 15.6954 15.802 15.6579L15.4837 15.4987V15.2844L15.9379 15.0221L16.1235 15.1293L16.1022 15.4848C16.0972 15.5675 16.1253 15.6488 16.1802 15.7108C16.2352 15.7728 16.3125 15.8104 16.3952 15.8155C16.4016 15.8158 16.4079 15.816 16.4142 15.816C16.4938 15.816 16.5704 15.7855 16.6283 15.7309C16.6862 15.6763 16.7211 15.6017 16.7258 15.5223L16.7493 15.1301L17.077 14.9137C17.1114 14.8912 17.141 14.8621 17.1641 14.8281C17.1872 14.7941 17.2034 14.7558 17.2117 14.7155C17.22 14.6753 17.2202 14.6338 17.2125 14.5934C17.2047 14.553 17.189 14.5146 17.1664 14.4803C17.1437 14.446 17.1145 14.4164 17.0804 14.3934C17.0464 14.3704 17.0081 14.3544 16.9678 14.3462C16.9275 14.338 16.886 14.3379 16.8456 14.3458C16.8053 14.3536 16.7669 14.3694 16.7326 14.3922L16.4358 14.5883L16.2501 14.4811V13.9566L16.4358 13.8494L16.7326 14.0455C16.7669 14.0683 16.8053 14.0841 16.8456 14.092C16.886 14.0999 16.9275 14.0997 16.9678 14.0915C17.0081 14.0833 17.0464 14.0673 17.0804 14.0443C17.1145 14.0213 17.1437 13.9918 17.1664 13.9575C17.189 13.9231 17.2047 13.8847 17.2125 13.8443C17.2202 13.804 17.22 13.7624 17.2117 13.7222C17.2034 13.6819 17.1872 13.6437 17.1641 13.6097C17.141 13.5756 17.1114 13.5465 17.077 13.524L16.7493 13.3076L16.7258 12.9155C16.7239 12.8741 16.7137 12.8336 16.696 12.7963C16.6782 12.7589 16.6532 12.7254 16.6225 12.6978C16.5917 12.6702 16.5557 12.6489 16.5167 12.6353C16.4776 12.6216 16.4363 12.6159 16.395 12.6184C16.3537 12.6209 16.3133 12.6315 16.2761 12.6497C16.239 12.6679 16.2058 12.6933 16.1786 12.7244C16.1513 12.7556 16.1305 12.7918 16.1174 12.831C16.1042 12.8702 16.099 12.9117 16.102 12.9529L16.1233 13.3084L15.9377 13.4156L15.4835 13.1534V12.9388L15.8018 12.7796C15.8388 12.7614 15.8719 12.7361 15.8991 12.7051C15.9263 12.6741 15.9471 12.6381 15.9603 12.599C15.9735 12.5599 15.9788 12.5186 15.976 12.4775C15.9731 12.4363 15.9622 12.3961 15.9437 12.3593C15.9253 12.3224 15.8997 12.2895 15.8685 12.2625C15.8373 12.2356 15.8011 12.2151 15.7619 12.2022C15.7227 12.1893 15.6814 12.1843 15.6402 12.1874C15.5991 12.1906 15.559 12.2019 15.5223 12.2206L15.171 12.3964L14.8197 12.2206C14.7456 12.1843 14.6603 12.1787 14.5821 12.2051C14.504 12.2315 14.4395 12.2877 14.4026 12.3614C14.3657 12.4352 14.3595 12.5205 14.3852 12.5988C14.411 12.6772 14.4667 12.7421 14.5401 12.7796L14.8585 12.9388V13.1532L14.4043 13.4154L14.2187 13.3082L14.24 12.9527C14.2449 12.8701 14.2168 12.7888 14.1619 12.7269C14.1069 12.6649 14.0296 12.6273 13.947 12.6223ZM14.717 13.9566L15.1712 13.6944L15.6254 13.9566V14.4811L15.1712 14.7433L14.717 14.4811V13.9566Z" fill="#222222"/>
<path d="M3.125 5H16.875V5.625H3.125V5Z" fill="#222222"/>
<path d="M18.4375 1.875H1.5625C1.47965 1.87509 1.40022 1.90805 1.34163 1.96663C1.28305 2.02522 1.25009 2.10465 1.25 2.1875V6.5625C1.25009 6.64535 1.28305 6.72478 1.34163 6.78337C1.40022 6.84195 1.47965 6.87491 1.5625 6.875H2.5V5C2.5002 4.8343 2.56611 4.67544 2.68328 4.55828C2.80044 4.44111 2.9593 4.3752 3.125 4.375H16.875C17.0407 4.3752 17.1996 4.44111 17.3167 4.55828C17.4339 4.67544 17.4998 4.8343 17.5 5V6.875H18.4375C18.5204 6.87491 18.5998 6.84195 18.6584 6.78337C18.717 6.72478 18.7499 6.64535 18.75 6.5625V2.1875C18.7499 2.10465 18.717 2.02522 18.6584 1.96663C18.5998 1.90805 18.5204 1.87509 18.4375 1.875ZM14.1566 3.75C14.0948 3.75 14.0343 3.73167 13.9829 3.69733C13.9316 3.663 13.8915 3.61419 13.8679 3.55709C13.8442 3.49999 13.838 3.43715 13.8501 3.37653C13.8621 3.31592 13.8919 3.26023 13.9356 3.21653C13.9793 3.17283 14.035 3.14306 14.0956 3.131C14.1562 3.11895 14.219 3.12514 14.2762 3.14879C14.3333 3.17244 14.3821 3.21249 14.4164 3.26388C14.4507 3.31527 14.4691 3.37569 14.4691 3.4375C14.4691 3.52038 14.4361 3.59987 14.3775 3.65847C14.3189 3.71708 14.2394 3.75 14.1566 3.75ZM15.3125 3.75C15.2507 3.75 15.1903 3.73167 15.1389 3.69733C15.0875 3.663 15.0474 3.61419 15.0238 3.55709C15.0001 3.49999 14.9939 3.43715 15.006 3.37653C15.0181 3.31592 15.0478 3.26023 15.0915 3.21653C15.1352 3.17283 15.1909 3.14306 15.2515 3.131C15.3122 3.11895 15.375 3.12514 15.4321 3.14879C15.4892 3.17244 15.538 3.21249 15.5723 3.26388C15.6067 3.31527 15.625 3.37569 15.625 3.4375C15.625 3.52038 15.5921 3.59987 15.5335 3.65847C15.4749 3.71708 15.3954 3.75 15.3125 3.75ZM16.5625 3.75C16.5007 3.75 16.4403 3.73167 16.3889 3.69733C16.3375 3.663 16.2974 3.61419 16.2738 3.55709C16.2501 3.49999 16.2439 3.43715 16.256 3.37653C16.2681 3.31592 16.2978 3.26023 16.3415 3.21653C16.3852 3.17283 16.4409 3.14306 16.5015 3.131C16.5622 3.11895 16.625 3.12514 16.6821 3.14879C16.7392 3.17244 16.788 3.21249 16.8223 3.26388C16.8567 3.31527 16.875 3.37569 16.875 3.4375C16.875 3.52038 16.8421 3.59987 16.7835 3.65847C16.7249 3.71708 16.6454 3.75 16.5625 3.75Z" fill="#222222"/>
<path d="M3.125 6.25H16.875V6.875H3.125V6.25Z" fill="#222222"/>
<path d="M10 9.0625C10.0829 9.0625 10.1624 9.02958 10.221 8.97097C10.2796 8.91237 10.3125 8.83288 10.3125 8.75V8.4375C10.3125 8.35462 10.2796 8.27513 10.221 8.21653C10.1624 8.15792 10.0829 8.125 10 8.125C9.91712 8.125 9.83763 8.15792 9.77903 8.21653C9.72042 8.27513 9.6875 8.35462 9.6875 8.4375V8.75C9.6875 8.83288 9.72042 8.91237 9.77903 8.97097C9.83763 9.02958 9.91712 9.0625 10 9.0625Z" fill="#222222"/>
<path d="M9.6875 11.5625C9.6875 11.6454 9.72042 11.7249 9.77903 11.7835C9.83763 11.8421 9.91712 11.875 10 11.875C10.0829 11.875 10.1624 11.8421 10.221 11.7835C10.2796 11.7249 10.3125 11.6454 10.3125 11.5625V9.6875C10.3125 9.60462 10.2796 9.52513 10.221 9.46653C10.1624 9.40792 10.0829 9.375 10 9.375C9.91712 9.375 9.83763 9.40792 9.77903 9.46653C9.72042 9.52513 9.6875 9.60462 9.6875 9.6875V11.5625Z" fill="#222222"/>
<path d="M7.0086 10.4061C6.90881 10.5078 6.80147 10.6018 6.6875 10.6874C6.6212 10.7371 6.57736 10.8111 6.56564 10.8932C6.55392 10.9752 6.57527 11.0585 6.625 11.1249C6.67473 11.1912 6.74876 11.235 6.83081 11.2467C6.91286 11.2584 6.9962 11.2371 7.0625 11.1874C7.20178 11.0828 7.33296 10.9679 7.45493 10.8436C7.51246 10.7843 7.54417 10.7047 7.54314 10.6221C7.5421 10.5395 7.50841 10.4606 7.44941 10.4028C7.39042 10.345 7.31093 10.3129 7.22833 10.3135C7.14572 10.3141 7.06672 10.3474 7.0086 10.4061Z" fill="#222222"/>
<path d="M7.73925 9.97389C7.77686 9.99035 7.81734 9.99922 7.85838 10C7.89942 10.0008 7.94021 9.99349 7.97842 9.9785C8.01664 9.96351 8.05152 9.94113 8.08107 9.91264C8.11062 9.88416 8.13427 9.85012 8.15066 9.81249C8.34051 9.37898 8.43824 8.91076 8.43765 8.4375C8.43765 8.35462 8.40473 8.27513 8.34612 8.21653C8.28752 8.15792 8.20803 8.125 8.12515 8.125C8.04227 8.125 7.96278 8.15792 7.90418 8.21653C7.84557 8.27513 7.81265 8.35462 7.81265 8.4375C7.81314 8.82471 7.73319 9.2078 7.57785 9.56249C7.54469 9.63845 7.54308 9.72447 7.57335 9.80162C7.60362 9.87877 7.66329 9.94074 7.73925 9.97389Z" fill="#222222"/>
<path d="M13.3127 10.6877C13.0086 10.4601 12.754 10.173 12.5645 9.84391C12.5228 9.77272 12.4546 9.72093 12.3748 9.69983C12.295 9.67874 12.2101 9.69006 12.1387 9.73132C12.0672 9.77258 12.015 9.84044 11.9933 9.92008C11.9717 9.99971 11.9825 10.0847 12.0233 10.1564C12.2549 10.5587 12.566 10.9096 12.9377 11.1877C13.004 11.2374 13.0874 11.2587 13.1694 11.247C13.2515 11.2353 13.3255 11.1915 13.3752 11.1252C13.4249 11.0588 13.4463 10.9755 13.4346 10.8935C13.4229 10.8114 13.379 10.7374 13.3127 10.6877Z" fill="#222222"/>
<path d="M12.1875 8.4375C12.1875 8.35462 12.1546 8.27513 12.096 8.21653C12.0374 8.15792 11.9579 8.125 11.875 8.125C11.7921 8.125 11.7126 8.15792 11.654 8.21653C11.5954 8.27513 11.5625 8.35462 11.5625 8.4375C11.5626 8.66841 11.5858 8.89873 11.6319 9.125C11.6485 9.20621 11.6966 9.27751 11.7658 9.32322C11.8349 9.36892 11.9194 9.38529 12.0006 9.36871C12.0818 9.35214 12.1531 9.30398 12.1988 9.23483C12.2445 9.16568 12.2609 9.08121 12.2443 9C12.2066 8.81488 12.1875 8.62643 12.1875 8.4375Z" fill="#222222"/>
</svg>
