<svg width="20" height="20" viewBox="0 0 20 20" fill="none" xmlns="http://www.w3.org/2000/svg">
<path d="M13.3337 13.8917V18.3334H6.66699V13.8917L10.0003 11.6667L13.3337 13.8917Z" fill="white"/>
<path d="M18.792 14.3084L17.8753 15.6917L17.5003 15.45V19.1667H13.3337V13.8917L10.917 12.2834L13.3337 10.6667L18.792 14.3084Z" fill="#F9C41F"/>
<path d="M1.20801 14.3084L2.12467 15.6917L2.49967 15.45V19.1667H6.66634V13.8917L9.08301 12.2834L6.66634 10.6667L1.20801 14.3084Z" fill="#F9C41F" fill-opacity="0.2"/>
<path d="M10.0003 10.6667L4.54199 14.3084L5.45866 15.6917L5.83366 15.45V19.1667H14.167V15.45L14.542 15.6917L15.4587 14.3084L10.0003 10.6667ZM12.5003 17.5H10.8337V15.8334H9.16699V17.5H7.50033V14.3334L10.0003 12.6667L12.5003 14.3334V17.5Z" fill="#7A7A7A"/>
<path d="M12.5 6.24998C12.5 5.69745 12.2805 5.16754 11.8898 4.77684C11.4991 4.38614 10.9692 4.16665 10.4166 4.16665H9.58331C9.47281 4.16665 9.36683 4.12275 9.28869 4.04461C9.21055 3.96647 9.16665 3.86049 9.16665 3.74998C9.16665 3.63947 9.21055 3.53349 9.28869 3.45535C9.36683 3.37721 9.47281 3.33331 9.58331 3.33331H12.5V1.66665H10.8333V0.833313H9.16665V1.66665C8.61411 1.7219 8.10616 1.99438 7.75453 2.42415C7.4029 2.85393 7.23639 3.40578 7.29165 3.95831C7.3469 4.51085 7.61938 5.0188 8.04916 5.37043C8.47893 5.72206 9.03078 5.88857 9.58331 5.83331H10.4166C10.5272 5.83331 10.6331 5.87721 10.7113 5.95535C10.7894 6.03349 10.8333 6.13947 10.8333 6.24998C10.8333 6.36049 10.7894 6.46647 10.7113 6.54461C10.6331 6.62275 10.5272 6.66665 10.4166 6.66665H7.49998V8.33331H9.16665V9.16665H10.8333V8.33331C11.311 8.23592 11.7394 7.9741 12.0439 7.59343C12.3484 7.21277 12.5098 6.73737 12.5 6.24998Z" fill="#7A7A7A"/>
</svg>
