<svg width="24" height="24" viewBox="0 0 24 24" fill="none" xmlns="http://www.w3.org/2000/svg">
<path d="M9 8H4V22H9V8Z" fill="white"/>
<path d="M9 22H17L17 2H9L9 22Z" fill="white"/>
<path d="M17 22H21V11L17 10V22Z" fill="white"/>
<path d="M14 5H10V7H14V5Z" fill="#F9C41F" fill-opacity="0.2"/>
<path d="M14 9H10V11H14V9Z" fill="#F9C41F" fill-opacity="0.2"/>
<path d="M14 13H10V15H14V13Z" fill="#F9C41F" fill-opacity="0.2"/>
<path d="M14 17H10V19H14V17Z" fill="#F9C41F" fill-opacity="0.2"/>
<path d="M22 21V10.22L18 9.22V1H8V7H3V21H1V23H23V21H22ZM8 21H5V9H8V21ZM16 21H10V3H16V21ZM20 21H18V11.28L20 11.78V21Z" fill="#4E4E4E"/>
<path d="M2.81 16.4005C2.63956 16.1784 2.53468 15.913 2.50723 15.6344C2.47978 15.3557 2.53085 15.075 2.65468 14.8239C2.7785 14.5728 2.97013 14.3614 3.20789 14.2135C3.44564 14.0657 3.72003 13.9873 4 13.9873C4.27997 13.9873 4.55436 14.0657 4.79211 14.2135C5.02987 14.3614 5.2215 14.5728 5.34532 14.8239C5.46915 15.075 5.52022 15.3557 5.49277 15.6344C5.46532 15.913 5.36044 16.1784 5.19 16.4005C5.52823 16.6509 5.77886 17.0016 5.90622 17.4027C6.03357 17.8038 6.03116 18.2348 5.89933 18.6345C5.7675 19.0341 5.51296 19.382 5.17195 19.6286C4.83094 19.8752 4.42083 20.0079 4 20.0079C3.57917 20.0079 3.16906 19.8752 2.82805 19.6286C2.48704 19.382 2.2325 19.0341 2.10067 18.6345C1.96884 18.2348 1.96643 17.8038 2.09378 17.4027C2.22114 17.0016 2.47177 16.6509 2.81 16.4005Z" fill="#F9C41F"/>
</svg>
