<svg width="20" height="20" viewBox="0 0 20 20" fill="none" xmlns="http://www.w3.org/2000/svg">
<path d="M15.8984 0H4.10156C1.83996 0 0 1.83996 0 4.10156V15.8984C0 18.16 1.83996 20 4.10156 20H15.8984C18.16 20 20 18.16 20 15.8984V4.10156C20 1.83996 18.16 0 15.8984 0ZM18.8281 15.8984C18.8281 17.5139 17.5139 18.8281 15.8984 18.8281H4.10156C2.48613 18.8281 1.17188 17.5139 1.17188 15.8984V4.10156C1.17188 2.48613 2.48613 1.17188 4.10156 1.17188H15.8984C17.5139 1.17188 18.8281 2.48613 18.8281 4.10156V15.8984Z" fill="#4E4E4E"/>
<path d="M7.30161 7.03906C7.30161 7.03906 6.767 7.04152 6.38247 7.54836C6.04052 7.99907 6.12759 8.38454 6.12759 8.38454C6.12759 8.38454 6.59122 8.46477 6.99911 7.97461C7.3811 7.51559 7.30161 7.03906 7.30161 7.03906Z" fill="#4E4E4E"/>
<path d="M7.73269 10.1385C7.73269 9.35328 8.36566 9.02969 8.36566 9.02969C8.36566 9.02969 8.04203 8.44434 7.21941 8.44434C6.74152 8.44434 6.37437 8.71625 6.17652 8.71625C5.94609 8.71625 5.60207 8.46063 5.15883 8.46063C4.47695 8.46063 3.75 9.07117 3.75 10.235C3.74996 11.4179 4.60883 12.8896 5.28867 12.8896C5.52597 12.8896 5.89031 12.6505 6.25746 12.6505C6.61773 12.6505 6.88359 12.881 7.22554 12.881C7.97003 12.881 8.5212 11.3296 8.5212 11.3296C8.5212 11.3296 7.73269 11.0243 7.73269 10.1385Z" fill="#4E4E4E"/>
<path d="M11.875 11.7744C11.8125 11.8006 11.5234 11.9229 11.3047 11.9229C11.0742 11.9229 10.9141 11.8076 10.9141 11.5244V9.52442H11.7734V8.71973H10.9141V7.3916H9.86719V8.71973H9.32812V9.52442H9.86719V11.876C9.86719 12.501 10.2343 12.8838 10.9297 12.8838C11.1536 12.8838 11.3672 12.8526 11.5703 12.7901C11.7734 12.7276 11.9453 12.6651 12.0859 12.6026L11.875 11.7744Z" fill="#4E4E4E"/>
<path d="M15.3904 8.71973L14.3435 11.9619L13.3044 8.71973H12.2263L13.7341 12.8135H14.8669L16.3748 8.71973H15.3904Z" fill="#4E4E4E"/>
</svg>
