<svg width="24" height="24" viewBox="0 0 24 24" fill="none" xmlns="http://www.w3.org/2000/svg">
<path d="M12.9252 8.3418L7.729 5.3418L4.729 10.5379L9.92516 13.5379L12.9252 8.3418Z" fill="white"/>
<path d="M19.0899 17.67L10.4299 12.67L12.4299 9.20996L21.0899 14.21C21.3289 14.335 21.5402 14.5071 21.711 14.7159C21.8817 14.9247 22.0085 15.1658 22.0837 15.4249C22.1588 15.6839 22.1808 15.9555 22.1483 16.2233C22.1158 16.4911 22.0294 16.7495 21.8944 16.983C21.7594 17.2165 21.5786 17.4204 21.3628 17.5822C21.147 17.744 20.9007 17.8605 20.6387 17.9247C20.3767 17.9889 20.1044 17.9994 19.8383 17.9556C19.5721 17.9118 19.3176 17.8147 19.0899 17.67Z" fill="white"/>
<path d="M3 20H11C11.5304 20 12.0391 20.2107 12.4142 20.5858C12.7893 20.9609 13 21.4696 13 22V23H1V22C1 21.4696 1.21071 20.9609 1.58579 20.5858C1.96086 20.2107 2.46957 20 3 20Z" fill="#F9C41F"/>
<path d="M16.6637 5.875L8.00342 0.875L6.50342 3.47308L15.1637 8.47308L16.6637 5.875Z" fill="#F9C41F" fill-opacity="0.2"/>
<path d="M11.1656 15.3984L2.50537 10.3984L1.00537 12.9965L9.66562 17.9965L11.1656 15.3984Z" fill="#F9C41F" fill-opacity="0.2"/>
<path d="M23.0001 15.16C22.8977 14.7796 22.7213 14.423 22.4811 14.1108C22.2409 13.7985 21.9415 13.5366 21.6001 13.34L13.8001 8.84L14.3001 7.97L7.37012 4L3.37012 10.93L10.2901 14.93L10.7901 14.07L18.5901 18.57C19.107 18.8755 19.7037 19.0188 20.303 18.9815C20.9023 18.9442 21.4766 18.7279 21.9516 18.3606C22.4266 17.9933 22.7804 17.4919 22.9673 16.9213C23.1543 16.3507 23.1657 15.7372 23.0001 15.16ZM8.10012 6.71L11.5601 8.71L9.56012 12.17L6.10012 10.17L8.10012 6.71ZM12.7901 10.57L14.5301 11.57L13.5301 13.3L11.7901 12.3L12.7901 10.57ZM19.5901 16.8L15.2601 14.3L16.2601 12.57C21.0201 15.32 20.9101 15.14 21.0501 15.68C21.099 15.8699 21.0909 16.07 21.0269 16.2554C20.963 16.4407 20.8459 16.6032 20.6903 16.7226C20.5347 16.8419 20.3475 16.9129 20.1519 16.9267C19.9562 16.9404 19.7609 16.8964 19.5901 16.8Z" fill="#4E4E4E"/>
</svg>
