<svg width="37" height="37" viewBox="0 0 33 32" fill="none" xmlns="http://www.w3.org/2000/svg">
<path d="M0.373047 15.9995C0.373047 7.16296 7.53649 -0.000488281 16.373 -0.000488281V-0.000488281C25.2096 -0.000488281 32.373 7.16296 32.373 15.9995V15.9995C32.373 24.8361 25.2096 31.9995 16.373 31.9995V31.9995C7.53649 31.9995 0.373047 24.8361 0.373047 15.9995V15.9995Z" fill="#BFBFBF"/>
<path d="M23.3339 21.0515C22.9549 20.1539 22.405 19.3385 21.7147 18.6509C21.0265 17.9612 20.2113 17.4114 19.314 17.0317C19.306 17.0277 19.298 17.0256 19.2899 17.0216C20.5415 16.1176 21.3551 14.6451 21.3551 12.9837C21.3551 10.2314 19.1252 8.00153 16.373 8.00153C13.6207 8.00153 11.3908 10.2314 11.3908 12.9837C11.3908 14.6451 12.2044 16.1176 13.456 17.0236C13.448 17.0277 13.4399 17.0297 13.4319 17.0337C12.5319 17.4134 11.7243 17.9578 11.0312 18.6529C10.3416 19.3411 9.79172 20.1563 9.41202 21.0535C9.03901 21.932 8.83783 22.8737 8.81939 23.8279C8.81885 23.8493 8.82261 23.8706 8.83045 23.8906C8.83828 23.9106 8.85004 23.9288 8.86501 23.9441C8.87999 23.9595 8.89789 23.9717 8.91766 23.98C8.93742 23.9883 8.95865 23.9926 8.9801 23.9926H10.1855C10.2739 23.9926 10.3442 23.9223 10.3462 23.8359C10.3864 22.285 11.0091 20.8326 12.11 19.7317C13.2491 18.5926 14.7618 17.9658 16.373 17.9658C17.9841 17.9658 19.4968 18.5926 20.6359 19.7317C21.7368 20.8326 22.3596 22.285 22.3997 23.8359C22.4018 23.9243 22.4721 23.9926 22.5605 23.9926H23.7658C23.7873 23.9926 23.8085 23.9883 23.8283 23.98C23.848 23.9717 23.8659 23.9595 23.8809 23.9441C23.8959 23.9288 23.9076 23.9106 23.9155 23.8906C23.9233 23.8706 23.9271 23.8493 23.9265 23.8279C23.9064 22.8676 23.7076 21.9335 23.3339 21.0515V21.0515ZM16.373 16.439C15.4509 16.439 14.583 16.0794 13.9301 15.4265C13.2772 14.7736 12.9176 13.9058 12.9176 12.9837C12.9176 12.0616 13.2772 11.1937 13.9301 10.5408C14.583 9.88792 15.4509 9.52832 16.373 9.52832C17.2951 9.52832 18.1629 9.88792 18.8158 10.5408C19.4687 11.1937 19.8283 12.0616 19.8283 12.9837C19.8283 13.9058 19.4687 14.7736 18.8158 15.4265C18.1629 16.0794 17.2951 16.439 16.373 16.439Z" fill="white"/>
</svg>
