<svg width="24" height="24" viewBox="0 0 24 24" fill="none" xmlns="http://www.w3.org/2000/svg">
<path d="M18 20H6C5.20435 20 4.44129 19.6839 3.87868 19.1213C3.31607 18.5587 3 17.7956 3 17V11H9L12 13H21V17C21 17.7956 20.6839 18.5587 20.1213 19.1213C19.5587 19.6839 18.7956 20 18 20Z" fill="white"/>
<path d="M12.3 12L9.3 10H6V5C6 4.46957 6.21071 3.96086 6.58579 3.58579C6.96086 3.21071 7.46957 3 8 3C8.53043 3 9.03914 3.21071 9.41421 3.58579C9.78929 3.96086 10 4.46957 10 5H12C12 3.93913 11.5786 2.92172 10.8284 2.17157C10.0783 1.42143 9.06087 1 8 1C6.93913 1 5.92172 1.42143 5.17157 2.17157C4.42143 2.92172 4 3.93913 4 5V10H1V12H2V17C2.00202 17.8006 2.24422 18.5821 2.69527 19.2435C3.14631 19.9049 3.78545 20.4158 4.53 20.71L4 21.76V23H6C6 22 5.87 22.51 6.62 21H17.38C18.12 22.49 18 22 18 23H20V21.76L19.47 20.71C20.2145 20.4158 20.8537 19.9049 21.3047 19.2435C21.7558 18.5821 21.998 17.8006 22 17V14H23V12H12.3ZM20 17C20 17.5304 19.7893 18.0391 19.4142 18.4142C19.0391 18.7893 18.5304 19 18 19H6C5.46957 19 4.96086 18.7893 4.58579 18.4142C4.21071 18.0391 4 17.5304 4 17V12H8.7L11.7 14H20V17Z" fill="#7A7A7A"/>
<path d="M10 5H12C12.2652 5 12.5196 5.10536 12.7071 5.29289C12.8946 5.48043 13 5.73478 13 6V7H9V6C9 5.73478 9.10536 5.48043 9.29289 5.29289C9.48043 5.10536 9.73478 5 10 5V5Z" fill="#F9C41F"/>
<path d="M18 12H13V17H18V12Z" fill="#F9C41F" fill-opacity="0.2"/>
</svg>
