<svg width="20" height="20" viewBox="0 0 20 20" fill="none" xmlns="http://www.w3.org/2000/svg">
<path d="M18.1721 6.87825L14.7592 3.65505C13.9522 2.8905 12.8823 2.46504 11.7706 2.46681H7.87528C6.72023 2.46368 5.61199 2.92275 4.79729 3.74195L1.65512 6.88369C0.962074 7.57297 0.573465 8.51089 0.576186 9.48838V13.7503C0.579013 15.6537 2.12141 17.1962 4.02489 17.199H15.8777C17.7811 17.1962 19.3234 15.6537 19.3262 13.7503V9.55559C19.3244 8.54282 18.9072 7.57496 18.1721 6.87825ZM7.87528 3.13652V3.80611C7.58979 3.80601 7.30577 3.846 7.03117 3.92505L6.84513 3.28215C7.17993 3.18509 7.52677 3.1361 7.87528 3.13652ZM5.27101 4.21535C5.51892 3.96714 5.80075 3.75566 6.10811 3.58689L6.43024 4.1742C6.17857 4.31229 5.94783 4.48556 5.74516 4.68887L4.86063 5.57706L4.38544 5.10448L5.27101 4.21535ZM3.65669 6.49141C4.81299 6.72027 5.77437 7.51989 6.20998 8.61527L6.21637 8.63055C8.66883 8.0111 11.2368 8.0111 13.6891 8.63055L13.6952 8.61485C14.1306 7.52041 15.0907 6.721 16.2459 6.49141L16.3771 7.14772C15.4634 7.32978 14.6999 7.95331 14.3387 8.81208C14.7071 8.92358 15.0713 9.04638 15.4292 9.18625L15.1848 9.80988C11.8168 8.50502 8.08289 8.50502 4.7149 9.80988L4.47044 9.18625C4.82859 9.04565 5.19312 8.92358 5.56111 8.81208C5.20013 7.95331 4.43632 7.32957 3.52269 7.14772L3.65669 6.49141ZM15.8777 12.1766H4.02489C3.02499 12.1693 2.06634 11.7766 1.34869 11.0801L1.81007 10.5946C2.40334 11.1724 3.19669 11.4993 4.02489 11.5071H15.8777C16.7057 11.4993 17.4991 11.1724 18.0923 10.5946L18.5538 11.0801C17.8362 11.7766 16.8776 12.1693 15.8777 12.1766Z" fill="#4E4E4E"/>
</svg>
