<svg width="24" height="24" viewBox="0 0 24 24" fill="none" xmlns="http://www.w3.org/2000/svg">
<path d="M4 12H20C20.5304 12 21.0391 12.2107 21.4142 12.5858C21.7893 12.9609 22 13.4696 22 14V18H2V14C2 13.4696 2.21071 12.9609 2.58579 12.5858C2.96086 12.2107 3.46957 12 4 12V12Z" fill="white"/>
<path d="M20 6H4V12H20V6Z" fill="white"/>
<path d="M23 14C22.9983 13.3811 22.8051 12.7778 22.4471 12.2729C22.089 11.7681 21.5835 11.3863 21 11.18V5H3V11.18C2.41645 11.3863 1.911 11.7681 1.55294 12.2729C1.19488 12.7778 1.00174 13.3811 1 14V19H3V21H5V19H19V21H21V19H23V14ZM5 7H19V11H5V7ZM21 17H3V14C3 13.7348 3.10536 13.4804 3.29289 13.2929C3.48043 13.1054 3.73478 13 4 13H20C20.2652 13 20.5196 13.1054 20.7071 13.2929C20.8946 13.4804 21 13.7348 21 14V17Z" fill="#7A7A7A"/>
<path d="M8 9H10C10.2652 9 10.5196 9.10536 10.7071 9.29289C10.8946 9.48043 11 9.73478 11 10V11H7V10C7 9.73478 7.10536 9.48043 7.29289 9.29289C7.48043 9.10536 7.73478 9 8 9Z" fill="#F9C41F" fill-opacity="0.2"/>
<path d="M14 9H16C16.2652 9 16.5196 9.10536 16.7071 9.29289C16.8946 9.48043 17 9.73478 17 10V11H13V10C13 9.73478 13.1054 9.48043 13.2929 9.29289C13.4804 9.10536 13.7348 9 14 9V9Z" fill="#F9C41F" fill-opacity="0.2"/>
<path d="M5 3H3V5H5V3Z" fill="#F9C41F"/>
<path d="M21 3H19V5H21V3Z" fill="#F9C41F"/>
</svg>
