<svg width="20" height="20" viewBox="0 0 20 20" fill="none" xmlns="http://www.w3.org/2000/svg">
<path d="M17.8515 0H2.14844C0.963789 0 0 0.963789 0 2.14844V17.8515C0 19.0363 0.963789 20 2.14844 20H17.8515C19.0363 20 20 19.0363 20 17.8515V2.14844C20 0.963789 19.0363 0 17.8515 0ZM18.8281 17.8515C18.8281 18.39 18.39 18.8281 17.8515 18.8281H2.14844C1.60996 18.8281 1.17188 18.39 1.17188 17.8515V2.14844C1.17188 1.60996 1.60996 1.17188 2.14844 1.17188H17.8515C18.39 1.17188 18.8281 1.60996 18.8281 2.14844V17.8515Z" fill="#222222"/>
<path d="M14.8828 10C14.68 10 14.4819 10.0208 14.2905 10.0602L13.0776 7.23011L12.3725 5.58473C12.3364 5.50063 12.3673 5.43309 12.389 5.40027C12.4106 5.3675 12.4605 5.31246 12.552 5.31246H14.3294C14.6346 5.31246 14.8828 5.5607 14.8828 5.86586C14.8828 6.17101 14.6346 6.41926 14.3294 6.41926C14.0059 6.41926 13.7435 6.6816 13.7435 7.0052C13.7435 7.32879 14.0059 7.59114 14.3294 7.59114C15.2808 7.59114 16.0547 6.81719 16.0547 5.86586C16.0547 4.91454 15.2808 4.14062 14.3294 4.14062H12.552C12.091 4.14062 11.6643 4.37035 11.4106 4.7552C11.1568 5.14004 11.1137 5.6227 11.2953 6.04636L11.6505 6.875H8.04688V5.3125H8.63281C8.9564 5.3125 9.21875 5.05016 9.21875 4.72656C9.21875 4.40296 8.9564 4.14062 8.63281 4.14062H6.28906C5.96548 4.14062 5.70312 4.40296 5.70312 4.72656C5.70312 5.05016 5.96548 5.3125 6.28906 5.3125H6.875V7.34066L5.70949 10.0602C5.51813 10.0208 5.32004 10 5.11719 10C3.50176 10 2.1875 11.3143 2.1875 12.9297C2.1875 14.5451 3.50176 15.8594 5.11719 15.8594C6.53204 15.8594 7.7157 14.8512 7.98792 13.5156H10.1953C10.4297 13.5156 10.6416 13.3759 10.7339 13.1605L12.539 8.9484L13.2141 10.5236C12.4528 11.0533 11.9531 11.934 11.9531 12.9297C11.9531 14.5451 13.2674 15.8594 14.8828 15.8594C16.4983 15.8594 17.8125 14.5451 17.8125 12.9297C17.8125 11.3143 16.4983 10 14.8828 10ZM5.11719 14.6875C4.14793 14.6875 3.35938 13.899 3.35938 12.9297C3.35938 11.9604 4.14793 11.1719 5.11719 11.1719C5.15555 11.1719 5.19351 11.1735 5.23129 11.176L4.57864 12.6989C4.45114 12.9962 4.58895 13.3407 4.88636 13.4683C4.96164 13.5005 5.03993 13.5157 5.11691 13.5157C5.34421 13.5157 5.56051 13.3826 5.65574 13.1605L6.30813 11.6383C6.65636 11.9597 6.875 12.4195 6.875 12.9297C6.875 13.899 6.08645 14.6875 5.11719 14.6875ZM9.80895 12.3438H7.98789C7.83492 11.5932 7.39375 10.9466 6.78582 10.5236L7.8473 8.04688H11.6505L9.80895 12.3438ZM14.8828 14.6875C13.9135 14.6875 13.125 13.899 13.125 12.9297C13.125 12.4195 13.3436 11.9596 13.6919 11.6382L14.3442 13.1605C14.4395 13.3826 14.6558 13.5157 14.8831 13.5157C14.9601 13.5157 15.0384 13.5005 15.1136 13.4683C15.411 13.3407 15.5489 12.9962 15.4214 12.6989L14.7687 11.1759C14.8065 11.1735 14.8445 11.1718 14.8828 11.1718C15.8521 11.1718 16.6406 11.9604 16.6406 12.9296C16.6406 13.8989 15.8521 14.6875 14.8828 14.6875Z" fill="#222222"/>
</svg>
