<svg width="18" height="18" viewBox="0 0 24 24" fill="none" xmlns="http://www.w3.org/2000/svg">
<path d="M22 17H6V7H11V3H22V17Z" fill="white"/>
<path d="M3 2H1V18H3V2Z" fill="#F9C41F" fill-opacity="0.2"/>
<path d="M23 20H5V22H23V20Z" fill="#F9C41F" fill-opacity="0.2"/>
<path d="M7 14C7.53043 14 8.03914 14.2107 8.41421 14.5858C8.78929 14.9609 9 15.4696 9 16H7V14Z" fill="#F9C41F"/>
<path d="M19 16C19 15.4696 19.2107 14.9609 19.5858 14.5858C19.9609 14.2107 20.4696 14 21 14V16H19Z" fill="#F9C41F"/>
<path d="M10 2V6H5V18H23V2H10ZM14 16V12H19V10H12V16H7V12H10V10H7V8H12V4H15V8H17V4H21V6H19V8H21V16H14Z" fill="#4E4E4E"/>
</svg>
