<svg width="20" height="20" viewBox="0 0 20 20" fill="none" xmlns="http://www.w3.org/2000/svg">
<g clip-path="url(#clip0_2160_4832)">
<path d="M7.95654 6.875H7.8124C7.63974 6.875 7.4999 7.01484 7.4999 7.1875C7.4999 7.36016 7.63974 7.5 7.8124 7.5H12.1874C12.3601 7.5 12.4999 7.36016 12.4999 7.1875C12.4999 7.01484 12.3601 6.875 12.1874 6.875H12.0433L12.7073 5.38086C12.9832 4.75906 12.5274 4.0625 11.8507 4.0625H10.9374V3.125H11.2499C11.7667 3.125 12.1874 2.7043 12.1874 2.1875C12.1874 1.6707 11.7667 1.25 11.2499 1.25H10.9374V0.9375C10.9374 0.420703 10.5167 0 9.9999 0C9.4831 0 9.0624 0.420703 9.0624 0.9375V1.25H8.7499C8.2331 1.25 7.8124 1.6707 7.8124 2.1875C7.8124 2.7043 8.2331 3.125 8.7499 3.125H9.0624V4.0625H8.14912C7.47158 4.0625 7.01693 4.75988 7.29247 5.38086L7.95654 6.875Z" fill="#4E4E4E"/>
<path d="M11.5625 10C12.0793 10 12.5 9.5793 12.5 9.0625C12.5 8.5457 12.0793 8.125 11.5625 8.125H8.4375C7.9207 8.125 7.5 8.5457 7.5 9.0625C7.5 9.5793 7.9207 10 8.4375 10H11.5625Z" fill="#4E4E4E"/>
<path d="M6.88965 15.0002H13.1102C13.196 15.0002 13.2527 14.9109 13.2162 14.8333C12.417 13.1346 12.2034 11.8001 12.0325 10.6868C12.0221 10.6193 11.9566 10.5763 11.8897 10.5907C11.7842 10.6134 11.6747 10.6252 11.5625 10.6252C8.71125 10.6252 8.34168 10.6435 8.10754 10.592C8.0416 10.5774 7.97738 10.622 7.9673 10.6887C7.82328 11.6423 7.62281 13.0478 6.78371 14.8332C6.74726 14.9108 6.80382 15.0002 6.88965 15.0002Z" fill="#4E4E4E"/>
<path d="M13.9331 11.3468C13.8167 12.1162 13.6427 12.8771 13.412 13.6248C13.4043 13.6498 13.405 13.6766 13.4144 13.701C13.4919 13.9043 13.5746 14.1057 13.663 14.305C13.6818 14.3474 13.7241 14.3746 13.7704 14.3746H17.9232C18.0043 14.3746 18.0603 14.2945 18.0334 14.2181C17.7049 13.2854 17.4652 12.3249 17.317 11.3468C17.3083 11.2891 17.2591 11.2465 17.2007 11.2471C16.7017 11.2517 14.5487 11.2518 14.0494 11.2471C13.991 11.2466 13.9418 11.2891 13.9331 11.3468Z" fill="#4E4E4E"/>
<path d="M4.86007 19.3645C4.79905 19.3602 4.75823 19.4239 4.78546 19.4787C4.93897 19.7871 5.25757 19.9998 5.62499 19.9998H14.375C14.7423 19.9998 15.0611 19.7872 15.2148 19.4786C15.2434 19.4212 15.1972 19.3578 15.1335 19.3653C14.8096 19.4038 5.17608 19.3863 4.86007 19.3645Z" fill="#4E4E4E"/>
<path d="M19.9135 16.9719C19.893 16.9486 19.8965 16.9536 19.3748 16.5625C18.9848 16.2698 18.7515 15.8049 18.7498 15.3177C18.7492 15.1431 18.612 15 18.4373 15H13.9951L13.9953 15.0004C14.0079 15.0249 14.03 15.0428 14.0561 15.0518C14.4282 15.1802 14.6873 15.5343 14.6873 15.9375C14.6873 16.5057 14.9187 17.0296 15.2967 17.4086L15.3538 17.4657C15.3757 17.4877 15.4055 17.5 15.4366 17.5H19.6873C19.9632 17.5 20.1014 17.1683 19.9135 16.9719Z" fill="#4E4E4E"/>
<path d="M15.2633 18.2695C15.121 18.0419 14.0625 17.3915 14.0625 15.9375C14.0625 15.7648 13.9226 15.625 13.75 15.625H6.24996C6.07731 15.625 5.93746 15.7648 5.93746 15.9375C5.93746 16.5668 5.69723 17.0488 5.6941 17.0582C5.28117 17.9668 4.65567 18.1125 4.68903 18.4681C4.69321 18.511 4.70832 18.5599 4.73457 18.6019C4.77059 18.6599 4.81078 18.6848 4.82696 18.6977C4.93684 18.7709 4.72922 18.75 8.43751 18.75C15.4127 18.75 15.0515 18.7681 15.1488 18.7121C15.2323 18.6777 15.327 18.5454 15.311 18.4067C15.3109 18.3518 15.272 18.2813 15.2633 18.2695Z" fill="#4E4E4E"/>
<path d="M14.0625 10.625H17.1875C17.7043 10.625 18.125 10.2043 18.125 9.6875C18.125 9.1707 17.7043 8.75 17.1875 8.75H16.7504C17.3862 8.36691 17.8125 7.66992 17.8125 6.875C17.8125 5.66875 16.8312 4.6875 15.625 4.6875C14.4187 4.6875 13.4375 5.66875 13.4375 6.875C13.4375 7.66992 13.8638 8.36691 14.4996 8.75H14.0625C13.5457 8.75 13.125 9.1707 13.125 9.6875C13.125 10.2043 13.5457 10.625 14.0625 10.625Z" fill="#4E4E4E"/>
<path d="M2.68288 11.3467C2.5396 12.2937 2.30452 13.2568 1.96605 14.218C1.93913 14.2944 1.99519 14.3746 2.0762 14.3746H6.22894C6.27535 14.3746 6.31769 14.3473 6.33648 14.3048C6.42468 14.1058 6.50757 13.9043 6.58511 13.7014C6.59445 13.6769 6.59523 13.6501 6.58753 13.625C6.35789 12.8798 6.18378 12.1189 6.06687 11.3468C6.05812 11.2891 6.0089 11.2466 5.95054 11.2471C5.45128 11.2518 3.29835 11.2517 2.79929 11.2471C2.74085 11.2465 2.6916 11.289 2.68288 11.3467Z" fill="#4E4E4E"/>
<path d="M6.0046 15H1.56241C1.38796 15 1.25042 15.1428 1.24991 15.3172C1.24843 15.8081 1.01472 16.2698 0.624914 16.5625C0.0806955 16.9705 0.116672 16.9423 0.0963986 16.9617C0.0644845 16.9901 0.0296799 17.0412 0.0128049 17.0989C-0.0466873 17.3064 0.10925 17.5 0.312414 17.5H4.56276C4.59405 17.5 4.62425 17.4875 4.6462 17.4652C4.95675 17.1496 5.04792 16.9836 5.15343 16.7355C5.38534 16.1759 5.25456 15.9354 5.36632 15.625C5.46112 15.3573 5.6744 15.1449 5.94323 15.0519C5.96956 15.0428 5.99183 15.0248 6.0046 15Z" fill="#4E4E4E"/>
<path d="M4.01116 18.1246C1.00307 18.1248 0.377644 18.1338 0.175535 18.1146C0.113425 18.1088 0.070144 18.1728 0.0979565 18.2286C0.251511 18.537 0.570105 18.7496 0.937488 18.7496H4.01171C4.06163 18.7496 4.09952 18.7032 4.08788 18.6547C4.05335 18.5108 4.05385 18.363 4.0869 18.2225C4.09858 18.1727 4.06233 18.1246 4.01116 18.1246Z" fill="#4E4E4E"/>
<path d="M2.8125 10.625H5.9375C6.4543 10.625 6.875 10.2043 6.875 9.6875C6.875 9.1707 6.4543 8.75 5.9375 8.75H5.50043C6.13625 8.36691 6.5625 7.66992 6.5625 6.875C6.5625 5.66875 5.58125 4.6875 4.375 4.6875C3.16875 4.6875 2.1875 5.66875 2.1875 6.875C2.1875 7.66992 2.61375 8.36691 3.24957 8.75H2.8125C2.2957 8.75 1.875 9.1707 1.875 9.6875C1.875 10.2043 2.2957 10.625 2.8125 10.625Z" fill="#4E4E4E"/>
<path d="M15.9873 18.1246C18.9954 18.1248 19.6208 18.1338 19.8229 18.1146C19.885 18.1088 19.9283 18.1728 19.9005 18.2286C19.747 18.537 19.4284 18.7496 19.061 18.7496H15.9867C15.9368 18.7496 15.8989 18.7032 15.9106 18.6547C15.9451 18.5108 15.9446 18.363 15.9115 18.2225C15.8999 18.1727 15.9361 18.1246 15.9873 18.1246Z" fill="#4E4E4E"/>
</g>
<defs>
<clipPath id="clip0_2160_4832">
<rect width="20" height="20" fill="white"/>
</clipPath>
</defs>
</svg>
