<svg width="24" height="24" viewBox="0 0 24 24" fill="none" xmlns="http://www.w3.org/2000/svg">
<path d="M13 8V2H17V8L15 6L13 8Z" fill="#F9C41F"/>
<path fill-rule="evenodd" clip-rule="evenodd" d="M2 5C2 2.23858 4.23858 0 7 0H19C20.1046 0 21 0.89543 21 2V16V17V18H8.5H6.5H6C4.89543 18 4 18.8954 4 20C4 21.1046 4.89543 22 6 22H21V24H6C3.79086 24 2 22.2091 2 20V5ZM4 16.5351C4.58835 16.1948 5.27143 16 6 16H6.5V2.04148C5.08114 2.27952 4 3.5135 4 5V16.5351ZM8.5 16H19V2H8.5V16Z" fill="#4E4E4E"/>
<path d="M6 20C6 19.4477 6.41973 19 6.9375 19H20.0625C20.5803 19 21 19.4477 21 20C21 20.5523 20.5803 21 20.0625 21H6.9375C6.41973 21 6 20.5523 6 20Z" fill="#F9C41F"/>
</svg>
