<svg width="20" height="20" viewBox="0 0 20 20" fill="none" xmlns="http://www.w3.org/2000/svg">
<g clip-path="url(#clip0_450_11431)">
<path d="M15.8333 11.666H7.5V18.3327H15.8333V11.666Z" fill="white"/>
<path d="M9.16667 6.66602V11.666H7.5V18.3327H2.5V6.66602H9.16667Z" fill="white"/>
<path d="M14.1667 3.33398V11.6673H9.16667V6.66732H7.5V3.33398H14.1667Z" fill="white"/>
<path d="M18.3332 6.66667V18.3333H15.8332V11.6667H14.1665V5L18.3332 6.66667Z" fill="#F9C41F" fill-opacity="0.2"/>
<path d="M13.3333 14.166H10V17.4993H13.3333V14.166Z" fill="#F9C41F"/>
<path d="M16.6668 17.5006V10.834H15.0002V2.50065H11.6668V0.833984H10.0002V2.50065H6.66683V5.83398H1.66683V17.5006H0.833496V19.1673H19.1668V17.5006H16.6668ZM8.3335 4.16732H13.3335V6.66732H11.6668V8.33398H13.3335V10.834H10.0002V5.83398H8.3335V4.16732ZM6.66683 17.5006H3.3335V14.1673H5.00016V12.5007H3.3335V10.834H5.00016V9.16732H3.3335V7.50065H8.3335V10.834H6.66683V17.5006ZM15.0002 17.5006H8.3335V12.5007H15.0002V17.5006Z" fill="#4E4E4E"/>
</g>
<defs>
<clipPath id="clip0_450_11431">
<rect width="20" height="20" fill="white"/>
</clipPath>
</defs>
</svg>
