<svg width="20" height="20" viewBox="0 0 20 20" fill="none" xmlns="http://www.w3.org/2000/svg">
<g clip-path="url(#clip0_2693_2470)">
<path d="M14.183 8.66453C14.1187 8.66453 14.0526 8.67378 13.9866 8.6919L13.2401 8.89754L12.465 7.00926C12.2454 6.47433 11.5962 6.03906 11.018 6.03906H3.76357C3.18527 6.03906 2.53623 6.47433 2.31665 7.00926L1.54255 8.89489L0.80529 8.69183C0.739314 8.6737 0.673264 8.66446 0.608903 8.66446C0.256052 8.66446 0 8.93401 0 9.30528V9.74532C0 10.1787 0.352704 10.5315 0.786135 10.5315H0.870605L0.745478 10.8362C0.541459 11.3331 0.375381 12.1745 0.375381 12.7119V16.4631C0.375381 16.8966 0.728085 17.2493 1.16152 17.2493H2.18822C2.62165 17.2493 2.97435 16.8966 2.97435 16.4631V15.5264H11.8071V16.4631C11.8071 16.8966 12.1599 17.2493 12.5933 17.2493H13.6198C14.0533 17.2493 14.406 16.8966 14.406 16.4631V12.712C14.406 12.1747 14.2399 11.3332 14.0359 10.8363L13.9108 10.5315H14.0057C14.4391 10.5315 14.7919 10.1788 14.7919 9.74539V9.30536C14.7919 8.93408 14.5358 8.66453 14.183 8.66453ZM2.1061 10.1046L3.2787 7.24843C3.41006 6.92846 3.80049 6.66661 4.14637 6.66661H10.6352C10.9811 6.66661 11.3715 6.92838 11.5029 7.24843L12.6755 10.1046C12.8068 10.4245 12.6313 10.6864 12.2854 10.6864H2.49623C2.15028 10.6863 1.97481 10.4245 2.1061 10.1046ZM4.72364 13.7172C4.72364 13.8902 4.58207 14.0316 4.40924 14.0316H2.18176C2.00878 14.0316 1.86729 13.8901 1.86729 13.7172V12.6483C1.86729 12.4754 2.00878 12.3339 2.18176 12.3339H4.40924C4.58207 12.3339 4.72364 12.4754 4.72364 12.6483V13.7172ZM12.8932 13.7172C12.8932 13.8902 12.7516 14.0316 12.5788 14.0316H10.3513C10.1784 14.0316 10.0369 13.8901 10.0369 13.7172V12.6483C10.0369 12.4754 10.1784 12.3339 10.3513 12.3339H12.5788C12.7516 12.3339 12.8932 12.4754 12.8932 12.6483V13.7172Z" fill="#222222"/>
<path d="M19.0172 2.75098H15.2938C14.7516 2.75098 14.3105 3.19211 14.3105 3.73423V7.45766C14.3105 7.99986 14.7517 8.44099 15.2938 8.44099H16.7885V16.7979C16.7885 17.0006 16.9527 17.1648 17.1554 17.1648C17.3581 17.1648 17.5224 17.0006 17.5224 16.7979V8.44107H19.0172C19.5594 8.44107 20.0004 7.99993 20.0004 7.45774V3.73431C20.0004 3.19211 19.5594 2.75098 19.0172 2.75098ZM18.1739 5.8382C17.9597 6.03099 17.6443 6.12875 17.2364 6.12875H16.6972C16.6325 6.12875 16.5798 6.18151 16.5798 6.24624V7.15545C16.5798 7.25423 16.4994 7.33452 16.4006 7.33452H15.9923C15.8935 7.33452 15.8132 7.25416 15.8132 7.15545V4.03681C15.8132 3.93796 15.8935 3.8576 15.9923 3.8576H17.0209C17.7023 3.8576 17.9567 3.96027 18.1657 4.13765C18.3862 4.32472 18.4979 4.61122 18.4979 4.98939C18.4978 5.3589 18.3889 5.64438 18.1739 5.8382Z" fill="#222222"/>
<path d="M17.5905 4.61038C17.491 4.53523 17.3149 4.49707 17.0673 4.49707H16.6975C16.6328 4.49707 16.5801 4.54976 16.5801 4.61442V5.36166C16.5801 5.42631 16.6328 5.47901 16.6975 5.47901H16.9191C17.0004 5.47901 17.132 5.47299 17.2122 5.46558C17.29 5.45846 17.5098 5.42661 17.5905 5.36569C17.6873 5.29245 17.7364 5.16578 17.7364 4.98929C17.7364 4.8111 17.6873 4.68362 17.5905 4.61038Z" fill="#222222"/>
</g>
<defs>
<clipPath id="clip0_2693_2470">
<rect width="20" height="20" fill="white"/>
</clipPath>
</defs>
</svg>
