<svg width="24" height="24" viewBox="0 0 24 24" fill="none" xmlns="http://www.w3.org/2000/svg">
<path d="M10 19H2V3H22V19H14" fill="white"/>
<path d="M1 2V20H10V18H3V7.9C3.96089 7.70403 4.84294 7.22982 5.53638 6.53638C6.22982 5.84294 6.70403 4.96089 6.9 4H17.1C17.296 4.96089 17.7702 5.84294 18.4636 6.53638C19.1571 7.22982 20.0391 7.70403 21 7.9V18H14V20H23V2H1ZM3 5.82V4H4.82C4.67068 4.4194 4.42989 4.80031 4.1151 5.1151C3.80031 5.42989 3.4194 5.67068 3 5.82ZM19.18 4H21V5.82C20.5806 5.67068 20.1997 5.42989 19.8849 5.1151C19.5701 4.80031 19.3293 4.4194 19.18 4Z" fill="#222222"/>
<path d="M8 14H5V16H8V14Z" fill="#222222"/>
<path d="M19 14H16V16H19V14Z" fill="#222222"/>
<path d="M16 9H15V12H13V10H11V12H9V9H8L12 6L16 9Z" fill="#F9C41F" fill-opacity="0.2"/>
<path d="M12.0001 14C11.396 14.0036 10.8072 14.1894 10.3105 14.5331C9.81385 14.8769 9.43251 15.3626 9.21641 15.9266C9.0003 16.4906 8.95949 17.1068 9.09931 17.6944C9.23913 18.282 9.55307 18.8137 10.0001 19.22V22L12.0001 21L14.0001 22V19.22C14.447 18.8137 14.761 18.282 14.9008 17.6944C15.0406 17.1068 14.9998 16.4906 14.7837 15.9266C14.5676 15.3626 14.1863 14.8769 13.6896 14.5331C13.1929 14.1894 12.6041 14.0036 12.0001 14ZM12.9301 18.43L12.0001 18L11.0701 18.44L11.2001 17.44L10.5001 16.69L11.5001 16.5L12.0001 15.6L12.5001 16.5L13.5001 16.69L12.8001 17.44L12.9301 18.43Z" fill="#F9C41F"/>
</svg>
