<svg width="18" height="18" viewBox="0 0 18 18" fill="none" xmlns="http://www.w3.org/2000/svg">
<path d="M2.25 8.25H6.75V15.75H2.25V8.25Z" fill="white"/>
<path fill-rule="evenodd" clip-rule="evenodd" d="M1.5 7.5H7.5V16.5H1.5V7.5ZM3 9V15H6V9H3Z" fill="#7A7A7A"/>
<path d="M6.75 3H11.25V15.75H6.75V3Z" fill="white"/>
<path fill-rule="evenodd" clip-rule="evenodd" d="M6 2.25H12V16.5H6V2.25ZM7.5 3.75V15H10.5V3.75H7.5Z" fill="#7A7A7A"/>
<path d="M11.25 10.5H15.75V15.75H11.25V10.5Z" fill="white"/>
<path fill-rule="evenodd" clip-rule="evenodd" d="M10.5 9.75H16.5V16.5H10.5V9.75ZM12 11.25V15H15V11.25H12Z" fill="#7A7A7A"/>
<rect x="8.25" y="6" width="1.5" height="8.25" fill="#F9C41F" fill-opacity="0.2"/>
<rect x="12.75" y="12.75" width="1.5" height="1.5" fill="#F9C41F" fill-opacity="0.2"/>
<rect x="3.75" y="10.5" width="1.5" height="3.75" fill="#F9C41F" fill-opacity="0.2"/>
</svg>
