<svg width="17" height="17" viewBox="0 0 17 17" fill="none" xmlns="http://www.w3.org/2000/svg">
<path d="M8.46875 16.9297C12.8828 16.9297 16.5391 13.2812 16.5391 8.85938C16.5391 4.44531 12.8828 0.789062 8.46094 0.789062C4.04688 0.789062 0.398438 4.44531 0.398438 8.85938C0.398438 13.2812 4.05469 16.9297 8.46875 16.9297ZM8.46875 15.3438C4.875 15.3438 1.99219 12.4531 1.99219 8.85938C1.99219 5.26562 4.86719 2.38281 8.46094 2.38281C12.0547 2.38281 14.9453 5.26562 14.9531 8.85938C14.9531 12.4531 12.0625 15.3438 8.46875 15.3438ZM7.625 12.5703C7.90625 12.5703 8.14844 12.4297 8.3125 12.1797L11.8047 6.71875C11.9062 6.55469 12 6.36719 12 6.1875C12 5.80469 11.6562 5.54688 11.2891 5.54688C11.0547 5.54688 10.8438 5.67188 10.6797 5.9375L7.59375 10.8906L6.14062 9.03906C5.95312 8.79688 5.76562 8.71094 5.53906 8.71094C5.15625 8.71094 4.85156 9.01562 4.85156 9.40625C4.85156 9.59375 4.92188 9.76562 5.05469 9.92969L6.89844 12.1797C7.10938 12.4531 7.33594 12.5703 7.625 12.5703Z" fill="#FF8800"/>
</svg>
