<svg width="20" height="20" viewBox="0 0 20 20" fill="none" xmlns="http://www.w3.org/2000/svg">
<g clip-path="url(#clip0_530_12300)">
<path d="M10.0882 12.123L18.8365 2.5206L19.9915 3.57285L10.1683 14.3549L4.81323 9.26422L5.88989 8.13171L10.0882 12.123ZM19.3848 6.53336L18.1664 7.87491C18.3432 8.55408 18.4375 9.2662 18.4375 10C18.4375 14.6524 14.6524 18.4375 10 18.4375C5.3476 18.4375 1.5625 14.6524 1.5625 10C1.5625 5.3476 5.3476 1.5625 10 1.5625C12.1553 1.5625 14.124 2.37518 15.6171 3.70972L16.6704 2.5499C14.8341 0.901794 12.4864 0 10 0C7.32895 0 4.81766 1.04019 2.92892 2.92892C1.04019 4.81766 0 7.32895 0 10C0 12.6711 1.04019 15.1823 2.92892 17.0711C4.81766 18.9598 7.32895 20 10 20C12.6711 20 15.1823 18.9598 17.0711 17.0711C18.9598 15.1823 20 12.6711 20 10C20 8.79791 19.7887 7.62848 19.3848 6.53336Z" fill="url(#paint0_linear_530_12300)"/>
</g>
<defs>
<linearGradient id="paint0_linear_530_12300" x1="10" y1="0" x2="10" y2="20" gradientUnits="userSpaceOnUse">
<stop stop-color="#2AF598"/>
<stop offset="1" stop-color="#009EFD"/>
</linearGradient>
<clipPath id="clip0_530_12300">
<rect width="20" height="20" fill="white"/>
</clipPath>
</defs>
</svg>
