<svg width="20" height="20" viewBox="0 0 20 20" fill="none" xmlns="http://www.w3.org/2000/svg">
<path d="M18.1818 1.81836H1.81818C0.818182 1.81836 0 2.63654 0 3.63654V6.36382H1.81818V3.63654H18.1818V16.3638H11.8182V18.182H18.1818C19.1818 18.182 20 17.3638 20 16.3638V3.63654C20 2.63654 19.1818 1.81836 18.1818 1.81836ZM0 15.4547V18.182H2.72727C2.72727 16.6366 1.54546 15.4547 0 15.4547ZM0 11.8183V13.6366C2.54546 13.6366 4.54546 15.6366 4.54546 18.182H6.36364C6.36364 14.6366 3.54546 11.8183 0 11.8183ZM0 8.18199V10.0002C4.54546 10.0002 8.18182 13.6366 8.18182 18.182H10C10 12.6366 5.54546 8.18199 0 8.18199Z" fill="#4E4E4E"/>
</svg>
