<svg width="20" height="20" viewBox="0 0 20 20" fill="none" xmlns="http://www.w3.org/2000/svg">
<g clip-path="url(#clip0_2693_5032)">
<path d="M14.952 17.2402H8.36816C8.45758 17.5239 8.50595 17.8254 8.50595 18.1382C8.50595 18.2307 8.50107 18.3221 8.49283 18.4124H14.8275C14.8193 18.3221 14.8144 18.2307 14.8144 18.1382C14.8144 17.8254 14.8628 17.5239 14.952 17.2402Z" fill="#222222"/>
<path d="M14.3384 14.7596C14.631 14.7596 14.8682 14.5225 14.8682 14.23C14.8682 13.9373 14.631 13.7002 14.3384 13.7002H9.53888C8.78769 13.7002 8.17871 14.3093 8.17871 15.0605V15.0993C8.17871 15.8505 8.78769 16.4596 9.53888 16.4596H14.3384C14.631 16.4596 14.8682 16.2223 14.8682 15.9298C14.8682 15.6373 14.631 15.4002 14.3384 15.4002H9.53888V14.7596H14.3384Z" fill="#222222"/>
<path d="M14.3384 11.3231C14.631 11.3231 14.8682 11.086 14.8682 10.7933C14.8682 10.5008 14.631 10.2637 14.3384 10.2637H9.53888C8.78769 10.2637 8.17871 10.8727 8.17871 11.624V11.6628C8.17871 12.4139 8.78769 13.0229 9.53888 13.0229H14.3384C14.631 13.0229 14.8682 12.7858 14.8682 12.4933C14.8682 12.2008 14.631 11.9637 14.3384 11.9637H9.53888V11.3231H14.3384Z" fill="#222222"/>
<path d="M7.37323 18.1388C7.37323 17.1125 6.53812 16.2773 5.51181 16.2773C4.48535 16.2773 3.65039 17.1125 3.65039 18.1388C3.65039 19.1651 4.48535 20.0002 5.51181 20.0002C6.53812 20.0002 7.37323 19.1651 7.37323 18.1388Z" fill="#222222"/>
<path d="M17.8087 16.2773C16.7822 16.2773 15.9473 17.1125 15.9473 18.1388C15.9473 19.1651 16.7822 20.0002 17.8087 20.0002C18.835 20.0002 19.67 19.1651 19.67 18.1388C19.67 17.1125 18.835 16.2773 17.8087 16.2773Z" fill="#222222"/>
<path d="M6.09802 15.2023V9.02298H17.2021V15.2061C17.3981 15.1657 17.601 15.1443 17.8088 15.1443C18.0022 15.1443 18.1911 15.1634 18.3743 15.1987V5.85114H17.2021V7.85095H16.2895V4.73175L14.976 3.8765V2.81601H13.8039V3.8765L12.4904 4.73175V7.85095H11.4882V4.27658C11.4882 3.42941 11.0608 2.6532 10.3447 2.20032L9.92966 1.93802V0.672607H8.75748V1.93802L8.34259 2.20047C7.6265 2.6532 7.19894 3.42926 7.19894 4.27658V7.8508H6.09802V0H0.89859V1.17218H3.64471L0.75943 7.20184C0.467072 7.81281 0.3125 8.4938 0.3125 9.17114C0.3125 11.687 2.35916 13.7337 4.87503 13.7337H4.92584V15.2023C5.11551 15.1646 5.31143 15.1443 5.51193 15.1443C5.71243 15.1443 5.90836 15.1645 6.09802 15.2023Z" fill="#222222"/>
</g>
<defs>
<clipPath id="clip0_2693_5032">
<rect width="20" height="20" fill="white"/>
</clipPath>
</defs>
</svg>
