<svg width="20" height="18" viewBox="0 0 20 18" fill="none" xmlns="http://www.w3.org/2000/svg">
<path d="M14.4777 14.4442L14.6618 14.4085C14.8784 14.3668 20 13.3627 20 10.666C20 9.82768 19.7292 9.22852 19.1933 8.88434C18.4201 8.38603 17.3368 8.60435 16.6668 8.81766V8.16599C16.6668 7.47683 16.1059 6.91602 15.4168 6.91602H3.7503C3.06112 6.91602 2.50032 7.47683 2.50032 8.16599V8.9993C2.50032 11.4851 3.65948 13.7659 5.57944 15.2492H0.417033C0.248716 15.2492 0.0962185 15.3509 0.03204 15.5067C-0.0329589 15.6625 0.00286075 15.8417 0.122039 15.9609L1.0562 16.895C1.60787 17.4458 2.34036 17.7492 3.11867 17.7492H16.0477C16.8151 17.7492 17.5668 17.4376 18.1101 16.895L19.0442 15.9609C19.1634 15.8417 19.1992 15.6626 19.1342 15.5067C19.0692 15.3509 18.9176 15.2492 18.7492 15.2492H13.586C13.9068 15.0026 14.2027 14.7335 14.4777 14.4442ZM16.6176 9.71515C17.1443 9.51515 18.1959 9.23184 18.7426 9.58597C19.0283 9.76847 19.1668 10.1227 19.1668 10.666C19.1668 12.0518 16.8501 12.9792 15.3193 13.3976C16.0459 12.3126 16.4968 11.0543 16.6176 9.71515Z" fill="#4E4E4E"/>
<path d="M12.8291 3.427C13.5066 2.58033 13.5066 1.25453 12.8291 0.407863C12.6832 0.227874 12.4216 0.200374 12.2432 0.342863C12.0632 0.486186 12.035 0.748686 12.1782 0.928675C12.6082 1.46449 12.6082 2.37033 12.1766 2.90782C11.4982 3.75363 11.4982 5.08029 12.1758 5.92695C12.2591 6.03026 12.3791 6.08363 12.5016 6.08363C12.5932 6.08363 12.6858 6.05363 12.7625 5.99195C12.9425 5.84863 12.9708 5.58613 12.8275 5.40614C12.3975 4.87029 12.3975 3.96449 12.8291 3.427Z" fill="#4E4E4E"/>
<path d="M10.3249 3.42709C11.0032 2.58042 11.0032 1.25462 10.3249 0.407954C10.1816 0.228776 9.91992 0.199643 9.73911 0.342954C9.55911 0.486276 9.53078 0.748765 9.67411 0.928765C10.1033 1.46458 10.1033 2.37042 9.67328 2.90791C8.99497 3.75372 8.99497 5.08038 9.67328 5.92704C9.75578 6.03035 9.87661 6.08372 9.9991 6.08372C10.0899 6.08372 10.1824 6.05372 10.2591 5.99204C10.4383 5.84872 10.4674 5.58622 10.3241 5.40623C9.89492 4.87038 9.89492 3.96458 10.3249 3.42709Z" fill="#4E4E4E"/>
<path d="M7.828 3.42632C8.50549 2.57965 8.50549 1.25385 7.828 0.407187C7.68469 0.22801 7.42219 0.19801 7.2422 0.34301C7.06303 0.486332 7.03388 0.748821 7.17802 0.927998C7.60719 1.46381 7.60719 2.36965 7.1772 2.90714C6.49804 3.75381 6.49804 5.08043 7.17638 5.9271C7.25888 6.0296 7.37969 6.08292 7.50219 6.08292C7.59301 6.08292 7.68551 6.05292 7.76219 5.99124C7.94218 5.84792 7.9705 5.58542 7.82719 5.40543C7.39798 4.86962 7.39798 3.96381 7.828 3.42632Z" fill="#4E4E4E"/>
</svg>
