<svg width="24" height="24" viewBox="0 0 24 24" fill="none" xmlns="http://www.w3.org/2000/svg">
<path d="M22 14.0004C22.0011 14.3103 21.9345 14.6167 21.805 14.8982C21.6755 15.1798 21.4861 15.4296 21.25 15.6304L15.84 20.2704C15.2966 20.7351 14.605 20.9905 13.89 20.9904C6 21.0004 7.56 21.2704 5 20.0004V13.0004C7.45 11.7904 6.27 12.0004 12 12.0004C12.3943 12.0021 12.7794 12.1203 13.1067 12.3401C13.4341 12.56 13.6892 12.8718 13.8398 13.2362C13.9905 13.6006 14.0301 14.0014 13.9536 14.3883C13.8772 14.7751 13.688 15.1307 13.41 15.4104C13.0366 15.786 12.5296 15.9982 12 16.0004H13L18.66 12.2304C18.9817 12.0126 19.3566 11.8864 19.7445 11.8654C20.1325 11.8445 20.5188 11.9295 20.8621 12.1114C21.2053 12.2933 21.4926 12.5653 21.6931 12.898C21.8936 13.2308 21.9997 13.6119 22 14.0004Z" fill="white"/>
<path d="M1 11H3C3.53043 11 4.03914 11.2107 4.41421 11.5858C4.78929 11.9609 5 12.4696 5 13V20C5 20.5304 4.78929 21.0391 4.41421 21.4142C4.03914 21.7893 3.53043 22 3 22H1V11Z" fill="#F9C41F" fill-opacity="0.2"/>
<path d="M21.34 11.2397C20.8383 10.9704 20.273 10.8422 19.7043 10.8686C19.1355 10.895 18.5846 11.0751 18.11 11.3897L15 13.4897C14.8786 12.7853 14.5096 12.1474 13.9596 11.6909C13.4096 11.2344 12.7147 10.9893 12 10.9997C6.05 10.9997 7.33 10.7197 4 12.3797V20.6197C7.45 22.3397 5.78 21.9997 13.89 21.9997C14.8485 21.9887 15.7711 21.6338 16.49 20.9997L21.9 16.3997C22.2893 16.0677 22.5916 15.6456 22.7806 15.1702C22.9696 14.6947 23.0395 14.1803 22.9843 13.6716C22.9291 13.163 22.7504 12.6755 22.4638 12.2517C22.1773 11.8278 21.7915 11.4804 21.34 11.2397ZM20.6 14.8797C14.71 19.8797 14.88 19.9997 13.89 19.9997C6.49 19.9997 7.59 20.1797 6 19.3797V13.6197C7.61 12.8097 6.7 12.9997 12 12.9997C12.2652 12.9997 12.5196 13.1051 12.7071 13.2926C12.8946 13.4801 13 13.7345 13 13.9997C13 14.2649 12.8946 14.5193 12.7071 14.7068C12.5196 14.8943 12.2652 14.9997 12 14.9997H9V16.9997H13.3L19.22 13.0597C19.4613 12.8767 19.7655 12.7971 20.0656 12.8383C20.3656 12.8796 20.637 13.0383 20.82 13.2797C21.003 13.521 21.0826 13.8252 21.0414 14.1253C21.0001 14.4253 20.8413 14.6967 20.6 14.8797Z" fill="#222222"/>
<path d="M22.5355 1.46445C21.5912 0.520078 20.3355 0 19 0C17.6645 0 16.4088 0.520078 15.4645 1.46445C14.5201 2.40883 14 3.66445 14 5C14 6.33555 14.5201 7.59115 15.4645 8.53555C16.4088 9.47994 17.6645 10 19 10C20.3355 10 21.5912 9.47992 22.5355 8.53555C23.4799 7.59117 24 6.33555 24 5C24 3.66445 23.4799 2.40885 22.5355 1.46445ZM19 4.6875C19.7754 4.6875 20.4062 5.31834 20.4062 6.09375C20.4062 6.73588 19.9735 7.2785 19.3844 7.44615C19.3421 7.4582 19.3125 7.49627 19.3125 7.54027V7.80367C19.3125 7.97195 19.1832 8.11674 19.0151 8.12465C18.8356 8.13309 18.6875 7.9901 18.6875 7.8125V7.54021C18.6875 7.49633 18.6581 7.45824 18.6159 7.44623C18.0293 7.27943 17.5977 6.7409 17.5938 6.10248C17.5927 5.93207 17.7267 5.78627 17.8971 5.78139C18.0738 5.77631 18.2188 5.91811 18.2188 6.09375C18.2188 6.54301 18.5999 6.90492 19.0558 6.87305C19.4407 6.84615 19.7524 6.53439 19.7793 6.14955C19.8111 5.69363 19.4492 5.3125 19 5.3125C18.2246 5.3125 17.5938 4.68166 17.5938 3.90625C17.5938 3.26412 18.0265 2.7215 18.6156 2.55385C18.6579 2.5418 18.6875 2.50373 18.6875 2.45973V2.19633C18.6875 2.02805 18.8168 1.88326 18.9849 1.87535C19.1644 1.86691 19.3125 2.0099 19.3125 2.1875V2.45979C19.3125 2.50367 19.3419 2.54176 19.3841 2.55377C19.9707 2.72057 20.4023 3.2591 20.4062 3.89752C20.4073 4.06793 20.2733 4.21373 20.1029 4.21861C19.9262 4.22369 19.7812 4.08189 19.7812 3.90625C19.7812 3.45699 19.4001 3.09508 18.9442 3.12695C18.5593 3.15385 18.2476 3.46561 18.2207 3.85045C18.1889 4.30637 18.5508 4.6875 19 4.6875Z" fill="#F9C41F"/>
</svg>
