<svg width="20" height="20" viewBox="0 0 20 20" fill="none" xmlns="http://www.w3.org/2000/svg">
<path d="M3.6625 4.5125C4.90859 4.5125 5.91875 3.50234 5.91875 2.25625C5.91875 1.01016 4.90859 0 3.6625 0C2.41641 0 1.40625 1.01016 1.40625 2.25625C1.40625 3.50234 2.41641 4.5125 3.6625 4.5125Z" fill="#222222"/>
<path d="M9.41406 7.05156C9.73766 7.05156 10 6.78922 10 6.46563V4.94832L11.1979 5.5559V8.80938H9.45832V9.98125H11.7839C12.1075 9.98125 12.3698 9.71891 12.3698 9.39531V5.19609C12.3698 4.97539 12.2457 4.7734 12.0489 4.67352L10 3.6343V1.75781C10 1.43422 9.73766 1.17188 9.41406 1.17188C9.09047 1.17188 8.82812 1.43422 8.82812 1.75781V6.46563C8.82812 6.78922 9.09047 7.05156 9.41406 7.05156Z" fill="#222222"/>
<path d="M8.28605 9.39551V9.2002C8.28605 8.55301 7.76137 8.02832 7.11418 8.02832H5.35645V9.98145H7.70012C8.02375 9.98145 8.28605 9.7191 8.28605 9.39551Z" fill="#222222"/>
<path d="M2.34375 7.44227C2.34375 7.11867 2.60609 6.85633 2.92969 6.85633H7.31125C7.27457 5.9277 6.89043 5.08684 6.28543 4.46051C5.65609 5.20836 4.71375 5.68445 3.66211 5.68445C2.60797 5.68445 1.66355 5.20605 1.03422 4.45508C0.394453 5.11477 0 6.01348 0 7.00281V9.39539C0 9.71898 0.262344 9.98133 0.585938 9.98133H4.18496V8.0282H2.92969C2.60609 8.0282 2.34375 7.76586 2.34375 7.44227Z" fill="#222222"/>
<path d="M16.3383 14.5311C17.5844 14.5311 18.5945 13.5209 18.5945 12.2748C18.5945 11.0287 17.5844 10.0186 16.3383 10.0186C15.0922 10.0186 14.082 11.0287 14.082 12.2748C14.082 13.5209 15.0922 14.5311 16.3383 14.5311Z" fill="#222222"/>
<path d="M10.5856 11.1904C10.262 11.1904 9.9997 11.4528 9.9997 11.7764V13.6529L7.95078 14.6921C7.75395 14.792 7.62988 14.9939 7.62988 15.2146V19.4139C7.62988 19.7375 7.89223 19.9998 8.21582 19.9998H10.5414V18.8279H8.80176V15.5745L9.9997 14.9669V16.4842C9.9997 16.8078 10.262 17.0701 10.5856 17.0701C10.9092 17.0701 11.1716 16.8078 11.1716 16.4842V11.7764C11.1716 11.4528 10.9092 11.1904 10.5856 11.1904Z" fill="#222222"/>
<path d="M11.7139 19.2188V19.4141C11.7139 19.7377 11.9762 20 12.2998 20H14.6435V18.0469H12.8857C12.2386 18.0469 11.7139 18.5716 11.7139 19.2188Z" fill="#222222"/>
<path d="M18.9655 14.4736C18.3362 15.2246 17.3918 15.703 16.3376 15.703C15.286 15.703 14.3436 15.2269 13.7143 14.4791C13.1093 15.1054 12.7252 15.9462 12.6885 16.8749H17.07C17.3936 16.8749 17.656 17.1372 17.656 17.4608C17.656 17.7844 17.3936 18.0468 17.07 18.0468H15.8148V19.9999H19.4138C19.7374 19.9999 19.9997 19.7375 19.9997 19.4139V17.0214C19.9997 16.0321 19.6053 15.1333 18.9655 14.4736Z" fill="#222222"/>
</svg>
