<svg width="20" height="20" viewBox="0 0 20 20" fill="none" xmlns="http://www.w3.org/2000/svg">
<path d="M15.8538 4.70058C15.6506 4.5158 15.357 4.40493 15.0182 4.40493H11.6307L11.8791 1.46701L14.6117 0.61704C14.815 0.561607 14.9279 0.376831 14.8376 0.210533C14.7698 0.0442356 14.544 -0.0481521 14.3407 0.025758L11.3371 0.931158C11.2016 0.968113 11.0887 1.07898 11.0887 1.20832L10.8177 4.40493H4.42647C4.1103 4.40493 3.79412 4.5158 3.59087 4.70058C3.38762 4.88536 3.29728 5.14403 3.34246 5.40272L5.4879 19.0761C5.57823 19.5934 6.14283 20 6.77518 20H12.6696C13.3019 20 13.8664 19.5934 13.9568 19.0761L16.1022 5.40272C16.1474 5.14403 16.0571 4.88536 15.8538 4.70058ZM13.1438 19.0022C13.1212 19.187 12.8728 19.3532 12.6469 19.3532H6.75259C6.52676 19.3532 6.27833 19.187 6.25575 19.0022L4.1103 5.32881C4.08771 5.2549 4.13288 5.18099 4.17805 5.12556C4.22321 5.07013 4.31355 5.05166 4.40389 5.05166H10.7499L10.5241 7.9711C10.2304 7.95262 9.93689 7.93414 9.68844 7.89719C9.34967 7.84176 8.96578 7.82328 8.60446 7.82328C7.13651 7.82328 6.02991 8.22979 5.91699 8.28522C5.89441 8.28522 5.87182 8.3037 5.84925 8.32218L5.6234 8.45152C5.51049 8.52543 5.44273 8.6363 5.46532 8.74716L7.02359 18.374C7.04618 18.5402 7.22685 18.6511 7.40751 18.6511H12.0146C12.2179 18.6511 12.3759 18.5218 12.3986 18.374L13.9568 8.15588C13.9793 8.06349 13.9342 7.9711 13.8664 7.89719C13.7987 7.82328 13.6858 7.78632 13.5729 7.78632H13.2567C13.2116 7.78632 13.1889 7.78632 13.1663 7.8048C12.6696 7.91567 11.992 7.98958 11.3144 7.98958L11.5629 5.05166H14.9957C15.086 5.05166 15.1763 5.08861 15.2214 5.12556C15.2667 5.18099 15.2892 5.2549 15.2892 5.32881L13.1438 19.0022Z" fill="#4E4E4E"/>
</svg>
