<svg width="20" height="20" viewBox="0 0 20 20" fill="none" xmlns="http://www.w3.org/2000/svg">
<path d="M9.99948 4.1352C10.9712 4.1352 11.759 3.34744 11.759 2.3757C11.759 1.40397 10.9712 0.616211 9.99948 0.616211C9.02774 0.616211 8.23999 1.40397 8.23999 2.3757C8.23999 3.34744 9.02774 4.1352 9.99948 4.1352Z" fill="#4E4E4E"/>
<path d="M12.8555 3.02148C12.5598 4.32773 11.3945 5.30812 10.0001 5.30812C8.60571 5.30812 7.44037 4.32773 7.14463 3.02148C6.09576 3.2552 5.30811 4.18968 5.30811 5.30812V7.65414C5.30811 8.30077 5.83447 8.82714 6.48112 8.82714C7.12775 8.82714 7.65412 8.30077 7.65412 7.65414V6.48113H12.3461V7.65414C12.3461 8.30077 12.8725 8.82714 13.5191 8.82714C14.1657 8.82714 14.6922 8.30077 14.6922 7.65414V5.30812C14.6921 4.18968 13.9044 3.2552 12.8555 3.02148Z" fill="#4E4E4E"/>
<path d="M19.0914 14.9499C18.2498 14.464 17.1738 14.7523 16.6879 15.5939C16.2021 16.4355 16.4904 17.5116 17.3319 17.9974C18.1735 18.4833 19.2887 18.1949 19.7745 17.3534C20.2604 16.5118 19.9329 15.4358 19.0914 14.9499Z" fill="#4E4E4E"/>
<path d="M18.0174 10.9441L15.9857 9.77112C15.4257 9.4478 14.7067 9.64045 14.3834 10.2005C14.0601 10.7605 14.2527 11.4796 14.8127 11.8029L15.8286 12.3893L13.4826 16.4527L12.4667 15.8662C11.9067 15.5429 11.1877 15.7356 10.8644 16.2956C10.5411 16.8557 10.7337 17.5747 11.2937 17.898L13.3254 19.071C14.2941 19.6302 15.4972 19.4152 16.2239 18.6238C15.2406 17.7146 14.9742 16.2151 15.6714 15.0076C16.3686 13.7999 17.8003 13.281 19.0794 13.6779C19.4015 12.6528 18.9861 11.5033 18.0174 10.9441Z" fill="#4E4E4E"/>
<path d="M3.31308 15.5949C2.82718 14.7533 1.75112 14.465 0.909526 14.9509C0.0680025 15.4368 -0.259498 16.5129 0.22644 17.3544C0.71226 18.196 1.8275 18.4843 2.66902 17.9984C3.51062 17.5125 3.79894 16.4364 3.31308 15.5949Z" fill="#4E4E4E"/>
<path d="M9.13525 16.2956C8.81193 15.7355 8.09291 15.543 7.53291 15.8662L6.51705 16.4528L4.17103 12.3893L5.1869 11.8029C5.74693 11.4795 5.93955 10.7605 5.61626 10.2005C5.29295 9.64043 4.57392 9.44782 4.01392 9.7711L1.98228 10.9441C1.01361 11.5033 0.598139 12.6528 0.920248 13.678C2.19935 13.281 3.63111 13.8 4.3283 15.0075C5.02548 16.2152 4.75908 17.7145 3.77572 18.6237C4.50247 19.4152 5.70561 19.6302 6.67427 19.071L8.70592 17.898C9.26592 17.5746 9.45857 16.8556 9.13525 16.2956Z" fill="#4E4E4E"/>
</svg>
