<svg width="20" height="20" viewBox="0 0 20 20" fill="none" xmlns="http://www.w3.org/2000/svg">
<path d="M6.66666 4.16667C6.66691 3.94573 6.75479 3.73391 6.91101 3.57768C7.06724 3.42146 7.27906 3.33358 7.49999 3.33333H9.16665C9.82946 3.33259 10.4649 3.06895 10.9336 2.60028C11.4023 2.1316 11.6659 1.49614 11.6666 0.833333V0H9.99998V0.833333C9.99973 1.05427 9.91186 1.26609 9.75564 1.42232C9.5994 1.57854 9.38759 1.66642 9.16665 1.66667H7.49999C6.83718 1.66741 6.20173 1.93105 5.73305 2.39972C5.26438 2.8684 5.00074 3.50386 5 4.16667V5H6.66666V4.16667Z" fill="#4E4E4E"/>
<path d="M11.666 5H13.3327V4.16667C13.3329 3.94573 13.4208 3.73391 13.577 3.57768C13.7333 3.42146 13.9451 3.33358 14.166 3.33333H15.8327C16.4955 3.33259 17.1309 3.06895 17.5996 2.60028C18.0682 2.1316 18.3319 1.49614 18.3327 0.833333V0H16.666V0.833333C16.6658 1.05427 16.5779 1.26609 16.4216 1.42232C16.2654 1.57854 16.0536 1.66642 15.8327 1.66667H14.166C13.5032 1.66741 12.8678 1.93105 12.3991 2.39972C11.9303 2.8684 11.6668 3.50386 11.666 4.16667V5Z" fill="#4E4E4E"/>
<path d="M0 18.333H20V19.9996H0V18.333Z" fill="#4E4E4E"/>
<path d="M11.1315 10.0711L11.6228 8.59688C11.6797 8.42819 11.6807 8.24568 11.6257 8.07639C11.5707 7.9071 11.4625 7.76007 11.3173 7.65709C11.2786 7.60783 11.229 7.56808 11.1726 7.54085C11.1161 7.51364 11.0542 7.49966 10.9915 7.50001H9.0065C8.94381 7.49966 8.88187 7.51364 8.82541 7.54085C8.76894 7.56808 8.71944 7.60783 8.68066 7.65709C8.53546 7.76007 8.42732 7.9071 8.37228 8.07639C8.31725 8.24568 8.31825 8.42819 8.37514 8.59688L8.8665 10.0711C6.93513 10.3147 5.13105 11.1654 3.71445 12.5006C2.29785 13.8358 1.34194 15.5865 0.984619 17.5H19.0134C18.656 15.5865 17.7001 13.8358 16.2835 12.5006C14.867 11.1654 13.0628 10.3147 11.1315 10.0711ZM13.3324 15C13.1675 15 13.0064 14.9512 12.8693 14.8595C12.7324 14.768 12.6255 14.6379 12.5625 14.4855C12.4993 14.3333 12.4828 14.1658 12.515 14.0041C12.5472 13.8425 12.6265 13.694 12.7431 13.5774C12.8597 13.4608 13.0081 13.3815 13.1698 13.3493C13.3314 13.3172 13.499 13.3336 13.6512 13.3968C13.8035 13.4599 13.9337 13.5667 14.0252 13.7036C14.1168 13.8407 14.1657 14.0019 14.1657 14.1667C14.1657 14.3876 14.0779 14.5996 13.9215 14.7559C13.7653 14.9122 13.5533 15 13.3324 15Z" fill="#4E4E4E"/>
</svg>
