<svg width="18" height="18" viewBox="0 0 18 18" fill="none" xmlns="http://www.w3.org/2000/svg">
<path d="M8.99956 3.72141C9.87412 3.72141 10.5831 3.01243 10.5831 2.13786C10.5831 1.2633 9.87412 0.554321 8.99956 0.554321C8.12499 0.554321 7.41602 1.2633 7.41602 2.13786C7.41602 3.01243 8.12499 3.72141 8.99956 3.72141Z" fill="#222222"/>
<path d="M11.57 2.71924C11.3039 3.89486 10.2551 4.77721 9.00013 4.77721C7.74519 4.77721 6.69638 3.89486 6.43021 2.71924C5.48623 2.92958 4.77734 3.77062 4.77734 4.77721V6.88863C4.77734 7.4706 5.25107 7.94433 5.83305 7.94433C6.41502 7.94433 6.88875 7.4706 6.88875 6.88863V5.83292H11.1115V6.88863C11.1115 7.4706 11.5853 7.94433 12.1672 7.94433C12.7492 7.94433 13.223 7.4706 13.223 6.88863V4.77721C13.2229 3.77062 12.514 2.92958 11.57 2.71924Z" fill="#222222"/>
<path d="M17.1822 13.455C16.4248 13.0177 15.4564 13.2771 15.0191 14.0346C14.5818 14.792 14.8413 15.7605 15.5987 16.1977C16.3561 16.635 17.3598 16.3755 17.797 15.6181C18.2343 14.8607 17.9396 13.8923 17.1822 13.455Z" fill="#222222"/>
<path d="M16.2156 9.84971L14.3871 8.79401C13.8831 8.50302 13.236 8.67641 12.945 9.18044C12.654 9.68448 12.8274 10.3316 13.3314 10.6226L14.2457 11.1504L12.1343 14.8074L11.22 14.2796C10.716 13.9886 10.0689 14.162 9.77789 14.666C9.4869 15.1701 9.66029 15.8172 10.1643 16.1082L11.9928 17.1639C12.8646 17.6672 13.9474 17.4737 14.6015 16.7614C13.7165 15.9431 13.4767 14.5936 14.1042 13.5068C14.7317 12.4199 16.0202 11.9529 17.1714 12.3101C17.4613 11.3875 17.0874 10.353 16.2156 9.84971Z" fill="#222222"/>
<path d="M2.98177 14.0347C2.54446 13.2773 1.57601 13.0178 0.818573 13.4551C0.0612022 13.8924 -0.233548 14.8609 0.203796 15.6183C0.641034 16.3757 1.64475 16.6352 2.40212 16.1979C3.15956 15.7606 3.41905 14.7921 2.98177 14.0347Z" fill="#222222"/>
<path d="M8.2217 14.6662C7.93071 14.1621 7.28359 13.9888 6.77959 14.2797L5.86532 14.8076L3.7539 11.1505L4.66818 10.6227C5.17221 10.3317 5.34557 9.68455 5.05461 9.18055C4.76363 8.67651 4.1165 8.50316 3.6125 8.79411L1.78403 9.84982C0.912223 10.3531 0.538301 11.3876 0.828199 12.3103C1.97939 11.953 3.26797 12.4201 3.89544 13.5069C4.52291 14.5938 4.28315 15.9432 3.39812 16.7615C4.0522 17.4738 5.13502 17.6673 6.00682 17.164L7.8353 16.1083C8.3393 15.8173 8.51269 15.1702 8.2217 14.6662Z" fill="#222222"/>
</svg>
