<svg width="18" height="19" viewBox="0 0 18 19" fill="none" xmlns="http://www.w3.org/2000/svg">
<path d="M6.53231 15.4948C6.57798 15.564 6.64925 15.6122 6.73045 15.6288C6.81165 15.6454 6.89612 15.6291 6.96528 15.5834L7.38716 15.3048L7.71165 15.4923V16.2579L7.38716 16.4454L6.96528 16.1668C6.89612 16.1214 6.81178 16.1053 6.73077 16.122C6.64975 16.1387 6.57866 16.1869 6.53308 16.2559C6.4875 16.3249 6.47115 16.4092 6.48762 16.4903C6.50408 16.5713 6.55201 16.6426 6.62091 16.6884L7.07364 16.9873L7.10618 17.5289C7.11094 17.6083 7.14584 17.6829 7.20374 17.7375C7.26165 17.7921 7.3382 17.8226 7.41778 17.8226C7.42411 17.8226 7.43044 17.8225 7.4368 17.8221C7.51953 17.8171 7.5969 17.7795 7.65189 17.7175C7.70687 17.6554 7.73497 17.5741 7.73001 17.4914L7.69969 16.9867L8.02423 16.7992L8.68751 17.182V17.5567L8.23524 17.7828C8.16178 17.8203 8.1061 17.8853 8.08033 17.9636C8.05457 18.0419 8.06081 18.1273 8.09769 18.201C8.13457 18.2748 8.1991 18.331 8.27723 18.3573C8.35535 18.3837 8.44074 18.3781 8.51477 18.3418L9.00001 18.0995L9.48524 18.3421C9.55928 18.3784 9.64466 18.384 9.72279 18.3576C9.80091 18.3312 9.86545 18.275 9.90233 18.2013C9.93921 18.1275 9.94545 18.0422 9.91968 17.9639C9.89391 17.8855 9.83823 17.8206 9.76477 17.7831L9.31251 17.557V17.1823L9.97579 16.7994L10.3003 16.9869L10.27 17.4917C10.265 17.5744 10.2931 17.6557 10.3481 17.7177C10.4031 17.7797 10.4805 17.8174 10.5632 17.8223C10.5696 17.8227 10.5759 17.8229 10.5822 17.8229C10.6618 17.8228 10.7384 17.7924 10.7963 17.7378C10.8542 17.6832 10.8891 17.6086 10.8938 17.5291L10.9264 16.9876L11.3791 16.6886C11.4135 16.6661 11.4431 16.637 11.4662 16.6029C11.4893 16.5689 11.5055 16.5307 11.5138 16.4904C11.5221 16.4502 11.5223 16.4087 11.5146 16.3683C11.5068 16.3279 11.4911 16.2895 11.4685 16.2551C11.4458 16.2208 11.4166 16.1913 11.3825 16.1683C11.3485 16.1453 11.3102 16.1293 11.2699 16.1211C11.2296 16.1129 11.1881 16.1128 11.1477 16.1206C11.1074 16.1285 11.069 16.1443 11.0347 16.1671L10.6129 16.4457L10.2884 16.2582V15.4923L10.6129 15.3048L11.0347 15.5834C11.069 15.6062 11.1074 15.622 11.1477 15.6299C11.1881 15.6377 11.2296 15.6376 11.2699 15.6294C11.3102 15.6212 11.3485 15.6052 11.3825 15.5822C11.4166 15.5592 11.4458 15.5297 11.4685 15.4953C11.4911 15.461 11.5068 15.4226 11.5146 15.3822C11.5223 15.3418 11.5221 15.3003 11.5138 15.2601C11.5055 15.2198 11.4893 15.1816 11.4662 15.1475C11.4431 15.1135 11.4135 15.0844 11.3791 15.0619L10.9264 14.7629L10.8938 14.2214C10.8919 14.18 10.8817 14.1395 10.864 14.1022C10.8462 14.0648 10.8212 14.0313 10.7905 14.0037C10.7597 13.9761 10.7237 13.9548 10.6847 13.9412C10.6456 13.9275 10.6042 13.9218 10.563 13.9243C10.5217 13.9268 10.4813 13.9374 10.4441 13.9556C10.407 13.9738 10.3738 13.9992 10.3466 14.0303C10.3193 14.0615 10.2985 14.0977 10.2854 14.1369C10.2722 14.1761 10.267 14.2176 10.27 14.2588L10.3003 14.7635L9.97579 14.951L9.31251 14.5682V14.1935L9.76477 13.9674C9.8018 13.9492 9.83487 13.9239 9.86208 13.8929C9.88928 13.8619 9.91007 13.8258 9.92327 13.7868C9.93646 13.7477 9.94179 13.7064 9.93894 13.6652C9.9361 13.6241 9.92513 13.5839 9.90669 13.547C9.88824 13.5101 9.86267 13.4773 9.83146 13.4503C9.80025 13.4233 9.76401 13.4028 9.72483 13.3899C9.68566 13.3771 9.64432 13.3721 9.60319 13.3752C9.56207 13.3784 9.52198 13.3897 9.48524 13.4084L9.00001 13.6507L8.51477 13.4081C8.47803 13.3894 8.43794 13.3781 8.39682 13.3749C8.3557 13.3718 8.31436 13.3768 8.27518 13.3897C8.236 13.4026 8.19976 13.4231 8.16855 13.45C8.13734 13.477 8.11177 13.5099 8.09333 13.5468C8.07488 13.5836 8.06392 13.6238 8.06107 13.665C8.05823 13.7061 8.06355 13.7474 8.07675 13.7865C8.08994 13.8256 8.11074 13.8616 8.13794 13.8926C8.16514 13.9236 8.19821 13.9489 8.23524 13.9671L8.68751 14.1932V14.568L8.02423 14.9508L7.69969 14.7633L7.73001 14.2585C7.733 14.2173 7.72777 14.1759 7.71462 14.1366C7.70148 14.0974 7.68068 14.0612 7.65343 14.0301C7.62618 13.999 7.59302 13.9736 7.55588 13.9553C7.51873 13.9371 7.47835 13.9265 7.43706 13.924C7.39577 13.9215 7.3544 13.9273 7.31534 13.9409C7.27629 13.9545 7.24033 13.9758 7.20955 14.0034C7.17877 14.0311 7.15378 14.0645 7.13604 14.1019C7.1183 14.1393 7.10815 14.1798 7.10618 14.2211L7.07364 14.7627L6.62091 15.0616C6.58662 15.0842 6.55713 15.1134 6.53412 15.1474C6.51111 15.1814 6.49503 15.2196 6.4868 15.2599C6.47858 15.3001 6.47836 15.3416 6.48617 15.3819C6.49398 15.4222 6.50966 15.4606 6.53231 15.4948ZM8.33673 15.4922L9.00001 15.1094L9.66329 15.4922V16.2579L9.00001 16.6407L8.33673 16.2579V15.4922Z" fill="#4E4E4E"/>
<path d="M2.74104 13.1685L2.55537 13.2756L2.2585 13.0796C2.18933 13.0342 2.105 13.0181 2.02398 13.0348C1.94297 13.0515 1.87188 13.0997 1.8263 13.1687C1.78072 13.2377 1.76437 13.322 1.78083 13.4031C1.79729 13.4841 1.84523 13.5554 1.91412 13.6011L2.2419 13.8176L2.26533 14.2096C2.27009 14.2891 2.30498 14.3637 2.36288 14.4183C2.42079 14.4729 2.49735 14.5034 2.57693 14.5035C2.58322 14.5035 2.58963 14.5035 2.596 14.5029C2.67873 14.4979 2.75609 14.4603 2.81108 14.3983C2.86607 14.3362 2.89417 14.2549 2.8892 14.1722L2.86787 13.8167L3.05354 13.7095L3.50772 13.9718V14.1861L3.18936 14.3453C3.1159 14.3828 3.06022 14.4478 3.03445 14.5261C3.00868 14.6044 3.01492 14.6897 3.0518 14.7635C3.08868 14.8373 3.15322 14.8934 3.23134 14.9198C3.30947 14.9462 3.39485 14.9406 3.46889 14.9043L3.82022 14.7285L4.17159 14.9043C4.24572 14.9414 4.33154 14.9475 4.41017 14.9212C4.4491 14.9083 4.48509 14.8877 4.51609 14.8608C4.5471 14.834 4.57249 14.8012 4.59084 14.7645C4.60919 14.7278 4.62013 14.6878 4.62304 14.6469C4.62594 14.606 4.62075 14.5649 4.60777 14.5259C4.59479 14.487 4.57427 14.451 4.54738 14.42C4.52048 14.389 4.48775 14.3636 4.45104 14.3452L4.13287 14.1863V13.972L4.58705 13.7097L4.77272 13.8169L4.75139 14.1724C4.74642 14.2551 4.77453 14.3364 4.82951 14.3985C4.8845 14.4605 4.96187 14.4981 5.0446 14.5031C5.05096 14.5035 5.05733 14.5036 5.06366 14.5036C5.14325 14.5036 5.2198 14.4731 5.27771 14.4185C5.33561 14.3639 5.3705 14.2893 5.37526 14.2098L5.3987 13.8177L5.72647 13.6013C5.76085 13.5788 5.79044 13.5497 5.81354 13.5157C5.83665 13.4817 5.85282 13.4434 5.86112 13.4031C5.86942 13.3629 5.86969 13.3214 5.86192 13.281C5.85415 13.2406 5.83849 13.2022 5.81584 13.1679C5.79318 13.1335 5.76398 13.104 5.7299 13.081C5.69582 13.058 5.65754 13.042 5.61725 13.0338C5.57695 13.0256 5.53544 13.0255 5.49509 13.0334C5.45474 13.0412 5.41634 13.057 5.3821 13.0798L5.08522 13.2758L4.89956 13.1687V12.644L5.08522 12.5369L5.3821 12.7329C5.41634 12.7557 5.45474 12.7715 5.49509 12.7794C5.53544 12.7873 5.57695 12.7871 5.61725 12.7789C5.65754 12.7707 5.69582 12.7547 5.7299 12.7317C5.76398 12.7087 5.79318 12.6792 5.81584 12.6449C5.83849 12.6105 5.85415 12.5721 5.86192 12.5317C5.86969 12.4914 5.86942 12.4498 5.86112 12.4096C5.85282 12.3693 5.83665 12.3311 5.81354 12.2971C5.79044 12.263 5.76085 12.2339 5.72647 12.2114L5.3987 11.995L5.37526 11.6029C5.37304 11.5618 5.36271 11.5215 5.34486 11.4843C5.32702 11.4472 5.302 11.414 5.27126 11.3865C5.24052 11.3591 5.20466 11.338 5.16575 11.3245C5.12683 11.311 5.08562 11.3053 5.0445 11.3078C5.00338 11.3102 4.96315 11.3208 4.92613 11.3389C4.8891 11.357 4.85602 11.3822 4.82878 11.4131C4.80154 11.444 4.78068 11.48 4.7674 11.519C4.75411 11.558 4.74868 11.5992 4.75139 11.6403L4.77272 11.9958L4.58705 12.103L4.13287 11.8406V11.6262L4.4512 11.467C4.52533 11.43 4.58171 11.365 4.60793 11.2864C4.63415 11.2077 4.62806 11.1219 4.591 11.0478C4.55394 10.9736 4.48895 10.9173 4.41033 10.891C4.3317 10.8648 4.24588 10.8709 4.17174 10.908L3.82037 11.0838L3.46905 10.908C3.39501 10.8717 3.30963 10.8661 3.2315 10.8925C3.15337 10.9189 3.08884 10.975 3.05196 11.0488C3.01508 11.1225 3.00884 11.2079 3.03461 11.2862C3.06037 11.3645 3.11605 11.4295 3.18951 11.467L3.50787 11.6261V11.8405L3.05369 12.1027L2.86803 11.9956L2.88936 11.6401C2.89207 11.599 2.88663 11.5577 2.87335 11.5187C2.86007 11.4797 2.83921 11.4438 2.81197 11.4129C2.78473 11.3819 2.75164 11.3567 2.71462 11.3387C2.6776 11.3206 2.63737 11.31 2.59625 11.3075C2.55512 11.3051 2.51392 11.3108 2.475 11.3243C2.43609 11.3378 2.40023 11.3589 2.36949 11.3863C2.33875 11.4137 2.31373 11.447 2.29588 11.4841C2.27804 11.5212 2.26771 11.5615 2.26549 11.6027L2.24205 11.9947L1.91428 12.2111C1.8799 12.2337 1.85031 12.2628 1.8272 12.2968C1.8041 12.3308 1.78793 12.3691 1.77963 12.4093C1.77133 12.4496 1.77105 12.4911 1.77882 12.5315C1.78659 12.5719 1.80226 12.6103 1.82491 12.6446C1.84757 12.6789 1.87677 12.7084 1.91085 12.7314C1.94493 12.7544 1.98321 12.7705 2.0235 12.7787C2.06379 12.7869 2.10531 12.787 2.14566 12.7791C2.18601 12.7712 2.22441 12.7555 2.25865 12.7327L2.55553 12.5367L2.74119 12.6438L2.74104 13.1685ZM3.36604 12.644L3.82022 12.3818L4.2744 12.644V13.1685L3.82037 13.4307L3.36619 13.1685L3.36604 12.644Z" fill="#4E4E4E"/>
<path d="M12.9472 11.6223C12.9063 11.6198 12.8652 11.6254 12.8264 11.6388C12.7876 11.6522 12.7519 11.6732 12.7212 11.7004C12.6905 11.7276 12.6654 11.7606 12.6475 11.7975C12.6295 11.8345 12.619 11.8745 12.6166 11.9155L12.5931 12.3076L12.2654 12.524C12.231 12.5465 12.2014 12.5756 12.1783 12.6097C12.1552 12.6437 12.139 12.6819 12.1307 12.7222C12.1224 12.7624 12.1221 12.804 12.1299 12.8443C12.1377 12.8847 12.1533 12.9231 12.176 12.9575C12.1986 12.9918 12.2278 13.0213 12.2619 13.0443C12.296 13.0673 12.3343 13.0833 12.3746 13.0915C12.4149 13.0997 12.4564 13.0999 12.4967 13.092C12.5371 13.0841 12.5755 13.0683 12.6097 13.0455L12.9066 12.8495L13.0923 12.9566V13.4811L12.9066 13.5882L12.6097 13.3922C12.5406 13.3468 12.4562 13.3307 12.3752 13.3474C12.2942 13.3641 12.2231 13.4123 12.1775 13.4813C12.1319 13.5503 12.1156 13.6346 12.1321 13.7157C12.1485 13.7967 12.1965 13.868 12.2654 13.9137L12.5931 14.1301L12.6166 14.5222C12.6213 14.6017 12.6562 14.6763 12.7141 14.7309C12.772 14.7855 12.8486 14.816 12.9282 14.816C12.9345 14.816 12.9409 14.816 12.9472 14.8155C13.03 14.8105 13.1073 14.7729 13.1623 14.7108C13.2173 14.6488 13.2454 14.5675 13.2404 14.4848L13.2191 14.1293L13.4048 14.0221L13.8589 14.2844V14.4987L13.5406 14.6579C13.4671 14.6954 13.4114 14.7603 13.3857 14.8387C13.3599 14.917 13.3661 15.0023 13.403 15.0761C13.4399 15.1498 13.5044 15.206 13.5826 15.2324C13.6607 15.2588 13.7461 15.2532 13.8201 15.2169L14.1714 15.0411L14.5227 15.2169C14.5968 15.2532 14.6821 15.2588 14.7603 15.2324C14.8384 15.206 14.9029 15.1498 14.9398 15.0761C14.9767 15.0023 14.9829 14.917 14.9572 14.8387C14.9314 14.7603 14.8757 14.6954 14.8023 14.6579L14.4839 14.4987V14.2844L14.9381 14.0221L15.1238 14.1293L15.1025 14.4848C15.0975 14.5675 15.1256 14.6488 15.1805 14.7108C15.2354 14.7728 15.3127 14.8104 15.3954 14.8155C15.4018 14.8158 15.4082 14.816 15.4145 14.816C15.4941 14.816 15.5706 14.7855 15.6285 14.7309C15.6864 14.6763 15.7213 14.6017 15.7261 14.5223L15.7495 14.1301L16.0773 13.9137C16.1116 13.8912 16.1412 13.8621 16.1643 13.8281C16.1874 13.7941 16.2036 13.7558 16.2119 13.7155C16.2202 13.6753 16.2205 13.6338 16.2127 13.5934C16.2049 13.553 16.1893 13.5146 16.1666 13.4803C16.144 13.446 16.1148 13.4164 16.0807 13.3934C16.0466 13.3704 16.0083 13.3544 15.968 13.3462C15.9277 13.338 15.8862 13.3379 15.8459 13.3458C15.8055 13.3536 15.7671 13.3694 15.7329 13.3922L15.436 13.5883L15.2503 13.4811V12.9566L15.436 12.8494L15.7329 13.0455C15.7671 13.0683 15.8055 13.0841 15.8459 13.092C15.8862 13.0999 15.9277 13.0997 15.968 13.0915C16.0083 13.0833 16.0466 13.0673 16.0807 13.0443C16.1148 13.0213 16.144 12.9918 16.1666 12.9575C16.1893 12.9231 16.2049 12.8847 16.2127 12.8443C16.2205 12.804 16.2202 12.7624 16.2119 12.7222C16.2036 12.6819 16.1874 12.6437 16.1643 12.6097C16.1412 12.5756 16.1116 12.5465 16.0773 12.524L15.7495 12.3076L15.7261 11.9155C15.7241 11.8741 15.714 11.8336 15.6962 11.7963C15.6785 11.7589 15.6535 11.7254 15.6227 11.6978C15.5919 11.6702 15.556 11.6489 15.5169 11.6353C15.4779 11.6216 15.4365 11.6159 15.3952 11.6184C15.3539 11.6209 15.3135 11.6315 15.2764 11.6497C15.2392 11.6679 15.2061 11.6933 15.1788 11.7244C15.1516 11.7556 15.1308 11.7918 15.1176 11.831C15.1045 11.8702 15.0993 11.9117 15.1023 11.9529L15.1236 12.3084L14.9379 12.4156L14.4837 12.1534V11.9388L14.8021 11.7796C14.8391 11.7614 14.8722 11.7361 14.8994 11.7051C14.9266 11.6741 14.9474 11.6381 14.9606 11.599C14.9737 11.5599 14.9791 11.5186 14.9762 11.4775C14.9734 11.4363 14.9624 11.3961 14.944 11.3593C14.9255 11.3224 14.9 11.2895 14.8688 11.2625C14.8375 11.2356 14.8013 11.2151 14.7621 11.2022C14.7229 11.1893 14.6816 11.1843 14.6405 11.1874C14.5994 11.1906 14.5593 11.2019 14.5225 11.2206L14.1712 11.3964L13.8199 11.2206C13.7459 11.1843 13.6605 11.1787 13.5824 11.2051C13.5042 11.2315 13.4397 11.2877 13.4028 11.3614C13.3659 11.4352 13.3597 11.5205 13.3855 11.5988C13.4112 11.6772 13.4669 11.7421 13.5404 11.7796L13.8587 11.9388V12.1532L13.4046 12.4154L13.2189 12.3082L13.2402 11.9527C13.2451 11.8701 13.217 11.7888 13.1621 11.7269C13.1072 11.6649 13.0299 11.6273 12.9472 11.6223ZM13.7173 12.9566L14.1714 12.6944L14.6256 12.9566V13.4811L14.1714 13.7433L13.7173 13.4811V12.9566Z" fill="#4E4E4E"/>
<path d="M2.125 4H15.875V4.625H2.125V4Z" fill="#4E4E4E"/>
<path d="M17.4375 0.875H0.5625C0.479648 0.875093 0.400217 0.908047 0.341632 0.966632C0.283047 1.02522 0.250093 1.10465 0.25 1.1875V5.5625C0.250093 5.64535 0.283047 5.72478 0.341632 5.78337C0.400217 5.84195 0.479648 5.87491 0.5625 5.875H1.5V4C1.5002 3.8343 1.56611 3.67544 1.68328 3.55828C1.80044 3.44111 1.9593 3.3752 2.125 3.375H15.875C16.0407 3.3752 16.1996 3.44111 16.3167 3.55828C16.4339 3.67544 16.4998 3.8343 16.5 4V5.875H17.4375C17.5204 5.87491 17.5998 5.84195 17.6584 5.78337C17.717 5.72478 17.7499 5.64535 17.75 5.5625V1.1875C17.7499 1.10465 17.717 1.02522 17.6584 0.966632C17.5998 0.908047 17.5204 0.875093 17.4375 0.875ZM13.1566 2.75C13.0948 2.75 13.0343 2.73167 12.9829 2.69733C12.9316 2.663 12.8915 2.61419 12.8679 2.55709C12.8442 2.49999 12.838 2.43715 12.8501 2.37653C12.8621 2.31592 12.8919 2.26023 12.9356 2.21653C12.9793 2.17283 13.035 2.14306 13.0956 2.131C13.1562 2.11895 13.219 2.12514 13.2762 2.14879C13.3333 2.17244 13.3821 2.21249 13.4164 2.26388C13.4507 2.31527 13.4691 2.37569 13.4691 2.4375C13.4691 2.52038 13.4361 2.59987 13.3775 2.65847C13.3189 2.71708 13.2394 2.75 13.1566 2.75ZM14.3125 2.75C14.2507 2.75 14.1903 2.73167 14.1389 2.69733C14.0875 2.663 14.0474 2.61419 14.0238 2.55709C14.0001 2.49999 13.9939 2.43715 14.006 2.37653C14.0181 2.31592 14.0478 2.26023 14.0915 2.21653C14.1352 2.17283 14.1909 2.14306 14.2515 2.131C14.3122 2.11895 14.375 2.12514 14.4321 2.14879C14.4892 2.17244 14.538 2.21249 14.5723 2.26388C14.6067 2.31527 14.625 2.37569 14.625 2.4375C14.625 2.52038 14.5921 2.59987 14.5335 2.65847C14.4749 2.71708 14.3954 2.75 14.3125 2.75ZM15.5625 2.75C15.5007 2.75 15.4403 2.73167 15.3889 2.69733C15.3375 2.663 15.2974 2.61419 15.2738 2.55709C15.2501 2.49999 15.2439 2.43715 15.256 2.37653C15.2681 2.31592 15.2978 2.26023 15.3415 2.21653C15.3852 2.17283 15.4409 2.14306 15.5015 2.131C15.5622 2.11895 15.625 2.12514 15.6821 2.14879C15.7392 2.17244 15.788 2.21249 15.8223 2.26388C15.8567 2.31527 15.875 2.37569 15.875 2.4375C15.875 2.52038 15.8421 2.59987 15.7835 2.65847C15.7249 2.71708 15.6454 2.75 15.5625 2.75Z" fill="#4E4E4E"/>
<path d="M2.125 5.25H15.875V5.875H2.125V5.25Z" fill="#4E4E4E"/>
<path d="M9 8.0625C9.08288 8.0625 9.16237 8.02958 9.22097 7.97097C9.27958 7.91237 9.3125 7.83288 9.3125 7.75V7.4375C9.3125 7.35462 9.27958 7.27513 9.22097 7.21653C9.16237 7.15792 9.08288 7.125 9 7.125C8.91712 7.125 8.83763 7.15792 8.77903 7.21653C8.72042 7.27513 8.6875 7.35462 8.6875 7.4375V7.75C8.6875 7.83288 8.72042 7.91237 8.77903 7.97097C8.83763 8.02958 8.91712 8.0625 9 8.0625Z" fill="#4E4E4E"/>
<path d="M8.6875 10.5625C8.6875 10.6454 8.72042 10.7249 8.77903 10.7835C8.83763 10.8421 8.91712 10.875 9 10.875C9.08288 10.875 9.16237 10.8421 9.22097 10.7835C9.27958 10.7249 9.3125 10.6454 9.3125 10.5625V8.6875C9.3125 8.60462 9.27958 8.52513 9.22097 8.46653C9.16237 8.40792 9.08288 8.375 9 8.375C8.91712 8.375 8.83763 8.40792 8.77903 8.46653C8.72042 8.52513 8.6875 8.60462 8.6875 8.6875V10.5625Z" fill="#4E4E4E"/>
<path d="M6.0086 9.4061C5.90881 9.50781 5.80147 9.60183 5.6875 9.68735C5.6212 9.73708 5.57736 9.81111 5.56564 9.89316C5.55392 9.97521 5.57527 10.0585 5.625 10.1249C5.67473 10.1912 5.74876 10.235 5.83081 10.2467C5.91286 10.2584 5.9962 10.2371 6.0625 10.1874C6.20178 10.0828 6.33296 9.9679 6.45493 9.8436C6.51246 9.78432 6.54417 9.70467 6.54314 9.62207C6.5421 9.53947 6.50841 9.46064 6.44941 9.40281C6.39042 9.34498 6.31093 9.31287 6.22833 9.31349C6.14572 9.3141 6.06672 9.3474 6.0086 9.4061Z" fill="#4E4E4E"/>
<path d="M6.73901 8.97389C6.77661 8.99035 6.8171 8.99922 6.85814 9.00001C6.89918 9.0008 6.93997 8.99349 6.97818 8.9785C7.01639 8.96351 7.05127 8.94113 7.08083 8.91264C7.11038 8.88416 7.13403 8.85012 7.15041 8.81249C7.34027 8.37898 7.43799 7.91076 7.43741 7.4375C7.43741 7.35462 7.40448 7.27513 7.34588 7.21653C7.28727 7.15792 7.20779 7.125 7.12491 7.125C7.04203 7.125 6.96254 7.15792 6.90393 7.21653C6.84533 7.27513 6.81241 7.35462 6.81241 7.4375C6.8129 7.82471 6.73294 8.2078 6.5776 8.56249C6.54445 8.63845 6.54283 8.72447 6.5731 8.80162C6.60337 8.87877 6.66305 8.94074 6.73901 8.97389Z" fill="#4E4E4E"/>
<path d="M12.3125 9.68766C12.0084 9.46012 11.7538 9.17304 11.5643 8.84391C11.5225 8.77272 11.4543 8.72093 11.3746 8.69983C11.2948 8.67874 11.2099 8.69006 11.1384 8.73132C11.067 8.77258 11.0147 8.84044 10.9931 8.92008C10.9715 8.99971 10.9822 9.08467 11.023 9.15641C11.2547 9.55868 11.5658 9.90956 11.9375 10.1877C12.0038 10.2374 12.0871 10.2587 12.1692 10.247C12.2512 10.2353 12.3252 10.1915 12.375 10.1252C12.4247 10.0588 12.4461 9.97551 12.4343 9.89346C12.4226 9.81141 12.3788 9.73738 12.3125 9.68766Z" fill="#4E4E4E"/>
<path d="M11.1875 7.4375C11.1875 7.35462 11.1546 7.27513 11.096 7.21653C11.0374 7.15792 10.9579 7.125 10.875 7.125C10.7921 7.125 10.7126 7.15792 10.654 7.21653C10.5954 7.27513 10.5625 7.35462 10.5625 7.4375C10.5626 7.66841 10.5858 7.89873 10.6319 8.125C10.6485 8.20621 10.6966 8.27751 10.7658 8.32322C10.8349 8.36892 10.9194 8.38529 11.0006 8.36871C11.0818 8.35214 11.1531 8.30398 11.1988 8.23483C11.2445 8.16568 11.2609 8.08121 11.2443 8C11.2066 7.81488 11.1875 7.62643 11.1875 7.4375Z" fill="#4E4E4E"/>
</svg>
