<svg width="18" height="18" viewBox="0 0 18 18" fill="none" xmlns="http://www.w3.org/2000/svg">
<path d="M8.07949 10.135C8.94551 10.0623 9.57248 9.69923 9.94472 9.0563C10.0066 8.94893 10.1277 8.89001 10.2504 8.90715C10.3731 8.92453 10.4733 9.01452 10.503 9.13487C10.5684 9.34581 10.6776 9.54067 10.8238 9.70625C10.7098 8.70943 9.83782 7.97473 8.83599 8.03139C7.83427 8.08805 7.05064 8.91655 7.0498 9.91993V10.0874C7.38978 10.1455 7.73547 10.1616 8.07949 10.135Z" fill="#4E4E4E"/>
<path d="M2.45949 12.2473C3.05005 12.1965 3.48025 11.95 3.73226 11.5146C3.79416 11.4074 3.9151 11.3486 4.03759 11.3658C4.04973 11.3677 4.06187 11.3705 4.07378 11.374C3.73273 10.9547 3.16468 10.7953 2.65519 10.9759C2.14571 11.1563 1.8049 11.6377 1.80371 12.1783V12.2255C2.02084 12.2574 2.24082 12.2648 2.45949 12.2473Z" fill="#4E4E4E"/>
<path d="M5.14522 12.2451C5.25545 12.2261 5.35378 12.1644 5.41878 12.0736C5.55008 11.8853 5.50377 11.626 5.31545 11.4947C5.16915 11.4017 4.98202 11.4029 4.83691 11.4977C4.91988 11.7152 4.96131 11.946 4.95929 12.1786V12.2373C5.02011 12.2529 5.08344 12.2555 5.14522 12.2451Z" fill="#4E4E4E"/>
<path d="M7.0498 11.4214C7.05004 11.9315 7.25062 12.4212 7.60822 12.7849C7.95736 13.1511 8.44113 13.3582 8.94705 13.3582C9.45308 13.3582 9.93686 13.1511 10.286 12.7849C10.6455 12.4219 10.8485 11.9323 10.8513 11.4214V10.5089C10.5657 10.3364 10.3271 10.0961 10.1564 9.80957C9.67009 10.3552 8.968 10.6755 8.11044 10.7434C7.99009 10.7529 7.87344 10.7571 7.7613 10.7571C7.52334 10.7568 7.28538 10.7391 7.0498 10.7044V11.4214ZM9.50439 11.0971C9.67235 11.0971 9.80853 11.2333 9.80853 11.4012C9.80937 11.4398 9.84091 11.4706 9.87948 11.4706C9.91817 11.4706 9.94971 11.4398 9.95066 11.4012C9.95066 11.2333 10.0868 11.0971 10.2548 11.0971C10.4227 11.0971 10.5588 11.2333 10.5588 11.4012C10.5561 11.7744 10.2527 12.0755 9.87948 12.0755C9.50629 12.0755 9.2031 11.7744 9.20024 11.4012C9.20024 11.2333 9.33642 11.0971 9.50439 11.0971ZM7.62869 11.0971C7.79666 11.0971 7.93284 11.2333 7.93284 11.4012C7.93284 11.4404 7.96462 11.4722 8.0039 11.4722C8.04307 11.4722 8.07485 11.4404 8.07485 11.4012C8.07485 11.2333 8.21103 11.0971 8.37899 11.0971C8.54696 11.0971 8.68302 11.2333 8.68302 11.4012C8.68302 11.7763 8.37899 12.0805 8.0039 12.0805C7.62869 12.0805 7.32467 11.7763 7.32467 11.4012C7.32467 11.2333 7.46061 11.0971 7.62869 11.0971Z" fill="#4E4E4E"/>
<path d="M13.5508 12.1783V12.2255C13.7665 12.2575 13.985 12.2648 14.2025 12.2473C14.7931 12.1965 15.2192 11.9499 15.4712 11.5146C15.5335 11.4074 15.6543 11.3486 15.777 11.3658C15.7897 11.3677 15.802 11.3705 15.8143 11.374C15.4742 10.9547 14.907 10.7952 14.3982 10.976C13.8896 11.1568 13.5499 11.6384 13.5508 12.1783Z" fill="#4E4E4E"/>
<path d="M16.7058 12.2373C16.7649 12.2529 16.8269 12.2555 16.8873 12.2451C17.053 12.216 17.185 12.0898 17.2213 11.9254C17.2576 11.7611 17.1913 11.591 17.0532 11.4947C16.9086 11.4017 16.7227 11.4029 16.5791 11.4977C16.6633 11.7148 16.7061 11.9457 16.7058 12.1786V12.2373Z" fill="#4E4E4E"/>
<path d="M14.2338 12.8548C14.1453 12.8617 14.0598 12.8647 13.9774 12.8647C13.8348 12.8648 13.6922 12.8563 13.5508 12.8388V13.2567C13.5508 13.9651 14.1326 14.5634 14.8242 14.5634C15.5157 14.5634 16.0977 13.965 16.0977 13.2567V12.647C15.9328 12.5382 15.7908 12.3984 15.6791 12.2354C15.3205 12.5954 14.8306 12.8074 14.2338 12.8548Z" fill="#4E4E4E"/>
<path d="M3.07719 14.5634C3.7688 14.5634 4.35079 13.9651 4.35079 13.2567V12.647C4.18687 12.5382 4.04569 12.3984 3.93546 12.2354C3.57679 12.5956 3.09004 12.8076 2.49318 12.8551C2.40486 12.862 2.31713 12.8649 2.23487 12.8649C2.09059 12.8652 1.9468 12.8564 1.80371 12.8389V13.2568C1.80371 13.9651 2.38569 14.5634 3.07719 14.5634Z" fill="#4E4E4E"/>
<path d="M12.2921 9.84185C12.5093 9.52355 12.4283 9.08953 12.111 8.87098C11.8474 8.6873 11.491 8.72277 11.248 8.93216C11.3851 9.24357 11.4571 9.57973 11.4595 9.91994V10.0864C11.7256 10.21 12.1013 10.1156 12.2921 9.84185Z" fill="#4E4E4E"/>
<path d="M5.5293 15.5671V16.5867H8.64644V14.9808L7.71818 14.3819H6.73099C6.41447 14.3793 6.10973 14.5028 5.88427 14.7253C5.65893 14.9477 5.5312 15.2505 5.5293 15.5671Z" fill="#4E4E4E"/>
<path d="M12.4481 15.5671C12.4463 15.2505 12.3187 14.9477 12.0932 14.7253C11.8677 14.5028 11.5632 14.3793 11.2464 14.3819H10.2498L9.25488 14.985V16.5867H12.4481V15.5671Z" fill="#4E4E4E"/>
<path d="M2.79207 15.8627L2.18105 15.4473H1.49682C1.06959 15.4473 0.739258 15.8106 0.739258 16.2378V17.424H2.79207V15.8627Z" fill="#4E4E4E"/>
<path d="M14.5392 15.8627L13.9196 15.4473H13.2353C13.1733 15.4498 13.1118 15.4599 13.0522 15.4771C13.0534 15.5049 13.0565 15.5404 13.0565 15.5681V16.8955C13.054 17.0636 12.9161 17.198 12.748 17.1959H12.4482V17.424H14.5392V15.8627Z" fill="#4E4E4E"/>
<path d="M14.8244 15.1721C14.7348 15.1721 14.6452 15.1656 14.5566 15.1526L14.8395 15.3374L15.1525 15.1426C15.0442 15.1622 14.9343 15.1721 14.8244 15.1721Z" fill="#4E4E4E"/>
<path d="M15.1475 15.867V17.424H17.2384V16.2378C17.2384 15.8106 16.9081 15.4473 16.4807 15.4473H15.7888L15.1475 15.867Z" fill="#4E4E4E"/>
<path d="M3.08608 15.1721C2.99644 15.1721 2.90704 15.1656 2.81836 15.1526L3.1012 15.3374L3.41415 15.1426C3.30582 15.1622 3.19595 15.1721 3.08608 15.1721Z" fill="#4E4E4E"/>
<path d="M5.52928 17.1959H5.22966C5.06157 17.198 4.92349 17.0636 4.92099 16.8955V15.5681C4.92099 15.5404 4.92408 15.5046 4.92539 15.4771C4.86587 15.4599 4.80445 15.4498 4.74231 15.4473H4.05046L3.40039 15.867V17.424H5.52928V17.1959Z" fill="#4E4E4E"/>
<path d="M9.86305 13.8973V13.7871C9.57093 13.9039 9.25941 13.9647 8.94467 13.9661C8.66172 13.966 8.38067 13.917 8.11426 13.821V13.9017L8.96431 14.4559L9.86305 13.8973Z" fill="#4E4E4E"/>
<path d="M12.2011 6.32505L12.127 5.27537C12.121 5.19156 12.1504 5.10919 12.208 5.04824C12.2658 4.98718 12.3464 4.95337 12.4304 4.95504H13.908C14.2882 4.95504 14.615 4.63887 14.615 4.2589V1.90611C14.615 1.5259 14.2882 1.22949 13.908 1.22949H11.8877C11.8897 1.2539 11.8904 1.27854 11.8898 1.30306L11.8678 4.29318C11.8623 4.87933 11.4654 5.38941 10.8984 5.53856L12.2011 6.32505Z" fill="#4E4E4E"/>
<path d="M3.68292 4.92376L5.42398 4.93519C5.50731 4.93566 5.58683 4.97019 5.64385 5.03089C5.70087 5.09172 5.73051 5.17326 5.72563 5.25635L5.63254 6.83576L7.82226 5.02244C7.87678 4.97566 7.94594 4.94959 8.01784 4.94852L10.564 4.95495H10.5699C10.9464 4.95876 11.2552 4.65676 11.2596 4.28012L11.2817 1.29213C11.2845 0.911564 10.9787 0.600397 10.5981 0.596825L9.85307 0.590278L3.71673 0.548853C3.53376 0.547305 3.35771 0.618252 3.22736 0.746338C3.09677 0.874543 3.02249 1.04929 3.02106 1.23225L2.99904 4.22834C2.9963 4.60902 3.30211 4.92031 3.68292 4.92376ZM3.9848 1.15345H3.98861L7.46419 1.19511C7.63227 1.19749 7.76667 1.33546 7.76465 1.50354C7.76238 1.66924 7.62644 1.80185 7.4605 1.79971H7.45681L3.98111 1.76305C3.81279 1.76198 3.67709 1.6246 3.67816 1.45628C3.67923 1.28796 3.81636 1.15238 3.9848 1.15345ZM3.9848 2.29384H3.98683L10.1235 2.33562C10.2916 2.33705 10.4267 2.4743 10.4256 2.64239C10.4249 2.72226 10.3925 2.79856 10.3354 2.85439C10.2784 2.91022 10.2014 2.94117 10.1216 2.9401H10.1195L3.98278 2.90344C3.81446 2.90284 3.6784 2.76595 3.67899 2.59751C3.67959 2.42919 3.8166 2.29324 3.9848 2.29384ZM3.9848 3.43435H3.98683L10.1235 3.47601C10.2916 3.47756 10.4267 3.61469 10.4256 3.78289C10.4249 3.86277 10.3925 3.93907 10.3354 3.9949C10.2784 4.05073 10.2014 4.08156 10.1216 4.08061H10.1195L3.98278 4.04395C3.81446 4.04335 3.6784 3.90634 3.67899 3.73802C3.67959 3.56958 3.8166 3.43375 3.9848 3.43435Z" fill="#4E4E4E"/>
</svg>
