<svg width="18" height="18" viewBox="0 0 18 18" fill="none" xmlns="http://www.w3.org/2000/svg">
<path d="M3.29625 4.06125C4.41773 4.06125 5.32687 3.15211 5.32687 2.03062C5.32687 0.909142 4.41773 0 3.29625 0C2.17477 0 1.26562 0.909142 1.26562 2.03062C1.26562 3.15211 2.17477 4.06125 3.29625 4.06125Z" fill="#4E4E4E"/>
<path d="M8.47266 6.34641C8.76389 6.34641 9 6.1103 9 5.81906V4.45349L10.0781 5.00031V7.92844H8.51249V8.98313H10.6055C10.8967 8.98313 11.1328 8.74702 11.1328 8.45578V4.67648C11.1328 4.47785 11.0212 4.29606 10.844 4.20616L9 3.27087V1.58203C9 1.2908 8.76389 1.05469 8.47266 1.05469C8.18142 1.05469 7.94531 1.2908 7.94531 1.58203V5.81906C7.94531 6.1103 8.18142 6.34641 8.47266 6.34641Z" fill="#4E4E4E"/>
<path d="M7.45794 8.45605V8.28027C7.45794 7.6978 6.98572 7.22559 6.40325 7.22559H4.82129V8.9834H6.93059C7.22186 8.9834 7.45794 8.74729 7.45794 8.45605Z" fill="#4E4E4E"/>
<path d="M2.10938 6.69823C2.10938 6.407 2.34548 6.17089 2.63672 6.17089H6.58013C6.54711 5.33512 6.20139 4.57835 5.65689 4.01465C5.09048 4.68772 4.24238 5.1162 3.2959 5.1162C2.34717 5.1162 1.4972 4.68564 0.930797 4.00977C0.355008 4.60348 0 5.41232 0 6.30273V8.45605C0 8.74728 0.236109 8.98339 0.527344 8.98339H3.76647V7.22558H2.63672C2.34548 7.22558 2.10938 6.98947 2.10938 6.69823Z" fill="#4E4E4E"/>
<path d="M14.7045 13.0779C15.8259 13.0779 16.7351 12.1687 16.7351 11.0472C16.7351 9.92574 15.8259 9.0166 14.7045 9.0166C13.583 9.0166 12.6738 9.92574 12.6738 11.0472C12.6738 12.1687 13.583 13.0779 14.7045 13.0779Z" fill="#4E4E4E"/>
<path d="M9.52736 10.0713C9.23613 10.0713 9.00002 10.3074 9.00002 10.5986V12.2875L7.156 13.2228C6.97884 13.3127 6.86719 13.4945 6.86719 13.6931V17.4724C6.86719 17.7636 7.1033 17.9997 7.39453 17.9997H9.48753V16.945H7.92188V14.0169L9.00002 13.4701V14.8357C9.00002 15.1269 9.23613 15.363 9.52736 15.363C9.8186 15.363 10.0547 15.1269 10.0547 14.8357V10.5986C10.0547 10.3074 9.8186 10.0713 9.52736 10.0713Z" fill="#4E4E4E"/>
<path d="M10.542 17.2969V17.4727C10.542 17.7639 10.7781 18 11.0693 18H13.1786V16.2422H11.5967C11.0142 16.2422 10.542 16.7144 10.542 17.2969Z" fill="#4E4E4E"/>
<path d="M17.0692 13.0264C16.5028 13.7022 15.6529 14.1328 14.7041 14.1328C13.7577 14.1328 12.9096 13.7043 12.3432 13.0313C11.7987 13.5949 11.453 14.3517 11.4199 15.1875H15.3633C15.6546 15.1875 15.8907 15.4236 15.8907 15.7148C15.8907 16.0061 15.6546 16.2422 15.3633 16.2422H14.2336V18H17.4727C17.7639 18 18 17.7639 18 17.4726V15.3193C18 14.429 17.645 13.6201 17.0692 13.0264Z" fill="#4E4E4E"/>
</svg>
