<svg width="18" height="18" viewBox="0 0 18 18" fill="none" xmlns="http://www.w3.org/2000/svg">
<path d="M9.43088 6.46875H8.4375C7.75856 6.46875 7.19044 5.98472 7.05966 5.34375H1.125C0.970031 5.34375 0.84375 5.47003 0.84375 5.625V7.03125H9.89944L9.43088 6.46875ZM1.96875 6.46875H1.40625V5.90625H1.96875V6.46875ZM3.09375 6.46875H2.53125V5.90625H3.09375V6.46875ZM4.21875 6.46875H3.65625V5.90625H4.21875V6.46875Z" fill="#4E4E4E"/>
<path d="M10.125 14.9062C9.97003 14.9062 9.84375 15.0323 9.84375 15.1875V15.75C9.84375 15.9053 9.97003 16.0312 10.125 16.0312H14.625C14.78 16.0312 14.9062 15.9053 14.9062 15.75V15.1875C14.9062 15.0323 14.78 14.9062 14.625 14.9062H10.125Z" fill="#4E4E4E"/>
<path d="M10.6875 10.9688H14.0625V11.5312H10.6875V10.9688Z" fill="#4E4E4E"/>
<path d="M10.125 12.0938C9.97003 12.0938 9.84375 12.2198 9.84375 12.375V12.9375C9.84375 13.0928 9.97003 13.2188 10.125 13.2188H14.625C14.78 13.2188 14.9062 13.0928 14.9062 12.9375V12.375C14.9062 12.2198 14.78 12.0938 14.625 12.0938H10.125Z" fill="#4E4E4E"/>
<path d="M10.6875 13.7812H14.0625V14.3438H10.6875V13.7812Z" fill="#4E4E4E"/>
<path d="M7.57693 10.9687C7.52265 10.4813 7.32943 10.0361 7.03805 9.67191L5.74121 10.9687H7.57693Z" fill="#4E4E4E"/>
<path d="M3.48438 13.2258C3.9175 13.5726 4.46566 13.7812 5.06247 13.7812C6.36297 13.7812 7.43678 12.7949 7.57712 11.5312H5.17891L3.48438 13.2258Z" fill="#4E4E4E"/>
<path d="M4.66481 11.25L3.08672 9.67191C2.73994 10.105 2.53125 10.6532 2.53125 11.25C2.53125 11.8468 2.73994 12.395 3.08672 12.8281L4.66481 11.25Z" fill="#4E4E4E"/>
<path d="M6.64056 9.27422C6.20744 8.92744 5.65928 8.71875 5.06247 8.71875C4.46566 8.71875 3.9175 8.92744 3.48438 9.27422L5.06247 10.8523L6.64056 9.27422Z" fill="#4E4E4E"/>
<path d="M11.2379 8.15625C10.9831 8.15625 10.7435 8.04403 10.5803 7.84828L10.3683 7.59375H0.84375V16.875C0.84375 17.0302 0.970031 17.1562 1.125 17.1562H15.75C15.905 17.1562 16.0312 17.0302 16.0312 16.875V7.59375H12.0386C11.9183 7.92084 11.6063 8.15625 11.2379 8.15625ZM5.0625 8.15625C6.76828 8.15625 8.15625 9.54422 8.15625 11.25C8.15625 12.9558 6.76828 14.3438 5.0625 14.3438C3.35672 14.3438 1.96875 12.9558 1.96875 11.25C1.96875 9.54422 3.35672 8.15625 5.0625 8.15625ZM1.40625 14.9062H1.96875V15.4688H1.40625V14.9062ZM3.09375 16.5938H1.40625V16.0312H3.09375V16.5938ZM8.71875 16.5938H3.65625V16.0312H8.71875V16.5938ZM8.71875 15.4688H2.53125V14.9062H8.71875V15.4688ZM15.4688 9.5625V10.125C15.4688 10.5902 15.0902 10.9688 14.625 10.9688V11.5312C15.0902 11.5312 15.4688 11.9098 15.4688 12.375V12.9375C15.4688 13.4027 15.0902 13.7812 14.625 13.7812V14.3438C15.0902 14.3438 15.4688 14.7223 15.4688 15.1875V15.75C15.4688 16.2152 15.0902 16.5938 14.625 16.5938H10.125C9.65981 16.5938 9.28125 16.2152 9.28125 15.75V15.1875C9.28125 14.7223 9.65981 14.3438 10.125 14.3438V13.7812C9.65981 13.7812 9.28125 13.4027 9.28125 12.9375V12.375C9.28125 11.9098 9.65981 11.5312 10.125 11.5312V10.9688C9.65981 10.9688 9.28125 10.5902 9.28125 10.125V9.5625C9.28125 9.09731 9.65981 8.71875 10.125 8.71875H14.625C15.0902 8.71875 15.4688 9.09731 15.4688 9.5625Z" fill="#4E4E4E"/>
<path d="M12.375 2.53125H11.5312V3.09375H12.375C12.53 3.09375 12.6562 2.96747 12.6562 2.8125C12.6562 2.65753 12.53 2.53125 12.375 2.53125Z" fill="#4E4E4E"/>
<path d="M16.3125 0.84375H8.4375C7.97231 0.84375 7.59375 1.22231 7.59375 1.6875V5.0625C7.59375 5.52769 7.97231 5.90625 8.4375 5.90625H9.69412L11.0123 7.48828C11.0683 7.55522 11.1504 7.59375 11.2379 7.59375C11.3996 7.59375 11.5312 7.46213 11.5312 7.30041V5.90625H16.3125C16.7777 5.90625 17.1562 5.52769 17.1562 5.0625V1.6875C17.1562 1.22231 16.7777 0.84375 16.3125 0.84375ZM9.28125 4.21875C9.59147 4.21875 9.84375 3.96647 9.84375 3.65625H10.4062C10.4062 4.27669 9.90169 4.78125 9.28125 4.78125C8.66081 4.78125 8.15625 4.27669 8.15625 3.65625V3.09375C8.15625 2.47331 8.66081 1.96875 9.28125 1.96875C9.90169 1.96875 10.4062 2.47331 10.4062 3.09375H9.84375C9.84375 2.78353 9.59147 2.53125 9.28125 2.53125C8.97103 2.53125 8.71875 2.78353 8.71875 3.09375V3.65625C8.71875 3.96647 8.97103 4.21875 9.28125 4.21875ZM13.2188 3.9375V4.78125H12.6562V3.9375C12.6562 3.78253 12.53 3.65625 12.375 3.65625H11.5312V4.78125H10.9688V1.96875H12.375C12.8402 1.96875 13.2188 2.34731 13.2188 2.8125C13.2188 3.02934 13.1341 3.22537 12.9994 3.375C13.1341 3.52463 13.2188 3.72066 13.2188 3.9375ZM16.5938 4.78125H16.0312V3.13931L15.6715 4.21875H14.7037L14.3438 3.13931V4.78125H13.7812V1.96875H14.5465L15.109 3.65625H15.2662L15.8287 1.96875H16.5938V4.78125Z" fill="#4E4E4E"/>
<path d="M12.0938 6.46875H16.0312V7.03125H12.0938V6.46875Z" fill="#4E4E4E"/>
<path d="M9.84375 9.5625V10.125C9.84375 10.2803 9.97003 10.4062 10.125 10.4062H14.625C14.78 10.4062 14.9062 10.2803 14.9062 10.125V9.5625C14.9062 9.40725 14.78 9.28125 14.625 9.28125H10.125C9.97003 9.28125 9.84375 9.40725 9.84375 9.5625Z" fill="#4E4E4E"/>
</svg>
