<svg width="18" height="18" viewBox="0 0 18 18" fill="none" xmlns="http://www.w3.org/2000/svg">
<g clip-path="url(#clip0_586_20076)">
<path d="M5.00977 3.31445H7.34407V5.64879H5.00977V3.31445Z" fill="#FF8800"/>
<path d="M12.6719 4.51841H15.997L11.7871 0.308594V3.63367C11.7871 4.12154 12.184 4.51841 12.6719 4.51841Z" fill="#FF8800"/>
<path d="M12.6723 5.57343C11.6029 5.57343 10.7328 4.70341 10.7328 3.634V0H3.63478C2.56536 0 1.69531 0.870047 1.69531 1.93946V16.0605C1.69531 17.13 2.56536 18 3.63474 18H14.3668C15.4362 18 16.3062 17.13 16.3062 16.0605V5.57343H12.6723ZM3.95473 2.78673C3.95473 2.4955 4.19081 2.25939 4.48208 2.25939H7.87107C8.16234 2.25939 8.39841 2.4955 8.39841 2.78673V6.17576C8.39841 6.46699 8.16234 6.7031 7.87107 6.7031H4.48208C4.19081 6.7031 3.95473 6.46699 3.95473 6.17576V2.78673ZM4.48208 7.90784H11.2602C11.5514 7.90784 11.7875 8.14395 11.7875 8.43518C11.7875 8.72641 11.5514 8.96252 11.2602 8.96252H4.48208C4.19081 8.96252 3.95473 8.72641 3.95473 8.43518C3.95473 8.14391 4.19081 7.90784 4.48208 7.90784ZM13.5196 15.7406H4.48208C4.19081 15.7406 3.95473 15.5045 3.95473 15.2132C3.95473 14.922 4.19081 14.6859 4.48208 14.6859H13.5196C13.8108 14.6859 14.0469 14.922 14.0469 15.2132C14.0469 15.5045 13.8108 15.7406 13.5196 15.7406ZM13.5196 13.4813H4.48208C4.19081 13.4813 3.95473 13.2452 3.95473 12.9539C3.95473 12.6627 4.19081 12.4266 4.48208 12.4266H13.5196C13.8108 12.4266 14.0469 12.6627 14.0469 12.9539C14.0469 13.2452 13.8108 13.4813 13.5196 13.4813ZM13.5196 11.2218H4.48208C4.19081 11.2218 3.95473 10.9857 3.95473 10.6945C3.95473 10.4033 4.19081 10.1672 4.48208 10.1672H13.5196C13.8108 10.1672 14.0469 10.4033 14.0469 10.6945C14.0469 10.9857 13.8108 11.2218 13.5196 11.2218Z" fill="#FF8800"/>
</g>
<defs>
<clipPath id="clip0_586_20076">
<rect width="18" height="18" fill="white"/>
</clipPath>
</defs>
</svg>
