<svg width="32" height="32" viewBox="0 0 32 32" fill="none" xmlns="http://www.w3.org/2000/svg">
<path d="M17.334 13.334H12.0007L8.00065 16.0007L1.33398 13.334V24.0007L6.66732 25.334L9.33398 28.0007L18.6673 29.334L25.334 24.0007L17.334 13.334Z" fill="white"/>
<path d="M21.3327 5.33398H19.9993V9.33398H17.3327V6.66732H14.666V9.33398H11.9993V5.33398H10.666L15.9993 1.33398L21.3327 5.33398Z" fill="#F9C41F"/>
<path d="M19.0537 30.7337L8.70701 29.2537L5.98701 26.5337L1.01367 25.2937L1.65367 22.707L7.34701 24.1337L9.96034 26.747L18.2803 27.9337L24.507 22.9604L26.1737 25.0404L19.0537 30.7337Z" fill="#222222"/>
<path d="M8.15984 17.4933L0.839844 14.5733L1.82651 12.0933L7.83984 14.5067L11.5998 12H17.3332V14.6667H12.3998L8.15984 17.4933Z" fill="#222222"/>
<path d="M30.666 12L25.3327 14.6667L19.9993 12H14.666L10.666 20L11.3327 20.4533C11.7704 20.7442 12.2611 20.9459 12.7768 21.047C13.2924 21.1481 13.823 21.1466 14.3381 21.0426C14.8532 20.9386 15.3427 20.7341 15.7788 20.4408C16.2148 20.1475 16.5888 19.7712 16.8793 19.3333L17.3327 18.6667L23.9993 24V26.6667L30.666 25.3333V12Z" fill="#F9C41F" fill-opacity="0.2"/>
</svg>
