<svg width="20" height="20" viewBox="0 0 20 20" fill="none" xmlns="http://www.w3.org/2000/svg">
<path d="M18.1161 1.88482C15.603 -0.628301 11.514 -0.628262 9.0009 1.88486C7.2843 3.60146 6.68805 6.13119 7.43133 8.42631L0.172656 15.685C0.0627734 15.7949 0.000976562 15.9437 0.000976562 16.0993V19.4141C0.000976562 19.7379 0.263047 20 0.586914 20H3.90168C4.0573 20 4.20609 19.9382 4.31594 19.8283L5.14449 18.9992C5.27094 18.8728 5.33273 18.6954 5.31215 18.5174L5.20914 17.6271L6.44281 17.5109C6.7232 17.4846 6.94465 17.2631 6.97098 16.9827L7.08715 15.749L7.9775 15.8526C8.14285 15.8749 8.30937 15.8194 8.43469 15.7084C8.55941 15.5969 8.63094 15.4378 8.63094 15.2707V14.1797H9.70211C9.85773 14.1797 10.0065 14.1179 10.1164 14.008L11.619 12.5253C13.9135 13.2692 16.3995 12.7178 18.1161 11.0001C20.6292 8.48697 20.6292 4.39795 18.1161 1.88482ZM16.4585 6.02818C15.773 6.71369 14.6583 6.71369 13.9728 6.02818C13.2873 5.34268 13.2873 4.22803 13.9728 3.54252C14.6583 2.85701 15.773 2.85701 16.4585 3.54252C17.144 4.22803 17.1439 5.34268 16.4585 6.02818Z" fill="#222222"/>
</svg>
