<svg width="18" height="18" viewBox="0 0 18 18" fill="none" xmlns="http://www.w3.org/2000/svg">
<g clip-path="url(#clip0_586_20102)">
<path d="M16.8022 9.2332C16.7298 9.08502 16.7298 8.91508 16.8022 8.76693L17.4736 7.39356C17.8473 6.62888 17.5512 5.71746 16.7993 5.31854L15.449 4.60206C15.3033 4.52479 15.2034 4.38726 15.1749 4.22487L14.9108 2.71918C14.7638 1.88084 13.9883 1.3175 13.1457 1.43672L11.6321 1.65082C11.4688 1.67388 11.3072 1.62136 11.1887 1.50671L10.09 0.443876C9.47829 -0.147941 8.51994 -0.147976 7.90823 0.443876L6.80953 1.50682C6.69098 1.6215 6.52944 1.67392 6.36611 1.65092L4.85253 1.43682C4.00967 1.31754 3.23448 1.88095 3.08742 2.71928L2.82333 4.22491C2.79481 4.38733 2.69494 4.52483 2.54928 4.60213L1.19894 5.31861C0.447094 5.71749 0.150939 6.62898 0.524718 7.39366L1.19602 8.767C1.26844 8.91518 1.26844 9.08513 1.19602 9.23327L0.524683 10.6066C0.150904 11.3713 0.447058 12.2827 1.19891 12.6816L2.54925 13.3981C2.69494 13.4754 2.79481 13.6129 2.82333 13.7753L3.08742 15.281C3.22129 16.0442 3.87569 16.5794 4.62778 16.5793C4.70185 16.5793 4.77702 16.5741 4.85257 16.5634L6.36614 16.3493C6.52937 16.3261 6.69102 16.3788 6.80956 16.4934L7.90823 17.5563C8.21415 17.8522 8.60657 18.0001 8.99912 18.0001C9.39157 18.0001 9.78422 17.8521 10.09 17.5563L11.1887 16.4934C11.3073 16.3788 11.4688 16.3264 11.6321 16.3493L13.1457 16.5634C13.9887 16.6827 14.7638 16.1193 14.9108 15.281L15.1749 13.7753C15.2035 13.6129 15.3033 13.4754 15.449 13.3981L16.7993 12.6816C17.5512 12.2827 17.8473 11.3713 17.4736 10.6066L16.8022 9.2332ZM6.92277 4.32834C7.97224 4.32834 8.82608 5.18217 8.82608 6.23165C8.82608 7.28113 7.97224 8.13496 6.92277 8.13496C5.87329 8.13496 5.01945 7.28113 5.01945 6.23165C5.01945 5.18217 5.87329 4.32834 6.92277 4.32834ZM5.94037 12.7929C5.83901 12.8942 5.70616 12.9449 5.57334 12.9449C5.44052 12.9449 5.30763 12.8942 5.20631 12.7929C5.0036 12.5901 5.0036 12.2615 5.20631 12.0588L12.0578 5.20724C12.2605 5.00453 12.5892 5.00453 12.7919 5.20724C12.9946 5.40995 12.9946 5.73862 12.7919 5.94133L5.94037 12.7929ZM11.0754 13.6718C10.0259 13.6718 9.17209 12.818 9.17209 11.7685C9.17209 10.719 10.0259 9.8652 11.0754 9.8652C12.1249 9.8652 12.9787 10.719 12.9787 11.7685C12.9787 12.818 12.1249 13.6718 11.0754 13.6718Z" fill="#FF8800"/>
<path d="M11.0761 10.9043C10.5991 10.9043 10.2109 11.2924 10.2109 11.7694C10.2109 12.2464 10.599 12.6345 11.0761 12.6345C11.5531 12.6345 11.9412 12.2464 11.9412 11.7694C11.9412 11.2924 11.5531 10.9043 11.0761 10.9043Z" fill="#FF8800"/>
<path d="M6.92371 5.36523C6.44668 5.36523 6.05859 5.75332 6.05859 6.23035C6.05859 6.70739 6.44668 7.09551 6.92371 7.09551C7.40075 7.09551 7.78887 6.70742 7.78887 6.23035C7.78883 5.75336 7.40075 5.36523 6.92371 5.36523Z" fill="#FF8800"/>
</g>
<defs>
<clipPath id="clip0_586_20102">
<rect width="18" height="18" fill="white"/>
</clipPath>
</defs>
</svg>
