<svg width="16" height="16" viewBox="0 0 16 16" fill="none" xmlns="http://www.w3.org/2000/svg">
<path d="M16 8C16 12.4183 12.4183 16 8 16C5.67086 16 3.5742 15.0047 2.11233 13.4162C1.72833 12.9992 1.38841 12.5411 1.0991 12.0496C0.400653 10.8617 0 9.47755 0 8C0 3.58171 3.58171 0 8 0C9.47788 0 10.862 0.400653 12.0496 1.09943C12.5411 1.38841 12.9989 1.72833 13.4158 2.11265C15.0044 3.57388 16 5.67086 16 8Z" fill="#F0CD00"/>
<path d="M16 7.99933C16 12.318 12.5783 15.8374 8.29778 15.9938C4.01729 15.8374 0.595581 12.318 0.595581 7.99933C0.595581 3.68064 4.01729 0.161291 8.29778 0.00488281C12.5783 0.161291 16 3.68064 16 7.99933Z" fill="#FFDE50"/>
<path d="M13.4159 2.11186L2.11235 13.4154C1.72835 12.9984 1.38843 12.5403 1.09912 12.0488L12.0497 1.09863C12.5411 1.38761 12.9989 1.72753 13.4159 2.11186Z" fill="#FFEA94"/>
<path d="M15.4481 5.0756L5.07491 15.4488C4.34054 15.1602 3.65907 14.7661 3.04944 14.2851L14.2847 3.0498C14.7657 3.65944 15.1598 4.34091 15.4481 5.0756Z" fill="#FFEA94"/>
<path d="M14.2165 8.00067C14.2165 11.4338 11.4332 14.2172 8.00006 14.2172C6.8043 14.2172 5.68757 13.8795 4.73965 13.2944C4.32659 13.0397 3.94585 12.7376 3.6043 12.3961C3.3532 12.1453 3.12332 11.8727 2.91794 11.5817C2.63516 11.1811 2.39843 10.7455 2.2159 10.2828C1.94553 9.59871 1.79337 8.85487 1.78422 8.07708C1.78357 8.05161 1.78357 8.02614 1.78357 8.00067C1.78357 4.56753 4.56659 1.78418 8.00006 1.78418C8.02553 1.78418 8.05132 1.78418 8.07679 1.78483C8.85459 1.79398 9.5981 1.94647 10.2822 2.21651C10.7449 2.39936 11.1805 2.63577 11.5811 2.91855C11.8721 3.12426 12.1444 3.35381 12.3955 3.60491C12.737 3.94614 13.0391 4.3272 13.2938 4.74026C13.8789 5.68818 14.2165 6.80491 14.2165 8.00067Z" fill="#FAA300"/>
<path d="M12.3955 3.60491L3.6043 12.3961C3.3532 12.1453 3.12332 11.8727 2.91794 11.5817C2.63516 11.1811 2.39843 10.7455 2.2159 10.2828C1.94553 9.59871 1.79337 8.85487 1.78422 8.07708C1.78357 8.05161 1.78357 8.02614 1.78357 8.00067C1.78357 4.56753 4.56659 1.78418 8.00006 1.78418C8.02553 1.78418 8.05132 1.78418 8.07679 1.78483C8.85459 1.79398 9.5981 1.94647 10.2822 2.21651C10.7449 2.39936 11.1805 2.63577 11.5811 2.91855C11.8721 3.12426 12.1444 3.35381 12.3955 3.60491Z" fill="#FFBD00"/>
<path d="M14.2163 8.00067C14.2163 11.4338 11.433 14.2172 7.99982 14.2172C7.88195 14.2172 7.76505 14.2139 7.6488 14.2074C10.9187 14.0255 13.5139 11.3159 13.5139 8.00067C13.5139 4.6854 10.9187 1.97585 7.6488 1.79398C7.76505 1.78744 7.88195 1.78418 7.99982 1.78418C11.433 1.78418 14.2163 4.56753 14.2163 8.00067Z" fill="#F68E00"/>
<path d="M7.79514 7.5216V5.00402C8.1875 5.22047 8.45395 5.63824 8.45395 6.11716C8.45395 6.45499 8.72781 6.72885 9.06564 6.72885C9.40347 6.72885 9.67733 6.45499 9.67733 6.11716C9.67733 4.95304 8.87547 3.97286 7.79514 3.69943V3.20153C7.79514 2.86371 7.52128 2.58984 7.18345 2.58984C6.84562 2.58984 6.57176 2.86371 6.57176 3.20153V3.69939C5.49144 3.97286 4.68958 4.95301 4.68958 6.11713C4.68958 6.81221 4.89372 7.35425 5.31367 7.7742C5.61986 8.08039 6.02659 8.30697 6.57176 8.47308V10.9946C6.1794 10.7782 5.91295 10.3604 5.91295 9.8815C5.91295 9.54367 5.63909 9.26981 5.30127 9.26981C4.96344 9.26981 4.68958 9.54367 4.68958 9.8815C4.68958 11.0456 5.49144 12.0258 6.57176 12.2992V12.7971C6.57176 13.1349 6.84562 13.4088 7.18345 13.4088C7.52128 13.4088 7.79514 13.1349 7.79514 12.7971V12.2992C8.87547 12.0258 9.67733 11.0456 9.67733 9.8815C9.67733 9.19605 9.46443 8.63562 9.04458 8.21577C8.73944 7.91059 8.32765 7.68183 7.79514 7.5216ZM6.17875 6.90916C6.055 6.78544 5.91299 6.58357 5.91299 6.11713C5.91299 5.6382 6.17944 5.22047 6.5718 5.00398V7.1694C6.4068 7.09299 6.27619 7.00663 6.17875 6.90916ZM7.79514 10.9946V8.8225C8.32677 9.07007 8.45395 9.42426 8.45395 9.8815C8.45395 10.3604 8.1875 10.7782 7.79514 10.9946Z" fill="#F68E00"/>
<path d="M8.61156 7.5216V5.00402C9.00392 5.22047 9.27036 5.63824 9.27036 6.11716C9.27036 6.45499 9.54423 6.72885 9.88206 6.72885C10.2199 6.72885 10.4937 6.45499 10.4937 6.11716C10.4937 4.95304 9.69188 3.97286 8.61156 3.69943V3.20153C8.61156 2.86371 8.33769 2.58984 7.99986 2.58984C7.66203 2.58984 7.38817 2.86371 7.38817 3.20153V3.69939C6.30784 3.97286 5.50598 4.95301 5.50598 6.11713C5.50598 6.81221 5.71013 7.35425 6.13008 7.7742C6.43627 8.08039 6.843 8.30697 7.38817 8.47308V10.9946C6.99581 10.7782 6.72936 10.3604 6.72936 9.8815C6.72936 9.54367 6.4555 9.26981 6.11767 9.26981C5.77984 9.26981 5.50598 9.54367 5.50598 9.8815C5.50598 11.0456 6.30784 12.0258 7.38817 12.2992V12.7971C7.38817 13.1349 7.66203 13.4088 7.99986 13.4088C8.33769 13.4088 8.61156 13.1349 8.61156 12.7971V12.2992C9.69188 12.0258 10.4937 11.0456 10.4937 9.8815C10.4937 9.19605 10.2808 8.63562 9.86099 8.21577C9.55585 7.91059 9.14403 7.68183 8.61156 7.5216ZM6.99513 6.90916C6.87137 6.78544 6.72936 6.58357 6.72936 6.11713C6.72936 5.6382 6.99581 5.22047 7.38817 5.00398V7.1694C7.22321 7.09299 7.0926 7.00663 6.99513 6.90916ZM8.61156 10.9946V8.8225C9.14318 9.07007 9.27036 9.42426 9.27036 9.8815C9.27033 10.3604 9.00392 10.7782 8.61156 10.9946Z" fill="#FFEA94"/>
</svg>
