<svg width="20" height="20" viewBox="0 0 20 20" fill="none" xmlns="http://www.w3.org/2000/svg">
<path d="M14.375 9.6875C14.375 8.99 13.9888 8.3875 13.4238 8.065C13.9638 7.9275 14.375 7.4575 14.375 6.875C14.375 6.67626 14.325 6.49 14.2388 6.32876C13.9224 5.23 13.2112 4.315 12.265 3.75H7.735C6.7875 4.315 6.0775 5.23 5.76 6.32876C5.675 6.49126 5.625 6.6775 5.625 6.875C5.625 7.45624 6.03626 7.92626 6.57626 8.06376C6.01126 8.3875 5.625 8.99 5.625 9.6875C5.625 10.3862 6.01126 10.9875 6.5775 11.3112C6.035 11.4474 5.625 11.9162 5.625 12.5V18.75C5.625 19.44 6.185 20 6.875 20H13.125C13.815 20 14.375 19.44 14.375 18.75V12.5C14.375 11.915 13.965 11.4462 13.4224 11.31C13.9888 10.9875 14.375 10.3862 14.375 9.6875Z" fill="#4E4E4E"/>
<path d="M11.875 0H8.125C7.78 0 7.5 0.28 7.5 0.625V1.875C7.5 2.22 7.78 2.5 8.125 2.5H11.875C12.22 2.5 12.5 2.22 12.5 1.875V0.625C12.5 0.28 12.22 0 11.875 0Z" fill="#4E4E4E"/>
</svg>
