<svg width="20" height="20" viewBox="0 0 20 20" fill="none" xmlns="http://www.w3.org/2000/svg">
<path d="M10.0011 0.000976562V2.26534C14.2661 2.26534 17.7362 5.73605 17.7362 10.0015C17.7362 14.267 14.2661 17.7377 10.0011 17.7377C6.12001 17.7377 2.89725 14.8648 2.34701 11.1337H5.31333C5.82395 13.2498 7.72941 14.8275 10 14.8275H11.1322V13.072H14.3419V10.8077H11.1322V9.19203H14.3419V6.92767H11.1322V5.17278H10C7.72884 5.17278 5.82395 6.75048 5.31333 8.86653H0V9.99871C0 15.5124 4.48627 19.9993 10.0006 19.9993C15.5143 19.9993 20 15.5124 20 9.99871C20 4.48612 15.5149 0.000976562 10.0011 0.000976562Z" fill="#222222"/>
</svg>
