<svg width="18" height="18" viewBox="0 0 18 18" fill="none" xmlns="http://www.w3.org/2000/svg">
<path d="M0 3.75C0 2.92157 0.671573 2.25 1.5 2.25H16.5C17.3284 2.25 18 2.92157 18 3.75V14.25C18 15.0784 17.3284 15.75 16.5 15.75H1.5C0.671573 15.75 0 15.0784 0 14.25V3.75Z" fill="white"/>
<path fill-rule="evenodd" clip-rule="evenodd" d="M16.5 3.75H1.5L1.5 14.25H16.5V3.75ZM1.5 2.25C0.671573 2.25 0 2.92157 0 3.75V14.25C0 15.0784 0.671573 15.75 1.5 15.75H16.5C17.3284 15.75 18 15.0784 18 14.25V3.75C18 2.92157 17.3284 2.25 16.5 2.25H1.5Z" fill="#7A7A7A"/>
<rect x="3" y="12.75" width="12" height="0.75" fill="#F9C41F"/>
<path d="M8.49553 10.0414L2.18548 4.30496C1.67823 3.84382 2.00446 3 2.68999 3H15.3101C15.9956 3 16.3218 3.84382 15.8146 4.30496L9.50454 10.0414C9.21847 10.3014 8.78159 10.3014 8.49553 10.0414Z" fill="#F9C41F" fill-opacity="0.2"/>
<path fill-rule="evenodd" clip-rule="evenodd" d="M1.68102 4.85991C0.666528 3.93764 1.31898 2.25 2.69003 2.25H15.3101C16.6812 2.25 17.3336 3.93765 16.3191 4.85991L10.0091 10.5963C9.43695 11.1164 8.5632 11.1164 7.99106 10.5963L1.68102 4.85991ZM15.3101 3.75H2.69003L9.00007 9.48641L15.3101 3.75Z" fill="#7A7A7A"/>
</svg>
