<svg width="18" height="18" viewBox="0 0 18 18" fill="none" xmlns="http://www.w3.org/2000/svg">
<path d="M1.6875 14.625H16.3125V16.0312H1.6875V14.625Z" fill="#4E4E4E"/>
<path d="M3.375 12.375C3.375 12.2258 3.31574 12.0827 3.21025 11.9773C3.10476 11.8718 2.96168 11.8125 2.8125 11.8125H2.25C2.10082 11.8125 1.95774 11.8718 1.85225 11.9773C1.74676 12.0827 1.6875 12.2258 1.6875 12.375V12.6211H3.375V12.375Z" fill="#4E4E4E"/>
<path d="M0.84375 13.2188H17.1562V14.0625H0.84375V13.2188Z" fill="#4E4E4E"/>
<path d="M14.9062 12.6562H15.75C15.8992 12.6562 16.0423 12.597 16.1477 12.4915C16.2532 12.386 16.3125 12.2429 16.3125 12.0938V10.6875H14.3438V12.0938C14.3438 12.2429 14.403 12.386 14.5085 12.4915C14.614 12.597 14.7571 12.6562 14.9062 12.6562Z" fill="#4E4E4E"/>
<path d="M14.4453 10.125H15.0078C15.0078 10.0566 15.0245 10.0333 15.1094 9.94475C15.2123 9.83756 15.3678 9.67563 15.3678 9.37498C15.3678 9.07432 15.2124 8.91239 15.1094 8.8052C15.0245 8.71664 15.0078 8.69333 15.0078 8.62492C15.0078 8.5565 15.0245 8.53327 15.1094 8.44478C15.2123 8.33759 15.3678 8.17566 15.3678 7.875H14.8053C14.8053 7.94338 14.7886 7.96665 14.7037 8.05521C14.6008 8.16237 14.4453 8.3243 14.4453 8.62474C14.4453 8.92519 14.6008 9.08736 14.7037 9.19455C14.7886 9.28311 14.8053 9.30642 14.8053 9.3748C14.8053 9.44318 14.7886 9.46649 14.7037 9.55505C14.6007 9.66241 14.4453 9.82434 14.4453 10.125Z" fill="#4E4E4E"/>
<path d="M15.5703 10.125H16.1328C16.1328 10.0566 16.1495 10.0333 16.2344 9.94475C16.3373 9.83756 16.4928 9.67563 16.4928 9.37498C16.4928 9.07432 16.3374 8.91239 16.2344 8.8052C16.1495 8.71664 16.1328 8.69333 16.1328 8.62492C16.1328 8.5565 16.1495 8.53327 16.2344 8.44478C16.3373 8.33759 16.4928 8.17566 16.4928 7.875H15.9303C15.9303 7.94338 15.9136 7.96665 15.8287 8.05521C15.7258 8.16237 15.5703 8.3243 15.5703 8.62474C15.5703 8.92519 15.7258 9.08736 15.8287 9.19455C15.9136 9.28311 15.9303 9.30642 15.9303 9.3748C15.9303 9.44318 15.9136 9.46649 15.8287 9.55505C15.7257 9.66241 15.5703 9.82434 15.5703 10.125Z" fill="#4E4E4E"/>
<path d="M9 5.34375C9.93198 5.34375 10.6875 4.58823 10.6875 3.65625C10.6875 2.72427 9.93198 1.96875 9 1.96875C8.06802 1.96875 7.3125 2.72427 7.3125 3.65625C7.3125 4.58823 8.06802 5.34375 9 5.34375Z" fill="#4E4E4E"/>
<path d="M12.9375 12.6562L13.5 7.03125H4.5L5.0625 12.6562H12.9375ZM9 9C9.16688 9 9.33001 9.04949 9.46876 9.1422C9.60752 9.23491 9.71566 9.36669 9.77952 9.52086C9.84338 9.67504 9.86009 9.84469 9.82754 10.0084C9.79498 10.172 9.71462 10.3224 9.59662 10.4404C9.47862 10.5584 9.32828 10.6387 9.16461 10.6713C9.00094 10.7038 8.83129 10.6871 8.67711 10.6233C8.52294 10.5594 8.39116 10.4513 8.29845 10.3125C8.20573 10.1738 8.15625 10.0106 8.15625 9.84375C8.15625 9.61997 8.24514 9.40536 8.40338 9.24713C8.56161 9.0889 8.77622 9 9 9Z" fill="#4E4E4E"/>
<path d="M10.9688 5.34375H7.03125C6.73288 5.34375 6.44673 5.46228 6.23576 5.67326C6.02478 5.88423 5.90625 6.17038 5.90625 6.46875H12.0938C12.0938 6.17038 11.9752 5.88423 11.7642 5.67326C11.5533 5.46228 11.2671 5.34375 10.9688 5.34375Z" fill="#4E4E4E"/>
</svg>
