<svg width="20" height="20" viewBox="0 0 20 20" fill="none" xmlns="http://www.w3.org/2000/svg">
<path d="M13.0617 9.02798H12.2068L12.9137 6.78964H14.6522C14.9449 6.78964 15.1823 6.5391 15.1823 6.23006C15.1823 5.92102 14.9449 5.67047 14.6522 5.67047C14.1791 5.67047 10.8992 5.67047 10.411 5.67047C10.1183 5.67047 9.88093 5.92102 9.88093 6.23006C9.88093 6.5391 10.1183 6.78964 10.411 6.78964H11.7961L11.0892 9.02798H8.82067C7.6514 9.02798 6.70013 10.0321 6.70013 11.2663H6.6093C6.07457 11.2663 5.63987 10.8074 5.63987 10.243C5.63987 9.97 5.74059 9.71295 5.92366 9.51968C6.2095 9.21794 6.42167 8.85944 6.55145 8.4684H7.23027C8.10721 8.4684 8.82067 7.7153 8.82067 6.78964V2.79793C8.82067 1.25515 7.63157 0 6.17 0C5.87722 0 5.63987 0.250545 5.63987 0.559586V7.54135C5.63987 7.98976 5.47446 8.41132 5.17405 8.72842C4.79059 9.13281 4.57959 9.67076 4.57959 10.243C4.57959 11.4245 5.49001 12.3855 6.6093 12.3855H6.70013V12.4137C6.70013 12.8226 7.10166 13.0918 7.45158 12.9222C8.12392 12.5962 9.49369 12.3855 10.9412 12.3855C12.3887 12.3855 13.7585 12.5962 14.4308 12.9222C14.7811 13.0921 15.1823 12.8215 15.1823 12.4137V11.2663C15.1823 10.0321 14.231 9.02798 13.0617 9.02798Z" fill="#4E4E4E"/>
<path d="M14.7979 16.8839L11.4714 15.8808V14.6241H12.0016C12.2941 14.6241 12.5317 14.3734 12.5317 14.0645V13.5982C12.0722 13.5411 11.5339 13.5049 10.9413 13.5049C10.3486 13.5049 9.81031 13.5411 9.35086 13.5982V14.0645C9.35086 14.3734 9.58836 14.6241 9.881 14.6241H10.4111V15.8808L7.08468 16.884C6.85707 16.9526 6.7002 17.1722 6.7002 17.422V18.5412C6.7002 18.8502 6.93755 19.1008 7.23033 19.1008C7.5231 19.1008 7.76046 18.8502 7.76046 18.5412V17.8441L10.4111 17.0447V18.5412C10.4111 18.8502 10.6485 19.1008 10.9413 19.1008C11.234 19.1008 11.4714 18.8502 11.4714 18.5412V17.0447L14.122 17.8441V18.5412C14.122 18.8502 14.3595 19.1008 14.6522 19.1008C14.945 19.1008 15.1823 18.8502 15.1823 18.5412V17.422C15.1823 17.1722 15.0255 16.9526 14.7979 16.8839Z" fill="#4E4E4E"/>
</svg>
