<svg width="20" height="20" viewBox="0 0 20 20" fill="none" xmlns="http://www.w3.org/2000/svg">
<path d="M4.67342 3.80664H6.15991C6.22834 3.80664 6.28378 3.75116 6.28378 3.68278V0.7098C6.28378 0.641372 6.22834 0.585938 6.15991 0.585938H4.67342C4.605 0.585938 4.54956 0.641419 4.54956 0.7098V3.68278C4.54956 3.75121 4.605 3.80664 4.67342 3.80664Z" fill="#4E4E4E"/>
<path d="M18.027 2.81543H16.1936V3.60821C16.1936 4.07895 15.8468 4.54964 15.3761 4.54964H13.9144C13.41 4.51389 13.0087 4.11262 12.9729 3.60821V2.81543H7.02698V3.60821C6.99123 4.11262 6.58996 4.51389 6.08554 4.54964H4.62381C4.15306 4.54964 3.80623 4.0789 3.80623 3.60821V2.81543H1.97291C1.33951 2.82894 0.83311 3.34635 0.833252 3.97989V7.02717H19.1666V3.97989C19.1668 3.34635 18.6604 2.82894 18.027 2.81543Z" fill="#4E4E4E"/>
<path d="M13.8399 3.80664H15.3264C15.3948 3.80664 15.4503 3.75116 15.4503 3.68278V0.7098C15.4503 0.641372 15.3948 0.585938 15.3264 0.585938H13.8399C13.7715 0.585938 13.7161 0.641419 13.7161 0.7098V3.68278C13.7161 3.75121 13.7715 3.80664 13.8399 3.80664Z" fill="#4E4E4E"/>
<path d="M8.14181 14.41L7.79497 16.4168L9.57874 15.4753L9.75216 15.4258L9.92557 15.4753L11.7093 16.4168L11.3625 14.41C11.3493 14.2935 11.3852 14.1768 11.4616 14.0879L12.9234 12.7006L10.9166 12.4033C10.7993 12.3845 10.6981 12.3109 10.6441 12.2051L9.75221 10.3965L8.86032 12.2051C8.80636 12.3109 8.70511 12.3845 8.58779 12.4033L6.58105 12.7006L8.04279 14.0879C8.11914 14.1768 8.15504 14.2935 8.14181 14.41Z" fill="#4E4E4E"/>
<path d="M0.833252 18.2998C0.846719 18.9195 1.35303 19.4148 1.97291 19.4147H18.027C18.6468 19.4148 19.1531 18.9195 19.1666 18.2998V7.77051H0.833252V18.2998ZM5.44138 12.3291C5.48093 12.1937 5.59844 12.0958 5.73866 12.0814L8.29045 11.685L9.43011 9.38091C9.53249 9.20303 9.75973 9.14186 9.9376 9.24424C9.99441 9.27696 10.0416 9.3241 10.0743 9.38091L11.2139 11.685L13.7657 12.0814C13.9059 12.0958 14.0235 12.1938 14.063 12.3291C14.108 12.4616 14.0689 12.6082 13.9639 12.7007L12.1306 14.4845L12.5765 17.0363C12.5937 17.1703 12.5368 17.3032 12.4278 17.3831C12.3627 17.4299 12.285 17.4558 12.2049 17.4574C12.1429 17.4633 12.081 17.4456 12.0315 17.4079L9.75219 16.2187L7.47293 17.4079C7.34868 17.4836 7.19039 17.4737 7.07654 17.3831C6.96761 17.3031 6.91071 17.1703 6.92787 17.0363L7.37382 14.4845L5.54049 12.7007C5.4355 12.6082 5.39643 12.4616 5.44138 12.3291Z" fill="#4E4E4E"/>
</svg>
