<svg width="16" height="20" viewBox="0 0 16 20" fill="none" xmlns="http://www.w3.org/2000/svg">
<path d="M7.51309 17.3959C7.62173 17.5584 7.80423 17.6562 8 17.6562C8.1958 17.6562 8.3783 17.5584 8.4869 17.3959C9.4214 15.9975 10.2093 14.7961 10.8731 13.8177C13.9 9.35287 14.4453 8.54828 14.4453 6.48438C14.4453 2.93045 11.5539 0 8 0C4.44608 0 1.55469 2.93045 1.55469 6.48438C1.55469 8.54492 2.03244 9.28955 5.14188 13.878C5.80212 14.8524 6.5849 16.0077 7.51309 17.3959ZM4.07986 5.41092C4.13754 5.22095 4.28754 5.07339 4.47812 5.01785L6.38867 4.46564L7.43802 2.7771C7.54285 2.6088 7.72595 2.50473 7.92447 2.50076C8.123 2.49329 8.309 2.59338 8.4211 2.75818L9.5364 4.40445L11.4669 4.88113C11.6598 4.92859 11.8155 5.0705 11.8802 5.25818C11.9453 5.44525 11.911 5.65292 11.7892 5.80978L10.5681 7.3793L10.7106 9.36264C10.7248 9.56055 10.6378 9.7522 10.4799 9.87244C10.3219 9.99207 10.1136 10.0235 9.9272 9.9559L8.0572 9.27963L6.21533 10.0287C6.02521 10.1047 5.81815 10.0772 5.65915 9.96628C5.49664 9.85306 5.40219 9.66476 5.40906 9.46625L5.47437 7.47894L4.19263 5.95856C4.06491 5.80688 4.02203 5.60089 4.07986 5.41092Z" fill="#222222"/>
<path d="M6.65243 7.2926L6.6094 8.60287L7.82431 8.10849C7.95996 8.05478 8.1092 8.05188 8.2442 8.10055L9.4768 8.54626L9.383 7.23874C9.3722 7.09393 9.4156 6.95095 9.5049 6.83651L10.31 5.80197L9.0374 5.48779C8.8965 5.45346 8.7736 5.3677 8.6924 5.24746L7.95706 4.16211L7.26523 5.27554C7.18863 5.39853 7.069 5.4884 6.92999 5.52899L5.66992 5.89291L6.51511 6.89541C6.60834 7.0065 6.65762 7.14779 6.65243 7.2926Z" fill="#222222"/>
<path d="M11.1731 15.5029C10.6653 16.2536 10.0988 17.0932 9.4619 18.0473C9.1353 18.5365 8.5888 18.8284 8 18.8284C7.41116 18.8284 6.86475 18.5365 6.53806 18.0473C5.90176 17.0939 5.33429 16.2532 4.82663 15.503C2.823 15.7475 0.382812 16.318 0.382812 17.6565C0.382812 19.5065 5.17102 20.0003 8 20.0003C10.829 20.0003 15.6172 19.5065 15.6172 17.6565C15.6172 16.3177 13.1768 15.7475 11.1731 15.5029Z" fill="#222222"/>
</svg>
