<svg width="24" height="24" viewBox="0 0 24 24" fill="none" xmlns="http://www.w3.org/2000/svg">
<path d="M21.9963 0.737793H1.97919C1.29378 0.738205 0.738144 1.29411 0.738281 1.9798V21.9969C0.738693 22.6823 1.2946 23.2379 1.98029 23.2378H12.7573V14.5366H9.83496V11.1309H12.7573V8.62447C12.7573 5.7179 14.5318 4.13586 17.1245 4.13586C18.3664 4.13586 19.4336 4.22842 19.7446 4.26976V7.30762H17.9567C16.5461 7.30762 16.2729 7.97792 16.2729 8.96175V11.1309H19.6458L19.2063 14.5366H16.2729V23.2378H21.9963C22.6821 23.2379 23.2381 22.6822 23.2383 21.9963C23.2383 21.9962 23.2383 21.9961 23.2383 21.9958V1.9787C23.238 1.29329 22.682 0.737656 21.9963 0.737793Z" fill="#222222"/>
</svg>
