<svg width="20" height="20" viewBox="0 0 20 20" fill="none" xmlns="http://www.w3.org/2000/svg">
<path d="M10 0L0 3.79325V19.9754H1.42857V5.02616C1.42857 4.87758 1.52047 4.7447 1.65928 4.69221L9.87357 1.5761C9.95501 1.54506 10.045 1.54506 10.1264 1.5761L18.3407 4.69221C18.4795 4.7447 18.5714 4.87758 18.5714 5.02616V19.9754H20V3.79325L10 0Z" fill="#222222"/>
<path d="M2.14258 5.27277V8.18991H17.8569V5.27277L9.99972 2.29199L2.14258 5.27277ZM11.4283 6.40419H8.92829V5.68991H11.4283V6.40419ZM11.4283 4.97562H8.92829V4.26134H11.4283V4.97562Z" fill="#222222"/>
<path d="M2.14258 19.9757H17.8569V8.9043H2.14258V19.9757ZM7.85686 14.9757C7.85686 14.7785 8.01678 14.6186 8.21401 14.6186H12.4997C12.697 14.6186 12.8569 14.7785 12.8569 14.9757V19.2614C12.8569 19.4587 12.697 19.6186 12.4997 19.6186H8.21401C8.01678 19.6186 7.85686 19.4587 7.85686 19.2614V14.9757ZM2.49972 9.61858C2.49972 9.42135 2.65963 9.26144 2.85686 9.26144H7.14258C7.33981 9.26144 7.49972 9.42135 7.49972 9.61858V13.9043C7.49972 14.1015 7.33981 14.2614 7.14258 14.2614H2.85686C2.65963 14.2614 2.49972 14.1015 2.49972 13.9043V9.61858ZM2.49972 14.9757C2.49972 14.7785 2.65963 14.6186 2.85686 14.6186H7.14258C7.33981 14.6186 7.49972 14.7785 7.49972 14.9757V19.2614C7.49972 19.4587 7.33981 19.6186 7.14258 19.6186H2.85686C2.65963 19.6186 2.49972 19.4587 2.49972 19.2614V14.9757Z" fill="#222222"/>
<path d="M6.7853 15.333H6.07101V16.4044C6.07101 16.6017 5.9111 16.7616 5.71387 16.7616H4.2853C4.08807 16.7616 3.92815 16.6017 3.92815 16.4044V15.333H3.21387V18.9044H6.7853V15.333ZM6.07101 18.5473H3.92815V17.833H6.07101V18.5473Z" fill="#222222"/>
<path d="M4.64258 15.333H5.35686V16.0473H4.64258V15.333Z" fill="#222222"/>
<path d="M6.7853 9.97559H6.07101V11.047C6.07101 11.2442 5.9111 11.4042 5.71387 11.4042H4.2853C4.08807 11.4042 3.92815 11.2442 3.92815 11.047V9.97559H3.21387V13.547H6.7853V9.97559ZM6.07101 13.1899H3.92815V12.4756H6.07101V13.1899Z" fill="#222222"/>
<path d="M4.64258 9.97559H5.35686V10.6899H4.64258V9.97559Z" fill="#222222"/>
<path d="M12.1427 15.333H11.4284V16.4044C11.4284 16.6017 11.2685 16.7616 11.0713 16.7616H9.64272C9.44549 16.7616 9.28557 16.6017 9.28557 16.4044V15.333H8.57129V18.9044H12.1427V15.333ZM11.4284 18.5473H9.28557V17.833H11.4284V18.5473Z" fill="#222222"/>
<path d="M10 15.333H10.7143V16.0473H10V15.333Z" fill="#222222"/>
</svg>
