<svg width="18" height="16" viewBox="0 0 18 16" fill="none" xmlns="http://www.w3.org/2000/svg">
<path fill-rule="evenodd" clip-rule="evenodd" d="M12.9169 0.5C11.4985 0.5 9.86019 1.54561 9.24737 3.43121C9.16533 3.6817 8.83343 3.6817 8.75139 3.43121C8.13981 1.54561 6.50146 0.5 5.08314 0.5C2.53612 0.5 0.5 2.54885 0.5 5.50249C0.5 8.92099 3.77793 12.2984 8.24174 15.1797C8.48786 15.3405 8.79241 15.5 9 15.5C9.20759 15.5 9.51089 15.3405 9.75826 15.1797C14.2221 12.2984 17.5 8.92099 17.5 5.50249C17.5 2.54885 15.4639 0.5 12.9169 0.5Z" fill="black" fill-opacity="0.6" stroke="#FEFFFF" stroke-linecap="round" stroke-linejoin="round"/>
<svg width="20" height="20" viewBox="0 0 20 20" fill="none" xmlns="http://www.w3.org/2000/svg">
<path fill-rule="evenodd" clip-rule="evenodd" d="M13.9169 2.5C12.4985 2.5 10.8602 3.54561 10.2474 5.43121C10.1653 5.6817 9.83343 5.6817 9.75139 5.43121C9.13981 3.54561 7.50146 2.5 6.08314 2.5C3.53612 2.5 1.5 4.54885 1.5 7.50249C1.5 10.921 4.77793 14.2984 9.24174 17.1797C9.48786 17.3405 9.79241 17.5 10 17.5C10.2076 17.5 10.5109 17.3405 10.7583 17.1797C15.2221 14.2984 18.5 10.921 18.5 7.50249C18.5 4.54885 16.4639 2.5 13.9169 2.5Z" fill="black" fill-opacity="0.6" stroke="#FEFFFF" stroke-linecap="round" stroke-linejoin="round"/>
</svg>
