<svg width="20" height="20" viewBox="0 0 20 20" fill="none" xmlns="http://www.w3.org/2000/svg">
<path d="M18.9334 9.01906C19.6701 6.7435 18.38 4.8776 16.4093 4.8776C16.3589 4.8776 16.3086 4.8776 16.2613 4.88057C16.2909 4.50082 16.3086 4.11509 16.3176 3.72635C16.3264 3.41239 16.0719 3.1582 15.7583 3.1582H6.98168V5.59822H7.51728C8.00848 5.59822 8.405 5.99891 8.405 6.49529V7.98442C8.405 8.47782 8.00848 8.88148 7.51728 8.88148H5.8513C5.36308 8.88148 4.9636 8.47782 4.9636 7.98442V6.49529C4.9636 5.99891 5.36308 5.59822 5.8513 5.59822H6.38985V3.1582H3.4042C3.09348 3.1582 2.83605 3.41239 2.8449 3.72635C2.95145 8.39707 4.37473 12.4159 6.42537 14.4852H0.857422C0.857422 15.6586 1.77025 16.6095 2.89677 16.6095H16.266C17.4075 16.6095 18.3054 15.6519 18.3054 14.4852H12.7371C13.2076 14.0126 13.6425 13.4356 14.0391 12.7718C17.4538 11.4022 18.3149 10.9387 18.9334 9.01906ZM16.1725 5.86437C16.2377 5.85842 16.2998 5.85541 16.3648 5.85541C17.6876 5.85541 18.5782 7.07838 18.0397 8.78282C17.6136 10.1045 17.149 10.5022 14.6901 11.5188C15.4121 9.92807 15.9328 7.99637 16.1725 5.86437Z" fill="#4E4E4E"/>
</svg>
