<svg width="20" height="20" viewBox="0 0 20 20" fill="none" xmlns="http://www.w3.org/2000/svg">
<path d="M10.0192 19.9996C9.85978 19.9996 9.73047 19.8702 9.73047 19.7108V14.321C9.73047 14.1616 9.85974 14.0322 10.0192 14.0322C10.1787 14.0322 10.308 14.1616 10.308 14.321V19.7108C10.3079 19.8702 10.1787 19.9996 10.0192 19.9996Z" fill="#4E4E4E"/>
<path d="M5.0145 20.0002C4.80665 20.0002 4.66564 19.7775 4.75278 19.5898L9.75746 8.81027L10.28 8.80762L15.4193 19.5871C15.488 19.7311 15.4269 19.9034 15.2829 19.9721C15.1391 20.0407 14.9667 19.9797 14.898 19.8357L10.0229 9.61007L5.27657 19.833C5.2277 19.9383 5.12341 20.0002 5.0145 20.0002Z" fill="#4E4E4E"/>
<path d="M18.7388 15.553H1.29906C1.08645 15.553 0.914062 15.3806 0.914062 15.1679V2.30957H19.1239V15.1679C19.1239 15.3806 18.9515 15.553 18.7388 15.553Z" fill="#4E4E4E"/>
<path d="M17.5843 2.30957V15.1679C17.5843 15.3806 17.4119 15.553 17.1992 15.553H18.7392C18.9518 15.553 19.1242 15.3806 19.1242 15.1679V2.30957H17.5843Z" fill="#4E4E4E"/>
<path d="M15.5557 1.60925H4.44531V0.385C4.44531 0.172383 4.61766 0 4.83031 0H15.1708C15.3833 0 15.5557 0.172344 15.5557 0.385V1.60925Z" fill="#4E4E4E"/>
<path d="M15.1713 0H13.6313C13.844 0 14.0164 0.172344 14.0164 0.385V1.60929H15.5563V0.385C15.5563 0.172344 15.3839 0 15.1713 0Z" fill="#4E4E4E"/>
<path d="M19.4708 2.69512H0.529531C0.316915 2.69512 0.144531 2.52278 0.144531 2.31012V1.73266C0.144531 1.52004 0.316875 1.34766 0.529531 1.34766H19.4708C19.6833 1.34766 19.8557 1.52004 19.8557 1.73266V2.31012C19.8557 2.52278 19.6833 2.69512 19.4708 2.69512Z" fill="#4E4E4E"/>
<path d="M19.4709 1.34766H17.9309C18.1436 1.34766 18.316 1.52 18.316 1.73266V2.31012C18.316 2.52274 18.1436 2.69512 17.9309 2.69512H19.4709C19.6836 2.69512 19.8558 2.52278 19.8558 2.31012V1.73262C19.8558 1.52 19.6836 1.34766 19.4709 1.34766Z" fill="#4E4E4E"/>
</svg>
