<svg width="24" height="22" viewBox="0 0 24 22" fill="none" xmlns="http://www.w3.org/2000/svg">
<path d="M0.394531 7.22266C0.394531 12.2148 4.57812 17.125 11.1875 21.3438C11.4336 21.4961 11.7852 21.6602 12.0312 21.6602C12.2773 21.6602 12.6289 21.4961 12.8867 21.3438C19.4844 17.125 23.668 12.2148 23.668 7.22266C23.668 3.07422 20.8203 0.144531 17.0234 0.144531C14.8555 0.144531 13.0977 1.17578 12.0312 2.75781C10.9883 1.1875 9.20703 0.144531 7.03906 0.144531C3.24219 0.144531 0.394531 3.07422 0.394531 7.22266ZM2.28125 7.22266C2.28125 4.10547 4.29688 2.03125 7.01562 2.03125C9.21875 2.03125 10.4844 3.40234 11.2344 4.57422C11.5508 5.04297 11.75 5.17188 12.0312 5.17188C12.3125 5.17188 12.4883 5.03125 12.8281 4.57422C13.6367 3.42578 14.8555 2.03125 17.0469 2.03125C19.7656 2.03125 21.7812 4.10547 21.7812 7.22266C21.7812 11.582 17.1758 16.2812 12.2773 19.5391C12.1602 19.6211 12.0781 19.6797 12.0312 19.6797C11.9844 19.6797 11.9023 19.6211 11.7969 19.5391C6.88672 16.2812 2.28125 11.582 2.28125 7.22266Z" fill="#4E4E4E"/>
</svg>
