<svg width="20" height="20" viewBox="0 0 20 20" fill="none" xmlns="http://www.w3.org/2000/svg">
<path d="M8.00641 2.16455C7.83807 1.93546 7.72691 1.78412 7.72691 1.42871H6.61084C6.61084 2.08613 6.86842 2.43679 7.07538 2.71854C7.24373 2.94762 7.35489 3.09897 7.35489 3.45438C7.35489 3.8098 7.24369 3.96113 7.07538 4.19022C6.86842 4.47197 6.61084 4.82262 6.61084 5.48005H7.72691C7.72691 5.12463 7.83807 4.9733 8.00641 4.74422C8.21336 4.46246 8.47095 4.11181 8.47095 3.45438C8.47095 2.79696 8.21336 2.4463 8.00641 2.16455Z" fill="#4E4E4E"/>
<path d="M5.77423 2.16455C5.60589 1.93546 5.49473 1.78412 5.49473 1.42871H4.37866C4.37866 2.08613 4.63624 2.43679 4.84321 2.71854C5.01155 2.94762 5.12271 3.09897 5.12271 3.45438C5.12271 3.8098 5.01151 3.96113 4.84321 4.19022C4.63624 4.47197 4.37866 4.82262 4.37866 5.48005H5.49473C5.49473 5.12463 5.60589 4.9733 5.77423 4.74422C5.98119 4.46246 6.23878 4.11181 6.23878 3.45438C6.23878 2.79696 5.98119 2.4463 5.77423 2.16455Z" fill="#4E4E4E"/>
<path d="M10.2386 2.16455C10.0702 1.93546 9.95908 1.78412 9.95908 1.42871H8.84302C8.84302 2.08613 9.1006 2.43679 9.30756 2.71854C9.4759 2.94762 9.58707 3.09897 9.58707 3.45438C9.58707 3.8098 9.47587 3.96113 9.30756 4.19022C9.1006 4.47197 8.84302 4.82262 8.84302 5.48005H9.95908C9.95908 5.12463 10.0702 4.9733 10.2386 4.74422C10.4455 4.46246 10.7032 4.11181 10.7032 3.45438C10.7032 2.79696 10.4455 2.4463 10.2386 2.16455Z" fill="#4E4E4E"/>
<path d="M12.4708 2.16455C12.3024 1.93546 12.1913 1.78412 12.1913 1.42871H11.0752C11.0752 2.08613 11.3328 2.43679 11.5398 2.71854C11.7081 2.94762 11.8193 3.09897 11.8193 3.45438C11.8193 3.8098 11.7081 3.96113 11.5398 4.19022C11.3328 4.47197 11.0752 4.82262 11.0752 5.48005H12.1913C12.1913 5.12463 12.3024 4.9733 12.4708 4.74422C12.6778 4.46246 12.9353 4.11181 12.9353 3.45438C12.9353 2.79696 12.6778 2.4463 12.4708 2.16455Z" fill="#4E4E4E"/>
<path d="M14.7029 2.16455C14.5346 1.93546 14.4234 1.78412 14.4234 1.42871H13.3074C13.3074 2.08613 13.5649 2.43679 13.7718 2.71854C13.9402 2.94762 14.0514 3.09897 14.0514 3.45438C14.0514 3.8098 13.9401 3.96113 13.7718 4.19022C13.5649 4.47197 13.3074 4.82262 13.3074 5.48005H14.4234C14.4234 5.12463 14.5346 4.9733 14.7029 4.74422C14.9099 4.46246 15.1675 4.11181 15.1675 3.45438C15.1675 2.79696 14.9099 2.4463 14.7029 2.16455Z" fill="#4E4E4E"/>
<path d="M11.9495 6.48438C11.1276 6.48438 10.4614 7.08401 10.4614 7.82366V17.2322C10.4614 17.9718 11.1276 18.5714 11.9495 18.5714C12.7713 18.5714 13.4376 17.9718 13.4376 17.2322V7.82366C13.4376 7.08401 12.7713 6.48438 11.9495 6.48438Z" fill="#4E4E4E"/>
<path d="M3.50454 6.48438C2.6827 6.48438 2.01644 7.08401 2.01644 7.82366V8.3259H0.714355V9.33037H2.01644V17.2322C2.01644 17.9718 2.6827 18.5714 3.50454 18.5714C4.32637 18.5714 4.99263 17.9718 4.99263 17.2322V7.82366C4.99263 7.08401 4.32637 6.48438 3.50454 6.48438Z" fill="#4E4E4E"/>
<path d="M7.85724 6.48438C7.0354 6.48438 6.36914 7.08401 6.36914 7.82366V17.2322C6.36914 17.9718 7.0354 18.5714 7.85724 18.5714C8.67907 18.5714 9.34533 17.9718 9.34533 17.2322V7.82366C9.34533 7.08401 8.67907 6.48438 7.85724 6.48438Z" fill="#4E4E4E"/>
<path d="M18.6458 7.12054V8.3259H17.5297V7.82366C17.5297 7.08401 16.8635 6.48438 16.0417 6.48438C15.2198 6.48438 14.5535 7.08401 14.5535 7.82366V17.2322C14.5535 17.9718 15.2198 18.5714 16.0417 18.5714C16.8635 18.5714 17.5297 17.9718 17.5297 17.2322V9.33037H19.7618V7.12054H18.6458Z" fill="#4E4E4E"/>
</svg>
