<svg width="18" height="20" viewBox="0 0 18 20" fill="none" xmlns="http://www.w3.org/2000/svg">
<path d="M9.00018 6.18945C6.8989 6.18945 5.18945 7.8989 5.18945 10C5.18945 12.1013 6.8989 13.8108 9.00018 13.8108C11.1013 13.8108 12.8108 12.1013 12.8108 10C12.8108 7.8989 11.1013 6.18945 9.00018 6.18945ZM11.2626 9.28241L8.53265 12.0124C8.41806 12.127 8.26776 12.1843 8.11761 12.1843C7.96747 12.1843 7.81732 12.1271 7.70273 12.0124L6.65948 10.9691C6.4303 10.7401 6.4303 10.3685 6.65948 10.1393C6.88852 9.91016 7.26007 9.91016 7.48926 10.1393L8.11761 10.7677L10.4328 8.45264C10.6619 8.22345 11.0334 8.22345 11.2626 8.45264C11.4918 8.68167 11.4918 9.05322 11.2626 9.28241Z" fill="#222222"/>
<path d="M17.4956 5.42651L17.495 5.41094C17.4863 5.21884 17.4805 5.01559 17.477 4.78945C17.4606 3.6867 16.584 2.77454 15.4811 2.71289C13.1816 2.58456 11.4028 1.83475 9.88284 0.353278L9.86987 0.340919C9.37411 -0.11364 8.62628 -0.11364 8.13037 0.340919L8.1174 0.353278C6.59748 1.83475 4.81861 2.58456 2.51912 2.71304C1.41637 2.77454 0.539605 3.6867 0.523278 4.78961C0.519921 5.01422 0.51397 5.21746 0.505272 5.41094L0.504357 5.44711C0.459649 7.79192 0.404107 10.7102 1.38036 13.3589C1.91716 14.8155 2.73015 16.0817 3.79658 17.1225C5.01118 18.3078 6.60206 19.2488 8.52496 19.9193C8.58752 19.9411 8.65253 19.9588 8.71875 19.9721C8.81213 19.9907 8.90613 20 9.00012 20C9.09412 20 9.18826 19.9907 9.28149 19.9721C9.34772 19.9588 9.41318 19.9409 9.47604 19.919C11.3967 19.2473 12.9859 18.3058 14.1994 17.1207C15.2654 16.0796 16.0783 14.8131 16.6156 13.3562C17.5955 10.6995 17.5401 7.77574 17.4956 5.42651ZM8.99982 14.9846C6.25141 14.9846 4.01555 12.7487 4.01555 10.0003C4.01555 7.25191 6.25141 5.01605 8.99982 5.01605C11.7481 5.01605 13.9841 7.25191 13.9841 10.0003C13.9841 12.7487 11.7481 14.9846 8.99982 14.9846Z" fill="#222222"/>
</svg>
