<svg width="20" height="20" viewBox="0 0 20 20" fill="none" xmlns="http://www.w3.org/2000/svg">
<path d="M14.8397 7.44813C14.5283 8.63863 13.8017 8.90086 13.4141 8.95348C13.1752 9.43092 12.6503 10.4067 12.1252 10.8969C11.9153 11.0928 11.6425 11.2582 11.3145 11.3884C10.8957 11.5545 10.4534 11.6388 10 11.6388C9.54666 11.6388 9.10436 11.5545 8.68556 11.3884C8.35763 11.2583 8.08478 11.0929 7.87488 10.8969C7.34967 10.4068 6.82474 9.43092 6.58593 8.95348C6.19834 8.90086 5.47174 8.63872 5.16037 7.44813C4.99384 6.81148 5.03648 6.2925 5.28719 5.90555C5.39799 5.73453 5.53232 5.61805 5.6574 5.53918C5.65776 5.41209 5.66307 5.25297 5.6778 5.07199C5.45262 4.75906 5.14646 4.08389 5.52564 2.99102C5.9264 1.83566 6.83252 1.65723 7.26989 1.64177C7.41775 1.36691 7.6971 0.976663 8.20437 0.617894C8.76746 0.219415 9.50274 0 10.2747 0C11.2247 0 12.1806 0.334338 13.039 0.966873C14.4308 1.9924 14.3116 4.26725 14.2774 4.68028C14.328 5.02651 14.342 5.32681 14.3426 5.53909C14.4677 5.61796 14.602 5.73444 14.7128 5.90545C14.9635 6.2925 15.0062 6.81139 14.8397 7.44813ZM18.9101 16.3134V19.5425C18.9101 19.7951 18.7053 20 18.4527 20H1.54734C1.29471 20 1.08984 19.7951 1.08984 19.5425V16.3134C1.08984 14.9905 1.88351 13.8182 3.11179 13.3269L7.11168 11.7269C7.22679 11.681 7.35562 11.6834 7.46881 11.7343C7.5819 11.785 7.66965 11.8795 7.71174 11.9961L8.71731 14.7761L8.91642 14.2037L8.59965 13.4293C8.542 13.2883 8.55829 13.1277 8.64329 13.0011C8.72829 12.8746 8.87067 12.7986 9.0231 12.7986H10.977C11.1294 12.7986 11.2719 12.8746 11.3568 13.0011C11.4418 13.1277 11.4581 13.2883 11.4004 13.4293L11.0837 14.2037L11.2828 14.7761L12.2883 11.9961C12.3304 11.8795 12.4182 11.785 12.5313 11.7343C12.6445 11.6835 12.7734 11.6811 12.8884 11.7269L16.8883 13.3269C18.1166 13.8182 18.9101 14.9905 18.9101 16.3134ZM16.4748 16.6645C16.4748 16.4119 16.2699 16.207 16.0173 16.207H12.9457C12.693 16.207 12.4882 16.4119 12.4882 16.6645V18.091C12.4882 18.3436 12.693 18.5485 12.9457 18.5485H16.0173C16.2699 18.5485 16.4748 18.3436 16.4748 18.091V16.6645Z" fill="#222222"/>
</svg>
