<svg width="24" height="24" viewBox="0 0 24 24" fill="none" xmlns="http://www.w3.org/2000/svg">
<path d="M20 8.55V22H4V8.55L12 2L20 8.55Z" fill="white"/>
<path d="M16 5.27V3H20V8.55L16 5.27Z" fill="white"/>
<path d="M11 15H7V21H11V15Z" fill="#F9C41F" fill-opacity="0.2"/>
<path d="M17 13H13V17H17V13Z" fill="#F9C41F"/>
<path d="M21.0001 8.06996V1.99996H15.0001V3.15996L12.0001 0.709961L0.370117 10.23L1.63012 11.77L3.00012 10.66V23H21.0001V10.66L22.3701 11.77L23.6301 10.23L21.0001 8.06996ZM19.0001 21H5.00012V8.99996L12.0001 3.26996L19.0001 8.99996V21ZM19.0001 6.43996L17.0001 4.79996V3.99996H19.0001V6.43996Z" fill="#4E4E4E"/>
</svg>
