<svg width="52" height="52" viewBox="0 0 52 52" fill="none" xmlns="http://www.w3.org/2000/svg">
<path d="M31.8748 0.802917C21.1425 0.802917 12.4428 9.50255 12.4428 20.2349C12.4428 24.7285 13.9705 28.8642 16.5274 32.1561L13.9002 34.7832L9.91797 30.801C9.82061 30.7057 9.68982 30.6524 9.55362 30.6524C9.41741 30.6524 9.28662 30.7057 9.18927 30.801L6.64522 33.345C6.54996 33.4424 6.49661 33.5732 6.49661 33.7094C6.49661 33.8456 6.54996 33.9764 6.64522 34.0737L10.6275 38.056L7.75744 40.926L3.77517 36.9438C3.67782 36.8485 3.54703 36.7952 3.41082 36.7952C3.27462 36.7952 3.14383 36.8485 3.04647 36.9438L0.502424 39.4878C0.407163 39.5852 0.353818 39.716 0.353818 39.8522C0.353818 39.9884 0.407163 40.1192 0.502424 40.2165L4.48469 44.1988L0.310661 48.3728C0.215495 48.4689 0.162109 48.5987 0.162109 48.734C0.162109 48.8692 0.215495 48.999 0.310661 49.0951L3.01451 51.799C3.21267 51.9971 3.53866 51.9971 3.73682 51.799L19.9471 35.5886C23.3595 38.2354 27.5562 39.6703 31.8748 39.6668C42.6071 39.6668 51.3067 30.9672 51.3067 20.2349C51.3067 9.50255 42.6071 0.802917 31.8748 0.802917ZM42.1788 30.5389C39.4302 33.2939 35.7676 34.8088 31.8748 34.8088C27.982 34.8088 24.3193 33.2939 21.5707 30.5389C18.8157 27.7903 17.3008 24.1276 17.3008 20.2349C17.3008 16.3421 18.8157 12.6794 21.5707 9.93082C24.3193 7.17583 27.982 5.6609 31.8748 5.6609C35.7676 5.6609 39.4302 7.17583 42.1788 9.93082C44.9338 12.6794 46.4487 16.3421 46.4487 20.2349C46.4487 24.1276 44.9338 27.7903 42.1788 30.5389Z" fill="#D91F35"/>
</svg>
