<svg width="15" height="12" viewBox="0 0 15 12" fill="none" xmlns="http://www.w3.org/2000/svg">
<path d="M5.22552 3.49951C5.22552 3.91618 5.08936 4.27018 4.81704 4.56151C4.54472 4.85285 4.21458 4.99885 3.82662 4.99951C3.43865 5.00018 3.10851 4.85418 2.83619 4.56151C2.56387 4.26885 2.42771 3.91485 2.42771 3.49951C2.42771 3.08418 2.56387 2.73018 2.83619 2.43751C3.10851 2.14485 3.43865 1.99885 3.82662 1.99951C4.21458 2.00018 4.54472 2.14618 4.81704 2.43751C5.08936 2.72885 5.22552 3.08285 5.22552 3.49951ZM12.6864 6.49951V9.99951H2.42771V8.49951L4.75922 5.99951L5.92498 7.24951L9.6554 3.24951L12.6864 6.49951ZM13.3858 0.999512H1.72826C1.66484 0.999512 1.61013 1.02418 1.56412 1.07351C1.51811 1.12285 1.4951 1.18151 1.4951 1.24951V10.7495C1.4951 10.8175 1.51811 10.8762 1.56412 10.9255C1.61013 10.9748 1.66484 10.9995 1.72826 10.9995H13.3858C13.4492 10.9995 13.5039 10.9748 13.55 10.9255C13.596 10.8762 13.619 10.8175 13.619 10.7495V1.24951C13.619 1.18151 13.596 1.12285 13.55 1.07351C13.5039 1.02418 13.4492 0.999512 13.3858 0.999512ZM14.5516 1.24951V10.7495C14.5516 11.0935 14.4375 11.3878 14.2093 11.6325C13.9811 11.8772 13.7066 11.9995 13.3858 11.9995H1.72826C1.40744 11.9995 1.13294 11.8772 0.904766 11.6325C0.676589 11.3878 0.5625 11.0935 0.5625 10.7495V1.24951C0.5625 0.905512 0.676589 0.611178 0.904766 0.366512C1.13294 0.121845 1.40744 -0.000488281 1.72826 -0.000488281H13.3858C13.7066 -0.000488281 13.9811 0.121845 14.2093 0.366512C14.4375 0.611178 14.5516 0.905512 14.5516 1.24951Z" fill="#222222" fill-opacity="0.85"/>
</svg>
