<svg width="12" height="12" viewBox="0 0 12 12" fill="none" xmlns="http://www.w3.org/2000/svg">
<path d="M10.623 3.25V7H9.62305V3.75L7.12305 2L4.62305 3.75V4.5H3.62305V3.25L7.12305 0.75L10.623 3.25ZM7.87305 3.5H7.37305V4H7.87305V3.5ZM6.87305 3.5H6.37305V4H6.87305V3.5ZM7.87305 4.5H7.37305V5H7.87305V4.5ZM6.87305 4.5H6.37305V5H6.87305V4.5ZM9.62305 8H8.62305C8.62305 7.4 8.24805 6.86 7.68805 6.65L4.60805 5.5H0.623047V11H3.62305V10.28L7.12305 11.25L11.123 10V9.5C11.123 8.67 10.453 8 9.62305 8ZM1.62305 10V6.5H2.62305V10H1.62305ZM7.10805 10.205L3.62305 9.24V6.5H4.42805L7.33805 7.585C7.50805 7.65 7.62305 7.815 7.62305 8C7.62305 8 6.62805 7.975 6.47305 7.925L5.28305 7.53L4.96805 8.48L6.15805 8.875C6.41305 8.96 6.67805 9.005 6.94805 9.005H9.62305C9.81805 9.005 9.99305 9.12 10.073 9.285L7.10805 10.205Z" fill="#FA8C16"/>
</svg>
 