<svg width="13" height="16" viewBox="0 0 13 16" fill="none" xmlns="http://www.w3.org/2000/svg">
<path d="M12.0879 7.14503H10.8736V3.14503C10.8736 1.88253 9.85039 0.859314 8.58789 0.859314H4.15932C2.89682 0.859314 1.87361 1.88253 1.87361 3.14503V7.14503H0.659319C0.343248 7.14503 0.0878906 7.40039 0.0878906 7.71646V14.5736C0.0878906 14.8897 0.343248 15.145 0.659319 15.145H12.0879C12.404 15.145 12.6593 14.8897 12.6593 14.5736V7.71646C12.6593 7.40039 12.404 7.14503 12.0879 7.14503ZM3.15932 3.14503C3.15932 2.59324 3.60753 2.14503 4.15932 2.14503H8.58789C9.13968 2.14503 9.58789 2.59324 9.58789 3.14503V7.14503H3.15932V3.14503ZM11.3736 13.8593H1.37361V8.43074H11.3736V13.8593ZM5.87361 11.3772V12.3236C5.87361 12.4022 5.93789 12.4665 6.01646 12.4665H6.73075C6.80932 12.4665 6.87361 12.4022 6.87361 12.3236V11.3772C7.02101 11.2713 7.13103 11.1215 7.18784 10.9491C7.24464 10.7768 7.2453 10.5909 7.18971 10.4181C7.13412 10.2454 7.02516 10.0947 6.8785 9.98788C6.73185 9.88101 6.55507 9.82343 6.37361 9.82343C6.19214 9.82343 6.01536 9.88101 5.86871 9.98788C5.72205 10.0947 5.61309 10.2454 5.5575 10.4181C5.50191 10.5909 5.50257 10.7768 5.55937 10.9491C5.61618 11.1215 5.7262 11.2713 5.87361 11.3772Z" fill="#D54640"/>
</svg>
