<svg width="16" height="16" viewBox="0 0 16 16" fill="none" xmlns="http://www.w3.org/2000/svg">
<path d="M15.0003 7.99838H14.0003C13.9217 7.99838 13.8574 8.06267 13.8574 8.14124V13.8555H2.14314V2.14124H7.85742C7.93599 2.14124 8.00028 2.07695 8.00028 1.99838V0.998379C8.00028 0.919808 7.93599 0.855522 7.85742 0.855522H1.42885C1.11278 0.855522 0.857422 1.11088 0.857422 1.42695V14.5698C0.857422 14.8859 1.11278 15.1412 1.42885 15.1412H14.5717C14.8878 15.1412 15.1431 14.8859 15.1431 14.5698V8.14124C15.1431 8.06267 15.0789 7.99838 15.0003 7.99838Z" fill="white"/>
<path d="M5.21266 8.40731L5.17873 10.5305C5.17695 10.6895 5.30552 10.8198 5.46445 10.8198H5.47159L7.57873 10.768C7.61445 10.7662 7.65016 10.752 7.67516 10.727L15.1019 3.31624C15.1573 3.26088 15.1573 3.16981 15.1019 3.11445L12.8823 0.896594C12.8537 0.868022 12.818 0.855522 12.7805 0.855522C12.743 0.855522 12.7073 0.869808 12.6787 0.896594L5.25373 8.30731C5.22794 8.33428 5.21327 8.36999 5.21266 8.40731ZM6.34659 8.82874L12.7805 2.40909L13.5877 3.21445L7.15016 9.63766L6.33409 9.65731L6.34659 8.82874Z" fill="white"/>
</svg>
