<svg width="10" height="10" viewBox="0 0 10 10" fill="none" xmlns="http://www.w3.org/2000/svg">
<g clip-path="url(#clip0_1800_14750)">
<path d="M6.07128 0.537048C4.19739 0.537048 2.67842 2.05602 2.67842 3.92991C2.67842 4.7145 2.94516 5.4366 3.39159 6.01138L2.93289 6.47008L2.23757 5.77477C2.22057 5.75814 2.19774 5.74882 2.17396 5.74882C2.15017 5.74882 2.12734 5.75814 2.11034 5.77477L1.66614 6.21897C1.64951 6.23597 1.6402 6.2588 1.6402 6.28258C1.6402 6.30637 1.64951 6.3292 1.66614 6.3462L2.36146 7.04151L1.86034 7.54263L1.16503 6.84732C1.14803 6.83068 1.12519 6.82137 1.10141 6.82137C1.07763 6.82137 1.05479 6.83068 1.0378 6.84732L0.593599 7.29151C0.576967 7.30851 0.567652 7.33135 0.567652 7.35513C0.567652 7.37891 0.576967 7.40175 0.593599 7.41874L1.28891 8.11406L0.560117 8.84285C0.543501 8.85963 0.53418 8.88229 0.53418 8.90591C0.53418 8.92953 0.543501 8.95219 0.560117 8.96897L1.03222 9.44107C1.06681 9.47566 1.12373 9.47566 1.15833 9.44107L3.98869 6.61071C4.5845 7.07284 5.31725 7.32337 6.07128 7.32276C7.94516 7.32276 9.46414 5.80379 9.46414 3.92991C9.46414 2.05602 7.94516 0.537048 6.07128 0.537048ZM7.87039 5.72901C7.39048 6.21004 6.75097 6.47455 6.07128 6.47455C5.39159 6.47455 4.75208 6.21004 4.27217 5.72901C3.79114 5.2491 3.52664 4.60959 3.52664 3.92991C3.52664 3.25022 3.79114 2.61071 4.27217 2.1308C4.75208 1.64977 5.39159 1.38526 6.07128 1.38526C6.75097 1.38526 7.39048 1.64977 7.87039 2.1308C8.35141 2.61071 8.61592 3.25022 8.61592 3.92991C8.61592 4.60959 8.35141 5.2491 7.87039 5.72901Z" fill="white"/>
</g>
<defs>
<clipPath id="clip0_1800_14750">
<rect width="10" height="10" fill="white"/>
</clipPath>
</defs>
</svg>
