<svg width="14" height="14" viewBox="0 0 14 14" fill="none" xmlns="http://www.w3.org/2000/svg">
<path d="M4.34375 0.564697H0.875C0.598437 0.564697 0.375 0.788135 0.375 1.0647V4.5647C0.375 4.7022 0.4875 4.8147 0.625 4.8147H1.375C1.5125 4.8147 1.625 4.7022 1.625 4.5647V1.8147H4.34375C4.48125 1.8147 4.59375 1.7022 4.59375 1.5647V0.814697C4.59375 0.677197 4.48125 0.564697 4.34375 0.564697ZM13.375 9.5647H12.625C12.4875 9.5647 12.375 9.6772 12.375 9.8147V12.5647H9.65625C9.51875 12.5647 9.40625 12.6772 9.40625 12.8147V13.5647C9.40625 13.7022 9.51875 13.8147 9.65625 13.8147H13.125C13.4016 13.8147 13.625 13.5913 13.625 13.3147V9.8147C13.625 9.6772 13.5125 9.5647 13.375 9.5647ZM4.34375 12.5647H1.625V9.8147C1.625 9.6772 1.5125 9.5647 1.375 9.5647H0.625C0.4875 9.5647 0.375 9.6772 0.375 9.8147V13.3147C0.375 13.5913 0.598437 13.8147 0.875 13.8147H4.34375C4.48125 13.8147 4.59375 13.7022 4.59375 13.5647V12.8147C4.59375 12.6772 4.48125 12.5647 4.34375 12.5647ZM13.125 0.564697H9.65625C9.51875 0.564697 9.40625 0.677197 9.40625 0.814697V1.5647C9.40625 1.7022 9.51875 1.8147 9.65625 1.8147H12.375V4.5647C12.375 4.7022 12.4875 4.8147 12.625 4.8147H13.375C13.5125 4.8147 13.625 4.7022 13.625 4.5647V1.0647C13.625 0.788135 13.4016 0.564697 13.125 0.564697Z" fill="#222222"/>
</svg>
