<svg width="50" height="46" viewBox="0 0 50 46" fill="none" xmlns="http://www.w3.org/2000/svg">
<path d="M48.7713 41.2632H4.79371V1.3766C4.79371 1.09535 4.56359 0.865234 4.28234 0.865234H0.702773C0.421521 0.865234 0.191406 1.09535 0.191406 1.3766V45.3542C0.191406 45.6354 0.421521 45.8655 0.702773 45.8655H48.7713C49.0525 45.8655 49.2826 45.6354 49.2826 45.3542V41.7746C49.2826 41.4933 49.0525 41.2632 48.7713 41.2632ZM9.39601 37.1723H43.6576C43.9388 37.1723 44.169 36.9422 44.169 36.6609V8.79142C44.169 8.33119 43.6128 8.10747 43.2932 8.42707L29.8507 21.8696L21.835 13.9434C21.7389 13.8483 21.6091 13.7949 21.4739 13.7949C21.3386 13.7949 21.2088 13.8483 21.1127 13.9434L9.03166 26.0628C8.98474 26.1098 8.94759 26.1657 8.92236 26.2271C8.89712 26.2886 8.88431 26.3544 8.88464 26.4208V36.6609C8.88464 36.9422 9.11476 37.1723 9.39601 37.1723Z" fill="#D91F35"/>
</svg>
