<svg width="40" height="40" viewBox="0 0 40 40" fill="none" xmlns="http://www.w3.org/2000/svg">
<circle cx="20" cy="20" r="19.5" fill="#F9C41F" stroke="#F9C41F"/>
<path d="M16.6289 30.8867C17.1328 30.8867 17.5312 30.6641 17.8125 30.2305L28.8867 12.793C29.0977 12.4531 29.1797 12.1953 29.1797 11.9258C29.1797 11.2812 28.7578 10.8594 28.1133 10.8594C27.6445 10.8594 27.3867 11.0117 27.1055 11.457L16.582 28.2266L11.1211 21.0781C10.8281 20.668 10.5352 20.5039 10.1133 20.5039C9.44531 20.5039 8.98828 20.9609 8.98828 21.6055C8.98828 21.875 9.10547 22.1797 9.32812 22.4609L15.4102 30.207C15.7617 30.6641 16.125 30.8867 16.6289 30.8867Z" fill="#222222"/>
</svg>
