<svg width="14" height="11" viewBox="0 0 14 11" fill="none" xmlns="http://www.w3.org/2000/svg">
<path d="M13.5 -0.0001297H0.5C0.223437 -0.0001297 0 0.223308 0 0.49987V10.4999C0 10.7764 0.223437 10.9999 0.5 10.9999H13.5C13.7766 10.9999 14 10.7764 14 10.4999V0.49987C14 0.223308 13.7766 -0.0001297 13.5 -0.0001297ZM12.875 3.24987H9.5625V1.12487H12.875V3.24987ZM12.875 6.74987H9.5625V4.24987H12.875V6.74987ZM5.4375 4.24987H8.5625V6.74987H5.4375V4.24987ZM8.5625 3.24987H5.4375V1.12487H8.5625V3.24987ZM1.125 4.24987H4.4375V6.74987H1.125V4.24987ZM1.125 1.12487H4.4375V3.24987H1.125V1.12487ZM1.125 7.74987H4.4375V9.87487H1.125V7.74987ZM5.4375 7.74987H8.5625V9.87487H5.4375V7.74987ZM12.875 9.87487H9.5625V7.74987H12.875V9.87487Z" fill="#222222"/>
</svg>
