<svg width="12" height="14" viewBox="0 0 19 20" fill="none" xmlns="http://www.w3.org/2000/svg">
<path d="M9.91093 4.66385H8.83727C8.73906 4.66385 8.6587 4.7442 8.6587 4.84242V10.9875C8.6587 11.0455 8.68549 11.0991 8.73236 11.1326L12.4221 13.8268C12.5024 13.8848 12.6141 13.8692 12.6721 13.7888L13.3105 12.9183C13.3708 12.8357 13.3529 12.7241 13.2725 12.6683L10.0895 10.367V4.84242C10.0895 4.7442 10.0091 4.66385 9.91093 4.66385ZM14.8172 6.34242L18.3172 7.19733C18.4288 7.22412 18.5382 7.13929 18.5382 7.02545L18.556 3.42054C18.556 3.27099 18.3841 3.18617 18.2681 3.27992L14.7502 6.02769C14.7236 6.04825 14.7034 6.07591 14.6918 6.10747C14.6803 6.13903 14.6778 6.17321 14.6848 6.20609C14.6918 6.23897 14.7079 6.26921 14.7314 6.29332C14.7548 6.31744 14.7845 6.33446 14.8172 6.34242ZM18.5605 13.0634L17.2949 12.6281C17.2507 12.613 17.2024 12.6158 17.1603 12.6358C17.1182 12.6558 17.0856 12.6915 17.0694 12.7353C17.027 12.8491 16.9824 12.9607 16.9355 13.0723C16.5382 14.0121 15.969 14.858 15.2413 15.5835C14.5217 16.3053 13.6689 16.8807 12.7301 17.2777C11.7576 17.6888 10.7123 17.8999 9.65647 17.8982C8.5895 17.8982 7.55602 17.6906 6.58281 17.2777C5.64406 16.8807 4.79124 16.3053 4.07165 15.5835C3.3462 14.858 2.777 14.0121 2.37745 13.0723C1.96856 12.0993 1.75907 11.0541 1.76138 9.99867C1.76138 8.93171 1.96897 7.89599 2.38191 6.92278C2.77923 5.98304 3.34843 5.13706 4.07611 4.41162C4.79571 3.68978 5.64852 3.11442 6.58727 2.71742C7.55602 2.30447 8.59174 2.09688 9.6587 2.09688C10.7257 2.09688 11.7591 2.30447 12.7324 2.71742C13.6711 3.11442 14.5239 3.68978 15.2435 4.41162C15.4712 4.64153 15.6855 4.88037 15.8819 5.1326L17.2167 4.08795C15.46 1.84242 12.7257 0.398222 9.65423 0.400454C4.30602 0.402686 0.0113775 4.74644 0.0649489 10.0969C0.11852 15.3536 4.39307 19.5969 9.6587 19.5969C13.7993 19.5969 17.3261 16.9719 18.6699 13.2955C18.7033 13.2018 18.6542 13.0969 18.5605 13.0634Z" fill="#222222"/>
</svg>
