<svg width="15" height="15" viewBox="0 0 15 15" fill="none" xmlns="http://www.w3.org/2000/svg">
<path fill-rule="evenodd" clip-rule="evenodd" d="M6.09506 2.22321C6.27154 1.61183 6.83575 1.16547 7.50293 1.16547C8.17012 1.16547 8.73432 1.61183 8.9108 2.22323C8.9826 2.47193 9.16985 2.63544 9.35688 2.71291C9.54391 2.79038 9.79193 2.80717 10.0186 2.68207C10.5757 2.37454 11.2903 2.45786 11.762 2.92964C12.2338 3.40141 12.3171 4.11599 12.0096 4.6731C11.8845 4.89973 11.9013 5.14775 11.9788 5.33478C12.0562 5.52181 12.2197 5.70906 12.4684 5.78085C13.0798 5.95734 13.5262 6.52154 13.5262 7.18872C13.5262 7.85591 13.0798 8.42012 12.4684 8.5966C12.2197 8.66839 12.0562 8.85564 11.9787 9.04267C11.9013 9.2297 11.8845 9.47773 12.0096 9.70435C12.3171 10.2615 12.2338 10.976 11.762 11.4478C11.2902 11.9196 10.5757 12.0029 10.0185 11.6954C9.79192 11.5703 9.5439 11.5871 9.35687 11.6646C9.16984 11.742 8.98259 11.9055 8.9108 12.1542C8.73431 12.7656 8.17011 13.212 7.50293 13.212C6.83574 13.212 6.27154 12.7656 6.09505 12.1542C6.02326 11.9055 5.83601 11.742 5.64898 11.6645C5.46195 11.5871 5.21392 11.5703 4.9873 11.6954C4.43019 12.0029 3.71561 11.9196 3.24383 11.4478C2.77206 10.976 2.68874 10.2614 2.99626 9.70434C3.12136 9.47771 3.10457 9.22969 3.0271 9.04266C2.94963 8.85563 2.78612 8.66838 2.53742 8.59659C1.92604 8.42011 1.47967 7.85591 1.47967 7.18872C1.47967 6.52153 1.92604 5.95733 2.53744 5.78085C2.78614 5.70906 2.94965 5.5218 3.02712 5.33477C3.10459 5.14774 3.12138 4.89972 2.99628 4.67309C2.68875 4.11598 2.77207 3.4014 3.24385 2.92962C3.71562 2.45785 4.4302 2.37453 4.98731 2.68205C5.21393 2.80715 5.46196 2.79036 5.64899 2.71289C5.83602 2.63542 6.02327 2.47192 6.09506 2.22321ZM7.50293 0.188721C6.47616 0.188721 5.5984 0.822108 5.23718 1.7187C4.34778 1.34012 3.27923 1.51292 2.55319 2.23896C1.82714 2.965 1.65435 4.03356 2.03293 4.92296C1.13633 5.28417 0.50293 6.16194 0.50293 7.18872C0.50293 8.2155 1.13632 9.09325 2.0329 9.45447C1.65433 10.3439 1.82713 11.4124 2.55317 12.1385C3.27921 12.8645 4.34776 13.0373 5.23717 12.6587C5.59838 13.5553 6.47615 14.1887 7.50293 14.1887C8.5297 14.1887 9.40746 13.5553 9.76868 12.6588C10.6581 13.0373 11.7266 12.8645 12.4527 12.1385C13.1787 11.4124 13.3515 10.3439 12.9729 9.45448C13.8695 9.09327 14.5029 8.2155 14.5029 7.18872C14.5029 6.16195 13.8695 5.28419 12.973 4.92297C13.3515 4.03357 13.1787 2.96502 12.4527 2.23898L12.1201 2.57152L12.4527 2.23898C11.7266 1.51293 10.6581 1.34014 9.76869 1.71872C9.40748 0.822117 8.52971 0.188721 7.50293 0.188721ZM9.73792 4.40787L10.0811 4.75102C10.1062 4.77611 10.1062 4.81739 10.0803 4.84167L4.95236 9.96958C4.92727 9.99466 4.886 9.99466 4.86091 9.96958L4.51775 9.62642C4.5057 9.61425 4.49894 9.59782 4.49894 9.58069C4.49894 9.56357 4.5057 9.54714 4.51775 9.53497L9.64647 4.40787C9.65864 4.39582 9.67507 4.38906 9.69219 4.38906C9.70932 4.38906 9.72575 4.39582 9.73792 4.40787ZM6.78144 5.50532C6.78144 6.14793 6.25862 6.67075 5.61601 6.67075C4.9734 6.67075 4.45058 6.14793 4.45058 5.50532C4.45058 4.86271 4.9734 4.33989 5.61601 4.33989C6.25862 4.33989 6.78144 4.86271 6.78144 5.50532ZM6.19873 5.50532C6.19873 5.18402 5.93731 4.9226 5.61601 4.9226C5.29471 4.9226 5.03329 5.18402 5.03329 5.50532C5.03329 5.82662 5.29471 6.08804 5.61601 6.08804C5.93731 6.08804 6.19873 5.82662 6.19873 5.50532ZM7.81738 8.87213C7.81738 8.22952 8.34021 7.70669 8.98282 7.70669C9.62542 7.70669 10.1483 8.22952 10.1483 8.87213C10.1483 9.51473 9.62542 10.0376 8.98282 10.0376C8.34021 10.0376 7.81738 9.51473 7.81738 8.87213ZM8.4001 8.87213C8.4001 9.19343 8.66151 9.45484 8.98282 9.45484C9.30412 9.45484 9.56553 9.19343 9.56553 8.87213C9.56553 8.55082 9.30412 8.28941 8.98282 8.28941C8.66151 8.28941 8.4001 8.55082 8.4001 8.87213Z" fill="#222222" fill-opacity="0.8"/>
</svg>
