<svg width="13" height="14" viewBox="0 0 13 14" fill="none" xmlns="http://www.w3.org/2000/svg">
<path d="M10.3125 9.37457C9.86719 9.37457 9.45625 9.53082 9.13437 9.79176L5.89687 7.44957C5.95109 7.15202 5.95109 6.84712 5.89687 6.54957L9.13437 4.20739C9.45625 4.46832 9.86719 4.62457 10.3125 4.62457C11.3469 4.62457 12.1875 3.78395 12.1875 2.74957C12.1875 1.7152 11.3469 0.874573 10.3125 0.874573C9.27812 0.874573 8.4375 1.7152 8.4375 2.74957C8.4375 2.93082 8.4625 3.10426 8.51094 3.26989L5.43594 5.49645C4.97969 4.89176 4.25469 4.49957 3.4375 4.49957C2.05625 4.49957 0.9375 5.61832 0.9375 6.99957C0.9375 8.38082 2.05625 9.49957 3.4375 9.49957C4.25469 9.49957 4.97969 9.10739 5.43594 8.5027L8.51094 10.7293C8.4625 10.8949 8.4375 11.0699 8.4375 11.2496C8.4375 12.2839 9.27812 13.1246 10.3125 13.1246C11.3469 13.1246 12.1875 12.2839 12.1875 11.2496C12.1875 10.2152 11.3469 9.37457 10.3125 9.37457ZM10.3125 1.93707C10.7609 1.93707 11.125 2.30114 11.125 2.74957C11.125 3.19801 10.7609 3.56207 10.3125 3.56207C9.86406 3.56207 9.5 3.19801 9.5 2.74957C9.5 2.30114 9.86406 1.93707 10.3125 1.93707ZM3.4375 8.37457C2.67969 8.37457 2.0625 7.75739 2.0625 6.99957C2.0625 6.24176 2.67969 5.62457 3.4375 5.62457C4.19531 5.62457 4.8125 6.24176 4.8125 6.99957C4.8125 7.75739 4.19531 8.37457 3.4375 8.37457ZM10.3125 12.0621C9.86406 12.0621 9.5 11.698 9.5 11.2496C9.5 10.8011 9.86406 10.4371 10.3125 10.4371C10.7609 10.4371 11.125 10.8011 11.125 11.2496C11.125 11.698 10.7609 12.0621 10.3125 12.0621Z" fill="#222222"/>
</svg>
