<svg width="72" height="72" viewBox="0 0 72 72" fill="none" xmlns="http://www.w3.org/2000/svg">
<g clip-path="url(#clip0_446_11506)">
<rect width="72" height="72" fill="#F9C41F"/>
<path d="M45.415 8.80881L70.5499 52.3439C71.4717 53.9404 72.0017 55.7913 72.0017 57.7673C72.0017 63.7677 67.1372 68.6325 61.1365 68.6325H36.0017L27.3096 35.9998L36.0017 3.36719C40.0264 3.36719 43.5374 5.55714 45.415 8.80881Z" fill="#3B4145"/>
<path d="M26.5867 8.80881L1.45167 52.3439C0.530016 53.9404 0 55.7913 0 57.7673C0 63.7677 4.8645 68.6325 10.8652 68.6325H36V3.36719C31.9753 3.36719 28.4643 5.55714 26.5867 8.80881Z" fill="#525A61"/>
<path d="M66.7853 54.5168L41.6505 10.9821C40.5176 9.01913 38.4374 7.7805 36.1875 7.7168L57.6847 64.2867H61.1355C64.7297 64.2867 67.6546 61.362 67.6546 57.7676C67.6546 56.626 67.3532 55.5019 66.7853 54.5168Z" fill="#FFB751"/>
<path d="M62.556 54.5182C63.0471 55.5033 63.3064 56.6275 63.3064 57.7691C63.3064 61.3633 60.7843 64.2881 57.6825 64.2881H10.8638C7.26959 64.2881 4.34473 61.3633 4.34473 57.7691C4.34473 56.6275 4.64609 55.5033 5.21393 54.5182L30.3487 10.9835C31.5135 8.96698 33.6778 7.71387 35.9986 7.71387C36.0609 7.71387 36.1232 7.71527 36.1855 7.71823C38.1165 7.7936 39.8999 9.02927 40.8719 10.9835L62.556 54.5182Z" fill="#FFD764"/>
<path d="M36 49.7998V57.0433C38.0007 57.0433 39.6218 55.4221 39.6218 53.4215C39.6218 51.4209 38.0007 49.7998 36 49.7998Z" fill="#3B4145"/>
<path d="M35.9968 49.7998C36.3966 49.7998 36.7212 51.4209 36.7212 53.4216C36.7212 55.4223 36.3966 57.0434 35.9968 57.0434C33.9961 57.0434 32.375 55.4223 32.375 53.4216C32.375 51.4209 33.9961 49.7998 35.9968 49.7998Z" fill="#525A61"/>
<path d="M36 18.6523V45.4532C38.0007 45.4532 39.6218 43.8307 39.6218 41.8314V22.2741C39.6218 20.2735 38.0007 18.6523 36 18.6523Z" fill="#3B4145"/>
<path d="M35.9968 18.6523C36.3966 18.6523 36.7212 20.2735 36.7212 22.2741V41.8314C36.7212 43.8305 36.3966 45.4532 35.9968 45.4532C33.9961 45.4532 32.375 43.8307 32.375 41.8314V22.2741C32.375 20.2735 33.9961 18.6523 35.9968 18.6523Z" fill="#525A61"/>
</g>
<defs>
<clipPath id="clip0_446_11506">
<rect width="72" height="72" fill="white"/>
</clipPath>
</defs>
</svg>
