<svg width="16" height="16" viewBox="0 0 16 16" fill="none" xmlns="http://www.w3.org/2000/svg">
<path d="M2.72895 16H13.271C15.0961 16 16 15.0961 16 13.3058V2.69419C16 0.903857 15.0961 0 13.271 0H2.72895C0.912548 0 0 0.895166 0 2.69419V13.3058C0 15.1048 0.912548 16 2.72895 16ZM8.9082 10.855C8.34329 11.4546 7.69147 11.4546 7.12656 10.855L3.61543 7.12656C3.33732 6.83976 3.33732 6.43129 3.58066 6.17056C3.85877 5.88376 4.29332 5.88376 4.54536 6.15318L8.02173 9.82944L11.4894 6.15318C11.7414 5.88376 12.1673 5.89245 12.4541 6.17056C12.7061 6.4226 12.6974 6.83976 12.4193 7.12656L8.9082 10.855Z" fill="#D3D3D3"/>
</svg>
