<svg width="14" height="15" viewBox="0 0 14 15" fill="none" xmlns="http://www.w3.org/2000/svg">
<path d="M7 0.188721C3.13438 0.188721 0 3.3231 0 7.18872C0 11.0543 3.13438 14.1887 7 14.1887C10.8656 14.1887 14 11.0543 14 7.18872C14 3.3231 10.8656 0.188721 7 0.188721ZM7 13.0012C3.79063 13.0012 1.1875 10.3981 1.1875 7.18872C1.1875 3.97935 3.79063 1.37622 7 1.37622C10.2094 1.37622 12.8125 3.97935 12.8125 7.18872C12.8125 10.3981 10.2094 13.0012 7 13.0012ZM10.1 3.81216C10.0388 3.78825 9.9735 3.77663 9.90782 3.77797C9.84213 3.77931 9.77735 3.79358 9.71719 3.81997L5.48281 5.6731L3.63125 9.90747C3.575 10.0356 3.575 10.1809 3.63125 10.309C3.68437 10.4309 3.78281 10.5262 3.90781 10.5747C3.96719 10.5981 4.02812 10.609 4.09062 10.609C4.15937 10.609 4.22656 10.595 4.29063 10.5668L8.525 8.71372L10.3766 4.47935C10.4036 4.41755 10.4178 4.35093 10.4185 4.28349C10.4191 4.21605 10.4061 4.14918 10.3803 4.08687C10.3545 4.02457 10.3164 3.96812 10.2682 3.92092C10.22 3.87371 10.1628 3.83672 10.1 3.81216ZM8.0125 7.53872L8.42188 7.9481L7.75937 8.6106L7.35 8.20122L4.9375 9.25747L5.99219 6.84497L5.59375 6.44497L6.25625 5.78247L6.65469 6.18091L9.06875 5.12622L8.0125 7.53872ZM6.25625 5.78247L5.59375 6.44497L5.99219 6.84497L7.35 8.20122L7.75937 8.6106L8.42188 7.9481L8.0125 7.53872L6.65625 6.18091L6.25625 5.78247Z" fill="#222222"/>
</svg>
