<svg width="20" height="16" viewBox="0 0 20 16" fill="none" xmlns="http://www.w3.org/2000/svg">
<path d="M19.2857 0.135254H0.714286C0.319196 0.135254 0 0.45445 0 0.84954V15.1353C0 15.5303 0.319196 15.8495 0.714286 15.8495H19.2857C19.6808 15.8495 20 15.5303 20 15.1353V0.84954C20 0.45445 19.6808 0.135254 19.2857 0.135254ZM18.3929 2.60847V14.2424H1.60714V2.60847L0.991071 2.12856L1.8683 1.00133L2.82366 1.74463H17.1786L18.1339 1.00133L19.0112 2.12856L18.3929 2.60847ZM17.1786 1.7424L10 7.32275L2.82143 1.7424L1.86607 0.999093L0.988839 2.12633L1.60491 2.60624L9.22991 8.53481C9.44919 8.70517 9.71897 8.79764 9.99665 8.79764C10.2743 8.79764 10.5441 8.70517 10.7634 8.53481L18.3929 2.60847L19.0089 2.12856L18.1317 1.00133L17.1786 1.7424Z" fill="white"/>
</svg>
