<svg width="16" height="18" viewBox="0 0 16 18" fill="none" xmlns="http://www.w3.org/2000/svg">
<path d="M8.37305 0.25L0.873047 2.75V10.25C0.873047 14.3926 4.23047 17.75 8.37305 17.75C12.5156 17.75 15.873 14.3926 15.873 10.25V2.75L8.37305 0.25ZM14.4668 10.25C14.4668 13.6152 11.7383 16.3438 8.37305 16.3438C5.00781 16.3438 2.2793 13.6152 2.2793 10.25V3.80469L8.37305 1.65625L14.4668 3.80469V10.25Z" fill="#222222"/>
<path d="M5.76274 8.27692C5.69757 8.21146 5.62011 8.15951 5.53481 8.12406C5.4495 8.08862 5.35804 8.07037 5.26567 8.07037C5.17329 8.07037 5.08183 8.08862 4.99653 8.12406C4.91122 8.15951 4.83376 8.21146 4.7686 8.27692C4.70313 8.34209 4.65118 8.41955 4.61573 8.50486C4.58029 8.59016 4.56204 8.68162 4.56204 8.77399C4.56204 8.86637 4.58029 8.95783 4.61573 9.04313C4.65118 9.12844 4.70313 9.2059 4.7686 9.27107L7.33695 11.8394C7.3986 11.9012 7.47182 11.9502 7.55242 11.9836C7.63302 12.017 7.71942 12.0342 7.80668 12.0342C7.89394 12.0342 7.98034 12.017 8.06095 11.9836C8.14155 11.9502 8.21476 11.9012 8.27641 11.8394L12.6416 7.47419C12.7034 7.41255 12.7524 7.33933 12.7858 7.25873C12.8193 7.17813 12.8365 7.09172 12.8365 7.00446C12.8365 6.9172 12.8193 6.8308 12.7858 6.7502C12.7524 6.6696 12.7034 6.59638 12.6416 6.53474L12.587 6.48005C12.5253 6.41829 12.4521 6.36929 12.3715 6.33586C12.2909 6.30243 12.2045 6.28522 12.1172 6.28522C12.03 6.28522 11.9436 6.30243 11.863 6.33586C11.7824 6.36929 11.7091 6.41829 11.6475 6.48005L7.8057 10.3199L5.76274 8.27692Z" fill="#222222"/>
</svg>
