<svg width="17" height="16" viewBox="0 0 17 16" fill="none" xmlns="http://www.w3.org/2000/svg">
<path d="M15.8734 15.5H0.873372C0.652359 15.5 0.440397 15.4122 0.284117 15.2559C0.127836 15.0996 0.0400391 14.8877 0.0400391 14.6667V8.40583C0.040026 8.28676 0.0655315 8.16907 0.114837 8.06068C0.164143 7.95229 0.236104 7.85573 0.325872 7.7775L3.37337 5.12V1.33333C3.37337 1.11232 3.46117 0.900358 3.61745 0.744078C3.77373 0.587797 3.98569 0.5 4.20671 0.5H15.8734C16.0944 0.5 16.3063 0.587797 16.4626 0.744078C16.6189 0.900358 16.7067 1.11232 16.7067 1.33333V14.6667C16.7067 14.8877 16.6189 15.0996 16.4626 15.2559C16.3063 15.4122 16.0944 15.5 15.8734 15.5ZM5.87337 13.8333H8.37337V8.785L5.04004 5.87833L1.70671 8.785V13.8333H4.20671V10.5H5.87337V13.8333ZM10.04 13.8333H15.04V2.16667H5.04004V3.93917C5.23504 3.93917 5.43087 4.0075 5.58754 4.145L9.75421 7.7775C9.84397 7.85573 9.91593 7.95229 9.96524 8.06068C10.0145 8.16907 10.0401 8.28676 10.04 8.40583V13.8333ZM11.7067 7.16667H13.3734V8.83333H11.7067V7.16667ZM11.7067 10.5H13.3734V12.1667H11.7067V10.5ZM11.7067 3.83333H13.3734V5.5H11.7067V3.83333ZM8.37337 3.83333H10.04V5.5H8.37337V3.83333Z" fill="#222222"/>
</svg>
