<svg width="18" height="14" viewBox="0 0 18 14" fill="none" xmlns="http://www.w3.org/2000/svg">
<path d="M5.20508 6.10575H12.839C12.8479 6.10575 12.8591 6.10575 12.868 6.10352C12.9662 6.08789 13.031 5.99637 13.0153 5.89816L12.118 0.362444C12.1046 0.275391 12.0287 0.212891 11.9417 0.212891H6.1024C6.01535 0.212891 5.93945 0.275391 5.92606 0.362444L5.02874 5.89816C5.02651 5.90709 5.02651 5.91825 5.02651 5.92718C5.02651 6.02539 5.10686 6.10575 5.20508 6.10575ZM7.24079 1.73075H10.8011L11.2631 4.58789H6.77651L7.24079 1.73075ZM7.2966 8.04102C7.2832 7.95396 7.20731 7.89146 7.12026 7.89146H1.28097C1.19392 7.89146 1.11802 7.95396 1.10463 8.04102L0.20731 13.5767C0.205078 13.5857 0.205078 13.5968 0.205078 13.6057C0.205078 13.704 0.285435 13.7843 0.38365 13.7843H8.01758C8.02651 13.7843 8.03767 13.7843 8.0466 13.7821C8.14481 13.7665 8.20954 13.6749 8.19392 13.5767L7.2966 8.04102ZM1.95731 12.2665L2.41936 9.40932H5.97963L6.44169 12.2665H1.95731ZM17.7921 13.5767L16.8948 8.04102C16.8814 7.95396 16.8055 7.89146 16.7185 7.89146H10.8792C10.7921 7.89146 10.7162 7.95396 10.7028 8.04102L9.80552 13.5767C9.80329 13.5857 9.80329 13.5968 9.80329 13.6057C9.80329 13.704 9.88365 13.7843 9.98186 13.7843H17.6158C17.6247 13.7843 17.6359 13.7843 17.6448 13.7821C17.7408 13.7665 17.8078 13.6749 17.7921 13.5767ZM11.5555 12.2665L12.0176 9.40932H15.5778L16.0399 12.2665H11.5555Z" fill="#222222"/>
</svg>
