<svg width="21" height="20" viewBox="0 0 21 20" fill="none" xmlns="http://www.w3.org/2000/svg">
<path d="M10.373 0C4.85073 0 0.373047 4.47768 0.373047 10C0.373047 15.5223 4.85073 20 10.373 20C15.8954 20 20.373 15.5223 20.373 10C20.373 4.47768 15.8954 0 10.373 0ZM10.373 18.3036C5.78823 18.3036 2.06948 14.5848 2.06948 10C2.06948 5.41518 5.78823 1.69643 10.373 1.69643C14.9579 1.69643 18.6766 5.41518 18.6766 10C18.6766 14.5848 14.9579 18.3036 10.373 18.3036ZM11.4378 9.48214L10.8708 9.35045V6.35268C11.719 6.46875 12.2436 7 12.3329 7.65179C12.344 7.74107 12.4199 7.8058 12.5092 7.8058H13.5114C13.6164 7.8058 13.6989 7.71429 13.69 7.60938C13.5539 6.21875 12.4088 5.32589 10.8797 5.17188V4.44196C10.8797 4.34375 10.7994 4.26339 10.7012 4.26339H10.0739C9.97573 4.26339 9.89537 4.34375 9.89537 4.44196V5.17857C8.31501 5.33259 7.0784 6.20536 7.0784 7.83482C7.0784 9.34375 8.19001 10.0714 9.35742 10.3504L9.90876 10.4911V13.6763C8.92215 13.5446 8.36858 13.0179 8.25474 12.308C8.24135 12.2232 8.16546 12.1607 8.0784 12.1607H7.04715C6.94224 12.1607 6.85965 12.25 6.86858 12.3549C6.96903 13.5826 7.89983 14.7121 9.88644 14.8571V15.558C9.88644 15.6562 9.9668 15.7366 10.065 15.7366H10.6989C10.7972 15.7366 10.8775 15.6563 10.8775 15.5558L10.873 14.8482C12.6208 14.6942 13.8708 13.7589 13.8708 12.0804C13.8686 10.5313 12.8842 9.83929 11.4378 9.48214ZM9.90653 9.12054C9.78153 9.08482 9.67662 9.05134 9.57171 9.00893C8.81724 8.73661 8.4668 8.29688 8.4668 7.72991C8.4668 6.91964 9.08064 6.45759 9.90653 6.35268V9.12054ZM10.8708 13.683V10.6987C10.94 10.7188 11.0025 10.7344 11.0672 10.7478C12.123 11.0692 12.478 11.5156 12.478 12.2009C12.478 13.0737 11.8217 13.5982 10.8708 13.683Z" fill="#222222"/>
</svg>
