<svg width="60" height="60" viewBox="0 0 60 60" fill="none" xmlns="http://www.w3.org/2000/svg">
<path d="M16.6168 35.3213C16.8244 35.5289 17.1659 35.5289 17.3735 35.3213L24.1905 28.5043L29.9561 34.2766C30.1637 34.4842 30.5052 34.4842 30.7128 34.2766L45.8668 19.1092C46.0744 18.9016 46.0744 18.5601 45.8668 18.3525L43.4025 15.8882C43.3018 15.7885 43.1659 15.7326 43.0242 15.7326C42.8825 15.7326 42.7465 15.7885 42.6458 15.8882L30.3378 28.2097L24.5722 22.4373C24.4715 22.3376 24.3355 22.2817 24.1938 22.2817C24.0521 22.2817 23.9162 22.3376 23.8155 22.4373L14.1525 32.1003C14.0528 32.201 13.9969 32.3369 13.9969 32.4786C13.9969 32.6203 14.0528 32.7563 14.1525 32.857L16.6168 35.3213Z" fill="#D91F35"/>
<path d="M56.2473 6.43276H32.4081V2.14704C32.4081 1.8524 32.167 1.61133 31.8723 1.61133H28.1223C27.8277 1.61133 27.5866 1.8524 27.5866 2.14704V6.43276H3.74735C2.56208 6.43276 1.60449 7.39035 1.60449 8.57561V43.397C1.60449 44.5823 2.56208 45.5399 3.74735 45.5399H27.6134V47.6828L16.5777 54.9216C16.519 54.9597 16.4685 55.009 16.429 55.0667C16.3895 55.1244 16.3617 55.1894 16.3474 55.2578C16.3331 55.3263 16.3325 55.3969 16.3456 55.4656C16.3587 55.5344 16.3852 55.5998 16.4237 55.6582L18.4527 58.8189V58.8256C18.6134 59.0734 18.9482 59.1403 19.196 58.9796L29.9973 51.8948L40.7987 58.9796C41.0465 59.1403 41.3813 59.0734 41.542 58.8256V58.8189L43.571 55.6582C43.6473 55.5398 43.6739 55.3962 43.6451 55.2583C43.6163 55.1204 43.5343 54.9995 43.417 54.9216L32.4081 47.7028V45.5399H56.2473C57.4326 45.5399 58.3902 44.5823 58.3902 43.397V8.57561C58.3902 7.39035 57.4326 6.43276 56.2473 6.43276ZM53.5688 40.7185H6.42592V11.2542H53.5688V40.7185Z" fill="#D91F35"/>
</svg>
