<svg width="21" height="22" viewBox="0 0 21 22" fill="none" xmlns="http://www.w3.org/2000/svg">
<path fill-rule="evenodd" clip-rule="evenodd" d="M2.37272 2.50004C2.09658 2.50004 1.87272 2.7239 1.87272 3.00004L1.87272 13.6667C1.87272 13.9429 2.09658 14.1667 2.37272 14.1667L18.3727 14.1667C18.6489 14.1667 18.8727 13.9429 18.8727 13.6667V3.00004C18.8727 2.7239 18.6489 2.50004 18.3727 2.50004L2.37272 2.50004ZM0.206055 3.00004C0.206055 1.80342 1.1761 0.833374 2.37272 0.833374L18.3727 0.833375C19.5693 0.833375 20.5394 1.80342 20.5394 3.00004V13.6667C20.5394 14.8633 19.5693 15.8334 18.3727 15.8334L11.2061 15.8334V19.5H17.7061V21.1667H3.03939V19.5H9.53939V15.8334L2.37272 15.8334C1.17611 15.8334 0.206055 14.8633 0.206055 13.6667L0.206055 3.00004Z" fill="#222222"/>
</svg>
