<svg width="23" height="23" viewBox="0 0 23 23" fill="none" xmlns="http://www.w3.org/2000/svg">
<path d="M11.4805 15.8945L12.7793 14.5762C11.4902 14.4785 10.6504 14.0879 10.0156 13.4531C8.30664 11.7441 8.31641 9.32227 10.0059 7.63281L13.1895 4.44922C14.8984 2.75 17.3008 2.74023 19.0098 4.44922C20.7188 6.1582 20.6992 8.57031 19.0098 10.2598L17.0957 12.1738C17.3691 12.7988 17.4277 13.5215 17.3301 14.1562L20.2012 11.2949C22.5352 8.95117 22.5547 5.64062 20.1914 3.26758C17.8184 0.894531 14.498 0.914062 12.1543 3.25781L8.82422 6.59766C6.48047 8.94141 6.46094 12.2617 8.83398 14.625C9.44922 15.2402 10.2305 15.6797 11.4805 15.8945ZM11.7246 7.84766L10.4258 9.16602C11.7148 9.27344 12.5547 9.6543 13.1895 10.2891C14.8984 11.998 14.8887 14.4199 13.1992 16.1094L10.0059 19.293C8.30664 20.9922 5.9043 21.002 4.19531 19.3027C2.48633 17.584 2.49609 15.1816 4.19531 13.4824L6.10938 11.5684C5.83594 10.9531 5.76758 10.2207 5.875 9.58594L3.00391 12.4473C0.669922 14.791 0.650391 18.1113 3.01367 20.4746C5.38672 22.8477 8.70703 22.8281 11.041 20.4941L14.3809 17.1445C16.7246 14.8008 16.7441 11.4805 14.3711 9.11719C13.7559 8.50195 12.9746 8.0625 11.7246 7.84766Z" fill="#222222"/>
</svg>
