<svg width="20" height="20" viewBox="0 0 20 20" fill="none" xmlns="http://www.w3.org/2000/svg">
<g clip-path="url(#clip0_370_2535)">
<path d="M19.987 0.668107C19.9861 0.664773 19.9849 0.661439 19.984 0.658105C19.9699 0.591846 19.9457 0.52767 19.9153 0.465578C19.9074 0.449743 19.8994 0.434324 19.8907 0.418488C19.8549 0.355563 19.8132 0.295138 19.7594 0.24138C19.7057 0.187623 19.6448 0.14595 19.5819 0.110112C19.5669 0.10136 19.5519 0.0938594 19.5361 0.0859417C19.4723 0.0546873 19.4069 0.029267 19.3385 0.0150984C19.3364 0.0146816 19.3352 0.0142649 19.3335 0.0138482C19.2623 -0.000320467 19.1898 -0.00240409 19.1172 0.00217989C19.1014 0.00301334 19.0856 0.00468024 19.0697 0.00676386C18.9964 0.0155151 18.9235 0.0309339 18.8539 0.0592712L0.518383 7.56033C0.191253 7.69409 -0.0158592 8.01956 0.00122654 8.37211C0.0183123 8.72507 0.255846 9.02887 0.594643 9.13013L8.49909 11.5017L10.8703 19.4062C10.9719 19.7445 11.2757 19.9821 11.6283 19.9992C11.642 19.9996 11.6554 20 11.6691 20C12.0058 20 12.3117 19.7966 12.4405 19.482L19.9415 1.14609C19.9415 1.14567 19.9415 1.14567 19.9415 1.14526C19.9695 1.07691 19.9845 1.00565 19.9932 0.933561C19.9953 0.915642 19.9974 0.898139 19.9982 0.88022C20.0024 0.809377 20.0007 0.738117 19.987 0.668107ZM3.33128 8.21042L15.6513 3.17013L8.93123 9.89065L3.33128 8.21042ZM11.7896 16.6695L10.1097 11.0692L16.8294 4.34946L11.7896 16.6695Z" fill="#4E4E4E"/>
<path d="M7.25695 12.7402C6.93149 12.4147 6.40392 12.4147 6.07846 12.7402L3.99483 14.8238C3.66937 15.1493 3.66937 15.6768 3.99483 16.0023C4.15777 16.1652 4.37072 16.2465 4.58408 16.2465C4.79744 16.2465 5.01039 16.1652 5.17333 16.0023L7.25695 13.9187C7.58242 13.5932 7.58242 13.0656 7.25695 12.7402Z" fill="#4E4E4E"/>
<path d="M2.67302 12.7402C2.34755 12.4147 1.81998 12.4147 1.49452 12.7402L0.244341 13.9904C-0.0811215 14.3158 -0.0811215 14.8434 0.244341 15.1688C0.407281 15.3318 0.620227 15.413 0.833591 15.413C1.04695 15.413 1.2599 15.3318 1.42284 15.1688L2.67302 13.9187C2.99848 13.5932 2.99848 13.0656 2.67302 12.7402Z" fill="#4E4E4E"/>
<path d="M7.25871 17.3261C6.93325 17.0007 6.40567 17.0007 6.08021 17.3261L4.83003 18.5763C4.50457 18.9018 4.50457 19.4293 4.83003 19.7548C4.99297 19.9177 5.20592 19.999 5.41928 19.999C5.63265 19.999 5.84559 19.9177 6.00853 19.7548L7.25871 18.5046C7.58417 18.1792 7.58417 17.6516 7.25871 17.3261Z" fill="#4E4E4E"/>
</g>
<defs>
<clipPath id="clip0_370_2535">
<rect width="20" height="20" fill="white"/>
</clipPath>
</defs>
</svg>
