<svg width="42" height="42" viewBox="0 0 42 42" fill="none" xmlns="http://www.w3.org/2000/svg">
<path d="M21 0C9.40313 0 0 9.40313 0 21C0 32.5969 9.40313 42 21 42C32.5969 42 42 32.5969 42 21C42 9.40313 32.5969 0 21 0ZM10.5 16.7344C10.512 16.1456 10.7544 15.585 11.175 15.1728C11.5956 14.7607 12.1611 14.5298 12.75 14.5298C13.3389 14.5298 13.9044 14.7607 14.325 15.1728C14.7456 15.585 14.988 16.1456 15 16.7344C14.988 17.3232 14.7456 17.8838 14.325 18.2959C13.9044 18.7081 13.3389 18.9389 12.75 18.9389C12.1611 18.9389 11.5956 18.7081 11.175 18.2959C10.7544 17.8838 10.512 17.3232 10.5 16.7344ZM21 29.4844C16.9922 29.4844 13.7063 26.3297 13.5 22.3781C13.4975 22.3273 13.5053 22.2765 13.523 22.2289C13.5407 22.1812 13.5679 22.1376 13.603 22.1008C13.6381 22.0639 13.6803 22.0346 13.727 22.0146C13.7738 21.9946 13.8241 21.9843 13.875 21.9844H16.1297C16.3266 21.9844 16.4953 22.1344 16.5094 22.3313C16.6875 24.6516 18.6328 26.4844 21 26.4844C23.3672 26.4844 25.3172 24.6516 25.4906 22.3313C25.5047 22.1344 25.6734 21.9844 25.8703 21.9844H28.125C28.1759 21.9843 28.2262 21.9946 28.273 22.0146C28.3197 22.0346 28.3619 22.0639 28.397 22.1008C28.4321 22.1376 28.4593 22.1812 28.477 22.2289C28.4947 22.2765 28.5025 22.3273 28.5 22.3781C28.2938 26.3297 25.0078 29.4844 21 29.4844ZM29.25 18.9844C28.6612 18.9724 28.1006 18.73 27.6884 18.3094C27.2763 17.8887 27.0455 17.3233 27.0455 16.7344C27.0455 16.1455 27.2763 15.58 27.6884 15.1594C28.1006 14.7387 28.6612 14.4964 29.25 14.4844C29.8388 14.4964 30.3994 14.7387 30.8116 15.1594C31.2237 15.58 31.4545 16.1455 31.4545 16.7344C31.4545 17.3233 31.2237 17.8887 30.8116 18.3094C30.3994 18.73 29.8388 18.9724 29.25 18.9844Z" fill="#FFC22B"/>
</svg>
