<svg width="14" height="14" viewBox="0 0 14 14" fill="none" xmlns="http://www.w3.org/2000/svg">
<path d="M13.1248 1.49707H0.874817C0.806067 1.49707 0.749817 1.55332 0.749817 1.62207V2.62207C0.749817 2.69082 0.806067 2.74707 0.874817 2.74707H13.1248C13.1936 2.74707 13.2498 2.69082 13.2498 2.62207V1.62207C13.2498 1.55332 13.1936 1.49707 13.1248 1.49707ZM13.1248 11.2471H0.874817C0.806067 11.2471 0.749817 11.3033 0.749817 11.3721V12.3721C0.749817 12.4408 0.806067 12.4971 0.874817 12.4971H13.1248C13.1936 12.4971 13.2498 12.4408 13.2498 12.3721V11.3721C13.2498 11.3033 13.1936 11.2471 13.1248 11.2471ZM13.1248 6.37207H0.874817C0.806067 6.37207 0.749817 6.42832 0.749817 6.49707V7.49707C0.749817 7.56582 0.806067 7.62207 0.874817 7.62207H13.1248C13.1936 7.62207 13.2498 7.56582 13.2498 7.49707V6.49707C13.2498 6.42832 13.1936 6.37207 13.1248 6.37207Z" fill="#222222"/>
</svg>
