<svg width="64" height="64" viewBox="0 0 64 64" fill="none" xmlns="http://www.w3.org/2000/svg">
<path d="M32 4C16.5375 4 4 16.5375 4 32C4 47.4625 16.5375 60 32 60C47.4625 60 60 47.4625 60 32C60 16.5375 47.4625 4 32 4ZM41.0062 32.4313L27.3563 42.3625C27.2814 42.4163 27.1932 42.4484 27.1013 42.4553C27.0094 42.4622 26.9174 42.4436 26.8354 42.4016C26.7533 42.3597 26.6845 42.2959 26.6363 42.2173C26.5882 42.1387 26.5626 42.0484 26.5625 41.9562V22.1063C26.5622 22.0139 26.5875 21.9233 26.6355 21.8444C26.6836 21.7656 26.7525 21.7016 26.8347 21.6595C26.9169 21.6175 27.0091 21.599 27.1012 21.6061C27.1932 21.6133 27.2815 21.6458 27.3563 21.7L41.0062 31.625C41.0707 31.6706 41.1233 31.731 41.1596 31.8012C41.196 31.8713 41.2149 31.9491 41.2149 32.0281C41.2149 32.1071 41.196 32.1849 41.1596 32.2551C41.1233 32.3252 41.0707 32.3856 41.0062 32.4313Z" fill="white"/>
</svg>
