<svg width="17" height="18" viewBox="0 0 17 18" fill="none" xmlns="http://www.w3.org/2000/svg">
<path d="M16.3631 15.8837L11.1459 10.6665C11.9555 9.61984 12.3934 8.34015 12.3934 6.99417C12.3934 5.38301 11.7646 3.87229 10.6276 2.73323C9.49051 1.59417 7.97578 0.96738 6.36663 0.96738C4.75748 0.96738 3.24275 1.59617 2.10569 2.73323C0.966629 3.87028 0.339844 5.38301 0.339844 6.99417C0.339844 8.60332 0.968638 10.118 2.10569 11.2551C3.24275 12.3942 4.75547 13.021 6.36663 13.021C7.71261 13.021 8.99029 12.583 10.0369 11.7754L15.2541 16.9906C15.2694 17.0059 15.2876 17.018 15.3076 17.0263C15.3276 17.0346 15.349 17.0389 15.3706 17.0389C15.3923 17.0389 15.4137 17.0346 15.4337 17.0263C15.4537 17.018 15.4719 17.0059 15.4872 16.9906L16.3631 16.1167C16.3784 16.1014 16.3905 16.0832 16.3988 16.0633C16.4071 16.0433 16.4113 16.0218 16.4113 16.0002C16.4113 15.9786 16.4071 15.9571 16.3988 15.9371C16.3905 15.9171 16.3784 15.899 16.3631 15.8837ZM9.54877 10.1763C8.69699 11.0261 7.56797 11.4942 6.36663 11.4942C5.16529 11.4942 4.03627 11.0261 3.18449 10.1763C2.33471 9.32452 1.86663 8.19551 1.86663 6.99417C1.86663 5.79283 2.33471 4.6618 3.18449 3.81202C4.03627 2.96225 5.16529 2.49417 6.36663 2.49417C7.56797 2.49417 8.699 2.96024 9.54877 3.81202C10.3985 4.66381 10.8666 5.79283 10.8666 6.99417C10.8666 8.19551 10.3985 9.32653 9.54877 10.1763Z" fill="#D54640"/>
</svg>
