<svg width="18" height="20" viewBox="0 0 18 20" fill="none" xmlns="http://www.w3.org/2000/svg">
<path d="M0.798828 19.5391C1.20898 19.5391 1.54102 19.2168 1.54102 18.8066V13.377C1.78516 13.2695 2.70312 12.918 4.13867 12.918C7.75195 12.918 10.0176 14.6855 13.4551 14.6855C14.9785 14.6855 15.5449 14.5195 16.2871 14.1875C16.9609 13.8848 17.4004 13.377 17.4004 12.4785V2.56641C17.4004 2.03906 16.9512 1.73633 16.3848 1.73633C15.9062 1.73633 15.0078 2.14648 13.3281 2.14648C9.89062 2.14648 7.63477 0.378906 4.01172 0.378906C2.48828 0.378906 1.91211 0.544922 1.16992 0.876953C0.496094 1.17969 0.0566406 1.6875 0.0566406 2.57617V18.8066C0.0566406 19.207 0.398438 19.5391 0.798828 19.5391ZM13.4551 13.2109C10.2031 13.2109 7.89844 11.4434 4.13867 11.4434C3.06445 11.4434 2.08789 11.5703 1.54102 11.7949V2.625C1.67773 2.30273 2.48828 1.85352 4.01172 1.85352C7.44922 1.85352 9.74414 3.62109 13.3281 3.62109C14.3926 3.62109 15.2715 3.49414 15.9258 3.30859V12.4395C15.7891 12.7617 14.9785 13.2109 13.4551 13.2109Z" fill="#4E4E4E"/>
</svg>
