<svg width="12" height="15" viewBox="0 0 12 15" fill="none" xmlns="http://www.w3.org/2000/svg">
<path d="M10.75 11.5008H10.375V6.18831C10.375 3.98363 8.74531 2.16175 6.625 1.85863V1.25081C6.625 0.905501 6.34531 0.625813 6 0.625813C5.65469 0.625813 5.375 0.905501 5.375 1.25081V1.85863C3.25469 2.16175 1.625 3.98363 1.625 6.18831V11.5008H1.25C0.973438 11.5008 0.75 11.7243 0.75 12.0008V12.5008C0.75 12.5696 0.80625 12.6258 0.875 12.6258H4.25C4.25 13.5914 5.03438 14.3758 6 14.3758C6.96563 14.3758 7.75 13.5914 7.75 12.6258H11.125C11.1938 12.6258 11.25 12.5696 11.25 12.5008V12.0008C11.25 11.7243 11.0266 11.5008 10.75 11.5008ZM6 13.3758C5.58594 13.3758 5.25 13.0399 5.25 12.6258H6.75C6.75 13.0399 6.41406 13.3758 6 13.3758ZM2.75 11.5008V6.18831C2.75 5.31956 3.0875 4.50394 3.70156 3.88988C4.31563 3.27581 5.13125 2.93831 6 2.93831C6.86875 2.93831 7.68438 3.27581 8.29844 3.88988C8.9125 4.50394 9.25 5.31956 9.25 6.18831V11.5008H2.75Z" fill="#222222"/>
</svg>
