<svg width="21" height="19" viewBox="0 0 21 19" fill="none" xmlns="http://www.w3.org/2000/svg">
<path fill-rule="evenodd" clip-rule="evenodd" d="M1.53971 2.83337V0.333374H3.20638V2.83337H20.373V4.50004H17.873V6.83337H19.7064C20.1666 6.83337 20.5397 7.20647 20.5397 7.66671V15.6667C20.5397 16.1269 20.1666 16.5 19.7064 16.5H6.37305C5.91281 16.5 5.53971 16.1269 5.53971 15.6667V7.66671C5.53971 7.20647 5.91281 6.83337 6.37305 6.83337H8.20638V4.50004H3.20638V19H1.53971V4.50004H0.373047V2.83337H1.53971ZM9.87305 4.50004V6.83337H16.2064V4.50004H9.87305ZM7.20638 8.50004V14.8334H18.873V8.50004H7.20638Z" fill="#222222"/>
</svg>
