<svg width="13" height="10" viewBox="0 0 13 10" fill="none" xmlns="http://www.w3.org/2000/svg">
<path d="M12.498 8.67342H0.248047C0.179297 8.67342 0.123047 8.72967 0.123047 8.79842V9.67342C0.123047 9.74217 0.179297 9.79842 0.248047 9.79842H12.498C12.5668 9.79842 12.623 9.74217 12.623 9.67342V8.79842C12.623 8.72967 12.5668 8.67342 12.498 8.67342ZM0.962109 6.71717L1.58242 7.33436C1.63086 7.3828 1.71055 7.3828 1.75898 7.33436L5.42617 3.67967L6.95117 5.19998C7.04513 5.29307 7.17204 5.3453 7.3043 5.3453C7.43656 5.3453 7.56347 5.29307 7.65742 5.19998L11.7855 1.08748C11.834 1.03905 11.834 0.959359 11.7855 0.910922L11.1652 0.292172C11.1417 0.268909 11.11 0.255859 11.077 0.255859C11.0439 0.255859 11.0122 0.268909 10.9887 0.292172L7.30586 3.96405L5.7793 2.44373C5.68534 2.35065 5.55843 2.29842 5.42617 2.29842C5.29391 2.29842 5.167 2.35065 5.07305 2.44373L0.962109 6.54061C0.950422 6.55215 0.941142 6.5659 0.934808 6.58105C0.928474 6.5962 0.925213 6.61247 0.925213 6.62889C0.925213 6.64532 0.928474 6.66158 0.934808 6.67673C0.941142 6.69189 0.950422 6.70563 0.962109 6.71717Z" fill="#222222" fill-opacity="0.8"/>
</svg>
