<svg width="15" height="18" viewBox="0 0 15 18" fill="none" xmlns="http://www.w3.org/2000/svg">
<path d="M13.125 7.45525H12.3999H12.3997V4.90115C12.3997 2.19869 10.2011 0 7.49855 0C4.79617 0 2.59747 2.19869 2.59747 4.90118V7.45529H1.87219C1.29885 7.45529 0.833984 7.92008 0.833984 8.49346V9.12502V16.3303V16.9618C0.833984 17.5352 1.29882 18 1.87219 18H7.49858H13.125C13.6984 18 14.1632 17.5352 14.1632 16.9618V16.3303V9.12502V8.49346C14.1632 7.92004 13.6984 7.45525 13.125 7.45525ZM8.60363 14.8919H6.39358L6.78912 13.0071C6.41921 12.7717 6.17213 12.3607 6.17213 11.8897C6.17213 11.1572 6.76605 10.5634 7.49858 10.5634C8.23115 10.5634 8.82496 11.1572 8.82496 11.8897C8.82496 12.3607 8.57795 12.7717 8.20808 13.007L8.60363 14.8919ZM10.6509 7.45525H7.49858H4.34642H4.34624V4.90115C4.34624 3.16278 5.76029 1.74877 7.49858 1.74877C9.23695 1.74877 10.6509 3.16282 10.6509 4.90115V7.45525Z" fill="#4E4E4E"/>
</svg>
