<svg width="20" height="20" viewBox="0 0 20 20" fill="none" xmlns="http://www.w3.org/2000/svg">
<path d="M18.9125 1.13301C16.8423 0.211523 12.3819 0 10 0C7.63414 0 3.15988 0.210586 1.0875 1.13301C0.365859 1.45418 0 1.86641 0 2.3582V13.0117C0 13.4736 0.320703 13.8647 0.953203 14.1741C1.39652 14.391 2.02023 14.5863 2.80711 14.7546C3.17301 14.8329 3.51562 14.5529 3.51562 14.1816V12.323C4.21672 12.1938 5.03043 12.0853 5.91094 12.0037C6.37137 12.888 7.11016 13.6052 8.01055 14.0381V14.3946L7.1591 14.6828C5.12941 15.3698 3.76562 17.2712 3.76562 19.4141C3.76562 19.7377 4.02797 20 4.35156 20H15.6484C15.972 20 16.2344 19.7377 16.2344 19.4141C16.2344 17.2712 14.8706 15.3698 12.8409 14.6828L11.9895 14.3946V14.0381C12.8898 13.6052 13.6286 12.888 14.0891 12.0037C14.9696 12.0853 15.7833 12.1938 16.4844 12.323V14.1816C16.4844 14.5538 16.8279 14.8327 17.1929 14.7546C17.9798 14.5863 18.6035 14.391 19.0468 14.1741C19.6793 13.8648 20 13.4736 20 13.0117V2.3582C20 1.86641 19.6341 1.45418 18.9125 1.13301ZM1.17188 12.9354V3.61973C1.49117 3.75418 1.88332 3.87949 2.34375 3.99418V13.436C1.52016 13.2059 1.24703 13.0051 1.17188 12.9354ZM5.85938 8.9V6.64414H14.1406V8.9C13.8797 8.9 11.83 8.9 11.5208 8.9L10.4143 7.79352C10.1855 7.56469 9.81453 7.56469 9.5857 7.79352L8.47922 8.9C8.17656 8.9 6.13797 8.9 5.85938 8.9ZM6.89977 5.47227C7.46164 4.30512 8.66711 3.51562 10 3.51562C11.3784 3.51562 12.5531 4.32254 13.1018 5.47227H6.89977ZM9.18242 14.4175C9.70652 14.5118 10.2638 14.5171 10.8175 14.4175V14.8148C10.8175 15.2655 10.4508 15.632 9.99996 15.632C9.54914 15.632 9.18238 15.2654 9.18238 14.8148V14.4175H9.18242ZM15.0176 18.8281H4.98242C5.19754 17.4353 6.16926 16.255 7.53488 15.7928L8.16383 15.5799C8.46426 16.298 9.17406 16.8039 10 16.8039C10.8259 16.8039 11.5358 16.298 11.8362 15.5799L12.4651 15.7928C13.8307 16.255 14.8025 17.4353 15.0176 18.8281ZM10 13.3184C8.16922 13.3184 6.66832 11.8786 6.56996 10.0719H8.72188C8.87731 10.0719 9.02633 10.0101 9.13617 9.90023L10 9.03644L10.8638 9.90023C10.9737 10.0101 11.1227 10.0719 11.2781 10.0719H13.43C13.3317 11.8786 11.8308 13.3184 10 13.3184ZM14.5011 10.8662C14.5573 10.6087 14.5918 10.3433 14.6029 10.0719H14.7266C15.0502 10.0719 15.3125 9.80953 15.3125 9.48594V6.0582C15.3125 5.73461 15.0502 5.47227 14.7266 5.47227H14.3642C13.7557 3.67348 12.0524 2.34375 10 2.34375C8.04195 2.34375 6.27832 3.58602 5.63711 5.47227H5.27344C4.94984 5.47227 4.6875 5.73461 4.6875 6.0582V9.48594C4.6875 9.80953 4.94984 10.0719 5.27344 10.0719H5.39715C5.40813 10.3433 5.4427 10.6087 5.49891 10.8662C4.7852 10.9384 4.11633 11.0284 3.51562 11.1326V3.52813C3.51562 3.25176 3.32254 3.01297 3.05227 2.95516C1.94664 2.71863 1.46824 2.48645 1.27227 2.35809C1.51094 2.20133 2.16805 1.89023 3.86141 1.60824C7.35914 1.02578 12.6486 1.02707 16.1386 1.60824C17.832 1.89023 18.4891 2.20133 18.7277 2.35809C18.5317 2.48645 18.0533 2.71863 16.9477 2.95516C16.6775 3.01297 16.4844 3.25176 16.4844 3.52813V11.1326C15.8837 11.0284 15.2148 10.9384 14.5011 10.8662ZM18.8281 12.9354C18.753 13.0051 18.4798 13.2059 17.6562 13.436C17.6562 13.1621 17.6562 4.58035 17.6562 3.99414C18.1167 3.87945 18.5088 3.75414 18.8281 3.61969V12.9354Z" fill="#4E4E4E"/>
<path d="M10.2738 11.1989C10.1229 11.3499 9.87727 11.3499 9.72633 11.1989C9.49754 10.9701 9.12652 10.9701 8.8977 11.1989C8.66887 11.4278 8.66887 11.7987 8.8977 12.0276C9.50555 12.6354 10.4946 12.6354 11.1024 12.0276C11.3312 11.7987 11.3312 11.4278 11.1024 11.1989C10.8737 10.9701 10.5027 10.9701 10.2738 11.1989Z" fill="#4E4E4E"/>
</svg>
