<svg width="16" height="16" viewBox="0 0 16 16" fill="none" xmlns="http://www.w3.org/2000/svg">
<path d="M15.3714 5.74457C14.9698 4.79405 14.3877 3.93048 13.6571 3.20171C12.9284 2.47119 12.0648 1.88901 11.1143 1.48743C10.1268 1.06957 9.08036 0.858856 8 0.858856C6.91964 0.858856 5.87321 1.06957 4.88571 1.48743C3.93519 1.88901 3.07162 2.47119 2.34286 3.20171C1.61234 3.93048 1.03015 4.79405 0.628571 5.74457C0.210714 6.73207 0 7.7785 0 8.85886C0 11.2285 1.04107 13.4606 2.85536 14.9856L2.88571 15.0106C2.98929 15.0964 3.11964 15.1446 3.25357 15.1446H12.7482C12.8821 15.1446 13.0125 15.0964 13.1161 15.0106L13.1464 14.9856C14.9589 13.4606 16 11.2285 16 8.85886C16 7.7785 15.7875 6.73207 15.3714 5.74457ZM12.4536 13.7874H3.54643C2.85642 13.1653 2.30494 12.405 1.92778 11.5559C1.55062 10.7068 1.3562 9.78794 1.35714 8.85886C1.35714 7.08386 2.04821 5.416 3.30357 4.16243C4.55893 2.90707 6.22679 2.216 8 2.216C9.775 2.216 11.4429 2.90707 12.6964 4.16243C13.9518 5.41779 14.6429 7.08564 14.6429 8.85886C14.6429 10.7446 13.8482 12.5285 12.4536 13.7874ZM9.99107 6.38564C9.96422 6.35906 9.92796 6.34414 9.89018 6.34414C9.85239 6.34414 9.81614 6.35906 9.78929 6.38564L8.28036 7.89457C7.94643 7.80529 7.57679 7.891 7.31429 8.1535C7.22131 8.2463 7.14755 8.35652 7.09722 8.47787C7.04689 8.59921 7.02099 8.72928 7.02099 8.86064C7.02099 8.99201 7.04689 9.12208 7.09722 9.24342C7.14755 9.36476 7.22131 9.47499 7.31429 9.56779C7.40709 9.66076 7.51731 9.73452 7.63865 9.78485C7.75999 9.83518 7.89007 9.86109 8.02143 9.86109C8.15279 9.86109 8.28287 9.83518 8.40421 9.78485C8.52555 9.73452 8.63577 9.66076 8.72857 9.56779C8.85294 9.44379 8.94237 9.28917 8.98784 9.11954C9.0333 8.94991 9.03319 8.77128 8.9875 8.60171L10.4964 7.09279C10.5518 7.03743 10.5518 6.94636 10.4964 6.891L9.99107 6.38564ZM7.60714 4.57314H8.39286C8.47143 4.57314 8.53572 4.50886 8.53572 4.43029V3.00171C8.53572 2.92314 8.47143 2.85886 8.39286 2.85886H7.60714C7.52857 2.85886 7.46429 2.92314 7.46429 3.00171V4.43029C7.46429 4.50886 7.52857 4.57314 7.60714 4.57314ZM12.25 8.466V9.25171C12.25 9.33029 12.3143 9.39457 12.3929 9.39457H13.8214C13.9 9.39457 13.9643 9.33029 13.9643 9.25171V8.466C13.9643 8.38743 13.9 8.32314 13.8214 8.32314H12.3929C12.3143 8.32314 12.25 8.38743 12.25 8.466ZM12.4768 4.94457L11.9214 4.38921C11.8946 4.36263 11.8583 4.34771 11.8205 4.34771C11.7828 4.34771 11.7465 4.36263 11.7196 4.38921L10.7089 5.39993C10.6823 5.42678 10.6674 5.46304 10.6674 5.50082C10.6674 5.53861 10.6823 5.57486 10.7089 5.60171L11.2643 6.15707C11.3196 6.21243 11.4107 6.21243 11.4661 6.15707L12.4768 5.14636C12.5321 5.091 12.5321 4.99993 12.4768 4.94457ZM4.2875 4.38921C4.26065 4.36263 4.22439 4.34771 4.18661 4.34771C4.14882 4.34771 4.11256 4.36263 4.08571 4.38921L3.53036 4.94457C3.50377 4.97142 3.48886 5.00768 3.48886 5.04546C3.48886 5.08325 3.50377 5.11951 3.53036 5.14636L4.54107 6.15707C4.59643 6.21243 4.6875 6.21243 4.74286 6.15707L5.29821 5.60171C5.35357 5.54636 5.35357 5.45529 5.29821 5.39993L4.2875 4.38921ZM3.53571 8.32314H2.10714C2.02857 8.32314 1.96429 8.38743 1.96429 8.466V9.25171C1.96429 9.33029 2.02857 9.39457 2.10714 9.39457H3.53571C3.61429 9.39457 3.67857 9.33029 3.67857 9.25171V8.466C3.67857 8.38743 3.61429 8.32314 3.53571 8.32314Z" fill="white"/>
</svg>
