<svg width="53" height="49" viewBox="0 0 15 16" fill="none" xmlns="http://www.w3.org/2000/svg">
<path d="M13.8222 0.859314H0.679339C0.363267 0.859314 0.10791 1.11467 0.10791 1.43074V14.5736C0.10791 14.8897 0.363267 15.145 0.679339 15.145H13.8222C14.1383 15.145 14.3936 14.8897 14.3936 14.5736V1.43074C14.3936 1.11467 14.1383 0.859314 13.8222 0.859314ZM13.1079 9.14503H7.53648V6.85931H13.1079V9.14503ZM13.1079 13.8593H1.39362V2.14503H13.1079V5.71646H6.96505C6.64898 5.71646 6.39363 5.97181 6.39363 6.28789V9.71646C6.39363 10.0325 6.64898 10.2879 6.96505 10.2879H13.1079V13.8593ZM8.46505 8.00217C8.46505 8.19161 8.54031 8.37329 8.67426 8.50725C8.80822 8.6412 8.9899 8.71646 9.17934 8.71646C9.36878 8.71646 9.55046 8.6412 9.68442 8.50725C9.81837 8.37329 9.89363 8.19161 9.89363 8.00217C9.89363 7.81273 9.81837 7.63105 9.68442 7.4971C9.55046 7.36314 9.36878 7.28789 9.17934 7.28789C8.9899 7.28789 8.80822 7.36314 8.67426 7.4971C8.54031 7.63105 8.46505 7.81273 8.46505 8.00217Z" fill="#D91F35"/>
</svg>
