<svg width="21" height="21" viewBox="0 0 21 21" fill="none" xmlns="http://www.w3.org/2000/svg">
<path fill-rule="evenodd" clip-rule="evenodd" d="M6.37305 2.50004C4.62415 2.50004 3.20638 3.91781 3.20638 5.66671V10.1667H20.373V11.8334H19.2064V13.6667C19.2064 16.0519 17.4786 18.0336 15.2064 18.4285V21H13.5397V18.5H7.20638V21H5.53971V18.4285C3.26746 18.0336 1.53971 16.0519 1.53971 13.6667V11.8334H0.373047V10.1667H1.53971V5.66671C1.53971 2.99733 3.70367 0.833374 6.37305 0.833374H9.87305V3.66671H8.20638V2.50004H6.37305ZM3.20638 11.8334V13.6667C3.20638 15.4156 4.62415 16.8334 6.37305 16.8334H14.373C16.122 16.8334 17.5397 15.4156 17.5397 13.6667V11.8334H3.20638ZM11.0397 6.50004H7.03971V4.83337H11.0397V6.50004Z" fill="#222222"/>
</svg>
