<svg width="19" height="18" viewBox="0 0 19 18" fill="none" xmlns="http://www.w3.org/2000/svg">
<path d="M16.8727 15.6666H18.5394V17.3333H0.206055V15.6666H1.87272V1.49996C1.87272 1.27895 1.96052 1.06698 2.1168 0.910704C2.27308 0.754423 2.48504 0.666626 2.70605 0.666626H16.0394C16.2604 0.666626 16.4724 0.754423 16.6286 0.910704C16.7849 1.06698 16.8727 1.27895 16.8727 1.49996V15.6666ZM15.2061 15.6666V2.33329H3.53939V15.6666H15.2061ZM6.03939 8.16663H8.53939V9.83329H6.03939V8.16663ZM6.03939 4.83329H8.53939V6.49996H6.03939V4.83329ZM6.03939 11.5H8.53939V13.1666H6.03939V11.5ZM10.2061 11.5H12.7061V13.1666H10.2061V11.5ZM10.2061 8.16663H12.7061V9.83329H10.2061V8.16663ZM10.2061 4.83329H12.7061V6.49996H10.2061V4.83329Z" fill="#222222"/>
</svg>
