<svg width="24" height="24" viewBox="0 0 24 24" fill="none" xmlns="http://www.w3.org/2000/svg">
<g clip-path="url(#clip0_706_41394)">
<path d="M16.5952 1.48242H2.71406C1.21734 1.48242 0 2.69977 0 4.19649V16.3606C0 16.9367 0.651516 17.2614 1.11141 16.9329L4.97719 14.1748C5.30156 13.9437 5.68313 13.8213 6.08156 13.8213H14.5842C16.0809 13.8213 17.2983 12.604 17.2983 11.1073V2.18555C17.2983 1.79742 16.9833 1.48242 16.5952 1.48242ZM13.1798 10.0001H5.05594C4.66781 10.0001 4.35281 9.68556 4.35281 9.29696C4.35281 8.90884 4.66781 8.59384 5.05594 8.59384H13.1798C13.568 8.59384 13.883 8.90884 13.883 9.29696C13.883 9.68556 13.568 10.0001 13.1798 10.0001ZM13.1798 6.71883H5.05594C4.66781 6.71883 4.35281 6.4043 4.35281 6.01571C4.35281 5.62758 4.66781 5.31258 5.05594 5.31258H13.1798C13.568 5.31258 13.883 5.62758 13.883 6.01571C13.883 6.4043 13.568 6.71883 13.1798 6.71883Z" fill="#4E4E4E"/>
<path d="M23.9995 9.65008V21.8137C23.9995 22.3859 23.3512 22.7169 22.888 22.386L19.0223 19.6284C18.6979 19.3973 18.3163 19.2749 17.9179 19.2749H9.41523C7.91852 19.2749 6.70117 18.0571 6.70117 16.5604V15.2273H14.5837C16.8557 15.2273 18.704 13.379 18.704 11.107V6.93555H21.2854C22.7821 6.93555 23.9995 8.15336 23.9995 9.65008Z" fill="#4E4E4E"/>
</g>
<defs>
<clipPath id="clip0_706_41394">
<rect width="24" height="24" fill="white"/>
</clipPath>
</defs>
</svg>
