<svg width="21" height="20" viewBox="0 0 21 20" fill="none" xmlns="http://www.w3.org/2000/svg">
<path d="M1.59375 19.207C1.83789 19.207 2.0918 19.1191 2.4043 18.9434L7.375 16.2676L12.7754 19.2949C13.127 19.4902 13.5078 19.5879 13.8691 19.5879C14.2109 19.5879 14.5527 19.5 14.8457 19.334L19.9531 16.4336C20.5391 16.1113 20.8027 15.6426 20.8027 14.9883V1.83398C20.8027 1.11133 20.4023 0.710938 19.6992 0.710938C19.4551 0.710938 19.2012 0.789062 18.8789 0.964844L13.7031 3.8457L8.40039 0.59375C8.09766 0.417969 7.75586 0.320312 7.41406 0.320312C7.0625 0.320312 6.71094 0.417969 6.4082 0.59375L1.33008 3.48438C0.753906 3.81641 0.490234 4.28516 0.490234 4.93945V18.0742C0.490234 18.7969 0.890625 19.207 1.59375 19.207ZM6.74023 14.7148L2.33594 17.1367C2.28711 17.1562 2.23828 17.1855 2.18945 17.1855C2.11133 17.1855 2.0625 17.127 2.0625 17.0293V5.32031C2.0625 5.08594 2.15039 4.91992 2.38477 4.7832L6.38867 2.43945C6.51562 2.37109 6.62305 2.3125 6.74023 2.24414V14.7148ZM8.3125 14.8711V2.44922C8.41016 2.50781 8.52734 2.56641 8.625 2.625L12.9805 5.28125V17.4883C12.8438 17.4102 12.6973 17.3418 12.5508 17.2637L8.3125 14.8711ZM14.5527 17.6641V5.18359L18.957 2.78125C19.0059 2.75195 19.0547 2.73242 19.0938 2.73242C19.1816 2.73242 19.2305 2.79102 19.2305 2.88867V14.5977C19.2305 14.8418 19.1328 15.0078 18.9082 15.1445L14.9922 17.4199C14.8457 17.5078 14.6992 17.5957 14.5527 17.6641Z" fill="#4E4E4E"/>
</svg>
