<svg width="20" height="20" viewBox="0 0 20 20" fill="none" xmlns="http://www.w3.org/2000/svg">
<path d="M2.31641 19.1014H14.8686V15.7682H19.9987V3.20117H2.31641V19.1014ZM3.48828 4.37305H18.8269V14.5963H13.6967V17.9296H3.48828V4.37305Z" fill="#4E4E4E"/>
<path d="M2.31641 0.859375H19.9987V2.03125H2.31641V0.859375Z" fill="#4E4E4E"/>
<path d="M0 3.20117H1.17188V19.1014H0V3.20117Z" fill="#4E4E4E"/>
<path d="M10.3135 8.33984L9.18607 10.2341L8.02823 8.33984H7.04297V11.8947H8.13489V10.3305L8.90683 11.5747H9.43494L10.2069 10.2747L10.2169 11.8947H11.3089L11.2986 8.33984H10.3135Z" fill="#4E4E4E"/>
<path d="M13.1614 9.41486C13.4915 9.1254 13.5676 8.94763 13.5676 8.74454C13.5676 8.33316 13.192 8.07422 12.6333 8.07422C12.1103 8.07422 11.7801 8.28738 11.6328 8.57684L12.222 8.85623C12.2879 8.73431 12.4048 8.66321 12.5622 8.66321C12.7044 8.66321 12.7653 8.72424 12.7653 8.80542C12.7653 8.87149 12.7348 8.95267 12.5825 9.07962L11.775 9.77039V10.2324H13.6337V9.65366H12.882L13.1614 9.41486Z" fill="#4E4E4E"/>
</svg>
