<svg width="14" height="22" viewBox="0 0 14 22" fill="none" xmlns="http://www.w3.org/2000/svg">
<path d="M1.64844 21.4082C2.12695 21.4082 2.41016 21.1348 3.28906 20.2852L7.10742 16.5254C7.15625 16.4766 7.24414 16.4766 7.2832 16.5254L11.1016 20.2852C11.9805 21.1348 12.2637 21.4082 12.7422 21.4082C13.3965 21.4082 13.7773 20.9785 13.7773 20.2168V3.26367C13.7773 1.4082 12.8496 0.460938 11.0137 0.460938H3.37695C1.54102 0.460938 0.613281 1.4082 0.613281 3.26367V20.2168C0.613281 20.9785 0.994141 21.4082 1.64844 21.4082ZM2.44922 18.7715C2.3125 18.9082 2.15625 18.8691 2.15625 18.6738V3.2832C2.15625 2.44336 2.5957 2.00391 3.45508 2.00391H10.9453C11.7949 2.00391 12.2344 2.44336 12.2344 3.2832V18.6738C12.2344 18.8691 12.0879 18.9082 11.9414 18.7715L7.71289 14.6699C7.40039 14.3672 6.99023 14.3672 6.67773 14.6699L2.44922 18.7715Z" fill="#4E4E4E"/>
</svg>
