<svg width="53" height="49" viewBox="0 0 53 49" fill="none" xmlns="http://www.w3.org/2000/svg">
<path d="M48.2139 43.4545H52.9867V48.2273H0.486328V43.4545H5.25909V2.88607C5.25909 2.25317 5.51051 1.64618 5.95804 1.19865C6.40557 0.751116 7.01256 0.499695 7.64546 0.499695H45.8275C46.4604 0.499695 47.0674 0.751116 47.5149 1.19865C47.9625 1.64618 48.2139 2.25317 48.2139 2.88607V43.4545ZM43.4411 43.4545V5.27245H10.0318V43.4545H43.4411ZM17.191 21.9771H24.3501V26.7499H17.191V21.9771ZM17.191 12.4316H24.3501V17.2043H17.191V12.4316ZM17.191 31.5226H24.3501V36.2954H17.191V31.5226ZM29.1229 31.5226H36.282V36.2954H29.1229V31.5226ZM29.1229 21.9771H36.282V26.7499H29.1229V21.9771ZM29.1229 12.4316H36.282V17.2043H29.1229V12.4316Z" fill="#D54640"/>
</svg>
 