<svg width="11" height="12" viewBox="0 0 11 12" fill="none" xmlns="http://www.w3.org/2000/svg">
<path d="M5.37305 0.75C2.47383 0.75 0.123047 3.10078 0.123047 6C0.123047 8.89922 2.47383 11.25 5.37305 11.25C8.27227 11.25 10.623 8.89922 10.623 6C10.623 3.10078 8.27227 0.75 5.37305 0.75ZM7.31133 7.99453L6.53789 7.99102L5.37305 6.60234L4.20938 7.98984L3.43477 7.99336C3.3832 7.99336 3.34102 7.95234 3.34102 7.89961C3.34102 7.87734 3.34922 7.85625 3.36328 7.83867L4.88789 6.02227L3.36328 4.20703C3.34912 4.18986 3.34126 4.16835 3.34102 4.14609C3.34102 4.09453 3.3832 4.05234 3.43477 4.05234L4.20938 4.05586L5.37305 5.44453L6.53672 4.05703L7.31016 4.05352C7.36172 4.05352 7.40391 4.09453 7.40391 4.14727C7.40391 4.16953 7.3957 4.19063 7.38164 4.2082L5.85938 6.02344L7.38281 7.83984C7.39687 7.85742 7.40508 7.87852 7.40508 7.90078C7.40508 7.95234 7.36289 7.99453 7.31133 7.99453Z" fill="black" fill-opacity="0.55"/>
</svg>
