<svg width="15" height="14" viewBox="0 0 15 14" fill="none" xmlns="http://www.w3.org/2000/svg">
<g clip-path="url(#clip0_1286_5756)">
<path d="M13.8721 1.18945H0.87207C0.595508 1.18945 0.37207 1.41289 0.37207 1.68945V9.43945C0.37207 9.71601 0.595508 9.93945 0.87207 9.93945H6.80957V11.6895H4.12207C3.98457 11.6895 3.87207 11.802 3.87207 11.9395V12.6895C3.87207 12.7582 3.92832 12.8145 3.99707 12.8145H10.7471C10.8158 12.8145 10.8721 12.7582 10.8721 12.6895V11.9395C10.8721 11.802 10.7596 11.6895 10.6221 11.6895H7.93457V9.93945H13.8721C14.1486 9.93945 14.3721 9.71601 14.3721 9.43945V1.68945C14.3721 1.41289 14.1486 1.18945 13.8721 1.18945ZM13.2471 8.81445H1.49707V2.31445H13.2471V8.81445Z" fill="#222222" fill-opacity="0.8"/>
<path d="M7.91651 7.73556C7.8789 7.73556 7.85382 7.71884 7.84129 7.68541L7.61564 6.95205C7.61146 6.93951 7.6031 6.93324 7.59056 6.93324H5.82923C5.8167 6.93324 5.80834 6.93951 5.80416 6.95205L5.57851 7.68541C5.56598 7.71884 5.5409 7.73556 5.50329 7.73556H4.99558C4.94961 7.73556 4.9329 7.71257 4.94544 7.66661L6.31814 3.39805C6.33068 3.36462 6.35575 3.3479 6.39336 3.3479H7.02017C7.05778 3.3479 7.08285 3.36462 7.09539 3.39805L8.48063 7.66661C8.4848 7.68326 8.48987 7.70198 8.48045 7.71633C8.47204 7.72915 8.45538 7.73556 8.43049 7.73556H7.91651ZM5.96238 6.42069C5.96137 6.42391 5.95989 6.42718 5.9589 6.4304C5.95492 6.44345 5.96731 6.45524 5.98087 6.45661C5.98256 6.45678 5.98425 6.45687 5.98594 6.45687H7.42759C7.43595 6.45687 7.44222 6.45478 7.4464 6.4506C7.45952 6.43748 7.44989 6.41663 7.44435 6.39892L6.73272 4.12294C6.72796 4.10772 6.72271 4.08753 6.70677 4.08753C6.69082 4.08753 6.68557 4.10772 6.68081 4.12294L5.96238 6.42069Z" fill="#222222" fill-opacity="0.8"/>
<path d="M9.26341 7.73556C9.22162 7.73556 9.20073 7.71466 9.20073 7.67288V3.41058C9.20073 3.36879 9.22162 3.3479 9.26341 3.3479H9.73978C9.78157 3.3479 9.80246 3.36879 9.80246 3.41058V7.67288C9.80246 7.71466 9.78157 7.73556 9.73978 7.73556H9.26341Z" fill="#222222" fill-opacity="0.8"/>
</g>
<defs>
<clipPath id="clip0_1286_5756">
<rect width="14" height="14" fill="white" transform="translate(0.37207)"/>
</clipPath>
</defs>
</svg>
