<svg width="14" height="15" viewBox="0 0 14 15" fill="none" xmlns="http://www.w3.org/2000/svg">
<path d="M12.5628 10.941H11.4644C11.3894 10.941 11.3191 10.9738 11.2722 11.0316C11.1628 11.1644 11.0457 11.2925 10.9222 11.4144C10.4174 11.9198 9.81937 12.3225 9.16129 12.6003C8.4795 12.8883 7.74671 13.036 7.0066 13.0347C6.25816 13.0347 5.53316 12.8878 4.85191 12.6003C4.19383 12.3225 3.59583 11.9198 3.09097 11.4144C2.58522 10.9107 2.18194 10.3138 1.90347 9.65658C1.61441 8.97533 1.4691 8.25189 1.4691 7.50346C1.4691 6.75502 1.61597 6.03158 1.90347 5.35033C2.1816 4.69252 2.5816 4.10033 3.09097 3.59252C3.60035 3.08471 4.19254 2.68471 4.85191 2.40658C5.53316 2.11908 6.25816 1.97221 7.0066 1.97221C7.75504 1.97221 8.48004 2.11752 9.16129 2.40658C9.82066 2.68471 10.4128 3.08471 10.9222 3.59252C11.0457 3.71596 11.1613 3.84408 11.2722 3.97533C11.3191 4.03314 11.391 4.06596 11.4644 4.06596H12.5628C12.6613 4.06596 12.7222 3.95658 12.6675 3.87377C11.4691 2.01127 9.37222 0.778457 6.98941 0.784707C3.24566 0.794082 0.244098 3.83314 0.281598 7.57221C0.319098 11.2519 3.31597 14.2222 7.0066 14.2222C9.38316 14.2222 11.4707 12.991 12.6675 11.1331C12.7207 11.0503 12.6613 10.941 12.5628 10.941ZM13.9519 7.40502L11.7347 5.65502C11.6519 5.58939 11.5316 5.64877 11.5316 5.75346V6.94096H6.62535C6.5566 6.94096 6.50035 6.99721 6.50035 7.06596V7.94096C6.50035 8.00971 6.5566 8.06596 6.62535 8.06596H11.5316V9.25346C11.5316 9.35814 11.6535 9.41752 11.7347 9.35189L13.9519 7.60189C13.9669 7.5902 13.9789 7.57526 13.9872 7.55821C13.9956 7.54115 13.9999 7.52243 13.9999 7.50346C13.9999 7.48448 13.9956 7.46576 13.9872 7.44871C13.9789 7.43165 13.9669 7.41671 13.9519 7.40502Z" fill="#222222"/>
</svg>
