<svg width="49" height="44" viewBox="0 0 49 44" fill="none" xmlns="http://www.w3.org/2000/svg">
<path d="M46.2142 43.8409H3.25943C2.62652 43.8409 2.01953 43.5894 1.572 43.1419C1.12447 42.6944 0.873047 42.0874 0.873047 41.4545V23.5256C0.87301 23.1846 0.946048 22.8476 1.08724 22.5372C1.22844 22.2268 1.43451 21.9503 1.69157 21.7263L10.4186 14.1161V3.27243C10.4186 2.63952 10.67 2.03253 11.1175 1.585C11.565 1.13747 12.172 0.886047 12.8049 0.886047H46.2142C46.8471 0.886047 47.4541 1.13747 47.9017 1.585C48.3492 2.03253 48.6006 2.63952 48.6006 3.27243V41.4545C48.6006 42.0874 48.3492 42.6944 47.9017 43.1419C47.4541 43.5894 46.8471 43.8409 46.2142 43.8409ZM17.5777 39.0681H24.7368V24.6114L15.1913 16.2877L5.6458 24.6114V39.0681H12.8049V29.5226H17.5777V39.0681ZM29.5096 39.0681H43.8279V5.6588H15.1913V10.7346C15.7497 10.7346 16.3105 10.9303 16.7592 11.3241L28.6911 21.7263C28.9481 21.9503 29.1542 22.2268 29.2954 22.5372C29.4366 22.8476 29.5096 23.1846 29.5096 23.5256V39.0681ZM34.2823 19.9771H39.0551V24.7498H34.2823V19.9771ZM34.2823 29.5226H39.0551V34.2953H34.2823V29.5226ZM34.2823 10.4316H39.0551V15.2043H34.2823V10.4316ZM24.7368 10.4316H29.5096V15.2043H24.7368V10.4316Z" fill="#D91F35"/>
</svg>
