<svg width="14" height="14" viewBox="0 0 14 14" fill="none" xmlns="http://www.w3.org/2000/svg">
<path d="M12.75 3.76562H8.75V2C8.75 1.72344 8.52656 1.5 8.25 1.5H1.875V0.875C1.875 0.80625 1.81875 0.75 1.75 0.75H0.875C0.80625 0.75 0.75 0.80625 0.75 0.875V13.125C0.75 13.1938 0.80625 13.25 0.875 13.25H1.75C1.81875 13.25 1.875 13.1938 1.875 13.125V9H5.75V10.7656C5.75 11.0422 5.97344 11.2656 6.25 11.2656H12.75C13.0266 11.2656 13.25 11.0422 13.25 10.7656V4.26562C13.25 3.98906 13.0266 3.76562 12.75 3.76562Z" fill="#222222"/>
</svg>
