<svg width="15" height="14" viewBox="0 0 15 14" fill="none" xmlns="http://www.w3.org/2000/svg">
<path d="M7.37305 0C3.50742 0 0.373047 3.13438 0.373047 7C0.373047 10.8656 3.50742 14 7.37305 14C11.2387 14 14.373 10.8656 14.373 7C14.373 3.13438 11.2387 0 7.37305 0ZM7.37305 12.8125C4.16367 12.8125 1.56055 10.2094 1.56055 7C1.56055 3.79063 4.16367 1.1875 7.37305 1.1875C10.5824 1.1875 13.1855 3.79063 13.1855 7C13.1855 10.2094 10.5824 12.8125 7.37305 12.8125ZM8.11836 6.6375L7.72148 6.54531V4.44688C8.31523 4.52813 8.68242 4.9 8.74492 5.35625C8.75273 5.41875 8.80586 5.46406 8.86836 5.46406H9.56992C9.64336 5.46406 9.70117 5.4 9.69492 5.32656C9.59961 4.35313 8.79805 3.72813 7.72773 3.62031V3.10938C7.72773 3.04063 7.67148 2.98438 7.60273 2.98438H7.16367C7.09492 2.98438 7.03867 3.04063 7.03867 3.10938V3.625C5.93242 3.73281 5.0668 4.34375 5.0668 5.48438C5.0668 6.54063 5.84492 7.05 6.66211 7.24531L7.04805 7.34375V9.57344C6.35742 9.48125 5.96992 9.1125 5.89023 8.61563C5.88086 8.55625 5.82773 8.5125 5.7668 8.5125H5.04492C4.97148 8.5125 4.91367 8.575 4.91992 8.64844C4.99023 9.50781 5.6418 10.2984 7.03242 10.4V10.8906C7.03242 10.9594 7.08867 11.0156 7.15742 11.0156H7.60117C7.66992 11.0156 7.72617 10.9594 7.72617 10.8891L7.72305 10.3938C8.94648 10.2859 9.82148 9.63125 9.82148 8.45625C9.81992 7.37188 9.13086 6.8875 8.11836 6.6375ZM7.04648 6.38438C6.95898 6.35938 6.88555 6.33594 6.81211 6.30625C6.28398 6.11562 6.03867 5.80781 6.03867 5.41094C6.03867 4.84375 6.46836 4.52031 7.04648 4.44688V6.38438ZM7.72148 9.57812V7.48906C7.76992 7.50312 7.81367 7.51406 7.85898 7.52344C8.59805 7.74844 8.84648 8.06094 8.84648 8.54062C8.84648 9.15156 8.38711 9.51875 7.72148 9.57812Z" fill="#222222" fill-opacity="0.8"/>
</svg>
