<svg width="24" height="24" viewBox="0 0 24 24" fill="none" xmlns="http://www.w3.org/2000/svg">
<g clip-path="url(#clip0_706_41397)">
<path d="M23.8778 0.983564C23.771 0.88986 23.619 0.86812 23.4901 0.927886L0.207591 11.7456C0.0822456 11.8039 0.00152815 11.9289 2.1427e-05 12.0671C-0.0014853 12.2053 0.0765775 12.3321 0.200703 12.393L6.78962 15.6266C6.91044 15.6859 7.05451 15.6725 7.16243 15.5918L13.5687 10.8038L8.5395 15.9769C8.46775 16.0507 8.43116 16.1518 8.43905 16.2544L8.93979 22.7756C8.95091 22.9201 9.04777 23.0436 9.18546 23.0889C9.22226 23.1009 9.26008 23.1068 9.29746 23.1068C9.39999 23.1068 9.49972 23.0628 9.5691 22.9825L13.0663 18.93L17.3895 20.9956C17.4834 21.0405 17.592 21.0423 17.6873 21.0009C17.7827 20.9593 17.8553 20.8785 17.8864 20.7794L23.9835 1.36075C24.0261 1.22514 23.9846 1.07727 23.8778 0.983564Z" fill="#222222"/>
</g>
<defs>
<clipPath id="clip0_706_41397">
<rect width="24" height="24" fill="white"/>
</clipPath>
</defs>
</svg>
