<svg width="18" height="18" viewBox="0 0 18 18" fill="none" xmlns="http://www.w3.org/2000/svg">
<path d="M5.94587 2.40883H5.78516C5.87355 2.40883 5.94587 2.33651 5.94587 2.24812V2.40883H12.053V2.24812C12.053 2.33651 12.1253 2.40883 12.2137 2.40883H12.053V3.85526H13.4994V2.24812C13.4994 1.53896 12.9229 0.962402 12.2137 0.962402H5.78516C5.07601 0.962402 4.49944 1.53896 4.49944 2.24812V3.85526H5.94587V2.40883ZM16.0709 3.85526H1.92801C1.57243 3.85526 1.28516 4.14254 1.28516 4.49812V5.14097C1.28516 5.22937 1.35748 5.30169 1.44587 5.30169H2.65926L3.15547 15.8084C3.18761 16.4934 3.75413 17.0338 4.43917 17.0338H13.5597C14.2468 17.0338 14.8113 16.4954 14.8434 15.8084L15.3396 5.30169H16.553C16.6414 5.30169 16.7137 5.22937 16.7137 5.14097V4.49812C16.7137 4.14254 16.4265 3.85526 16.0709 3.85526ZM13.405 15.5874H4.59386L4.1077 5.30169H13.8912L13.405 15.5874Z" fill="#222222" fill-opacity="0.85"/>
</svg>
