<svg width="12" height="14" viewBox="0 0 12 14" fill="none" xmlns="http://www.w3.org/2000/svg">
<path d="M11.3531 3.51816C11.059 2.83985 10.6348 2.2257 10.1047 1.71035C9.5728 1.19035 8.94576 0.77763 8.25781 0.494726C7.54219 0.197852 6.78281 0.0478516 6 0.0478516C5.21719 0.0478516 4.45781 0.197852 3.74219 0.493164C3.05 0.779101 2.42969 1.18848 1.89531 1.70879C1.3655 2.22442 0.941431 2.83851 0.646875 3.5166C0.342187 4.21973 0.1875 4.9666 0.1875 5.73535C0.1875 6.83848 0.451563 7.93691 0.970313 8.99629C1.3875 9.84785 1.97031 10.6775 2.70469 11.4666C3.95938 12.8135 5.275 13.6369 5.64844 13.8572C5.75444 13.9198 5.87533 13.9528 5.99844 13.9525C6.12031 13.9525 6.24063 13.9213 6.34844 13.8572C6.72188 13.6369 8.0375 12.8135 9.29219 11.4666C10.0266 10.6791 10.6094 9.84785 11.0266 8.99629C11.5484 7.93848 11.8125 6.8416 11.8125 5.73691C11.8125 4.96816 11.6578 4.22129 11.3531 3.51816ZM6 12.7541C4.97031 12.0994 1.3125 9.50723 1.3125 5.73691C1.3125 4.51973 1.79844 3.37598 2.68125 2.51348C3.56719 1.64941 4.74531 1.17285 6 1.17285C7.25469 1.17285 8.43281 1.64941 9.31875 2.51504C10.2016 3.37598 10.6875 4.51973 10.6875 5.73691C10.6875 9.50723 7.02969 12.0994 6 12.7541ZM6 3.11035C4.48125 3.11035 3.25 4.3416 3.25 5.86035C3.25 7.3791 4.48125 8.61035 6 8.61035C7.51875 8.61035 8.75 7.3791 8.75 5.86035C8.75 4.3416 7.51875 3.11035 6 3.11035ZM7.2375 7.09785C7.07519 7.26063 6.8823 7.3897 6.66992 7.47766C6.45754 7.56561 6.22987 7.61071 6 7.61035C5.53281 7.61035 5.09375 7.42754 4.7625 7.09785C4.59972 6.93554 4.47065 6.74265 4.38269 6.53027C4.29474 6.31789 4.24964 6.09022 4.25 5.86035C4.25 5.39316 4.43281 4.9541 4.7625 4.62285C5.09375 4.2916 5.53281 4.11035 6 4.11035C6.46719 4.11035 6.90625 4.2916 7.2375 4.62285C7.56875 4.9541 7.75 5.39316 7.75 5.86035C7.75 6.32754 7.56875 6.7666 7.2375 7.09785Z" fill="#222222"/>
</svg>
