<svg width="15" height="15" viewBox="0 0 15 15" fill="none" xmlns="http://www.w3.org/2000/svg">
<path d="M12.9125 12.4062C12.9156 12.4015 12.9203 12.3968 12.9234 12.3921C13.9469 11.1749 14.5625 9.60615 14.5625 7.89209C14.5625 6.17803 13.9469 4.60928 12.925 3.39209C12.9219 3.3874 12.9172 3.38428 12.9141 3.37959C12.8969 3.35928 12.8812 3.34053 12.8641 3.32178C12.8578 3.31396 12.8516 3.30771 12.8453 3.2999L12.7812 3.22646L12.7797 3.2249C12.7563 3.19834 12.7312 3.17178 12.7078 3.14521L12.7063 3.14365C12.6562 3.09053 12.6062 3.0374 12.5547 2.98584L12.5531 2.98428L12.4781 2.90928L12.4734 2.90459C12.45 2.88115 12.4266 2.85928 12.4031 2.8374C12.3953 2.82959 12.3875 2.82178 12.3781 2.81396C12.3625 2.79834 12.3469 2.78428 12.3313 2.77021C12.3266 2.76553 12.3203 2.76084 12.3156 2.75459C11.0688 1.59834 9.39844 0.89209 7.5625 0.89209C5.72656 0.89209 4.05625 1.59834 2.80781 2.75459C2.80312 2.75928 2.79688 2.76396 2.79219 2.77021C2.77656 2.78428 2.76094 2.7999 2.74531 2.81553C2.7375 2.82334 2.72969 2.83115 2.72031 2.83896C2.69688 2.86084 2.67344 2.88428 2.65 2.90615L2.64531 2.91084L2.57031 2.98584L2.56875 2.9874C2.51719 3.03896 2.46719 3.09209 2.41719 3.14521L2.41563 3.14678C2.39063 3.17334 2.36719 3.1999 2.34375 3.22646L2.34219 3.22803C2.32031 3.25146 2.29844 3.27646 2.27813 3.30146C2.27188 3.30928 2.26563 3.31553 2.25938 3.32334C2.24219 3.34209 2.22656 3.3624 2.20937 3.38115C2.20625 3.38584 2.20156 3.38896 2.19844 3.39365C1.17812 4.60928 0.5625 6.17803 0.5625 7.89209C0.5625 9.60615 1.17813 11.1749 2.2 12.3921C2.20312 12.3968 2.20781 12.4015 2.21094 12.4062L2.25938 12.464C2.26563 12.4718 2.27188 12.478 2.27813 12.4858L2.34219 12.5593C2.34219 12.5608 2.34375 12.5608 2.34375 12.5624C2.36719 12.589 2.39063 12.6155 2.41563 12.6405L2.41719 12.6421C2.46719 12.6952 2.51719 12.7483 2.56719 12.7999L2.56875 12.8015C2.59375 12.8265 2.61719 12.8515 2.64219 12.8749L2.64687 12.8796C2.69844 12.9312 2.75156 12.9812 2.80469 13.0296C4.05625 14.1858 5.72656 14.8921 7.5625 14.8921C9.39844 14.8921 11.0687 14.1858 12.3172 13.0296C12.3704 12.9808 12.4225 12.9308 12.4734 12.8796L12.4781 12.8749C12.5031 12.8499 12.5281 12.8265 12.5516 12.8015L12.5531 12.7999C12.6047 12.7483 12.6547 12.6952 12.7031 12.6421L12.7047 12.6405C12.7281 12.614 12.7531 12.589 12.7766 12.5624C12.7766 12.5608 12.7781 12.5608 12.7781 12.5593C12.8 12.5358 12.8219 12.5108 12.8422 12.4858C12.8484 12.478 12.8547 12.4718 12.8609 12.464C12.8786 12.4451 12.8958 12.4259 12.9125 12.4062ZM12.9766 10.178C12.7609 10.6874 12.4766 11.1593 12.1297 11.5874C11.739 11.2498 11.3119 10.9568 10.8562 10.714C11.0375 9.98115 11.15 9.17647 11.1797 8.32959H13.4219C13.375 8.96865 13.225 9.58896 12.9766 10.178ZM13.4219 7.45459H11.1797C11.15 6.60771 11.0375 5.80303 10.8562 5.07021C11.3141 4.82646 11.7406 4.53271 12.1297 4.19678C12.8837 5.12486 13.3347 6.26199 13.4219 7.45459ZM9.84844 2.47803C10.4688 2.74053 11.0328 3.10303 11.5297 3.55928C11.241 3.80505 10.9304 4.02368 10.6016 4.2124C10.3562 3.50928 10.0422 2.89834 9.67656 2.40928C9.73438 2.43115 9.79219 2.45459 9.84844 2.47803ZM8.43281 13.4249C8.28906 13.5374 8.14531 13.6233 8 13.6812V10.7827C8.61999 10.826 9.22967 10.964 9.80781 11.1921C9.67813 11.5765 9.52812 11.9312 9.35469 12.2515C9.08281 12.7577 8.76406 13.1624 8.43281 13.4249ZM9.35469 3.53271C9.52656 3.85459 9.67813 4.20928 9.80781 4.59209C9.22967 4.82015 8.61999 4.95821 8 5.00146V2.10459C8.14375 2.1624 8.28906 2.24678 8.43281 2.36084C8.76406 2.62178 9.08281 3.02646 9.35469 3.53271ZM8 9.90615V8.32959H10.3047C10.2797 9.02022 10.1938 9.69053 10.05 10.3265L10.0453 10.3452C9.38958 10.0966 8.70001 9.94853 8 9.90615ZM8 7.45459V5.87803C8.71562 5.83428 9.40313 5.68271 10.0453 5.43896L10.05 5.45772C10.1938 6.09365 10.2797 6.7624 10.3047 7.45459H8ZM7.125 8.32959V9.90615C6.40938 9.9499 5.72188 10.1015 5.07969 10.3452L5.075 10.3265C4.93125 9.69053 4.84531 9.02178 4.82031 8.32959H7.125ZM4.82031 7.45459C4.84531 6.76396 4.93125 6.09365 5.075 5.45772L5.07969 5.43896C5.72188 5.68271 6.40781 5.83428 7.125 5.87803V7.45459H4.82031ZM7.125 10.7827V13.6796C6.98125 13.6218 6.83594 13.5374 6.69219 13.4233C6.36094 13.1624 6.04063 12.7562 5.76875 12.2499C5.59688 11.928 5.44531 11.5733 5.31563 11.1905C5.89688 10.9624 6.50156 10.8265 7.125 10.7827ZM7.125 5.00146C6.50501 4.95821 5.89533 4.82015 5.31719 4.59209C5.44687 4.20771 5.59687 3.85303 5.77031 3.53271C6.04219 3.02646 6.36094 2.62021 6.69375 2.35928C6.8375 2.24678 6.98125 2.16084 7.12656 2.10303V5.00146H7.125ZM5.27656 2.47803C5.33438 2.45459 5.39062 2.43115 5.44844 2.40928C5.08281 2.89834 4.76875 3.50928 4.52344 4.2124C4.19531 4.0249 3.88438 3.80615 3.59531 3.55928C4.09219 3.10303 4.65625 2.74053 5.27656 2.47803ZM2.14844 5.60615C2.36406 5.09678 2.64844 4.6249 2.99531 4.19678C3.38437 4.53271 3.81094 4.82646 4.26875 5.07021C4.0875 5.80303 3.975 6.60771 3.94531 7.45459H1.70312C1.75 6.81553 1.9 6.19522 2.14844 5.60615ZM1.70312 8.32959H3.94531C3.975 9.17647 4.0875 9.98115 4.26875 10.714C3.81309 10.9568 3.38597 11.2498 2.99531 11.5874C2.2413 10.6593 1.79026 9.52219 1.70312 8.32959ZM5.27656 13.3062C4.65625 13.0437 4.09219 12.6812 3.59531 12.2249C3.88438 11.978 4.19531 11.7608 4.52344 11.5718C4.76875 12.2749 5.08281 12.8858 5.44844 13.3749C5.39062 13.353 5.33281 13.3296 5.27656 13.3062ZM9.84844 13.3062C9.79062 13.3296 9.73438 13.353 9.67656 13.3749C10.0422 12.8858 10.3562 12.2749 10.6016 11.5718C10.9297 11.7593 11.2406 11.978 11.5297 12.2249C11.0356 12.6793 10.4668 13.045 9.84844 13.3062Z" fill="white"/>
</svg>
