<svg width="14" height="14" viewBox="0 0 14 14" fill="none" xmlns="http://www.w3.org/2000/svg">
<path d="M6.01604 0.429199H0.587472C0.430329 0.429199 0.301758 0.557771 0.301758 0.714914V6.14349C0.301758 6.30063 0.430329 6.4292 0.587472 6.4292H6.01604C6.17319 6.4292 6.30176 6.30063 6.30176 6.14349V0.714914C6.30176 0.557771 6.17319 0.429199 6.01604 0.429199ZM5.08747 5.21491H1.51604V1.64349H5.08747V5.21491ZM13.1589 0.429199H7.73033C7.57319 0.429199 7.44462 0.557771 7.44462 0.714914V6.14349C7.44462 6.30063 7.57319 6.4292 7.73033 6.4292H13.1589C13.316 6.4292 13.4446 6.30063 13.4446 6.14349V0.714914C13.4446 0.557771 13.316 0.429199 13.1589 0.429199ZM12.2303 5.21491H8.6589V1.64349H12.2303V5.21491ZM6.01604 7.57206H0.587472C0.430329 7.57206 0.301758 7.70063 0.301758 7.85777V13.2863C0.301758 13.4435 0.430329 13.5721 0.587472 13.5721H6.01604C6.17319 13.5721 6.30176 13.4435 6.30176 13.2863V7.85777C6.30176 7.70063 6.17319 7.57206 6.01604 7.57206ZM5.08747 12.3578H1.51604V8.78634H5.08747V12.3578ZM13.1589 7.57206H7.73033C7.57319 7.57206 7.44462 7.70063 7.44462 7.85777V13.2863C7.44462 13.4435 7.57319 13.5721 7.73033 13.5721H13.1589C13.316 13.5721 13.4446 13.4435 13.4446 13.2863V7.85777C13.4446 7.70063 13.316 7.57206 13.1589 7.57206ZM12.2303 12.3578H8.6589V8.78634H12.2303V12.3578Z" fill="#D91F35"/>
</svg>
