<svg width="16" height="16" viewBox="0 0 16 16" fill="none" xmlns="http://www.w3.org/2000/svg">
<path d="M7.14296 7.99951C7.14296 8.22684 7.23327 8.44486 7.39401 8.6056C7.55476 8.76635 7.77277 8.85666 8.0001 8.85666C8.22743 8.85666 8.44545 8.76635 8.60619 8.6056C8.76694 8.44486 8.85725 8.22684 8.85725 7.99951C8.85725 7.77218 8.76694 7.55417 8.60619 7.39342C8.44545 7.23268 8.22743 7.14237 8.0001 7.14237C7.77277 7.14237 7.55476 7.23268 7.39401 7.39342C7.23327 7.55417 7.14296 7.77218 7.14296 7.99951ZM10.7144 7.99951C10.7144 8.22684 10.8047 8.44486 10.9654 8.6056C11.1262 8.76635 11.3442 8.85666 11.5715 8.85666C11.7989 8.85666 12.0169 8.76635 12.1776 8.6056C12.3384 8.44486 12.4287 8.22684 12.4287 7.99951C12.4287 7.77218 12.3384 7.55417 12.1776 7.39342C12.0169 7.23268 11.7989 7.14237 11.5715 7.14237C11.3442 7.14237 11.1262 7.23268 10.9654 7.39342C10.8047 7.55417 10.7144 7.77218 10.7144 7.99951ZM3.57153 7.99951C3.57153 8.22684 3.66184 8.44486 3.82258 8.6056C3.98333 8.76635 4.20134 8.85666 4.42867 8.85666C4.656 8.85666 4.87402 8.76635 5.03477 8.6056C5.19551 8.44486 5.28582 8.22684 5.28582 7.99951C5.28582 7.77218 5.19551 7.55417 5.03477 7.39342C4.87402 7.23268 4.656 7.14237 4.42867 7.14237C4.20134 7.14237 3.98333 7.23268 3.82258 7.39342C3.66184 7.55417 3.57153 7.77218 3.57153 7.99951ZM15.3787 4.89951C14.9751 3.94058 14.3965 3.07987 13.659 2.34058C12.9267 1.60558 12.0573 1.02134 11.1001 0.62094C10.118 0.20844 9.0751 -0.000488281 8.0001 -0.000488281H7.96439C6.88225 0.00486886 5.83403 0.219155 4.84832 0.640583C3.89931 1.04509 3.03807 1.63036 2.3126 2.3638C1.58224 3.1013 1.00903 3.95844 0.612601 4.9138C0.201887 5.90308 -0.00525584 6.95487 0.000101308 8.03701C0.00616069 9.27714 0.299551 10.499 0.857244 11.6067V14.3209C0.857244 14.5388 0.943787 14.7477 1.09784 14.9018C1.25188 15.0558 1.46082 15.1424 1.67867 15.1424H4.39474C5.50241 15.7001 6.72426 15.9935 7.96439 15.9995H8.00189C9.07153 15.9995 10.109 15.7924 11.0858 15.387C12.0382 14.9914 12.9043 14.414 13.6358 13.687C14.3733 12.9567 14.9537 12.1031 15.359 11.1513C15.7805 10.1656 15.9947 9.11737 16.0001 8.03523C16.0055 6.94773 15.7947 5.89237 15.3787 4.89951ZM12.6805 12.7209C11.4287 13.9602 9.76796 14.6424 8.0001 14.6424H7.96975C6.89296 14.637 5.82332 14.3692 4.87867 13.8656L4.72867 13.7852H2.21439V11.2709L2.13403 11.1209C1.63046 10.1763 1.3626 9.10666 1.35724 8.02987C1.3501 6.24951 2.03046 4.57808 3.27867 3.31915C4.5251 2.06023 6.19117 1.3638 7.97153 1.35665H8.00189C8.89474 1.35665 9.76082 1.52987 10.5769 1.87273C11.3733 2.20665 12.0876 2.68701 12.7019 3.3013C13.3144 3.9138 13.7965 4.62987 14.1305 5.4263C14.4769 6.2513 14.6501 7.1263 14.6465 8.02987C14.6358 9.80844 13.9376 11.4745 12.6805 12.7209Z" fill="#222222"/>
</svg>
