<svg width="17" height="16" viewBox="0 0 17 16" fill="none" xmlns="http://www.w3.org/2000/svg">
<path d="M8.36155 0.204148C3.92383 0.210175 0.337891 3.80013 0.337891 8.23785C0.337891 10.8093 1.54727 13.0995 3.42762 14.57L2.67427 15.5343C2.59191 15.6408 2.66825 15.7954 2.80084 15.7934L6.15575 15.7774C6.26021 15.7774 6.33655 15.6789 6.31044 15.5785L5.51691 12.318C5.50974 12.2886 5.49443 12.2618 5.47272 12.2407C5.45102 12.2197 5.4238 12.2052 5.39421 12.1989C5.36462 12.1926 5.33386 12.1947 5.30545 12.2052C5.27705 12.2156 5.25216 12.2338 5.23365 12.2577L4.41602 13.3044C4.21111 13.1437 4.01423 12.9689 3.8274 12.782C3.24003 12.1967 2.77198 11.5028 2.44927 10.739C2.11378 9.94745 1.94503 9.10571 1.94503 8.23785C1.94503 7.37 2.11378 6.52825 2.44927 5.73674C2.77271 4.97134 3.23678 4.28428 3.8274 3.69366C4.41803 3.10303 5.10508 2.63897 5.87048 2.31553C6.66401 1.98004 7.50575 1.81129 8.37361 1.81129C9.24146 1.81129 10.0832 1.98004 10.8747 2.31553C11.6401 2.63897 12.3272 3.10303 12.9178 3.69366C13.5084 4.28428 13.9725 4.97134 14.2959 5.73674C14.6314 6.52825 14.8002 7.37 14.8002 8.23785C14.8002 9.10571 14.6314 9.94745 14.2959 10.739C13.9732 11.5028 13.5052 12.1967 12.9178 12.782C12.7671 12.9327 12.6104 13.0733 12.4477 13.2079C12.4151 13.2344 12.3943 13.2727 12.3898 13.3145C12.3853 13.3562 12.3974 13.3981 12.4236 13.4309L13.2151 14.4454C13.2714 14.5158 13.3738 14.5278 13.4441 14.4716C15.2542 12.997 16.4093 10.753 16.4093 8.23785C16.4093 3.79611 12.8053 0.198121 8.36155 0.204148Z" fill="#D54640"/>
</svg>
