<svg width="20" height="20" viewBox="0 0 20 20" fill="none" xmlns="http://www.w3.org/2000/svg">
<g clip-path="url(#clip0_2174_4756)">
<path d="M18.1512 4.22769C18.1509 4.22124 18.1502 4.2148 18.1491 4.20839C18.1241 4.17268 18.0933 4.14195 18.0676 4.10695C17.8809 3.85258 17.6832 3.60776 17.4746 3.37244C17.4174 3.30813 17.3603 3.24454 17.3017 3.18166C17.0869 2.95161 16.8616 2.73224 16.6258 2.52363C16.5822 2.48503 16.5415 2.44505 16.4979 2.40717C15.9168 1.90935 15.2805 1.47974 14.6016 1.12682C14.5745 1.11254 14.5459 1.1004 14.518 1.08608C14.2157 0.932441 13.9057 0.794329 13.5892 0.672378C13.5177 0.646673 13.4527 0.622349 13.3848 0.600915C13.1033 0.499477 12.8175 0.41064 12.5274 0.334404C12.4417 0.311546 12.356 0.287976 12.2688 0.267965C11.983 0.201526 11.6972 0.150786 11.405 0.10934C11.3164 0.0964875 11.2292 0.079323 11.1399 0.0686057C10.3872 -0.0228686 9.62622 -0.0228686 8.8735 0.0686057C8.7842 0.079323 8.69704 0.0964875 8.60841 0.10934C8.3162 0.150786 8.02754 0.201526 7.74458 0.267965C7.65741 0.287976 7.57168 0.311546 7.48594 0.334404C7.19393 0.410598 6.90816 0.499435 6.62855 0.600915C6.55709 0.625196 6.49207 0.64952 6.42421 0.672378C6.10775 0.794329 5.7977 0.932399 5.49536 1.08608C5.46747 1.10036 5.43892 1.1125 5.41175 1.12682C4.73057 1.47936 4.09218 1.90893 3.50905 2.40717C3.46546 2.44501 3.42473 2.48503 3.38115 2.52363C3.14298 2.73321 2.91767 2.95258 2.70524 3.18166C2.64668 3.24454 2.58949 3.30813 2.53234 3.37244C2.32323 3.60726 2.12554 3.85208 1.93933 4.10691C1.91363 4.14191 1.8829 4.17264 1.85786 4.20835C1.8546 4.21459 1.85171 4.22103 1.84928 4.22765C-0.615125 7.68136 -0.615125 12.3187 1.84928 15.7724C1.85171 15.779 1.85455 15.7854 1.85786 15.7917C1.88286 15.8274 1.91358 15.8581 1.93933 15.8931C2.12559 16.1475 2.32323 16.3923 2.53234 16.6276C2.58949 16.6919 2.64668 16.7555 2.70524 16.8184C2.92055 17.0484 3.14583 17.2678 3.38115 17.4764C3.42473 17.515 3.46546 17.555 3.50905 17.5929C4.09013 18.0907 4.72639 18.5203 5.4053 18.8732C5.43248 18.8875 5.46103 18.8997 5.48891 18.914C5.79126 19.0676 6.10126 19.2057 6.41776 19.3277C6.48922 19.3534 6.55424 19.3777 6.6221 19.3991C6.9036 19.5006 7.18941 19.5894 7.47949 19.6657C7.56523 19.6885 7.65097 19.7121 7.73813 19.7321C8.02394 19.7985 8.30971 19.8493 8.60196 19.8907C8.69055 19.9036 8.77771 19.9207 8.86705 19.9315C9.61974 20.0229 10.3807 20.0229 11.1334 19.9315C11.2227 19.9207 11.3099 19.9036 11.3985 19.8907C11.6907 19.8493 11.9794 19.7985 12.2624 19.7321C12.3495 19.7121 12.4353 19.6885 12.521 19.6657C12.8135 19.5895 13.0993 19.5006 13.3784 19.3991C13.4498 19.3749 13.5149 19.3505 13.5827 19.3277C13.8992 19.2057 14.2092 19.0677 14.5116 18.914C14.5395 18.8997 14.568 18.8876 14.5952 18.8732C15.2741 18.5203 15.9104 18.0907 16.4914 17.5929C16.535 17.555 16.5758 17.515 16.6193 17.4764C16.8575 17.2673 17.0828 17.048 17.2952 16.8184C17.3538 16.7555 17.411 16.6919 17.4681 16.6276C17.6773 16.3923 17.8749 16.1475 18.0612 15.8931C18.0869 15.8581 18.1176 15.8274 18.1426 15.7917C18.1459 15.7854 18.1488 15.779 18.1512 15.7724C20.6156 12.3187 20.6156 7.6814 18.1512 4.22769ZM17.336 5.57954C18.0193 6.70491 18.4319 7.97357 18.5413 9.28561H14.2615C14.2091 8.43425 14.0751 7.58992 13.8614 6.76419C15.0703 6.53778 16.2405 6.13881 17.336 5.57954ZM11.8215 1.62338C11.8615 1.63267 11.9001 1.64552 11.9401 1.65482C12.1959 1.71485 12.4496 1.78342 12.6975 1.86916C12.7354 1.88201 12.7725 1.89704 12.8097 1.91061C13.0555 1.99635 13.2977 2.09138 13.5349 2.19642C13.5764 2.21572 13.6171 2.23715 13.6585 2.25645C13.8857 2.36459 14.1077 2.48152 14.3244 2.60728L14.4673 2.69373C14.6731 2.81949 14.8732 2.95404 15.0675 3.09743C15.1175 3.13385 15.1675 3.16889 15.2168 3.20887C15.4074 3.35176 15.5898 3.5049 15.7641 3.6683C15.8098 3.70974 15.857 3.75048 15.902 3.79335C16.0849 3.96696 16.2593 4.15058 16.4279 4.34064C16.4493 4.36563 16.4722 4.38849 16.4936 4.4121C15.5262 4.87316 14.5013 5.20238 13.4463 5.39094C12.9576 4.04742 12.312 2.76628 11.5229 1.57414C11.6222 1.59198 11.7236 1.60198 11.8215 1.62338ZM7.17162 9.28557C7.22797 8.5125 7.35959 7.74675 7.5646 6.99921C8.37414 7.09538 9.18866 7.14306 10.0039 7.1421C10.8199 7.14185 11.6351 7.09295 12.4453 6.99561C12.6499 7.74436 12.7809 8.51132 12.8361 9.28557H7.17162ZM12.8361 10.7146C12.7798 11.4876 12.6481 12.2534 12.4431 13.0009C11.6336 12.9048 10.8191 12.8571 10.0038 12.858C9.1879 12.8571 8.37267 12.9048 7.56242 13.0009C7.358 12.2534 7.22713 11.4876 7.17157 10.7146H12.8361ZM10.0038 1.89206C10.8169 3.04447 11.4857 4.29225 11.9951 5.60742C11.3337 5.67767 10.669 5.71297 10.0038 5.71317C9.33941 5.71238 8.67544 5.67688 8.01469 5.60671C8.52477 4.29241 9.19272 3.04506 10.0038 1.89206ZM3.58059 4.33989C3.74851 4.14982 3.92355 3.9662 4.10645 3.79259C4.15146 3.74972 4.19864 3.70899 4.24436 3.66754C4.42061 3.50703 4.60305 3.35389 4.79165 3.20812C4.84097 3.17023 4.89096 3.13666 4.94098 3.09668C5.13532 2.95379 5.33539 2.8192 5.54116 2.69297L5.68404 2.60652C5.90077 2.47984 6.12274 2.36287 6.34994 2.2557C6.39139 2.2364 6.43212 2.21496 6.47357 2.19566C6.71077 2.08849 6.953 1.99346 7.19879 1.90985C7.23592 1.89629 7.27025 1.88126 7.31094 1.86841C7.55887 1.78552 7.8111 1.71694 8.06832 1.65406C8.10834 1.64477 8.1469 1.63192 8.18763 1.62333C8.28551 1.6019 8.38699 1.59189 8.48629 1.57402C7.69689 2.76636 7.05109 4.04776 6.56215 5.39153C5.5072 5.20297 4.48227 4.87375 3.51486 4.41269C3.5363 4.38774 3.55916 4.36488 3.58059 4.33989ZM2.67175 5.57954C3.76697 6.13877 4.93688 6.53774 6.1456 6.76419C5.93213 7.58997 5.79837 8.43429 5.74621 9.28561H1.46643C1.57586 7.97357 1.98848 6.70491 2.67175 5.57954ZM2.67175 14.4206C1.98844 13.2953 1.57582 12.0266 1.46643 10.7146H5.74621C5.79862 11.5659 5.93259 12.4103 6.14631 13.236C4.93738 13.4624 3.76723 13.8613 2.67175 14.4206ZM8.18621 18.3768C8.14618 18.3675 8.10763 18.3546 8.0676 18.3453C7.81181 18.2853 7.55815 18.2167 7.31023 18.131C7.27234 18.1181 7.23521 18.1031 7.19803 18.0895C6.95225 18.0038 6.71006 17.9088 6.47281 17.8037C6.43137 17.7844 6.39063 17.763 6.34919 17.7437C6.12199 17.6356 5.90002 17.5186 5.68329 17.3929L5.5404 17.3064C5.33464 17.1807 5.13457 17.0461 4.94023 16.9027C4.8902 16.8663 4.84022 16.8313 4.7909 16.7913C4.60037 16.6484 4.41793 16.4952 4.2436 16.3319C4.19789 16.2904 4.15071 16.2497 4.1057 16.2068C3.92279 16.0332 3.74847 15.8496 3.57984 15.6595C3.5584 15.6345 3.53555 15.6117 3.51411 15.588C4.48156 15.127 5.50645 14.7978 6.5614 14.6092C7.05013 15.9527 7.69572 17.2339 8.48479 18.426C8.38552 18.4082 8.28409 18.3982 8.18621 18.3768ZM10.0038 18.1081C9.19075 16.9557 8.522 15.7079 8.01255 14.3928C9.33577 14.2503 10.6705 14.2503 11.9937 14.3928L11.993 14.3935C11.483 15.7077 10.815 16.9551 10.0038 18.1081ZM16.4271 15.6603C16.2592 15.8503 16.0842 16.0339 15.9013 16.2076C15.8563 16.2504 15.8091 16.2912 15.7634 16.3326C15.5871 16.4936 15.4047 16.6468 15.2161 16.792C15.1668 16.8299 15.1168 16.867 15.0667 16.9035C14.8724 17.0464 14.6723 17.1809 14.4666 17.3072L14.3237 17.3936C14.1074 17.5198 13.8855 17.6368 13.6578 17.7444C13.6163 17.7637 13.5756 17.7852 13.5342 17.8045C13.297 17.9117 13.0547 18.0067 12.8089 18.0903C12.7718 18.1039 12.7375 18.1189 12.6968 18.1317C12.4489 18.2146 12.1966 18.2832 11.9394 18.3461C11.8994 18.3554 11.8608 18.3682 11.8201 18.3768C11.7222 18.3982 11.6207 18.4083 11.5214 18.4261C12.3105 17.234 12.9561 15.9528 13.4448 14.6093C14.4998 14.7979 15.5247 15.1271 16.4921 15.5882C16.4714 15.6124 16.4486 15.6353 16.4271 15.6603ZM17.336 14.4206C16.2408 13.8614 15.0708 13.4624 13.8621 13.236C14.0756 12.4102 14.2094 11.5659 14.2615 10.7146H18.5413C18.4319 12.0266 18.0192 13.2952 17.336 14.4206Z" fill="black"/>
</g>
<defs>
<clipPath id="clip0_2174_4756">
<rect width="20" height="20" fill="white"/>
</clipPath>
</defs>
</svg>
