<svg width="12" height="13" viewBox="0 0 12 13" fill="none" xmlns="http://www.w3.org/2000/svg">
<path d="M11.4141 10.4321C11.1194 9.7339 10.6916 9.09973 10.1547 8.56488C9.61946 8.02849 8.9854 7.60082 8.28754 7.3055C8.28129 7.30238 8.27504 7.30082 8.26879 7.29769C9.24222 6.59457 9.87504 5.44925 9.87504 4.15707C9.87504 2.01644 8.14066 0.282066 6.00004 0.282066C3.85941 0.282066 2.12504 2.01644 2.12504 4.15707C2.12504 5.44925 2.75785 6.59457 3.73129 7.29925C3.72504 7.30238 3.71879 7.30394 3.71254 7.30707C3.01254 7.60238 2.38441 8.02582 1.84535 8.56644C1.30896 9.1017 0.881296 9.73577 0.585976 10.4336C0.295855 11.1168 0.139386 11.8493 0.125039 12.5914C0.124622 12.6081 0.127547 12.6247 0.133642 12.6402C0.139737 12.6558 0.148878 12.6699 0.160527 12.6819C0.172176 12.6938 0.186098 12.7033 0.201471 12.7098C0.216844 12.7162 0.233358 12.7196 0.250039 12.7196H1.18754C1.25629 12.7196 1.31098 12.6649 1.31254 12.5977C1.34379 11.3914 1.82816 10.2618 2.68441 9.4055C3.57035 8.51957 4.74691 8.03207 6.00004 8.03207C7.25316 8.03207 8.42973 8.51957 9.31566 9.4055C10.1719 10.2618 10.6563 11.3914 10.6875 12.5977C10.6891 12.6664 10.7438 12.7196 10.8125 12.7196H11.75C11.7667 12.7196 11.7832 12.7162 11.7986 12.7098C11.814 12.7033 11.8279 12.6938 11.8395 12.6819C11.8512 12.6699 11.8603 12.6558 11.8664 12.6402C11.8725 12.6247 11.8755 12.6081 11.875 12.5914C11.8594 11.8446 11.7047 11.118 11.4141 10.4321ZM6.00004 6.84457C5.28285 6.84457 4.60785 6.56488 4.10004 6.05707C3.59223 5.54925 3.31254 4.87425 3.31254 4.15707C3.31254 3.43988 3.59223 2.76488 4.10004 2.25707C4.60785 1.74925 5.28285 1.46957 6.00004 1.46957C6.71723 1.46957 7.39222 1.74925 7.90004 2.25707C8.40785 2.76488 8.68754 3.43988 8.68754 4.15707C8.68754 4.87425 8.40785 5.54925 7.90004 6.05707C7.39222 6.56488 6.71723 6.84457 6.00004 6.84457Z" fill="#222222"/>
</svg>
