<svg width="25" height="24" viewBox="0 0 25 24" fill="none" xmlns="http://www.w3.org/2000/svg">
<g clip-path="url(#clip0_4297_20745)">
<path d="M23.3819 5.88231C23.0229 5.05085 22.5052 4.29739 21.8578 3.66411C21.21 3.02894 20.4461 2.52418 19.6078 2.17728C18.7386 1.81613 17.8063 1.63127 16.865 1.63344C15.5445 1.63344 14.2561 1.9951 13.1365 2.67824C12.8686 2.84166 12.6142 3.02115 12.3731 3.21672C12.132 3.02115 11.8776 2.84166 11.6097 2.67824C10.4901 1.9951 9.20168 1.63344 7.88116 1.63344C6.93027 1.63344 6.00885 1.81561 5.13833 2.17728C4.29726 2.52554 3.53923 3.02651 2.88835 3.66411C2.24013 4.29668 1.72232 5.05031 1.36425 5.88231C0.991935 6.74762 0.801758 7.66651 0.801758 8.61219C0.801758 9.50429 0.983899 10.4339 1.3455 11.3796C1.64818 12.1699 2.0821 12.9896 2.63656 13.8175C3.51513 15.1275 4.72315 16.4938 6.22314 17.8788C8.70883 20.1747 11.1704 21.7606 11.2749 21.8249L11.9097 22.2321C12.1909 22.4116 12.5525 22.4116 12.8338 22.2321L13.4686 21.8249C13.5731 21.758 16.032 20.1747 18.5203 17.8788C20.0203 16.4938 21.2284 15.1275 22.1069 13.8175C22.6614 12.9896 23.098 12.1699 23.398 11.3796C23.7596 10.4339 23.9417 9.50429 23.9417 8.61219C23.9444 7.66651 23.7542 6.74762 23.3819 5.88231ZM12.3731 20.1131C12.3731 20.1131 2.83745 14.0023 2.83745 8.61219C2.83745 5.88231 5.09547 3.66947 7.88116 3.66947C9.83918 3.66947 11.5374 4.76249 12.3731 6.35917C13.2088 4.76249 14.907 3.66947 16.865 3.66947C19.6507 3.66947 21.9087 5.88231 21.9087 8.61219C21.9087 14.0023 12.3731 20.1131 12.3731 20.1131Z" fill="white" fill-opacity="0.85"/>
<path d="M16.8654 3.66943C14.9074 3.66943 13.2092 4.76246 12.3735 6.35913C11.5378 4.76246 9.83961 3.66943 7.8816 3.66943C5.09591 3.66943 2.83789 5.88227 2.83789 8.61216C2.83789 14.0023 12.3735 20.113 12.3735 20.113C12.3735 20.113 21.9091 14.0023 21.9091 8.61216C21.9091 5.88227 19.6511 3.66943 16.8654 3.66943Z" fill="#FF385C"/>
</g>
<defs>
<clipPath id="clip0_4297_20745">
<rect width="24" height="24" fill="white" transform="translate(0.37207)"/>
</clipPath>
</defs>
</svg>
