<svg width="36" height="36" viewBox="0 0 36 36" fill="none" xmlns="http://www.w3.org/2000/svg">
<path d="M7.48828 23.375V32.0812L15.0319 27.7346L7.48828 23.375ZM9.04107 26.0744L11.9315 27.7466L9.04107 29.4069V26.0744Z" fill="#222222"/>
<path d="M0 19.4688V35.9996H21.0218V19.4688H0ZM19.4691 34.4468H1.55279V21.0215H19.4691V34.4468Z" fill="#222222"/>
<path d="M7.48828 0V18.0239H35.9991V0H7.48828ZM34.4466 16.4712H9.04107V1.55279H34.4465V16.4712H34.4466Z" fill="#222222"/>
<path d="M17.8331 2.31641C16.4953 2.31641 15.3965 3.41524 15.3965 4.75303C15.3965 6.09082 16.4953 7.18965 17.8331 7.18965C19.1708 7.18965 20.2697 6.09082 20.2697 4.75303C20.2697 3.41524 19.1708 2.31641 17.8331 2.31641ZM17.8331 5.63675C17.3434 5.63675 16.9493 5.24259 16.9493 4.75292C16.9493 4.26324 17.3434 3.86908 17.8331 3.86908C18.3228 3.86908 18.7169 4.26324 18.7169 4.75292C18.7169 5.24259 18.3228 5.63675 17.8331 5.63675Z" fill="#222222"/>
<path d="M34.6865 3.35547L28.1889 9.57837L24.3787 5.92344L18.2275 11.812L14.1305 7.89424L7.72852 14.0096L8.80338 15.1324L14.1305 10.0442L18.2275 13.9619L24.3787 8.0734L28.1889 11.7283L35.7615 4.47815L34.6865 3.35547Z" fill="#222222"/>
</svg>
