<svg width="20" height="20" viewBox="0 0 20 20" fill="none" xmlns="http://www.w3.org/2000/svg">
<path d="M5.4567 1.53555C4.96495 2.08436 4.96495 2.91531 5.4567 3.46412C5.4673 3.47454 5.47851 3.48433 5.49028 3.49341C5.67828 3.7646 5.66757 4.12666 5.46384 4.38626C5.45163 4.39832 5.44041 4.41134 5.43028 4.4252L5.4267 4.42984C5.34847 4.53801 5.33709 4.68079 5.39721 4.79999C5.45733 4.91919 5.57892 4.9949 5.71241 4.99626C5.81121 4.99645 5.90573 4.95603 5.97384 4.88448C6.46167 4.33526 6.45967 3.50741 5.9692 2.96055C5.95881 2.95004 5.94771 2.94026 5.93599 2.93126C5.75797 2.67132 5.75797 2.32871 5.93599 2.06876C5.94849 2.05938 5.96042 2.04924 5.9717 2.03841C6.45807 1.49574 6.46464 0.675959 5.98705 0.125551C5.86562 -0.0179332 5.65333 -0.0417474 5.50313 0.0712657C5.3453 0.190375 5.31338 0.414631 5.4317 0.573051C5.44183 0.586903 5.45307 0.599921 5.46528 0.61198C5.6691 0.871461 5.6801 1.23345 5.49242 1.50484C5.47999 1.51445 5.46807 1.5247 5.4567 1.53555Z" fill="#4E4E4E"/>
<path d="M7.33049 1.53548C6.83906 2.08443 6.83906 2.91512 7.33049 3.46405C7.3418 3.47463 7.35372 3.48453 7.3662 3.49369C7.55388 3.76508 7.54288 4.12707 7.33906 4.38655C7.32696 4.39862 7.31584 4.41164 7.30584 4.42548L7.30227 4.43013C7.22403 4.53829 7.21266 4.68107 7.27278 4.80027C7.3329 4.91947 7.45449 4.99518 7.58799 4.99655C7.68687 4.99667 7.78148 4.95627 7.84977 4.88477C8.33743 4.33549 8.33543 3.50776 7.84512 2.96084C7.83453 2.95031 7.82332 2.94041 7.81156 2.93119C7.6341 2.67121 7.6341 2.32904 7.81156 2.06905C7.82421 2.05985 7.83614 2.04971 7.84727 2.03869C8.33332 1.49591 8.3399 0.676362 7.86262 0.125839C7.74044 -0.0158149 7.52966 -0.0391837 7.37941 0.0722665C7.22158 0.191376 7.18966 0.415632 7.30799 0.574052C7.31799 0.5879 7.3291 0.600919 7.3412 0.612981C7.54512 0.872344 7.55641 1.23427 7.36906 1.50584C7.35553 1.51482 7.34264 1.52473 7.33049 1.53548Z" fill="#4E4E4E"/>
<path d="M9.11636 1.53548C8.62495 2.08443 8.62495 2.91512 9.11636 3.46405C9.12767 3.47463 9.13961 3.48453 9.15208 3.49369C9.33976 3.76508 9.32875 4.12707 9.12494 4.38655C9.11284 4.39862 9.10173 4.41164 9.09173 4.42548L9.08815 4.43013C9.00992 4.53829 8.99854 4.68107 9.05866 4.80027C9.11878 4.91947 9.24037 4.99518 9.37386 4.99655C9.47274 4.99667 9.56735 4.95627 9.63564 4.88477C10.1233 4.33549 10.1213 3.50776 9.63101 2.96084C9.62041 2.95031 9.6092 2.94041 9.59743 2.93119C9.41997 2.67121 9.41997 2.32904 9.59743 2.06905C9.61008 2.05985 9.62203 2.04971 9.63314 2.03869C10.1192 1.49591 10.1258 0.676362 9.64851 0.125839C9.52632 -0.0158149 9.31554 -0.0391837 9.16529 0.0722665C9.00746 0.191376 8.97554 0.415632 9.09386 0.574052C9.10387 0.5879 9.11498 0.600919 9.12708 0.612981C9.33101 0.872344 9.34229 1.23427 9.15494 1.50584C9.14142 1.51482 9.12853 1.52473 9.11636 1.53548Z" fill="#4E4E4E"/>
<path d="M16.0136 2.60135C16.4023 1.7373 16.0211 0.721487 15.16 0.326348C15.1529 0.322777 15.1421 0.319205 15.135 0.315633C14.7101 0.128845 14.2276 0.122605 13.798 0.298347C13.3684 0.474087 13.0286 0.816739 12.8565 1.24777L11.2207 6.59777H13.6743L16.0136 2.60135ZM13.6243 1.99063C13.86 1.44777 14.3457 1.13706 14.7065 1.29421C15.0671 1.45135 15.1707 2.02277 14.9315 2.56206C14.6921 3.10135 14.21 3.41563 13.8457 3.2585C13.4815 3.10135 13.385 2.5335 13.6243 1.99063Z" fill="#4E4E4E"/>
<path d="M15.7324 8.57116H17.5181C17.9126 8.57116 18.2324 8.25136 18.2324 7.85687C18.2324 7.46238 17.9126 7.14258 17.5181 7.14258H15.7324V8.57116Z" fill="#4E4E4E"/>
<path d="M19.6426 16.7856C19.6415 16.3916 19.3224 16.0725 18.9284 16.0713H1.07122C0.677219 16.0725 0.35811 16.3916 0.356934 16.7856V20H19.6426V16.7856ZM12.1426 18.5713C12.1426 18.7686 11.9827 18.9285 11.7855 18.9285H8.21408C8.01684 18.9285 7.85694 18.7686 7.85694 18.5713V17.5C7.85694 17.3026 8.01684 17.1427 8.21408 17.1427H11.7855C11.9827 17.1427 12.1426 17.3026 12.1426 17.5V18.5713ZM14.4641 18.9285C13.9709 18.9285 13.5712 18.5287 13.5712 18.0356C13.5712 17.5425 13.9709 17.1427 14.4641 17.1427C14.9572 17.1427 15.3569 17.5425 15.3569 18.0356C15.3569 18.5287 14.9572 18.9285 14.4641 18.9285ZM17.6784 18.9285C17.1853 18.9285 16.7855 18.5287 16.7855 18.0356C16.7855 17.5425 17.1853 17.1427 17.6784 17.1427C18.1715 17.1427 18.5712 17.5425 18.5712 18.0356C18.5712 18.5287 18.1715 18.9285 17.6784 18.9285Z" fill="#4E4E4E"/>
<path d="M2.48187 8.57116H4.26758V7.14258H2.48187C2.08738 7.14258 1.76758 7.46238 1.76758 7.85687C1.76758 8.25136 2.08738 8.57116 2.48187 8.57116Z" fill="#4E4E4E"/>
<path d="M6.42878 15.3569H13.5716C14.5578 15.3569 15.3574 14.5574 15.3574 13.5711V7.14258H4.64307V13.5711C4.64307 14.5574 5.44256 15.3569 6.42878 15.3569Z" fill="#4E4E4E"/>
</svg>
