<svg width="12" height="12" viewBox="0 0 12 12" fill="none" xmlns="http://www.w3.org/2000/svg">
<path d="M11.8236 6.40061C11.8236 4.73746 11.0749 3.24916 9.89627 2.2543C8.95223 1.45748 6.30006 1.36621 6.30006 1.36621L4.37791 1.3773C4.36361 1.38334 4.34634 1.37915 4.33211 1.38531C2.44816 2.20286 1.22559 4.13995 1.22559 6.39168C1.22559 9.38695 3.45878 11.4251 6.45405 11.4251C7.35456 11.4251 8.14991 11.6046 8.89734 11.2162C10.636 10.3128 11.8236 8.49536 11.8236 6.40061V6.40061Z" fill="#94CCD4"/>
<path d="M9.89679 2.25465C9.3453 2.61535 8.75327 2.97324 8.53132 3.02176C7.92218 3.19988 7.12929 2.82254 6.9664 3.7209C6.96171 3.89434 6.94648 4.0591 6.92046 4.21285C6.8914 4.38441 6.82765 4.5459 6.73507 4.68934C6.64249 4.83277 6.39609 4.87463 6.25265 4.97307C5.85773 5.24448 5.53685 5.26074 5.11169 5.03926C5.10091 5.03363 5.0899 5.02777 5.07888 5.02191C4.3706 4.6748 3.95451 3.87652 4.68881 3.29316C5.17139 2.89473 5.09841 2.19191 4.76114 1.75269L4.55817 1.51784C4.71574 1.45276 4.65159 1.26289 4.81622 1.21266C5.31743 1.05976 5.84944 0.977539 6.40059 0.977539C7.7328 0.977539 8.95273 1.45777 9.89679 2.25465V2.25465Z" fill="#B7E546"/>
<path d="M10.6069 5.05861C10.6039 4.61093 10.4232 4.18249 10.1044 3.86796C9.83236 3.55676 9.73828 3.37134 9.36446 3.71491C9.01013 4.15565 9.3596 4.70268 8.60649 5.45428C8.4731 5.59005 8.39827 5.77591 8.40579 5.96643C8.40551 5.96639 8.40563 5.93278 8.40537 5.93273C8.43244 6.40464 8.75478 6.78506 9.2142 6.78506C9.80435 6.78503 10.6069 6.09227 10.6069 5.05861Z" fill="#B7E546"/>
<path d="M8.9084 5.41946C8.77505 5.5554 8.70004 5.74126 8.70754 5.93181C8.70731 5.93157 8.70731 5.93134 8.70708 5.93134C8.72958 6.32204 9.06825 6.65087 9.44489 6.75259C9.3659 6.77415 9.28809 6.78517 9.21356 6.78517C8.75419 6.78517 8.26551 6.40337 8.23833 5.93134C8.23856 5.93134 8.23856 5.93157 8.23879 5.93181C8.23129 5.74126 8.3063 5.5554 8.43965 5.41946C9.1927 4.66806 8.7563 4.08095 9.11067 3.64032C9.32419 3.44391 9.52926 3.44485 9.7163 3.53977C9.67106 3.56485 9.62559 3.5979 9.57942 3.64032C9.22505 4.08095 9.66145 4.66806 8.9084 5.41946V5.41946Z" fill="#ABD641"/>
<path d="M11.1166 0.585961V3.29313L10.9441 3.45691C10.9441 3.68344 10.6865 3.71756 10.46 3.71756L9.22182 3.70826C9.16421 3.70826 9.10805 3.72644 9.06141 3.76024L8.03966 4.46972C7.94926 4.5352 7.82272 4.47061 7.82272 4.359L7.91862 4.01777C7.91862 3.86674 7.79619 3.74433 7.64518 3.74433H7.31705C7.09053 3.74433 6.90687 3.5607 6.90687 3.33415L6.85742 0.794531C6.85742 0.568008 6.9474 0.329086 7.17392 0.329086L7.28825 0.175781H10.7064C10.9329 0.175781 11.1166 0.359414 11.1166 0.585961V0.585961Z" fill="#DC4955"/>
<path d="M11.1165 3.29313V3.42987C11.1165 3.65641 10.9328 3.84005 10.7063 3.84005H9.23838C9.18068 3.84005 9.12462 3.85838 9.07814 3.89201L7.96983 4.69458C7.87959 4.7602 7.75298 4.69568 7.75298 4.58384V4.11349C7.75298 3.96246 7.63055 3.84005 7.47954 3.84005H7.15139C6.92487 3.84005 6.74121 3.65641 6.74121 3.42987V0.585961C6.74121 0.359438 6.92484 0.175781 7.15139 0.175781H7.28812V3.23845C7.28812 3.26866 7.31262 3.29313 7.3428 3.29313H7.47954C7.79428 3.29313 8.0681 3.47114 8.20561 3.732C8.22905 3.77646 8.28588 3.7905 8.32659 3.76099L8.75709 3.44899C8.89793 3.34699 9.06445 3.29313 9.23836 3.29313H11.1165Z" fill="#D82F3C"/>
<path d="M7.69004 11.3505C4.62301 11.3505 2.13652 8.87133 2.13652 5.8132C2.13652 3.99187 2.97155 2.39496 4.33304 1.38574C2.36361 2.19867 0.977539 4.13801 0.977539 6.40102C0.977539 7.32321 1.2077 8.19164 1.61373 8.952C1.61373 8.952 2.90253 9.9727 3.55423 10.4523C4.45325 11.114 6.20009 11.5407 6.20009 11.5407C6.20009 11.5407 8.14381 11.6067 8.88912 11.2209C8.50285 11.3058 8.10184 11.3505 7.69004 11.3505V11.3505Z" fill="#6FBBC6"/>
<path d="M8.89691 11.2159C8.46109 10.6089 7.65957 9.93975 7.69402 9.13376C7.70577 8.85897 7.66951 8.58328 7.57904 8.32343C7.57761 8.31991 7.57646 8.31647 7.57531 8.31304C7.52956 8.18435 7.46084 8.06526 7.37527 7.95912C7.13907 7.66568 6.63505 6.90012 6.3886 6.79277C5.918 6.5017 5.28087 6.71845 5.02911 7.19637C4.81058 7.74919 4.7503 8.50664 4.17943 8.80481C3.83818 8.98987 3.34634 8.94829 3.08675 8.64187C2.63635 8.05687 2.00577 8.62251 1.61328 8.95167C1.76923 9.24302 2.40554 9.45661 2.61132 9.71503C3.46515 10.7876 4.22506 11.201 5.47618 11.4255C6.6399 11.6367 7.83404 11.768 8.88423 11.2224C8.88844 11.2202 8.89269 11.2181 8.89691 11.2159V11.2159Z" fill="#B7E546"/>
<path d="M8.88594 11.2208C7.95359 11.7059 6.87699 11.9038 5.8325 11.7941V11.7939C4.06721 11.6213 2.43807 10.5201 1.61328 8.95115C1.92359 8.69076 2.3832 8.28225 2.78469 8.41279C3.71867 10.1605 5.56461 11.35 7.68898 11.35C8.10008 11.35 8.50039 11.3055 8.88594 11.2208V11.2208Z" fill="#ABD641"/>
<path d="M10.0961 6.52539V9.23257L9.9236 9.39635C9.9236 9.62287 9.66607 9.65699 9.43952 9.65699L8.20134 9.64769C8.14373 9.64769 8.08757 9.66588 8.04093 9.69967L7.01917 10.4092C6.92877 10.4746 6.80224 10.41 6.80224 10.2984L6.89814 9.95721C6.89814 9.80617 6.7757 9.68376 6.6247 9.68376H6.29655C6.07002 9.68376 5.88637 9.50013 5.88637 9.27358L5.83691 6.73398C5.83691 6.50746 5.92689 6.26854 6.15341 6.26854L6.26774 6.11523H9.68589C9.91244 6.11521 10.0961 6.29887 10.0961 6.52539V6.52539Z" fill="#FFBF54"/>
<path d="M10.0959 9.23259V9.36932C10.0959 9.59584 9.91231 9.7795 9.68576 9.7795H8.21787C8.16017 9.7795 8.10411 9.79783 8.05763 9.83146L6.94932 10.634C6.85909 10.6997 6.73248 10.6351 6.73248 10.5233V10.0529C6.73248 9.90191 6.61004 9.7795 6.45903 9.7795H6.13088C5.90436 9.7795 5.7207 9.59587 5.7207 9.36932V6.52541C5.7207 6.29889 5.90434 6.11523 6.13088 6.11523H6.26762V9.17791C6.26762 9.20812 6.29211 9.23259 6.3223 9.23259H6.45903C6.77377 9.23259 7.04759 9.41059 7.1851 9.67145C7.20854 9.71591 7.26537 9.72995 7.30608 9.70044L7.73658 9.38844C7.87742 9.28644 8.04394 9.23259 8.21785 9.23259H10.0959Z" fill="#FFA442"/>
<path d="M4.86738 3.59527L4.86058 3.6009C4.77011 3.67285 4.45605 3.96043 4.23339 4.20699C4.14386 3.86879 4.22168 3.50973 4.56902 3.23387C5.0516 2.83543 4.87347 2.05918 4.53621 1.61996L4.3331 1.385C4.4906 1.31984 4.65199 1.26207 4.81675 1.21191C4.96254 1.4334 5.09214 1.61996 5.09214 1.61996C5.4416 2.27082 5.4573 3.10848 4.86738 3.59527V3.59527Z" fill="#ABD641"/>
<path d="M6.75512 4.6566C6.7488 4.66738 6.74223 4.67793 6.73544 4.68848C6.64286 4.83191 6.52192 4.95707 6.37848 5.05551C5.98356 5.32691 5.47145 5.35738 5.0463 5.1359C5.03552 5.13027 5.0245 5.12441 5.01348 5.11855C4.34692 4.79183 3.89106 3.92769 4.45145 3.34082C4.27309 3.87941 4.69427 4.50121 5.26122 4.76699C5.2727 4.77285 5.28419 4.77871 5.29544 4.78433C5.73981 5.00582 6.27512 4.97535 6.68786 4.70394C6.71083 4.68894 6.73333 4.67324 6.75512 4.6566Z" fill="#ABD641"/>
<path d="M5.77344 11.7871C5.77494 11.7873 5.77644 11.7875 5.77794 11.7876C5.77644 11.7875 5.77494 11.7873 5.77344 11.7871Z" fill="#94CCD4"/>
<path d="M4.09277 11.3096C4.09809 11.3121 4.10346 11.3145 4.10878 11.317C4.10344 11.3145 4.09809 11.3121 4.09277 11.3096Z" fill="#94CCD4"/>
<path d="M8.88883 11.2207C8.79203 11.2709 8.69383 11.318 8.59375 11.362C8.69219 11.3184 8.78922 11.2718 8.88484 11.2221C8.88555 11.2219 8.88602 11.2214 8.88672 11.2212C8.88742 11.2209 8.88813 11.2209 8.88883 11.2207V11.2207Z" fill="#94CCD4"/>
<path d="M0.364258 3.38626L0.398664 5.74494C0.398664 5.97592 0.586867 6.16316 0.819039 6.16316L2.13869 6.20629C2.19773 6.20629 2.25527 6.22485 2.30308 6.2593L3.20371 7.02069C3.29636 7.08747 3.42604 7.02161 3.42604 6.90779L3.48295 6.53971C3.48295 6.38572 3.60841 6.2609 3.76319 6.2609L4.19875 6.2593C4.43092 6.2593 4.65953 6.20418 4.65953 5.9732V3.07349C4.65953 2.84252 4.47133 2.65527 4.23916 2.65527H0.595891C0.363719 2.65527 0.364258 3.15529 0.364258 3.38626V3.38626Z" fill="#FAF8F8"/>
<path d="M4.65984 5.92367V5.9743C4.65984 6.20516 4.47164 6.39242 4.23937 6.39242H3.90305C3.74836 6.39242 3.62297 6.51735 3.62297 6.67133V7.1511C3.62297 7.26477 3.49312 7.33063 3.40055 7.26383L2.265 6.44539C2.21719 6.41094 2.15953 6.39242 2.10047 6.39242H0.59625C0.363984 6.39242 0.175781 6.20516 0.175781 5.9743V3.07461C0.175781 2.84352 0.363984 2.65625 0.59625 2.65625H0.644531V5.80649C0.644531 5.8712 0.697008 5.92367 0.761719 5.92367H2.10047C2.25797 5.92367 2.41148 5.97336 2.53898 6.06524L3.06281 6.44281C3.11297 6.47891 3.18281 6.45688 3.20531 6.39946C3.31453 6.12125 3.58617 5.92367 3.90305 5.92367H4.65984Z" fill="#F0E9E6"/>
<path d="M11.2943 3.67763C11.3132 3.61969 11.3236 3.55791 11.3236 3.49373V0.594C11.3236 0.266461 11.0562 0 10.7275 0H7.08422C6.75551 0 6.48806 0.266461 6.48806 0.594V0.802641C5.70213 0.786891 4.88524 0.949992 4.16302 1.26673C3.5018 1.55531 2.91056 1.96355 2.40412 2.47997H1.78125C1.68417 2.47997 1.60547 2.55867 1.60547 2.65575C1.60547 2.75283 1.68417 2.83153 1.78125 2.83153H4.23942C4.37428 2.83153 4.48402 2.9403 4.48402 3.07397V5.97368C4.48402 6.10737 4.37428 6.21614 4.23942 6.21614H3.90312C3.65166 6.21614 3.44707 6.42007 3.44707 6.67073V7.08019L2.36768 6.30234C2.28945 6.24595 2.19705 6.21616 2.10052 6.21616H0.596156C0.461297 6.21616 0.351562 6.10739 0.351562 5.9737V3.07399C0.351562 2.9403 0.461297 2.83155 0.596156 2.83155H0.960938C1.05802 2.83155 1.13672 2.75285 1.13672 2.65577C1.13672 2.5587 1.05802 2.47999 0.960938 2.47999H0.596156C0.267445 2.47999 0 2.74645 0 3.07399V5.9737C0 6.30124 0.267445 6.56773 0.596156 6.56773H0.804305C0.845977 8.00077 1.42348 9.34195 2.44158 10.3601C3.49913 11.4176 4.90521 12 6.4008 12C7.17839 12 7.93111 11.8436 8.6381 11.5351C9.32093 11.2372 9.92941 10.812 10.4467 10.2715C10.5138 10.2013 10.5114 10.0901 10.4412 10.0229C10.371 9.9558 10.2598 9.95824 10.1927 10.0284C9.80646 10.432 9.36827 10.7652 8.8928 11.0226C8.66939 10.7253 8.34157 10.3675 8.12241 10.0246L8.16431 9.99441C8.18231 9.98142 8.20362 9.97458 8.22591 9.97458H9.73027C10.059 9.97458 10.3264 9.70812 10.3264 9.38058V6.48087C10.3264 6.44161 10.3225 6.40329 10.3151 6.36614C10.6173 6.00452 10.7827 5.54355 10.7827 5.05711C10.7804 4.7112 10.6827 4.37698 10.5032 4.08773H10.7275C10.8508 4.08773 10.9656 4.05019 11.0608 3.98597C11.4458 4.7283 11.6484 5.55813 11.6484 6.4008C11.6484 7.48589 11.3202 8.52712 10.6991 9.41196C10.6433 9.49141 10.6625 9.60105 10.742 9.65681C10.7945 9.6945 10.9073 9.70959 10.9869 9.61392C11.6497 8.66962 12 7.55855 12 6.4008C12 5.44601 11.7562 4.50642 11.2943 3.67763V3.67763ZM4.23942 2.47999H2.91258C3.32538 2.1112 3.78668 1.81465 4.28194 1.59609L4.39945 1.73168C4.59673 1.99066 4.71987 2.36245 4.67948 2.67373C4.57041 2.55476 4.41352 2.47999 4.23942 2.47999V2.47999ZM8.33339 10.885C8.41744 10.9874 8.49825 11.086 8.57245 11.1822C7.90052 11.4877 7.16449 11.6484 6.4008 11.6484C4.43393 11.6484 2.71666 10.5605 1.81823 8.95507C2.06606 8.75067 2.3853 8.50226 2.64035 8.53184C2.74444 8.54393 2.83659 8.60475 2.92207 8.71786C3.13596 9.00061 3.4969 9.05571 3.74977 9.07256C4.12734 9.04922 4.46381 8.85635 4.67388 8.54538C4.7288 8.46532 4.70843 8.35591 4.62837 8.301C4.5483 8.24606 4.4389 8.26648 4.38398 8.34652C4.23293 8.56673 4.03343 8.68589 3.75713 8.72065C3.47016 8.69958 3.29871 8.63304 3.20248 8.5058C3.05808 8.31478 2.8826 8.20603 2.6809 8.18259C2.30859 8.13945 1.94243 8.40103 1.65352 8.63555C1.3553 8.00459 1.17926 7.30512 1.15608 6.5677H2.10049C2.1228 6.5677 2.14411 6.57455 2.16211 6.58753L3.29773 7.40592C3.35285 7.44565 3.41745 7.46585 3.48248 7.46585C3.5317 7.46585 3.58116 7.45427 3.62693 7.43086C3.73284 7.37665 3.79861 7.26921 3.79861 7.15043V6.67073C3.79861 6.61392 3.84548 6.5677 3.90309 6.5677H4.2394C4.56811 6.5677 4.83555 6.30122 4.83555 5.97368V5.22352C5.04478 5.35254 5.37616 5.46708 5.64593 5.45974C5.93763 5.45974 6.22795 5.37274 6.47782 5.20113C6.80393 4.97716 7.02846 4.62757 7.09387 4.242C7.10236 4.19194 7.10979 4.14037 7.11616 4.08771H7.4205C7.47811 4.08771 7.52496 4.13393 7.52496 4.19074V4.67044C7.52496 4.7892 7.59075 4.89666 7.69664 4.95087C7.78598 4.99268 7.89485 5.00686 8.02582 4.92595L8.74943 4.40449C8.72147 4.67672 8.64825 4.96315 8.31483 5.29589C8.15824 5.45529 8.06836 5.66822 8.06358 5.88682H6.08698C5.75827 5.88682 5.49082 6.1533 5.49082 6.48084V6.55683C5.16448 6.68123 4.9032 6.95583 4.7861 7.30172C4.76058 7.37714 4.72062 7.5056 4.68349 7.6283C4.65511 7.72113 4.70735 7.81941 4.80019 7.84779C4.87097 7.86766 4.97119 7.84315 5.01968 7.73109C5.04459 7.64958 5.07877 7.53591 5.11913 7.41443C5.18681 7.21446 5.32069 7.04857 5.49084 6.94627V9.38053C5.49084 9.70807 5.75829 9.97453 6.087 9.97453H6.4233C6.48091 9.97453 6.52777 10.0208 6.52777 10.0776V10.5572C6.52777 10.676 6.59355 10.7834 6.69945 10.8377C6.74522 10.8611 6.79467 10.8727 6.84391 10.8727C6.90895 10.8727 6.97357 10.8525 7.02867 10.8127L7.83698 10.2303C7.9852 10.4604 8.16157 10.6758 8.33339 10.885V10.885ZM9.97491 9.38055C9.97491 9.51424 9.86517 9.62299 9.73031 9.62299H8.22595C8.12939 9.62299 8.037 9.6528 7.95879 9.7092L6.87937 10.4871V10.0776C6.87937 9.82692 6.67479 9.62299 6.42335 9.62299H6.08705C5.95219 9.62299 5.84245 9.51422 5.84245 9.38055V6.48087C5.84245 6.34718 5.95219 6.23841 6.08705 6.23841H8.25818C8.25837 6.23841 8.25853 6.23845 8.25872 6.23845C8.25898 6.23845 8.25923 6.23841 8.25949 6.23841H9.73034C9.8652 6.23841 9.97493 6.34718 9.97493 6.48087V9.38055H9.97491ZM10.4312 5.0583C10.4312 5.4154 10.3235 5.75573 10.1252 6.0364C10.02 5.94345 9.8817 5.88684 9.73031 5.88684H8.41533C8.42002 5.75988 8.47345 5.63613 8.56444 5.54353C9.05951 5.04949 9.0896 4.61168 9.11377 4.25991C9.11672 4.21669 9.1197 4.17518 9.12335 4.13505L9.16146 4.10759C9.17948 4.0946 9.20079 4.08773 9.2231 4.08773H10.069C10.3005 4.35877 10.4288 4.70135 10.4312 5.0583V5.0583ZM10.7275 3.73617H9.22312C9.12659 3.73617 9.0342 3.76596 8.95596 3.82235L8.85094 3.89803C8.85054 3.89831 8.85014 3.89859 8.84974 3.89888L7.87655 4.60022V4.19074C7.87655 3.94008 7.67196 3.73615 7.42052 3.73615H7.08422C6.94936 3.73615 6.83963 3.62738 6.83963 3.49371V2.83594C6.83963 2.73886 6.76092 2.66016 6.66384 2.66016C6.56677 2.66016 6.48806 2.73886 6.48806 2.83594V3.49371C6.48806 3.70734 6.60187 3.89491 6.7722 3.99959C6.76549 4.06273 6.75729 4.1243 6.74728 4.18324C6.69771 4.47555 6.52695 4.74094 6.27881 4.91135C5.84107 5.21946 5.25127 5.14167 4.83558 4.79763V3.20822C5.21273 2.7108 5.02404 1.9196 4.62764 1.45814C5.19352 1.25517 5.85087 1.14077 6.48804 1.15418V2.01562C6.48804 2.1127 6.56674 2.19141 6.66382 2.19141C6.7609 2.19141 6.8396 2.1127 6.8396 2.01562V0.594C6.8396 0.460312 6.94934 0.351562 7.0842 0.351562H10.7275C10.8623 0.351562 10.9721 0.460336 10.9721 0.594V3.49371C10.9721 3.6274 10.8623 3.73617 10.7275 3.73617V3.73617Z" fill="black"/>
<path d="M9.9918 1.16609H9.08184V0.867187C9.08184 0.770109 9.00313 0.691406 8.90606 0.691406C8.80898 0.691406 8.73027 0.770109 8.73027 0.867187V1.16609H7.82031C7.72323 1.16609 7.64453 1.24479 7.64453 1.34187C7.64453 1.43895 7.72323 1.51765 7.82031 1.51765H8.18479C8.26919 1.89173 8.43613 2.23575 8.66863 2.52834C8.49072 2.6982 8.28257 2.83901 8.05047 2.94246L7.80829 3.05039C7.7196 3.08991 7.67976 3.19383 7.71927 3.28249C7.74843 3.34793 7.81265 3.38677 7.87994 3.38677C7.90384 3.38677 7.92815 3.38187 7.95138 3.37151L8.19356 3.26358C8.46072 3.14452 8.70063 2.98287 8.90606 2.78796C9.11148 2.98287 9.35139 3.14452 9.61855 3.26358L9.86073 3.37151C9.92252 3.3971 10.0384 3.38993 10.0928 3.28249C10.1324 3.19383 10.0925 3.08991 10.0038 3.05039L9.76164 2.94246C9.52952 2.83903 9.32139 2.6982 9.14348 2.52834C9.37598 2.23575 9.5429 1.89173 9.6273 1.51765H9.99177C10.0889 1.51765 10.1676 1.43895 10.1676 1.34187C10.1676 1.24479 10.0889 1.16609 9.9918 1.16609V1.16609ZM8.90606 2.26045C8.74134 2.04045 8.61843 1.78905 8.54664 1.51765H9.26545C9.19366 1.78905 9.07077 2.04045 8.90606 2.26045Z" fill="black"/>
<path d="M1.52393 5.74254C1.61477 5.7768 1.71621 5.73096 1.75045 5.64014L1.90301 5.23591H2.93297L3.08712 5.64066C3.11384 5.7108 3.18059 5.75393 3.25141 5.75393C3.2722 5.75393 3.29337 5.7502 3.31395 5.74238C3.40467 5.70783 3.45019 5.60627 3.41564 5.51555L2.62359 3.43589C2.62308 3.43455 2.62256 3.43322 2.62202 3.43188C2.58752 3.34758 2.50638 3.29306 2.4153 3.29297C2.41521 3.29297 2.41516 3.29297 2.41507 3.29297C2.32411 3.29297 2.24295 3.34732 2.2083 3.43146C2.20765 3.43305 2.20702 3.43467 2.20638 3.43631L1.42153 5.51606C1.38724 5.60684 1.43309 5.70827 1.52393 5.74254V5.74254ZM2.41561 3.87755L2.79907 4.88435H2.03566L2.41561 3.87755Z" fill="black"/>
<path d="M9.25544 6.86719H8.43768C8.3406 6.86719 8.2619 6.94589 8.2619 7.04297C8.2619 7.14005 8.3406 7.21875 8.43768 7.21875H8.67077V7.76953H7.97156C8.01241 7.68635 8.0354 7.59288 8.0354 7.49414C8.0354 7.14844 7.75415 6.86719 7.40845 6.86719H6.90088C6.80381 6.86719 6.7251 6.94589 6.7251 7.04297C6.7251 7.14005 6.80381 7.21875 6.90088 7.21875H7.40845C7.5603 7.21875 7.68384 7.34229 7.68384 7.49414C7.68384 7.64599 7.5603 7.76953 7.40845 7.76953H6.84447C6.74739 7.76953 6.66869 7.84823 6.66869 7.94531C6.66869 8.04239 6.74739 8.12109 6.84447 8.12109H7.40845C7.5603 8.12109 7.68384 8.24463 7.68384 8.39648C7.68384 8.55091 7.56288 8.67188 7.40845 8.67188C7.16559 8.67188 6.88989 8.6445 6.68678 8.44139C6.61814 8.37274 6.50683 8.37274 6.43821 8.44139C6.36956 8.51004 6.36956 8.62134 6.43821 8.68997C6.73378 8.98554 7.11199 9.02344 7.40845 9.02344C7.75415 9.02344 8.0354 8.74219 8.0354 8.39648C8.0354 8.29774 8.01241 8.20427 7.97156 8.12109H8.67077V8.84766C8.67077 8.94473 8.74947 9.02344 8.84655 9.02344C8.94363 9.02344 9.02233 8.94473 9.02233 8.84766V7.21875H9.25542C9.35249 7.21875 9.4312 7.14005 9.4312 7.04297C9.4312 6.94589 9.35252 6.86719 9.25544 6.86719V6.86719Z" fill="black"/>
</svg>
