<svg width="20" height="20" viewBox="0 0 20 20" fill="none" xmlns="http://www.w3.org/2000/svg">
<path d="M15.6519 5.21777H10.4346V19.1308H15.6519V5.21777Z" fill="#222222"/>
<path d="M9.56504 5.21777H4.34766V19.1308H9.56504V5.21777Z" fill="#222222"/>
<path d="M19.5652 0H0.434796C0.194796 0 0 0.194796 0 0.434796V19.5652C0 19.8052 0.194796 20 0.434796 20H3.47829V4.78259C3.47829 4.54259 3.67308 4.3478 3.91308 4.3478H16.087C16.327 4.3478 16.5218 4.54259 16.5218 4.78259V20H19.5652C19.8052 20 20 19.8052 20 19.5652V0.434796C20 0.194796 19.8052 0 19.5652 0ZM8.5687 3.35132C8.48347 3.43565 8.3722 3.47829 8.26088 3.47829C8.14956 3.47829 8.03828 3.43569 7.95305 3.35132L7.39133 2.78869L6.8296 3.35132C6.66004 3.52088 6.38437 3.52088 6.21481 3.35132C6.04524 3.18175 6.04524 2.90609 6.21481 2.73652L7.08436 1.86697C7.25392 1.6974 7.52959 1.6974 7.69915 1.86697L8.5687 2.73652C8.73827 2.90609 8.73827 3.18085 8.5687 3.35132ZM13.7861 2.48172L12.9165 3.35127C12.8313 3.43561 12.72 3.47824 12.6087 3.47824C12.4974 3.47824 12.3861 3.43565 12.3009 3.35127L11.4313 2.48172C11.2618 2.31216 11.2618 2.03649 11.4313 1.86693C11.6009 1.69736 11.8766 1.69736 12.0461 1.86693L12.6088 2.42865L13.1705 1.86693C13.34 1.69736 13.6157 1.69736 13.7853 1.86693C13.9548 2.03653 13.9557 2.3113 13.7861 2.48172ZM17.8261 11.3043C17.5861 11.3043 17.3913 11.1095 17.3913 10.8695C17.3913 10.6295 17.5861 10.4348 17.8261 10.4348C18.0661 10.4348 18.2609 10.6296 18.2609 10.8696C18.2609 11.1096 18.0661 11.3043 17.8261 11.3043ZM17.8261 9.56522C17.5861 9.56522 17.3913 9.37043 17.3913 9.13043C17.3913 8.89043 17.5861 8.69563 17.8261 8.69563C18.0661 8.69563 18.2609 8.89043 18.2609 9.13043C18.2609 9.37043 18.0661 9.56522 17.8261 9.56522Z" fill="#222222"/>
</svg>
