<svg width="21" height="20" viewBox="0 0 21 20" fill="none" xmlns="http://www.w3.org/2000/svg">
<g clip-path="url(#clip0_2678_19720)">
<path fill-rule="evenodd" clip-rule="evenodd" d="M9.33516 2.13545C8.47643 1.32172 7.36538 0.833984 6.06191 0.833984C2.92647 0.833984 0.5 3.33035 0.5 6.86521C0.5 11.119 4.06481 15.3029 9.69662 18.8977C9.90632 19.0275 10.2059 19.1673 10.4156 19.1673C10.6253 19.1673 10.9248 19.0275 11.1445 18.8977C16.7663 15.3029 20.3312 11.119 20.3312 6.86521C20.3312 3.33035 17.9047 0.833984 14.7692 0.833984C13.4631 0.833984 12.3592 1.3192 11.4997 2.13595C11.0778 2.53683 10.7147 3.01758 10.4156 3.56002C10.1218 3.01865 9.75924 2.5373 9.33516 2.13545ZM10.4204 17.3818C15.8541 13.8677 18.6645 10.1615 18.6645 6.86521C18.6645 4.14661 16.8833 2.50065 14.7692 2.50065C13.5363 2.50065 12.5461 3.14802 11.875 4.36491C11.5808 4.89832 11.0191 5.22875 10.4099 5.22668C9.80076 5.22461 9.24127 4.89037 8.95071 4.35497C8.30341 3.16219 7.29955 2.50065 6.06191 2.50065C3.94782 2.50065 2.16667 4.14661 2.16667 6.86521C2.16667 10.1612 4.97682 13.8677 10.4204 17.3818Z" fill="#222222"/>
<path d="M10.5 12.5C10.5529 12.5 10.6284 12.4619 10.6838 12.4265C12.1012 11.4461 13 10.305 13 9.14488C13 8.18083 12.3882 7.5 11.5977 7.5C11.1067 7.5 10.7291 7.79412 10.5 8.24346C10.2759 7.79684 9.89325 7.5 9.40232 7.5C8.61178 7.5 8 8.18083 8 9.14488C8 10.305 8.89879 11.4461 10.3187 12.4265C10.3716 12.4619 10.4471 12.5 10.5 12.5Z" fill="#F9C41F"/>
</g>
<defs>
<clipPath id="clip0_2678_19720">
<rect width="20" height="20" fill="white" transform="translate(0.5)"/>
</clipPath>
</defs>
</svg>
