<svg width="24" height="24" viewBox="0 0 24 24" fill="none" xmlns="http://www.w3.org/2000/svg">
<path d="M22 9V17H18C17.1345 17.6491 16.0819 18 15 18C13.9181 18 12.8655 17.6491 12 17H8V9H12C12.8655 8.35089 13.9181 8 15 8C16.0819 8 17.1345 8.35089 18 9H22Z" fill="white"/>
<path d="M5 1H1V23H5V1Z" fill="#F9C41F" fill-opacity="0.2"/>
<path d="M23 5V3H21V2H19V3H11V2H9V3H5V5H9V8H7V18H11.68C12.6639 18.6536 13.8188 19.0022 15 19.0022C16.1812 19.0022 17.3361 18.6536 18.32 18H23V8H21V5H23ZM21 16C17.17 16 17.77 15.92 17.4 16.2C16.7044 16.7117 15.8635 16.9877 15 16.9877C14.1365 16.9877 13.2956 16.7117 12.6 16.2C12.23 15.92 12.83 16 9 16V10C12.83 10 12.23 10.08 12.6 9.8C13.2956 9.28829 14.1365 9.01228 15 9.01228C15.8635 9.01228 16.7044 9.28829 17.4 9.8C17.77 10.08 17.17 10 21 10V16ZM19 8H18.32C17.3315 7.35867 16.1783 7.01738 15 7.01738C13.8217 7.01738 12.6685 7.35867 11.68 8H11V5H19V8Z" fill="#4E4E4E"/>
<path d="M19 12H11V14H19V12Z" fill="#F9C41F"/>
</svg>
