<svg width="18" height="18" viewBox="0 0 18 18" fill="none" xmlns="http://www.w3.org/2000/svg">
<path fill-rule="evenodd" clip-rule="evenodd" d="M2.25 7.66078C2.26267 3.83107 5.295 0.737029 9.02291 0.750041C12.7508 0.763052 15.7626 3.87819 15.75 7.70789V7.78642C15.7041 10.2759 14.351 12.5768 12.6922 14.3752C11.7435 15.3872 10.6841 16.2832 9.53509 17.0452C9.22784 17.3183 8.77211 17.3183 8.46487 17.0452C6.75194 15.8999 5.24856 14.4538 4.02349 12.7731C2.93161 11.3076 2.31168 9.52879 2.25 7.68433L2.25 7.66078Z" fill="white"/>
<path fill-rule="evenodd" clip-rule="evenodd" d="M15.75 7.70789C15.7626 3.87819 12.7508 0.763052 9.02291 0.750041C5.295 0.737029 2.26267 3.83107 2.25 7.66078V7.68433C2.31168 9.52879 2.93161 11.3076 4.02349 12.7731C5.24856 14.4538 6.75194 15.8999 8.46487 17.0452C8.77212 17.3183 9.22784 17.3183 9.53509 17.0452C10.6841 16.2832 11.7435 15.3872 12.6922 14.3752C14.351 12.5768 15.7041 10.2759 15.75 7.78642V7.70789ZM14.25 7.77175V7.70293C14.26 4.66321 11.8794 2.26002 9.01768 2.25003C6.15836 2.24005 3.76376 4.6225 3.75002 7.65867C3.80623 9.19192 4.32388 10.6656 5.22636 11.877L5.23564 11.8896C6.28627 13.3309 7.55904 14.5821 9.00135 15.5946C9.93814 14.9432 10.8071 14.1923 11.5937 13.3537C13.124 11.6933 14.2092 9.73678 14.25 7.77175Z" fill="#7A7A7A"/>
<path d="M11.625 7.18359C11.625 8.63334 10.4497 9.80859 9 9.80859C7.55025 9.80859 6.375 8.63334 6.375 7.18359C6.375 5.73385 7.55025 4.55859 9 4.55859C10.4497 4.55859 11.625 5.73385 11.625 7.18359Z" fill="#7A7A7A"/>
<path fill-rule="evenodd" clip-rule="evenodd" d="M9 8.68359C9.82843 8.68359 10.5 8.01202 10.5 7.18359C10.5 6.35517 9.82843 5.68359 9 5.68359C8.17157 5.68359 7.5 6.35517 7.5 7.18359C7.5 8.01202 8.17157 8.68359 9 8.68359ZM9 9.80859C10.4497 9.80859 11.625 8.63334 11.625 7.18359C11.625 5.73385 10.4497 4.55859 9 4.55859C7.55025 4.55859 6.375 5.73385 6.375 7.18359C6.375 8.63334 7.55025 9.80859 9 9.80859Z" fill="#F9C41F"/>
</svg>
