<svg width="20" height="17" viewBox="0 0 20 17" fill="none" xmlns="http://www.w3.org/2000/svg">
<path d="M8.8899 7.1123C8.00141 7.1123 7.27856 7.83515 7.27856 8.72364C7.27856 9.61214 8.00141 10.335 8.8899 10.335C9.77839 10.335 10.5012 9.61214 10.5012 8.72364C10.5012 7.83515 9.77839 7.1123 8.8899 7.1123ZM8.8899 9.26075C8.59374 9.26075 8.35279 9.01977 8.35279 8.72364C8.35279 8.42748 8.59374 8.18653 8.8899 8.18653C9.18606 8.18653 9.42701 8.42748 9.42701 8.72364C9.42701 9.01977 9.18606 9.26075 8.8899 9.26075Z" fill="#4E4E4E"/>
<path d="M0.833252 8.18652H2.98169V9.26075H0.833252V8.18652Z" fill="#4E4E4E"/>
<path d="M0.833252 10.335H2.98169V12.1253H0.833252V10.335Z" fill="#4E4E4E"/>
<path d="M15.9439 3.88965H4.05591V4.78483V7.64942V9.79781V12.6624V13.5576H15.9439V3.88965ZM8.8899 11.4092C7.40908 11.4092 6.20435 10.2044 6.20435 8.72364C6.20435 7.24282 7.40908 6.03809 8.8899 6.03809C10.3707 6.03809 11.5755 7.24282 11.5755 8.72364C11.5755 10.2044 10.3707 11.4092 8.8899 11.4092ZM14.8697 9.79781C14.8697 10.0945 14.6292 10.335 14.3326 10.335C14.036 10.335 13.7955 10.0945 13.7955 9.79781V7.64942C13.7955 7.35278 14.036 7.1123 14.3326 7.1123C14.6292 7.1123 14.8697 7.35278 14.8697 7.64942V9.79781Z" fill="#4E4E4E"/>
<path d="M18.6295 0.666992H1.37036C1.07373 0.666992 0.833252 0.907475 0.833252 1.2041V4.24772H2.98169V3.35254C2.98169 3.05591 3.22217 2.81544 3.5188 2.81544H16.4811C16.7776 2.81544 17.0181 3.05591 17.0181 3.35254V14.0947C17.0181 14.3913 16.7776 14.6318 16.4811 14.6318H3.5188C3.22217 14.6318 2.98169 14.3913 2.98169 14.0947V13.1996H0.833252V16.2432C0.833252 16.5398 1.07373 16.7803 1.37036 16.7803H18.6295C18.9261 16.7803 19.1666 16.5398 19.1666 16.2432V1.2041C19.1666 0.907475 18.9261 0.666992 18.6295 0.666992Z" fill="#4E4E4E"/>
<path d="M0.833252 5.32227H2.98169V7.11263H0.833252V5.32227Z" fill="#4E4E4E"/>
</svg>
