<svg width="74" height="38" viewBox="0 0 74 38" fill="none" xmlns="http://www.w3.org/2000/svg">
<path fill-rule="evenodd" clip-rule="evenodd" d="M8.35602 16.7801C8.35602 17.1659 8.3317 17.4616 8.28324 17.6673C8.2346 17.8734 8.17062 18.0181 8.09118 18.1011C8.01175 18.1846 7.89459 18.259 7.74026 18.3246C7.58575 18.3904 7.40469 18.4473 7.19737 18.4955C6.98978 18.5436 6.76461 18.581 6.52197 18.6073C6.27906 18.6336 6.03401 18.6467 5.78703 18.6467C5.12485 18.6467 4.55089 18.5633 4.06543 18.397C3.57978 18.2306 3.17818 17.9743 2.86036 17.628C2.54254 17.2818 2.3086 16.8459 2.15852 16.32C2.00826 15.7942 1.93335 15.1721 1.93335 14.4535V8.4462H0.516443C0.34861 8.4462 0.22054 8.3434 0.132417 8.13734C0.0440155 7.93155 0 7.58753 0 7.10546C0 6.85139 0.0110039 6.6368 0.0330117 6.46139C0.054927 6.28626 0.0881236 6.14812 0.132417 6.04734C0.176525 5.94665 0.231636 5.87432 0.297937 5.83044C0.364145 5.78666 0.441357 5.76463 0.529666 5.76463H1.93335V3.14887C1.93335 3.06131 1.95758 2.98246 2.00622 2.91224C2.05467 2.84221 2.14298 2.78301 2.27115 2.73482C2.39894 2.68672 2.57112 2.65157 2.7875 2.62963C3.00369 2.60779 3.27093 2.59668 3.58875 2.59668C3.91526 2.59668 4.18675 2.60779 4.40313 2.62963C4.61932 2.65157 4.78928 2.68672 4.913 2.73482C5.03645 2.78301 5.12485 2.84221 5.17784 2.91224C5.23073 2.98246 5.25727 3.06131 5.25727 3.14887V5.76463H7.82635C7.91447 5.76463 7.99187 5.78666 8.05817 5.83044C8.12429 5.87432 8.17931 5.94665 8.22369 6.04734C8.26771 6.14812 8.30081 6.28626 8.32301 6.46139C8.34492 6.6368 8.35602 6.85139 8.35602 7.10546C8.35602 7.58753 8.31182 7.93155 8.22369 8.13734C8.13529 8.3434 8.00722 8.4462 7.83957 8.4462H5.25727V13.954C5.25727 14.5938 5.35871 15.0735 5.56186 15.3933C5.76483 15.7134 6.12676 15.8731 6.64783 15.8731C6.82426 15.8731 6.98321 15.8579 7.12451 15.8271C7.26561 15.7964 7.39137 15.7615 7.50187 15.722C7.61219 15.6825 7.70494 15.6476 7.78002 15.6167C7.85492 15.5862 7.92344 15.5708 7.98521 15.5708C8.03829 15.5708 8.08896 15.5862 8.13751 15.6167C8.18597 15.6476 8.22369 15.7088 8.25014 15.8009C8.27659 15.8928 8.30081 16.0177 8.32301 16.1755C8.34492 16.3332 8.35602 16.5349 8.35602 16.7801Z" fill="#1B1A19"/>
<path fill-rule="evenodd" clip-rule="evenodd" d="M17.2947 12.9544H16.0234C15.4848 12.9544 15.0257 12.994 14.6462 13.0728C14.2665 13.1517 13.9575 13.27 13.7192 13.4277C13.4809 13.5855 13.3065 13.776 13.1961 13.9995C13.0856 14.223 13.0306 14.4793 13.0306 14.7685C13.0306 15.2594 13.1872 15.6449 13.5007 15.9253C13.8139 16.2058 14.2489 16.3459 14.8051 16.3459C15.2729 16.3459 15.7034 16.2276 16.0963 15.991C16.489 15.7544 16.8885 15.4083 17.2947 14.9526V12.9544ZM20.5657 17.9758C20.5657 18.0987 20.5214 18.195 20.4332 18.2651C20.3449 18.3353 20.2058 18.3854 20.0161 18.4162C19.8261 18.4468 19.5459 18.4622 19.1751 18.4622C18.7779 18.4622 18.4886 18.4468 18.3078 18.4162C18.1267 18.3854 17.9986 18.3353 17.9237 18.2651C17.8487 18.195 17.8112 18.0987 17.8112 17.9758V17.0426C17.3256 17.5598 16.7717 17.9627 16.1493 18.2519C15.5268 18.5411 14.8359 18.6857 14.0767 18.6857C13.4498 18.6857 12.8738 18.6046 12.3486 18.4425C11.8232 18.2804 11.3687 18.0395 10.9846 17.7195C10.6006 17.3998 10.3026 17.0032 10.0907 16.5299C9.8788 16.0567 9.77283 15.5047 9.77283 14.8737C9.77283 14.1901 9.90746 13.5966 10.1768 13.0926C10.446 12.5888 10.8477 12.1724 11.3819 11.8438C11.9159 11.5151 12.5804 11.2719 13.3749 11.1142C14.1694 10.9565 15.0919 10.8776 16.1426 10.8776H17.2947V10.1679C17.2947 9.79979 17.257 9.47761 17.1821 9.20161C17.1071 8.92561 16.9835 8.69549 16.8114 8.51155C16.6392 8.32752 16.4096 8.19167 16.1227 8.10402C15.8357 8.01654 15.4805 7.97248 15.0567 7.97248C14.5005 7.97248 14.004 8.03398 13.5669 8.15661C13.1299 8.27942 12.7436 8.41518 12.4082 8.56415C12.0726 8.71321 11.7925 8.84896 11.5673 8.97159C11.3422 9.0944 11.1589 9.15562 11.0177 9.15562C10.9205 9.15562 10.8344 9.12506 10.7595 9.06356C10.6844 9.00234 10.6225 8.91468 10.5742 8.80068C10.5254 8.68696 10.488 8.54671 10.4615 8.38002C10.435 8.2137 10.4218 8.02967 10.4218 7.82801C10.4218 7.55641 10.4437 7.34154 10.488 7.18385C10.5321 7.02616 10.616 6.88389 10.7397 6.75667C10.8631 6.62973 11.0793 6.48947 11.3885 6.33601C11.6974 6.18281 12.0594 6.04027 12.4743 5.90883C12.8893 5.77739 13.3418 5.67009 13.8318 5.58675C14.3218 5.50359 14.827 5.46191 15.3481 5.46191C16.275 5.46191 17.0674 5.55187 17.7251 5.73131C18.3827 5.91103 18.9235 6.18713 19.3473 6.55951C19.7711 6.93207 20.08 7.41185 20.2743 7.99883C20.4684 8.58608 20.5657 9.28275 20.5657 10.0889V17.9758Z" fill="#1B1A19"/>
<path fill-rule="evenodd" clip-rule="evenodd" d="M32.3253 12.153C32.3253 11.6534 32.2877 11.1717 32.2127 10.707C32.1376 10.2426 32.0075 9.83082 31.8221 9.47139C31.6367 9.11222 31.396 8.8252 31.1004 8.61033C30.8045 8.39573 30.4316 8.28834 29.9814 8.28834C29.7606 8.28834 29.5444 8.31918 29.3324 8.38031C29.1206 8.44171 28.9021 8.54699 28.677 8.69578C28.4519 8.84494 28.22 9.0376 27.9817 9.27423C27.7433 9.51085 27.4917 9.80448 27.2269 10.1549V14.0458C27.6947 14.6419 28.1427 15.0954 28.571 15.4063C28.9992 15.7175 29.4471 15.8729 29.9152 15.8729C30.3476 15.8729 30.714 15.7635 31.0143 15.5443C31.3142 15.3254 31.5638 15.0405 31.7624 14.69C31.9611 14.3395 32.1045 13.9407 32.1929 13.4938C32.281 13.0468 32.3253 12.5999 32.3253 12.153ZM35.7816 11.9163C35.7816 12.9593 35.6667 13.8969 35.4373 14.7293C35.2077 15.5619 34.8765 16.2718 34.4441 16.8588C34.0114 17.4461 33.4795 17.8973 32.8484 18.2128C32.217 18.5282 31.4997 18.686 30.6965 18.686C30.2992 18.686 29.9284 18.6487 29.5841 18.5742C29.2397 18.4998 28.9108 18.3794 28.5975 18.2128C28.284 18.0464 27.9751 17.8361 27.6705 17.5818C27.3659 17.3277 27.0547 17.0211 26.7369 16.6616V17.9367C26.7369 18.0332 26.7125 18.1142 26.664 18.1799C26.6155 18.2456 26.536 18.3004 26.4258 18.3442C26.3153 18.388 26.1675 18.4185 25.9821 18.4363C25.7967 18.4537 25.5716 18.4625 25.3067 18.4625C25.033 18.4625 24.8056 18.4537 24.6246 18.4363C24.4437 18.4185 24.298 18.388 24.1877 18.3442C24.0772 18.3004 24.0001 18.2456 23.956 18.1799C23.9117 18.1142 23.8898 18.0332 23.8898 17.9367V0.651164C23.8898 0.563599 23.9162 0.484754 23.9692 0.414536C24.0222 0.344503 24.1126 0.285392 24.2406 0.237111C24.3686 0.189015 24.5386 0.151657 24.7506 0.125314C24.9624 0.0990631 25.2316 0.0859375 25.5583 0.0859375C25.8849 0.0859375 26.1543 0.0990631 26.3661 0.125314C26.578 0.151657 26.7478 0.189015 26.876 0.237111C27.0038 0.285392 27.0945 0.344503 27.1474 0.414536C27.2004 0.484754 27.2269 0.563599 27.2269 0.651164V7.13154C27.527 6.83378 27.8271 6.57944 28.1274 6.36915C28.4273 6.15887 28.7277 5.98594 29.0278 5.85C29.3279 5.71416 29.637 5.61558 29.9549 5.55417C30.2727 5.49295 30.6082 5.4622 30.9613 5.4622C31.8353 5.4622 32.5769 5.63531 33.186 5.98144C33.7952 6.32767 34.2919 6.79431 34.6759 7.38129C35.0598 7.96855 35.3401 8.65439 35.5167 9.43853C35.6932 10.2228 35.7816 11.0488 35.7816 11.9163Z" fill="#1B1A19"/>
<path fill-rule="evenodd" clip-rule="evenodd" d="M45.3293 16.7801C45.3293 17.1659 45.3049 17.4616 45.2565 17.6673C45.2081 17.8734 45.1442 18.0181 45.0647 18.1011C44.9851 18.1846 44.868 18.259 44.7136 18.3246C44.5591 18.3904 44.3779 18.4473 44.1706 18.4955C43.9632 18.5436 43.7381 18.581 43.4954 18.6073C43.2524 18.6336 43.0075 18.6467 42.7604 18.6467C42.0982 18.6467 41.5243 18.5633 41.0388 18.397C40.5532 18.2306 40.1516 17.9743 39.8338 17.628C39.5159 17.2818 39.282 16.8459 39.1319 16.32C38.9816 15.7942 38.9067 15.1721 38.9067 14.4535V8.4462H37.4898C37.3219 8.4462 37.1939 8.3434 37.1057 8.13734C37.0173 7.93155 36.9734 7.58753 36.9734 7.10546C36.9734 6.85139 36.9843 6.6368 37.0064 6.46139C37.0283 6.28626 37.0614 6.14812 37.1057 6.04734C37.1498 5.94665 37.205 5.87432 37.2712 5.83044C37.3374 5.78666 37.4147 5.76463 37.503 5.76463H38.9067V3.14887C38.9067 3.06131 38.931 2.98246 38.9796 2.91224C39.028 2.84221 39.1164 2.78301 39.2444 2.73482C39.3722 2.68672 39.5444 2.65157 39.7609 2.62963C39.9771 2.60779 40.2443 2.59668 40.562 2.59668C40.8886 2.59668 41.16 2.60779 41.3764 2.62963C41.5927 2.65157 41.7627 2.68672 41.8864 2.73482C42.0098 2.78301 42.0982 2.84221 42.1512 2.91224C42.2041 2.98246 42.2306 3.06131 42.2306 3.14887V5.76463H44.7996C44.8878 5.76463 44.9654 5.78666 45.0315 5.83044C45.0976 5.87432 45.1527 5.94665 45.1971 6.04734C45.241 6.14812 45.2742 6.28626 45.2965 6.46139C45.3184 6.6368 45.3293 6.85139 45.3293 7.10546C45.3293 7.58753 45.2851 7.93155 45.1971 8.13734C45.1085 8.3434 44.9807 8.4462 44.8128 8.4462H42.2306V13.954C42.2306 14.5938 42.332 15.0735 42.5353 15.3933C42.7382 15.7134 43.1001 15.8731 43.6211 15.8731C43.7976 15.8731 43.9564 15.8579 44.0978 15.8271C44.2391 15.7964 44.3648 15.7615 44.4755 15.722C44.5856 15.6825 44.6782 15.6476 44.7534 15.6167C44.8283 15.5862 44.8968 15.5708 44.9587 15.5708C45.0117 15.5708 45.0622 15.5862 45.111 15.6167C45.1594 15.6476 45.1971 15.7088 45.2233 15.8009C45.2499 15.8928 45.2742 16.0177 45.2965 16.1755C45.3184 16.3332 45.3293 16.5349 45.3293 16.7801Z" fill="#1B1A19"/>
<path fill-rule="evenodd" clip-rule="evenodd" d="M54.2684 12.9544H52.9971C52.4585 12.9544 51.9993 12.994 51.6197 13.0728C51.2401 13.1517 50.9312 13.27 50.6928 13.4277C50.4545 13.5855 50.2799 13.776 50.1698 13.9995C50.0591 14.223 50.0043 14.4793 50.0043 14.7685C50.0043 15.2594 50.1609 15.6449 50.4743 15.9253C50.7876 16.2058 51.2225 16.3459 51.7788 16.3459C52.2466 16.3459 52.677 16.2276 53.0698 15.991C53.4626 15.7544 53.8621 15.4083 54.2684 14.9526V12.9544ZM57.5393 17.9758C57.5393 18.0987 57.495 18.195 57.4068 18.2651C57.3185 18.3353 57.1795 18.3854 56.9898 18.4162C56.7997 18.4468 56.5196 18.4622 56.1488 18.4622C55.7515 18.4622 55.4622 18.4468 55.2814 18.4162C55.1004 18.3854 54.9723 18.3353 54.8974 18.2651C54.8221 18.195 54.7848 18.0987 54.7848 17.9758V17.0426C54.2991 17.5598 53.7452 17.9627 53.1228 18.2519C52.5004 18.5411 51.8095 18.6857 51.0503 18.6857C50.4235 18.6857 49.8474 18.6046 49.3222 18.4425C48.7969 18.2804 48.3422 18.0395 47.9582 17.7195C47.5741 17.3998 47.2762 17.0032 47.0644 16.5299C46.8525 16.0567 46.7466 15.5047 46.7466 14.8737C46.7466 14.1901 46.881 13.5966 47.1503 13.0926C47.4197 12.5888 47.8213 12.1724 48.3555 11.8438C48.8897 11.5151 49.554 11.2719 50.3485 11.1142C51.1431 10.9565 52.0655 10.8776 53.1162 10.8776H54.2684V10.1679C54.2684 9.79979 54.2306 9.47761 54.1557 9.20161C54.0806 8.92561 53.9572 8.69549 53.7849 8.51155C53.6128 8.32752 53.3831 8.19167 53.0964 8.10402C52.8094 8.01654 52.4541 7.97248 52.0304 7.97248C51.4741 7.97248 50.9775 8.03398 50.5405 8.15661C50.1035 8.27942 49.7172 8.41518 49.3817 8.56415C49.0461 8.71321 48.7659 8.84896 48.5409 8.97159C48.3157 9.0944 48.1325 9.15562 47.9913 9.15562C47.894 9.15562 47.808 9.12506 47.7331 9.06356C47.6581 9.00234 47.5961 8.91468 47.5476 8.80068C47.4991 8.68696 47.4616 8.54671 47.4351 8.38002C47.4086 8.2137 47.3954 8.02967 47.3954 7.82801C47.3954 7.55641 47.4173 7.34154 47.4617 7.18385C47.5056 7.02616 47.5895 6.88389 47.7132 6.75667C47.8368 6.62973 48.053 6.48947 48.3621 6.33601C48.6712 6.18281 49.0329 6.04027 49.448 5.90883C49.8629 5.77739 50.3154 5.67009 50.8054 5.58675C51.2954 5.50359 51.8007 5.46191 52.3216 5.46191C53.2487 5.46191 54.0409 5.55187 54.6987 5.73131C55.3564 5.91103 55.8972 6.18713 56.321 6.55951C56.7448 6.93207 57.0537 7.41185 57.2479 7.99883C57.442 8.58608 57.5393 9.28275 57.5393 10.0889V17.9758Z" fill="#1B1A19"/>
<path fill-rule="evenodd" clip-rule="evenodd" d="M69.2985 12.153C69.2985 11.6534 69.2608 11.1717 69.1858 10.707C69.1108 10.2426 68.9805 9.83082 68.7953 9.47139C68.6098 9.11222 68.3692 8.8252 68.0735 8.61033C67.7777 8.39573 67.4048 8.28834 66.9544 8.28834C66.7337 8.28834 66.5175 8.31918 66.3057 8.38031C66.0937 8.44171 65.8752 8.54699 65.6502 8.69578C65.4251 8.84494 65.1934 9.0376 64.9549 9.27423C64.7166 9.51085 64.4649 9.80448 64.2001 10.1549V14.0458C64.6679 14.6419 65.1159 15.0954 65.5442 15.4063C65.9723 15.7175 66.4203 15.8729 66.8884 15.8729C67.3208 15.8729 67.6873 15.7635 67.9875 15.5443C68.2875 15.3254 68.5371 15.0405 68.7358 14.69C68.9343 14.3395 69.0777 13.9407 69.166 13.4938C69.2542 13.0468 69.2985 12.5999 69.2985 12.153ZM72.7548 11.9163C72.7548 12.9593 72.64 13.8969 72.4104 14.7293C72.1809 15.5619 71.8499 16.2718 71.4174 16.8588C70.9846 17.4461 70.4528 17.8973 69.8216 18.2128C69.1903 18.5282 68.4729 18.686 67.6698 18.686C67.2724 18.686 66.9016 18.6487 66.5572 18.5742C66.213 18.4998 65.884 18.3794 65.5706 18.2128C65.2572 18.0464 64.9483 17.8361 64.6436 17.5818C64.3391 17.3277 64.0279 17.0211 63.7101 16.6616V17.9367C63.7101 18.0332 63.6857 18.1142 63.6373 18.1799C63.5886 18.2456 63.5093 18.3004 63.3988 18.3442C63.2885 18.388 63.1407 18.4185 62.9553 18.4363C62.7698 18.4537 62.5448 18.4625 62.28 18.4625C62.0062 18.4625 61.7787 18.4537 61.598 18.4363C61.417 18.4185 61.2712 18.388 61.1609 18.3442C61.0504 18.3004 60.9732 18.2456 60.9292 18.1799C60.8849 18.1142 60.8629 18.0332 60.8629 17.9367V0.651164C60.8629 0.563599 60.8895 0.484754 60.9424 0.414536C60.9954 0.344503 61.0859 0.285392 61.2139 0.237111C61.3417 0.189015 61.5118 0.151657 61.7237 0.125314C61.9356 0.0990631 62.2047 0.0859375 62.5315 0.0859375C62.858 0.0859375 63.1276 0.0990631 63.3393 0.125314C63.5513 0.151657 63.7212 0.189015 63.8491 0.237111C63.977 0.285392 64.0676 0.344503 64.1206 0.414536C64.1736 0.484754 64.2001 0.563599 64.2001 0.651164V7.13154C64.5 6.83378 64.8003 6.57944 65.1006 6.36915C65.4007 6.15887 65.7009 5.98594 66.0012 5.85C66.3011 5.71416 66.6103 5.61558 66.928 5.55417C67.246 5.49295 67.5813 5.4622 67.9345 5.4622C68.8086 5.4622 69.5502 5.63531 70.1593 5.98144C70.7684 6.32767 71.265 6.79431 71.6491 7.38129C72.0332 7.96855 72.3133 8.65439 72.49 9.43853C72.6665 10.2228 72.7548 11.0488 72.7548 11.9163Z" fill="#1B1A19"/>
<path fill-rule="evenodd" clip-rule="evenodd" d="M36.4568 35.8046C36.4568 36.6196 36.3133 37.1673 36.0265 37.4478C35.7395 37.7281 35.2252 37.8684 34.4837 37.8684C33.7421 37.8684 33.23 37.7304 32.9476 37.4542C32.6649 37.1782 32.5238 36.6546 32.5238 35.8835C32.5238 35.0599 32.6671 34.5077 32.9542 34.2273C33.2409 33.9469 33.7597 33.8066 34.5101 33.8066C35.2429 33.8066 35.7504 33.9446 36.033 34.2205C36.3155 34.4966 36.4568 35.0247 36.4568 35.8046Z" fill="#EAB829"/>
<mask id="mask0_2767_12701" style="mask-type:alpha" maskUnits="userSpaceOnUse" x="39" y="24" width="34" height="14">
<path d="M39.7806 24.7764H72.7547V37.9947H39.7806V24.7764Z" fill="white"/>
</mask>
<g mask="url(#mask0_2767_12701)">
<path fill-rule="evenodd" clip-rule="evenodd" d="M58.5718 37.2507C58.5718 37.3386 58.5454 37.415 58.4924 37.4808C58.4393 37.5466 58.351 37.6015 58.2276 37.6451C58.1038 37.6891 57.9363 37.7218 57.7244 37.7438C57.5125 37.7657 57.2431 37.7767 56.9166 37.7767C56.581 37.7767 56.3075 37.7657 56.0955 37.7438C55.8838 37.7218 55.7136 37.6891 55.5857 37.6451C55.4577 37.6015 55.3692 37.5466 55.3208 37.4808C55.2722 37.415 55.248 37.3386 55.248 37.2507V30.2971C55.248 29.9029 55.2103 29.5435 55.1355 29.2193C55.0603 28.8951 54.9454 28.6168 54.7911 28.3846C54.6366 28.1525 54.4423 27.9728 54.2084 27.8456C53.9744 27.7188 53.6941 27.6551 53.3677 27.6551C52.9703 27.6551 52.5684 27.8086 52.1624 28.115C51.7563 28.4221 51.3149 28.869 50.8382 29.4559V37.2507C50.8382 37.3386 50.8117 37.415 50.7588 37.4808C50.7058 37.5466 50.6151 37.6015 50.4872 37.6451C50.3593 37.6891 50.1893 37.7218 49.9775 37.7438C49.7655 37.7657 49.5007 37.7767 49.1829 37.7767C48.8562 37.7767 48.587 37.7657 48.375 37.7438C48.1631 37.7218 47.9931 37.6891 47.8652 37.6451C47.7371 37.6015 47.6468 37.5466 47.5937 37.4808C47.5409 37.415 47.5143 37.3386 47.5143 37.2507V30.2971C47.5143 29.9029 47.4766 29.5435 47.4016 29.2193C47.3266 28.8951 47.2141 28.6168 47.0641 28.3846C46.9138 28.1525 46.7198 27.9728 46.4814 27.8456C46.2431 27.7188 45.9648 27.6551 45.6471 27.6551C45.241 27.6551 44.8347 27.8086 44.4288 28.115C44.0226 28.4221 43.5857 28.869 43.1177 29.4559V37.2507C43.1177 37.3386 43.0912 37.415 43.0383 37.4808C42.9854 37.5466 42.8947 37.6015 42.7669 37.6451C42.6387 37.6891 42.4688 37.7218 42.257 37.7438C42.0451 37.7657 41.7758 37.7767 41.4493 37.7767C41.1226 37.7767 40.8533 37.7657 40.6414 37.7438C40.4296 37.7218 40.2594 37.6891 40.1316 37.6451C40.0035 37.6015 39.9131 37.5466 39.8602 37.4808C39.8071 37.415 39.7806 37.3386 39.7806 37.2507V25.5256C39.7806 25.4382 39.8026 25.3613 39.8468 25.2955C39.891 25.2298 39.9704 25.1751 40.0852 25.1312C40.1998 25.0874 40.3478 25.0547 40.5288 25.0325C40.7097 25.0109 40.9372 24.9998 41.2109 24.9998C41.4934 24.9998 41.7273 25.0109 41.9127 25.0325C42.0981 25.0547 42.2414 25.0874 42.3431 25.1312C42.4445 25.1751 42.5174 25.2298 42.5616 25.2955C42.6057 25.3613 42.6278 25.4382 42.6278 25.5256V26.8794C43.281 26.1785 43.9322 25.6528 44.581 25.3021C45.2301 24.9517 45.9075 24.7764 46.6139 24.7764C47.0993 24.7764 47.5363 24.8269 47.9248 24.9274C48.3132 25.0283 48.6598 25.173 48.9644 25.3613C49.2689 25.5499 49.5315 25.7753 49.7523 26.0382C49.9729 26.3011 50.1582 26.5949 50.3085 26.9189C50.6614 26.5422 51.008 26.2179 51.348 25.9463C51.6878 25.6746 52.0234 25.4532 52.3546 25.2825C52.6856 25.1115 53.0166 24.9845 53.3477 24.9012C53.6787 24.8179 54.0164 24.7764 54.3607 24.7764C55.1464 24.7764 55.8085 24.9078 56.347 25.1708C56.8855 25.4336 57.3206 25.7907 57.6516 26.2419C57.9826 26.6934 58.2186 27.2214 58.3601 27.8259C58.501 28.4306 58.5718 29.0705 58.5718 29.7452V37.2507Z" fill="#EAB829"/>
<path fill-rule="evenodd" clip-rule="evenodd" d="M69.5236 30.1C69.5502 29.1712 69.3624 28.4417 68.9609 27.9113C68.559 27.3813 67.9388 27.1161 67.1002 27.1161C66.6764 27.1161 66.3076 27.1951 65.9944 27.3527C65.681 27.5104 65.4204 27.723 65.2132 27.9902C65.0057 28.2578 64.8466 28.5732 64.7364 28.9366C64.6259 29.3005 64.5619 29.6882 64.5444 30.1H69.5236ZM72.7548 31.0465C72.7548 31.4497 72.6642 31.7477 72.4832 31.9403C72.3022 32.1331 72.0529 32.2294 71.735 32.2294H64.5444C64.5444 32.729 64.6039 33.1825 64.7232 33.59C64.8424 33.9975 65.0321 34.3437 65.2925 34.6285C65.5529 34.9133 65.8885 35.1303 66.2989 35.2791C66.7095 35.4283 67.2015 35.5026 67.7756 35.5026C68.3583 35.5026 68.8701 35.4611 69.3117 35.3776C69.7531 35.2946 70.1349 35.2025 70.4572 35.1016C70.7795 35.001 71.0464 34.909 71.2584 34.8256C71.4702 34.7424 71.6425 34.7008 71.7747 34.7008C71.8543 34.7008 71.9204 34.7161 71.9735 34.7468C72.0265 34.7776 72.0704 34.8322 72.1059 34.9111C72.1412 34.9899 72.1655 35.1016 72.1787 35.2463C72.192 35.3908 72.1985 35.5728 72.1985 35.7918C72.1985 35.9846 72.194 36.1489 72.1854 36.2847C72.1765 36.4207 72.1632 36.5368 72.1455 36.6331C72.1279 36.7297 72.1013 36.8104 72.0663 36.8762C72.0308 36.9421 71.9844 37.0056 71.9271 37.0668C71.8697 37.1282 71.7129 37.2114 71.457 37.3165C71.2008 37.4218 70.8744 37.5249 70.477 37.6255C70.0796 37.7262 69.625 37.8139 69.1131 37.8884C68.6011 37.9627 68.0536 38.0002 67.471 38.0002C66.4202 38.0002 65.4999 37.8687 64.7099 37.6057C63.9196 37.3428 63.2598 36.9443 62.7302 36.4095C62.2003 35.8752 61.8052 35.2001 61.5448 34.3852C61.2845 33.5702 61.1543 32.6151 61.1543 31.5196C61.1543 30.4768 61.291 29.537 61.5648 28.7002C61.8382 27.8633 62.2355 27.1534 62.7566 26.5706C63.2774 25.988 63.9108 25.5433 64.657 25.2363C65.4029 24.9298 66.2437 24.7764 67.1796 24.7764C68.1682 24.7764 69.0138 24.9208 69.7157 25.2101C70.4174 25.4993 70.9934 25.9001 71.4438 26.4128C71.894 26.9256 72.225 27.5324 72.437 28.2334C72.6487 28.9346 72.7548 29.6971 72.7548 30.5207V31.0465Z" fill="#EAB829"/>
</g>
</svg>
