<svg width="73" height="38" viewBox="0 0 73 38" fill="none" xmlns="http://www.w3.org/2000/svg">
<path fill-rule="evenodd" clip-rule="evenodd" d="M8.34093 16.7802C8.34093 17.166 8.31665 17.4616 8.26828 17.6674C8.21973 17.8735 8.15586 18.0181 8.07657 18.1012C7.99728 18.1846 7.88034 18.2591 7.72628 18.3247C7.57205 18.3904 7.39132 18.4473 7.18437 18.4956C6.97716 18.5436 6.7524 18.5811 6.5102 18.6073C6.26772 18.6336 6.02312 18.6468 5.77658 18.6468C5.1156 18.6468 4.54267 18.5633 4.05808 18.397C3.57331 18.2307 3.17244 17.9743 2.8552 17.628C2.53795 17.2819 2.30443 16.8459 2.15462 16.3201C2.00463 15.7943 1.92986 15.1722 1.92986 14.4536V8.44625H0.51551C0.347981 8.44625 0.220142 8.34345 0.132177 8.13739C0.0439361 7.9316 0 7.58758 0 7.10552C0 6.85145 0.010984 6.63685 0.032952 6.46144C0.0548278 6.28631 0.0879644 6.14817 0.132177 6.04739C0.176206 5.9467 0.231218 5.87437 0.297399 5.8305C0.363488 5.78671 0.44056 5.76468 0.528709 5.76468H1.92986V3.14893C1.92986 3.06136 1.95405 2.98252 2.0026 2.9123C2.05096 2.84226 2.13911 2.78306 2.26704 2.73487C2.39461 2.68678 2.56647 2.65162 2.78246 2.62968C2.99827 2.60784 3.26502 2.59673 3.58226 2.59673C3.90819 2.59673 4.17919 2.60784 4.39517 2.62968C4.61098 2.65162 4.78063 2.68678 4.90413 2.73487C5.02735 2.78306 5.1156 2.84226 5.16849 2.9123C5.22128 2.98252 5.24777 3.06136 5.24777 3.14893V5.76468H7.81222C7.90018 5.76468 7.97744 5.78671 8.04362 5.8305C8.10962 5.87437 8.16454 5.9467 8.20884 6.04739C8.25278 6.14817 8.28582 6.28631 8.30797 6.46144C8.32985 6.63685 8.34093 6.85145 8.34093 7.10552C8.34093 7.58758 8.29681 7.9316 8.20884 8.13739C8.1206 8.34345 7.99276 8.44625 7.82542 8.44625H5.24777V13.9541C5.24777 14.5938 5.34903 15.0736 5.55182 15.3934C5.75442 15.7134 6.11569 15.8731 6.63582 15.8731C6.81193 15.8731 6.9706 15.858 7.11164 15.8272C7.25249 15.7965 7.37803 15.7615 7.48833 15.7221C7.59844 15.6826 7.69102 15.6476 7.76597 15.6168C7.84074 15.5862 7.90913 15.5709 7.97079 15.5709C8.02378 15.5709 8.07436 15.5862 8.12282 15.6168C8.17118 15.6476 8.20884 15.7088 8.23524 15.8009C8.26164 15.8929 8.28582 16.0178 8.30797 16.1756C8.32985 16.3333 8.34093 16.5349 8.34093 16.7802Z" fill="white"/>
<path fill-rule="evenodd" clip-rule="evenodd" d="M17.2631 12.9546H15.9942C15.4565 12.9546 14.9982 12.9941 14.6194 13.073C14.2404 13.1518 13.932 13.2701 13.6942 13.4278C13.4562 13.5856 13.2821 13.7761 13.172 13.9996C13.0617 14.2231 13.0068 14.4794 13.0068 14.7686C13.0068 15.2595 13.1631 15.645 13.4761 15.9254C13.7887 16.2059 14.2229 16.346 14.7781 16.346C15.245 16.346 15.6747 16.2277 16.0669 15.9912C16.4589 15.7545 16.8578 15.4084 17.2631 14.9527V12.9546ZM20.5283 17.976C20.5283 18.0988 20.484 18.1952 20.396 18.2652C20.3078 18.3354 20.169 18.3855 19.9796 18.4164C19.79 18.4469 19.5103 18.4624 19.1402 18.4624C18.7437 18.4624 18.455 18.4469 18.2744 18.4164C18.0937 18.3855 17.9658 18.3354 17.8911 18.2652C17.8161 18.1952 17.7787 18.0988 17.7787 17.976V17.0427C17.294 17.5599 16.7411 17.9628 16.1198 18.2521C15.4985 18.5412 14.8088 18.6859 14.051 18.6859C13.4252 18.6859 12.8503 18.6047 12.326 18.4426C11.8016 18.2805 11.3478 18.0396 10.9645 17.7196C10.5812 17.3999 10.2837 17.0033 10.0722 16.53C9.86066 16.0568 9.75488 15.5048 9.75488 14.8738C9.75488 14.1902 9.88928 13.5967 10.1582 13.0927C10.4268 12.5889 10.8278 12.1725 11.361 11.8439C11.8941 11.5152 12.5574 11.272 13.3504 11.1143C14.1435 10.9566 15.0643 10.8777 16.1131 10.8777H17.2631V10.168C17.2631 9.79991 17.2256 9.47774 17.1508 9.20173C17.0759 8.92573 16.9525 8.69562 16.7808 8.51167C16.6088 8.32764 16.3796 8.19179 16.0933 8.10414C15.8068 8.01666 15.4523 7.97261 15.0292 7.97261C14.474 7.97261 13.9784 8.0341 13.5422 8.15673C13.1059 8.27954 12.7203 8.4153 12.3855 8.56427C12.0505 8.71333 11.7709 8.84909 11.5461 8.97171C11.3214 9.09452 11.1384 9.15575 10.9975 9.15575C10.9005 9.15575 10.8145 9.12518 10.7398 9.06368C10.6648 9.00246 10.6031 8.9148 10.5548 8.8008C10.5061 8.68708 10.4688 8.54683 10.4424 8.38014C10.4159 8.21382 10.4027 8.02979 10.4027 7.82813C10.4027 7.55653 10.4245 7.34166 10.4688 7.18397C10.5128 7.02628 10.5965 6.88401 10.72 6.75679C10.8432 6.62985 11.059 6.4896 11.3677 6.33613C11.676 6.18294 12.0373 6.04039 12.4515 5.90895C12.8658 5.77751 13.3174 5.67021 13.8065 5.58687C14.2956 5.50371 14.8 5.46204 15.3201 5.46204C16.2453 5.46204 17.0363 5.55199 17.6928 5.73143C18.3492 5.91115 18.8891 6.18725 19.3121 6.55963C19.7351 6.9322 20.0435 7.41197 20.2374 7.99895C20.4312 8.58621 20.5283 9.28287 20.5283 10.089V17.976Z" fill="white"/>
<path fill-rule="evenodd" clip-rule="evenodd" d="M32.267 12.1531C32.267 11.6536 32.2294 11.1718 32.1546 10.7072C32.0796 10.2427 31.9497 9.83098 31.7647 9.47154C31.5796 9.11238 31.3393 8.82536 31.0443 8.61048C30.7489 8.39588 30.3767 8.28849 29.9273 8.28849C29.7069 8.28849 29.4911 8.31933 29.2795 8.38046C29.0681 8.44187 28.8499 8.54715 28.6253 8.69594C28.4005 8.84509 28.1691 9.03775 27.9313 9.27438C27.6932 9.51101 27.4421 9.80464 27.1778 10.1551V14.046C27.6447 14.642 28.092 15.0955 28.5194 15.4064C28.9469 15.7177 29.394 15.8731 29.8612 15.8731C30.2928 15.8731 30.6586 15.7637 30.9583 15.5445C31.2577 15.3256 31.5069 15.0407 31.7051 14.6901C31.9034 14.3397 32.0466 13.9409 32.1348 13.4939C32.2228 13.0469 32.267 12.6 32.267 12.1531ZM35.7171 11.9165C35.7171 12.9595 35.6023 13.8971 35.3733 14.7295C35.1441 15.5621 34.8136 16.272 34.3819 16.859C33.95 17.4462 33.4191 17.8974 32.7891 18.2129C32.1589 18.5284 31.4429 18.6862 30.6411 18.6862C30.2445 18.6862 29.8744 18.6488 29.5308 18.5744C29.1869 18.4999 28.8586 18.3795 28.5459 18.2129C28.233 18.0465 27.9246 17.8362 27.6206 17.582C27.3165 17.3279 27.0059 17.0212 26.6887 16.6618V17.9368C26.6887 18.0334 26.6643 18.1143 26.6159 18.1801C26.5675 18.2458 26.4881 18.3006 26.3781 18.3444C26.2678 18.3881 26.1203 18.4187 25.9352 18.4364C25.7501 18.4539 25.5255 18.4627 25.261 18.4627C24.9878 18.4627 24.7608 18.4539 24.5802 18.4364C24.3996 18.4187 24.2542 18.3881 24.1441 18.3444C24.0338 18.3006 23.9568 18.2458 23.9128 18.1801C23.8686 18.1143 23.8467 18.0334 23.8467 17.9368V0.651317C23.8467 0.563752 23.8731 0.484907 23.926 0.414689C23.9789 0.344655 24.0691 0.285544 24.1969 0.237264C24.3246 0.189167 24.4944 0.15181 24.7059 0.125467C24.9174 0.0992157 25.1861 0.0860901 25.5122 0.0860901C25.8382 0.0860901 26.1071 0.0992157 26.3185 0.125467C26.53 0.15181 26.6996 0.189167 26.8275 0.237264C26.9551 0.285544 27.0456 0.344655 27.0984 0.414689C27.1513 0.484907 27.1778 0.563752 27.1778 0.651317V7.13169C27.4773 6.83394 27.7769 6.57959 28.0766 6.36931C28.3761 6.15902 28.6759 5.98609 28.9755 5.85016C29.275 5.71431 29.5836 5.61573 29.9008 5.55433C30.2181 5.4931 30.5529 5.46236 30.9054 5.46236C31.7779 5.46236 32.5181 5.63547 33.1261 5.9816C33.7342 6.32782 34.23 6.79447 34.6133 7.38145C34.9966 7.9687 35.2763 8.65454 35.4526 9.43868C35.6288 10.223 35.7171 11.049 35.7171 11.9165Z" fill="white"/>
<path fill-rule="evenodd" clip-rule="evenodd" d="M45.2471 16.7802C45.2471 17.166 45.2227 17.4616 45.1744 17.6674C45.1261 17.8735 45.0623 18.0181 44.9829 18.1012C44.9035 18.1846 44.7866 18.2591 44.6324 18.3247C44.4783 18.3904 44.2974 18.4473 44.0904 18.4956C43.8834 18.5436 43.6587 18.5811 43.4165 18.6073C43.174 18.6336 42.9295 18.6468 42.6828 18.6468C42.0218 18.6468 41.4489 18.5633 40.9643 18.397C40.4796 18.2307 40.0787 17.9743 39.7614 17.628C39.4442 17.2819 39.2107 16.8459 39.0609 16.3201C38.9109 15.7943 38.8361 15.1722 38.8361 14.4536V8.44625H37.4218C37.2541 8.44625 37.1264 8.34345 37.0383 8.13739C36.9501 7.9316 36.9062 7.58758 36.9062 7.10552C36.9062 6.85145 36.9171 6.63685 36.9392 6.46144C36.9611 6.28631 36.9941 6.14817 37.0383 6.04739C37.0824 5.9467 37.1375 5.87437 37.2036 5.8305C37.2696 5.78671 37.3467 5.76468 37.4349 5.76468H38.8361V3.14893C38.8361 3.06136 38.8603 2.98252 38.9088 2.9123C38.9571 2.84226 39.0454 2.78306 39.1732 2.73487C39.3008 2.68678 39.4726 2.65162 39.6887 2.62968C39.9045 2.60784 40.1713 2.59673 40.4884 2.59673C40.8144 2.59673 41.0853 2.60784 41.3013 2.62968C41.5172 2.65162 41.6869 2.68678 41.8104 2.73487C41.9336 2.78306 42.0218 2.84226 42.0747 2.9123C42.1275 2.98252 42.1539 3.06136 42.1539 3.14893V5.76468H44.7184C44.8063 5.76468 44.8838 5.78671 44.9498 5.8305C45.0158 5.87437 45.0708 5.9467 45.1151 6.04739C45.1589 6.14817 45.1921 6.28631 45.2143 6.46144C45.2362 6.63685 45.2471 6.85145 45.2471 7.10552C45.2471 7.58758 45.203 7.9316 45.1151 8.13739C45.0267 8.34345 44.8991 8.44625 44.7315 8.44625H42.1539V13.9541C42.1539 14.5938 42.2552 15.0736 42.4581 15.3934C42.6607 15.7134 43.0219 15.8731 43.542 15.8731C43.7181 15.8731 43.8767 15.858 44.0178 15.8272C44.1588 15.7965 44.2843 15.7615 44.3948 15.7221C44.5047 15.6826 44.5972 15.6476 44.6722 15.6168C44.747 15.5862 44.8154 15.5709 44.8771 15.5709C44.93 15.5709 44.9804 15.5862 45.0292 15.6168C45.0774 15.6476 45.1151 15.7088 45.1413 15.8009C45.1678 15.8929 45.1921 16.0178 45.2143 16.1756C45.2362 16.3333 45.2471 16.5349 45.2471 16.7802Z" fill="white"/>
<path fill-rule="evenodd" clip-rule="evenodd" d="M54.1704 12.9546H52.9013C52.3637 12.9546 51.9054 12.9941 51.5265 13.073C51.1475 13.1518 50.8392 13.2701 50.6012 13.4278C50.3634 13.5856 50.1891 13.7761 50.0792 13.9996C49.9687 14.2231 49.9139 14.4794 49.9139 14.7686C49.9139 15.2595 50.0703 15.645 50.3831 15.9254C50.6958 16.2059 51.1299 16.346 51.6852 16.346C52.1522 16.346 52.5818 16.2277 52.9739 15.9912C53.366 15.7545 53.7648 15.4084 54.1704 14.9527V12.9546ZM57.4353 17.976C57.4353 18.0988 57.3911 18.1952 57.303 18.2652C57.2149 18.3354 57.0762 18.3855 56.8868 18.4164C56.6971 18.4469 56.4175 18.4624 56.0473 18.4624C55.6507 18.4624 55.362 18.4469 55.1816 18.4164C55.0008 18.3855 54.873 18.3354 54.7982 18.2652C54.7231 18.1952 54.6858 18.0988 54.6858 17.976V17.0427C54.201 17.5599 53.6481 17.9628 53.0268 18.2521C52.4055 18.5412 51.7159 18.6859 50.9581 18.6859C50.3323 18.6859 49.7573 18.6047 49.2331 18.4426C48.7087 18.2805 48.2549 18.0396 47.8716 17.7196C47.4881 17.3999 47.1907 17.0033 46.9794 16.53C46.7678 16.0568 46.6621 15.5048 46.6621 14.8738C46.6621 14.1902 46.7963 13.5967 47.0651 13.0927C47.334 12.5889 47.7348 12.1725 48.2681 11.8439C48.8013 11.5152 49.4644 11.272 50.2575 11.1143C51.0506 10.9566 51.9714 10.8777 53.0202 10.8777H54.1704V10.168C54.1704 9.79991 54.1326 9.47774 54.0579 9.20173C53.9829 8.92573 53.8597 8.69562 53.6877 8.51167C53.5159 8.32764 53.2867 8.19179 53.0004 8.10414C52.7139 8.01666 52.3593 7.97261 51.9364 7.97261C51.3811 7.97261 50.8854 8.0341 50.4492 8.15673C50.013 8.27954 49.6273 8.4153 49.2925 8.56427C48.9575 8.71333 48.6778 8.84909 48.4531 8.97171C48.2284 9.09452 48.0455 9.15575 47.9046 9.15575C47.8075 9.15575 47.7217 9.12518 47.6469 9.06368C47.5719 9.00246 47.5101 8.9148 47.4617 8.8008C47.4133 8.68708 47.3759 8.54683 47.3494 8.38014C47.3229 8.21382 47.3098 8.02979 47.3098 7.82813C47.3098 7.55653 47.3316 7.34166 47.3759 7.18397C47.4197 7.02628 47.5035 6.88401 47.6269 6.75679C47.7504 6.62985 47.9662 6.4896 48.2747 6.33613C48.5832 6.18294 48.9443 6.04039 49.3586 5.90895C49.7728 5.77751 50.2245 5.67021 50.7135 5.58687C51.2027 5.50371 51.7071 5.46204 52.227 5.46204C53.1525 5.46204 53.9432 5.55199 54.5999 5.73143C55.2564 5.91115 55.7962 6.18725 56.2192 6.55963C56.6422 6.9322 56.9506 7.41197 57.1445 7.99895C57.3382 8.58621 57.4353 9.28287 57.4353 10.089V17.976Z" fill="white"/>
<path fill-rule="evenodd" clip-rule="evenodd" d="M69.1733 12.1531C69.1733 11.6536 69.1357 11.1718 69.0608 10.7072C68.986 10.2427 68.8559 9.83098 68.671 9.47154C68.4859 9.11238 68.2457 8.82536 67.9505 8.61048C67.6552 8.39588 67.283 8.28849 66.8335 8.28849C66.6131 8.28849 66.3973 8.31933 66.1859 8.38046C65.9743 8.44187 65.7562 8.54715 65.5315 8.69594C65.3069 8.84509 65.0756 9.03775 64.8375 9.27438C64.5996 9.51101 64.3484 9.80464 64.084 10.1551V14.046C64.551 14.642 64.9982 15.0955 65.4257 15.4064C65.8531 15.7177 66.3003 15.8731 66.7676 15.8731C67.1992 15.8731 67.565 15.7637 67.8647 15.5445C68.1641 15.3256 68.4132 15.0407 68.6116 14.6901C68.8097 14.3397 68.9529 13.9409 69.0411 13.4939C69.129 13.0469 69.1733 12.6 69.1733 12.1531ZM72.6233 11.9165C72.6233 12.9595 72.5088 13.8971 72.2796 14.7295C72.0505 15.5621 71.72 16.272 71.2883 16.859C70.8564 17.4462 70.3254 17.8974 69.6954 18.2129C69.0652 18.5284 68.3492 18.6862 67.5475 18.6862C67.1509 18.6862 66.7807 18.6488 66.4369 18.5744C66.0934 18.4999 65.765 18.3795 65.4521 18.2129C65.1392 18.0465 64.831 17.8362 64.5268 17.582C64.2229 17.3279 63.9122 17.0212 63.5949 16.6618V17.9368C63.5949 18.0334 63.5707 18.1143 63.5223 18.1801C63.4737 18.2458 63.3945 18.3006 63.2842 18.3444C63.1741 18.3881 63.0266 18.4187 62.8416 18.4364C62.6564 18.4539 62.4317 18.4627 62.1675 18.4627C61.8942 18.4627 61.6671 18.4539 61.4867 18.4364C61.306 18.4187 61.1604 18.3881 61.0504 18.3444C60.9401 18.3006 60.8631 18.2458 60.8191 18.1801C60.7749 18.1143 60.7529 18.0334 60.7529 17.9368V0.651317C60.7529 0.563752 60.7794 0.484907 60.8323 0.414689C60.8852 0.344655 60.9755 0.285544 61.1033 0.237264C61.2309 0.189167 61.4006 0.15181 61.6122 0.125467C61.8236 0.0992157 62.0923 0.0860901 62.4185 0.0860901C62.7445 0.0860901 63.0135 0.0992157 63.2249 0.125467C63.4364 0.15181 63.606 0.189167 63.7337 0.237264C63.8614 0.285544 63.9519 0.344655 64.0048 0.414689C64.0576 0.484907 64.084 0.563752 64.084 0.651317V7.13169C64.3835 6.83394 64.6832 6.57959 64.983 6.36931C65.2825 6.15902 65.5822 5.98609 65.8819 5.85016C66.1813 5.71431 66.4899 5.61573 66.8071 5.55433C67.1245 5.4931 67.4592 5.46236 67.8118 5.46236C68.6842 5.46236 69.4245 5.63547 70.0326 5.9816C70.6405 6.32782 71.1362 6.79447 71.5197 7.38145C71.903 7.9687 72.1827 8.65454 72.3591 9.43868C72.5352 10.223 72.6233 11.049 72.6233 11.9165Z" fill="white"/>
<path fill-rule="evenodd" clip-rule="evenodd" d="M36.3908 35.8048C36.3908 36.6198 36.2475 37.1676 35.9612 37.448C35.6748 37.7283 35.1614 37.8687 34.4212 37.8687C33.6809 37.8687 33.1698 37.7306 32.8879 37.4544C32.6057 37.1784 32.4648 36.6549 32.4648 35.8838C32.4648 35.0602 32.6079 34.508 32.8944 34.2276C33.1806 33.9471 33.6985 33.8069 34.4476 33.8069C35.179 33.8069 35.6857 33.9449 35.9677 34.2208C36.2497 34.4969 36.3908 35.0249 36.3908 35.8048Z" fill="white"/>
<mask id="mask0_2767_11095" style="mask-type:alpha" maskUnits="userSpaceOnUse" x="39" y="24" width="34" height="14">
<path d="M39.709 24.7757H72.6235V37.994H39.709V24.7757Z" fill="white"/>
</mask>
<g mask="url(#mask0_2767_11095)">
<path fill-rule="evenodd" clip-rule="evenodd" d="M58.4663 37.25C58.4663 37.3379 58.4399 37.4143 58.387 37.4801C58.334 37.5459 58.2458 37.6008 58.1226 37.6444C57.999 37.6884 57.8319 37.7211 57.6203 37.7431C57.4088 37.765 57.1399 37.776 56.8139 37.776C56.479 37.776 56.206 37.765 55.9944 37.7431C55.783 37.7211 55.6132 37.6884 55.4855 37.6444C55.3577 37.6008 55.2694 37.5459 55.2211 37.4801C55.1725 37.4143 55.1484 37.3379 55.1484 37.25V30.2964C55.1484 29.9022 55.1108 29.5428 55.0361 29.2186C54.9611 28.8944 54.8463 28.6161 54.6924 28.3839C54.5381 28.1518 54.3442 27.9721 54.1107 27.8449C53.8771 27.7181 53.5973 27.6544 53.2715 27.6544C52.8748 27.6544 52.4737 27.8079 52.0684 28.1143C51.663 28.4214 51.2224 28.8683 50.7466 29.4552V37.25C50.7466 37.3379 50.7201 37.4143 50.6673 37.4801C50.6144 37.5459 50.5239 37.6008 50.3962 37.6444C50.2685 37.6884 50.0988 37.7211 49.8875 37.7431C49.6758 37.765 49.4115 37.776 49.0943 37.776C48.7681 37.776 48.4994 37.765 48.2879 37.7431C48.0763 37.7211 47.9067 37.6884 47.7789 37.6444C47.6511 37.6008 47.5609 37.5459 47.5079 37.4801C47.4552 37.4143 47.4287 37.3379 47.4287 37.25V30.2964C47.4287 29.9022 47.3911 29.5428 47.3162 29.2186C47.2413 28.8944 47.129 28.6161 46.9793 28.3839C46.8293 28.1518 46.6356 27.9721 46.3976 27.8449C46.1597 27.7181 45.882 27.6544 45.5648 27.6544C45.1595 27.6544 44.7539 27.8079 44.3488 28.1143C43.9433 28.4214 43.5071 28.8683 43.04 29.4552V37.25C43.04 37.3379 43.0136 37.4143 42.9608 37.4801C42.9079 37.5459 42.8175 37.6008 42.6898 37.6444C42.5619 37.6884 42.3923 37.7211 42.1808 37.7431C41.9694 37.765 41.7005 37.776 41.3746 37.776C41.0485 37.776 40.7797 37.765 40.5682 37.7431C40.3568 37.7211 40.1869 37.6884 40.0593 37.6444C39.9314 37.6008 39.8412 37.5459 39.7884 37.4801C39.7354 37.4143 39.709 37.3379 39.709 37.25V25.5249C39.709 25.4375 39.7309 25.3606 39.7751 25.2948C39.8191 25.2291 39.8984 25.1744 40.013 25.1305C40.1274 25.0867 40.2751 25.054 40.4558 25.0318C40.6363 25.0102 40.8634 24.9991 41.1366 24.9991C41.4186 24.9991 41.6521 25.0102 41.8372 25.0318C42.0223 25.054 42.1653 25.0867 42.2668 25.1305C42.368 25.1744 42.4408 25.2291 42.4849 25.2948C42.5289 25.3606 42.551 25.4375 42.551 25.5249V26.8787C43.203 26.1778 43.8531 25.6521 44.5007 25.3014C45.1486 24.951 45.8248 24.7757 46.5299 24.7757C47.0145 24.7757 47.4506 24.8261 47.8384 24.9267C48.2261 25.0276 48.5721 25.1723 48.8762 25.3606C49.1802 25.5492 49.4422 25.7746 49.6626 26.0375C49.8829 26.3004 50.0678 26.5942 50.2178 26.9182C50.5701 26.5415 50.9161 26.2172 51.2555 25.9456C51.5946 25.6739 51.9297 25.4525 52.2602 25.2818C52.5906 25.1108 52.9211 24.9838 53.2515 24.9005C53.582 24.8172 53.9191 24.7757 54.2627 24.7757C55.047 24.7757 55.7079 24.9071 56.2455 25.1701C56.7829 25.4329 57.2172 25.79 57.5477 26.2412C57.8781 26.6927 58.1137 27.2207 58.2549 27.8252C58.3956 28.4299 58.4663 29.0698 58.4663 29.7445V37.25Z" fill="white"/>
<path fill-rule="evenodd" clip-rule="evenodd" d="M69.3982 30.0993C69.4247 29.1705 69.2372 28.441 68.8364 27.9106C68.4353 27.3806 67.8162 27.1154 66.9791 27.1154C66.5561 27.1154 66.188 27.1944 65.8753 27.352C65.5624 27.5097 65.3023 27.7223 65.0955 27.9895C64.8884 28.2571 64.7296 28.5725 64.6196 28.9359C64.5093 29.2998 64.4454 29.6875 64.4279 30.0993H69.3982ZM72.6235 31.0458C72.6235 31.449 72.533 31.747 72.3524 31.9396C72.1718 32.1324 71.9229 32.2287 71.6056 32.2287H64.4279C64.4279 32.7283 64.4873 33.1818 64.6064 33.5893C64.7253 33.9968 64.9147 34.343 65.1747 34.6278C65.4346 34.9126 65.7696 35.1296 66.1793 35.2784C66.5891 35.4276 67.0803 35.5019 67.6533 35.5019C68.235 35.5019 68.7458 35.4604 69.1866 35.3769C69.6273 35.2939 70.0083 35.2018 70.3301 35.1009C70.6517 35.0003 70.9182 34.9083 71.1299 34.8249C71.3412 34.7417 71.5132 34.7001 71.6452 34.7001C71.7247 34.7001 71.7906 34.7154 71.8436 34.7461C71.8965 34.7769 71.9404 34.8315 71.9758 34.9104C72.011 34.9892 72.0353 35.1009 72.0484 35.2456C72.0617 35.3902 72.0682 35.5721 72.0682 35.7911C72.0682 35.9839 72.0637 36.1482 72.0551 36.284C72.0462 36.42 72.0329 36.5361 72.0153 36.6324C71.9978 36.729 71.9712 36.8097 71.9362 36.8755C71.9008 36.9414 71.8545 37.0049 71.7973 37.0661C71.74 37.1275 71.5835 37.2107 71.328 37.3159C71.0723 37.4211 70.7465 37.5242 70.3498 37.6248C69.9532 37.7255 69.4993 37.8132 68.9883 37.8877C68.4773 37.962 67.9308 37.9995 67.3492 37.9995C66.3003 37.9995 65.3817 37.868 64.5932 37.605C63.8043 37.3421 63.1457 36.9436 62.617 36.4088C62.0881 35.8745 61.6937 35.1994 61.4337 34.3845C61.1739 33.5695 61.0439 32.6144 61.0439 31.5189C61.0439 30.4761 61.1804 29.5363 61.4537 28.6995C61.7266 27.8626 62.1232 27.1527 62.6434 26.5699C63.1632 25.9873 63.7955 25.5425 64.5403 25.2356C65.2849 24.9291 66.1242 24.7757 67.0584 24.7757C68.0452 24.7757 68.8893 24.9201 69.5899 25.2094C70.2904 25.4986 70.8653 25.8994 71.3148 26.4121C71.7642 26.9249 72.0947 27.5317 72.3063 28.2327C72.5176 28.9339 72.6235 29.6964 72.6235 30.52V31.0458Z" fill="white"/>
</g>
</svg>
