<svg width="25" height="24" viewBox="0 0 25 24" fill="none" xmlns="http://www.w3.org/2000/svg">
<path fill-rule="evenodd" clip-rule="evenodd" d="M2.5407 18.8082L0.0121598 10.7844C-0.021554 10.6158 0.0121603 10.4135 0.147016 10.3124L4.02411 7.17697C4.15896 7.07583 4.32753 7.10954 4.42867 7.2444L7.32806 11.3238C7.4292 11.4586 7.4292 11.6609 7.32806 11.8295L2.81041 18.842C2.70927 18.9768 2.57441 18.9768 2.5407 18.8082Z" fill="#0153A7"/>
<path fill-rule="evenodd" clip-rule="evenodd" d="M15.7576 23.7651L10.6668 17.4269C10.5657 17.2921 10.3634 17.2246 10.1948 17.2921L5.54231 18.7755C5.37374 18.8429 5.30631 19.0115 5.37374 19.1463L7.05943 23.7314C7.12686 23.8663 7.29543 24.0011 7.464 24.0011H15.6565C15.825 24.0011 15.8587 23.9 15.7576 23.7651Z" fill="#CE2029"/>
<path fill-rule="evenodd" clip-rule="evenodd" d="M24.389 13.5069L16.7697 16.3726C16.6349 16.4063 16.5 16.5749 16.5 16.7434V21.5982C16.5 21.7668 16.6349 21.9017 16.8034 21.9017L21.6919 21.6994C21.8605 21.6994 22.0291 21.5645 22.0628 21.396L24.5913 13.6418C24.625 13.5069 24.5239 13.4395 24.389 13.5069Z" fill="#CE2029"/>
<path fill-rule="evenodd" clip-rule="evenodd" d="M16.8359 1.5307L17.2405 9.85802C17.2405 10.0266 17.3754 10.1952 17.5439 10.2626L22.4324 11.8134C22.601 11.8471 22.7696 11.7797 22.837 11.6111L24.253 6.79006C24.2867 6.62149 24.2193 6.4192 24.0844 6.31806L17.1056 1.39584C16.9371 1.32841 16.8359 1.36213 16.8359 1.5307Z" fill="#CE2029"/>
<path fill-rule="evenodd" clip-rule="evenodd" d="M3.14589 5.47007L11.5406 7.76261C11.7092 7.79633 11.9115 7.7289 12.0126 7.59404L15.0806 3.41353C15.1817 3.27867 15.148 3.07639 15.0132 2.97525L10.6641 0.0758561C10.5292 -0.0252854 10.2932 -0.0252854 10.1584 0.0758561L3.11217 5.16665C2.97732 5.3015 2.97732 5.43636 3.14589 5.47007Z" fill="#0153A7"/>
</svg>
