<svg width="18" height="18" viewBox="0 0 18 18" fill="none" xmlns="http://www.w3.org/2000/svg">
<path d="M17.9432 7.96333C17.905 7.87182 17.8502 7.78857 17.7805 7.71882L15.5312 5.46956C15.238 5.17706 14.764 5.17706 14.4707 5.46956C14.1775 5.7628 14.1775 6.23755 14.4707 6.53005L15.4405 7.4998H11.251C10.8362 7.4998 10.501 7.83578 10.501 8.24978C10.501 8.66378 10.8362 8.99977 11.251 8.99977H15.4405L14.4707 9.96952C14.1775 10.2628 14.1775 10.7375 14.4707 11.03C14.617 11.177 14.8089 11.2498 15.001 11.2498C15.193 11.2498 15.385 11.177 15.5312 11.03L17.7805 8.78075C17.8502 8.71174 17.905 8.62849 17.9432 8.53624C18.019 8.35332 18.019 8.14632 17.9432 7.96333Z" fill="#4E4E4E"/>
<path d="M12.751 10.5C12.3362 10.5 12.001 10.836 12.001 11.25V15H9.00098V2.99999C9.00098 2.66924 8.78346 2.37674 8.46621 2.2815L5.86145 1.50001H12.001V5.25002C12.001 5.66402 12.3362 6.00001 12.751 6.00001C13.1657 6.00001 13.5009 5.66402 13.5009 5.25002V0.750023C13.5009 0.335988 13.1657 0 12.751 0H0.750965C0.723965 0 0.699953 0.01125 0.673726 0.0142383C0.638465 0.018 0.606227 0.0239766 0.572477 0.0322383C0.493727 0.0524883 0.422465 0.08325 0.355738 0.125227C0.33925 0.135738 0.319 0.136477 0.30325 0.148465C0.297203 0.153 0.294953 0.161262 0.288941 0.165762C0.207203 0.230238 0.138965 0.308988 0.0894648 0.40275C0.0789531 0.423 0.0767031 0.444762 0.0684766 0.46575C0.0444648 0.522738 0.0182383 0.57825 0.00923828 0.64125C0.00547656 0.66375 0.0122266 0.684738 0.0114883 0.7065C0.01075 0.721512 0.000976562 0.735012 0.000976562 0.749988V15.75C0.000976562 16.1077 0.253715 16.4153 0.603976 16.485L8.10396 17.985C8.15273 17.9955 8.20222 18 8.25095 18C8.42269 18 8.59144 17.9408 8.72644 17.8298C8.89969 17.6873 9.00094 17.475 9.00094 17.25V16.5H12.751C13.1657 16.5 13.5009 16.164 13.5009 15.75V11.25C13.5009 10.836 13.1657 10.5 12.751 10.5Z" fill="#4E4E4E"/>
</svg>
