<svg width="20" height="20" viewBox="0 0 20 20" fill="none" xmlns="http://www.w3.org/2000/svg">
<path d="M16.1637 7.83789H16.1061C15.8154 7.83789 15.5798 8.07353 15.5798 8.36421V19.1933C15.5798 19.484 15.8154 19.7197 16.1061 19.7197H16.1637C16.4544 19.7197 16.69 19.484 16.69 19.1933V8.36421C16.69 8.07353 16.4544 7.83789 16.1637 7.83789Z" fill="#4E4E4E"/>
<path d="M12.6562 18.1917C12.6562 18.4822 12.8917 18.7194 13.1821 18.7194C13.4727 18.7194 13.708 18.4822 13.708 18.1917C13.708 17.9013 13.4727 17.6641 13.1821 17.6641C12.8917 17.6641 12.6562 17.9013 12.6562 18.1917Z" fill="#4E4E4E"/>
<path d="M0 18.1917C0 18.4822 0.235453 18.7194 0.525898 18.7194C0.816344 18.7194 1.0518 18.4822 1.0518 18.1917C1.0518 17.9013 0.816344 17.6641 0.525898 17.6641C0.235453 17.6641 0 17.9013 0 18.1917Z" fill="#4E4E4E"/>
<path d="M12.1308 8.51758C11.8401 8.51758 11.6045 8.75322 11.6045 9.04389V13.9713C11.6045 14.2619 11.3688 14.4976 11.0782 14.4976H2.62985C2.33918 14.4976 2.10354 14.2619 2.10354 13.9713V9.04389C2.10354 8.75322 1.86789 8.51758 1.57722 8.51758H0.526316C0.23564 8.51758 0 8.75322 0 9.04389V16.0818C0 16.3725 0.23564 16.6081 0.526316 16.6081H13.1817C13.4724 16.6081 13.708 16.3725 13.708 16.0818V9.04389C13.708 8.75322 13.4724 8.51758 13.1817 8.51758H12.1308Z" fill="#4E4E4E"/>
<path d="M9.50139 10.9805H4.20752C3.62758 10.9805 3.15576 11.4539 3.15576 12.0358V12.9166C3.15576 13.2072 3.39139 13.4429 3.68208 13.4429H10.0268C10.3175 13.4429 10.5532 13.2072 10.5532 12.9166V12.0358C10.5532 11.4539 10.0813 10.9805 9.50139 10.9805Z" fill="#4E4E4E"/>
<path d="M3.68208 5.35156C3.39139 5.35156 3.15576 5.5872 3.15576 5.87788V9.29323C3.15576 9.69918 3.61644 9.96881 4.02079 9.93278C4.08232 9.92731 4.14459 9.92451 4.20752 9.92451H9.50139C9.56432 9.92451 9.62659 9.92731 9.68812 9.93278C10.0925 9.96881 10.5532 9.69918 10.5532 9.29323V5.87788C10.5532 5.5872 10.3175 5.35156 10.0268 5.35156H3.68208Z" fill="#4E4E4E"/>
<path d="M18.5546 1.19576C18.534 0.921204 18.3052 0.708984 18.0298 0.708984H14.5358C14.2604 0.708984 14.0316 0.921203 14.0109 1.19576L13.6609 5.84168C13.6379 6.14707 13.8795 6.40753 14.1858 6.40753H18.3798C18.6861 6.40753 18.9277 6.14707 18.9046 5.84168L18.5546 1.19576Z" fill="#4E4E4E"/>
</svg>
