<svg width="20" height="20" viewBox="0 0 20 20" fill="none" xmlns="http://www.w3.org/2000/svg">
<g clip-path="url(#clip0_682_37332)">
<path d="M8.71835 15.5586H7.30048V14.2191C10.112 13.7118 12.2411 11.2527 12.2411 8.30416C12.2411 7.50697 12.0887 6.74609 11.8045 6.04958C11.4948 5.93297 11.1647 5.87052 10.8238 5.87052C10.2828 5.87052 9.7679 6.02409 9.32374 6.30958C9.69652 6.88501 9.91319 7.56942 9.91319 8.30416C9.91319 10.3332 8.26463 11.983 6.23564 11.983C4.20792 11.983 2.55872 10.3332 2.55872 8.30416C2.55872 6.76011 3.51523 5.43719 4.86556 4.89234C5.14085 4.46092 5.46521 4.05564 5.83608 3.6854C6.34206 3.18006 6.91303 2.76075 7.5318 2.43639C7.11504 2.34463 6.68171 2.29492 6.23819 2.29492C2.92514 2.29492 0.21875 4.99175 0.21875 8.3048C0.21875 11.1877 2.26304 13.6003 4.95796 14.1802V15.5592H3.63694C2.99269 15.5592 2.47014 16.0875 2.47014 16.7305C2.47014 17.3754 2.99269 17.903 3.63694 17.903H4.95796V18.8347C4.95796 19.4777 5.4856 19.9996 6.12922 19.9996C6.77347 19.9996 7.30048 19.4777 7.30048 18.8347V17.903H8.71835C9.36261 17.903 9.88388 17.3754 9.88388 16.7305C9.88388 16.0869 9.36197 15.5586 8.71835 15.5586Z" fill="#222222"/>
<path d="M18.5624 0.000111353C18.5088 -0.00243764 14.8364 0.0396207 14.8364 0.0396207C14.1838 0.0472676 13.6587 0.687064 13.6677 1.34215C13.6759 1.99087 14.2049 2.6141 14.851 2.6141C14.8549 2.6141 14.8612 2.6141 14.8663 2.6141L15.5501 2.50131L14.3043 3.69742C13.2885 2.99135 12.0873 2.58032 10.8255 2.58032C9.19483 2.58032 7.66161 3.20292 6.50819 4.3557C4.66527 6.19798 4.24979 8.92922 5.25791 11.1755C5.32291 11.1972 5.38855 11.2176 5.45546 11.2361C5.67786 11.2966 5.90727 11.3291 6.13604 11.3367C6.16918 11.338 6.20295 11.3386 6.23672 11.3386C6.79878 11.3386 7.34681 11.1825 7.82474 10.8868C6.73951 9.425 6.85804 7.34502 8.18415 6.01827C8.88895 5.31284 9.82761 4.92348 10.8262 4.92348C11.8247 4.92348 12.7628 5.3122 13.4682 6.01827C14.9269 7.47629 14.9269 9.84813 13.4682 11.3049C12.9304 11.844 12.2562 12.1977 11.5221 12.3347C11.4717 12.4009 11.4201 12.4672 11.3678 12.5316C10.6809 13.3664 9.8034 14.0195 8.8163 14.4363C9.45418 14.6574 10.1309 14.7728 10.8255 14.7728C12.4569 14.7728 13.9901 14.1349 15.1442 12.9815C17.2139 10.9111 17.5549 7.71208 16.0267 5.34661L17.4344 4.01349V4.84128C17.4344 5.49509 17.9519 6.02592 18.6057 6.02592C19.2601 6.02592 19.7782 5.49509 19.7782 4.84128V1.17519C19.7789 0.858483 19.7253 0.0721203 18.5624 0.000111353Z" fill="#222222"/>
</g>
<defs>
<clipPath id="clip0_682_37332">
<rect width="20" height="20" fill="white"/>
</clipPath>
</defs>
</svg>
