<svg width="18" height="16" viewBox="0 0 18 16" fill="none" xmlns="http://www.w3.org/2000/svg">
<path d="M12.4464 0.11171H2.03555C0.913008 0.11171 0 1.02472 0 2.14726V11.2703C0 11.7024 0.488637 11.9459 0.833555 11.6996L3.73289 9.63098C3.97617 9.45766 4.26234 9.3659 4.56117 9.3659H10.9382C12.0607 9.3659 12.9737 8.45289 12.9737 7.33035V0.639054C12.9737 0.34796 12.7375 0.11171 12.4464 0.11171ZM9.88488 6.49996H3.79195C3.50086 6.49996 3.26461 6.26406 3.26461 5.97261C3.26461 5.68152 3.50086 5.44527 3.79195 5.44527H9.88488C10.176 5.44527 10.4122 5.68152 10.4122 5.97261C10.4122 6.26406 10.176 6.49996 9.88488 6.49996ZM9.88488 4.03902H3.79195C3.50086 4.03902 3.26461 3.80312 3.26461 3.51167C3.26461 3.22058 3.50086 2.98433 3.79195 2.98433H9.88488C10.176 2.98433 10.4122 3.22058 10.4122 3.51167C10.4122 3.80312 10.176 4.03902 9.88488 4.03902Z" fill="#4E4E4E"/>
<path d="M18.0001 6.23768V15.3604C18.0001 15.7895 17.5139 16.0378 17.1665 15.7896L14.2672 13.7214C14.0239 13.5481 13.7377 13.4563 13.4389 13.4563H7.06191C5.93937 13.4563 5.02637 12.543 5.02637 11.4204V10.4206H10.9382C12.6423 10.4206 14.0285 9.03436 14.0285 7.33034V4.20178H15.9645C17.0871 4.20178 18.0001 5.11514 18.0001 6.23768Z" fill="#4E4E4E"/>
</svg>
