<svg width="20" height="20" viewBox="0 0 20 20" fill="none" xmlns="http://www.w3.org/2000/svg">
<path d="M18.3332 9.99953C18.3332 12.2097 17.4552 14.3293 15.8924 15.8921C14.3296 17.4549 12.21 18.3329 9.99984 18.3329H2.49984L3.1165 14.6995C2.38115 13.6219 1.90906 12.3868 1.73825 11.0934C1.56743 9.80005 1.70266 8.48465 2.13304 7.2531C2.56343 6.02155 3.27695 4.90825 4.21617 4.00282C5.15538 3.09738 6.29406 2.4251 7.54055 2.0401C8.78703 1.6551 10.1065 1.56812 11.3927 1.78618C12.679 2.00424 13.896 2.52123 14.946 3.29555C15.9959 4.06987 16.8494 5.07988 17.4377 6.24428C18.026 7.40868 18.3327 8.69494 18.3332 9.99953Z" fill="white"/>
<path d="M13.3332 8.33301H12.4998V10.833H10.8332V9.16634H9.1665V10.833H7.49984V8.33301H6.6665L9.99984 5.83301L13.3332 8.33301Z" fill="#F9C41F" fill-opacity="0.2"/>
<path d="M9.9999 19.1664H1.51657L2.24157 14.883C1.1586 13.1626 0.678237 11.1311 0.876019 9.10784C1.0738 7.08462 1.93851 5.18454 3.33415 3.70645C4.72978 2.22836 6.57716 1.25612 8.58571 0.942656C10.5943 0.62919 12.65 0.99228 14.4297 1.97482C16.2093 2.95735 17.6119 4.50359 18.4168 6.37033C19.2216 8.23708 19.3832 10.3184 18.8759 12.287C18.3687 14.2555 17.2214 15.9996 15.6147 17.245C14.0079 18.4903 12.0328 19.1662 9.9999 19.1664ZM3.48323 17.4997H9.9999C11.6892 17.4964 13.328 16.9229 14.6507 15.872C15.9734 14.8212 16.9026 13.3545 17.2878 11.7097C17.6729 10.0648 17.4915 8.33811 16.7729 6.80924C16.0542 5.28037 14.8405 4.0389 13.3282 3.28592C11.816 2.53294 10.0938 2.31256 8.44069 2.66048C6.78757 3.0084 5.30031 3.90425 4.21985 5.20289C3.13939 6.50154 2.52901 8.12692 2.48757 9.81576C2.44614 11.5046 2.97609 13.158 3.99157 14.508L3.48323 17.4997Z" fill="#222222"/>
<path d="M14.1668 12.5H5.8335V14.1667H14.1668V12.5Z" fill="#F9C41F"/>
</svg>
