<svg width="20" height="20" viewBox="0 0 20 20" fill="none" xmlns="http://www.w3.org/2000/svg">
<path d="M15.8333 18.3327V4.16602L13.3333 1.66602H2.5V18.3327H15.8333Z" fill="white"/>
<path d="M12.5007 6.66602H11.6673V9.16602H10.0007V7.49935H8.33398V9.16602H6.66732V6.66602H5.83398L9.16732 4.16602L12.5007 6.66602Z" fill="#F9C41F" fill-opacity="0.2"/>
<path d="M13.6743 0.833984H1.66602V19.1673H16.666V3.82565L13.6743 0.833984ZM14.9993 17.5006H3.33268V2.50065H12.991L14.9993 4.50898V17.5006Z" fill="#222222"/>
<path d="M12.5 10.834H5V12.5007H12.5V10.834Z" fill="#222222"/>
<path d="M10 14.166H5V15.8327H10V14.166Z" fill="#222222"/>
<path d="M11.8496 15.8329L12.4413 14.0663L17.1579 9.34961L18.3329 10.5329L13.6163 15.2413L11.8496 15.8329Z" fill="#F9C41F"/>
</svg>
