<svg width="18" height="18" viewBox="0 0 18 18" fill="none" xmlns="http://www.w3.org/2000/svg">
<path d="M14.25 16.5V3.75L12 1.5H2.25V16.5H14.25Z" fill="white"/>
<path d="M11.25 6H10.5V8.25H9V6.75H7.5V8.25H6V6H5.25L8.25 3.75L11.25 6Z" fill="#F9C41F" fill-opacity="0.2"/>
<path d="M12.3075 0.75H1.5V17.25H15V3.4425L12.3075 0.75ZM13.5 15.75H3V2.25H11.6925L13.5 4.0575V15.75Z" fill="#7A7A7A"/>
<path d="M11.25 9.75H4.5V11.25H11.25V9.75Z" fill="#7A7A7A"/>
<path d="M9 12.75H4.5V14.25H9V12.75Z" fill="#7A7A7A"/>
<path d="M10.665 14.25L11.1975 12.66L15.4425 8.41504L16.5 9.48004L12.255 13.7175L10.665 14.25Z" fill="#7A7A7A"/>
</svg>
