<svg width="24" height="24" viewBox="0 0 24 24" fill="none" xmlns="http://www.w3.org/2000/svg">
<path d="M20 8.55V22H4V8.55L6.21 6.74C6.05165 6.17411 5.98083 5.58732 6 5C6 3.34 6.34 2 8 2C9.13426 2.0451 10.2184 2.47945 11.07 3.23C11.3568 3.07934 11.676 3.00062 12 3.00062C12.324 3.00062 12.6432 3.07934 12.93 3.23C13.7816 2.47945 14.8657 2.0451 16 2C17.66 2 18 3.34 18 5C18.0192 5.58732 17.9483 6.17411 17.79 6.74L20 8.55Z" fill="white"/>
<path d="M14 16H10V21H14V16Z" fill="#F9C41F" fill-opacity="0.2"/>
<path d="M9 12H7V14H9V12Z" fill="#F9C41F"/>
<path d="M17 12H15V14H17V12Z" fill="#F9C41F"/>
<path d="M23.6301 10.23L18.8801 6.34C18.9593 5.89771 18.9994 5.44932 19.0001 5C19.0001 2.35 18.0001 1 16.0001 1C14.8364 1.03742 13.711 1.4242 12.7701 2.11C12.2678 1.95992 11.7325 1.95992 11.2301 2.11C10.2893 1.4242 9.16379 1.03742 8.00012 1C6.00012 1 5.00012 2.35 5.00012 5C5.00079 5.44932 5.04095 5.89771 5.12012 6.34L0.370117 10.23L1.63012 11.77L3.00012 10.66V23H21.0001V10.66L22.3701 11.77L23.6301 10.23ZM17.0001 5C17.0001 7 16.4701 7 16.0001 7C15.4855 6.97917 14.9811 6.84967 14.5201 6.62C14.8303 6.1366 14.9951 5.57434 14.9951 5C14.9951 4.42566 14.8303 3.8634 14.5201 3.38C14.9811 3.15033 15.4855 3.02083 16.0001 3C16.4701 3 17.0001 3 17.0001 5ZM13.0001 5C13.0001 5.19778 12.9415 5.39112 12.8316 5.55557C12.7217 5.72002 12.5655 5.84819 12.3828 5.92388C12.2001 5.99957 11.999 6.01937 11.805 5.98079C11.611 5.9422 11.4329 5.84696 11.293 5.70711C11.1532 5.56725 11.0579 5.38907 11.0193 5.19509C10.9807 5.00111 11.0006 4.80004 11.0762 4.61732C11.1519 4.43459 11.2801 4.27841 11.4445 4.16853C11.609 4.05865 11.8023 4 12.0001 4C12.2653 4 12.5197 4.10536 12.7072 4.29289C12.8948 4.48043 13.0001 4.73478 13.0001 5ZM8.00012 3C8.51474 3.02083 9.01912 3.15033 9.48012 3.38C9.16998 3.8634 9.00511 4.42566 9.00511 5C9.00511 5.57434 9.16998 6.1366 9.48012 6.62C9.01912 6.84967 8.51474 6.97917 8.00012 7C7.53012 7 7.00012 7 7.00012 5C7.00012 3 7.53012 3 8.00012 3ZM19.0001 21H5.00012V9L6.00012 8.2C7.28012 9.57 9.70012 9 11.2301 7.89C11.7325 8.04008 12.2678 8.04008 12.7701 7.89C14.3001 9 16.7201 9.57 18.0001 8.22L19.0001 9V21Z" fill="#4E4E4E"/>
</svg>
