<svg width="20" height="20" viewBox="0 0 20 20" fill="none" xmlns="http://www.w3.org/2000/svg">
<g clip-path="url(#clip0_391_7794)">
<path d="M20.1648 3.00227V2.34961H10.0824C9.90254 2.34961 9.75715 2.49549 9.75715 2.67594V5.28658C9.75715 5.46703 9.90254 5.6129 10.0824 5.6129H10.4076V18.7162H0V19.3689H10.7329H12.0338H14.6358H15.9367H20.1648V18.7162H16.2619V17.0847H20.1648V16.432H15.9367H14.6358H13.66V15.7793H20.1648V15.1267H13.3348C13.1549 15.1267 13.0096 15.2725 13.0096 15.453V16.7583C13.0096 16.9388 13.1549 17.0847 13.3348 17.0847H14.3104V18.7162H12.3591V5.6129H20.1648V4.96024H12.0338H10.7329H10.4076V3.00227H20.1648Z" fill="#222222"/>
<path d="M6.50449 9.25236C6.50449 8.56119 6.34154 7.86938 6.03387 7.25164L5.81985 6.82219C5.70928 6.60094 5.34859 6.60094 5.23801 6.82219L5.024 7.25164C4.716 7.86938 4.55305 8.56119 4.55305 9.25236C4.55305 9.331 4.56249 9.40932 4.56671 9.48797C4.35661 9.33035 4.11691 9.21484 3.86029 9.15055L3.00557 8.93615C2.89563 8.90776 2.77758 8.94105 2.69691 9.02197C2.61626 9.1029 2.5834 9.22038 2.61138 9.33166L2.82506 10.1896C2.91254 10.5397 3.09273 10.8602 3.34707 11.115C3.60108 11.3702 3.92047 11.5514 4.26944 11.6388L4.48833 11.6936L4.08178 11.8976L4.37287 12.4814L5.20353 12.0647V12.842H2.92686C2.747 12.842 2.60162 12.9878 2.60162 13.1682V14.4736C2.60162 14.654 2.747 14.7999 2.92686 14.7999H3.28299L3.57897 17.7696C3.59554 17.9359 3.7354 18.0632 3.90258 18.0632H7.15497C7.32213 18.0632 7.46199 17.9359 7.47858 17.7696L7.77454 14.7999H8.13068C8.31053 14.7999 8.45592 14.654 8.45592 14.4736V13.1682C8.45592 12.9878 8.31053 12.842 8.13068 12.842H5.85401V12.0647L6.68434 12.481L6.97543 11.8972L6.56889 11.6932L6.78744 11.6385C7.13642 11.5507 7.45613 11.3699 7.71014 11.1147C7.96449 10.8598 8.14499 10.5394 8.23215 10.1889L8.44583 9.33132C8.47381 9.22005 8.44096 9.10257 8.3603 9.02165C8.27964 8.94071 8.16223 8.90742 8.05164 8.93582L7.1966 9.15021C6.94031 9.2145 6.70061 9.33002 6.4905 9.48765C6.49505 9.40932 6.50449 9.331 6.50449 9.25236ZM7.80544 14.1472H3.2521V13.4946H7.80544V14.1472ZM5.52877 7.70752C5.7418 8.19211 5.85401 8.7224 5.85401 9.25236C5.85401 9.78231 5.7418 10.3126 5.52877 10.7972C5.31573 10.3126 5.20353 9.78231 5.20353 9.25236C5.20353 8.7224 5.31573 8.19211 5.52877 7.70752ZM3.80728 10.6533C3.63653 10.482 3.51521 10.2663 3.45602 10.031L3.37406 9.70106L3.70256 9.78329C3.9377 9.84269 4.15236 9.9644 4.32311 10.1357C4.49386 10.307 4.61518 10.5228 4.67437 10.758L4.75632 11.088L4.42783 11.0057C4.19301 10.9463 3.97803 10.8246 3.80728 10.6533ZM7.35467 9.78329L7.68348 9.70106L7.60152 10.0306C7.54232 10.2666 7.42101 10.482 7.25026 10.6533C7.07951 10.8246 6.86452 10.9463 6.6297 11.0057L6.30121 11.088L6.38318 10.7584C6.44237 10.5224 6.56368 10.307 6.73443 10.1357C6.90518 9.9644 7.12017 9.84269 7.35467 9.78329Z" fill="#222222"/>
<path d="M2.57636 4.98559H6.80448C7.70117 4.98559 8.43068 4.25364 8.43068 3.35395C8.43068 2.45426 7.70117 1.7223 6.80448 1.7223C6.66202 1.7223 6.51925 1.74221 6.38069 1.78105C6.13156 0.979909 5.39749 0.416992 4.5278 0.416992C3.45158 0.416992 2.57636 1.29515 2.57636 2.37496C1.85888 2.37496 1.27539 2.96039 1.27539 3.68028C1.27539 4.40016 1.85888 4.98559 2.57636 4.98559Z" fill="#222222"/>
</g>
<defs>
<clipPath id="clip0_391_7794">
<rect width="20" height="20" fill="white"/>
</clipPath>
</defs>
</svg>
