<svg width="20" height="20" viewBox="0 0 20 20" fill="none" xmlns="http://www.w3.org/2000/svg">
<g clip-path="url(#clip0_2160_2028)">
<path d="M20.1648 3.00227V2.34961H10.0824C9.90254 2.34961 9.75715 2.49549 9.75715 2.67594V5.28658C9.75715 5.46703 9.90254 5.6129 10.0824 5.6129H10.4076V18.7162H0V19.3689H10.7329H12.0338H14.6358H15.9367H20.1648V18.7162H16.2619V17.0847H20.1648V16.432H15.9367H14.6358H13.66V15.7793H20.1648V15.1267H13.3348C13.1549 15.1267 13.0096 15.2725 13.0096 15.453V16.7583C13.0096 16.9388 13.1549 17.0847 13.3348 17.0847H14.3104V18.7162H12.3591V5.6129H20.1648V4.96024H12.0338H10.7329H10.4076V3.00227H20.1648Z" fill="#222222"/>
<path d="M6.50498 9.25236C6.50498 8.56119 6.34203 7.86938 6.03435 7.25164L5.82034 6.82219C5.70977 6.60094 5.34908 6.60094 5.2385 6.82219L5.02449 7.25164C4.71649 7.86938 4.55354 8.56119 4.55354 9.25236C4.55354 9.331 4.56298 9.40932 4.5672 9.48797C4.3571 9.33035 4.1174 9.21484 3.86078 9.15055L3.00605 8.93615C2.89612 8.90776 2.77807 8.94105 2.6974 9.02197C2.61674 9.1029 2.58389 9.22038 2.61187 9.33166L2.82554 10.1896C2.91303 10.5397 3.09322 10.8602 3.34755 11.115C3.60157 11.3702 3.92095 11.5514 4.26993 11.6388L4.48882 11.6936L4.08227 11.8976L4.37335 12.4814L5.20402 12.0647V12.842H2.92734C2.74749 12.842 2.60211 12.9878 2.60211 13.1682V14.4736C2.60211 14.654 2.74749 14.7999 2.92734 14.7999H3.28348L3.57945 17.7696C3.59603 17.9359 3.73589 18.0632 3.90307 18.0632H7.15545C7.32262 18.0632 7.46248 17.9359 7.47907 17.7696L7.77503 14.7999H8.13117C8.31102 14.7999 8.45641 14.654 8.45641 14.4736V13.1682C8.45641 12.9878 8.31102 12.842 8.13117 12.842H5.8545V12.0647L6.68483 12.481L6.97592 11.8972L6.56938 11.6932L6.78793 11.6385C7.13691 11.5507 7.45662 11.3699 7.71063 11.1147C7.96498 10.8598 8.14548 10.5394 8.23264 10.1889L8.44632 9.33132C8.4743 9.22005 8.44144 9.10257 8.36079 9.02165C8.28013 8.94071 8.16272 8.90742 8.05213 8.93582L7.19709 9.15021C6.9408 9.2145 6.7011 9.33002 6.49099 9.48765C6.49554 9.40932 6.50498 9.331 6.50498 9.25236ZM7.80593 14.1472H3.25259V13.4946H7.80593V14.1472ZM5.52925 7.70752C5.74229 8.19211 5.8545 8.7224 5.8545 9.25236C5.8545 9.78231 5.74229 10.3126 5.52925 10.7972C5.31622 10.3126 5.20402 9.78231 5.20402 9.25236C5.20402 8.7224 5.31622 8.19211 5.52925 7.70752ZM3.80777 10.6533C3.63702 10.482 3.5157 10.2663 3.45651 10.031L3.37454 9.70106L3.70304 9.78329C3.93819 9.84269 4.15284 9.9644 4.3236 10.1357C4.49434 10.307 4.61567 10.5228 4.67485 10.758L4.75681 11.088L4.42832 11.0057C4.1935 10.9463 3.97852 10.8246 3.80777 10.6533ZM7.35515 9.78329L7.68397 9.70106L7.60201 10.0306C7.54281 10.2666 7.4215 10.482 7.25074 10.6533C7.08 10.8246 6.86501 10.9463 6.63019 11.0057L6.3017 11.088L6.38367 10.7584C6.44285 10.5224 6.56417 10.307 6.73492 10.1357C6.90567 9.9644 7.12065 9.84269 7.35515 9.78329Z" fill="#222222"/>
<path d="M2.57685 4.98559H6.80497C7.70166 4.98559 8.43117 4.25364 8.43117 3.35395C8.43117 2.45426 7.70166 1.7223 6.80497 1.7223C6.66251 1.7223 6.51973 1.74221 6.38118 1.78105C6.13205 0.979909 5.39798 0.416992 4.52829 0.416992C3.45207 0.416992 2.57685 1.29515 2.57685 2.37496C1.85937 2.37496 1.27588 2.96039 1.27588 3.68028C1.27588 4.40016 1.85937 4.98559 2.57685 4.98559Z" fill="#222222"/>
</g>
<defs>
<clipPath id="clip0_2160_2028">
<rect width="20" height="20" fill="white"/>
</clipPath>
</defs>
</svg>
