<svg width="24" height="24" viewBox="0 0 24 24" fill="none" xmlns="http://www.w3.org/2000/svg">
<path d="M18 17C16.9391 17 15.9217 16.5786 15.1716 15.8284C14.4214 15.0783 14 14.0609 14 13V6C14 4.93913 14.4214 3.92172 15.1716 3.17157C15.9217 2.42143 16.9391 2 18 2C19.0609 2 20.0783 2.42143 20.8284 3.17157C21.5786 3.92172 22 4.93913 22 6V13C22 14.0609 21.5786 15.0783 20.8284 15.8284C20.0783 16.5786 19.0609 17 18 17Z" fill="white"/>
<path d="M22.5999 7.8L21.3999 6.2L18.9999 8V6H16.9999V11L14.5999 9.2L13.3999 10.8L16.9999 13.5V16.87C17.6551 17.0452 18.3448 17.0452 18.9999 16.87V10.5L22.5999 7.8Z" fill="#F9C41F"/>
<path d="M13 18H1V21H13V18Z" fill="#F9C41F" fill-opacity="0.2"/>
<path d="M4 21H2V23H4V21Z" fill="#4E4E4E"/>
<path d="M12 21H10V23H12V21Z" fill="#4E4E4E"/>
<path d="M9 13V14H5V13H3V18H5V16H9V18H11V13H9Z" fill="#4E4E4E"/>
<path d="M18 1C16.6739 1 15.4021 1.52678 14.4645 2.46447C13.5268 3.40215 13 4.67392 13 6V13C12.9998 14.1527 13.3978 15.27 14.1267 16.1629C14.8556 17.0558 15.8706 17.6695 17 17.9V23H19V17.9C20.1294 17.6695 21.1444 17.0558 21.8733 16.1629C22.6022 15.27 23.0002 14.1527 23 13V6C23 5.34339 22.8707 4.69321 22.6194 4.08658C22.3681 3.47995 21.9998 2.92876 21.5355 2.46447C21.0712 2.00017 20.52 1.63188 19.9134 1.3806C19.3068 1.12933 18.6566 1 18 1ZM21 13C21 13.7956 20.6839 14.5587 20.1213 15.1213C19.5587 15.6839 18.7956 16 18 16C17.2044 16 16.4413 15.6839 15.8787 15.1213C15.3161 14.5587 15 13.7956 15 13V6C15 5.20435 15.3161 4.44129 15.8787 3.87868C16.4413 3.31607 17.2044 3 18 3C18.7956 3 19.5587 3.31607 20.1213 3.87868C20.6839 4.44129 21 5.20435 21 6V13Z" fill="#4E4E4E"/>
</svg>
