<svg width="18" height="18" viewBox="0 0 18 18" fill="none" xmlns="http://www.w3.org/2000/svg">
<g clip-path="url(#clip0_586_20094)">
<path d="M10.7305 10.0391C9.48982 10.0391 8.48047 11.0484 8.48047 12.2891C8.48047 12.9255 8.74656 13.5007 9.17278 13.9103C9.22331 13.9589 9.2761 14.0052 9.331 14.0489C9.33111 14.049 9.33121 14.049 9.33131 14.0491C9.35856 14.0709 9.38625 14.0919 9.4145 14.1124C9.41505 14.1127 9.4156 14.1131 9.41612 14.1135C9.44388 14.1336 9.4721 14.1531 9.50079 14.1719C9.50204 14.1727 9.50335 14.1735 9.5046 14.1744C9.5326 14.1926 9.56099 14.2104 9.58986 14.2274C9.59211 14.2287 9.59439 14.23 9.59664 14.2313C9.62465 14.2477 9.65293 14.2636 9.68169 14.2788C9.68508 14.2806 9.68858 14.2823 9.69197 14.2841C9.7197 14.2986 9.74767 14.3126 9.77605 14.326C9.78097 14.3283 9.78595 14.3304 9.79087 14.3327C9.81801 14.3453 9.84535 14.3574 9.87308 14.3689C9.87962 14.3716 9.88627 14.3741 9.89285 14.3768C9.91922 14.3874 9.9457 14.3978 9.97257 14.4074C9.98091 14.4104 9.98942 14.4131 9.9978 14.416C10.0232 14.4248 10.0487 14.4334 10.0745 14.4413C10.0848 14.4445 10.0954 14.4472 10.1058 14.4502C10.13 14.4572 10.1542 14.4642 10.1787 14.4704C10.1913 14.4736 10.2042 14.4763 10.2169 14.4793C10.2396 14.4846 10.2622 14.49 10.285 14.4947C10.3002 14.4977 10.3157 14.5001 10.331 14.5029C10.3518 14.5066 10.3726 14.5106 10.3936 14.5138C10.4118 14.5166 10.4302 14.5185 10.4486 14.5209C10.4671 14.5232 10.4855 14.5259 10.5041 14.5277C10.5267 14.53 10.5496 14.5314 10.5724 14.533C10.5871 14.534 10.6017 14.5355 10.6164 14.5363C10.6542 14.5382 10.6922 14.5391 10.7304 14.5391C10.7686 14.5391 10.8066 14.5381 10.8444 14.5363C10.8592 14.5355 10.8737 14.534 10.8884 14.533C10.9112 14.5314 10.9341 14.53 10.9567 14.5277C10.9753 14.5259 10.9937 14.5232 11.0122 14.5209C11.0305 14.5185 11.049 14.5166 11.0672 14.5138C11.0882 14.5106 11.109 14.5066 11.1298 14.5029C11.1451 14.5001 11.1606 14.4977 11.1758 14.4947C11.1986 14.49 11.2212 14.4846 11.2439 14.4793C11.2566 14.4763 11.2695 14.4736 11.2821 14.4704C11.3066 14.4642 11.3308 14.4572 11.355 14.4502C11.3654 14.4472 11.376 14.4445 11.3863 14.4413C11.4121 14.4334 11.4376 14.4248 11.463 14.416C11.4714 14.4131 11.4799 14.4104 11.4882 14.4074C11.5151 14.3978 11.5416 14.3874 11.568 14.3768C11.5745 14.3741 11.5812 14.3717 11.5877 14.3689C11.6154 14.3574 11.6428 14.3453 11.6699 14.3327C11.6748 14.3304 11.6798 14.3283 11.6847 14.326C11.7131 14.3126 11.7411 14.2986 11.7688 14.2841C11.7723 14.2823 11.7757 14.2806 11.7791 14.2788C11.8079 14.2636 11.8362 14.2477 11.8642 14.2313C11.8664 14.23 11.8687 14.2287 11.8709 14.2274C11.8998 14.2103 11.9282 14.1926 11.9562 14.1744C11.9575 14.1735 11.9588 14.1727 11.96 14.1719C11.9887 14.1531 12.0169 14.1336 12.0447 14.1135C12.0452 14.1132 12.0457 14.1128 12.0463 14.1124C12.0745 14.0919 12.1022 14.0709 12.1295 14.0491C12.1296 14.0491 12.1297 14.049 12.1298 14.0489C12.1847 14.0052 12.2374 13.9589 12.288 13.9103C12.7142 13.5007 12.9803 12.9255 12.9803 12.2891C12.9805 11.0484 11.9711 10.0391 10.7305 10.0391Z" fill="#FF8800"/>
<path d="M14.5376 0H3.46064C3.17388 0 2.94141 0.232477 2.94141 0.519231V15.2308C2.94141 15.5175 3.17388 15.75 3.46064 15.75H8.13371V14.3098C7.68444 13.7369 7.44141 13.0344 7.44141 12.2885C7.44141 10.4752 8.91661 9 10.7299 9C12.5431 9 14.0183 10.4752 14.0183 12.2885C14.0183 13.0344 13.7753 13.7369 13.326 14.3098V15.75H14.5376C14.8243 15.75 15.0568 15.5175 15.0568 15.2308V0.519231C15.0568 0.232477 14.8243 0 14.5376 0ZM5.53756 2.25H7.61448C7.90124 2.25 8.13371 2.48248 8.13371 2.76923C8.13371 3.05598 7.90124 3.28846 7.61448 3.28846H5.53756C5.25081 3.28846 5.01833 3.05598 5.01833 2.76923C5.01833 2.48248 5.25081 2.25 5.53756 2.25ZM12.4606 8.48077H10.3837C10.097 8.48077 9.86448 8.24829 9.86448 7.96154C9.86448 7.67479 10.097 7.44231 10.3837 7.44231H12.4606C12.7474 7.44231 12.9799 7.67479 12.9799 7.96154C12.9799 8.24829 12.7474 8.48077 12.4606 8.48077ZM12.4606 6.75H5.53756C5.25081 6.75 5.01833 6.51752 5.01833 6.23077C5.01833 5.94402 5.25081 5.71154 5.53756 5.71154H12.4606C12.7474 5.71154 12.9799 5.94402 12.9799 6.23077C12.9799 6.51752 12.7474 6.75 12.4606 6.75ZM12.4606 5.01923H5.53756C5.25081 5.01923 5.01833 4.78675 5.01833 4.5C5.01833 4.21325 5.25081 3.98077 5.53756 3.98077H12.4606C12.7474 3.98077 12.9799 4.21325 12.9799 4.5C12.9799 4.78675 12.7474 5.01923 12.4606 5.01923Z" fill="#FF8800"/>
<path d="M9.17188 15.1836V17.4804C9.17188 17.6719 9.27728 17.8479 9.4461 17.9383C9.61492 18.0286 9.81981 18.0188 9.97911 17.9125L10.7296 17.4121L11.48 17.9124C11.5669 17.9704 11.6673 17.9997 11.7681 17.9997C11.8521 17.9997 11.9363 17.9793 12.013 17.9383C12.1819 17.8479 12.2873 17.672 12.2873 17.4804V15.1836C11.8233 15.4342 11.2928 15.5766 10.7296 15.5766C10.1663 15.5766 9.63579 15.4342 9.17188 15.1836Z" fill="#FF8800"/>
</g>
<defs>
<clipPath id="clip0_586_20094">
<rect width="18" height="18" fill="white"/>
</clipPath>
</defs>
</svg>
