<svg width="20" height="20" viewBox="0 0 20 20" fill="none" xmlns="http://www.w3.org/2000/svg">
<path d="M17.9214 0H6.01073C5.75935 0 5.55567 0.203686 5.55567 0.455063V6.34011C5.49023 6.32965 5.42388 6.32246 5.35617 6.32246C5.07812 6.32246 4.80445 6.4172 4.58566 6.58922L3.53601 7.41415C3.47794 7.40833 3.41933 7.40487 3.36008 7.40487C2.97355 7.40487 2.59285 7.53666 2.28841 7.77602C1.9239 8.06244 1.69273 8.47381 1.63758 8.93415C1.58243 9.39449 1.70984 9.84883 1.99626 10.2133C2.32754 10.6348 2.8252 10.8765 3.36181 10.8765C3.74843 10.8765 4.12914 10.7448 4.43357 10.5054C4.80163 10.2161 5.01997 9.80642 5.07876 9.37547L5.55567 9.00068V19.5449C5.55567 19.7963 5.75935 20 6.01073 20H17.9214C18.1728 20 18.3765 19.7963 18.3765 19.5449V0.455063C18.3765 0.203686 18.1728 0 17.9214 0ZM5.55567 7.84291L4.90702 8.35277C4.85669 8.25402 4.79662 8.15854 4.72563 8.06817C4.65437 7.97752 4.57501 7.8957 4.48964 7.82234L5.14811 7.30485C5.22402 7.24523 5.3032 7.23267 5.35617 7.23267C5.42952 7.23267 5.49842 7.25697 5.55567 7.29911V7.84291ZM17.2146 14.8785H16.3044V13.2403H17.2146V14.8785ZM17.2146 12.3302H16.3044V7.6699H17.2146V12.3302ZM17.2146 6.75977H16.3044V5.12155H17.2146V6.75977ZM17.2146 4.21142H16.3044V2.13734H7.62793V17.8627H16.3044V15.7886H17.2146V18.3177C17.2146 18.5691 17.0109 18.7728 16.7595 18.7728H7.17287C6.92149 18.7728 6.71781 18.5691 6.71781 18.3177V1.68228C6.71781 1.4309 6.92149 1.22721 7.17287 1.22721H16.7595C17.0109 1.22721 17.2146 1.4309 17.2146 1.68228V4.21142ZM9.90643 12.7262L9.62274 12.198C9.5645 12.0896 9.65587 11.9616 9.77728 11.9813L10.369 12.0774C10.4173 12.0852 10.4662 12.0688 10.5 12.0335L10.9147 11.6005C10.9998 11.5116 11.1498 11.5589 11.1686 11.6805L11.2601 12.2729C11.2675 12.3213 11.2983 12.3628 11.3422 12.384L11.8822 12.6445C11.993 12.6979 11.9944 12.8552 11.8846 12.9107L11.3493 13.1808C11.3057 13.2028 11.2757 13.2449 11.2692 13.2933L11.1882 13.8873C11.1716 14.0092 11.0224 14.0592 10.9358 13.9719L10.5135 13.5463C10.4791 13.5116 10.4298 13.4961 10.3817 13.5048L9.79175 13.6115C9.67071 13.6333 9.57705 13.5069 9.63339 13.3975L9.90761 12.8643C9.93 12.8208 9.92955 12.7692 9.90643 12.7262ZM9.84891 9.19326C9.59753 9.19326 9.39385 8.98958 9.39385 8.7382C9.39385 8.48683 9.59753 8.28314 9.84891 8.28314H14.0834C14.3347 8.28314 14.5384 8.48683 14.5384 8.7382C14.5384 8.98958 14.3347 9.19326 14.0834 9.19326H9.84891ZM14.0834 7.23258H9.84891C9.59753 7.23258 9.39385 7.0289 9.39385 6.77752C9.39385 6.52614 9.59753 6.32246 9.84891 6.32246H14.0834C14.3347 6.32246 14.5384 6.52614 14.5384 6.77752C14.5384 7.0289 14.3347 7.23258 14.0834 7.23258ZM14.0834 5.2719H9.84891C9.59753 5.2719 9.39385 5.06821 9.39385 4.81684C9.39385 4.56546 9.59753 4.36177 9.84891 4.36177H14.0834C14.3347 4.36177 14.5384 4.56546 14.5384 4.81684C14.5384 5.06821 14.3347 5.2719 14.0834 5.2719Z" fill="#222222"/>
</svg>
