<svg width="20" height="20" viewBox="0 0 20 20" fill="none" xmlns="http://www.w3.org/2000/svg">
<path d="M10.3516 19.4136C10.3516 19.7372 10.6139 19.9996 10.9375 19.9996H11.5234V16.3652C11.1409 16.433 10.749 16.4857 10.3516 16.5245V19.4136Z" fill="#222222"/>
<path d="M6.05469 19.9996H6.64062C6.96422 19.9996 7.22656 19.7372 7.22656 19.4136V16.5245C6.82914 16.4857 6.43719 16.433 6.05469 16.3652V19.9996Z" fill="#222222"/>
<path d="M11.1977 8.3234C10.7437 8.7368 10.1413 8.98438 9.48754 8.98438H5.66406C4.59918 8.98438 3.63777 9.43539 2.96039 10.1563H2.56469C1.81813 10.1563 1.18988 9.5684 1.17223 8.82203C1.15406 8.05316 1.77426 7.42188 2.53906 7.42188C3.92848 7.42188 5.06082 6.30008 5.07793 4.91465C5.08195 4.58894 4.83449 4.30617 4.50891 4.29711C4.1777 4.28789 3.90625 4.55363 3.90625 4.88281C3.90625 5.63668 3.29293 6.25 2.53906 6.25C1.13902 6.25 0 7.38902 0 8.78906C0 10.0818 0.971406 11.1513 2.2225 11.3077C2.04895 11.7366 1.95312 12.2049 1.95312 12.6953V19.4141C1.95312 19.7377 2.21547 20 2.53906 20H4.88281V15.648C4.88281 15.27 5.23488 14.9925 5.60305 15.0778C6.59395 15.3075 7.68371 15.4297 8.78906 15.4297C9.89441 15.4297 10.9842 15.3075 11.9751 15.0778C12.3432 14.9924 12.6953 15.27 12.6953 15.6479V20H15.0391C15.3627 20 15.625 19.7377 15.625 19.4141V14.9344C15.625 13.6931 15.7063 12.4514 15.8663 11.2201L12.6911 9.4057C12.1498 9.09637 11.6502 8.73363 11.1977 8.3234Z" fill="#222222"/>
<path d="M19.414 5.85934H17.8631L17.8179 5.63332C17.6178 4.63258 16.7318 3.90621 15.7112 3.90621H15.625V2.1484C15.625 1.95008 15.5246 1.76516 15.3583 1.65711C15.192 1.54906 14.9823 1.53246 14.8011 1.61297C13.522 2.18148 12.6131 3.34379 12.3699 4.72215L11.988 6.88652C11.9601 7.04434 11.9179 7.19633 11.8633 7.34168C12.2849 7.74219 12.7567 8.09344 13.2725 8.3882L16.055 9.9782C16.1245 9.58023 16.2021 9.18367 16.2882 8.78902H17.6562C18.9486 8.78902 20 7.73762 20 6.44527C20 6.12168 19.7376 5.85934 19.414 5.85934Z" fill="#222222"/>
<path d="M15.9201 11.2512C16.0118 11.3036 16.1117 11.3285 16.2103 11.3285C16.4137 11.3285 16.6114 11.2224 16.7195 11.0332C16.8801 10.7522 16.7825 10.3943 16.5015 10.2337L16.0549 9.97852C15.9829 10.391 15.9202 10.8051 15.8662 11.2204L15.9201 11.2512Z" fill="#222222"/>
<path d="M11.8633 7.34172C11.1766 6.68945 10.623 5.90633 10.23 5.02199C8.8741 1.97125 5.84078 0 2.5023 0H0.585938C0.262344 0 0 0.262344 0 0.585938C0 0.909531 0.262344 1.17188 0.585938 1.17188H2.5023C5.37816 1.17188 7.99109 2.86996 9.1591 5.49793C9.64231 6.58512 10.3343 7.54066 11.1977 8.3234C11.4896 8.05758 11.72 7.72309 11.8633 7.34172Z" fill="#222222"/>
</svg>
