<svg width="20" height="20" viewBox="0 0 20 20" fill="none" xmlns="http://www.w3.org/2000/svg">
<path d="M15.6088 0.993438C15.5048 0.952891 13.0256 0 10.0001 0C6.97464 0 4.49539 0.952891 4.39132 0.993438C4.24132 1.05191 4.14258 1.19641 4.14258 1.35738V2.69997C4.14258 2.9157 4.31746 3.09059 4.5332 3.09059H4.73156V4.14371H4.71964C4.5039 4.14371 4.32902 4.31859 4.32902 4.53433V19.6093C4.32902 19.8251 4.5039 20 4.71964 20H15.2806C15.4963 20 15.6711 19.8251 15.6711 19.6093V4.53433C15.6711 4.31859 15.4963 4.14371 15.2806 4.14371H15.2687V3.09059H15.467C15.6828 3.09059 15.8577 2.9157 15.8577 2.69997V1.35738C15.8576 1.19641 15.7588 1.05191 15.6088 0.993438ZM5.11023 19.2188V4.92497H5.12214H14.878H14.8899V19.2188H5.11023ZM5.51281 4.14371V3.09059H14.4873V4.14371H5.51281ZM15.0763 2.3093H14.878H5.12218H4.92382V1.63273C5.61367 1.39851 7.6546 0.78125 10.0001 0.78125C12.3403 0.78125 14.3856 1.39891 15.0763 1.63293V2.3093Z" fill="#222222"/>
<path d="M13.7172 5.70605H6.28125C6.0655 5.70605 5.89062 5.88093 5.89062 6.09668V18.0467C5.89062 18.2625 6.0655 18.4374 6.28125 18.4374H13.7172C13.9329 18.4374 14.1078 18.2625 14.1078 18.0467V6.09668C14.1078 5.88093 13.9329 5.70605 13.7172 5.70605ZM8.22187 17.6561H6.67187V14.4676H8.22187V17.6561ZM8.22187 13.6863H6.67187V10.4571H8.22187V13.6863ZM8.6125 8.64239C8.39676 8.64239 8.22187 8.81727 8.22187 9.03301V9.67585H6.67187V6.48731H10.9953V9.67585H9.00313V9.03301C9.00313 8.81727 8.82824 8.64239 8.6125 8.64239ZM10.9953 10.4571V13.6863H9.00313V10.4571H10.9953ZM13.3266 17.6561H9.00313V14.4676H10.9953V15.1104C10.9953 15.3261 11.1702 15.501 11.3859 15.501C11.6017 15.501 11.7766 15.3261 11.7766 15.1104V14.4676H13.3266V17.6561ZM13.3266 13.6863H11.7766V10.4571H13.3266V13.6863ZM13.3266 9.67585H11.7766V6.48731H13.3266V9.67585Z" fill="#222222"/>
<path d="M8.99649 7.36211C8.99141 7.33711 8.98359 7.3125 8.97383 7.28906C8.96407 7.26524 8.95234 7.24258 8.93789 7.22148C8.92383 7.2 8.90742 7.18008 8.88946 7.16211C8.87149 7.14414 8.85157 7.12773 8.83008 7.11367C8.80899 7.09961 8.78633 7.0875 8.76289 7.07773C8.73907 7.06797 8.71446 7.06016 8.68946 7.05547C8.63907 7.04531 8.5875 7.04531 8.53711 7.05547C8.51211 7.06016 8.4875 7.06797 8.46407 7.07773C8.44023 7.0875 8.41758 7.09961 8.39649 7.11367C8.375 7.12773 8.35508 7.14414 8.33711 7.16211C8.31914 7.18008 8.30273 7.2 8.28867 7.22148C8.27461 7.24258 8.2625 7.26524 8.25273 7.28906C8.24297 7.3125 8.23516 7.33711 8.23047 7.36211C8.22539 7.38711 8.22266 7.41289 8.22266 7.43828C8.22266 7.54101 8.26446 7.64179 8.33711 7.71445C8.35508 7.73242 8.375 7.74882 8.39649 7.76289C8.41758 7.77696 8.44023 7.78906 8.46407 7.79882C8.4875 7.80859 8.51211 7.8164 8.53711 7.82109C8.56211 7.82617 8.58789 7.8289 8.61328 7.8289C8.63867 7.8289 8.66446 7.82617 8.68946 7.82109C8.71446 7.8164 8.73907 7.80859 8.76289 7.79882C8.78633 7.78906 8.80899 7.77696 8.83008 7.76289C8.85157 7.74882 8.87149 7.73242 8.88946 7.71445C8.96211 7.64179 9.00391 7.54101 9.00391 7.43828C9.00391 7.41289 9.00157 7.38711 8.99649 7.36211Z" fill="#222222"/>
<path d="M11.7699 16.6292C11.7649 16.6047 11.757 16.58 11.7472 16.5562C11.7376 16.5328 11.7258 16.5101 11.7113 16.489C11.6972 16.4676 11.6809 16.4476 11.6629 16.4297C11.6449 16.4117 11.625 16.3952 11.6036 16.3808C11.5825 16.3668 11.5598 16.3547 11.5363 16.3452C11.5125 16.3355 11.4879 16.3277 11.4629 16.323C11.4129 16.3129 11.3609 16.3129 11.3106 16.323C11.2856 16.3277 11.2609 16.3355 11.2374 16.3452C11.2137 16.3547 11.191 16.3668 11.1699 16.3808C11.1485 16.3952 11.1286 16.4117 11.1105 16.4297C11.0926 16.4476 11.0762 16.4676 11.0621 16.489C11.048 16.5101 11.0359 16.5328 11.0262 16.5562C11.0164 16.58 11.009 16.6047 11.0039 16.6292C10.9988 16.6547 10.9961 16.6805 10.9961 16.7058C10.9961 16.7312 10.9988 16.757 11.0039 16.782C11.009 16.807 11.0164 16.8316 11.0262 16.855C11.0359 16.8789 11.048 16.9016 11.0621 16.9226C11.0762 16.9441 11.0926 16.964 11.1105 16.982C11.1286 17 11.1485 17.0163 11.1699 17.0305C11.191 17.0445 11.2137 17.0566 11.2374 17.0663C11.2609 17.0761 11.2856 17.0836 11.3106 17.0887C11.3356 17.0937 11.3613 17.0965 11.3867 17.0965C11.4121 17.0965 11.4379 17.0937 11.4629 17.0887C11.4879 17.0836 11.5125 17.0761 11.5363 17.0663C11.5598 17.0566 11.5825 17.0445 11.6036 17.0305C11.625 17.0163 11.6449 17 11.6629 16.982C11.6809 16.964 11.6972 16.9441 11.7113 16.9226C11.7258 16.9016 11.7376 16.8789 11.7472 16.855C11.757 16.8316 11.7649 16.807 11.7699 16.782C11.775 16.757 11.7773 16.7312 11.7773 16.7058C11.7773 16.6805 11.775 16.6547 11.7699 16.6292Z" fill="#222222"/>
</svg>
