<svg width="15" height="16" viewBox="0 0 15 16" fill="none" xmlns="http://www.w3.org/2000/svg">
<path d="M12.1641 9.78451C11.6414 9.26845 10.9888 9.26845 10.4694 9.78451C10.0732 10.1774 9.67698 10.5703 9.28744 10.9698C9.1809 11.0797 9.091 11.103 8.96115 11.0297C8.70478 10.8899 8.43177 10.7767 8.18539 10.6235C7.03673 9.90104 6.07452 8.97213 5.22218 7.92668C4.79934 7.40729 4.42311 6.85127 4.16009 6.22533C4.10682 6.09882 4.11681 6.01558 4.22002 5.91237C4.61622 5.52948 5.00244 5.13661 5.39198 4.74373C5.93468 4.1977 5.93468 3.55845 5.38865 3.00909C5.07902 2.69612 4.76938 2.38981 4.45974 2.07685C4.14011 1.75722 3.82381 1.43426 3.50086 1.11797C2.97813 0.608562 2.32556 0.608562 1.80617 1.1213C1.40663 1.51417 1.02375 1.91703 0.617555 2.30325C0.241327 2.6595 0.0515486 3.09566 0.0115952 3.60506C-0.0516643 4.43409 0.151432 5.21651 0.437765 5.97896C1.02375 7.55711 1.91604 8.95881 2.99811 10.244C4.45974 11.9819 6.20437 13.357 8.24532 14.3492C9.16425 14.7953 10.1165 15.1383 11.1519 15.1949C11.8644 15.2348 12.4837 15.055 12.9798 14.499C13.3194 14.1194 13.7023 13.7732 14.0619 13.4103C14.5946 12.8709 14.5979 12.2183 14.0685 11.6856C13.4359 11.0497 12.8 10.4171 12.1641 9.78451Z" fill="#7A7A7A"/>
</svg>
