<svg width="19" height="19" viewBox="0 0 19 19" fill="none" xmlns="http://www.w3.org/2000/svg">
<path d="M5.20703 13.373C8.0293 16.1953 11.457 18.373 14.2598 18.373C15.5195 18.373 16.623 17.9336 17.5117 16.957C18.0293 16.3809 18.3516 15.707 18.3516 15.043C18.3516 14.5547 18.166 14.0859 17.707 13.7539L14.709 11.625C14.25 11.3125 13.8691 11.1562 13.5176 11.1562C13.0781 11.1562 12.6777 11.4102 12.2285 11.8496L11.5352 12.5332C11.4277 12.6406 11.291 12.6895 11.1641 12.6895C11.0176 12.6895 10.8711 12.6309 10.7734 12.582C10.168 12.2598 9.13281 11.3711 8.16602 10.4141C7.20898 9.45703 6.32031 8.42188 6.00781 7.81641C5.95898 7.70898 5.90039 7.57227 5.90039 7.42578C5.90039 7.29883 5.93945 7.17188 6.04688 7.06445L6.74023 6.35156C7.16992 5.90234 7.43359 5.51172 7.43359 5.0625C7.43359 4.71094 7.26758 4.33008 6.94531 3.87109L4.8457 0.912109C4.50391 0.443359 4.02539 0.238281 3.49805 0.238281C2.85352 0.238281 2.18945 0.53125 1.61328 1.08789C0.666016 1.99609 0.246094 3.11914 0.246094 4.35938C0.246094 7.16211 2.38477 10.5605 5.20703 13.373Z" fill="black"/>
</svg>
