<svg width="18" height="18" viewBox="0 0 18 18" fill="none" xmlns="http://www.w3.org/2000/svg">
<circle cx="9" cy="9" r="6" fill="#F9C41F"/>
<path d="M14.6265 11.0719C14.0302 10.4832 13.2857 10.4832 12.6932 11.0719C12.2412 11.5201 11.7893 11.9683 11.3449 12.4241C11.2233 12.5494 11.1208 12.576 10.9726 12.4924C10.6802 12.3329 10.3687 12.2038 10.0877 12.0291C8.77732 11.2049 7.67966 10.1452 6.70733 8.95257C6.22496 8.36006 5.79577 7.72577 5.49572 7.01171C5.43495 6.86739 5.44634 6.77243 5.56409 6.65469C6.01607 6.2179 6.45665 5.76972 6.90103 5.32154C7.52013 4.69865 7.52013 3.9694 6.89724 3.34271C6.54401 2.98568 6.19078 2.63625 5.83755 2.27923C5.47293 1.91461 5.11211 1.54619 4.74369 1.18536C4.14738 0.604247 3.40294 0.604247 2.81043 1.18916C2.35465 1.63734 1.91786 2.09692 1.45449 2.5375C1.0253 2.9439 0.808805 3.44146 0.763228 4.02258C0.691063 4.96831 0.92275 5.86088 1.24939 6.73065C1.91786 8.53097 2.93577 10.13 4.17017 11.5961C5.83755 13.5787 7.82778 15.1473 10.156 16.2792C11.2043 16.7881 12.2906 17.1793 13.4718 17.2439C14.2846 17.2895 14.9911 17.0844 15.557 16.4501C15.9444 16.0171 16.3812 15.6221 16.7914 15.2081C17.3991 14.5928 17.4029 13.8484 16.799 13.2407C16.0774 12.5152 15.3519 11.7936 14.6265 11.0719Z" fill="#7A7A7A"/>
</svg>
