<svg width="20" height="20" viewBox="0 0 20 20" fill="none" xmlns="http://www.w3.org/2000/svg">
<g clip-path="url(#clip0_2160_3833)">
<path d="M14.9468 4.00391H4.26123C3.93764 4.00391 3.67529 4.26624 3.67529 4.58984V5.28886H15.5327V4.58984C15.5327 4.26624 15.2704 4.00391 14.9468 4.00391Z" fill="#4E4E4E"/>
<path d="M16.3819 1.83176L2.67465 0.00526771C2.35278 -0.0378572 2.057 0.188549 2.01406 0.510502C1.97118 0.832456 2.19739 1.12823 2.51934 1.17112L16.2266 2.99758C16.9207 3.09008 17.4441 3.68789 17.4441 4.38812V6.46496H2.81985C2.17262 6.46496 1.64798 6.98964 1.64798 7.63683V18.9198C1.48462 19.0267 1.37751 19.2124 1.38145 19.4231C1.38751 19.7463 1.6631 20 1.98633 20H4.05079C4.31919 20 4.56489 19.831 4.64364 19.5744C4.67802 19.4624 4.6736 19.3566 4.64762 19.2596H14.5621C14.5361 19.3566 14.5316 19.4624 14.5661 19.5744C14.6447 19.831 14.8904 20 15.1588 20H17.2233C17.5466 20 17.8222 19.7463 17.8283 19.4231C17.8322 19.2124 17.7251 19.0267 17.5617 18.9198V7.75781C17.6677 7.89933 17.8355 7.99191 18.0254 7.99406C18.3526 7.99773 18.6203 7.71604 18.6203 7.38886V4.38812C18.6203 3.09547 17.6633 2.00246 16.3819 1.83176ZM4.33399 15.188H3.6761C3.3513 15.188 3.08802 14.9247 3.08802 14.5999C3.08802 14.2751 3.35133 14.0118 3.6761 14.0118H4.33399C4.6588 14.0118 4.92208 14.2751 4.92208 14.5999C4.92208 14.9247 4.6588 15.188 4.33399 15.188ZM6.81153 15.188H6.15364C5.82883 15.188 5.56555 14.9247 5.56555 14.5999C5.56555 14.2751 5.82888 14.0118 6.15364 14.0118H6.81153C7.13633 14.0118 7.39962 14.2751 7.39962 14.5999C7.39962 14.9247 7.13633 15.188 6.81153 15.188ZM16.1216 12.0192C16.1216 12.344 15.8583 12.6072 15.5335 12.6072H3.6761C3.3513 12.6072 3.08802 12.3439 3.08802 12.0192V8.9516C3.08802 8.62679 3.35133 8.36351 3.6761 8.36351H15.5335C15.8583 8.36351 16.1216 8.62683 16.1216 8.9516V12.0192Z" fill="#4E4E4E"/>
<path d="M4.2644 9.54004V11.4315H5.56639C5.56632 11.4271 5.56577 11.4228 5.56577 11.4185C5.56577 11.0936 5.82909 10.8304 6.15386 10.8304H13.0562C13.3811 10.8304 13.6443 11.0937 13.6443 11.4185C13.6443 11.4228 13.6438 11.4271 13.6436 11.4315H14.9456V9.54004H4.2644Z" fill="#4E4E4E"/>
</g>
<defs>
<clipPath id="clip0_2160_3833">
<rect width="20" height="20" fill="white"/>
</clipPath>
</defs>
</svg>
