<svg width="26" height="26" viewBox="0 0 26 26" fill="none" xmlns="http://www.w3.org/2000/svg">
<g clip-path="url(#clip0_706_41282)">
<path d="M21.7644 23.9891L2.04128 21.8032C1.09299 21.6981 0.409496 20.8442 0.514566 19.8959L2.32738 3.53933C2.4325 2.59105 3.28642 1.9075 4.23466 2.01262L23.9578 4.19856C24.9061 4.30368 25.5896 5.1576 25.4845 6.10584L23.6717 22.4624C23.5666 23.4107 22.7127 24.0943 21.7644 23.9891Z" fill="url(#paint0_linear_706_41282)"/>
<path d="M25.485 6.10466L24.7703 12.5554L23.1816 4.11133L23.9586 4.19738C24.9066 4.3023 25.59 5.15612 25.485 6.10466Z" fill="url(#paint1_linear_706_41282)"/>
<path d="M24.5916 20.9502L5.08974 24.619C4.15211 24.7954 3.24899 24.1783 3.0726 23.2406L0.0300922 7.06755C-0.1463 6.12992 0.470818 5.2268 1.40845 5.05041L20.9103 1.38165C21.8479 1.20526 22.751 1.82238 22.9274 2.76001L25.9699 18.9331C26.1463 19.8708 25.5292 20.7739 24.5916 20.9502Z" fill="url(#paint2_linear_706_41282)"/>
<path d="M23.3438 4.97266V21.1844L24.5915 20.9496C25.5292 20.7732 26.1463 19.8701 25.9699 18.9325L23.3438 4.97266Z" fill="url(#paint3_linear_706_41282)"/>
<path d="M2.98047 22.7461L3.0733 23.2396C3.2497 24.1772 4.15281 24.7943 5.09045 24.6179L15.0405 22.7461H2.98047Z" fill="url(#paint4_linear_706_41282)"/>
<path d="M21.6163 22.8474H1.77244C0.818345 22.8474 0.0449219 22.0739 0.0449219 21.1198V4.66307C0.0449219 3.70897 0.818345 2.93555 1.77244 2.93555H21.6163C22.5704 2.93555 23.3438 3.70897 23.3438 4.66307V21.1198C23.3438 22.0739 22.5704 22.8474 21.6163 22.8474Z" fill="url(#paint5_linear_706_41282)"/>
<path d="M19.9977 21.2239H3.38921C2.59071 21.2239 1.94336 20.5766 1.94336 19.7781V6.00445C1.94336 5.20594 2.59071 4.55859 3.38921 4.55859H19.9977C20.7962 4.55859 21.4436 5.20594 21.4436 6.00445V19.7781C21.4436 20.5766 20.7962 21.2239 19.9977 21.2239Z" fill="url(#paint6_linear_706_41282)"/>
<path d="M12.85 21.2248H3.38967C2.59101 21.2248 1.94336 20.5777 1.94336 19.7791V17.5211L4.34362 14.6036C5.13575 13.6399 6.61021 13.6399 7.4029 14.6036L8.89739 16.4206L12.85 21.2248Z" fill="url(#paint7_linear_706_41282)"/>
<path d="M21.4445 16.1477V19.7784C21.4445 20.5771 20.7969 21.2242 19.9982 21.2242H4.94531L8.89793 16.4199L13.7536 10.5173C14.5457 9.55414 16.0208 9.55414 16.8129 10.5173L21.4445 16.1477Z" fill="url(#paint8_linear_706_41282)"/>
<path d="M6.99569 10.1008C8.12809 10.1008 9.04607 9.18277 9.04607 8.05038C9.04607 6.91799 8.12809 6 6.99569 6C5.8633 6 4.94531 6.91799 4.94531 8.05038C4.94531 9.18277 5.8633 10.1008 6.99569 10.1008Z" fill="url(#paint9_linear_706_41282)"/>
</g>
<defs>
<linearGradient id="paint0_linear_706_41282" x1="6.64296" y1="5.05671" x2="21.3062" y2="23.3692" gradientUnits="userSpaceOnUse">
<stop stop-color="#FFA936"/>
<stop offset="0.4112" stop-color="#FF8548"/>
<stop offset="0.7781" stop-color="#FF6C54"/>
<stop offset="1" stop-color="#FF6359"/>
</linearGradient>
<linearGradient id="paint1_linear_706_41282" x1="25.0053" y1="8.10631" x2="23.7789" y2="8.37686" gradientUnits="userSpaceOnUse">
<stop stop-color="#F82814" stop-opacity="0"/>
<stop offset="1" stop-color="#C0272D"/>
</linearGradient>
<linearGradient id="paint2_linear_706_41282" x1="4.60021" y1="7.26111" x2="23.9743" y2="20.4978" gradientUnits="userSpaceOnUse">
<stop stop-color="#CDEC7A"/>
<stop offset="0.2157" stop-color="#B0E995"/>
<stop offset="0.5613" stop-color="#87E4BB"/>
<stop offset="0.8347" stop-color="#6EE1D2"/>
<stop offset="1" stop-color="#65E0DB"/>
</linearGradient>
<linearGradient id="paint3_linear_706_41282" x1="25.0662" y1="13.0785" x2="22.9737" y2="13.0785" gradientUnits="userSpaceOnUse">
<stop stop-color="#CDEC7A" stop-opacity="0"/>
<stop offset="0.2354" stop-color="#9AD57D" stop-opacity="0.235"/>
<stop offset="0.6035" stop-color="#51B482" stop-opacity="0.604"/>
<stop offset="0.8679" stop-color="#239F85" stop-opacity="0.868"/>
<stop offset="1" stop-color="#119786"/>
</linearGradient>
<linearGradient id="paint4_linear_706_41282" x1="9.01048" y1="23.8029" x2="9.01048" y2="22.5633" gradientUnits="userSpaceOnUse">
<stop stop-color="#CDEC7A" stop-opacity="0"/>
<stop offset="0.2354" stop-color="#9AD57D" stop-opacity="0.235"/>
<stop offset="0.6035" stop-color="#51B482" stop-opacity="0.604"/>
<stop offset="0.8679" stop-color="#239F85" stop-opacity="0.868"/>
<stop offset="1" stop-color="#119786"/>
</linearGradient>
<linearGradient id="paint5_linear_706_41282" x1="4.49984" y1="5.6969" x2="21.0872" y2="22.2843" gradientUnits="userSpaceOnUse">
<stop stop-color="#F8F6FB"/>
<stop offset="1" stop-color="#EFDCFB"/>
</linearGradient>
<linearGradient id="paint6_linear_706_41282" x1="5.74813" y1="5.15639" x2="21.9265" y2="26.2045" gradientUnits="userSpaceOnUse">
<stop stop-color="#18CEFB"/>
<stop offset="0.2969" stop-color="#2BB9F9"/>
<stop offset="0.7345" stop-color="#42A0F7"/>
<stop offset="1" stop-color="#4A97F6"/>
</linearGradient>
<linearGradient id="paint7_linear_706_41282" x1="3.85288" y1="16.1372" x2="10.9406" y2="25.3583" gradientUnits="userSpaceOnUse">
<stop stop-color="#CDEC7A"/>
<stop offset="0.2154" stop-color="#B0E995" stop-opacity="0.784"/>
<stop offset="0.5604" stop-color="#87E4BB" stop-opacity="0.439"/>
<stop offset="0.8334" stop-color="#6EE1D2" stop-opacity="0.165"/>
<stop offset="0.9985" stop-color="#65E0DB" stop-opacity="0"/>
</linearGradient>
<linearGradient id="paint8_linear_706_41282" x1="10.136" y1="14.7062" x2="18.6842" y2="25.8275" gradientUnits="userSpaceOnUse">
<stop stop-color="#CDEC7A"/>
<stop offset="0.2157" stop-color="#B0E995"/>
<stop offset="0.5613" stop-color="#87E4BB"/>
<stop offset="0.8347" stop-color="#6EE1D2"/>
<stop offset="1" stop-color="#65E0DB"/>
</linearGradient>
<linearGradient id="paint9_linear_706_41282" x1="5.97695" y1="6.72504" x2="8.74906" y2="10.3316" gradientUnits="userSpaceOnUse">
<stop stop-color="#FFD945"/>
<stop offset="0.3043" stop-color="#FFCD3E"/>
<stop offset="0.8558" stop-color="#FFAD2B"/>
<stop offset="1" stop-color="#FFA325"/>
</linearGradient>
<clipPath id="clip0_706_41282">
<rect width="26" height="26" fill="white"/>
</clipPath>
</defs>
</svg>
