<svg width="20" height="20" viewBox="0 0 20 20" fill="none" xmlns="http://www.w3.org/2000/svg">
<path d="M10 20C15.4706 20 20 15.4608 20 10C20 4.52941 15.4608 0 9.9902 0C4.52941 0 0 4.52941 0 10C0 15.4608 4.53922 20 10 20ZM5.52941 10.0098C5.52941 9.5 5.89216 9.14706 6.40196 9.14706H9.14706V6.40196C9.14706 5.89216 9.4902 5.52941 9.9902 5.52941C10.5 5.52941 10.8529 5.88235 10.8529 6.40196V9.14706H13.6078C14.1078 9.14706 14.4706 9.5 14.4706 10.0098C14.4706 10.5098 14.1078 10.8431 13.6078 10.8431H10.8529V13.6078C10.8529 14.1078 10.5 14.4608 9.9902 14.4608C9.4902 14.4608 9.14706 14.1078 9.14706 13.6078V10.8431H6.40196C5.89216 10.8431 5.52941 10.5098 5.52941 10.0098Z" fill="#4E4E4E"/>
</svg>
