<svg width="18" height="18" viewBox="0 0 18 18" fill="none" xmlns="http://www.w3.org/2000/svg">
<path d="M4.89669 3.09376L4.62163 2.52169L5.12872 2.27813L5.52079 3.09376H6.01382L6.49869 2.12429L7.00185 2.37601L6.64297 3.09376H7.40516L8.03938 1.54491L7.63016 1.74966C7.41838 1.85541 7.163 1.79466 7.0221 1.60566L6.70119 1.17816L6.27341 1.60566C6.17385 1.70522 6.03744 1.75669 5.89457 1.74741C5.75338 1.73757 5.62372 1.66669 5.53851 1.55363L5.25726 1.17816L4.74735 1.68807C4.62248 1.81351 4.43882 1.86076 4.26866 1.8121L3.58691 1.61719L4.38651 3.09376H4.89669Z" fill="#4E4E4E"/>
<path d="M7.59375 8.71875H9.5625V4.78125H7.59375V8.71875ZM9 5.34375H9.28125V5.90625H9V5.34375ZM9 6.46875H9.28125V7.03125H9V6.46875ZM9 7.59375H9.28125V8.15625H9V7.59375ZM8.15625 5.34375H8.4375V5.90625H8.15625V5.34375ZM8.15625 6.46875H8.4375V7.03125H8.15625V6.46875ZM8.15625 7.59375H8.4375V8.15625H8.15625V7.59375Z" fill="#4E4E4E"/>
<path d="M4.21875 8.71875H7.03125V4.5C7.03125 4.34475 7.15697 4.21875 7.3125 4.21875H7.80131C7.62666 3.85931 7.52344 3.71137 7.47787 3.65625H4.29216C4.02553 3.82162 3.09375 5.22563 3.09375 6.73116V7.59375C3.09375 8.21419 3.59831 8.71875 4.21875 8.71875ZM4.78125 6.75H5.90625V6.46875H5.0625C4.90697 6.46875 4.78125 6.34275 4.78125 6.1875V5.34375C4.78125 5.1885 4.90697 5.0625 5.0625 5.0625H5.34375V4.78125H5.90625V5.0625H6.1875C6.34303 5.0625 6.46875 5.1885 6.46875 5.34375V5.625H5.34375V5.90625H6.1875C6.34303 5.90625 6.46875 6.03225 6.46875 6.1875V7.03125C6.46875 7.1865 6.34303 7.3125 6.1875 7.3125H5.90625V7.59375H5.34375V7.3125H5.0625C4.90697 7.3125 4.78125 7.1865 4.78125 7.03125V6.75Z" fill="#4E4E4E"/>
<path d="M13.5 7.875H14.0625V8.71875H13.5V7.875Z" fill="#4E4E4E"/>
<path d="M11.8125 7.03125H11.5312C11.4176 7.03125 11.3147 6.96263 11.2714 6.85772C11.2278 6.75253 11.252 6.63159 11.3324 6.55116L12.375 5.50856V1.40625H10.125V8.71875H11.8125V7.03125ZM11.5312 1.96875H11.8125V2.53125H11.5312V1.96875ZM11.5312 3.09375H11.8125V3.65625H11.5312V3.09375ZM11.5312 4.21875H11.8125V4.78125H11.5312V4.21875ZM11.5312 5.34375H11.8125V5.90625H11.5312V5.34375ZM10.9688 5.90625H10.6875V5.34375H10.9688V5.90625ZM10.9688 4.78125H10.6875V4.21875H10.9688V4.78125ZM10.9688 3.65625H10.6875V3.09375H10.9688V3.65625ZM10.9688 2.53125H10.6875V1.96875H10.9688V2.53125Z" fill="#4E4E4E"/>
<path d="M15.3521 6.46874L13.781 4.89767L12.21 6.46874H15.3521Z" fill="#4E4E4E"/>
<path d="M15.1875 8.71875V7.03125H12.375V8.71875H12.9375V7.59375C12.9375 7.4385 13.0632 7.3125 13.2188 7.3125H14.3438C14.4993 7.3125 14.625 7.4385 14.625 7.59375V8.71875H15.1875Z" fill="#4E4E4E"/>
<path d="M14.8767 10.8132C14.8472 10.8726 14.7971 10.9198 14.7358 10.946L12.9181 11.725C12.8225 12.4082 12.2403 12.9375 11.5312 12.9375H7.03125V12.375H11.5312C11.9964 12.375 12.375 11.9964 12.375 11.5312C12.375 11.0661 11.9964 10.6875 11.5312 10.6875H7.48209C6.00553 10.6875 4.59 11.1307 3.375 11.9638V15.75H9.73294C11.0405 15.75 12.3176 15.3838 13.4266 14.6905C15.0983 13.6457 16.2537 11.9332 16.5966 9.99169L16.7186 9.30038C16.7442 9.15581 16.7046 9.00816 16.6101 8.89566C16.5156 8.78316 16.3769 8.71875 16.2301 8.71875C16.0411 8.71875 15.8715 8.82366 15.7868 8.99269L15.7832 9H3.09375V9.5625H15.5019L14.8767 10.8132Z" fill="#4E4E4E"/>
<path d="M1.125 16.875H2.81278L2.8125 10.6875H1.125V16.875ZM1.6875 11.5312H2.25V12.375H1.6875V11.5312Z" fill="#4E4E4E"/>
<path d="M14.9062 1.125H15.4688V1.6875H14.9062V1.125Z" fill="#4E4E4E"/>
<path d="M15.4688 0.5625H16.0312V1.125H15.4688V0.5625Z" fill="#4E4E4E"/>
<path d="M16.0312 1.125H16.5938V1.6875H16.0312V1.125Z" fill="#4E4E4E"/>
<path d="M15.4688 1.6875H16.0312V2.25H15.4688V1.6875Z" fill="#4E4E4E"/>
<path d="M16.875 2.53125H17.4375V3.09375H16.875V2.53125Z" fill="#4E4E4E"/>
<path d="M14.9062 3.375H15.4688V3.9375H14.9062V3.375Z" fill="#4E4E4E"/>
<path d="M0.5625 3.09375H1.125V3.65625H0.5625V3.09375Z" fill="#4E4E4E"/>
<path d="M1.125 2.53125H1.6875V3.09375H1.125V2.53125Z" fill="#4E4E4E"/>
<path d="M1.6875 3.09375H2.25V3.65625H1.6875V3.09375Z" fill="#4E4E4E"/>
<path d="M1.125 3.65625H1.6875V4.21875H1.125V3.65625Z" fill="#4E4E4E"/>
<path d="M0.5625 5.34375H1.125V5.90625H0.5625V5.34375Z" fill="#4E4E4E"/>
<path d="M1.6875 0.5625H2.25V1.125H1.6875V0.5625Z" fill="#4E4E4E"/>
</svg>
