<svg width="20" height="20" viewBox="0 0 20 20" fill="none" xmlns="http://www.w3.org/2000/svg">
<path d="M16.1719 3.125H3.82812C3.61238 3.125 3.4375 2.95012 3.4375 2.73438V1.71876C3.4375 0.769492 4.20699 0 5.15624 0H14.8438C15.793 0 16.5624 0.769492 16.5624 1.71876V2.73438C16.5624 2.95012 16.3877 3.125 16.1719 3.125Z" fill="#4E4E4E"/>
<path d="M17.8907 4.375H2.10938C0.94625 4.375 0 5.32126 0 6.48438V13.8281C0 14.9912 0.94625 15.9376 2.10938 15.9376H3.4375V12.8124C3.4375 11.2617 4.69918 10 6.25 10H13.75C15.3008 10 16.5624 11.2617 16.5624 12.8124V15.9376H17.8907C19.0538 15.9376 20 14.9912 20 13.8281V6.48438C20 5.32126 19.0538 4.375 17.8907 4.375ZM3.75078 9.0625C3.23301 9.0625 2.81309 8.64278 2.81309 8.125C2.81309 7.60722 3.23262 7.1875 3.75039 7.1875H3.75078C4.26856 7.1875 4.68828 7.60722 4.68828 8.125C4.68828 8.64278 4.26856 9.0625 3.75078 9.0625Z" fill="#4E4E4E"/>
<path d="M13.75 11.875H6.25C5.73222 11.875 5.3125 12.2948 5.3125 12.8124V15.9376V17.1876C5.3125 17.7052 5.73222 18.125 6.25 18.125H13.75C14.2678 18.125 14.6876 17.7052 14.6876 17.1876V15.9376V12.8124C14.6876 12.2948 14.2678 11.875 13.75 11.875Z" fill="#4E4E4E"/>
</svg>
