<svg width="18" height="18" viewBox="0 0 18 18" fill="none" xmlns="http://www.w3.org/2000/svg">
<path d="M0 0.527344V10.5469H2.6543V10.0195C2.6543 9.1472 3.364 8.4375 4.23633 8.4375H5.29102C4.41868 8.4375 3.70898 7.7278 3.70898 6.85547C3.70898 5.98314 4.41868 5.27344 5.29102 5.27344C6.16335 5.27344 6.87305 5.98314 6.87305 6.85547C6.87305 7.7278 6.16335 8.4375 5.29102 8.4375H6.3457C7.21804 8.4375 7.92773 9.1472 7.92773 10.0195V10.5469H10.582V0H0.527344C0.236109 0 0 0.236109 0 0.527344Z" fill="#4E4E4E"/>
<path d="M5.29102 7.38281C5.58226 7.38281 5.81836 7.14671 5.81836 6.85547C5.81836 6.56422 5.58226 6.32812 5.29102 6.32812C4.99977 6.32812 4.76367 6.56422 4.76367 6.85547C4.76367 7.14671 4.99977 7.38281 5.29102 7.38281Z" fill="#4E4E4E"/>
<path d="M0 17.4727C0 17.7639 0.236109 18 0.527344 18H2.63672V14.7656H2.14453C1.8533 14.7656 1.61719 14.5295 1.61719 14.2383C1.61719 13.947 1.8533 13.7109 2.14453 13.7109H4.21875C4.50998 13.7109 4.74609 13.947 4.74609 14.2383C4.74609 14.5295 4.50998 14.7656 4.21875 14.7656H3.69141V18H6.85547V14.7656H6.32812C6.03689 14.7656 5.80078 14.5295 5.80078 14.2383C5.80078 13.947 6.03689 13.7109 6.32812 13.7109H8.4375C8.72873 13.7109 8.96484 13.947 8.96484 14.2383C8.96484 14.5295 8.72873 14.7656 8.4375 14.7656H7.91016V18H10.582V11.6016H0V17.4727Z" fill="#4E4E4E"/>
<path d="M6.3457 9.49219H4.23633C3.94555 9.49219 3.70898 9.72875 3.70898 10.0195V10.5469H6.87305V10.0195C6.87305 9.72875 6.63648 9.49219 6.3457 9.49219Z" fill="#4E4E4E"/>
<path d="M17.4727 0H11.6367V18H17.4727C17.7639 18 18 17.7639 18 17.4727V0.527344C18 0.236109 17.7639 0 17.4727 0ZM13.7461 10.0195C13.7461 10.3108 13.51 10.5469 13.2188 10.5469C12.9275 10.5469 12.6914 10.3108 12.6914 10.0195V8.96484C12.6914 8.67361 12.9275 8.4375 13.2188 8.4375C13.51 8.4375 13.7461 8.67361 13.7461 8.96484V10.0195Z" fill="#4E4E4E"/>
</svg>
