<svg width="24" height="24" viewBox="0 0 24 24" fill="none" xmlns="http://www.w3.org/2000/svg">
<path d="M22 14H21V22H3V14H2L3 10H7V5.57L12 2L17 5.57V10H21L22 14Z" fill="white"/>
<path d="M21.78 8.99953H18V7.50953L18.42 7.80953L19.58 6.18953L12 0.769531L4.41997 6.18953L5.57997 7.80953L5.99997 7.50953V8.99953H2.21997L0.719971 14.9995H1.99997V22.9995H22V14.9995H23.28L21.78 8.99953ZM7.99997 6.08953L12 3.22953L16 6.08953V12.9995H7.99997V6.08953ZM3.77997 10.9995H5.99997V12.9995H3.27997L3.77997 10.9995ZM20 20.9995H3.99997V14.9995H20V20.9995ZM18 12.9995V10.9995H20.22L20.72 12.9995H18Z" fill="#4E4E4E"/>
<path d="M12 11C13.1046 11 14 10.1046 14 9C14 7.89543 13.1046 7 12 7C10.8954 7 10 7.89543 10 9C10 10.1046 10.8954 11 12 11Z" fill="#F9C41F"/>
<path d="M8 17H6V19H8V17Z" fill="#4E4E4E"/>
<path d="M18 17H16V19H18V17Z" fill="#4E4E4E"/>
<path d="M14 17H10V21H14V17Z" fill="#F9C41F" fill-opacity="0.2"/>
</svg>
