<svg width="16" height="16" viewBox="0 0 16 16" fill="none" xmlns="http://www.w3.org/2000/svg">
<path d="M1.25 11.0938V15.875H3.21875V11.1546L2.769 11.3515C2.72618 11.3702 2.67938 11.378 2.63281 11.3741C2.58624 11.3702 2.54138 11.3548 2.50227 11.3292C2.46317 11.3036 2.43105 11.2687 2.40883 11.2276C2.38661 11.1865 2.37498 11.1405 2.375 11.0938H1.25ZM2.375 12.5H1.8125V11.9375H2.375V12.5Z" fill="#4E4E4E"/>
<path d="M12.2188 3.78125H13.3438V4.90625H12.2188V3.78125Z" fill="#4E4E4E"/>
<path d="M12.2988 14.9476C12.1463 14.794 11.9375 14.5836 11.9375 14.1875C11.9375 13.8957 11.8199 13.3438 11.375 13.3438C11.1804 13.3438 10.8125 13.5201 10.8125 14.1875C10.8125 14.5836 10.6036 14.794 10.4511 14.9476C10.3116 15.0883 10.25 15.1571 10.25 15.3206C10.25 15.7045 10.6575 15.875 10.8125 15.875H11.9375C12.0924 15.875 12.5 15.7045 12.5 15.3206C12.5 15.1571 12.4382 15.0881 12.2988 14.9476Z" fill="#4E4E4E"/>
<path d="M1.25 9.40625H2.59743L3.21875 9.13442V5.46875H1.25V9.40625Z" fill="#4E4E4E"/>
<path d="M5.1875 12.5H6.3125V15.875H5.1875V12.5Z" fill="#4E4E4E"/>
<path d="M8 13.0625H9.125V13.9062H8V13.0625Z" fill="#4E4E4E"/>
<path d="M10.25 14.1875C10.25 13.8408 10.3452 13.4921 10.5312 13.2286V10.9085L7.15625 9.43198L3.78125 10.9085V15.875H4.625V12.2187C4.625 12.1442 4.65463 12.0726 4.70738 12.0199C4.76012 11.9671 4.83166 11.9375 4.90625 11.9375H6.59375C6.66834 11.9375 6.73988 11.9671 6.79262 12.0199C6.84537 12.0726 6.875 12.1442 6.875 12.2187V15.875H9.843C9.74055 15.7083 9.6867 15.5163 9.6875 15.3206C9.6875 14.9184 9.89812 14.7063 10.0519 14.5514C10.1892 14.413 10.25 14.3452 10.25 14.1875ZM6.03125 11.375H5.46875V10.8125H6.03125V11.375ZM9.6875 14.1875C9.6875 14.2621 9.65787 14.3336 9.60512 14.3864C9.55238 14.4391 9.48084 14.4687 9.40625 14.4687H7.71875C7.64416 14.4687 7.57262 14.4391 7.51988 14.3864C7.46713 14.3336 7.4375 14.2621 7.4375 14.1875V12.7812C7.4375 12.7067 7.46713 12.6351 7.51988 12.5824C7.57262 12.5296 7.64416 12.5 7.71875 12.5H9.40625C9.48084 12.5 9.55238 12.5296 9.60512 12.5824C9.65787 12.6351 9.6875 12.7067 9.6875 12.7812V14.1875Z" fill="#4E4E4E"/>
<path d="M8.84375 3.78125H9.96875V4.90625H8.84375V3.78125Z" fill="#4E4E4E"/>
<path d="M14.75 15.875V2.375H7.4375V7.53481L11.769 9.42973C11.8191 9.45166 11.8617 9.48772 11.8917 9.53351C11.9216 9.57929 11.9375 9.6328 11.9375 9.6875V11.0938C11.9375 11.1405 11.9259 11.1865 11.9036 11.2276C11.8814 11.2686 11.8493 11.3036 11.8102 11.3291C11.7711 11.3547 11.7262 11.3701 11.6797 11.374C11.6331 11.3779 11.5863 11.3701 11.5435 11.3514L11.0938 11.1546V12.819C11.1853 12.7937 11.28 12.781 11.375 12.7812C12.1136 12.7812 12.5 13.4887 12.5 14.1875C12.5 14.3452 12.5607 14.413 12.6981 14.5514C12.8518 14.7063 13.0625 14.9184 13.0625 15.3206C13.0633 15.5163 13.0094 15.7083 12.9069 15.875H14.75ZM11.6562 3.5C11.6562 3.42541 11.6859 3.35387 11.7386 3.30113C11.7914 3.24838 11.8629 3.21875 11.9375 3.21875H13.625C13.6996 3.21875 13.7711 3.24838 13.8239 3.30113C13.8766 3.35387 13.9062 3.42541 13.9062 3.5V5.1875C13.9062 5.26209 13.8766 5.33363 13.8239 5.38637C13.7711 5.43912 13.6996 5.46875 13.625 5.46875H11.9375C11.8629 5.46875 11.7914 5.43912 11.7386 5.38637C11.6859 5.33363 11.6562 5.26209 11.6562 5.1875V3.5ZM10.5312 8.28125H9.96875V6.875H8.84375V7.4375H8.28125V6.59375C8.28125 6.51916 8.31088 6.44762 8.36363 6.39488C8.41637 6.34213 8.48791 6.3125 8.5625 6.3125H10.25C10.3246 6.3125 10.3961 6.34213 10.4489 6.39488C10.5016 6.44762 10.5312 6.51916 10.5312 6.59375V8.28125ZM10.5312 5.1875C10.5312 5.26209 10.5016 5.33363 10.4489 5.38637C10.3961 5.43912 10.3246 5.46875 10.25 5.46875H8.5625C8.48791 5.46875 8.41637 5.43912 8.36363 5.38637C8.31088 5.33363 8.28125 5.26209 8.28125 5.1875V3.5C8.28125 3.42541 8.31088 3.35387 8.36363 3.30113C8.41637 3.24838 8.48791 3.21875 8.5625 3.21875H10.25C10.3246 3.21875 10.3961 3.24838 10.4489 3.30113C10.5016 3.35387 10.5312 3.42541 10.5312 3.5V5.1875ZM11.9375 8.5625C11.8629 8.5625 11.7914 8.53287 11.7386 8.48012C11.6859 8.42738 11.6562 8.35584 11.6562 8.28125V6.59375C11.6562 6.51916 11.6859 6.44762 11.7386 6.39488C11.7914 6.34213 11.8629 6.3125 11.9375 6.3125H13.625C13.6996 6.3125 13.7711 6.34213 13.8239 6.39488C13.8766 6.44762 13.9062 6.51916 13.9062 6.59375V8.28125C13.9062 8.35584 13.8766 8.42738 13.8239 8.48012C13.7711 8.53287 13.6996 8.5625 13.625 8.5625H11.9375ZM12.5 11.6562V11.0938H13.3438V9.96875H12.5V9.40625H13.625C13.6996 9.40625 13.7711 9.43588 13.8239 9.48863C13.8766 9.54137 13.9062 9.61291 13.9062 9.6875V11.375C13.9062 11.4496 13.8766 11.5211 13.8239 11.5739C13.7711 11.6266 13.6996 11.6562 13.625 11.6562H12.5Z" fill="#4E4E4E"/>
<path d="M1.25 3.78125H3.66474L3.10228 3.21875H1.25V3.78125Z" fill="#4E4E4E"/>
<path d="M12.2188 6.875H13.3438V8H12.2188V6.875Z" fill="#4E4E4E"/>
<path d="M15.5938 0.432159L6.59375 1.22627V1.8125H15.5938V0.432159Z" fill="#4E4E4E"/>
<path d="M2.9375 10.6637L3.21875 10.5407V10.5312H3.24027L7.0435 8.86733C7.07906 8.85178 7.11744 8.84374 7.15625 8.84374C7.19506 8.84374 7.23344 8.85178 7.269 8.86733L11.0722 10.5312H11.0938V10.5407L11.375 10.6637V9.87143L7.15625 8.02573L2.9375 9.87143V10.6637Z" fill="#4E4E4E"/>
<path d="M3.78125 5.46875V8.88833L6.875 7.53481V5.46875H3.78125Z" fill="#4E4E4E"/>
<path d="M2.375 9.96875H0.96875C0.894158 9.96875 0.822621 9.93912 0.769876 9.88637C0.717132 9.83363 0.6875 9.76209 0.6875 9.6875V5.1875C0.6875 5.11291 0.717132 5.04137 0.769876 4.98863C0.822621 4.93588 0.894158 4.90625 0.96875 4.90625H6.875V4.34375H0.125V10.5312H2.375V9.96875Z" fill="#4E4E4E"/>
</svg>
