<svg width="32" height="32" viewBox="0 0 32 32" fill="none" xmlns="http://www.w3.org/2000/svg">
<g clip-path="url(#clip0_592_21434)">
<path d="M30.6516 7.7267C30.6417 7.01089 30.1042 6.41452 29.3942 6.32277C22.8417 5.47583 18.2923 1.78358 16.6627 0.261516C16.2894 -0.0871719 15.7091 -0.0871719 15.3358 0.261516C13.7062 1.78358 9.15688 5.47583 2.60432 6.32277C1.89438 6.41452 1.35682 7.01095 1.34688 7.7267C1.2822 12.4141 2.09101 28.523 15.9993 32C29.9077 28.523 30.7165 12.4141 30.6516 7.7267Z" fill="url(#paint0_linear_592_21434)"/>
<path d="M17.9796 31.3897C18.0771 31.3536 18.1738 31.3169 18.2698 31.2795C18.3938 31.2312 18.5166 31.1817 18.6381 31.1312C18.7181 31.0979 18.7975 31.0642 18.8764 31.0301C19.0006 30.9762 19.1238 30.9214 19.2454 30.8653C19.2912 30.8442 19.3366 30.8229 19.382 30.8015C19.4942 30.7486 19.6052 30.6946 19.7151 30.6397C19.8747 30.5602 20.032 30.4787 20.1869 30.3953C20.335 30.3155 20.4814 30.2343 20.6254 30.1511C20.7907 30.0554 20.9532 29.9576 21.1132 29.8576C21.1168 29.8553 21.1206 29.8531 21.1243 29.8508C21.4286 29.6603 21.7227 29.4617 22.008 29.2561C22.0294 29.2407 22.0513 29.2255 22.0726 29.21C22.2808 29.0585 22.4835 28.9028 22.6817 28.7438C22.7015 28.728 22.7216 28.7124 22.7412 28.6965C22.8535 28.6056 22.9637 28.5133 23.0729 28.4201C23.1746 28.3332 23.2756 28.2457 23.3746 28.1569C23.4081 28.1269 23.4409 28.0964 23.4741 28.0662C23.5088 28.0346 23.5437 28.0033 23.5781 27.9714C23.6803 27.8767 23.7806 27.7808 23.8797 27.6842C23.9111 27.6537 23.9427 27.6234 23.9737 27.5928C24.0813 27.4864 24.1867 27.3787 24.2909 27.2701C24.312 27.2481 24.3335 27.2262 24.3544 27.2043C24.4771 27.075 24.5974 26.9443 24.7154 26.812C24.7171 26.8101 24.7189 26.8082 24.7206 26.8063C24.8701 26.6388 25.0154 26.4686 25.1575 26.2966C25.2429 26.1932 25.3276 26.0892 25.4104 25.9842C25.5741 25.7771 25.7326 25.5669 25.8863 25.3544C25.8881 25.352 25.8898 25.3496 25.8916 25.3472C25.9276 25.2972 25.963 25.2471 25.9986 25.1969C26.0141 25.175 26.0299 25.1532 26.0453 25.1313C26.0703 25.0958 26.0946 25.06 26.1192 25.0243C26.1447 24.9874 26.1705 24.9506 26.1958 24.9136C26.2782 24.7926 26.3587 24.6708 26.4381 24.5484C26.5499 24.3762 26.6591 24.2027 26.7651 24.0279C26.8956 23.8128 27.0216 23.5958 27.1436 23.3772C27.1488 23.3679 27.1541 23.3587 27.1593 23.3494C27.1864 23.3008 27.2129 23.2518 27.2396 23.203C27.2545 23.1756 27.2698 23.1484 27.2846 23.121C27.3606 22.9805 27.4346 22.8393 27.5072 22.6978C27.5135 22.6855 27.52 22.6733 27.5263 22.6611C27.5556 22.6036 27.5844 22.5461 27.6131 22.4884C27.6229 22.4688 27.6329 22.4493 27.6427 22.4296C27.6585 22.3978 27.6738 22.3659 27.6894 22.334C27.7877 22.1337 27.8831 21.9326 27.975 21.7306C28.1374 21.3739 28.29 21.0148 28.4337 20.6548C28.4786 20.5423 28.5229 20.4298 28.5659 20.3172C28.6796 20.0203 28.7871 19.7229 28.8889 19.4255C28.8952 19.4069 28.9019 19.3884 28.9082 19.3699C28.9275 19.3131 28.9464 19.2563 28.9653 19.1994C28.9727 19.1773 28.9803 19.1551 28.9876 19.133C29.0595 18.9151 29.1283 18.6974 29.1943 18.4801C29.2001 18.4612 29.2061 18.4422 29.2118 18.4231C29.2465 18.3079 29.2802 18.1928 29.3133 18.0778C29.3503 17.9496 29.3865 17.8214 29.4216 17.6936C29.474 17.5021 29.5242 17.3111 29.5724 17.1209C29.6011 17.0076 29.6294 16.8945 29.6566 16.7818C29.6686 16.732 29.6803 16.6824 29.6921 16.6326C29.6986 16.6051 29.7052 16.5776 29.7117 16.5501C29.7434 16.4144 29.774 16.2793 29.8037 16.1445C29.8078 16.1261 29.8121 16.1076 29.8161 16.0892C29.8407 15.9767 29.8644 15.8647 29.8876 15.7529C29.9006 15.6901 29.9136 15.6274 29.9261 15.5649C29.9516 15.4391 29.9762 15.3138 30 15.1892C30.0006 15.1863 30.0012 15.1833 30.0017 15.1803C30.0238 15.0637 30.0451 14.9478 30.0659 14.8322C30.0851 14.725 30.104 14.6181 30.1221 14.5119C30.1432 14.3882 30.1633 14.2654 30.1828 14.1432C30.1864 14.12 30.1902 14.0966 30.1939 14.0735C30.1972 14.0529 30.2002 14.0326 30.2034 14.012C30.2114 13.9602 30.2196 13.9084 30.2274 13.8569C30.2464 13.7312 30.2644 13.6066 30.2819 13.4827C30.2844 13.4648 30.2871 13.4466 30.2896 13.4287C30.2959 13.3825 30.3022 13.3366 30.3084 13.2907C30.3117 13.2662 30.3151 13.2418 30.3184 13.2174C30.3211 13.1967 30.3237 13.1761 30.3265 13.1555C30.3514 12.9663 30.3747 12.7794 30.3961 12.5951C30.4431 12.1924 30.4819 11.8021 30.5141 11.4265C30.5146 11.4209 30.5151 11.4151 30.5156 11.4094C30.5237 11.3154 30.5311 11.2226 30.5382 11.1306C30.5418 11.0843 30.5454 11.0382 30.5488 10.9924C30.5647 10.7794 30.5784 10.5719 30.5901 10.37C30.5946 10.2934 30.5989 10.2173 30.6028 10.1424C30.6111 9.98612 30.618 9.83394 30.624 9.68538C30.6258 9.64169 30.6274 9.59844 30.629 9.55544C30.6377 9.32237 30.6439 9.0995 30.648 8.88813C30.6481 8.88431 30.6482 8.88037 30.6483 8.8765C30.6528 8.64 30.6547 8.418 30.6549 8.21144C30.6549 8.20731 30.6549 8.20294 30.6549 8.19881C30.6549 8.03075 30.6538 7.87319 30.6518 7.72669C30.6418 7.01075 30.1042 6.41431 29.3941 6.3225C29.2114 6.29888 29.0307 6.27225 28.8511 6.24431C28.8113 6.23812 28.7714 6.23194 28.7318 6.22556C28.5568 6.19731 28.3829 6.16744 28.2109 6.13531C28.1851 6.1305 28.1597 6.12525 28.1341 6.12038C27.9777 6.09056 27.8228 6.05919 27.669 6.02631C27.6359 6.01931 27.6027 6.01244 27.5698 6.00525C27.4023 5.96869 27.2362 5.93025 27.0718 5.89031C27.0372 5.88188 27.003 5.87319 26.9686 5.86462C26.8165 5.82688 26.6658 5.78794 26.5165 5.74744C26.4971 5.74219 26.4776 5.73719 26.4582 5.73194C26.2961 5.6875 26.1361 5.64119 25.9772 5.59375C25.9411 5.58294 25.9052 5.57212 25.8692 5.56119C25.7102 5.51281 25.5524 5.4635 25.3967 5.41237C25.3882 5.40963 25.3799 5.40669 25.3714 5.40387C25.2216 5.35444 25.0737 5.30356 24.927 5.25169C24.8938 5.23994 24.8604 5.22831 24.8272 5.21637C24.6779 5.16287 24.53 5.10831 24.384 5.05263C24.3591 5.04313 24.3347 5.03344 24.3099 5.02388C24.1778 4.97288 24.047 4.92106 23.9176 4.86837C23.8921 4.85794 23.8663 4.84775 23.8409 4.83731C23.699 4.77894 23.559 4.71969 23.4206 4.65956C23.3904 4.64644 23.3606 4.63325 23.3306 4.62012C23.1999 4.56269 23.0705 4.50481 22.943 4.446C22.9314 4.44069 22.9196 4.43544 22.9081 4.43006C22.7723 4.36719 22.6388 4.30344 22.5066 4.23919C22.4766 4.22463 22.4468 4.21006 22.417 4.1955C22.2863 4.13137 22.1569 4.06675 22.0299 4.0015C22.0172 3.99506 22.005 3.98844 21.9924 3.982C21.8738 3.92081 21.7569 3.85913 21.6415 3.79719C21.6154 3.78319 21.5894 3.76931 21.5634 3.75531C21.4419 3.68956 21.3222 3.62356 21.2044 3.55725C21.1822 3.54469 21.1602 3.53206 21.1381 3.51956C21.0317 3.45925 20.9269 3.39875 20.8236 3.33812C20.8051 3.32725 20.7864 3.3165 20.768 3.30562C20.6544 3.23856 20.543 3.17144 20.4331 3.10419C20.4085 3.08912 20.3842 3.07406 20.3598 3.059C20.2521 2.99262 20.1457 2.92619 20.0416 2.85987C20.0381 2.85763 20.0345 2.85538 20.0309 2.85313C19.9237 2.78475 19.8193 2.7165 19.7161 2.64844C19.6929 2.63313 19.6698 2.61787 19.6469 2.60262C19.5465 2.53594 19.4476 2.46937 19.3511 2.40325C19.3382 2.39438 19.3257 2.38562 19.3129 2.37675C19.2246 2.316 19.1383 2.25563 19.0534 2.19563C19.0346 2.18231 19.0157 2.169 18.997 2.15581C18.9058 2.09094 18.8166 2.02656 18.7294 1.96275C18.7114 1.94956 18.6939 1.93656 18.6761 1.92356C18.5969 1.86519 18.5191 1.80737 18.4431 1.75006C18.4317 1.74144 18.4201 1.73281 18.4088 1.72419C18.3258 1.66138 18.2452 1.59938 18.1664 1.53806C18.1483 1.524 18.1306 1.51013 18.1127 1.49612C18.0341 1.43463 17.9568 1.37369 17.8823 1.314C17.8808 1.31275 17.8793 1.31156 17.8778 1.31031C17.8038 1.251 17.7328 1.193 17.6631 1.13569C17.6474 1.12281 17.6318 1.11 17.6164 1.09731C17.5482 1.04087 17.4818 0.985438 17.4177 0.931313C17.4074 0.922625 17.3978 0.914375 17.3877 0.90575C17.3299 0.856687 17.2739 0.808625 17.2196 0.761563C17.2084 0.751813 17.1969 0.741937 17.1858 0.73225C17.1269 0.681062 17.0704 0.63125 17.0158 0.582625C17.0041 0.572187 16.9929 0.562187 16.9814 0.551875C16.9315 0.50725 16.8831 0.463687 16.8369 0.421625C16.8314 0.416625 16.8255 0.411312 16.8201 0.406375C16.7702 0.360812 16.7231 0.317313 16.6777 0.275C16.6731 0.270625 16.6676 0.26575 16.663 0.261438C16.4768 0.087125 16.2384 0 16 0V32C16.3085 31.9229 16.6103 31.8392 16.906 31.7499C17.2736 31.6389 17.6313 31.5186 17.9796 31.3897Z" fill="url(#paint1_linear_592_21434)"/>
<path d="M28.9142 8.70489C28.9054 8.07402 28.4317 7.54833 27.8059 7.46745C22.0304 6.72095 18.0206 3.46658 16.5843 2.12502C16.2552 1.8177 15.7438 1.8177 15.4148 2.12502C13.9784 3.46658 9.96857 6.72095 4.19307 7.46745C3.56732 7.54833 3.09351 8.07402 3.08482 8.70489C3.02751 12.8365 3.74038 27.035 15.9994 30.0998C28.2584 27.035 28.9713 12.8365 28.9142 8.70489Z" fill="url(#paint2_linear_592_21434)"/>
<path d="M16.0005 29.0162L15.856 28.9801C13.2556 28.33 11.0314 27.0761 9.24522 25.2532C7.76247 23.74 6.57103 21.8244 5.70391 19.5596C4.19703 15.6239 4.01934 11.6172 4.04753 9.57917C4.05916 8.73517 4.70147 8.01686 5.54147 7.9083C10.4382 7.27536 13.843 4.52067 15.0795 3.36567C15.5959 2.8833 16.405 2.88336 16.9215 3.36561C18.158 4.52067 21.5628 7.27536 26.4595 7.9083C27.2996 8.01692 27.9419 8.7353 27.9535 9.57917C28.0067 13.4246 27.3125 26.1882 16.145 28.9802L16.0005 29.0162ZM16.0005 4.19423C15.9618 4.19423 15.9232 4.2083 15.893 4.23648C14.5721 5.47017 10.9343 8.4128 5.69428 9.09005C5.43841 9.12311 5.24272 9.34055 5.23916 9.59561C5.18928 13.2025 5.82159 25.1317 16.0005 27.787C26.1795 25.1317 26.8118 13.2025 26.762 9.59561C26.7584 9.34048 26.5628 9.12311 26.3068 9.09005C21.0668 8.4128 17.429 5.47017 16.1082 4.23648C16.0779 4.2083 16.0393 4.19423 16.0005 4.19423Z" fill="white"/>
<path d="M28.9147 8.70491C28.906 8.07403 28.4322 7.54834 27.8065 7.46747C22.031 6.72097 18.0211 3.46659 16.5848 2.12503C16.4203 1.97134 16.2102 1.89453 16 1.89453V30.0998C28.259 27.035 28.9719 12.8365 28.9147 8.70491Z" fill="url(#paint3_linear_592_21434)"/>
<path d="M29.6167 16.9448C28.5858 21.1123 26.5648 25.6463 22.6502 28.7685L10.5202 16.6387C10.0766 16.195 10.0766 15.4753 10.5202 15.0312C10.9638 14.5869 11.6842 14.5869 12.1277 15.0312L14.5679 17.4713C14.8685 17.7713 15.3578 17.7713 15.6572 17.4713L22.0967 11.0324C22.541 10.5882 23.2607 10.5882 23.7042 11.0324H23.7048L29.6167 16.9448Z" fill="url(#paint4_linear_592_21434)"/>
<path d="M23.7049 11.0336C24.1489 11.4776 24.1489 12.1974 23.7049 12.6413L17.2654 19.0801C16.0784 20.2671 14.1469 20.2671 12.9608 19.0801L10.5205 16.6398C10.0766 16.1959 10.0765 15.4762 10.5203 15.0323C10.9642 14.5882 11.6841 14.5881 12.1281 15.0321L14.568 17.472C14.8683 17.7723 15.3577 17.7723 15.6572 17.472L22.0968 11.0331C22.5407 10.5892 23.2605 10.5892 23.7044 11.0332L23.7049 11.0336Z" fill="url(#paint5_linear_592_21434)"/>
</g>
<defs>
<linearGradient id="paint0_linear_592_21434" x1="10.7944" y1="8.83005" x2="35.8216" y2="33.8573" gradientUnits="userSpaceOnUse">
<stop stop-color="#62E1FB"/>
<stop offset="1" stop-color="#00A2F3"/>
</linearGradient>
<linearGradient id="paint1_linear_592_21434" x1="28.0728" y1="16.0004" x2="11.2337" y2="16.0004" gradientUnits="userSpaceOnUse">
<stop stop-color="#00A2F3" stop-opacity="0"/>
<stop offset="1" stop-color="#0075CD"/>
</linearGradient>
<linearGradient id="paint2_linear_592_21434" x1="11.0042" y1="9.26999" x2="24.6861" y2="22.9519" gradientUnits="userSpaceOnUse">
<stop stop-color="#A7F3CE"/>
<stop offset="1" stop-color="#61DB99"/>
</linearGradient>
<linearGradient id="paint3_linear_592_21434" x1="26.8587" y1="15.9975" x2="10.0308" y2="15.9975" gradientUnits="userSpaceOnUse">
<stop stop-color="#61DB99" stop-opacity="0"/>
<stop offset="1" stop-color="#009E74"/>
</linearGradient>
<linearGradient id="paint4_linear_592_21434" x1="25.3319" y1="22.0557" x2="18.922" y2="15.6458" gradientUnits="userSpaceOnUse">
<stop stop-color="#61DB99" stop-opacity="0"/>
<stop offset="1" stop-color="#009E74"/>
</linearGradient>
<linearGradient id="paint5_linear_592_21434" x1="17.1123" y1="13.6459" x2="17.1123" y2="21.0754" gradientUnits="userSpaceOnUse">
<stop stop-color="#FFF465"/>
<stop offset="1" stop-color="#FFE600"/>
</linearGradient>
<clipPath id="clip0_592_21434">
<rect width="32" height="32" fill="white"/>
</clipPath>
</defs>
</svg>
