<svg width="20" height="20" viewBox="0 0 20 20" fill="none" xmlns="http://www.w3.org/2000/svg">
<path d="M18.125 11.0727C18.125 10.7741 18.0181 10.4854 17.8237 10.2588C17.6293 10.0322 17.3602 9.88263 17.0651 9.83723L16.7708 9.79199L13.6263 14.0146C13.5681 14.0928 13.4925 14.1562 13.4055 14.1999C13.3184 14.2436 13.2224 14.2664 13.125 14.2664C13.0276 14.2664 12.9316 14.2436 12.8445 14.1999C12.7575 14.1562 12.6819 14.0928 12.6237 14.0146L9.47918 9.79199L9.18492 9.83723C8.88981 9.88263 8.6207 10.0322 8.42629 10.2588C8.23188 10.4854 8.125 10.7741 8.125 11.0727V15.3128H18.125V11.0727Z" fill="#222222"/>
<path d="M0.15625 15.7812H19.8438V19.8437H0.15625V15.7812Z" fill="#222222"/>
<path d="M1.875 15.4687H5.625C5.74932 15.4687 5.86855 15.4194 5.95646 15.3315C6.04436 15.2435 6.09375 15.1243 6.09375 15C6.09375 13.7609 5.35762 12.8818 4.21875 12.6941V12.5C4.21875 12.3757 4.16936 12.2565 4.08146 12.1685C3.99355 12.0806 3.87432 12.0312 3.75 12.0312C3.62568 12.0312 3.50645 12.0806 3.41854 12.1685C3.33064 12.2565 3.28125 12.3757 3.28125 12.5V12.6941C2.14238 12.8816 1.40625 13.7609 1.40625 15C1.40625 15.1243 1.45564 15.2435 1.54354 15.3315C1.63145 15.4194 1.75068 15.4687 1.875 15.4687Z" fill="#222222"/>
<path d="M2.75548 11.5056C2.88607 11.375 3.0411 11.2714 3.21172 11.2008C3.38234 11.1301 3.56522 11.0937 3.7499 11.0937C3.93458 11.0937 4.11746 11.1301 4.28808 11.2008C4.4587 11.2714 4.61373 11.375 4.74432 11.5056C4.83247 11.5924 4.95132 11.6407 5.07498 11.6402C5.19864 11.6397 5.31708 11.5904 5.40452 11.5029C5.49195 11.4155 5.54129 11.297 5.54179 11.1734C5.54228 11.0497 5.4939 10.9309 5.40717 10.8427C4.96763 10.4032 4.37149 10.1562 3.7499 10.1562C3.12831 10.1562 2.53217 10.4032 2.09263 10.8427C2.0059 10.9309 1.95752 11.0497 1.95801 11.1734C1.95851 11.297 2.00785 11.4155 2.09528 11.5029C2.18272 11.5904 2.30116 11.6397 2.42482 11.6402C2.54848 11.6407 2.66733 11.5924 2.75548 11.5056Z" fill="#222222"/>
<path d="M1.43011 10.1798C1.7348 9.87515 2.09653 9.63345 2.49463 9.46855C2.89273 9.30366 3.31941 9.21878 3.75031 9.21878C4.18121 9.21878 4.60789 9.30366 5.00599 9.46855C5.40409 9.63345 5.76581 9.87515 6.07051 10.1798C6.11403 10.2234 6.16571 10.2579 6.22258 10.2815C6.27946 10.305 6.34041 10.3171 6.40197 10.3171C6.46353 10.3171 6.52449 10.305 6.58136 10.2815C6.63823 10.2579 6.68991 10.2234 6.73344 10.1798C6.77697 10.1363 6.81149 10.0846 6.83505 10.0278C6.85861 9.97089 6.87073 9.90994 6.87073 9.84838C6.87073 9.78682 6.85861 9.72586 6.83505 9.66899C6.81149 9.61212 6.77697 9.56044 6.73344 9.51691C6.34169 9.12516 5.87661 8.8144 5.36477 8.60239C4.85292 8.39037 4.30433 8.28125 3.75031 8.28125C3.19629 8.28125 2.6477 8.39037 2.13585 8.60239C1.624 8.8144 1.15893 9.12516 0.76718 9.51691C0.723652 9.56044 0.689123 9.61212 0.665565 9.66899C0.642008 9.72586 0.629883 9.78682 0.629883 9.84838C0.629883 9.90994 0.642008 9.97089 0.665565 10.0278C0.689123 10.0846 0.723652 10.1363 0.76718 10.1798C0.85509 10.2678 0.974322 10.3171 1.09865 10.3171C1.1602 10.3171 1.22116 10.305 1.27803 10.2815C1.33491 10.2579 1.38658 10.2234 1.43011 10.1798Z" fill="#222222"/>
<path d="M12.0566 9.04904C11.9797 9.17686 11.8739 9.28489 11.7477 9.36447C11.6215 9.44406 11.4785 9.49298 11.33 9.50732L10.4033 9.64986C11.0866 10.2506 12.0532 10.6254 13.125 10.6254C14.1968 10.6254 15.1634 10.2506 15.8468 9.64986L14.9202 9.50732C14.4463 9.46521 14.056 9.05357 14.0625 8.57107V8.19518C14.4747 8.04409 14.8447 7.79622 15.1412 7.47242C15.4377 7.14862 15.6522 6.75835 15.7665 6.33443C15.7332 6.37068 15.7592 4.90185 14.6003 3.71283C14.4913 3.59765 14.3592 3.50669 14.2127 3.44586C14.0662 3.38503 13.9086 3.35569 13.75 3.35974C13.2251 3.35974 12.5043 3.93209 11.9137 4.81787C11.4247 5.55083 11.0922 6.3769 10.9372 7.24432C11.2538 7.67375 11.6879 8.00235 12.1872 8.19045C12.1885 8.45842 12.2141 8.8217 12.0566 9.04904Z" fill="#222222"/>
<path d="M16.4816 3.5904C16.7472 3.5519 16.9989 3.44753 17.2138 3.28683C17.4288 3.12612 17.6001 2.91417 17.7121 2.67031C17.8242 2.42644 17.8734 2.15841 17.8554 1.89064C17.8373 1.62287 17.7526 1.36388 17.6088 1.13726C17.465 0.910645 17.2668 0.723615 17.0322 0.593216C16.7977 0.462816 16.5342 0.393194 16.2658 0.390695C15.9974 0.388195 15.7327 0.452897 15.4958 0.578904C15.2588 0.704911 15.0572 0.888217 14.9092 1.11211C15.098 1.17196 15.2775 1.25791 15.4425 1.36747C15.8993 1.67184 16.4401 2.30348 16.4816 3.5904Z" fill="#222222"/>
<path d="M10.4469 7.34688C10.596 6.3491 10.9638 5.3966 11.5239 4.5575C12.2196 3.51375 13.0519 2.89062 13.7501 2.89062C13.9713 2.88652 14.1908 2.92836 14.395 3.01351C14.5991 3.09865 14.7834 3.22525 14.9361 3.38527C15.3692 3.83479 15.6953 4.37621 15.8903 4.96922C15.978 4.56885 16.0201 4.15984 16.0157 3.75C16.0157 2.80984 15.7276 2.12086 15.1826 1.7575C14.9526 1.60493 14.6884 1.51185 14.4136 1.4866L14.2962 1.47727L14.1971 1.41359C13.724 1.10146 13.1701 0.934294 12.6033 0.932617C12.3137 0.933585 12.0256 0.974477 11.7472 1.05414C11.0162 1.2607 10.4263 1.69734 10.1876 2.01562C9.46807 2.97496 9.34549 4.30695 9.83323 5.86758C9.99468 6.37748 10.2 6.87243 10.4469 7.34688Z" fill="#222222"/>
</svg>
