<svg width="20" height="20" viewBox="0 0 20 20" fill="none" xmlns="http://www.w3.org/2000/svg">
<g clip-path="url(#clip0_2547_17485)">
<path d="M15.573 1.29629L14.6888 0.526835C14.5055 0.367342 14.2179 0.453007 14.152 0.687032L13.534 2.87962H12.7889C12.6523 2.87962 12.5461 2.99892 12.5621 3.13462L12.6574 3.94248C12.9261 3.94252 13.1984 4.00861 13.45 4.1483C14.1486 4.53639 14.4515 5.36046 14.2084 6.09218H14.5438C14.6596 6.09218 14.757 6.00558 14.7706 5.89062L15.0955 3.13462C15.1115 2.99904 15.0054 2.87962 14.8688 2.87962H14.223L14.6483 1.37067L15.1377 1.79657C15.2759 1.91677 15.4853 1.90227 15.6054 1.76411C15.7257 1.62594 15.7111 1.41649 15.573 1.29629Z" fill="#222222"/>
<path d="M19.7935 14.7949L15.9472 9.92379C15.6295 9.5214 15.052 9.43921 14.6345 9.73683L12.8508 11.0088L11.9137 9.90734C11.7055 10.0131 11.4655 10.0505 11.2319 10.0072L8.08618 9.42042L11.1657 9.17523C11.4331 9.15394 11.6721 9.00015 11.8024 8.76566L13.3568 5.96763C13.5716 5.58087 13.4323 5.09313 13.0455 4.87829C12.6587 4.66344 12.1709 4.80278 11.9561 5.18958L10.6103 7.61209L7.95899 7.82319L9.63162 7.22526L9.45509 7.01775C9.02759 6.51529 8.27368 6.45455 7.77122 6.88205L6.22316 8.19921C5.96945 8.41507 5.81746 8.72702 5.80375 9.0598C5.79004 9.39261 5.9159 9.71601 6.15098 9.95195L10.3244 14.1416C10.5405 14.3585 10.8426 14.4669 11.1473 14.4369C11.3851 14.4134 11.6045 14.3073 11.7702 14.1408C11.7708 14.1404 11.7714 14.1401 11.772 14.1396L15.0056 11.8338L18.2846 15.9864C18.6138 16.4032 19.2183 16.474 19.6349 16.1451C20.0515 15.8161 20.1226 15.2116 19.7935 14.7949Z" fill="#222222"/>
<path d="M6.1081 6.38514C7.08467 6.38514 7.87635 5.59346 7.87635 4.61689C7.87635 3.64031 7.08467 2.84863 6.1081 2.84863C5.13152 2.84863 4.33984 3.64031 4.33984 4.61689C4.33984 5.59346 5.13152 6.38514 6.1081 6.38514Z" fill="#222222"/>
<path d="M15.4761 13.0736C15.2426 12.7913 14.8246 12.7517 14.5425 12.9853L11.0719 15.8567L4.32798 9.11275C4.63028 9.17724 4.9306 9.08173 5.13841 8.87392C5.48369 8.5286 5.48373 7.96879 5.13841 7.62348L2.88723 5.37225C2.54187 5.02694 1.9821 5.02698 1.63675 5.37225C1.41671 5.59233 1.33753 5.8994 1.39792 6.18269L1.13206 5.91683C0.873111 5.65784 0.453187 5.65784 0.19424 5.91683C-0.0647465 6.17581 -0.0647465 6.5957 0.19424 6.85465L10.0455 16.7059L8.02152 18.3804C7.73937 18.6139 7.6998 19.032 7.93324 19.3141C8.16687 19.5964 8.58496 19.6357 8.86691 19.4023L10.9874 17.648L12.6998 19.3603C12.9587 19.6193 13.3787 19.6193 13.6376 19.3603C13.8966 19.1013 13.8966 18.6814 13.6376 18.4225L12.0138 16.7987L15.3878 14.0072C15.67 13.7738 15.7096 13.3557 15.4761 13.0736Z" fill="#222222"/>
</g>
<defs>
<clipPath id="clip0_2547_17485">
<rect width="20" height="20" fill="white"/>
</clipPath>
</defs>
</svg>
