<svg width="18" height="18" viewBox="0 0 18 18" fill="none" xmlns="http://www.w3.org/2000/svg">
<path d="M16.5 3H1.5V16.5H16.5V3Z" fill="white"/>
<path d="M6.2551 8.46789L4.1626 7.41789L4.8376 6.08289L5.7451 6.53289L6.8776 4.83789L8.1226 5.66289L6.2551 8.46789Z" fill="#F9C41F"/>
<path d="M13.6573 6.15777L12.5923 5.09277L11.9998 5.69277L11.4073 5.09277L10.3423 6.15777L10.9423 6.75027L10.3423 7.34277L11.4073 8.40777L11.9998 7.80777L12.5923 8.40777L13.6573 7.34277L13.0573 6.75027L13.6573 6.15777Z" fill="#F9C41F" fill-opacity="0.2"/>
<path d="M14.25 2.25V0.75H12.75V2.25H9.75V0.75H8.25V2.25H5.25V0.75H3.75V2.25H0.75V17.25H17.25V2.25H14.25ZM15.75 15.75H2.25V3.75H15.75V15.75Z" fill="#7A7A7A"/>
<path d="M8.25 9.75H3.75V11.25H8.25V9.75Z" fill="#7A7A7A"/>
<path d="M8.25 12.75H3.75V14.25H8.25V12.75Z" fill="#7A7A7A"/>
<path d="M14.25 9.75H9.75V11.25H14.25V9.75Z" fill="#7A7A7A"/>
<path d="M14.25 12.75H9.75V14.25H14.25V12.75Z" fill="#7A7A7A"/>
</svg>
