<svg width="16" height="18" viewBox="0 0 16 18" fill="none" xmlns="http://www.w3.org/2000/svg">
<path d="M14.3273 16.5938V2.10938C14.3273 0.946266 13.381 0 12.2179 0H3.78041C2.6173 0 1.67103 0.946266 1.67103 2.10938V16.5938H0.265625V18H15.7335V16.5938H14.3273ZM12.921 16.5938H3.07728V2.10938C3.07728 1.72167 3.3927 1.40625 3.78041 1.40625H12.2179C12.6056 1.40625 12.921 1.72167 12.921 2.10938V16.5938Z" fill="#4E4E4E"/>
<path fill-rule="evenodd" clip-rule="evenodd" d="M8 5.37891C8.12142 5.37891 8.21973 5.2806 8.21973 5.15918V4.71973C8.21973 4.5983 8.12142 4.5 8 4.5C7.87858 4.5 7.78027 4.5983 7.78027 4.71973V5.15918C7.78027 5.2806 7.87858 5.37891 8 5.37891ZM9.03426 5.75399L9.47371 5.31453C9.55954 5.2287 9.55954 5.08966 9.47371 5.00383C9.38788 4.918 9.24884 4.918 9.16301 5.00383L8.72355 5.44328C8.63772 5.52911 8.63772 5.66816 8.72355 5.75399C8.80938 5.83982 8.94843 5.83982 9.03426 5.75399ZM7.27645 5.75399C7.19062 5.83982 7.05157 5.83982 6.96574 5.75399L6.52629 5.31453C6.44046 5.2287 6.44046 5.08966 6.52629 5.00383C6.61212 4.918 6.75116 4.918 6.83699 5.00383L7.27645 5.44328C7.36228 5.52911 7.36228 5.66816 7.27645 5.75399ZM6.22754 7.60547C6.22754 7.12075 5.83335 6.72656 5.34863 6.72656C4.86392 6.72656 4.46973 7.12075 4.46973 7.60547C4.46973 8.09018 4.86392 8.48438 5.34863 8.48438C4.7429 8.48438 4.25 8.97727 4.25 9.58301V11.7803C4.25 11.9017 4.3483 12 4.46973 12H6.22754C6.34879 12 6.44435 11.9017 6.44435 11.7805L6.44561 9.72572C7.72878 9.42336 8.65918 8.26802 8.65918 6.93164C8.65918 6.56818 8.36346 6.27246 8 6.27246C7.63654 6.27246 7.34082 6.56818 7.34082 6.93164C7.34082 7.77965 6.63609 8.48438 5.78809 8.48438H5.34863C5.83335 8.48438 6.22754 8.09018 6.22754 7.60547ZM11.5303 7.60547C11.5303 7.12075 11.1361 6.72656 10.6514 6.72656C10.1667 6.72656 9.77246 7.12075 9.77246 7.60547C9.77246 8.09018 10.1667 8.48438 10.6514 8.48438H10.2119C9.70668 8.48438 9.24675 8.22156 8.96619 7.84414C8.83762 8.29778 8.61366 8.70948 8.31457 9.06202C8.66493 9.37129 9.09786 9.61677 9.55436 9.72549L9.55568 11.7805C9.55568 11.9017 9.65124 12 9.77249 12H11.5303C11.6517 12 11.75 11.9017 11.75 11.7803V9.58301C11.75 8.97727 11.2571 8.48438 10.6514 8.48438H10.6514C11.1361 8.48438 11.5303 8.09018 11.5303 7.60547Z" fill="#4E4E4E"/>
</svg>
