<svg width="24" height="24" viewBox="0 0 24 24" fill="none" xmlns="http://www.w3.org/2000/svg">
<g clip-path="url(#clip0_159_907)">
<path d="M22.6795 1.32019C21.7996 0.440118 20.7395 0 19.5001 0H4.49997C3.2605 0 2.20043 0.440118 1.32019 1.32019C0.440119 2.20043 0 3.26044 0 4.49997V19.4999C0 20.7393 0.440119 21.7994 1.32019 22.6797C2.20043 23.5599 3.2605 24 4.49997 24H19.4999C20.7394 24 21.7995 23.5599 22.6793 22.6797C23.5596 21.7994 23.9997 20.7394 23.9997 19.4999V4.49997C23.9996 3.26044 23.5595 2.20026 22.6795 1.32019ZM7.41405 19.4141C7.02319 19.8044 6.55198 19.9999 5.99984 19.9999C5.44791 19.9999 4.97648 19.8044 4.58584 19.4141C4.19525 19.0234 3.99982 18.5518 3.99982 17.9997C3.99982 17.4479 4.19525 16.9764 4.58584 16.5857C4.97654 16.195 5.44791 15.9999 5.99984 15.9999C6.55198 15.9999 7.02335 16.195 7.41405 16.5857C7.80453 16.9764 7.99996 17.4479 7.99996 17.9997C7.99996 18.5518 7.8047 19.0234 7.41405 19.4141ZM13.3434 19.8434C13.2393 19.9475 13.1194 19.9992 12.9838 19.9992H10.9841C10.8486 19.9992 10.7341 19.9553 10.6404 19.8666C10.5466 19.7782 10.4944 19.6662 10.4841 19.5306C10.3696 17.9266 9.73937 16.5516 8.59348 15.4054C7.44765 14.26 6.07279 13.6296 4.46845 13.5149C4.33305 13.5048 4.22103 13.4527 4.13264 13.3591C4.04404 13.2654 3.99976 13.1508 3.99976 13.0152V11.0153C3.99976 10.8799 4.05192 10.76 4.15601 10.6559C4.26016 10.5518 4.38515 10.505 4.53111 10.5153C6.94777 10.6507 9.01018 11.5728 10.7185 13.281C12.4269 14.9897 13.3489 17.0517 13.4842 19.4686C13.4948 19.6145 13.4476 19.7392 13.3434 19.8434ZM19.3433 19.8434C19.2392 19.9475 19.1197 19.9996 18.9842 19.9996H16.9841C16.8487 19.9996 16.7341 19.9527 16.6405 19.8591C16.5468 19.7654 16.4947 19.6508 16.4843 19.5152C16.4113 17.3903 15.8305 15.4215 14.7421 13.609C13.6536 11.7964 12.2031 10.346 10.3905 9.25764C8.57794 8.16901 6.60939 7.58835 4.48427 7.51551C4.34887 7.50511 4.23432 7.45295 4.14058 7.35931C4.04694 7.26556 4.00004 7.15086 4.00004 7.01546V5.01544C4.00004 4.88005 4.05219 4.76036 4.15628 4.65605C4.25003 4.5519 4.36972 4.50511 4.51568 4.51567C6.11969 4.56766 7.6693 4.85914 9.16402 5.3906C10.6587 5.92168 12.0129 6.64824 13.2267 7.57012C14.4404 8.49184 15.5081 9.55969 16.4296 10.7733C17.3513 11.9868 18.0781 13.3411 18.6095 14.8357C19.1405 16.3306 19.4324 17.8802 19.4843 19.4841C19.5051 19.6302 19.4585 19.7497 19.3433 19.8434Z" fill="#222222"/>
</g>
<defs>
<clipPath id="clip0_159_907">
<rect width="24" height="24" fill="white"/>
</clipPath>
</defs>
</svg>
