<svg width="24" height="24" viewBox="0 0 24 24" fill="none" xmlns="http://www.w3.org/2000/svg">
<circle cx="12" cy="12" r="10" fill="white" stroke="#222222" stroke-width="2"/>
<path d="M8.00089 16.9063L13.5494 14.2671C13.8869 14.1083 14.1152 13.8801 14.274 13.5527L16.8944 8.01626C17.2319 7.30189 16.7157 6.7661 15.9812 7.10345L10.4426 9.73276C10.125 9.88159 9.90664 10.0999 9.72798 10.4471L7.09765 15.9935C6.7701 16.688 7.31602 17.2238 8.00089 16.9063ZM12.001 13.265C11.3161 13.265 10.7503 12.6994 10.7503 12.0148C10.7503 11.3302 11.3161 10.7646 12.001 10.7646C12.6958 10.7646 13.2516 11.3302 13.2516 12.0148C13.2516 12.6994 12.6958 13.265 12.001 13.265Z" fill="#F9C41F"/>
</svg>
