<svg width="20" height="20" viewBox="0 0 20 20" fill="none" xmlns="http://www.w3.org/2000/svg">
<g clip-path="url(#clip0_2160_2014)">
<path d="M15.3412 8.47105C15.2061 8.28318 15.03 8.1316 14.8388 7.9982C15.0316 7.86668 15.2094 7.71667 15.3468 7.52988L19.0321 2.50177C19.2199 2.24536 19.3199 1.94798 19.3215 1.64191C19.3257 0.763433 18.5214 0.0444026 17.5284 0.0394441L1.84708 -0.0388588C0.854188 -0.0438167 0.0425723 0.667144 0.0381857 1.54562C0.0366574 1.85169 0.133613 2.15006 0.318942 2.40833L3.9547 7.47339C4.08981 7.66126 4.26588 7.81285 4.4571 7.94624C4.26427 8.07776 4.08643 8.22776 3.94913 8.41456L0.263801 13.4427C0.0759442 13.699 -0.0239861 13.9964 -0.0255148 14.3026C-0.0258857 14.3768 -0.037662 16.7352 -0.037662 16.7352C-0.0422837 17.6608 0.740597 18.4174 1.70699 18.4222L17.4842 18.501C18.4506 18.5058 19.241 17.7571 19.2456 16.8315C19.2456 16.8315 19.2574 14.4731 19.2578 14.3988C19.2593 14.0927 19.1623 13.7943 18.977 13.5361L15.3412 8.47105ZM2.282 14.0042C2.20738 13.8654 2.21932 13.6983 2.31244 13.5705L5.38411 9.37893C5.46685 9.26626 5.60157 9.19974 5.74537 9.20046L5.74623 9.20046L13.4918 9.25019C13.6339 9.2509 13.7671 9.31797 13.8479 9.42981L16.9161 13.641C17.0105 13.7697 17.0216 13.9374 16.9457 14.0758C16.8687 14.2148 16.7186 14.3014 16.555 14.3005L2.66948 14.2312C2.50599 14.2304 2.35749 14.1428 2.282 14.0042ZM13.544 17.6422C13.0605 17.6398 12.6694 17.2612 12.6718 16.7987C12.6741 16.3361 13.0688 15.9615 13.5524 15.9639C14.036 15.9663 14.427 16.3448 14.4247 16.8074C14.4224 17.2699 14.0276 17.6446 13.544 17.6422ZM16.1736 17.6553C15.6899 17.6529 15.299 17.2743 15.3013 16.8118C15.3036 16.3492 15.6984 15.9746 16.182 15.9771C16.6655 15.9795 17.0566 16.3579 17.0543 16.8206C17.0519 17.2831 16.6572 17.6577 16.1736 17.6553Z" fill="#4E4E4E"/>
</g>
<defs>
<clipPath id="clip0_2160_2014">
<rect width="20" height="20" fill="white"/>
</clipPath>
</defs>
</svg>
