<svg width="36" height="36" viewBox="0 0 36 36" fill="none" xmlns="http://www.w3.org/2000/svg">
<path d="M0 18C0 8.05888 8.05888 0 18 0C27.9411 0 36 8.05888 36 18C36 27.9411 27.9411 36 18 36C8.05888 36 0 27.9411 0 18Z" fill="#F9C41F"/>
<path fill-rule="evenodd" clip-rule="evenodd" d="M16.3335 9.58398C12.6057 9.58398 9.5835 12.6062 9.5835 16.334C9.5835 20.0618 12.6057 23.084 16.3335 23.084C18.0174 23.084 19.5574 22.4673 20.7398 21.4474L25.5633 26.2709C25.7585 26.4661 26.0751 26.4661 26.2704 26.2709C26.4656 26.0756 26.4656 25.759 26.2704 25.5638L21.4469 20.7403C22.4668 19.5579 23.0835 18.0179 23.0835 16.334C23.0835 12.6062 20.0613 9.58398 16.3335 9.58398ZM10.5835 16.334C10.5835 13.1585 13.158 10.584 16.3335 10.584C19.509 10.584 22.0835 13.1585 22.0835 16.334C22.0835 19.5095 19.509 22.084 16.3335 22.084C13.158 22.084 10.5835 19.5095 10.5835 16.334Z" fill="#FEFFFF"/>
</svg>
