<svg width="20" height="20" viewBox="0 0 20 20" fill="none" xmlns="http://www.w3.org/2000/svg">
<path d="M10 20C15.4706 20 20 15.4608 20 10C20 4.52941 15.4608 0 9.9902 0C4.52941 0 0 4.52941 0 10C0 15.4608 4.53922 20 10 20ZM8.91177 13.049C6.59804 13.049 4.70588 11.1471 4.70588 8.84314C4.70588 6.52941 6.59804 4.62745 8.91177 4.62745C11.2255 4.62745 13.1176 6.51961 13.1176 8.84314C13.1176 9.70588 12.8431 10.5196 12.3922 11.1765L14.9902 13.7941C15.1569 13.9706 15.2647 14.1863 15.2647 14.4118C15.2647 14.9216 14.9314 15.2843 14.4412 15.2843C14.1471 15.2843 13.9314 15.1863 13.7255 14.9706L11.1373 12.3922C10.4902 12.7941 9.72549 13.049 8.91177 13.049ZM8.91177 11.6667C10.451 11.6667 11.7255 10.3824 11.7255 8.84314C11.7255 7.28431 10.451 6.0098 8.91177 6.0098C7.36275 6.0098 6.08824 7.29412 6.08824 8.84314C6.08824 10.3824 7.36275 11.6667 8.91177 11.6667Z" fill="#F9C41F"/>
</svg>
