<svg width="23" height="25" viewBox="0 0 23 25" fill="none" xmlns="http://www.w3.org/2000/svg">
<path d="M0.0507812 10.3359C0.0507812 15.4922 4.24609 19.6875 9.40234 19.6875C11.4414 19.6875 13.3047 19.0312 14.8398 17.9297L20.6055 23.707C20.875 23.9766 21.2266 24.1055 21.6016 24.1055C22.3984 24.1055 22.9492 23.5078 22.9492 22.7227C22.9492 22.3477 22.8086 22.0078 22.5625 21.7617L16.832 15.9961C18.0391 14.4258 18.7539 12.4688 18.7539 10.3359C18.7539 5.17969 14.5586 0.984375 9.40234 0.984375C4.24609 0.984375 0.0507812 5.17969 0.0507812 10.3359ZM2.05469 10.3359C2.05469 6.28125 5.34766 2.98828 9.40234 2.98828C13.457 2.98828 16.75 6.28125 16.75 10.3359C16.75 14.3906 13.457 17.6836 9.40234 17.6836C5.34766 17.6836 2.05469 14.3906 2.05469 10.3359Z" fill="#7A7A7A"/>
</svg>
