<svg width="18" height="18" viewBox="0 0 18 18" fill="none" xmlns="http://www.w3.org/2000/svg">
<g clip-path="url(#clip0_2693_2167)">
<path d="M0.369 9.00163C0.16425 9.00538 0 9.17188 0 9.37663V16.3126C0 16.4161 0.084 16.5001 0.1875 16.5001H1.9665C2.1345 16.5001 2.2815 16.3891 2.32725 16.2279L3.987 10.3794C4.09425 10.0014 3.89175 9.60388 3.522 9.46963C2.8425 9.22213 1.8 8.97763 0.369 9.00163Z" fill="#4E4E4E"/>
<path d="M16.5 13.1252C15 13.1252 12 15.0235 10.5 15.0235C9 15.0235 7.3125 13.8752 7.3125 13.8752C7.3125 13.8752 9.333 14.2502 10.5 14.2502C11.667 14.2502 12 13.852 12 13.3127C12 12.0002 9.771 11.7962 8.643 11.6245C7.536 11.008 6.96075 10.5205 5.127 10.3652C5.097 10.6592 3.6435 15.7097 3.5625 15.994C5.2695 16.771 8.208 18.0002 9.75 18.0002C12 18.0002 18 15.0002 18 14.2502C18 13.5002 17.25 13.1252 16.5 13.1252Z" fill="#4E4E4E"/>
<path d="M16.3125 7.87526H15.75V1.31276C15.75 0.952008 15.4147 0.683508 15.063 0.764508L10.938 1.70201C10.6815 1.75976 10.5 1.98776 10.5 2.25026V3.37526H12.1875C12.498 3.37526 12.75 3.62726 12.75 3.93776C12.75 4.24826 12.498 4.50026 12.1875 4.50026H10.5V5.62526H12.1875C12.498 5.62526 12.75 5.87726 12.75 6.18776C12.75 6.49826 12.498 6.75026 12.1875 6.75026H10.5V7.87526H9.9375C9.627 7.87526 9.375 8.12726 9.375 8.43776C9.375 8.74826 9.627 9.00026 9.9375 9.00026H16.3125C16.623 9.00026 16.875 8.74826 16.875 8.43776C16.875 8.12726 16.623 7.87526 16.3125 7.87526Z" fill="#4E4E4E"/>
</g>
<defs>
<clipPath id="clip0_2693_2167">
<rect width="18" height="18" fill="white"/>
</clipPath>
</defs>
</svg>
