<svg width="17" height="20" viewBox="0 0 17 20" fill="none" xmlns="http://www.w3.org/2000/svg">
<path d="M11.5835 0C10.2095 0.00178108 8.88739 0.52504 7.8844 1.46404C6.88138 2.40304 6.27218 3.68778 6.17991 5.05864C5.07604 5.21752 4.0406 5.68863 3.19561 6.41647C2.35062 7.1443 1.7313 8.09852 1.41064 9.16667H12.5896C12.2704 8.10351 11.6554 7.15311 10.8163 6.42649C9.97706 5.69986 8.9485 5.22699 7.85065 5.06312C7.94273 4.10449 8.40006 3.21802 9.12795 2.58743C9.85583 1.95683 10.7985 1.63044 11.7604 1.67589C12.7224 1.72134 13.6301 2.13514 14.2952 2.83157C14.9604 3.52798 15.3322 4.45362 15.3335 5.41667V20H17.0002V5.41667C16.9985 3.98058 16.4273 2.60377 15.4118 1.5883C14.3964 0.572832 13.0195 0.00162664 11.5835 0Z" fill="#4E4E4E"/>
<path d="M0.333252 10H13.6666V11.6667H0.333252V10Z" fill="#4E4E4E"/>
<path d="M6.99985 19.1667C7.46008 19.1667 7.83318 18.7936 7.83318 18.3333C7.83318 17.8731 7.46008 17.5 6.99985 17.5C6.5396 17.5 6.1665 17.8731 6.1665 18.3333C6.1665 18.7936 6.5396 19.1667 6.99985 19.1667Z" fill="#4E4E4E"/>
<path d="M6.99985 16.6667C7.46008 16.6667 7.83318 16.2936 7.83318 15.8333C7.83318 15.3731 7.46008 15 6.99985 15C6.5396 15 6.1665 15.3731 6.1665 15.8333C6.1665 16.2936 6.5396 16.6667 6.99985 16.6667Z" fill="#4E4E4E"/>
<path d="M10.3333 19.1667C10.7936 19.1667 11.1667 18.7936 11.1667 18.3333C11.1667 17.8731 10.7936 17.5 10.3333 17.5C9.87311 17.5 9.5 17.8731 9.5 18.3333C9.5 18.7936 9.87311 19.1667 10.3333 19.1667Z" fill="#4E4E4E"/>
<path d="M10.3333 16.6667C10.7936 16.6667 11.1667 16.2936 11.1667 15.8333C11.1667 15.3731 10.7936 15 10.3333 15C9.87311 15 9.5 15.3731 9.5 15.8333C9.5 16.2936 9.87311 16.6667 10.3333 16.6667Z" fill="#4E4E4E"/>
<path d="M3.66659 19.1667C4.12682 19.1667 4.49992 18.7936 4.49992 18.3333C4.49992 17.8731 4.12682 17.5 3.66659 17.5C3.20635 17.5 2.83325 17.8731 2.83325 18.3333C2.83325 18.7936 3.20635 19.1667 3.66659 19.1667Z" fill="#4E4E4E"/>
<path d="M3.66659 16.6667C4.12682 16.6667 4.49992 16.2936 4.49992 15.8333C4.49992 15.3731 4.12682 15 3.66659 15C3.20635 15 2.83325 15.3731 2.83325 15.8333C2.83325 16.2936 3.20635 16.6667 3.66659 16.6667Z" fill="#4E4E4E"/>
<path d="M6.99985 14.1667C7.46008 14.1667 7.83318 13.7936 7.83318 13.3333C7.83318 12.8731 7.46008 12.5 6.99985 12.5C6.5396 12.5 6.1665 12.8731 6.1665 13.3333C6.1665 13.7936 6.5396 14.1667 6.99985 14.1667Z" fill="#4E4E4E"/>
<path d="M10.3333 14.1667C10.7936 14.1667 11.1667 13.7936 11.1667 13.3333C11.1667 12.8731 10.7936 12.5 10.3333 12.5C9.87311 12.5 9.5 12.8731 9.5 13.3333C9.5 13.7936 9.87311 14.1667 10.3333 14.1667Z" fill="#4E4E4E"/>
<path d="M3.66659 14.1667C4.12682 14.1667 4.49992 13.7936 4.49992 13.3333C4.49992 12.8731 4.12682 12.5 3.66659 12.5C3.20635 12.5 2.83325 12.8731 2.83325 13.3333C2.83325 13.7936 3.20635 14.1667 3.66659 14.1667Z" fill="#4E4E4E"/>
</svg>
