<svg width="20" height="20" viewBox="0 0 20 20" fill="none" xmlns="http://www.w3.org/2000/svg">
<g clip-path="url(#clip0_2160_8648)">
<path d="M7.36914 10.543C6.20914 10.543 5.26831 11.4838 5.26831 12.6438V17.8988C5.26831 19.0588 6.20914 19.9996 7.36914 19.9996C8.52914 19.9996 9.46997 19.0588 9.46997 17.8988V12.6438C9.46914 11.4838 8.52831 10.543 7.36914 10.543Z" fill="#4E4E4E"/>
<path d="M0.0158691 12.6435C0.0158691 13.8043 0.957536 14.746 2.11837 14.746C3.2792 14.746 4.22087 13.8043 4.22087 12.6435V10.541H2.12004C2.1192 10.541 2.1192 10.541 2.11837 10.541C0.957536 10.541 0.0158691 11.4827 0.0158691 12.6435Z" fill="#4E4E4E"/>
<path d="M7.3716 -0.000976562C7.37076 -0.000976562 7.36993 -0.000976562 7.3691 -0.000976562C6.20827 -0.000976562 5.2666 0.94069 5.2666 2.10152C5.2666 3.26236 6.20827 4.20402 7.3691 4.20402H9.46993C9.46993 3.01152 9.46993 3.30152 9.46993 2.09736C9.4691 0.93819 8.52993 -0.000976562 7.3716 -0.000976562Z" fill="#4E4E4E"/>
<path d="M2.10421 9.47453H7.3692C8.53004 9.47453 9.4717 8.53286 9.4717 7.37203C9.4717 6.2112 8.53004 5.26953 7.3692 5.26953H2.10421C0.943375 5.26953 0.00170898 6.2112 0.00170898 7.37203C0.00170898 8.53286 0.943375 9.47453 2.10421 9.47453Z" fill="#4E4E4E"/>
<path d="M17.8808 5.26953C16.7216 5.26953 15.7825 6.2087 15.7825 7.36786V7.37203V9.47453H17.8833C19.0441 9.47453 19.9858 8.53286 19.9858 7.37203C19.9858 6.2112 19.0441 5.26953 17.8833 5.26953C17.8825 5.26953 17.8816 5.26953 17.8808 5.26953Z" fill="#4E4E4E"/>
<path d="M10.5342 2.10181V7.37264C10.5342 8.53264 11.475 9.47347 12.635 9.47347C13.795 9.47347 14.7358 8.53264 14.7358 7.37264V2.10181C14.7358 0.94181 13.795 0.000976562 12.635 0.000976562C11.475 0.000976562 10.5342 0.94181 10.5342 2.10181Z" fill="#4E4E4E"/>
<path d="M14.7351 17.8967C14.7351 16.7367 13.7943 15.7959 12.6343 15.7959H10.5334V17.8984C10.5343 19.0576 11.4743 19.9976 12.6343 19.9976C13.7943 19.9976 14.7351 19.0567 14.7351 17.8967Z" fill="#4E4E4E"/>
<path d="M17.8992 10.541H12.6342C11.4734 10.541 10.5317 11.4827 10.5317 12.6435C10.5317 13.8043 11.4734 14.746 12.6342 14.746H17.8992C19.0601 14.746 20.0017 13.8043 20.0017 12.6435C20.0017 11.4827 19.0601 10.541 17.8992 10.541Z" fill="#4E4E4E"/>
</g>
<defs>
<clipPath id="clip0_2160_8648">
<rect width="20" height="20" fill="white"/>
</clipPath>
</defs>
</svg>
