<svg width="20" height="20" viewBox="0 0 20 20" fill="none" xmlns="http://www.w3.org/2000/svg">
<g clip-path="url(#clip0_2604_27674)">
<path d="M9.41425 6.44531C9.41425 6.12152 9.1521 5.85938 8.82831 5.85938H7.89905L9.24258 4.51584C9.41028 4.34814 9.46063 4.09637 9.36969 3.87726C9.27921 3.65814 9.06512 3.51562 8.82831 3.51562H6.48455C6.16076 3.51562 5.89861 3.77777 5.89861 4.10156C5.89861 4.42535 6.16076 4.6875 6.48455 4.6875H7.41382L6.07028 6.03104C5.90258 6.19873 5.85223 6.4505 5.94317 6.66962C6.03366 6.88873 6.24758 7.03125 6.48455 7.03125H8.82831C9.1521 7.03125 9.41425 6.7691 9.41425 6.44531Z" fill="white"/>
<path d="M10.6308 3.15399C10.7211 3.37311 10.9352 3.51562 11.172 3.51562H13.5158C13.8395 3.51562 14.1017 3.25348 14.1017 2.92969C14.1017 2.6059 13.8395 2.34375 13.5158 2.34375H12.5865L13.93 1.00021C14.0977 0.83252 14.1481 0.58075 14.0571 0.361633C13.9667 0.142517 13.7526 0 13.5158 0H11.172C10.8482 0 10.5861 0.262146 10.5861 0.585938C10.5861 0.909729 10.8482 1.17188 11.172 1.17188H12.1013L10.7577 2.51541C10.59 2.68311 10.5397 2.93488 10.6308 3.15399Z" fill="white"/>
<path d="M18.2422 9.375H10C9.03076 9.375 8.24219 10.1636 8.24219 11.1328V13.4766C8.24219 13.8004 8.50433 14.0625 8.82812 14.0625H20V11.1328C20 10.1636 19.2114 9.375 18.2422 9.375Z" fill="white"/>
<path d="M7.07031 13.4766V12.8906H1.17188V6.44531C1.17188 6.12152 0.909729 5.85938 0.585938 5.85938C0.262146 5.85938 0 6.12152 0 6.44531V19.4141C0 19.7379 0.262146 20 0.585938 20C0.909729 20 1.17188 19.7379 1.17188 19.4141V17.6172H18.8281V19.4141C18.8281 19.7377 19.0904 20 19.4141 20C19.7377 20 20 19.7377 20 19.4141V15.2344H8.82812C7.85736 15.2344 7.07031 14.4473 7.07031 13.4766Z" fill="white"/>
<path d="M7.07031 9.96094C7.07031 10.9317 6.28326 11.7188 5.3125 11.7188C4.34174 11.7188 3.55469 10.9317 3.55469 9.96094C3.55469 8.99017 4.34174 8.20312 5.3125 8.20312C6.28326 8.20312 7.07031 8.99017 7.07031 9.96094Z" fill="white"/>
</g>
<defs>
<clipPath id="clip0_2604_27674">
<rect width="20" height="20" fill="white"/>
</clipPath>
</defs>
</svg>
