<svg width="20" height="20" viewBox="0 0 20 20" fill="none" xmlns="http://www.w3.org/2000/svg">
<path d="M1.6022 15.6349H6.88608C6.22862 15.2449 5.70124 14.6466 5.38587 13.9263C4.53631 13.7792 3.89072 13.0912 3.89072 12.265C3.89072 11.4014 4.59642 10.688 5.50387 10.5872C6.11691 9.42657 7.30367 8.63783 8.66524 8.63685L9.0789 4.51202H9.65946V3.56967H5.04306C5.0291 2.14543 6.27077 0.976141 8.1048 0.968395C8.5907 0.96658 8.591 0.363285 8.1048 0.365239C5.86919 0.374486 4.26769 1.81635 4.28929 3.56939H0V4.51174H0.579417L1.6022 15.6349Z" fill="#4E4E4E"/>
<path d="M7.97832 15.4863C8.19979 15.5452 8.42992 15.5799 8.66765 15.5799H15.9072C16.9954 15.5799 17.9444 14.9239 18.4475 13.9561H18.2106H17.2267H8.1316H7.34795H6.36404H6.12744C6.52024 14.7126 7.18625 15.2755 7.97832 15.4863Z" fill="#4E4E4E"/>
<path d="M8.47083 10.5729H16.719H17.9402H18.3141C17.7863 9.73474 16.905 9.18359 15.907 9.18359H8.66748C8.64789 9.18359 8.62904 9.18625 8.60999 9.1868C7.63602 9.20768 6.77755 9.75128 6.26074 10.5729H6.63413H7.85525H8.47083Z" fill="#4E4E4E"/>
<path d="M5.98342 11.1211H5.72392C5.69033 11.1211 5.65853 11.1284 5.62559 11.1311C5.48732 11.1428 5.35659 11.1765 5.23663 11.233C4.84688 11.416 4.57568 11.8074 4.57568 12.2646C4.57568 12.6929 4.81516 13.0618 5.16514 13.2576C5.28113 13.3226 5.40819 13.3688 5.54482 13.3904C5.60362 13.3998 5.6629 13.4083 5.72423 13.4083H5.9033H5.94508H6.7201H8.18663H17.8548H18.63H18.6713H18.8511C18.9122 13.4083 18.9716 13.3998 19.0298 13.3904C19.1667 13.3691 19.2936 13.323 19.4097 13.258C19.7602 13.0621 19.9997 12.6931 19.9997 12.2646C19.9997 11.8071 19.7282 11.4155 19.3378 11.2328C19.2182 11.1765 19.0866 11.1428 18.949 11.1311C18.9162 11.1284 18.8847 11.1211 18.8511 11.1211H18.5911H18.4782H17.6447H8.41576H6.92965H6.0964H5.98342ZM6.4568 11.8223C6.88302 11.6822 7.36114 11.6763 7.90666 11.8565C8.04258 11.9016 8.18086 11.9738 8.32333 12.0455C8.67068 12.2199 9.04356 12.3916 9.47444 12.1621C9.69207 12.0462 9.9521 11.8876 10.2211 11.8521C10.7532 11.7816 11.2354 11.7876 11.7022 12.0353C12.5101 12.4639 13.2135 12.58 14.0556 12.1273C14.4136 11.9353 14.8491 11.6886 15.308 11.7074C15.8584 11.7303 16.3433 11.8962 16.8162 12.1166C17.397 12.3874 17.7226 12.3831 18.193 12.1019C18.2647 12.0588 18.3394 12.0106 18.4193 11.9548C18.5423 11.8689 18.6874 11.8801 18.7965 11.9353C18.8188 11.9464 18.8412 11.9571 18.86 11.9716C18.9555 12.0473 18.9871 12.1613 18.8975 12.2594C18.8841 12.2742 18.8753 12.29 18.8552 12.3039C18.8452 12.3108 18.836 12.3165 18.8255 12.3236C18.6052 12.4759 18.3961 12.597 18.1877 12.6849C17.7243 12.8801 17.2628 12.8962 16.6728 12.6216C15.9432 12.2814 15.3012 12.0508 14.532 12.4641C14.127 12.6815 13.6867 12.9165 13.1832 12.9435C12.5575 12.977 12.1018 12.8383 11.5857 12.5644C10.6541 12.0706 10.1085 12.5234 9.25604 12.7918C8.83718 12.9234 8.55514 12.7541 8.26881 12.5818C8.13157 12.4991 7.99316 12.4155 7.83862 12.3643C7.20528 12.1545 6.7618 12.1961 6.35704 12.442C6.18948 12.5436 6.02761 12.6769 5.86294 12.8469C5.83952 12.871 5.8133 12.8854 5.78717 12.8991C5.77212 12.9069 5.75738 12.9138 5.74198 12.9186C5.6284 12.9529 5.50843 12.9069 5.43266 12.825C5.35642 12.7429 5.33098 12.6289 5.41012 12.5249C5.41701 12.5158 5.41866 12.5066 5.42682 12.4975C5.50738 12.4146 5.59053 12.3364 5.67581 12.2645C5.70124 12.2433 5.72797 12.2268 5.7535 12.2064C5.97152 12.037 6.20466 11.9053 6.4568 11.8223Z" fill="#4E4E4E"/>
</svg>
