<svg width="18" height="18" viewBox="0 0 18 18" fill="none" xmlns="http://www.w3.org/2000/svg">
<path d="M8.25 7.5C8.25 7.08579 8.58579 6.75 9 6.75H17.25C17.6642 6.75 18 7.08579 18 7.5V14.9375C18 15.3517 17.6642 15.6875 17.25 15.6875H14.75V16.8784C14.75 17.5228 13.9911 17.8672 13.5061 17.4429L11.5 15.6875H9C8.58579 15.6875 8.25 15.3517 8.25 14.9375V7.5Z" fill="white"/>
<path fill-rule="evenodd" clip-rule="evenodd" d="M12.0636 14.1875L13.25 15.2256V14.1875H16.5V8.25H9.75V14.1875H12.0636ZM9 6.75C8.58579 6.75 8.25 7.08579 8.25 7.5V14.9375C8.25 15.3517 8.58579 15.6875 9 15.6875H11.5L13.5061 17.4429C13.9911 17.8672 14.75 17.5228 14.75 16.8784V15.6875H17.25C17.6642 15.6875 18 15.3517 18 14.9375V7.5C18 7.08579 17.6642 6.75 17.25 6.75H9Z" fill="#7A7A7A"/>
<path d="M14.1254 9.75C13.9855 9.75 13.8519 9.78535 13.7281 9.85508C13.6438 9.90254 13.5664 9.96559 13.5 10.0404C13.4336 9.96559 13.3562 9.90254 13.2719 9.85508C13.1481 9.78535 13.0144 9.75 12.8746 9.75C12.3923 9.75 12 10.1825 12 10.7142C12 11.0908 12.1804 11.4907 12.5362 11.9029C12.8332 12.2471 13.1969 12.534 13.4496 12.7141L13.5 12.75L13.5504 12.7141C13.8031 12.534 14.1668 12.2471 14.4638 11.9029C14.8196 11.4907 15 11.0908 15 10.7142C15 10.1825 14.6077 9.75 14.1254 9.75Z" fill="#F9C41F"/>
<path d="M0 3C0 2.58579 0.335787 2.25 0.75 2.25H9C9.41421 2.25 9.75 2.58579 9.75 3V10.4375C9.75 10.8517 9.41421 11.1875 9 11.1875H6.5V12.3784C6.5 13.0228 5.74106 13.3672 5.25612 12.9429L3.25 11.1875H0.75C0.335786 11.1875 0 10.8517 0 10.4375V3Z" fill="white"/>
<path fill-rule="evenodd" clip-rule="evenodd" d="M3.8136 9.6875L5 10.7256V9.6875H8.25V3.75H1.5V9.6875H3.8136ZM0.75 2.25C0.335787 2.25 0 2.58579 0 3V10.4375C0 10.8517 0.335786 11.1875 0.75 11.1875H3.25L5.25612 12.9429C5.74106 13.3672 6.5 13.0228 6.5 12.3784V11.1875H9C9.41421 11.1875 9.75 10.8517 9.75 10.4375V3C9.75 2.58579 9.41421 2.25 9 2.25H0.75Z" fill="#7A7A7A"/>
<path fill-rule="evenodd" clip-rule="evenodd" d="M5.98009 6.08817C6.03396 6.14204 6.065 6.21509 6.065 6.29348C6.065 6.40656 6.00031 6.50583 5.90392 6.55435C5.92401 6.59439 5.93457 6.63861 5.93457 6.68478C5.93457 6.798 5.86974 6.89726 5.77335 6.94578C5.80322 7.00526 5.81196 7.07374 5.79696 7.1417C5.76775 7.27382 5.64344 7.36956 5.5014 7.36956H4.30413C4.21857 7.36956 4.08422 7.34256 3.97805 7.29248V5.89447L3.9937 5.88652L4.36935 5.07274V4.63043C4.36935 4.61061 4.37835 4.59183 4.39374 4.57943C4.39384 4.57936 4.39398 4.57926 4.39416 4.57912C4.40228 4.57292 4.49774 4.5 4.63022 4.5C4.78113 4.5 5.02152 4.73882 5.02152 5.02174C5.02152 5.20017 4.95761 5.4223 4.9177 5.54347H5.72339C5.89896 5.54347 6.04831 5.67339 6.06357 5.83917C6.07205 5.93217 6.04101 6.02152 5.98009 6.08817ZM2.93457 6.13043C2.93457 5.9507 3.08092 5.80435 3.26066 5.80435H3.84761V7.434C3.79296 7.47522 3.7254 7.5 3.65196 7.5H3.26066C3.08092 7.5 2.93457 7.35365 2.93457 7.17391V6.13043Z" fill="#F9C41F"/>
</svg>
