<svg width="26" height="26" viewBox="0 0 26 26" fill="none" xmlns="http://www.w3.org/2000/svg">
<g clip-path="url(#clip0_706_41308)">
<path d="M25.6765 13.3147C25.6765 20.3209 19.9969 26.0007 12.9907 26.0007C5.98445 26.0007 0.304688 20.3209 0.304688 13.3147C0.304688 6.30847 5.98445 0.628906 12.9907 0.628906C19.9969 0.628906 25.6765 6.30847 25.6765 13.3147Z" fill="#FDD33A"/>
<path d="M13.1289 9.78906H6.73364C3.81511 9.78906 1.44922 12.155 1.44922 15.0735C1.44922 17.1847 2.68741 19.0067 4.47705 19.8531C5.19572 20.1931 5.65672 20.9139 5.65672 21.709V22.8426C5.65672 23.2737 6.21373 23.4454 6.45633 23.0894L7.70821 21.2533C8.09026 20.6931 8.72443 20.3579 9.40244 20.3579H13.1289C16.0474 20.3579 18.4133 17.992 18.4133 15.0735C18.4131 12.155 16.0472 9.78906 13.1289 9.78906Z" fill="#F8FAFD"/>
<path d="M6.4964 19.8531C4.70676 19.0067 3.46857 17.1847 3.46857 15.0735C3.46857 12.155 5.83446 9.78906 8.75299 9.78906H6.73364C3.81511 9.78906 1.44922 12.155 1.44922 15.0735C1.44922 17.1847 2.68721 19.0067 4.47685 19.8531C5.19572 20.1931 5.65653 20.9139 5.65653 21.709V22.8426C5.65653 23.2737 6.21353 23.4454 6.45633 23.0894L7.64275 21.3491C7.5269 20.7017 7.10458 20.1407 6.4964 19.8531Z" fill="#DDDDDD"/>
<path d="M7.32982 15.1748C7.32982 15.7135 6.89322 16.1503 6.35446 16.1503C5.8157 16.1503 5.37891 15.7135 5.37891 15.1748C5.37891 14.636 5.8157 14.1992 6.35446 14.1992C6.89322 14.1992 7.32982 14.636 7.32982 15.1748Z" fill="#7956BA"/>
<path d="M10.9062 15.1748C10.9062 15.7135 10.4694 16.1503 9.93063 16.1503C9.39188 16.1503 8.95508 15.7135 8.95508 15.1748C8.95508 14.636 9.39188 14.1992 9.93063 14.1992C10.4694 14.1992 10.9062 14.636 10.9062 15.1748Z" fill="#7956BA"/>
<path d="M14.4843 15.1748C14.4843 15.7135 14.0475 16.1503 13.5088 16.1503C12.97 16.1503 12.5332 15.7135 12.5332 15.1748C12.5332 14.636 12.97 14.1992 13.5088 14.1992C14.0475 14.1992 14.4843 14.636 14.4843 15.1748Z" fill="#7956BA"/>
<path d="M12.8118 0H19.2068C22.1254 0 24.4913 2.36589 24.4913 5.28442C24.4913 7.39561 23.2533 9.21739 21.4636 10.064C20.7448 10.404 20.284 11.1249 20.284 11.9199V13.0536C20.284 13.4844 19.7269 13.6564 19.4841 13.3003L18.2323 11.4641C17.8504 10.9039 17.2162 10.5688 16.538 10.5688H12.8118C9.89323 10.5688 7.52734 8.20296 7.52734 5.28442C7.52734 2.36589 9.89323 0 12.8118 0Z" fill="#F84E82"/>
<path d="M18.7129 9.89633H14.9864C12.0679 9.89633 9.70201 7.53024 9.70201 4.61191C9.70201 2.68797 10.7303 1.00426 12.2673 0.0800781C9.60461 0.352631 7.52734 2.60208 7.52734 5.33673C7.52734 8.25526 9.89323 10.6212 12.8118 10.6212H16.5382C17.2162 10.6212 17.8504 10.9564 18.2323 11.5166L19.4841 13.3526C19.7269 13.7087 20.284 13.5369 20.284 13.1059V11.9722C20.284 11.6195 20.375 11.2815 20.5389 10.9848L20.4069 10.7917C20.0251 10.2314 19.3909 9.89633 18.7129 9.89633Z" fill="#DD3A71"/>
<path d="M20.5624 5.38571C20.5624 5.92447 20.1256 6.36127 19.5869 6.36127C19.0481 6.36127 18.6113 5.92447 18.6113 5.38571C18.6113 4.84695 19.0481 4.41016 19.5869 4.41016C20.1256 4.41016 20.5624 4.84695 20.5624 5.38571Z" fill="#F8FAFD"/>
<path d="M16.9841 5.38571C16.9841 5.92447 16.5475 6.36127 16.0088 6.36127C15.47 6.36127 15.0332 5.92447 15.0332 5.38571C15.0332 4.84695 15.47 4.41016 16.0088 4.41016C16.5475 4.41016 16.9841 4.84695 16.9841 5.38571Z" fill="#F8FAFD"/>
<path d="M13.4081 5.38571C13.4081 5.92447 12.9713 6.36127 12.4326 6.36127C11.8938 6.36127 11.457 5.92447 11.457 5.38571C11.457 4.84695 11.8938 4.41016 12.4326 4.41016C12.9713 4.41016 13.4081 4.84695 13.4081 5.38571Z" fill="#F8FAFD"/>
</g>
<defs>
<clipPath id="clip0_706_41308">
<rect width="26" height="26" fill="white"/>
</clipPath>
</defs>
</svg>
