<svg width="24" height="24" viewBox="0 0 24 24" fill="none" xmlns="http://www.w3.org/2000/svg">
<path d="M12 0.000488281C5.37275 0.000488281 0 5.37251 0 12C0 18.6273 5.37275 23.9995 12 23.9995C18.6273 23.9995 24 18.627 24 11.9998C24 5.37251 18.6273 0.000488281 12 0.000488281ZM16.6184 17.6994C16.4242 17.6994 16.2917 17.6323 16.1104 17.5216C14.3712 16.4693 12.2023 15.9162 9.9016 15.9162C8.61733 15.9162 7.32501 16.0814 6.11637 16.3327C5.91998 16.3754 5.67308 16.4508 5.52474 16.4508C5.06925 16.4508 4.76575 16.0892 4.76575 15.6964C4.76575 15.1929 5.05607 14.9411 5.41837 14.872C6.9005 14.5341 8.37653 14.3412 9.90965 14.3412C12.5353 14.3412 14.8755 14.944 16.8892 16.1509C17.1888 16.3259 17.3642 16.5045 17.3642 16.9487C17.3645 17.3818 17.0126 17.6994 16.6184 17.6994ZM17.9258 14.5234C17.6655 14.5234 17.5018 14.418 17.3244 14.3151C15.3727 13.1567 12.667 12.3872 9.70471 12.3872C8.18526 12.3872 6.87366 12.6002 5.78823 12.8893C5.55426 12.9539 5.42325 13.0232 5.20416 13.0232C4.68841 13.0232 4.26682 12.6021 4.26682 12.0825C4.26682 11.5723 4.51446 11.2215 5.01313 11.081C6.36205 10.7101 7.74001 10.4249 9.74472 10.4249C12.8859 10.4249 15.9245 11.2071 18.3133 12.6368C18.7139 12.8659 18.8612 13.1581 18.8612 13.5851C18.8612 14.1038 18.4474 14.5234 17.9258 14.5234ZM19.4145 10.8297C19.1706 10.8297 19.0254 10.7701 18.7966 10.6447C16.625 9.34242 13.2538 8.62538 9.99431 8.62538C8.36701 8.62538 6.71459 8.79104 5.20075 9.20164C5.02631 9.24531 4.80649 9.33266 4.58569 9.33266C3.94551 9.33266 3.45415 8.82617 3.45415 8.18623C3.45415 7.53385 3.85817 7.16789 4.2939 7.03932C6.00464 6.53552 7.91396 6.30082 9.98967 6.30082C13.5134 6.30082 17.2208 7.02566 19.9286 8.61562C20.2936 8.82275 20.5466 9.13431 20.5466 9.70569C20.5461 10.3595 20.0206 10.8297 19.4145 10.8297Z" fill="#222222"/>
</svg>
