<svg width="20" height="18" viewBox="0 0 20 18" fill="none" xmlns="http://www.w3.org/2000/svg">
<path fill-rule="evenodd" clip-rule="evenodd" d="M18.4294 0.545898H1.84841C1.28776 0.545898 0.833252 1.0004 0.833252 1.56106V1.56107C0.833252 2.12172 1.28776 2.57623 1.84841 2.57623H7.26012L10.544 7.82943C10.1896 8.16828 9.96891 8.64573 9.96891 9.17472C9.96891 9.4992 10.0519 9.80428 10.1979 10.0699L5.80984 16.1117H4.72407C4.25685 16.1117 3.8781 16.4905 3.8781 16.9577C3.8781 17.4249 4.25685 17.8036 4.72407 17.8036H18.5979C19.0652 17.8036 19.4439 17.4249 19.4439 16.9577C19.4439 16.4905 19.0652 16.1117 18.5979 16.1117H17.761L13.3459 10.2548C13.5633 9.95024 13.6912 9.57742 13.6912 9.17472C13.6912 8.56384 13.3969 8.0217 12.9423 7.68236L16.0092 2.57623H18.4294C18.9901 2.57623 19.4446 2.12172 19.4446 1.56106C19.4446 1.0004 18.9901 0.545898 18.4294 0.545898ZM11.7658 7.31468L14.6118 2.57623H8.6728L11.6402 7.32316C11.6816 7.31895 11.7235 7.31611 11.7658 7.31468ZM12.3738 10.9552C12.2018 11.0076 12.0192 11.0359 11.83 11.0359C11.5664 11.0359 11.3156 10.9811 11.0884 10.8822L7.29034 16.1117H16.2609L12.3738 10.9552Z" fill="#4E4E4E"/>
</svg>
