<svg width="24" height="24" viewBox="0 0 24 24" fill="none" xmlns="http://www.w3.org/2000/svg">
<path d="M22.7805 4.73145H18.3963C17.7226 4.73145 17.1767 5.27695 17.1767 5.95078V9.11607H14.0115C13.3376 9.11607 12.7917 9.66138 12.7917 10.3353V13.5008H9.62645C8.95262 13.5008 8.40692 14.0469 8.40692 14.72V18.0379H5.0897C4.76602 18.0379 4.45584 18.1663 4.22724 18.3947C3.99844 18.6232 3.87012 18.9348 3.87012 19.2572L3.87051 21.8083C3.87051 22.4828 4.41661 23.0282 5.09005 23.0282H22.7805C23.4544 23.0282 24 22.4828 24 21.8083V5.95073C24.0001 5.27695 23.4544 4.73145 22.7805 4.73145Z" fill="white"/>
<path fill-rule="evenodd" clip-rule="evenodd" d="M19.1767 11.1161H14.7917V15.5008H10.4069V20.0379H5.87024L5.87039 21.0282H22V6.73145H19.1767V11.1161ZM3.87012 19.2572C3.87012 18.9348 3.99844 18.6232 4.22724 18.3947C4.45584 18.1663 4.76602 18.0379 5.0897 18.0379H8.40692V14.72C8.40692 14.0469 8.95262 13.5008 9.62645 13.5008H12.7917V10.3353C12.7917 9.66138 13.3376 9.11607 14.0115 9.11607H17.1767V5.95078C17.1767 5.27695 17.7226 4.73145 18.3963 4.73145H22.7805C23.4544 4.73145 24.0001 5.27695 24 5.95073V21.8083C24 22.4828 23.4544 23.0282 22.7805 23.0282H5.09005C4.41661 23.0282 3.87051 22.4828 3.87051 21.8083L3.87012 19.2572Z" fill="#222222"/>
<circle cx="18.5" cy="17.5" r="2.5" fill="#F9C41F"/>
<path d="M16.3625 1.21724C16.0487 0.895487 15.5346 0.889303 15.213 1.20235C9.99775 6.28273 5.03625 11.2448 0.238248 16.0424C0.0855832 16.195 0 16.4024 0 16.6177V22.1816C0 22.63 0.363852 22.9948 0.812991 22.9948C1.26168 22.9948 1.62618 22.6301 1.62618 22.1816V16.9541C6.34632 12.2338 11.2263 7.35633 16.3474 2.36683C16.6688 2.05383 16.6754 1.5388 16.3625 1.21724Z" fill="#222222"/>
</svg>
