<svg width="113" height="20" viewBox="0 0 113 20" fill="none" xmlns="http://www.w3.org/2000/svg">
<path d="M4.53711 19.1973C4.89746 19.4785 5.35449 19.3818 5.89941 18.9863L10.5488 15.5674L15.207 18.9863C15.752 19.3818 16.2002 19.4785 16.5693 19.1973C16.9297 18.9248 17.0088 18.4766 16.7891 17.835L14.9521 12.3682L19.6455 8.99316C20.1904 8.60645 20.4102 8.20215 20.2695 7.7627C20.1289 7.34082 19.7158 7.12988 19.0391 7.13867L13.2822 7.17383L11.5332 1.68066C11.3223 1.03027 11.0059 0.705078 10.5488 0.705078C10.1006 0.705078 9.78418 1.03027 9.57324 1.68066L7.82422 7.17383L2.06738 7.13867C1.39062 7.12988 0.977539 7.34082 0.836914 7.7627C0.6875 8.20215 0.916016 8.60645 1.46094 8.99316L6.1543 12.3682L4.31738 17.835C4.09766 18.4766 4.17676 18.9248 4.53711 19.1973ZM27.6523 19.1973C28.0127 19.4785 28.4697 19.3818 29.0146 18.9863L33.6641 15.5674L38.3223 18.9863C38.8672 19.3818 39.3154 19.4785 39.6846 19.1973C40.0449 18.9248 40.124 18.4766 39.9043 17.835L38.0674 12.3682L42.7607 8.99316C43.3057 8.60645 43.5254 8.20215 43.3848 7.7627C43.2441 7.34082 42.8311 7.12988 42.1543 7.13867L36.3975 7.17383L34.6484 1.68066C34.4375 1.03027 34.1211 0.705078 33.6641 0.705078C33.2158 0.705078 32.8994 1.03027 32.6885 1.68066L30.9395 7.17383L25.1826 7.13867C24.5059 7.12988 24.0928 7.34082 23.9521 7.7627C23.8027 8.20215 24.0312 8.60645 24.5762 8.99316L29.2695 12.3682L27.4326 17.835C27.2129 18.4766 27.292 18.9248 27.6523 19.1973ZM50.7676 19.1973C51.1279 19.4785 51.585 19.3818 52.1299 18.9863L56.7793 15.5674L61.4375 18.9863C61.9824 19.3818 62.4307 19.4785 62.7998 19.1973C63.1602 18.9248 63.2393 18.4766 63.0195 17.835L61.1826 12.3682L65.876 8.99316C66.4209 8.60645 66.6406 8.20215 66.5 7.7627C66.3594 7.34082 65.9463 7.12988 65.2695 7.13867L59.5127 7.17383L57.7637 1.68066C57.5527 1.03027 57.2363 0.705078 56.7793 0.705078C56.3311 0.705078 56.0146 1.03027 55.8037 1.68066L54.0547 7.17383L48.2979 7.13867C47.6211 7.12988 47.208 7.34082 47.0674 7.7627C46.918 8.20215 47.1465 8.60645 47.6914 8.99316L52.3848 12.3682L50.5479 17.835C50.3281 18.4766 50.4072 18.9248 50.7676 19.1973ZM73.8828 19.1973C74.2432 19.4785 74.7002 19.3818 75.2451 18.9863L79.8945 15.5674L84.5527 18.9863C85.0977 19.3818 85.5459 19.4785 85.915 19.1973C86.2754 18.9248 86.3545 18.4766 86.1348 17.835L84.2979 12.3682L88.9912 8.99316C89.5361 8.60645 89.7559 8.20215 89.6152 7.7627C89.4746 7.34082 89.0615 7.12988 88.3848 7.13867L82.6279 7.17383L80.8789 1.68066C80.668 1.03027 80.3516 0.705078 79.8945 0.705078C79.4463 0.705078 79.1299 1.03027 78.9189 1.68066L77.1699 7.17383L71.4131 7.13867C70.7363 7.12988 70.3232 7.34082 70.1826 7.7627C70.0332 8.20215 70.2617 8.60645 70.8066 8.99316L75.5 12.3682L73.6631 17.835C73.4434 18.4766 73.5225 18.9248 73.8828 19.1973ZM79.8945 14.0557V2.84082C79.9209 2.84082 79.9385 2.8584 79.9473 2.91113L81.4766 8C81.5908 8.36035 81.8193 8.50977 82.1797 8.50098L87.4971 8.4043C87.5498 8.4043 87.5674 8.4043 87.5762 8.43066C87.585 8.45703 87.5674 8.47461 87.5322 8.50098L83.1553 11.5244C82.8477 11.7354 82.7773 12.0078 82.9004 12.3506L84.6494 17.3779C84.6582 17.4307 84.667 17.4395 84.6494 17.457C84.6318 17.4834 84.6055 17.4658 84.5703 17.4395L80.3428 14.2139C80.2021 14.1084 80.0527 14.0469 79.8945 14.0557ZM96.998 19.1973C97.3584 19.4785 97.8154 19.3818 98.3604 18.9863L103.01 15.5674L107.668 18.9863C108.213 19.3818 108.661 19.4785 109.03 19.1973C109.391 18.9248 109.47 18.4766 109.25 17.835L107.413 12.3682L112.106 8.99316C112.651 8.60645 112.871 8.20215 112.73 7.7627C112.59 7.34082 112.177 7.12988 111.5 7.13867L105.743 7.17383L103.994 1.68066C103.783 1.03027 103.467 0.705078 103.01 0.705078C102.562 0.705078 102.245 1.03027 102.034 1.68066L100.285 7.17383L94.5283 7.13867C93.8516 7.12988 93.4385 7.34082 93.2979 7.7627C93.1484 8.20215 93.377 8.60645 93.9219 8.99316L98.6152 12.3682L96.7783 17.835C96.5586 18.4766 96.6377 18.9248 96.998 19.1973ZM98.2637 17.457C98.2461 17.4395 98.2549 17.4307 98.2637 17.3779L100.013 12.3506C100.136 12.0078 100.065 11.7354 99.7578 11.5244L95.3809 8.50098C95.3369 8.47461 95.3281 8.45703 95.3369 8.43066C95.3457 8.4043 95.3633 8.4043 95.416 8.4043L100.733 8.50098C101.094 8.50977 101.322 8.36035 101.437 8L102.966 2.91113C102.975 2.8584 102.992 2.84082 103.01 2.84082C103.036 2.84082 103.054 2.8584 103.062 2.91113L104.592 8C104.706 8.36035 104.935 8.50977 105.295 8.50098L110.612 8.4043C110.665 8.4043 110.683 8.4043 110.691 8.43066C110.7 8.45703 110.683 8.47461 110.647 8.50098L106.271 11.5244C105.963 11.7354 105.893 12.0078 106.016 12.3506L107.765 17.3779C107.773 17.4307 107.782 17.4395 107.765 17.457C107.747 17.4834 107.721 17.4658 107.686 17.4395L103.458 14.2139C103.177 13.9941 102.852 13.9941 102.57 14.2139L98.3428 17.4395C98.3076 17.4658 98.2812 17.4834 98.2637 17.457Z" fill="#F9C41F"/>
</svg>
