<svg width="18" height="18" viewBox="0 0 18 18" fill="none" xmlns="http://www.w3.org/2000/svg">
<path fill-rule="evenodd" clip-rule="evenodd" d="M9.59527 1.86736L11.5253 5.74986C11.6219 5.94569 11.8086 6.08236 12.0253 6.11402L16.3461 6.73819C16.5211 6.76152 16.6786 6.85319 16.7861 6.99319C16.9878 7.25569 16.9569 7.62736 16.7153 7.85319L13.5836 10.8815C13.4244 11.0315 13.3536 11.2515 13.3953 11.4657L14.1453 15.739C14.1978 16.0932 13.9561 16.4249 13.6019 16.4824C13.4553 16.5049 13.3053 16.4815 13.1719 16.4157L9.3236 14.3982C9.13027 14.2932 8.8986 14.2932 8.70527 14.3982L4.8286 16.4265C4.50444 16.5915 4.10777 16.469 3.9311 16.1515C3.8636 16.0232 3.84027 15.8774 3.8636 15.7349L4.6136 11.4615C4.6511 11.2482 4.58027 11.029 4.42527 10.8782L1.27694 7.85069C1.02027 7.59569 1.0186 7.18069 1.27444 6.92403C1.27527 6.92319 1.2761 6.92153 1.27694 6.92069C1.38277 6.82486 1.51277 6.76069 1.6536 6.73569L5.97527 6.11153C6.1911 6.07736 6.37694 5.94236 6.47527 5.74652L8.4036 1.86736C8.4811 1.70986 8.6186 1.58903 8.78527 1.53403C8.95277 1.47819 9.1361 1.49153 9.2936 1.57069C9.42277 1.63486 9.5286 1.73903 9.59527 1.86736Z" fill="white" stroke="#222222" stroke-width="1.66667" stroke-linecap="round" stroke-linejoin="round"/>
</svg>
