<svg width="18" height="18" viewBox="0 0 18 18" fill="none" xmlns="http://www.w3.org/2000/svg">
<path d="M6.75391 0V1.50154H8.25545V2.2523C8.78097 2.17723 9.23143 2.17723 9.75699 2.2523V1.50154H11.2585V0H6.75391Z" fill="#FF8800"/>
<path d="M14.113 4.95484L14.6385 4.42932L15.2391 5.02994L16.2902 3.97886L14.0379 1.72656L12.9868 2.77765L13.5875 3.37823L12.9118 4.05392C9.3081 1.87669 4.65335 3.00284 2.55122 6.60651C0.449085 10.2102 1.5752 14.7148 5.10381 16.892C8.63242 19.0692 13.2871 17.9431 15.3893 14.3394C17.2662 11.2613 16.7407 7.3573 14.113 4.95484ZM9.00778 15.6908C6.07979 15.6908 3.75243 13.3634 3.75243 10.4355C3.75243 7.50747 6.07979 5.18007 9.00778 5.18007V10.4354H14.2631C14.2632 13.3634 11.9358 15.6908 9.00778 15.6908Z" fill="#FF8800"/>
</svg>
