<svg width="20" height="20" viewBox="0 0 20 20" fill="none" xmlns="http://www.w3.org/2000/svg">
<path d="M3.09637 6.90332H0.585938C0.262344 6.90332 0 7.16566 0 7.48926V13.7653C0 14.0889 0.262344 14.3513 0.585938 14.3513H3.09637C3.41996 14.3513 3.6823 14.0889 3.6823 13.7653V7.48926C3.6823 7.16566 3.41996 6.90332 3.09637 6.90332Z" fill="#222222"/>
<path d="M14.0795 13.6826C14.403 13.6826 14.6654 13.4203 14.6654 13.0967V11.7998H14.707C15.0306 11.7998 15.293 11.5375 15.293 11.2139C15.293 10.8903 15.0306 10.628 14.707 10.628H14.6654V7.44827C14.6654 7.21132 14.5227 6.99765 14.3037 6.90694C14.0848 6.81624 13.8328 6.86632 13.6652 7.0339C13.6652 7.0339 11.8358 8.86269 10.9684 9.72941C10.5789 10.1211 10.3555 10.6622 10.3555 11.2139C10.3555 11.5375 10.6178 11.7998 10.9414 11.7998H13.4935V13.0967C13.4935 13.4203 13.7558 13.6826 14.0795 13.6826ZM11.7346 10.628C11.7545 10.6033 11.7757 10.5796 11.798 10.5571C12.2369 10.1185 12.9233 9.43249 13.4935 8.86249V10.628H11.7346Z" fill="#222222"/>
<path d="M9.33035 13.0967C9.33035 12.7731 9.06801 12.5107 8.74441 12.5107H6.39961C6.41949 12.4861 6.44066 12.4623 6.46305 12.4398C7.32918 11.5743 9.15867 9.74543 9.15867 9.74543C9.26859 9.63555 9.33039 9.48648 9.33039 9.33105V9.01727C9.33039 7.82902 8.36371 6.8623 7.17547 6.8623C5.97594 6.8623 5.02051 7.83395 5.02051 9.0166V9.01723C5.02051 9.34082 5.28285 9.60285 5.60645 9.60285C5.93004 9.60285 6.19238 9.3402 6.19238 9.0166C6.19238 8.47906 6.6252 8.03418 7.17547 8.03418C7.71754 8.03418 8.15852 8.4752 8.15852 9.01727V9.08828C7.6834 9.56324 6.33961 10.9065 5.63344 11.6122C5.24387 12.0039 5.02051 12.545 5.02051 13.0967C5.02051 13.4203 5.28285 13.6826 5.60645 13.6826H8.74445C9.06801 13.6826 9.33035 13.4203 9.33035 13.0967Z" fill="#222222"/>
<path d="M10.0004 1.17188C12.9413 1.17188 15.4192 3.19172 16.12 5.91699C16.3562 5.79871 16.6224 5.73176 16.9041 5.73176H17.2812C16.4881 2.44734 13.5249 0 10.0004 0C6.47593 0 3.51273 2.44734 2.71973 5.73176H3.0968C3.37848 5.73176 3.64465 5.79871 3.8809 5.91699C4.5816 3.19172 7.05957 1.17188 10.0004 1.17188Z" fill="#222222"/>
<path d="M16.0054 15.2754C15.4197 16.6257 14.0738 17.5727 12.5107 17.5727H11.7454C11.5 16.8439 10.8107 16.3175 10.0004 16.3175C8.98516 16.3175 8.15918 17.1434 8.15918 18.1586C8.15918 19.1738 8.98512 19.9997 10.0003 19.9997C10.8107 19.9997 11.5 19.4732 11.7453 18.7445H12.5107C14.6377 18.7445 16.4572 17.4038 17.1691 15.5232H16.9039C16.5758 15.5232 16.2686 15.4325 16.0054 15.2754Z" fill="#222222"/>
<path d="M19.4137 6.90332H16.9033C16.5797 6.90332 16.3174 7.16566 16.3174 7.48926V13.7653C16.3174 14.0889 16.5797 14.3513 16.9033 14.3513H19.4137C19.7373 14.3513 19.9997 14.0889 19.9997 13.7653V7.48926C19.9997 7.16566 19.7373 6.90332 19.4137 6.90332Z" fill="#222222"/>
</svg>
