<svg width="20" height="20" viewBox="0 0 20 20" fill="none" xmlns="http://www.w3.org/2000/svg">
<path d="M19.6594 5.03957C17.0801 2.32715 13.6495 0.833008 9.99998 0.833008C6.35045 0.833008 2.91986 2.32715 0.340606 5.03957C-0.113535 5.51726 -0.113535 6.29406 0.340606 6.77175L2.26225 8.79242C2.71479 9.26687 3.51404 9.26687 3.96654 8.79242C4.61033 8.11574 5.34041 7.55871 6.13479 7.13878C6.5328 6.93332 6.78998 6.50156 6.78674 6.09386L7.07651 3.90394C9.20241 3.22441 10.8196 3.22484 12.9244 3.90355L13.2109 6.03898C13.2109 6.50082 13.4559 6.92238 13.8563 7.1425C14.6539 7.56445 15.3848 8.12152 16.0286 8.79777C16.2541 9.03581 16.5569 9.16644 16.8808 9.16644C17.2047 9.16644 17.5075 9.03581 17.7329 8.7982L19.6594 6.77183C20.1135 6.29402 20.1135 5.51726 19.6594 5.03957Z" fill="#222222"/>
<path d="M15.4209 8.6027C15.0579 7.92238 14.3532 7.5 13.5825 7.5H6.41617C5.64551 7.5 4.94074 7.92238 4.57777 8.6027L1.91098 13.6031C1.75066 13.9042 1.66602 14.2432 1.66602 14.5834V17.5C1.66602 18.4192 2.41391 19.1667 3.3327 19.1667H16.666C17.5848 19.1667 18.3327 18.4192 18.3327 17.5V14.5833C18.3327 14.2432 18.2481 13.9042 18.0877 13.6027L15.4209 8.6027ZM7.49852 16.6667C7.03871 16.6667 6.6652 16.2927 6.6652 15.8334C6.6652 15.374 7.03875 15 7.49852 15C7.95832 15 8.33184 15.374 8.33184 15.8334C8.33188 16.2927 7.95832 16.6667 7.49852 16.6667ZM7.49852 14.1667C7.03871 14.1667 6.6652 13.7927 6.6652 13.3334C6.6652 12.874 7.03875 12.5 7.49852 12.5C7.95832 12.5 8.33184 12.874 8.33184 13.3334C8.33188 13.7927 7.95832 14.1667 7.49852 14.1667ZM7.49852 11.6667C7.03871 11.6667 6.6652 11.2927 6.6652 10.8334C6.6652 10.374 7.03875 10 7.49852 10C7.95832 10 8.33184 10.374 8.33184 10.8334C8.33188 11.2927 7.95832 11.6667 7.49852 11.6667ZM9.99934 16.6667C9.53953 16.6667 9.16602 16.2927 9.16602 15.8334C9.16602 15.374 9.53957 15 9.99934 15C10.4591 15 10.8327 15.374 10.8327 15.8334C10.8327 16.2927 10.4591 16.6667 9.99934 16.6667ZM9.99934 14.1667C9.53953 14.1667 9.16602 13.7927 9.16602 13.3334C9.16602 12.874 9.53957 12.5 9.99934 12.5C10.4591 12.5 10.8327 12.874 10.8327 13.3334C10.8327 13.7927 10.4591 14.1667 9.99934 14.1667ZM9.99934 11.6667C9.53953 11.6667 9.16602 11.2927 9.16602 10.8334C9.16602 10.374 9.53957 10 9.99934 10C10.4591 10 10.8327 10.374 10.8327 10.8334C10.8327 11.2927 10.4591 11.6667 9.99934 11.6667ZM12.4985 16.6667C12.0387 16.6667 11.6652 16.2927 11.6652 15.8334C11.6652 15.374 12.0388 15 12.4985 15C12.9583 15 13.3318 15.374 13.3318 15.8334C13.3319 16.2927 12.9583 16.6667 12.4985 16.6667ZM12.4985 14.1667C12.0387 14.1667 11.6652 13.7927 11.6652 13.3334C11.6652 12.874 12.0388 12.5 12.4985 12.5C12.9583 12.5 13.3318 12.874 13.3318 13.3334C13.3319 13.7927 12.9583 14.1667 12.4985 14.1667ZM12.4985 11.6667C12.0387 11.6667 11.6652 11.2927 11.6652 10.8334C11.6652 10.374 12.0388 10 12.4985 10C12.9583 10 13.3318 10.374 13.3318 10.8334C13.3319 11.2927 12.9583 11.6667 12.4985 11.6667Z" fill="#222222"/>
</svg>
