<svg width="16" height="18" viewBox="0 0 16 18" fill="none" xmlns="http://www.w3.org/2000/svg">
<path d="M8.59618 8.50781H7.40382C6.58813 8.87407 6.06641 9.67591 6.06641 10.5768V10.7944C6.50741 10.4626 7.05532 10.2656 7.64844 10.2656H8.35156C8.94468 10.2656 9.49259 10.4626 9.93359 10.7944V10.5768C9.93359 9.67591 9.41188 8.87407 8.59618 8.50781Z" fill="#FF8800"/>
<path d="M7.404 7.45312H8.59635C9.3167 7.12969 9.80751 6.46643 9.91245 5.69531H6.08789C6.19283 6.46643 6.68365 7.12969 7.404 7.45312Z" fill="#FF8800"/>
<path d="M8.35105 11.3203H7.64793C6.96041 11.3203 6.3739 11.7611 6.15625 12.375H9.84273C9.62508 11.7611 9.03857 11.3203 8.35105 11.3203Z" fill="#FF8800"/>
<path d="M6.06641 3.58594H9.93359V4.64062H6.06641V3.58594Z" fill="#FF8800"/>
<path d="M15.2271 1.44397C12.8317 0.485824 10.4002 0 8 0C5.59981 0 3.16827 0.485824 0.772895 1.44397C0.57268 1.52406 0.441406 1.71795 0.441406 1.93359V8.02245C0.441406 10.2745 1.15198 12.4199 2.49632 14.2267C3.84063 16.0336 5.69139 17.3306 7.84848 17.9777C7.89791 17.9926 7.94895 18 8 18C8.05105 18 8.10209 17.9926 8.15152 17.9777C10.3086 17.3306 12.1594 16.0335 13.5037 14.2267C14.848 12.4199 15.5586 10.2745 15.5586 8.02245V1.93359C15.5586 1.71795 15.4273 1.52406 15.2271 1.44397ZM10.9883 10.5768V12.375H11.1641C11.4553 12.375 11.6914 12.6111 11.6914 12.9023C11.6914 13.1936 11.4553 13.4297 11.1641 13.4297H4.83594C4.5447 13.4297 4.30859 13.1936 4.30859 12.9023C4.30859 12.6111 4.5447 12.375 4.83594 12.375H5.01172V10.5768C5.01172 9.54341 5.48067 8.59922 6.2578 7.98047C5.48067 7.36175 5.01172 6.41753 5.01172 5.38411V3.58594H4.83594C4.5447 3.58594 4.30859 3.34983 4.30859 3.05859C4.30859 2.76736 4.5447 2.53125 4.83594 2.53125H11.1641C11.4553 2.53125 11.6914 2.76736 11.6914 3.05859C11.6914 3.34983 11.4553 3.58594 11.1641 3.58594H10.9883V5.38411C10.9883 6.41753 10.5193 7.36172 9.7422 7.98047C10.5193 8.59918 10.9883 9.54341 10.9883 10.5768Z" fill="#FF8800"/>
</svg>
