<svg width="24" height="24" viewBox="0 0 24 24" fill="none" xmlns="http://www.w3.org/2000/svg">
<path d="M22 11H2V21H22V11Z" fill="white"/>
<path d="M12 7C13.1046 7 14 6.10457 14 5C14 3.89543 13.1046 3 12 3C10.8954 3 10 3.89543 10 5C10 6.10457 10.8954 7 12 7Z" fill="white"/>
<path d="M9.84487 5.54483L4.35205 10.2461L5.65254 11.7655L11.1454 7.06428L9.84487 5.54483Z" fill="#F9C41F"/>
<path d="M14.1574 5.54425L12.8567 7.06348L18.3487 11.7657L19.6494 10.2465L14.1574 5.54425Z" fill="#F9C41F"/>
<path d="M23 22H1V10H23V22ZM3 20H21V12H3V20Z" fill="#4E4E4E"/>
<path d="M12 8C11.4067 8 10.8266 7.82405 10.3333 7.49441C9.83994 7.16477 9.45543 6.69623 9.22836 6.14805C9.0013 5.59987 8.94189 4.99667 9.05765 4.41473C9.1734 3.83279 9.45912 3.29824 9.87868 2.87868C10.2982 2.45912 10.8328 2.1734 11.4147 2.05765C11.9967 1.94189 12.5999 2.0013 13.1481 2.22836C13.6962 2.45543 14.1648 2.83994 14.4944 3.33329C14.8241 3.82664 15 4.40666 15 5C15 5.79565 14.6839 6.55871 14.1213 7.12132C13.5587 7.68393 12.7957 8 12 8ZM12 4C11.8022 4 11.6089 4.05865 11.4444 4.16853C11.28 4.27841 11.1518 4.43459 11.0761 4.61732C11.0004 4.80004 10.9806 5.00111 11.0192 5.19509C11.0578 5.38907 11.153 5.56726 11.2929 5.70711C11.4327 5.84696 11.6109 5.9422 11.8049 5.98079C11.9989 6.01937 12.2 5.99957 12.3827 5.92388C12.5654 5.84819 12.7216 5.72002 12.8315 5.55557C12.9414 5.39112 13 5.19778 13 5C13 4.73478 12.8946 4.48043 12.7071 4.29289C12.5196 4.10536 12.2652 4 12 4Z" fill="#4E4E4E"/>
<path d="M19 14H5V18H19V14Z" fill="#F9C41F" fill-opacity="0.2"/>
</svg>
