<svg width="16" height="16" viewBox="0 0 16 16" fill="none" xmlns="http://www.w3.org/2000/svg">
<path d="M7.15664 13.3438C7.23123 13.3438 7.30277 13.3734 7.35551 13.4261C7.40826 13.4789 7.43789 13.5504 7.43789 13.625V14.0103L9.03047 12.2188L7.43789 10.4273V10.8125C7.43789 10.8871 7.40826 10.9586 7.35551 11.0114C7.30277 11.0641 7.23123 11.0938 7.15664 11.0938H3.80161C2.69819 11.0969 1.62416 10.7382 0.744141 10.0725C0.902495 10.9875 1.37858 11.8172 2.08856 12.4155C2.79854 13.0139 3.69688 13.3426 4.62539 13.3438H7.15664Z" fill="#4E4E4E"/>
<path d="M10.8125 3.50001H12.0538L9.96875 1.60452V2.65626C9.96901 2.87995 10.058 3.09441 10.2162 3.25259C10.3743 3.41077 10.5888 3.49975 10.8125 3.50001V3.50001Z" fill="#4E4E4E"/>
<path d="M5.46875 3.78125H4.90625V4.34375H5.46875V3.78125Z" fill="#4E4E4E"/>
<path d="M4.34375 3.78125H3.78125V4.34375H4.34375V3.78125Z" fill="#4E4E4E"/>
<path d="M8.84453 6.03124C8.76994 6.03124 8.6984 6.00161 8.64566 5.94886C8.59291 5.89612 8.56328 5.82458 8.56328 5.74999V5.36475L6.9707 7.15624L8.56328 8.94773V8.56249C8.56328 8.4879 8.59291 8.41636 8.64566 8.36361C8.6984 8.31087 8.76994 8.28124 8.84453 8.28124H12.1996C13.303 8.27805 14.377 8.63678 15.257 9.30246C15.0987 8.38755 14.6226 7.55784 13.9126 6.95946C13.2026 6.36107 12.3043 6.03237 11.3758 6.03124H8.84453Z" fill="#4E4E4E"/>
<path d="M3.78125 3.1113V3.21874H5.46875V3.1113L4.625 2.68942L3.78125 3.1113Z" fill="#4E4E4E"/>
<path d="M9.69122 0.6875C9.75005 0.688569 9.80712 0.707771 9.85463 0.742484C9.86246 0.748106 9.86998 0.75415 9.87716 0.76059L12.9709 3.57309C12.9996 3.59968 13.0226 3.63186 13.0384 3.66766C13.0543 3.70346 13.0626 3.74211 13.063 3.78125V5.79739C13.2566 5.87599 13.4446 5.96803 13.6255 6.07284V1.53125C13.625 1.15842 13.4767 0.800976 13.2131 0.537344C12.9495 0.273711 12.592 0.125419 12.2192 0.125H4.3442C4.16979 0.125225 3.99971 0.179408 3.85731 0.280117C3.71491 0.380825 3.60715 0.523127 3.54883 0.6875H9.69122Z" fill="#4E4E4E"/>
<path d="M11.9375 8.84375V9.40625H10.5312V8.84375H9.96875V9.40625H9.125V9.6875C9.12499 9.74453 9.10765 9.80021 9.07526 9.84715C9.04288 9.8941 8.997 9.93009 8.94369 9.95035C8.89038 9.97062 8.83217 9.9742 8.77678 9.96062C8.72139 9.94704 8.67144 9.91694 8.63355 9.87432L8 9.16163V9.40625H4.34375V8.84375H7.71745L7.21746 8.28125H4.34375V7.71875H6.71746L6.38348 7.34307C6.33767 7.29163 6.31241 7.22513 6.3125 7.15625H4.34375V6.59375H6.71746L7.21746 6.03125H3.21875V5.46875H7.71745L8.21748 4.90625H6.59375V4.34375H9.125V5.46875H11.375C11.7541 5.47416 12.1315 5.52192 12.5 5.61113V4.0625H10.8125C10.4397 4.06208 10.0822 3.91379 9.81859 3.65016C9.55496 3.38652 9.40667 3.02908 9.40625 2.65625V1.25H3.21875C2.99505 1.25026 2.78059 1.33924 2.62242 1.49742C2.46424 1.65559 2.37526 1.87005 2.375 2.09375V10.3027C2.64945 10.3935 2.932 10.4576 3.21875 10.4941V9.96875H3.78125V10.531C3.78793 10.531 3.79454 10.5312 3.80122 10.5312H4.34375V9.96875H6.875V9.6875C6.87501 9.63047 6.89235 9.57479 6.92474 9.52785C6.95712 9.4809 7.003 9.44491 7.05631 9.42465C7.10962 9.40438 7.16783 9.4008 7.22322 9.41438C7.27861 9.42796 7.32856 9.45806 7.36645 9.50068L8.78254 11.0938H9.96875V11.6562H9.28253L9.61652 12.0319C9.66232 12.0834 9.68759 12.1499 9.6875 12.2188H9.96875V12.7812H9.28253L8.78254 13.3438H9.96875V13.9062H8.5625V13.5913L7.78252 14.4688H11.9375V15.0312H3.21875V14.4688H6.875V13.9062H4.34375V13.8972C3.65016 13.8546 2.97606 13.6509 2.375 13.3022V15.0312C2.37526 15.2549 2.46424 15.4694 2.62242 15.6276C2.78059 15.7858 2.99505 15.8747 3.21875 15.875H11.6562C11.8799 15.8747 12.0944 15.7858 12.2526 15.6276C12.4108 15.4694 12.4997 15.2549 12.5 15.0312V8.85387C12.4002 8.84727 11.9375 8.84375 11.9375 8.84375ZM6.59375 3.21875H9.125V3.78125H6.59375V3.21875ZM3.21875 2.9375C3.21875 2.88527 3.2333 2.83408 3.26075 2.78965C3.28821 2.74522 3.3275 2.70932 3.37421 2.68596L4.49921 2.12346C4.53827 2.10393 4.58133 2.09376 4.625 2.09376C4.66867 2.09376 4.71173 2.10393 4.75079 2.12346L5.87579 2.68596C5.9225 2.70932 5.96179 2.74522 5.98925 2.78965C6.0167 2.83408 6.03125 2.88527 6.03125 2.9375V4.90625H3.21875V2.9375ZM3.78125 9.40625H3.21875V8.84375H3.78125V9.40625ZM3.78125 8.28125H3.21875V7.71875H3.78125V8.28125ZM3.78125 7.15625H3.21875V6.59375H3.78125V7.15625ZM9.96875 10.5312H8.5625V9.96875H9.96875V10.5312ZM11.9375 13.9062H10.5312V13.3438H11.9375V13.9062ZM11.9375 12.7812H10.5312V12.2188H11.9375V12.7812ZM11.9375 11.6562H10.5312V11.0938H11.9375V11.6562ZM11.9375 10.5312H10.5312V9.96875H11.9375V10.5312Z" fill="#4E4E4E"/>
<path d="M13.0625 14.7016C13.2269 14.6433 13.3692 14.5355 13.4699 14.3931C13.5706 14.2507 13.6248 14.0807 13.625 13.9062V9.07226C13.4409 9.01136 13.253 8.96246 13.0625 8.92587V14.7016Z" fill="#4E4E4E"/>
</svg>
