<svg width="22" height="24" viewBox="0 0 22 24" fill="none" xmlns="http://www.w3.org/2000/svg">
<path d="M21.5157 6.01855C20.146 6.01855 18.8823 5.5648 17.8674 4.79934C16.7035 3.92184 15.8673 2.63465 15.5719 1.15105C15.4988 0.784492 15.4594 0.406211 15.4557 0.0185547H11.543V10.7098L11.5384 16.5659C11.5384 18.1315 10.5188 19.459 9.10554 19.9259C8.69538 20.0614 8.25241 20.1256 7.79116 20.1003C7.20241 20.0679 6.65069 19.8903 6.17116 19.6034C5.15069 18.9931 4.45882 17.8859 4.44007 16.6193C4.41054 14.6398 6.01085 13.0259 7.98898 13.0259C8.37944 13.0259 8.75445 13.0896 9.10554 13.2054V10.2832V9.23277C8.73523 9.17793 8.35835 9.14934 7.97726 9.14934C5.8121 9.14934 3.7871 10.0493 2.3396 11.6707C1.24554 12.8961 0.589287 14.4593 0.488037 16.0986C0.355381 18.252 1.14335 20.299 2.67147 21.8093C2.89601 22.0311 3.13179 22.2368 3.37835 22.4267C4.68851 23.435 6.29023 23.9815 7.97726 23.9815C8.35835 23.9815 8.73523 23.9534 9.10554 23.8986C10.6815 23.6651 12.1355 22.9437 13.283 21.8093C14.693 20.4157 15.4721 18.5656 15.4805 16.5964L15.4604 7.85137C16.133 8.37027 16.8685 8.79965 17.6579 9.13293C18.8855 9.6509 20.1873 9.9134 21.5269 9.91293V7.07184V6.01762C21.5279 6.01855 21.5166 6.01855 21.5157 6.01855Z" fill="black"/>
</svg>
