<svg width="24" height="20" viewBox="0 0 24 20" fill="none" xmlns="http://www.w3.org/2000/svg">
<path d="M23.9999 2.56771C23.0558 2.97383 22.1113 3.22745 21.1676 3.32933C22.2335 2.68975 22.9546 1.7862 23.3302 0.618724C22.3552 1.19729 21.3147 1.59311 20.2082 1.80641C19.2335 0.770899 18.0358 0.25293 16.6141 0.25293C15.2539 0.25293 14.0941 0.732548 13.1343 1.692C12.1751 2.6514 11.6954 3.81119 11.6954 5.17153C11.6954 5.53695 11.736 5.91272 11.8173 6.29846C9.80705 6.19696 7.92133 5.6919 6.15978 4.78328C4.39833 3.87455 2.90342 2.66388 1.67504 1.15125C1.22833 1.9125 1.00489 2.74005 1.00489 3.63341C1.00489 4.47605 1.20283 5.25788 1.59898 5.9787C1.99485 6.69941 2.52797 7.28309 3.19806 7.72985C2.40604 7.69934 1.66496 7.49116 0.974704 7.10537V7.16628C0.974704 8.35418 1.34781 9.3971 2.0939 10.2959C2.84011 11.1945 3.78179 11.7602 4.91875 11.9938C4.49231 12.1053 4.06075 12.1612 3.62428 12.1612C3.33999 12.1612 3.03031 12.1358 2.69535 12.0854C3.01004 13.07 3.58876 13.8793 4.43129 14.5142C5.27399 15.1487 6.22832 15.4758 7.29434 15.4966C5.50761 16.8973 3.47211 17.5977 1.18784 17.5977C0.751217 17.5977 0.355393 17.5778 0 17.537C2.28432 19.0089 4.80205 19.7449 7.55335 19.7449C9.29953 19.7449 10.9392 19.4685 12.4717 18.9151C14.0049 18.362 15.3144 17.6207 16.4008 16.6916C17.4869 15.7627 18.4237 14.6942 19.2104 13.4861C19.9971 12.278 20.5832 11.0167 20.9693 9.70198C21.355 8.38703 21.5479 7.07006 21.5479 5.75004C21.5479 5.46574 21.5428 5.25266 21.5326 5.11046C22.4974 4.41028 23.3197 3.56242 23.9999 2.56771Z" fill="#222222"/>
</svg>
