<svg width="14" height="16" viewBox="0 0 14 16" fill="none" xmlns="http://www.w3.org/2000/svg">
<path d="M6.99811 7.82505C8.77704 7.82505 10.2193 6.07337 10.2193 3.91255C10.2193 1.75168 9.74577 0 6.99811 0C4.25046 0 3.77686 1.75168 3.77686 3.91255C3.77686 6.07337 5.2191 7.82505 6.99811 7.82505Z" fill="#7A7A7A"/>
<path d="M0.914697 13.7992C0.914148 13.6674 0.913598 13.762 0.914697 13.7992V13.7992Z" fill="#7A7A7A"/>
<path d="M13.0811 13.9019C13.0828 13.8658 13.0816 13.6517 13.0811 13.9019V13.9019Z" fill="#7A7A7A"/>
<path d="M13.0753 13.6408C13.0156 9.87655 12.524 8.80395 8.76206 8.125C8.76206 8.125 8.23251 8.79979 6.99822 8.79979C5.76394 8.79979 5.23429 8.125 5.23429 8.125C1.51338 8.79654 0.991868 9.85323 0.923297 13.5185C0.917674 13.8178 0.915068 13.8335 0.914062 13.7987C0.914291 13.8638 0.914565 13.9843 0.914565 14.1942C0.914565 14.1942 1.8102 15.9998 6.99822 15.9998C12.1862 15.9998 13.0819 14.1942 13.0819 14.1942C13.0819 14.0593 13.082 13.9655 13.0821 13.9017C13.0811 13.9232 13.0791 13.8815 13.0753 13.6408Z" fill="#7A7A7A"/>
</svg>
