<svg width="32" height="32" viewBox="0 0 32 32" fill="none" xmlns="http://www.w3.org/2000/svg">
<path d="M21.3337 22.228V29.3346H10.667V22.228L16.0003 18.668L21.3337 22.228Z" fill="white"/>
<path d="M30.0668 22.8931L28.6001 25.1064L28.0001 24.7197V30.6664H21.3335V22.2264L17.4668 19.6531L21.3335 17.0664L30.0668 22.8931Z" fill="#F9C41F"/>
<path d="M1.93359 22.8931L3.40026 25.1064L4.00026 24.7197V30.6664H10.6669V22.2264L14.5336 19.6531L10.6669 17.0664L1.93359 22.8931Z" fill="#F9C41F" fill-opacity="0.2"/>
<path d="M15.9999 17.0664L7.2666 22.8931L8.73327 25.1064L9.33327 24.7197V30.6664H22.6666V24.7197L23.2666 25.1064L24.7333 22.8931L15.9999 17.0664ZM19.9999 27.9997H17.3333V25.3331H14.6666V27.9997H11.9999V22.9331L15.9999 20.2664L19.9999 22.9331V27.9997Z" fill="#4E4E4E"/>
<path d="M20.0004 9.9987C20.0004 9.11464 19.6492 8.2668 19.0241 7.64168C18.3989 7.01655 17.5511 6.66536 16.667 6.66536H15.3337C15.1569 6.66536 14.9873 6.59513 14.8623 6.4701C14.7373 6.34508 14.667 6.17551 14.667 5.9987C14.667 5.82189 14.7373 5.65232 14.8623 5.52729C14.9873 5.40227 15.1569 5.33203 15.3337 5.33203H20.0004V2.66536H17.3337V1.33203H14.667V2.66536C13.783 2.75377 12.9702 3.18974 12.4076 3.87738C11.845 4.56501 11.5786 5.44798 11.667 6.33203C11.7554 7.21609 12.1914 8.02881 12.879 8.59142C13.5667 9.15403 14.4496 9.42044 15.3337 9.33203H16.667C16.8438 9.33203 17.0134 9.40227 17.1384 9.52729C17.2635 9.65232 17.3337 9.82189 17.3337 9.9987C17.3337 10.1755 17.2635 10.3451 17.1384 10.4701C17.0134 10.5951 16.8438 10.6654 16.667 10.6654H12.0004V13.332H14.667V14.6654H17.3337V13.332C18.0979 13.1762 18.7834 12.7573 19.2706 12.1482C19.7579 11.5392 20.0161 10.7785 20.0004 9.9987V9.9987Z" fill="#4E4E4E"/>
</svg>
