<svg width="22" height="12" viewBox="0 0 22 12" fill="none" xmlns="http://www.w3.org/2000/svg">
<path d="M1.30469 9.97266C1.10547 10.1602 0.988281 10.4297 0.988281 10.7344C0.988281 11.3438 1.44531 11.8008 2.05469 11.8008C2.35938 11.8008 2.64062 11.6953 2.81641 11.4961L11.1719 2.96484L19.5156 11.4961C19.7031 11.6953 19.9844 11.8008 20.2773 11.8008C20.8867 11.8008 21.3438 11.3438 21.3438 10.7344C21.3438 10.4297 21.2266 10.1602 21.0273 9.97266L11.957 0.691406C11.7578 0.46875 11.4648 0.339844 11.1719 0.339844C10.8672 0.339844 10.5859 0.46875 10.375 0.691406L1.30469 9.97266Z" fill="#7A7A7A"/>
</svg>
