<svg width="22" height="12" viewBox="0 0 22 12" fill="none" xmlns="http://www.w3.org/2000/svg">
<path d="M20.6953 2.02734C20.8945 1.83984 21.0117 1.57031 21.0117 1.26562C21.0117 0.65625 20.5547 0.199218 19.9453 0.199218C19.6406 0.199218 19.3594 0.304687 19.1836 0.503906L10.8281 9.03516L2.48438 0.503904C2.29688 0.304686 2.01563 0.199217 1.72266 0.199217C1.11328 0.199217 0.656252 0.656248 0.656252 1.26562C0.656252 1.57031 0.773439 1.83984 0.972658 2.02734L10.043 11.3086C10.2422 11.5312 10.5352 11.6602 10.8281 11.6602C11.1328 11.6602 11.4141 11.5312 11.625 11.3086L20.6953 2.02734Z" fill="#7A7A7A"/>
</svg>
