<svg width="24" height="24" viewBox="0 0 24 24" fill="none" xmlns="http://www.w3.org/2000/svg">
<g clip-path="url(#clip0_2722_38011)">
<path d="M16.5952 1.48242H2.71406C1.21734 1.48242 0 2.69977 0 4.19649V16.3606C0 16.9367 0.651516 17.2614 1.11141 16.9329L4.97719 14.1748C5.30156 13.9437 5.68313 13.8213 6.08156 13.8213H14.5842C16.0809 13.8213 17.2983 12.604 17.2983 11.1073V2.18555C17.2983 1.79742 16.9833 1.48242 16.5952 1.48242ZM13.1798 10.0001H5.05594C4.66781 10.0001 4.35281 9.68556 4.35281 9.29696C4.35281 8.90884 4.66781 8.59384 5.05594 8.59384H13.1798C13.568 8.59384 13.883 8.90884 13.883 9.29696C13.883 9.68556 13.568 10.0001 13.1798 10.0001ZM13.1798 6.71883H5.05594C4.66781 6.71883 4.35281 6.4043 4.35281 6.01571C4.35281 5.62758 4.66781 5.31258 5.05594 5.31258H13.1798C13.568 5.31258 13.883 5.62758 13.883 6.01571C13.883 6.4043 13.568 6.71883 13.1798 6.71883Z" fill="#222222"/>
<path d="M24 9.65057V21.8142C24 22.3864 23.3518 22.7173 22.8886 22.3865L19.0228 19.6288C18.6985 19.3978 18.3169 19.2754 17.9185 19.2754H9.41581C7.9191 19.2754 6.70175 18.0576 6.70175 16.5609V15.2278H14.5843C16.8563 15.2278 18.7046 13.3795 18.7046 11.1074V6.93604H21.286C22.7827 6.93604 24 8.15385 24 9.65057Z" fill="#222222"/>
</g>
<defs>
<clipPath id="clip0_2722_38011">
<rect width="24" height="24" fill="white"/>
</clipPath>
</defs>
</svg>
