<svg width="20" height="20" viewBox="0 0 20 20" fill="none" xmlns="http://www.w3.org/2000/svg">
<path d="M3.33317 10H16.6665C17.1085 10 17.5325 10.1756 17.845 10.4882C18.1576 10.8007 18.3332 11.2246 18.3332 11.6667V15H1.6665V11.6667C1.6665 11.2246 1.8421 10.8007 2.15466 10.4882C2.46722 10.1756 2.89114 10 3.33317 10Z" fill="white"/>
<path d="M16.6668 5H3.3335V10H16.6668V5Z" fill="white"/>
<path d="M19.1668 11.6667C19.1654 11.1509 19.0044 10.6482 18.706 10.2275C18.4077 9.80675 17.9865 9.48862 17.5002 9.31669V4.16669H2.50016V9.31669C2.01387 9.48862 1.59266 9.80675 1.29428 10.2275C0.995895 10.6482 0.834946 11.1509 0.833496 11.6667V15.8334H2.50016V17.5H4.16683V15.8334H15.8335V17.5H17.5002V15.8334H19.1668V11.6667ZM4.16683 5.83335H15.8335V9.16669H4.16683V5.83335ZM17.5002 14.1667H2.50016V11.6667C2.50016 11.4457 2.58796 11.2337 2.74424 11.0774C2.90052 10.9212 3.11248 10.8334 3.3335 10.8334H16.6668C16.8878 10.8334 17.0998 10.9212 17.2561 11.0774C17.4124 11.2337 17.5002 11.4457 17.5002 11.6667V14.1667Z" fill="#7A7A7A"/>
<path d="M6.66683 7.5H8.3335C8.55451 7.5 8.76647 7.5878 8.92275 7.74408C9.07903 7.90036 9.16683 8.11232 9.16683 8.33333V9.16667H5.8335V8.33333C5.8335 8.11232 5.92129 7.90036 6.07757 7.74408C6.23385 7.5878 6.44582 7.5 6.66683 7.5Z" fill="#F9C41F" fill-opacity="0.2"/>
<path d="M11.6668 7.5H13.3335C13.5545 7.5 13.7665 7.5878 13.9228 7.74408C14.079 7.90036 14.1668 8.11232 14.1668 8.33333V9.16667H10.8335V8.33333C10.8335 8.11232 10.9213 7.90036 11.0776 7.74408C11.2339 7.5878 11.4458 7.5 11.6668 7.5Z" fill="#F9C41F" fill-opacity="0.2"/>
<path d="M4.16667 2.5H2.5V4.16667H4.16667V2.5Z" fill="#F9C41F"/>
<path d="M17.5002 2.5H15.8335V4.16667H17.5002V2.5Z" fill="#F9C41F"/>
</svg>
