<svg width="86" height="24" viewBox="0 0 86 24" fill="none" xmlns="http://www.w3.org/2000/svg">
<g clip-path="url(#clip0_372_7118)">
<path d="M12 24C18.6274 24 24 18.6274 24 12C24 5.37258 18.6274 0 12 0C5.37258 0 0 5.37258 0 12C0 18.6274 5.37258 24 12 24Z" fill="#6B21E4"/>
<path d="M14.0021 23.8337C13.3512 23.9434 12.6821 24.0002 11.9998 24.0002C11.3739 24.0002 10.7592 23.9522 10.1592 23.8601C9.75561 22.1223 8.98077 17.5442 9.36083 16.1645C9.70123 14.9302 11.6521 14.7603 12.0777 14.7603C12.5033 14.7603 14.4542 14.9302 14.7946 16.1645C15.1737 17.5374 14.4076 22.0768 14.0021 23.8337Z" fill="#F2F2F2"/>
<path d="M11.9997 13.7707C13.4337 13.7707 14.5961 12.6082 14.5961 11.1743C14.5961 9.74033 13.4337 8.57788 11.9997 8.57788C10.5658 8.57788 9.40332 9.74033 9.40332 11.1743C9.40332 12.6082 10.5658 13.7707 11.9997 13.7707Z" fill="#F2F2F2"/>
<path d="M12.0003 4.90234C8.03684 4.90234 4.8125 8.12669 4.8125 12.0901C4.8125 14.6052 6.11145 16.823 8.07406 18.1077C8.03441 17.4122 8.03783 16.7765 8.10641 16.2744C6.9838 15.2302 6.28095 13.7407 6.28095 12.0901C6.28095 8.93627 8.84652 6.3707 12.0003 6.3707C15.1536 6.3707 17.7197 8.93627 17.7197 12.0901C17.7197 13.6726 17.0727 15.1072 16.0303 16.1436C16.1141 16.6383 16.1249 17.2839 16.0886 17.9975C17.9601 16.7 19.188 14.5356 19.188 12.0901C19.188 8.12669 15.9632 4.90234 12.0003 4.90234Z" fill="#F2F2F2"/>
<path d="M12 1.2085C5.99995 1.2085 1.11914 6.08931 1.11914 12.0893C1.11914 16.9167 4.27978 21.0203 8.64047 22.4397C8.54789 21.9317 8.45142 21.3626 8.36423 20.7714C4.97433 19.3466 2.58708 15.991 2.58708 12.0893C2.58708 6.89893 6.80963 2.6769 12 2.6769C17.1898 2.6769 21.4124 6.89893 21.4124 12.0893C21.4124 15.9264 19.104 19.2354 15.8027 20.6994C15.7161 21.295 15.6191 21.8701 15.5255 22.3839C19.8005 20.9154 22.8808 16.8555 22.8808 12.0893C22.8808 6.08931 17.9995 1.2085 12 1.2085Z" fill="#F2F2F2"/>
</g>
<path d="M31.0043 17H32.8487V13.5597H34.7976C37.1491 13.5597 38.4119 12.1477 38.4119 10.1889C38.4119 8.24503 37.1641 6.81818 34.8224 6.81818H31.0043V17ZM32.8487 12.0433V8.35938H34.5391C35.9212 8.35938 36.5327 9.10511 36.5327 10.1889C36.5327 11.2727 35.9212 12.0433 34.549 12.0433H32.8487ZM43.1561 17.1491C45.3933 17.1491 46.8152 15.5732 46.8152 13.2116C46.8152 10.8452 45.3933 9.2642 43.1561 9.2642C40.9189 9.2642 39.497 10.8452 39.497 13.2116C39.497 15.5732 40.9189 17.1491 43.1561 17.1491ZM43.166 15.7074C41.9281 15.7074 41.3216 14.6037 41.3216 13.2067C41.3216 11.8097 41.9281 10.6911 43.166 10.6911C44.3841 10.6911 44.9906 11.8097 44.9906 13.2067C44.9906 14.6037 44.3841 15.7074 43.166 15.7074ZM51.1765 17.1342C52.489 17.1342 53.0806 16.3537 53.364 15.7969H53.4734V17H55.2433V6.81818H53.4386V10.6264H53.364C53.0906 10.0746 52.5288 9.2642 51.1815 9.2642C49.4165 9.2642 48.0295 10.6463 48.0295 13.1918C48.0295 15.7074 49.3768 17.1342 51.1765 17.1342ZM51.6786 15.6577C50.4904 15.6577 49.864 14.6136 49.864 13.1818C49.864 11.7599 50.4805 10.7408 51.6786 10.7408C52.837 10.7408 53.4734 11.7003 53.4734 13.1818C53.4734 14.6634 52.8271 15.6577 51.6786 15.6577ZM60.492 17.1491C62.411 17.1491 63.6341 16.0107 63.7633 14.3899H62.0431C61.889 15.2102 61.2974 15.6825 60.5069 15.6825C59.3833 15.6825 58.6575 14.7429 58.6575 13.1818C58.6575 11.6406 59.3983 10.7159 60.5069 10.7159C61.372 10.7159 61.9039 11.2727 62.0431 12.0085H63.7633C63.639 10.353 62.3464 9.2642 60.4821 9.2642C58.2449 9.2642 56.8329 10.88 56.8329 13.2116C56.8329 15.5234 58.21 17.1491 60.492 17.1491ZM67.4386 17.1541C68.6367 17.1541 69.3526 16.5923 69.6808 15.951H69.7404V17H71.4705V11.8892C71.4705 9.87074 69.8249 9.2642 68.3683 9.2642C66.7624 9.2642 65.5295 9.98011 65.1317 11.3722L66.8121 11.6108C66.9911 11.0888 67.4982 10.6413 68.3782 10.6413C69.2134 10.6413 69.6708 11.0689 69.6708 11.8196V11.8494C69.6708 12.3665 69.1289 12.3913 67.7816 12.5355C66.3001 12.6946 64.8832 13.1371 64.8832 14.8572C64.8832 16.3587 65.9819 17.1541 67.4386 17.1541ZM67.9059 15.8317C67.1552 15.8317 66.6183 15.4886 66.6183 14.8274C66.6183 14.1364 67.2198 13.848 68.0252 13.7337C68.4975 13.669 69.4421 13.5497 69.6758 13.3608V14.2607C69.6758 15.1108 68.9897 15.8317 67.9059 15.8317ZM79.3157 11.3821C79.0671 10.0895 78.033 9.2642 76.2433 9.2642C74.4038 9.2642 73.1509 10.169 73.1559 11.581C73.1509 12.6946 73.837 13.4304 75.3036 13.7337L76.6062 14.0071C77.3072 14.1612 77.6353 14.4446 77.6353 14.8771C77.6353 15.3991 77.0685 15.7919 76.2134 15.7919C75.3881 15.7919 74.8512 15.4339 74.6971 14.7479L72.9421 14.9169C73.1658 16.3189 74.3441 17.1491 76.2184 17.1491C78.1275 17.1491 79.4748 16.1598 79.4798 14.7131C79.4748 13.6243 78.7738 12.9581 77.332 12.6449L76.0295 12.3665C75.2539 12.1925 74.9457 11.924 74.9506 11.4815C74.9457 10.9645 75.5174 10.6065 76.2681 10.6065C77.0984 10.6065 77.5359 11.0589 77.6751 11.5611L79.3157 11.3821ZM84.777 9.36364H83.2706V7.53409H81.4709V9.36364H80.3871V10.7557H81.4709V15.0014C81.4609 16.4382 82.505 17.1442 83.8572 17.1044C84.3693 17.0895 84.7223 16.9901 84.9162 16.9254L84.6129 15.5185C84.5135 15.5433 84.3097 15.5881 84.0859 15.5881C83.6335 15.5881 83.2706 15.429 83.2706 14.7031V10.7557H84.777V9.36364Z" fill="white"/>
<defs>
<clipPath id="clip0_372_7118">
<rect width="24" height="24" fill="white"/>
</clipPath>
</defs>
</svg>
