<svg width="16" height="16" viewBox="0 0 16 16" fill="none" xmlns="http://www.w3.org/2000/svg">
<path d="M16 8C16 12.4183 12.4183 16 8 16C5.67086 16 3.5742 15.0047 2.11233 13.4162C1.72833 12.9992 1.38841 12.5411 1.0991 12.0496C0.400653 10.8617 0 9.47755 0 8C0 3.58171 3.58171 0 8 0C9.47788 0 10.862 0.400653 12.0496 1.09943C12.5411 1.38841 12.9989 1.72833 13.4158 2.11265C15.0044 3.57388 16 5.67086 16 8Z" fill="#F0CD00"/>
<path d="M15.9982 8.00031C15.9982 12.319 12.5764 15.8383 8.29595 15.9948C4.01546 15.8383 0.59375 12.319 0.59375 8.00031C0.59375 3.68161 4.01546 0.162268 8.29595 0.00585938C12.5764 0.162268 15.9982 3.68161 15.9982 8.00031Z" fill="#FFDE50"/>
<path d="M13.4144 2.11283L2.11088 13.4163C1.72688 12.9994 1.38696 12.5412 1.09766 12.0498L12.0482 1.09961C12.5396 1.38859 12.9974 1.72851 13.4144 2.11283Z" fill="#FFEA94"/>
<path d="M15.4495 5.07462L5.07625 15.4478C4.34188 15.1592 3.66041 14.7651 3.05078 14.2841L14.286 3.04883C14.767 3.65846 15.1611 4.33993 15.4495 5.07462Z" fill="#FFEA94"/>
<path d="M14.2181 7.99969C14.2181 11.4328 11.4348 14.2162 8.00165 14.2162C6.80589 14.2162 5.68916 13.8785 4.74124 13.2934C4.32818 13.0387 3.94744 12.7367 3.60589 12.3951C3.35479 12.1443 3.12491 11.8717 2.91952 11.5808C2.63675 11.1801 2.40001 10.7445 2.21748 10.2818C1.94712 9.59773 1.79495 8.8539 1.78581 8.0761C1.78516 8.05063 1.78516 8.02516 1.78516 7.99969C1.78516 4.56655 4.56818 1.7832 8.00165 1.7832C8.02712 1.7832 8.05291 1.7832 8.07838 1.78386C8.85618 1.793 9.59969 1.94549 10.2838 2.21553C10.7465 2.39839 11.1821 2.63479 11.5827 2.91757C11.8736 3.12328 12.146 3.35284 12.3971 3.60394C12.7386 3.94516 13.0407 4.32622 13.2954 4.73928C13.8805 5.6872 14.2181 6.80394 14.2181 7.99969Z" fill="#FAA300"/>
<path d="M12.3971 3.60394L3.60589 12.3951C3.35479 12.1443 3.12491 11.8717 2.91952 11.5808C2.63675 11.1801 2.40001 10.7445 2.21748 10.2818C1.94712 9.59773 1.79495 8.8539 1.78581 8.0761C1.78516 8.05063 1.78516 8.02516 1.78516 7.99969C1.78516 4.56655 4.56818 1.7832 8.00165 1.7832C8.02711 1.7832 8.05291 1.7832 8.07838 1.78386C8.85618 1.793 9.59969 1.94549 10.2838 2.21553C10.7465 2.39839 11.1821 2.6348 11.5827 2.91757C11.8736 3.12328 12.146 3.35284 12.3971 3.60394Z" fill="#FFBD00"/>
<path d="M14.2159 7.99969C14.2159 11.4328 11.4326 14.2162 7.99946 14.2162C7.88158 14.2162 7.76468 14.2129 7.64844 14.2064C10.9183 14.0245 13.5136 11.315 13.5136 7.99969C13.5136 4.68443 10.9183 1.97488 7.64844 1.793C7.76468 1.78647 7.88158 1.7832 7.99946 1.7832C11.4326 1.7832 14.2159 4.56655 14.2159 7.99969Z" fill="#F68E00"/>
<path d="M7.79697 7.5216V5.00402C8.18933 5.22047 8.45578 5.63824 8.45578 6.11716C8.45578 6.45499 8.72964 6.72885 9.06747 6.72885C9.4053 6.72885 9.67916 6.45499 9.67916 6.11716C9.67916 4.95304 8.8773 3.97286 7.79697 3.69943V3.20153C7.79697 2.86371 7.52311 2.58984 7.18528 2.58984C6.84746 2.58984 6.57359 2.86371 6.57359 3.20153V3.69939C5.49327 3.97286 4.69141 4.95301 4.69141 6.11713C4.69141 6.81221 4.89555 7.35425 5.3155 7.7742C5.62169 8.08039 6.02842 8.30697 6.57359 8.47308V10.9946C6.18123 10.7782 5.91479 10.3604 5.91479 9.8815C5.91479 9.54367 5.64092 9.26981 5.3031 9.26981C4.96527 9.26981 4.69141 9.54367 4.69141 9.8815C4.69141 11.0456 5.49327 12.0258 6.57359 12.2992V12.7971C6.57359 13.1349 6.84746 13.4088 7.18528 13.4088C7.52311 13.4088 7.79697 13.1349 7.79697 12.7971V12.2992C8.8773 12.0258 9.67916 11.0456 9.67916 9.8815C9.67916 9.19605 9.46626 8.63562 9.04641 8.21577C8.74127 7.91059 8.32948 7.68183 7.79697 7.5216ZM6.18058 6.90916C6.05683 6.78544 5.91482 6.58357 5.91482 6.11713C5.91482 5.6382 6.18127 5.22047 6.57363 5.00398V7.1694C6.40863 7.09299 6.27802 7.00663 6.18058 6.90916ZM7.79697 10.9946V8.8225C8.3286 9.07007 8.45578 9.42426 8.45578 9.8815C8.45578 10.3604 8.18933 10.7782 7.79697 10.9946Z" fill="#F68E00"/>
<path d="M8.61339 7.5216V5.00402C9.00575 5.22047 9.2722 5.63824 9.2722 6.11716C9.2722 6.45499 9.54606 6.72885 9.88389 6.72885C10.2217 6.72885 10.4956 6.45499 10.4956 6.11716C10.4956 4.95304 9.69371 3.97286 8.61339 3.69943V3.20153C8.61339 2.86371 8.33952 2.58984 8.00169 2.58984C7.66387 2.58984 7.39 2.86371 7.39 3.20153V3.69939C6.30968 3.97286 5.50781 4.95301 5.50781 6.11713C5.50781 6.81221 5.71196 7.35425 6.13191 7.7742C6.4381 8.08039 6.84483 8.30697 7.39 8.47308V10.9946C6.99764 10.7782 6.73119 10.3604 6.73119 9.8815C6.73119 9.54367 6.45733 9.26981 6.1195 9.26981C5.78167 9.26981 5.50781 9.54367 5.50781 9.8815C5.50781 11.0456 6.30968 12.0258 7.39 12.2992V12.7971C7.39 13.1349 7.66387 13.4088 8.00169 13.4088C8.33952 13.4088 8.61339 13.1349 8.61339 12.7971V12.2992C9.69371 12.0258 10.4956 11.0456 10.4956 9.8815C10.4956 9.19605 10.2827 8.63562 9.86282 8.21577C9.55768 7.91059 9.14586 7.68183 8.61339 7.5216ZM6.99696 6.90916C6.8732 6.78544 6.73119 6.58357 6.73119 6.11713C6.73119 5.6382 6.99764 5.22047 7.39 5.00398V7.1694C7.22504 7.09299 7.09443 7.00663 6.99696 6.90916ZM8.61339 10.9946V8.8225C9.14501 9.07007 9.2722 9.42426 9.2722 9.8815C9.27216 10.3604 9.00575 10.7782 8.61339 10.9946Z" fill="#FFEA94"/>
</svg>
