<svg width="28" height="28" viewBox="0 0 28 28" fill="none" xmlns="http://www.w3.org/2000/svg">
<path d="M14 0C6.28037 0 0 6.28037 0 14C0 21.7197 6.28037 28 14 28C21.7196 28 28.0001 21.7196 28.0001 14C28.0001 6.28028 21.7195 0 14 0ZM19.1585 14.9305C18.9015 15.1873 18.5648 15.3158 18.228 15.3158C17.8914 15.3158 17.5545 15.1873 17.2978 14.9305L15.3158 12.9486V18.228C15.3158 18.9548 14.7266 19.5438 14 19.5438C13.2733 19.5438 12.6842 18.9548 12.6842 18.228V12.9486L10.7024 14.9305C10.1885 15.4443 9.35538 15.4443 8.84152 14.9305C8.32774 14.4167 8.32774 13.5836 8.84152 13.0697L13.0695 8.84152C13.3163 8.59476 13.651 8.45617 14 8.45617C14.3489 8.45617 14.6836 8.59476 14.9303 8.84152L19.1585 13.0696C19.6723 13.5835 19.6723 14.4165 19.1585 14.9305Z" fill="#F9BD06"/>
</svg>
