<svg width="64" height="64" viewBox="0 0 64 64" fill="none" xmlns="http://www.w3.org/2000/svg">
<path d="M50.6667 37.332H24V58.6654H50.6667V37.332Z" fill="white"/>
<path d="M29.3333 21.332V37.332H24V58.6654H8V21.332H29.3333Z" fill="white"/>
<path d="M45.3333 10.668V37.3346H29.3333V21.3346H24V10.668H45.3333Z" fill="white"/>
<path d="M58.6663 21.3333V58.6667H50.6663V37.3333H45.333V16L58.6663 21.3333Z" fill="#F9C41F" fill-opacity="0.2"/>
<path d="M42.6667 45.332H32V55.9987H42.6667V45.332Z" fill="#F9C41F"/>
<path d="M53.3337 56.0013V34.668H48.0003V8.0013H37.3337V2.66797H32.0003V8.0013H21.3337V18.668H5.33366V56.0013H2.66699V61.3346H61.3337V56.0013H53.3337ZM26.667 13.3346H42.667V21.3346H37.3337V26.668H42.667V34.668H32.0003V18.668H26.667V13.3346ZM21.3337 56.0013H10.667V45.3346H16.0003V40.0013H10.667V34.668H16.0003V29.3346H10.667V24.0013H26.667V34.668H21.3337V56.0013ZM48.0003 56.0013H26.667V40.0013H48.0003V56.0013Z" fill="#222222"/>
</svg>
