<svg width="20" height="20" viewBox="0 0 20 20" fill="none" xmlns="http://www.w3.org/2000/svg">
<path d="M18.3332 10C18.3332 12.2102 17.4552 14.3298 15.8924 15.8926C14.3296 17.4554 12.21 18.3334 9.99984 18.3334H2.49984L3.1165 14.7C2.38115 13.6224 1.90906 12.3872 1.73825 11.0939C1.56743 9.80053 1.70266 8.48514 2.13304 7.25359C2.56343 6.02204 3.27695 4.90874 4.21617 4.0033C5.15538 3.09787 6.29406 2.42559 7.54055 2.04059C8.78703 1.65558 10.1065 1.56861 11.3927 1.78667C12.679 2.00472 13.896 2.52172 14.946 3.29604C15.9959 4.07036 16.8494 5.08037 17.4377 6.24477C18.026 7.40917 18.3327 8.69543 18.3332 10Z" fill="white"/>
<path d="M13.3332 8.3335H12.4998V10.8335H10.8332V9.16683H9.1665V10.8335H7.49984V8.3335H6.6665L9.99984 5.8335L13.3332 8.3335Z" fill="#F9C41F" fill-opacity="0.2"/>
<path d="M9.9999 19.1668H1.51657L2.24157 14.8835C1.1586 13.1631 0.678237 11.1316 0.876019 9.10833C1.0738 7.08511 1.93851 5.18503 3.33415 3.70694C4.72978 2.22885 6.57715 1.25661 8.58571 0.943144C10.5943 0.629679 12.65 0.992768 14.4297 1.97531C16.2093 2.95784 17.6119 4.50408 18.4168 6.37082C19.2216 8.23756 19.3832 10.3189 18.8759 12.2875C18.3687 14.256 17.2214 16.0001 15.6147 17.2455C14.0079 18.4908 12.0328 19.1667 9.9999 19.1668ZM3.48323 17.5002H9.9999C11.6892 17.4969 13.328 16.9234 14.6507 15.8725C15.9734 14.8217 16.9026 13.355 17.2878 11.7102C17.6729 10.0653 17.4915 8.3386 16.7729 6.80973C16.0542 5.28086 14.8405 4.03939 13.3282 3.28641C11.816 2.53343 10.0938 2.31305 8.44069 2.66097C6.78756 3.00889 5.30031 3.90473 4.21985 5.20338C3.13939 6.50203 2.52901 8.12741 2.48757 9.81625C2.44614 11.5051 2.97609 13.1584 3.99157 14.5085L3.48323 17.5002Z" fill="#222222"/>
<path d="M14.1668 12.5H5.8335V14.1667H14.1668V12.5Z" fill="#F9C41F"/>
</svg>
