<svg width="28" height="28" viewBox="0 0 28 28" fill="none" xmlns="http://www.w3.org/2000/svg">
<g clip-path="url(#clip0_706_41325)">
<path d="M16.935 23.3328C16.935 25.9102 14.8455 27.9994 12.2682 27.9994C9.6908 27.9994 7.60156 25.9102 7.60156 23.3328C7.60156 20.7555 9.6908 18.666 12.2682 18.666C14.8455 18.666 16.935 20.7555 16.935 23.3328Z" fill="#FFA000"/>
<path d="M20.4442 13.9085C16.4891 13.3437 13.435 9.94281 13.435 5.83398C13.435 4.66718 13.6845 3.56018 14.1267 2.55551C13.5294 2.41559 12.9088 2.33398 12.2682 2.33398C7.76498 2.33398 4.10156 5.99719 4.10156 10.5006V13.7532C4.10156 16.062 3.09006 18.2414 1.31549 19.7417C0.861755 20.129 0.601562 20.6949 0.601562 21.2922C0.601562 22.4182 1.51736 23.334 2.64316 23.334H21.8932C23.0192 23.334 23.935 22.4182 23.935 21.2922C23.935 20.6949 23.6748 20.129 23.2093 19.7312C21.4873 18.2741 20.4886 16.1588 20.4442 13.9085Z" fill="#FFC107"/>
<path d="M27.4344 5.8334C27.4344 9.05505 24.8226 11.6666 21.601 11.6666C18.3793 11.6666 15.7676 9.05505 15.7676 5.8334C15.7676 2.61176 18.3793 0 21.601 0C24.8226 0 27.4344 2.61176 27.4344 5.8334Z" fill="#F44336"/>
</g>
<defs>
<clipPath id="clip0_706_41325">
<rect width="28" height="28" fill="white"/>
</clipPath>
</defs>
</svg>
