<svg width="21" height="20" viewBox="0 0 21 20" fill="none" xmlns="http://www.w3.org/2000/svg">
<path d="M18.8333 14.1667H5.5V5.83333H9.66667V2.5H18.8333V14.1667Z" fill="white"/>
<path d="M3.00016 1.6665H1.3335V14.9998H3.00016V1.6665Z" fill="#F9C41F" fill-opacity="0.2"/>
<path d="M19.6665 16.6665H4.6665V18.3332H19.6665V16.6665Z" fill="#F9C41F" fill-opacity="0.2"/>
<path d="M6.3335 11.6665C6.77552 11.6665 7.19945 11.8421 7.51201 12.1547C7.82457 12.4672 8.00016 12.8911 8.00016 13.3332H6.3335V11.6665Z" fill="#F9C41F"/>
<path d="M16.3335 13.3332C16.3335 12.8911 16.5091 12.4672 16.8217 12.1547C17.1342 11.8421 17.5581 11.6665 18.0002 11.6665V13.3332H16.3335Z" fill="#F9C41F"/>
<path d="M8.83317 1.6665V4.99984H4.6665V14.9998H19.6665V1.6665H8.83317ZM12.1665 13.3332V9.99984H16.3332V8.33317H10.4998V13.3332H6.33317V9.99984H8.83317V8.33317H6.33317V6.6665H10.4998V3.33317H12.9998V6.6665H14.6665V3.33317H17.9998V4.99984H16.3332V6.6665H17.9998V13.3332H12.1665Z" fill="#4E4E4E"/>
</svg>
