<svg width="23" height="24" viewBox="0 0 23 24" fill="none" xmlns="http://www.w3.org/2000/svg">
<path d="M21.4963 0.738281H1.47919C0.793777 0.738693 0.238144 1.2946 0.238281 1.98029V21.9974C0.238693 22.6828 0.794601 23.2384 1.48029 23.2383H12.2573V14.5371H9.33496V11.1313H12.2573V8.62496C12.2573 5.71838 14.0318 4.13635 16.6245 4.13635C17.8664 4.13635 18.9336 4.22891 19.2446 4.27025V7.30811H17.4567C16.0461 7.30811 15.7729 7.97841 15.7729 8.96224V11.1313H19.1458L18.7063 14.5371H15.7729V23.2383H21.4963C22.1821 23.2384 22.7381 22.6827 22.7383 21.9968C22.7383 21.9967 22.7383 21.9966 22.7383 21.9963V1.97919C22.738 1.29378 22.182 0.738144 21.4963 0.738281Z" fill="#4E4E4E"/>
</svg>
