<svg width="24" height="24" viewBox="0 0 24 24" fill="none" xmlns="http://www.w3.org/2000/svg">
<path d="M12 24C18.5647 24 24 18.5647 24 12C24 5.44706 18.5529 0 11.9882 0C5.43529 0 0 5.44706 0 12C0 18.5647 5.44706 24 12 24ZM17.5176 6.24706C19.0588 7.77647 18.9176 9.67059 17.1529 11.4471L15 13.5765C15.1882 12.9765 15.1765 12.2706 14.9765 11.8118L16.2235 10.5765C17.4471 9.37647 17.5647 8.11765 16.6118 7.17647C15.6588 6.23529 14.4118 6.37647 13.2118 7.56471L11.4706 9.31765C10.2235 10.5412 10.0824 11.8 11.0235 12.7647C11.3176 13.0353 11.7412 13.2353 12.2941 13.3176C12.1059 13.7412 11.6824 14.2 11.3412 14.4353C11.0118 14.3765 10.5294 14.0824 10.1294 13.6588C8.57647 12.1294 8.72941 10.2235 10.5294 8.43529L12.3294 6.63529C14.1059 4.85882 16 4.74118 17.5176 6.24706ZM6.08235 17.7176C4.54118 16.1882 4.68235 14.2941 6.43529 12.5294L8.6 10.3882C8.41177 11 8.42353 11.6941 8.62353 12.1647L7.37647 13.3882C6.15294 14.5882 6.02353 15.8471 6.98824 16.7882C7.94118 17.7294 9.18824 17.5882 10.3882 16.4L12.1294 14.6471C13.3647 13.4353 13.5176 12.1647 12.5765 11.2118C12.2824 10.9294 11.8588 10.7294 11.3059 10.6588C11.4941 10.2353 11.9059 9.77647 12.2471 9.54118C12.5882 9.6 13.0706 9.88235 13.4706 10.3176C15.0235 11.8471 14.8706 13.7412 13.0706 15.5412L11.2588 17.3294C9.49412 19.1059 7.58824 19.2235 6.08235 17.7176Z" fill="#F9BD06"/>
</svg>
