<svg width="20" height="20" viewBox="0 0 20 20" fill="none" xmlns="http://www.w3.org/2000/svg">
<path d="M7.50016 6.66669H3.3335V18.3334H7.50016V6.66669Z" fill="white"/>
<path d="M7.49984 18.3333H14.1665L14.1665 1.66665H7.49984L7.49984 18.3333Z" fill="white"/>
<path d="M14.1665 18.3333H17.4998V9.16665L14.1665 8.33331V18.3333Z" fill="white"/>
<path d="M11.6668 4.16669H8.3335V5.83335H11.6668V4.16669Z" fill="#F9C41F" fill-opacity="0.2"/>
<path d="M11.6668 7.5H8.3335V9.16667H11.6668V7.5Z" fill="#F9C41F" fill-opacity="0.2"/>
<path d="M11.6668 10.8333H8.3335V12.5H11.6668V10.8333Z" fill="#F9C41F" fill-opacity="0.2"/>
<path d="M11.6668 14.1667H8.3335V15.8334H11.6668V14.1667Z" fill="#F9C41F" fill-opacity="0.2"/>
<path d="M18.3335 17.5V8.51665L15.0002 7.68331V0.833313H6.66683V5.83331H2.50016V17.5H0.833496V19.1666H19.1668V17.5H18.3335ZM6.66683 17.5H4.16683V7.49998H6.66683V17.5ZM13.3335 17.5H8.3335V2.49998H13.3335V17.5ZM16.6668 17.5H15.0002V9.39998L16.6668 9.81665V17.5Z" fill="#7A7A7A"/>
<path d="M2.3415 13.6667C2.19947 13.4817 2.11207 13.2605 2.08919 13.0283C2.06632 12.7961 2.10888 12.5622 2.21207 12.3529C2.31526 12.1437 2.47495 11.9675 2.67308 11.8443C2.8712 11.7211 3.09986 11.6558 3.33317 11.6558C3.56648 11.6558 3.79514 11.7211 3.99326 11.8443C4.19139 11.9675 4.35108 12.1437 4.45427 12.3529C4.55746 12.5622 4.60002 12.7961 4.57715 13.0283C4.55427 13.2605 4.46687 13.4817 4.32484 13.6667C4.6067 13.8754 4.81556 14.1677 4.92169 14.5019C5.02781 14.8362 5.02581 15.1954 4.91594 15.5284C4.80608 15.8614 4.59397 16.1513 4.30979 16.3568C4.02562 16.5623 3.68386 16.673 3.33317 16.673C2.98248 16.673 2.64072 16.5623 2.35655 16.3568C2.07237 16.1513 1.86026 15.8614 1.7504 15.5284C1.64054 15.1954 1.63853 14.8362 1.74466 14.5019C1.85079 14.1677 2.05964 13.8754 2.3415 13.6667Z" fill="#F9C41F"/>
</svg>
