<svg width="21" height="20" viewBox="0 0 21 20" fill="none" xmlns="http://www.w3.org/2000/svg">
<circle cx="10.5002" cy="10.0002" r="8.16667" fill="white" stroke="#4E4E4E" stroke-width="2"/>
<path d="M7.16757 14.0888L11.7913 11.8894C12.0726 11.7571 12.2628 11.5669 12.3951 11.2941L14.5788 6.68038C14.8601 6.08507 14.4299 5.63858 13.8178 5.9197L9.20236 8.1108C8.93767 8.23482 8.7557 8.41672 8.60681 8.70611L6.41487 13.3281C6.14191 13.9069 6.59684 14.3533 7.16757 14.0888ZM10.501 11.0543C9.93025 11.0543 9.45877 10.583 9.45877 10.0125C9.45877 9.44199 9.93025 8.9707 10.501 8.9707C11.08 8.9707 11.5432 9.44199 11.5432 10.0125C11.5432 10.583 11.08 11.0543 10.501 11.0543Z" fill="#F9C41F"/>
</svg>
