<svg width="20" height="20" viewBox="0 0 20 20" fill="none" xmlns="http://www.w3.org/2000/svg">
<path d="M16.6668 7.12484V18.3332H3.3335V7.12484L10.0002 1.6665L16.6668 7.12484Z" fill="white"/>
<path d="M13.3335 4.39167V2.5H16.6668V7.125L13.3335 4.39167Z" fill="white"/>
<path d="M9.16683 12.5H5.8335V17.5H9.16683V12.5Z" fill="#F9C41F" fill-opacity="0.2"/>
<path d="M14.1668 10.8335H10.8335V14.1668H14.1668V10.8335Z" fill="#F9C41F"/>
<path d="M17.4998 6.72464V1.66631H12.4998V2.63298L9.99977 0.591309L0.308105 8.52464L1.35811 9.80797L2.49977 8.88297V19.1663H17.4998V8.88297L18.6414 9.80797L19.6914 8.52464L17.4998 6.72464ZM15.8331 17.4996H4.16644V7.49964L9.99977 2.72464L15.8331 7.49964V17.4996ZM15.8331 5.36631L14.1664 3.99964V3.33297H15.8331V5.36631Z" fill="#4E4E4E"/>
</svg>
