<svg width="20" height="20" viewBox="0 0 20 20" fill="none" xmlns="http://www.w3.org/2000/svg">
<path d="M14.9998 14.1665C14.1158 14.1665 13.2679 13.8153 12.6428 13.1902C12.0177 12.5651 11.6665 11.7172 11.6665 10.8332V4.99984C11.6665 4.11578 12.0177 3.26794 12.6428 2.64281C13.2679 2.01769 14.1158 1.6665 14.9998 1.6665C15.8839 1.6665 16.7317 2.01769 17.3569 2.64281C17.982 3.26794 18.3332 4.11578 18.3332 4.99984V10.8332C18.3332 11.7172 17.982 12.5651 17.3569 13.1902C16.7317 13.8153 15.8839 14.1665 14.9998 14.1665Z" fill="white"/>
<path d="M18.8332 6.5L17.8332 5.16667L15.8332 6.66667V5H14.1665V9.16667L12.1665 7.66667L11.1665 9L14.1665 11.25V14.0583C14.7125 14.2044 15.2872 14.2044 15.8332 14.0583V8.75L18.8332 6.5Z" fill="#F9C41F"/>
<path d="M10.8335 15H0.833496V17.5H10.8335V15Z" fill="#F9C41F" fill-opacity="0.2"/>
<path d="M3.33317 17.5H1.6665V19.1667H3.33317V17.5Z" fill="#4E4E4E"/>
<path d="M10.0002 17.5H8.3335V19.1667H10.0002V17.5Z" fill="#4E4E4E"/>
<path d="M7.5 10.8335V11.6668H4.16667V10.8335H2.5V15.0002H4.16667V13.3335H7.5V15.0002H9.16667V10.8335H7.5Z" fill="#4E4E4E"/>
<path d="M15.0002 0.833496C13.8951 0.833496 12.8353 1.27248 12.0539 2.05388C11.2725 2.83529 10.8335 3.89509 10.8335 5.00016V10.8335C10.8333 11.794 11.165 12.7252 11.7724 13.4692C12.3798 14.2133 13.2257 14.7247 14.1668 14.9168V19.1668H15.8335V14.9168C16.7746 14.7247 17.6205 14.2133 18.2279 13.4692C18.8353 12.7252 19.167 11.794 19.1668 10.8335V5.00016C19.1668 4.45299 19.0591 3.91117 18.8497 3.40565C18.6403 2.90012 18.3334 2.4408 17.9464 2.05388C17.5595 1.66697 17.1002 1.36006 16.5947 1.15066C16.0892 0.94127 15.5473 0.833496 15.0002 0.833496ZM17.5002 10.8335C17.5002 11.4965 17.2368 12.1324 16.7679 12.6013C16.2991 13.0701 15.6632 13.3335 15.0002 13.3335C14.3371 13.3335 13.7012 13.0701 13.2324 12.6013C12.7636 12.1324 12.5002 11.4965 12.5002 10.8335V5.00016C12.5002 4.33712 12.7636 3.70124 13.2324 3.2324C13.7012 2.76355 14.3371 2.50016 15.0002 2.50016C15.6632 2.50016 16.2991 2.76355 16.7679 3.2324C17.2368 3.70124 17.5002 4.33712 17.5002 5.00016V10.8335Z" fill="#4E4E4E"/>
</svg>
