<svg width="24" height="24" viewBox="0 0 24 24" fill="none" xmlns="http://www.w3.org/2000/svg">
<g clip-path="url(#clip0_2174_11091)">
<path d="M21.7813 5.07334C21.7808 5.0656 21.78 5.05786 21.7787 5.05018C21.7487 5.00732 21.7118 4.97045 21.6809 4.92845C21.4569 4.62321 21.2196 4.32942 20.9693 4.04703C20.9007 3.96987 20.8321 3.89356 20.7618 3.8181C20.5041 3.54204 20.2337 3.2788 19.9507 3.02847C19.8984 2.98215 19.8496 2.93417 19.7973 2.8887C19.1 2.29133 18.3365 1.77579 17.5218 1.35229C17.4892 1.33516 17.4549 1.32059 17.4214 1.30341C17.0586 1.11904 16.6866 0.953302 16.3068 0.80696C16.2211 0.776114 16.143 0.746926 16.0616 0.721204C15.7238 0.599479 15.3808 0.492875 15.0327 0.401392C14.9299 0.373962 14.827 0.345679 14.7224 0.321665C14.3794 0.241938 14.0365 0.18105 13.6858 0.131315C13.5795 0.115892 13.4749 0.0952945 13.3677 0.0824336C12.4644 -0.0273355 11.5513 -0.0273355 10.648 0.0824336C10.5408 0.0952945 10.4363 0.115892 10.3299 0.131315C9.97924 0.18105 9.63285 0.241938 9.2933 0.321665C9.1887 0.345679 9.08581 0.373962 8.98293 0.401392C8.63252 0.492824 8.2896 0.599429 7.95406 0.721204C7.86831 0.750342 7.79029 0.77953 7.70885 0.80696C7.32911 0.953302 6.95705 1.11899 6.59423 1.30341C6.56077 1.32054 6.52651 1.33511 6.49391 1.35229C5.67649 1.77534 4.91042 2.29083 4.21066 2.8887C4.15836 2.93412 4.10948 2.98215 4.05718 3.02847C3.77138 3.27995 3.501 3.5432 3.2461 3.8181C3.17582 3.89356 3.10719 3.96987 3.03862 4.04703C2.78768 4.32881 2.55046 4.6226 2.327 4.9284C2.29616 4.9704 2.25928 5.00727 2.22924 5.05013C2.22532 5.05761 2.22185 5.06535 2.21894 5.07329C-0.738345 9.21774 -0.738345 14.7826 2.21894 18.927C2.22185 18.9349 2.22527 18.9426 2.22924 18.9501C2.25923 18.993 2.29611 19.0298 2.327 19.0718C2.55051 19.3771 2.78768 19.6709 3.03862 19.9533C3.10719 20.0304 3.17582 20.1067 3.2461 20.1822C3.50447 20.4582 3.7748 20.7215 4.05718 20.9718C4.10948 21.0181 4.15836 21.0661 4.21066 21.1116C4.90796 21.709 5.67147 22.2245 6.48617 22.648C6.51877 22.6651 6.55304 22.6797 6.5865 22.6969C6.94931 22.8813 7.32132 23.047 7.70112 23.1933C7.78687 23.2242 7.86489 23.2534 7.94633 23.2791C8.28412 23.4008 8.6271 23.5074 8.97519 23.5989C9.07808 23.6263 9.18096 23.6546 9.28556 23.6786C9.62853 23.7583 9.97145 23.8192 10.3222 23.869C10.4285 23.8844 10.5331 23.905 10.6403 23.9179C11.5435 24.0276 12.4567 24.0276 13.3599 23.9179C13.4671 23.905 13.5717 23.8844 13.678 23.869C14.0287 23.8192 14.3751 23.7583 14.7146 23.6786C14.8192 23.6546 14.9221 23.6263 15.025 23.5989C15.376 23.5075 15.7189 23.4009 16.0539 23.2791C16.1396 23.2499 16.2176 23.2208 16.2991 23.1933C16.6788 23.047 17.0509 22.8813 17.4137 22.6969C17.4472 22.6797 17.4814 22.6652 17.514 22.648C18.3287 22.2244 19.0922 21.709 19.7895 21.1116C19.8418 21.0661 19.8907 21.0181 19.943 20.9718C20.2288 20.7209 20.4992 20.4577 20.7541 20.1822C20.8244 20.1067 20.893 20.0304 20.9616 19.9533C21.2125 19.6709 21.4497 19.3771 21.6732 19.0718C21.704 19.0298 21.7409 18.993 21.771 18.9501C21.7749 18.9426 21.7783 18.9349 21.7813 18.927C24.7385 14.7826 24.7385 9.21779 21.7813 5.07334ZM20.803 6.69556C21.623 8.04599 22.1181 9.56839 22.2494 11.1428H17.1136C17.0507 10.1212 16.89 9.10802 16.6335 8.11713C18.0842 7.84545 19.4884 7.36668 20.803 6.69556ZM14.1856 1.94816C14.2337 1.95931 14.2799 1.97473 14.328 1.98589C14.6349 2.05793 14.9393 2.14022 15.2368 2.2431C15.2823 2.25852 15.3268 2.27656 15.3714 2.29284C15.6664 2.39572 15.957 2.50976 16.2417 2.63581C16.2914 2.65897 16.3403 2.68469 16.3901 2.70785C16.6627 2.83761 16.9291 2.97793 17.1891 3.12884L17.3606 3.23258C17.6075 3.38349 17.8476 3.54496 18.0808 3.71702C18.1408 3.76073 18.2008 3.80278 18.26 3.85075C18.4886 4.02222 18.7076 4.20598 18.9168 4.40206C18.9716 4.4518 19.0282 4.50068 19.0822 4.55212C19.3017 4.76046 19.5109 4.9808 19.7133 5.20888C19.739 5.23887 19.7664 5.2663 19.7921 5.29463C18.6312 5.8479 17.4013 6.24297 16.1354 6.46924C15.5489 4.85701 14.7742 3.31964 13.8273 1.88908C13.9464 1.91048 14.0682 1.92249 14.1856 1.94816ZM8.60574 11.1428C8.67336 10.2151 8.83131 9.29621 9.07732 8.39916C10.0488 8.51456 11.0262 8.57178 12.0045 8.57063C12.9836 8.57032 13.962 8.51165 14.9342 8.39484C15.1797 9.29334 15.3368 10.2137 15.4031 11.1428H8.60574ZM15.4031 12.8576C15.3355 13.7853 15.1776 14.7042 14.9316 15.6012C13.9601 15.4858 12.9827 15.4286 12.0044 15.4298C11.0253 15.4287 10.047 15.4859 9.07471 15.6012C8.8294 14.7041 8.67236 13.7852 8.60569 12.8576H15.4031ZM12.0044 2.27058C12.9801 3.65347 13.7826 5.1508 14.394 6.72902C13.6003 6.81331 12.8026 6.85567 12.0044 6.85592C11.2071 6.85496 10.4103 6.81236 9.61743 6.72816C10.2295 5.151 11.0311 3.65417 12.0044 2.27058ZM4.29652 5.20797C4.49802 4.97989 4.70806 4.75955 4.92755 4.55122C4.98155 4.49977 5.03817 4.45089 5.09303 4.40116C5.30453 4.20855 5.52347 4.02478 5.74979 3.84985C5.80897 3.80438 5.86895 3.76409 5.92899 3.71612C6.16219 3.54466 6.40227 3.38314 6.64919 3.23168L6.82065 3.12794C7.08073 2.97592 7.34709 2.83555 7.61973 2.70695C7.66947 2.68379 7.71835 2.65806 7.76808 2.6349C8.05273 2.5063 8.3434 2.39226 8.63835 2.29193C8.68291 2.27566 8.7241 2.25762 8.77294 2.2422C9.07044 2.14273 9.37312 2.06044 9.68178 1.98498C9.72981 1.97383 9.77608 1.95841 9.82496 1.94811C9.94242 1.92238 10.0642 1.91038 10.1834 1.88893C9.23608 3.31974 8.46111 4.85742 7.87439 6.46994C6.60845 6.24367 5.37853 5.8486 4.21764 5.29534C4.24336 5.26539 4.27079 5.23796 4.29652 5.20797ZM3.20591 6.69556C4.52017 7.36663 5.92406 7.8454 7.37452 8.11713C7.11836 9.10807 6.95785 10.1213 6.89526 11.1428H1.75952C1.89084 9.56839 2.38598 8.04599 3.20591 6.69556ZM3.20591 17.3049C2.38593 15.9544 1.89079 14.432 1.75952 12.8576H6.89526C6.95815 13.8792 7.11891 14.8924 7.37538 15.8833C5.92467 16.1549 4.52047 16.6337 3.20591 17.3049ZM9.82325 22.0522C9.77523 22.0411 9.72896 22.0257 9.68093 22.0145C9.37398 21.9425 9.06959 21.8602 8.77208 21.7573C8.72662 21.7419 8.68206 21.7238 8.63744 21.7076C8.3425 21.6047 8.05188 21.4906 7.76718 21.3646C7.71744 21.3414 7.66856 21.3157 7.61883 21.2925C7.34619 21.1628 7.07983 21.0225 6.81975 20.8715L6.64829 20.7678C6.40137 20.6169 6.16128 20.4554 5.92808 20.2834C5.86805 20.2397 5.80806 20.1976 5.74888 20.1496C5.52025 19.9782 5.30132 19.7944 5.09213 19.5983C5.03727 19.5486 4.98065 19.4997 4.92665 19.4483C4.70716 19.2399 4.49797 19.0196 4.29561 18.7915C4.26989 18.7615 4.24246 18.7341 4.21674 18.7058C5.37768 18.1525 6.60754 17.7574 7.87348 17.5311C8.45996 19.1434 9.23467 20.6807 10.1815 22.1113C10.0624 22.09 9.94071 22.078 9.82325 22.0522ZM12.0044 21.7299C11.0287 20.347 10.2262 18.8496 9.61487 17.2714C11.2027 17.1005 12.8043 17.1005 14.3922 17.2714L14.3914 17.2723C13.7794 18.8494 12.9778 20.3462 12.0044 21.7299ZM19.7124 18.7924C19.5109 19.0205 19.3008 19.2408 19.0813 19.4492C19.0273 19.5006 18.9707 19.5495 18.9159 19.5992C18.7043 19.7924 18.4854 19.9762 18.2591 20.1505C18.1999 20.196 18.1399 20.2406 18.0799 20.2843C17.8467 20.4557 17.6066 20.6172 17.3597 20.7687L17.1882 20.8725C16.9287 21.0239 16.6623 21.1642 16.3892 21.2934C16.3394 21.3166 16.2905 21.3423 16.2408 21.3655C15.9562 21.4941 15.6655 21.6081 15.3705 21.7085C15.326 21.7247 15.2848 21.7428 15.2359 21.7582C14.9384 21.8577 14.6358 21.9399 14.3271 22.0154C14.2791 22.0266 14.2328 22.042 14.1839 22.0523C14.0665 22.078 13.9447 22.09 13.8255 22.1115C14.7724 20.6809 15.5472 19.1435 16.1336 17.5313C17.3995 17.7576 18.6294 18.1526 19.7903 18.7059C19.7655 18.735 19.7381 18.7624 19.7124 18.7924ZM20.803 17.3049C19.4887 16.6338 18.0848 16.155 16.6344 15.8833C16.8905 14.8924 17.051 13.8792 17.1136 12.8576H22.2494C22.118 14.432 21.6229 15.9544 20.803 17.3049Z" fill="white"/>
</g>
<defs>
<clipPath id="clip0_2174_11091">
<rect width="24" height="24" fill="white"/>
</clipPath>
</defs>
</svg>
