<svg width="20" height="20" viewBox="0 0 20 20" fill="none" xmlns="http://www.w3.org/2000/svg">
<path d="M13.3332 13.8917V18.3334H6.6665V13.8917L9.99984 11.6667L13.3332 13.8917Z" fill="white"/>
<path d="M18.7915 14.3082L17.8748 15.6916L17.4998 15.4499V19.1666H13.3332V13.8916L10.9165 12.2832L13.3332 10.6666L18.7915 14.3082Z" fill="#F9C41F"/>
<path d="M1.2085 14.3082L2.12516 15.6916L2.50016 15.4499V19.1666H6.66683V13.8916L9.0835 12.2832L6.66683 10.6666L1.2085 14.3082Z" fill="#F9C41F" fill-opacity="0.2"/>
<path d="M9.99984 10.6666L4.5415 14.3082L5.45817 15.6916L5.83317 15.4499V19.1666H14.1665V15.4499L14.5415 15.6916L15.4582 14.3082L9.99984 10.6666ZM12.4998 17.4999H10.8332V15.8332H9.1665V17.4999H7.49984V14.3332L9.99984 12.6666L12.4998 14.3332V17.4999Z" fill="#7A7A7A"/>
<path d="M12.5 6.24998C12.5 5.69745 12.2805 5.16754 11.8898 4.77684C11.4991 4.38614 10.9692 4.16665 10.4166 4.16665H9.58331C9.47281 4.16665 9.36683 4.12275 9.28869 4.04461C9.21055 3.96647 9.16665 3.86049 9.16665 3.74998C9.16665 3.63947 9.21055 3.53349 9.28869 3.45535C9.36683 3.37721 9.47281 3.33331 9.58331 3.33331H12.5V1.66665H10.8333V0.833313H9.16665V1.66665C8.61411 1.7219 8.10616 1.99438 7.75453 2.42415C7.4029 2.85393 7.23639 3.40578 7.29165 3.95831C7.3469 4.51085 7.61938 5.0188 8.04916 5.37043C8.47893 5.72206 9.03078 5.88857 9.58331 5.83331H10.4166C10.5272 5.83331 10.6331 5.87721 10.7113 5.95535C10.7894 6.03349 10.8333 6.13947 10.8333 6.24998C10.8333 6.36049 10.7894 6.46647 10.7113 6.54461C10.6331 6.62275 10.5272 6.66665 10.4166 6.66665H7.49998V8.33331H9.16665V9.16665H10.8333V8.33331C11.311 8.23592 11.7394 7.9741 12.0439 7.59343C12.3484 7.21277 12.5098 6.73737 12.5 6.24998Z" fill="#7A7A7A"/>
</svg>
