<svg width="17" height="17" viewBox="0 0 17 17" fill="none" xmlns="http://www.w3.org/2000/svg">
<path d="M0.796875 6.89062C0.796875 10.3281 3.59375 13.125 7.03125 13.125C8.39062 13.125 9.63281 12.6875 10.6562 11.9531L14.5 15.8047C14.6797 15.9844 14.9141 16.0703 15.1641 16.0703C15.6953 16.0703 16.0625 15.6719 16.0625 15.1484C16.0625 14.8984 15.9688 14.6719 15.8047 14.5078L11.9844 10.6641C12.7891 9.61719 13.2656 8.3125 13.2656 6.89062C13.2656 3.45312 10.4688 0.65625 7.03125 0.65625C3.59375 0.65625 0.796875 3.45312 0.796875 6.89062ZM2.13281 6.89062C2.13281 4.1875 4.32812 1.99219 7.03125 1.99219C9.73438 1.99219 11.9297 4.1875 11.9297 6.89062C11.9297 9.59375 9.73438 11.7891 7.03125 11.7891C4.32812 11.7891 2.13281 9.59375 2.13281 6.89062Z" fill="#7A7A7A"/>
</svg>
