<svg width="20" height="20" viewBox="0 0 20 20" fill="none" xmlns="http://www.w3.org/2000/svg">
<path d="M19.6879 4.77957L15.22 0.311477C14.8041 -0.10447 14.1295 -0.10447 13.7136 0.311435L13.3485 0.67637L15.181 2.50882C15.3868 2.71463 15.3868 3.04851 15.1811 3.25424C14.9753 3.46 14.6414 3.46005 14.4356 3.25424L12.6032 1.42179L11.3609 2.66412L12.1995 3.50274C12.4052 3.70846 12.4052 4.04239 12.1995 4.24811C11.9937 4.45388 11.6598 4.45384 11.4541 4.24811L10.6155 3.4095L9.3731 4.65183L10.2118 5.49045C10.4175 5.69617 10.4175 6.03014 10.2118 6.23586C10.006 6.44163 9.67207 6.44159 9.46643 6.23586L8.62777 5.39725L7.38543 6.63958L9.21789 8.47203C9.42365 8.67784 9.42365 9.01168 9.21789 9.21745C9.01212 9.42322 8.67823 9.42322 8.47251 9.21741L6.64002 7.38496L5.39768 8.62733L6.23634 9.46595C6.44202 9.67163 6.44202 10.0056 6.23625 10.2113C6.03057 10.417 5.69665 10.417 5.49092 10.2113L4.65235 9.37267L3.41001 10.615L4.24858 11.4536C4.45431 11.6593 4.45431 11.9933 4.24858 12.199C4.04286 12.4048 3.70889 12.4048 3.50317 12.1991L2.66459 11.3605L1.42226 12.6028L3.25467 14.4352C3.46047 14.6411 3.46047 14.9749 3.25471 15.1807C3.04898 15.3864 2.71506 15.3864 2.50929 15.1806L0.676838 13.3482L0.311944 13.7131C-0.104002 14.129 -0.10396 14.8035 0.311944 15.2194L4.78 19.6875C5.19586 20.1034 5.87044 20.1034 6.28634 19.6876L19.6881 6.28578C20.1038 5.86996 20.1038 5.19543 19.6879 4.77957Z" fill="black"/>
</svg>
