<svg width="15" height="15" viewBox="0 0 15 15" fill="none" xmlns="http://www.w3.org/2000/svg">
<path d="M0.522461 14.457C0.90918 14.835 1.54199 14.835 1.91113 14.4658L7.31641 9.06055L12.7217 14.4658C13.0996 14.835 13.7324 14.8438 14.1104 14.457C14.4883 14.0791 14.4883 13.4463 14.1191 13.0771L8.71387 7.66309L14.1191 2.25781C14.4883 1.88867 14.4971 1.24707 14.1104 0.87793C13.7236 0.5 13.0996 0.5 12.7217 0.869141L7.31641 6.27441L1.91113 0.869141C1.54199 0.5 0.900391 0.491211 0.522461 0.869141C0.144531 1.25586 0.15332 1.89746 0.522461 2.25781L5.92773 7.66309L0.522461 13.0771C0.15332 13.4375 0.144531 14.0879 0.522461 14.457Z" fill="black"/>
</svg>
