<svg width="20" height="20" viewBox="0 0 20 20" fill="none" xmlns="http://www.w3.org/2000/svg">
<path d="M4.33594 13.75C4.76741 13.75 5.11719 13.4002 5.11719 12.9688C5.11719 12.5373 4.76741 12.1875 4.33594 12.1875C3.90447 12.1875 3.55469 12.5373 3.55469 12.9688C3.55469 13.4002 3.90447 13.75 4.33594 13.75Z" fill="white"/>
<path d="M6.60156 15C7.03303 15 7.38281 14.6502 7.38281 14.2188C7.38281 13.7873 7.03303 13.4375 6.60156 13.4375C6.17009 13.4375 5.82031 13.7873 5.82031 14.2188C5.82031 14.6502 6.17009 15 6.60156 15Z" fill="white"/>
<path d="M5.54688 4.29688C5.54688 3.62914 5.00368 3.08594 4.33594 3.08594C3.6682 3.08594 3.125 3.62914 3.125 4.29688C3.125 4.96461 3.6682 5.50781 4.33594 5.50781C5.00368 5.50781 5.54688 4.96461 5.54688 4.29688Z" fill="white"/>
<path d="M4.20051 10.5469H4.42973C4.69727 10.5469 4.94617 10.41 5.08945 10.1841C5.48922 9.55391 6.00141 8.99496 6.49672 8.45445C7.54477 7.31082 8.62844 6.1282 8.63023 4.29762C8.62742 1.92789 6.69168 0 4.31512 0C1.93855 0 0.00277344 1.92789 0 4.2993C0.00179688 6.12816 1.08547 7.31074 2.13352 8.45441C2.62879 8.99496 3.14102 9.55387 3.54078 10.1841C3.68406 10.41 3.93293 10.5469 4.20051 10.5469ZM3.28543 7.39875C2.32348 6.34902 1.56367 5.51984 1.5625 4.29941C1.56426 2.79027 2.79906 1.5625 4.31512 1.5625C5.83117 1.5625 7.06598 2.79027 7.0677 4.29773C7.06652 5.51984 6.30672 6.34902 5.34473 7.39879C5 7.77496 4.64785 8.1593 4.31512 8.58176C3.98234 8.1593 3.6302 7.77496 3.28543 7.39875Z" fill="white"/>
<path d="M11.1328 17.5C11.5643 17.5 11.9141 17.1502 11.9141 16.7188C11.9141 16.2873 11.5643 15.9375 11.1328 15.9375C10.7013 15.9375 10.3516 16.2873 10.3516 16.7188C10.3516 17.1502 10.7013 17.5 11.1328 17.5Z" fill="white"/>
<path d="M15.7031 9.14062C15.0354 9.14062 14.4922 9.68383 14.4922 10.3516C14.4922 11.0193 15.0354 11.5625 15.7031 11.5625C16.3709 11.5625 16.9141 11.0193 16.9141 10.3516C16.9141 9.68383 16.3709 9.14062 15.7031 9.14062Z" fill="white"/>
<path d="M8.90625 16.25C9.33772 16.25 9.6875 15.9002 9.6875 15.4688C9.6875 15.0373 9.33772 14.6875 8.90625 14.6875C8.47478 14.6875 8.125 15.0373 8.125 15.4688C8.125 15.9002 8.47478 16.25 8.90625 16.25Z" fill="white"/>
<path d="M15.6823 6.05469C13.3057 6.05469 11.37 7.98258 11.3672 10.354C11.3689 12.1733 12.4759 13.3475 13.5464 14.4831C14.0638 15.0319 14.5988 15.5994 15.0043 16.2388C15.1531 16.4734 15.4061 16.6017 15.6648 16.6017C15.8079 16.6017 15.9527 16.5623 16.0825 16.48C16.4468 16.2489 16.5549 15.7662 16.3238 15.4018C15.8381 14.6362 15.2511 14.0135 14.6833 13.4113C13.7042 12.3726 12.9309 11.5523 12.9296 10.3541C12.9314 8.84496 14.1663 7.61719 15.6823 7.61719C17.1984 7.61719 18.4332 8.84496 18.4349 10.3524C18.4339 11.349 17.9716 12.0742 17.2261 12.9213C16.941 13.2452 16.9725 13.7389 17.2964 14.024C17.6202 14.309 18.114 14.2776 18.399 13.9537C19.2283 13.0114 19.9959 11.9232 19.9975 10.3523C19.9946 7.98258 18.0589 6.05469 15.6823 6.05469Z" fill="white"/>
<path d="M13.4375 18.75C13.869 18.75 14.2188 18.4002 14.2188 17.9688C14.2188 17.5373 13.869 17.1875 13.4375 17.1875C13.006 17.1875 12.6562 17.5373 12.6562 17.9688C12.6562 18.4002 13.006 18.75 13.4375 18.75Z" fill="white"/>
<path d="M15.6836 20C16.1151 20 16.4648 19.6502 16.4648 19.2188C16.4648 18.7873 16.1151 18.4375 15.6836 18.4375C15.2521 18.4375 14.9023 18.7873 14.9023 19.2188C14.9023 19.6502 15.2521 20 15.6836 20Z" fill="white"/>
</svg>
