<svg width="12" height="20" viewBox="0 0 12 20" fill="none" xmlns="http://www.w3.org/2000/svg">
<path d="M6.88418 8.75033V4.30642C7.83482 4.46677 8.73119 4.85685 9.49753 5.44264C9.6503 5.54741 9.82956 5.60424 10.0151 5.60674C10.6098 5.60674 11.0946 5.12826 11.1009 4.53365C11.1021 4.27864 11.0024 4.03372 10.8231 3.85192C9.71593 2.90379 8.3272 2.34452 6.87156 2.2612V0.77146C6.87156 0.345988 6.52691 0.00133577 6.10144 0.00133577C6.09261 8.5757e-05 6.08374 8.5757e-05 6.07492 8.5757e-05C5.64315 -0.00624243 5.28714 0.338448 5.28081 0.77146V2.21069C2.44023 2.41269 0.508651 4.16755 0.508651 6.50312C0.508651 9.36893 2.94524 10.1643 5.28081 10.7955V15.8455C4.04861 15.6801 2.88715 15.1688 1.93523 14.3684C1.75597 14.2257 1.53374 14.1462 1.30397 14.1412C0.721973 14.1816 0.273805 14.6689 0.281344 15.2521C0.280094 15.5071 0.379821 15.7521 0.559081 15.9339C1.86323 17.108 3.53981 17.7834 5.29338 17.8402V19.2289C5.29338 19.2378 5.29463 19.2466 5.29463 19.2555C5.31483 19.6872 5.68222 20.0205 6.11398 19.9991C6.53945 19.9991 6.8841 19.6544 6.8841 19.2289V17.815C10.3307 17.5878 11.7194 15.492 11.7194 13.2701C11.7195 10.2906 9.21979 9.38158 6.88418 8.75033ZM5.29346 8.34634C3.91736 7.94235 2.84426 7.52575 2.84426 6.35163C2.84426 5.17752 3.81638 4.33165 5.29346 4.21806V8.34634ZM6.88418 15.8707V11.2753C8.3108 11.6793 9.42175 12.2222 9.40913 13.5478C9.40913 14.5073 8.75264 15.6435 6.88418 15.8707Z" fill="black"/>
</svg>
