<svg width="24" height="22" viewBox="0 0 24 22" fill="none" xmlns="http://www.w3.org/2000/svg">
<path d="M16.5952 0.482422H2.71406C1.21734 0.482422 0 1.69977 0 3.19649V15.3606C0 15.9367 0.651516 16.2614 1.11141 15.9329L4.97719 13.1748C5.30156 12.9437 5.68313 12.8213 6.08156 12.8213H14.5842C16.0809 12.8213 17.2983 11.604 17.2983 10.1073V1.18555C17.2983 0.797422 16.9833 0.482422 16.5952 0.482422ZM13.1798 9.00009H5.05594C4.66781 9.00009 4.35281 8.68556 4.35281 8.29696C4.35281 7.90884 4.66781 7.59384 5.05594 7.59384H13.1798C13.568 7.59384 13.883 7.90884 13.883 8.29696C13.883 8.68556 13.568 9.00009 13.1798 9.00009ZM13.1798 5.71883H5.05594C4.66781 5.71883 4.35281 5.4043 4.35281 5.01571C4.35281 4.62758 4.66781 4.31258 5.05594 4.31258H13.1798C13.568 4.31258 13.883 4.62758 13.883 5.01571C13.883 5.4043 13.568 5.71883 13.1798 5.71883Z" fill="#FEFFFF"/>
<path d="M23.9999 8.65057V20.8142C23.9999 21.3864 23.3517 21.7173 22.8885 21.3865L19.0228 18.6288C18.6984 18.3978 18.3168 18.2754 17.9184 18.2754H9.41572C7.919 18.2754 6.70166 17.0576 6.70166 15.5609V14.2278H14.5842C16.8562 14.2278 18.7045 12.3795 18.7045 10.1074V5.93604H21.2859C22.7826 5.93604 23.9999 7.15385 23.9999 8.65057Z" fill="#FEFFFF"/>
</svg>
