<svg width="25" height="24" viewBox="0 0 25 24" fill="none" xmlns="http://www.w3.org/2000/svg">
<path d="M14.3329 3.50166L14.3329 3.50166L14.336 3.50458L22.935 11.5477C22.9357 11.5484 22.9365 11.5491 22.9372 11.5498C23.063 11.6696 23.1178 11.7624 23.1437 11.8219C23.1691 11.8805 23.1794 11.9364 23.1794 12C23.1794 12.0463 23.1708 12.1018 23.1419 12.1674C23.1129 12.2331 23.0552 12.3274 22.9359 12.4405C22.9358 12.4407 22.9356 12.4408 22.9355 12.4409L14.3352 20.5616C14.3348 20.562 14.3345 20.5623 14.3341 20.5626C13.9157 20.9546 13.7125 21 13.5251 21C13.406 21 13.3415 20.9595 13.3086 20.9268C13.2758 20.8942 13.2383 20.8337 13.2383 20.7241V16.5583V15.5583H12.2383H11.9221C9.74018 15.5583 7.84064 15.8321 6.21074 16.6432C4.55831 17.4654 3.27886 18.7914 2.25281 20.7175C2.14608 20.9111 2.06589 20.9526 2.0454 20.9627C2.01096 20.9799 1.94726 20.9995 1.79646 21C1.79259 20.9973 1.78588 20.9915 1.77628 20.98C1.74646 20.9443 1.66797 20.8196 1.66797 20.5387C1.66797 16.6276 2.49961 13.6186 4.13188 11.6029C5.73341 9.62506 8.22957 8.45256 11.9221 8.45256H12.2383H13.2383V7.45256V3.33043C13.2383 3.21601 13.2797 3.13373 13.3276 3.08392C13.3714 3.03826 13.4384 3 13.5469 3C13.6482 3 13.7063 3.01594 13.7863 3.05976C13.8981 3.12097 14.0563 3.24072 14.3329 3.50166ZM1.80045 21.002C1.80046 21.0022 1.79951 21.002 1.7976 21.0007C1.79949 21.0012 1.80045 21.0019 1.80045 21.002Z" fill="white" stroke="#222222" stroke-width="2"/>
<circle cx="16.668" cy="12" r="2" fill="#F9C41F"/>
</svg>
