<svg width="32" height="32" viewBox="0 0 32 32" fill="none" xmlns="http://www.w3.org/2000/svg">
<g clip-path="url(#clip0_658_36763)">
<path d="M31.2471 12.3564L28.7876 11.8218C28.5737 11.167 28.3088 10.5283 27.9961 9.91309L29.3577 7.79517C29.6008 7.41675 29.5474 6.91992 29.2295 6.60205L25.3979 2.77051C25.0801 2.45264 24.5833 2.39917 24.2048 2.64233L22.0869 4.00391C21.4717 3.69116 20.833 3.42627 20.1782 3.2124L19.6436 0.75293C19.5481 0.313477 19.1589 0 18.7092 0H13.2908C12.8411 0 12.4519 0.313477 12.3564 0.75293L11.8218 3.2124C11.167 3.42627 10.5283 3.69116 9.91309 4.00391L7.79517 2.64233C7.41675 2.39917 6.91992 2.45264 6.60205 2.77051L2.77051 6.60205C2.45264 6.91992 2.39917 7.41675 2.64233 7.79517L4.00391 9.91309C3.69116 10.5283 3.42627 11.167 3.2124 11.8218L0.75293 12.3564C0.313477 12.4521 0 12.8411 0 13.2908V18.7092C0 19.1589 0.313477 19.5479 0.75293 19.6436L3.2124 20.1782C3.42627 20.833 3.69116 21.4717 4.00391 22.0869L2.64233 24.2048C2.39917 24.5833 2.45264 25.0801 2.77051 25.3979L6.60205 29.2295C6.91992 29.5474 7.41675 29.6008 7.79517 29.3577L9.91309 27.9961C10.5283 28.3088 11.167 28.5737 11.8218 28.7876L12.3564 31.2471C12.4519 31.6865 12.8411 32 13.2908 32H18.7092C19.1589 32 19.5481 31.6865 19.6436 31.2471L20.1782 28.7876C20.833 28.5737 21.4717 28.3088 22.0869 27.9961L24.2048 29.3577C24.5833 29.6008 25.0801 29.5476 25.3979 29.2295L29.2295 25.3979C29.5474 25.0801 29.6008 24.5833 29.3577 24.2048L27.9961 22.0869C28.3088 21.4717 28.5737 20.833 28.7876 20.1782L31.2471 19.6436C31.6865 19.5479 32 19.1589 32 18.7092V13.2908C32 12.8411 31.6865 12.4521 31.2471 12.3564ZM21.7371 16C21.7371 19.1633 19.1633 21.7371 16 21.7371C12.8367 21.7371 10.2629 19.1633 10.2629 16C10.2629 12.8367 12.8367 10.2629 16 10.2629C19.1633 10.2629 21.7371 12.8367 21.7371 16Z" fill="white"/>
<path fill-rule="evenodd" clip-rule="evenodd" d="M26.7273 14.1028L26.2527 12.6497C26.0817 12.126 25.8696 11.6145 25.6189 11.1215L24.9257 9.7578L26.369 7.5128L24.4872 5.631L22.2422 7.07427L20.8785 6.38107C20.3855 6.13043 19.874 5.91833 19.3503 5.74728L17.8972 5.27266L17.3306 2.66667H14.6694L14.1028 5.27266L12.6497 5.74728C12.126 5.91833 11.6145 6.13043 11.1215 6.38107L9.7578 7.07427L7.5128 5.631L5.631 7.5128L7.07427 9.7578L6.38107 11.1215C6.13043 11.6145 5.91833 12.126 5.74728 12.6497L5.27266 14.1028L2.66667 14.6694V17.3306L5.27266 17.8972L5.74728 19.3503C5.91833 19.874 6.13043 20.3855 6.38107 20.8785L7.07427 22.2422L5.631 24.4872L7.5128 26.369L9.7578 24.9257L11.1215 25.6189C11.6145 25.8696 12.126 26.0817 12.6497 26.2527L14.1028 26.7273L14.6694 29.3333H17.3306L17.8972 26.7273L19.3503 26.2527C19.874 26.0817 20.3855 25.8696 20.8785 25.6189L22.2422 24.9257L24.4872 26.369L26.369 24.4872L24.9257 22.2422L25.6189 20.8785C25.8696 20.3855 26.0817 19.874 26.2527 19.3503L26.7273 17.8972L29.3333 17.3306V14.6694L26.7273 14.1028ZM29.3577 24.2048C29.6008 24.5833 29.5474 25.0801 29.2295 25.3979L25.3979 29.2295C25.0801 29.5476 24.5833 29.6008 24.2048 29.3577L22.0869 27.9961C21.4717 28.3088 20.833 28.5737 20.1782 28.7876L19.6436 31.2471C19.5481 31.6865 19.1589 32 18.7092 32H13.2908C12.8411 32 12.4519 31.6865 12.3564 31.2471L11.8218 28.7876C11.167 28.5737 10.5283 28.3088 9.91309 27.9961L7.79517 29.3577C7.41675 29.6008 6.91992 29.5474 6.60205 29.2295L2.77051 25.3979C2.45264 25.0801 2.39917 24.5833 2.64233 24.2048L4.00391 22.0869C3.69116 21.4717 3.42627 20.833 3.2124 20.1782L0.75293 19.6436C0.313477 19.5479 0 19.1589 0 18.7092V13.2908C0 12.8411 0.313477 12.4521 0.75293 12.3564L3.2124 11.8218C3.42627 11.167 3.69116 10.5283 4.00391 9.91309L2.64233 7.79517C2.39917 7.41675 2.45264 6.91992 2.77051 6.60205L6.60205 2.77051C6.91992 2.45264 7.41675 2.39917 7.79517 2.64233L9.91309 4.00391C10.5283 3.69116 11.167 3.42627 11.8218 3.2124L12.3564 0.75293C12.4519 0.313477 12.8411 0 13.2908 0H18.7092C19.1589 0 19.5481 0.313477 19.6436 0.75293L20.1782 3.2124C20.833 3.42627 21.4717 3.69116 22.0869 4.00391L24.2048 2.64233C24.5833 2.39917 25.0801 2.45264 25.3979 2.77051L29.2295 6.60205C29.5474 6.91992 29.6008 7.41675 29.3577 7.79517L27.9961 9.91309C28.3088 10.5283 28.5737 11.167 28.7876 11.8218L31.2471 12.3564C31.6865 12.4521 32 12.8411 32 13.2908V18.7092C32 19.1589 31.6865 19.5479 31.2471 19.6436L28.7876 20.1782C28.5737 20.833 28.3088 21.4717 27.9961 22.0869L29.3577 24.2048ZM24.4037 16C24.4037 20.6361 20.6361 24.4037 16 24.4037C11.3639 24.4037 7.59627 20.6361 7.59627 16C7.59627 11.3639 11.3639 7.59627 16 7.59627C20.6361 7.59627 24.4037 11.3639 24.4037 16ZM16 21.7371C19.1633 21.7371 21.7371 19.1633 21.7371 16C21.7371 12.8367 19.1633 10.2629 16 10.2629C12.8367 10.2629 10.2629 12.8367 10.2629 16C10.2629 19.1633 12.8367 21.7371 16 21.7371Z" fill="#4E4E4E"/>
<path fill-rule="evenodd" clip-rule="evenodd" d="M24.4041 16.0014C24.4041 20.6375 20.6365 24.4051 16.0004 24.4051C11.3643 24.4051 7.59668 20.6375 7.59668 16.0014C7.59668 11.3653 11.3643 7.59766 16.0004 7.59766C20.6365 7.59766 24.4041 11.3653 24.4041 16.0014ZM16.0004 21.7384C19.1637 21.7384 21.7375 19.1647 21.7375 16.0014C21.7375 12.8381 19.1637 10.2643 16.0004 10.2643C12.8371 10.2643 10.2633 12.8381 10.2633 16.0014C10.2633 19.1647 12.8371 21.7384 16.0004 21.7384Z" fill="#F9C41F"/>
</g>
<defs>
<clipPath id="clip0_658_36763">
<rect width="32" height="32" fill="white"/>
</clipPath>
</defs>
</svg>
