<svg width="21" height="20" viewBox="0 0 21 20" fill="none" xmlns="http://www.w3.org/2000/svg">
<path d="M16.3333 11.6665H8V18.3332H16.3333V11.6665Z" fill="white"/>
<path d="M9.66667 6.6665V11.6665H8V18.3332H3V6.6665H9.66667Z" fill="white"/>
<path d="M14.6667 3.3335V11.6668H9.66667V6.66683H8V3.3335H14.6667Z" fill="white"/>
<path d="M18.8332 6.66667V18.3333H16.3332V11.6667H14.6665V5L18.8332 6.66667Z" fill="#F9C41F" fill-opacity="0.2"/>
<path d="M13.8333 14.1665H10.5V17.4998H13.8333V14.1665Z" fill="#F9C41F"/>
<path d="M17.1668 17.5002V10.8335H15.5002V2.50016H12.1668V0.833496H10.5002V2.50016H7.16683V5.8335H2.16683V17.5002H1.3335V19.1668H19.6668V17.5002H17.1668ZM8.8335 4.16683H13.8335V6.66683H12.1668V8.3335H13.8335V10.8335H10.5002V5.8335H8.8335V4.16683ZM7.16683 17.5002H3.8335V14.1668H5.50016V12.5002H3.8335V10.8335H5.50016V9.16683H3.8335V7.50016H8.8335V10.8335H7.16683V17.5002ZM15.5002 17.5002H8.8335V12.5002H15.5002V17.5002Z" fill="#4E4E4E"/>
</svg>
