<svg width="25" height="24" viewBox="0 0 25 24" fill="none" xmlns="http://www.w3.org/2000/svg">
<g clip-path="url(#clip0_565_23107)">
<path d="M22.5 14.0004C22.5011 14.3103 22.4345 14.6167 22.305 14.8982C22.1755 15.1798 21.9861 15.4296 21.75 15.6304L16.34 20.2704C15.7966 20.7351 15.105 20.9905 14.39 20.9904C6.5 21.0004 8.06 21.2704 5.5 20.0004V13.0004C7.95 11.7904 6.77 12.0004 12.5 12.0004C12.8943 12.0021 13.2794 12.1203 13.6067 12.3401C13.9341 12.56 14.1892 12.8718 14.3398 13.2362C14.4905 13.6006 14.5301 14.0014 14.4536 14.3883C14.3772 14.7751 14.188 15.1307 13.91 15.4104C13.5366 15.786 13.0296 15.9982 12.5 16.0004H13.5L19.16 12.2304C19.4817 12.0126 19.8566 11.8864 20.2445 11.8654C20.6325 11.8445 21.0188 11.9295 21.3621 12.1114C21.7053 12.2933 21.9926 12.5653 22.1931 12.898C22.3936 13.2308 22.4997 13.6119 22.5 14.0004Z" fill="white"/>
<path d="M1.5 11H3.5C4.03043 11 4.53914 11.2107 4.91421 11.5858C5.28929 11.9609 5.5 12.4696 5.5 13V20C5.5 20.5304 5.28929 21.0391 4.91421 21.4142C4.53914 21.7893 4.03043 22 3.5 22H1.5V11Z" fill="#F9C41F" fill-opacity="0.2"/>
<path d="M21.84 11.2397C21.3383 10.9704 20.773 10.8422 20.2043 10.8686C19.6355 10.895 19.0846 11.0751 18.61 11.3897L15.5 13.4897C15.3786 12.7853 15.0096 12.1474 14.4596 11.6909C13.9096 11.2344 13.2147 10.9893 12.5 10.9997C6.55 10.9997 7.83 10.7197 4.5 12.3797V20.6197C7.95 22.3397 6.28 21.9997 14.39 21.9997C15.3485 21.9887 16.2711 21.6338 16.99 20.9997L22.4 16.3997C22.7893 16.0677 23.0916 15.6456 23.2806 15.1702C23.4696 14.6947 23.5395 14.1803 23.4843 13.6716C23.4291 13.163 23.2504 12.6755 22.9638 12.2517C22.6773 11.8278 22.2915 11.4804 21.84 11.2397ZM21.1 14.8797C15.21 19.8797 15.38 19.9997 14.39 19.9997C6.99 19.9997 8.09 20.1797 6.5 19.3797V13.6197C8.11 12.8097 7.2 12.9997 12.5 12.9997C12.7652 12.9997 13.0196 13.1051 13.2071 13.2926C13.3946 13.4801 13.5 13.7345 13.5 13.9997C13.5 14.2649 13.3946 14.5193 13.2071 14.7068C13.0196 14.8943 12.7652 14.9997 12.5 14.9997H9.5V16.9997H13.8L19.72 13.0597C19.9613 12.8767 20.2655 12.7971 20.5656 12.8383C20.8656 12.8796 21.137 13.0383 21.32 13.2797C21.503 13.521 21.5826 13.8252 21.5414 14.1253C21.5001 14.4253 21.3413 14.6967 21.1 14.8797Z" fill="#4E4E4E"/>
<path d="M23.0355 1.46445C22.0912 0.520078 20.8355 0 19.5 0C18.1645 0 16.9088 0.520078 15.9645 1.46445C15.0201 2.40883 14.5 3.66445 14.5 5C14.5 6.33555 15.0201 7.59115 15.9645 8.53555C16.9088 9.47994 18.1645 10 19.5 10C20.8355 10 22.0912 9.47992 23.0355 8.53555C23.9799 7.59117 24.5 6.33555 24.5 5C24.5 3.66445 23.9799 2.40885 23.0355 1.46445ZM19.5 4.6875C20.2754 4.6875 20.9062 5.31834 20.9062 6.09375C20.9062 6.73588 20.4735 7.2785 19.8844 7.44615C19.8421 7.4582 19.8125 7.49627 19.8125 7.54027V7.80367C19.8125 7.97195 19.6832 8.11674 19.5151 8.12465C19.3356 8.13309 19.1875 7.9901 19.1875 7.8125V7.54021C19.1875 7.49633 19.1581 7.45824 19.1159 7.44623C18.5293 7.27943 18.0977 6.7409 18.0938 6.10248C18.0927 5.93207 18.2267 5.78627 18.3971 5.78139C18.5738 5.77631 18.7188 5.91811 18.7188 6.09375C18.7188 6.54301 19.0999 6.90492 19.5558 6.87305C19.9407 6.84615 20.2524 6.53439 20.2793 6.14955C20.3111 5.69363 19.9492 5.3125 19.5 5.3125C18.7246 5.3125 18.0938 4.68166 18.0938 3.90625C18.0938 3.26412 18.5265 2.7215 19.1156 2.55385C19.1579 2.5418 19.1875 2.50373 19.1875 2.45973V2.19633C19.1875 2.02805 19.3168 1.88326 19.4849 1.87535C19.6644 1.86691 19.8125 2.0099 19.8125 2.1875V2.45979C19.8125 2.50367 19.8419 2.54176 19.8841 2.55377C20.4707 2.72057 20.9023 3.2591 20.9062 3.89752C20.9073 4.06793 20.7733 4.21373 20.6029 4.21861C20.4262 4.22369 20.2812 4.08189 20.2812 3.90625C20.2812 3.45699 19.9001 3.09508 19.4442 3.12695C19.0593 3.15385 18.7476 3.46561 18.7207 3.85045C18.6889 4.30637 19.0508 4.6875 19.5 4.6875Z" fill="#F9C41F"/>
</g>
<defs>
<clipPath id="clip0_565_23107">
<rect width="24" height="24" fill="white" transform="translate(0.5)"/>
</clipPath>
</defs>
</svg>
