<svg width="28" height="27" viewBox="0 0 28 27" fill="none" xmlns="http://www.w3.org/2000/svg">
<path d="M13.9766 18.2734L15.5352 16.6914C13.9883 16.5742 12.9805 16.1055 12.2188 15.3438C10.168 13.293 10.1797 10.3867 12.207 8.35938L16.0273 4.53906C18.0781 2.5 20.9609 2.48828 23.0117 4.53906C25.0625 6.58984 25.0391 9.48438 23.0117 11.5117L20.7148 13.8086C21.043 14.5586 21.1133 15.4258 20.9961 16.1875L24.4414 12.7539C27.2422 9.94141 27.2656 5.96875 24.4297 3.12109C21.582 0.273438 17.5977 0.296875 14.7852 3.10938L10.7891 7.11719C7.97656 9.92969 7.95312 13.9141 10.8008 16.75C11.5391 17.4883 12.4766 18.0156 13.9766 18.2734ZM14.2695 8.61719L12.7109 10.1992C14.2578 10.3281 15.2656 10.7852 16.0273 11.5469C18.0781 13.5977 18.0664 16.5039 16.0391 18.5312L12.207 22.3516C10.168 24.3906 7.28516 24.4023 5.23438 22.3633C3.18359 20.3008 3.19531 17.418 5.23438 15.3789L7.53125 13.082C7.20312 12.3438 7.12109 11.4648 7.25 10.7031L3.80469 14.1367C1.00391 16.9492 0.980469 20.9336 3.81641 23.7695C6.66406 26.6172 10.6484 26.5938 13.4492 23.793L17.457 19.7734C20.2695 16.9609 20.293 12.9766 17.4453 10.1406C16.707 9.40234 15.7695 8.875 14.2695 8.61719Z" fill="#4E4E4E"/>
</svg>
