<svg width="22" height="5" viewBox="0 0 22 5" fill="none" xmlns="http://www.w3.org/2000/svg">
<path d="M4.8125 2.5625C4.8125 1.36719 3.85156 0.417969 2.65625 0.417969C1.47266 0.417969 0.511719 1.36719 0.511719 2.5625C0.511719 3.74609 1.47266 4.69531 2.65625 4.69531C3.85156 4.69531 4.8125 3.74609 4.8125 2.5625ZM13.1328 2.5625C13.1328 1.36719 12.1836 0.417969 11 0.417969C9.81641 0.417969 8.85547 1.36719 8.85547 2.5625C8.85547 3.74609 9.81641 4.69531 11 4.69531C12.1836 4.69531 13.1328 3.74609 13.1328 2.5625ZM21.4766 2.5625C21.4766 1.36719 20.5156 0.417969 19.332 0.417969C18.1367 0.417969 17.1758 1.36719 17.1758 2.5625C17.1758 3.74609 18.1367 4.69531 19.332 4.69531C20.5156 4.69531 21.4766 3.74609 21.4766 2.5625Z" fill="black"/>
</svg>
