<svg width="46" height="46" viewBox="0 0 46 46" fill="none" xmlns="http://www.w3.org/2000/svg">
<path d="M0 38.7368C0 32.4779 0 29.3484 0.436438 26.733C2.6862 13.2509 13.2509 2.6862 26.733 0.436438C29.3484 0 32.4779 0 38.7368 0V0C39.9104 0 40.4972 0 40.9876 0.0818322C43.5155 0.503663 45.4963 2.48454 45.9182 5.01243C46 5.50283 46 6.0896 46 7.26316V36.4C46 39.7603 46 41.4405 45.346 42.7239C44.7708 43.8529 43.8529 44.7708 42.7239 45.346C41.4405 46 39.7603 46 36.4 46H7.26316C6.0896 46 5.50283 46 5.01243 45.9182C2.48454 45.4963 0.503663 43.5155 0.0818322 40.9876C0 40.4972 0 39.9104 0 38.7368V38.7368Z" fill="url(#paint0_radial_372_7060)"/>
<path d="M45.5 7.26316V36.4C45.5 38.0884 45.4996 39.3246 45.4199 40.3001C45.3407 41.2697 45.1856 41.9374 44.9005 42.4969C44.3732 43.5318 43.5318 44.3732 42.4969 44.9005C41.9374 45.1856 41.2697 45.3407 40.3001 45.4199C39.3246 45.4996 38.0884 45.5 36.4 45.5H7.26316C6.06948 45.5 5.53396 45.4983 5.09473 45.425C2.7775 45.0383 0.961691 43.2225 0.575013 40.9053C0.501719 40.466 0.5 39.9305 0.5 38.7368C0.5 32.4578 0.501719 29.3795 0.929619 26.8153C3.14423 13.5438 13.5438 3.14423 26.8153 0.929619C29.3795 0.501719 32.4578 0.5 38.7368 0.5C39.9305 0.5 40.466 0.501719 40.9053 0.575013C43.2225 0.961691 45.0383 2.7775 45.425 5.09473C45.4983 5.53396 45.5 6.06948 45.5 7.26316Z" stroke="white" stroke-opacity="0.3"/>
<g clip-path="url(#clip0_372_7060)">
<path d="M29.3563 29.2319V22.7089C29.6139 22.6222 29.8324 22.4467 29.9725 22.2137C30.1126 21.9807 30.1652 21.7055 30.1209 21.4372C30.0767 21.169 29.9384 20.9252 29.7309 20.7496C29.5234 20.574 29.2601 20.4779 28.9883 20.4786H27.1475C26.8788 20.4781 26.6185 20.572 26.412 20.7439C26.2056 20.9157 26.066 21.1547 26.0178 21.419C25.9696 21.6833 26.0158 21.9561 26.1483 22.1898C26.2808 22.4236 26.4912 22.6033 26.7428 22.6976C26.6593 23.0962 26.4414 23.4539 26.1256 23.7108C25.8097 23.9678 25.4152 24.1083 25.008 24.1089H15.05C14.6429 24.1082 14.2483 23.9676 13.9325 23.7106C13.6167 23.4536 13.3989 23.0959 13.3155 22.6974C13.5669 22.6029 13.7771 22.4232 13.9095 22.1895C14.0419 21.9558 14.088 21.6831 14.0397 21.4189C13.9915 21.1547 13.852 20.9158 13.6456 20.7439C13.4392 20.5721 13.1791 20.4782 12.9105 20.4786H11.0707C10.7989 20.478 10.5357 20.5741 10.3282 20.7497C10.1207 20.9254 9.98252 21.1691 9.93829 21.4374C9.89406 21.7056 9.94671 21.9808 10.0868 22.2137C10.2269 22.4467 10.4453 22.6222 10.703 22.7089V29.2319C10.2336 29.2896 9.80148 29.5167 9.48786 29.8707C9.17423 30.2246 9.00074 30.681 9 31.1539V38.0884C9.00007 38.2044 9.04618 38.3156 9.12821 38.3977C9.21025 38.4797 9.32149 38.5258 9.4375 38.5259H11.139C11.255 38.5258 11.3663 38.4797 11.4483 38.3977C11.5303 38.3156 11.5764 38.2044 11.5765 38.0884C11.5774 37.6188 11.7643 37.1686 12.0964 36.8365C12.4285 36.5044 12.8786 36.3175 13.3482 36.3166H26.711C27.1807 36.3172 27.631 36.504 27.9631 36.8362C28.2953 37.1683 28.482 37.6187 28.4825 38.0884C28.4826 38.2044 28.5287 38.3156 28.6107 38.3977C28.6927 38.4797 28.804 38.5258 28.92 38.5259H30.6215C30.7375 38.5259 30.8488 38.4798 30.9309 38.3978C31.0129 38.3157 31.059 38.2044 31.059 38.0884V31.1539C31.0583 30.681 30.8848 30.2247 30.5712 29.8708C30.2577 29.5168 29.8256 29.2896 29.3563 29.2319ZM27.1475 21.3536H28.9883C29.0248 21.3525 29.0612 21.3588 29.0953 21.372C29.1294 21.3852 29.1605 21.4052 29.1868 21.4306C29.213 21.4561 29.2339 21.4866 29.2482 21.5203C29.2624 21.554 29.2698 21.5902 29.2698 21.6268C29.2698 21.6633 29.2624 21.6996 29.2482 21.7332C29.2339 21.7669 29.213 21.7974 29.1868 21.8229C29.1605 21.8484 29.1294 21.8683 29.0953 21.8815C29.0612 21.8948 29.0248 21.901 28.9883 21.8999H27.1475C27.0765 21.8977 27.0091 21.868 26.9596 21.817C26.9102 21.7661 26.8825 21.6978 26.8825 21.6268C26.8825 21.5557 26.9102 21.4875 26.9596 21.4365C27.0091 21.3855 27.0765 21.3558 27.1475 21.3536V21.3536ZM15.05 24.9839H25.008C25.6339 24.9833 26.2394 24.7611 26.7173 24.3568C27.1951 23.9525 27.5143 23.3921 27.6185 22.7749H28.4813V29.2164H27.4645V28.6049C27.4638 27.9586 27.2067 27.3391 26.7498 26.8821C26.2928 26.4252 25.6732 26.1681 25.027 26.1674H22.0295C21.6363 26.1677 21.249 26.2631 20.9007 26.4456C20.5524 26.6281 20.2535 26.8922 20.0295 27.2154C19.8055 26.8922 19.5066 26.6281 19.1583 26.4456C18.81 26.2631 18.4227 26.1676 18.0295 26.1674H15.032C14.3858 26.1681 13.7662 26.4252 13.3092 26.8821C12.8523 27.3391 12.5952 27.9586 12.5945 28.6049V29.2164H11.5777V22.7749H12.4405C12.5446 23.3919 12.8638 23.9522 13.3414 24.3565C13.819 24.7608 14.4242 24.9831 15.05 24.9839V24.9839ZM13.4685 29.2164V28.6049C13.469 28.1906 13.6337 27.7935 13.9267 27.5005C14.2196 27.2076 14.6167 27.0429 15.031 27.0424H18.0285C18.4428 27.0429 18.8399 27.2076 19.1328 27.5005C19.4258 27.7935 19.5905 28.1906 19.591 28.6049V29.2164H13.4685ZM20.466 28.6049C20.4665 28.1906 20.6312 27.7935 20.9242 27.5005C21.2171 27.2076 21.6142 27.0429 22.0285 27.0424H25.026C25.4403 27.0429 25.8374 27.2076 26.1303 27.5005C26.4233 27.7935 26.588 28.1906 26.5885 28.6049V29.2164H20.467L20.466 28.6049ZM11.0707 21.3536H12.9115C12.9481 21.3525 12.9845 21.3588 13.0186 21.372C13.0527 21.3852 13.0838 21.4052 13.11 21.4306C13.1363 21.4561 13.1572 21.4866 13.1714 21.5203C13.1857 21.554 13.193 21.5902 13.193 21.6268C13.193 21.6633 13.1857 21.6996 13.1714 21.7332C13.1572 21.7669 13.1363 21.7974 13.11 21.8229C13.0838 21.8484 13.0527 21.8683 13.0186 21.8815C12.9845 21.8948 12.9481 21.901 12.9115 21.8999H11.0707C11.0342 21.901 10.9978 21.8948 10.9637 21.8815C10.9296 21.8683 10.8985 21.8484 10.8722 21.8229C10.846 21.7974 10.8251 21.7669 10.8108 21.7332C10.7966 21.6996 10.7892 21.6633 10.7892 21.6268C10.7892 21.5902 10.7966 21.554 10.8108 21.5203C10.8251 21.4866 10.846 21.4561 10.8722 21.4306C10.8985 21.4052 10.9296 21.3852 10.9637 21.372C10.9978 21.3588 11.0342 21.3525 11.0707 21.3536V21.3536ZM9.875 31.1539C9.87533 30.8722 9.98738 30.6021 10.1866 30.403C10.3858 30.2038 10.6558 30.0917 10.9375 30.0914H29.1215C29.4032 30.0917 29.6733 30.2038 29.8724 30.403C30.0716 30.6021 30.1837 30.8722 30.184 31.1539V32.8889H9.875V31.1539ZM30.184 37.6499H29.3215C29.2174 37.0326 28.8981 36.4722 28.4203 36.0678C27.9425 35.6634 27.337 35.4413 26.711 35.4406H13.3482C12.7223 35.4413 12.1167 35.6634 11.6389 36.0678C11.1611 36.4722 10.8419 37.0326 10.7378 37.6499H9.875V33.7639H30.184V37.6499Z" fill="white"/>
<path d="M40.5624 29.2163H37.1639V27.6913H38.8674C38.9325 27.6913 38.9968 27.6767 39.0555 27.6487C39.1143 27.6207 39.1661 27.5799 39.2071 27.5294C39.2481 27.4788 39.2773 27.4197 39.2926 27.3564C39.3078 27.2931 39.3088 27.2272 39.2954 27.1635L38.5454 23.601C38.5247 23.5028 38.4708 23.4147 38.3928 23.3515C38.3149 23.2882 38.2175 23.2537 38.1171 23.2538H35.3361C35.2358 23.2538 35.1385 23.2883 35.0605 23.3515C34.9826 23.4147 34.9288 23.5028 34.9081 23.601L34.1581 27.1635C34.1447 27.2273 34.1457 27.2932 34.161 27.3564C34.1763 27.4197 34.2056 27.4788 34.2466 27.5294C34.2876 27.5799 34.3394 27.6207 34.3982 27.6487C34.457 27.6767 34.5213 27.6913 34.5864 27.6913H36.2896V29.2163H32.8906C32.8332 29.2163 32.7763 29.2275 32.7232 29.2495C32.6701 29.2715 32.6218 29.3037 32.5812 29.3444C32.5406 29.385 32.5083 29.4332 32.4864 29.4863C32.4644 29.5394 32.4531 29.5963 32.4531 29.6538V38.0883C32.4531 38.2043 32.4992 38.3156 32.5813 38.3976C32.6633 38.4797 32.7746 38.5258 32.8906 38.5258H34.8749C34.9909 38.5257 35.1021 38.4796 35.1842 38.3976C35.2662 38.3155 35.3123 38.2043 35.3124 38.0883V34.4178H38.1404V38.0883C38.1404 38.2043 38.1866 38.3155 38.2686 38.3976C38.3506 38.4796 38.4619 38.5257 38.5779 38.5258H40.5624C40.6784 38.5257 40.7896 38.4796 40.8717 38.3976C40.9537 38.3155 40.9998 38.2043 40.9999 38.0883V29.6538C40.9999 29.5378 40.9538 29.4265 40.8717 29.3444C40.7897 29.2624 40.6784 29.2163 40.5624 29.2163V29.2163ZM35.6911 24.1293H37.7616L38.3279 26.8168H35.1249L35.6911 24.1293ZM33.3281 30.0913H40.1249V33.5428H33.3281V30.0913ZM34.4374 37.6498H33.3281V34.4178H34.4374V37.6498ZM40.1249 37.6498H39.0154V34.4178H40.1249V37.6498Z" fill="white"/>
<path d="M35.8672 32.2546H37.5859C37.702 32.2546 37.8132 32.2085 37.8953 32.1265C37.9773 32.0445 38.0234 31.9332 38.0234 31.8171C38.0234 31.7011 37.9773 31.5898 37.8953 31.5078C37.8132 31.4257 37.702 31.3796 37.5859 31.3796H35.8672C35.7512 31.3796 35.6399 31.4257 35.5578 31.5078C35.4758 31.5898 35.4297 31.7011 35.4297 31.8171C35.4297 31.9332 35.4758 32.0445 35.5578 32.1265C35.6399 32.2085 35.7512 32.2546 35.8672 32.2546V32.2546Z" fill="white"/>
<path d="M20.0292 18.8177C20.7554 18.8177 21.4654 18.6024 22.0693 18.199C22.6732 17.7955 23.1439 17.222 23.4218 16.5511C23.6998 15.8801 23.7725 15.1418 23.6309 14.4295C23.4892 13.7172 23.1395 13.0629 22.626 12.5493C22.1125 12.0357 21.4582 11.686 20.7459 11.5443C20.0336 11.4026 19.2952 11.4753 18.6243 11.7532C17.9533 12.0311 17.3798 12.5018 16.9763 13.1056C16.5728 13.7095 16.3574 14.4194 16.3574 15.1457C16.3582 16.1193 16.7453 17.0528 17.4337 17.7412C18.1221 18.4297 19.0556 18.8168 20.0292 18.8177V18.8177ZM20.0292 12.3489C20.5824 12.3489 21.1232 12.5129 21.5832 12.8202C22.0432 13.1275 22.4017 13.5644 22.6135 14.0755C22.8252 14.5866 22.8806 15.149 22.7727 15.6916C22.6648 16.2341 22.3984 16.7325 22.0072 17.1237C21.616 17.5149 21.1176 17.7813 20.575 17.8892C20.0324 17.9971 19.47 17.9417 18.9589 17.73C18.4478 17.5183 18.011 17.1597 17.7037 16.6997C17.3964 16.2397 17.2324 15.6989 17.2324 15.1457C17.2335 14.4044 17.5286 13.6938 18.0529 13.1697C18.5771 12.6456 19.2879 12.3508 20.0292 12.3499V12.3489Z" fill="white"/>
<path d="M20.589 16.325C20.6715 16.4047 20.782 16.4488 20.8968 16.4479C21.0115 16.4469 21.1212 16.4009 21.2023 16.3198C21.2835 16.2387 21.3295 16.129 21.3305 16.0143C21.3316 15.8996 21.2875 15.789 21.2078 15.7065L20.4668 14.9655V13.9115C20.4668 13.7955 20.4207 13.6842 20.3387 13.6021C20.2566 13.5201 20.1453 13.474 20.0293 13.474C19.9133 13.474 19.802 13.5201 19.7199 13.6021C19.6379 13.6842 19.5918 13.7955 19.5918 13.9115V15.1457C19.5918 15.2618 19.638 15.3732 19.72 15.4552L20.589 16.325Z" fill="white"/>
</g>
<defs>
<radialGradient id="paint0_radial_372_7060" cx="0" cy="0" r="1" gradientUnits="userSpaceOnUse" gradientTransform="translate(2.5 4) rotate(39.6991) scale(34.442)">
<stop stop-color="#F9E31F"/>
<stop offset="1" stop-color="#F9BD06"/>
</radialGradient>
<clipPath id="clip0_372_7060">
<rect width="32" height="32" fill="white" transform="translate(9 9)"/>
</clipPath>
</defs>
</svg>
