<svg width="21" height="20" viewBox="0 0 21 20" fill="none" xmlns="http://www.w3.org/2000/svg">
<path d="M18.8332 3.3335H2.1665V18.3335H18.8332V3.3335Z" fill="white"/>
<path d="M7.45 9.40833L5.125 8.24167L5.875 6.75833L6.88333 7.25833L8.14167 5.375L9.525 6.29167L7.45 9.40833Z" fill="#F9C41F"/>
<path d="M15.675 6.84202L14.4917 5.65869L13.8334 6.32536L13.175 5.65869L11.9917 6.84202L12.6584 7.50036L11.9917 8.15869L13.175 9.34202L13.8334 8.67536L14.4917 9.34202L15.675 8.15869L15.0084 7.50036L15.675 6.84202Z" fill="#F9C41F" fill-opacity="0.2"/>
<path d="M16.3335 2.50016V0.833496H14.6668V2.50016H11.3335V0.833496H9.66683V2.50016H6.3335V0.833496H4.66683V2.50016H1.3335V19.1668H19.6668V2.50016H16.3335ZM18.0002 17.5002H3.00016V4.16683H18.0002V17.5002Z" fill="#4E4E4E"/>
<path d="M9.6665 10.8335H4.6665V12.5002H9.6665V10.8335Z" fill="#4E4E4E"/>
<path d="M9.6665 14.1665H4.6665V15.8332H9.6665V14.1665Z" fill="#4E4E4E"/>
<path d="M16.3335 10.8335H11.3335V12.5002H16.3335V10.8335Z" fill="#4E4E4E"/>
<path d="M16.3335 14.1665H11.3335V15.8332H16.3335V14.1665Z" fill="#4E4E4E"/>
</svg>
