<svg width="24" height="24" viewBox="0 0 24 24" fill="none" xmlns="http://www.w3.org/2000/svg">
<path fill-rule="evenodd" clip-rule="evenodd" d="M3 10.2144C3.01689 5.10809 7.06 0.982706 12.0306 1.00005C17.0011 1.0174 21.0168 5.17092 20.9999 10.2772V10.3819C20.9388 13.7011 19.1347 16.7691 16.9229 19.1669C15.658 20.5163 14.2455 21.7109 12.7134 22.727C12.3038 23.091 11.6962 23.091 11.2865 22.727C9.00259 21.1998 6.99808 19.2717 5.36466 17.0309C3.90882 15.0768 3.08224 12.7051 3 10.2458L3 10.2144Z" fill="white"/>
<path fill-rule="evenodd" clip-rule="evenodd" d="M20.9999 10.2772C21.0168 5.17092 17.0011 1.0174 12.0306 1.00005C7.06 0.982706 3.01689 5.10809 3 10.2144V10.2458C3.08224 12.7051 3.90882 15.0768 5.36466 17.0309C6.99808 19.2717 9.00259 21.1998 11.2865 22.727C11.6962 23.091 12.3038 23.091 12.7134 22.727C14.2455 21.7109 15.658 20.5163 16.9229 19.1669C19.1347 16.7691 20.9388 13.7011 20.9999 10.3819V10.2772ZM18.9999 10.3623V10.2706C19.0133 6.21761 15.8393 3.01336 12.0236 3.00004C8.21115 2.98674 5.01835 6.16334 5.00003 10.2116C5.07497 12.2559 5.76517 14.2209 6.96847 15.836L6.98086 15.8528C8.3817 17.7746 10.0787 19.4428 12.0018 20.7928C13.2508 19.9242 14.4095 18.923 15.4583 17.805C17.4987 15.5911 18.9455 12.9824 18.9999 10.3623Z" fill="#222222"/>
<path d="M15.5 9.57812C15.5 11.5111 13.933 13.0781 12 13.0781C10.067 13.0781 8.5 11.5111 8.5 9.57812C8.5 7.64513 10.067 6.07812 12 6.07812C13.933 6.07812 15.5 7.64513 15.5 9.57812Z" fill="#222222"/>
<path fill-rule="evenodd" clip-rule="evenodd" d="M12 11.5781C13.1046 11.5781 14 10.6827 14 9.57812C14 8.47356 13.1046 7.57812 12 7.57812C10.8954 7.57812 10 8.47356 10 9.57812C10 10.6827 10.8954 11.5781 12 11.5781ZM12 13.0781C13.933 13.0781 15.5 11.5111 15.5 9.57812C15.5 7.64513 13.933 6.07812 12 6.07812C10.067 6.07812 8.5 7.64513 8.5 9.57812C8.5 11.5111 10.067 13.0781 12 13.0781Z" fill="#F9C41F"/>
</svg>
