<svg width="64" height="64" viewBox="0 0 64 64" fill="none" xmlns="http://www.w3.org/2000/svg">
<path d="M58.6663 32.0016C58.6663 39.0741 55.8568 45.8568 50.8559 50.8578C45.8549 55.8588 39.0721 58.6683 31.9997 58.6683H7.99968L9.97301 47.0416C7.61987 43.5933 6.10919 39.6407 5.56259 35.502C5.01598 31.3633 5.4487 27.154 6.82593 23.2131C8.20316 19.2721 10.4864 15.7095 13.4919 12.8121C16.4974 9.91474 20.1412 7.76345 24.1299 6.53144C28.1187 5.29943 32.341 5.02111 36.4569 5.7189C40.5729 6.41668 44.4675 8.07106 47.8273 10.5489C51.1871 13.0267 53.9182 16.2587 55.8009 19.9848C57.6835 23.7109 58.665 27.8269 58.6663 32.0016Z" fill="white"/>
<path d="M42.6663 26.668H39.9997V34.668H34.6663V29.3346H29.333V34.668H23.9997V26.668H21.333L31.9997 18.668L42.6663 26.668Z" fill="#F9C41F" fill-opacity="0.2"/>
<path d="M31.9997 61.3347H4.85301L7.17301 47.628C3.70753 42.1228 2.17036 35.6217 2.80326 29.1474C3.43617 22.6731 6.20324 16.5929 10.6693 11.863C15.1353 7.13309 21.0469 4.02193 27.4743 3.01884C33.9016 2.01575 40.4801 3.17764 46.175 6.32176C51.8699 9.46588 56.3581 14.4138 58.9337 20.3874C61.5093 26.361 62.0261 33.0213 60.4029 39.3207C58.7797 45.6201 55.1086 51.2012 49.967 55.1863C44.8253 59.1713 38.5049 61.3342 31.9997 61.3347ZM11.1463 56.0013H31.9997C37.4056 55.9908 42.6496 54.1556 46.8823 50.7928C51.115 47.4301 54.0884 42.7368 55.3209 37.4733C56.5534 32.2098 55.9728 26.6843 53.6732 21.7919C51.3736 16.8995 47.4896 12.9268 42.6504 10.5173C37.8112 8.10776 32.3002 7.40255 27.0102 8.51589C21.7202 9.62924 16.961 12.4959 13.5035 16.6516C10.0461 20.8073 8.09282 26.0085 7.96024 31.4128C7.82766 36.817 9.52348 42.1078 12.773 46.428L11.1463 56.0013Z" fill="#222222"/>
<path d="M45.3337 40H18.667V45.3333H45.3337V40Z" fill="#F9C41F"/>
</svg>
