<svg width="17" height="27" viewBox="0 0 17 27" fill="none" xmlns="http://www.w3.org/2000/svg">
<path d="M1.57812 26.0898C2.15234 26.0898 2.49219 25.7617 3.54688 24.7422L8.12891 20.2305C8.1875 20.1719 8.29297 20.1719 8.33984 20.2305L12.9219 24.7422C13.9766 25.7617 14.3164 26.0898 14.8906 26.0898C15.6758 26.0898 16.1328 25.5742 16.1328 24.6602V4.31641C16.1328 2.08984 15.0195 0.953125 12.8164 0.953125H3.65234C1.44922 0.953125 0.335938 2.08984 0.335938 4.31641V24.6602C0.335938 25.5742 0.792969 26.0898 1.57812 26.0898ZM2.53906 22.9258C2.375 23.0898 2.1875 23.043 2.1875 22.8086V4.33984C2.1875 3.33203 2.71484 2.80469 3.74609 2.80469H12.7344C13.7539 2.80469 14.2812 3.33203 14.2812 4.33984V22.8086C14.2812 23.043 14.1055 23.0898 13.9297 22.9258L8.85547 18.0039C8.48047 17.6406 7.98828 17.6406 7.61328 18.0039L2.53906 22.9258Z" fill="#4E4E4E"/>
</svg>
