<svg width="21" height="20" viewBox="0 0 21 20" fill="none" xmlns="http://www.w3.org/2000/svg">
<path d="M17.1666 15.4998V15.8332H14.6666V18.3332H2.16663V15.4998C2.16065 14.8932 2.37547 14.3051 2.77104 13.8451C3.16661 13.3852 3.71593 13.0847 4.31663 12.9998L7.99996 12.4998V10.3832C7.49373 10.0909 7.07326 9.67065 6.78073 9.16457C6.4882 8.65849 6.33389 8.08438 6.33329 7.49984V4.1665H13V7.49984C12.9994 8.08438 12.8451 8.65849 12.5525 9.16457C12.26 9.67065 11.8395 10.0909 11.3333 10.3832V12.4998L15.0166 13.0248C15.613 13.1092 16.1589 13.406 16.554 13.8607C16.949 14.3154 17.1665 14.8975 17.1666 15.4998Z" fill="white"/>
<path d="M15.1418 12.1998L12.1668 11.7748V10.8332C12.6843 10.4451 13.1043 9.94179 13.3936 9.36323C13.6829 8.78466 13.8335 8.14669 13.8335 7.49984V4.1665H12.1668V7.49984C12.1668 8.16288 11.9034 8.79876 11.4346 9.2676C10.9658 9.73645 10.3299 9.99984 9.66683 9.99984C9.00379 9.99984 8.3679 9.73645 7.89906 9.2676C7.43022 8.79876 7.16683 8.16288 7.16683 7.49984V4.1665H5.50016V7.49984C5.50016 8.14669 5.65077 8.78466 5.94005 9.36323C6.22933 9.94179 6.64935 10.4451 7.16683 10.8332V11.7998L4.19183 12.2248C3.40238 12.3385 2.67984 12.7314 2.15538 13.3323C1.63093 13.9332 1.33932 14.7023 1.3335 15.4998V19.1665H14.6668V17.4998H3.00016V15.4998C2.99618 15.0954 3.13939 14.7033 3.40311 14.3967C3.66682 14.0901 4.03303 13.8898 4.4335 13.8332L6.56683 13.5332L9.66683 15.0998L12.7668 13.5498L14.9002 13.8498C15.3006 13.9064 15.6668 14.1067 15.9306 14.4134C16.1943 14.72 16.3375 15.1121 16.3335 15.5165V15.8332H18.0002V15.4998C18.0003 14.698 17.7114 13.9229 17.1864 13.3168C16.6614 12.7107 15.9355 12.3141 15.1418 12.1998ZM10.5002 12.8165L9.66683 13.2332L8.8335 12.8165V11.5832C9.38378 11.6914 9.94988 11.6914 10.5002 11.5832V12.8165Z" fill="#4E4E4E"/>
<path d="M15.5 0.833496H8C7.33696 0.833496 6.70107 1.09689 6.23223 1.56573C5.76339 2.03457 5.5 2.67045 5.5 3.3335V5.00016H13C13.663 5.00016 14.2989 4.73677 14.7678 4.26793C15.2366 3.79909 15.5 3.1632 15.5 2.50016V0.833496Z" fill="#F9C41F" fill-opacity="0.2"/>
<path d="M19.6667 16.6665H18.8333V19.1665H17.1667V17.4998H15.5V19.1665H13.8333V16.6665H13L16.3333 14.1665L19.6667 16.6665Z" fill="#F9C41F"/>
</svg>
