<svg width="32" height="32" viewBox="0 0 32 32" fill="none" xmlns="http://www.w3.org/2000/svg">
<path d="M25.3333 29.3346V6.66797L21.3333 2.66797H4V29.3346H25.3333Z" fill="white"/>
<path d="M19.9997 10.668H18.6663V14.668H15.9997V12.0013H13.333V14.668H10.6663V10.668H9.33301L14.6663 6.66797L19.9997 10.668Z" fill="#F9C41F" fill-opacity="0.2"/>
<path d="M21.8803 1.33203H2.66699V30.6654H26.667V6.1187L21.8803 1.33203ZM24.0003 27.9987H5.33366V3.9987H20.787L24.0003 7.21203V27.9987Z" fill="#4E4E4E"/>
<path d="M20 17.332H8V19.9987H20V17.332Z" fill="#4E4E4E"/>
<path d="M16 22.668H8V25.3346H16V22.668Z" fill="#4E4E4E"/>
<path d="M18.96 25.3343L19.9066 22.5076L27.4533 14.9609L29.3333 16.8543L21.7866 24.3876L18.96 25.3343Z" fill="#F9C41F"/>
</svg>
