<svg width="26" height="26" viewBox="0 0 26 26" fill="none" xmlns="http://www.w3.org/2000/svg">
<g clip-path="url(#clip0_706_41298)">
<path d="M19.9062 14.0512V10.7148C19.9062 10.2882 19.5711 9.95312 19.1445 9.95312H17.1459L13.7617 8.42969L10.3775 9.95312H8.41257L5.38281 8.42969L2.35305 9.95312H0.761719C0.335105 9.95312 0 10.2882 0 10.7148V22.9023C0 23.329 0.335105 23.6641 0.761719 23.6641H19.1445C19.5711 23.6641 19.9062 23.329 19.9062 22.9023V19.566L21.4297 17.0841L19.9062 14.0512Z" fill="url(#paint0_linear_706_41298)"/>
<path d="M9.19141 7.66797C9.19141 5.56562 7.48516 3.85938 5.38281 3.85938C3.28047 3.85938 1.57422 5.56562 1.57422 7.66797C1.57422 8.52109 1.86357 9.32857 2.33594 9.95312H8.42969C8.90205 9.32857 9.19141 8.52109 9.19141 7.66797ZM13.7617 2.33594C11.248 2.33594 9.19141 4.39253 9.19141 6.90625C9.19141 8.06406 9.63325 9.14565 10.3645 9.95312H17.159C17.8902 9.14565 18.332 8.06406 18.332 6.90625C18.332 4.39253 16.2754 2.33594 13.7617 2.33594ZM25.6344 11.5832C25.4211 11.446 25.1315 11.4308 24.9032 11.5527L19.9062 14.0512V19.566L24.9032 22.0645C25.1859 22.1856 25.4463 22.1513 25.6344 22.0339C25.8627 21.8816 26 21.6378 26 21.3789V12.2383C26 11.9793 25.8627 11.7355 25.6344 11.5832ZM13 13H3.85938C3.43835 13 3.09766 13.3407 3.09766 13.7617V19.8555C3.09766 20.2765 3.43835 20.6172 3.85938 20.6172H13C13.421 20.6172 13.7617 20.2765 13.7617 19.8555V13.7617C13.7617 13.3407 13.421 13 13 13ZM16.0469 13C15.6262 13 15.2852 13.341 15.2852 13.7617C15.2852 14.1824 15.6262 14.5234 16.0469 14.5234C16.4675 14.5234 16.8086 14.1824 16.8086 13.7617C16.8086 13.341 16.4675 13 16.0469 13Z" fill="url(#paint1_linear_706_41298)"/>
</g>
<defs>
<linearGradient id="paint0_linear_706_41298" x1="5.28161" y1="11.4424" x2="14.6468" y2="22.4932" gradientUnits="userSpaceOnUse">
<stop stop-color="#FF637B"/>
<stop offset="1" stop-color="#F90217"/>
</linearGradient>
<linearGradient id="paint1_linear_706_41298" x1="13.7871" y1="22.1403" x2="13.7871" y2="2.33594" gradientUnits="userSpaceOnUse">
<stop stop-color="#FFC164"/>
<stop offset="1" stop-color="#FFDD93"/>
</linearGradient>
<clipPath id="clip0_706_41298">
<rect width="26" height="26" fill="white"/>
</clipPath>
</defs>
</svg>
