<svg width="18" height="18" viewBox="0 0 18 18" fill="none" xmlns="http://www.w3.org/2000/svg">
<path d="M14.108 13.9091L11.4498 12.8896C10.7297 13.3753 9.87728 13.6385 9.00003 13.6385C8.12277 13.6385 7.27027 13.3753 6.55027 12.8896L3.89207 13.9091C3.18385 14.1807 2.70801 14.8729 2.70801 15.6314V17.9998H15.292V15.6314C15.292 14.8729 14.8162 14.1807 14.108 13.9091Z" fill="#4E4E4E"/>
<path d="M9.00013 10.9703C7.77212 10.9703 6.76355 10.8207 5.96582 10.6221C6.16245 11.0583 6.45256 11.4514 6.82026 11.7706C7.42456 12.2952 8.19874 12.5841 9.00016 12.5841C9.80158 12.5841 10.5757 12.2952 11.1801 11.7706C11.5477 11.4514 11.8379 11.0583 12.0345 10.6221C11.2367 10.8207 10.2281 10.9703 9.00013 10.9703Z" fill="#4E4E4E"/>
<path d="M15.8846 8.97307V1.94991L16.2933 1.85551C17.3796 1.60467 17.7934 1.36621 17.9406 1.25156C17.7539 1.10566 17.1385 0.759973 15.2749 0.447539C13.5533 0.158941 11.3247 0 8.99957 0C6.67447 0 4.44588 0.158941 2.72421 0.447539C0.860648 0.759973 0.245238 1.1057 0.0585938 1.25156C0.205687 1.36621 0.619547 1.60467 1.70584 1.85551L2.11453 1.94991V8.97307C2.52062 8.89608 2.96067 8.82612 3.43187 8.76386V6.885C3.43187 3.81495 5.92955 1.31723 8.9996 1.31723C12.0697 1.31723 14.5673 3.81491 14.5673 6.885V8.76382C15.0385 8.82608 15.4786 8.89604 15.8846 8.97307Z" fill="#4E4E4E"/>
<path d="M1.06024 11.1743V2.78204C0.643465 2.67105 0.288668 2.55086 0 2.42285V10.6871C0.0559336 10.7467 0.287051 10.9427 1.06024 11.1743Z" fill="#4E4E4E"/>
<path d="M17.9997 2.42285C17.711 2.55086 17.3562 2.67105 16.9395 2.78204V11.1743C17.7126 10.9427 17.9438 10.7467 17.9997 10.6871V2.42285Z" fill="#4E4E4E"/>
<path d="M7.96538 6.81934H4.48815C4.48783 6.8412 4.4873 6.86304 4.4873 6.88501V8.93842C4.74539 9.08436 5.24383 9.32831 5.99168 9.53594L7.96538 6.81934Z" fill="#4E4E4E"/>
<path d="M10.7129 2.70996V5.76451H13.3718C13.0164 4.37812 12.0171 3.24718 10.7129 2.70996Z" fill="#4E4E4E"/>
<path d="M10.981 6.81934H9.26886L7.12012 9.77683C7.59617 9.85055 8.13384 9.901 8.73347 9.91274L10.981 6.81934Z" fill="#4E4E4E"/>
<path d="M9.65902 5.7648V2.42027C9.44397 2.3887 9.22411 2.37207 9.00041 2.37207C8.77671 2.37207 8.55685 2.3887 8.3418 2.42027V5.7648H9.65902Z" fill="#4E4E4E"/>
<path d="M4.62793 5.76454H7.28683V2.70996C5.98268 3.24718 4.98339 4.37812 4.62793 5.76454Z" fill="#4E4E4E"/>
<path d="M13.5131 8.9382V6.88501C13.5131 6.86307 13.5126 6.84124 13.5123 6.81934H12.2846L10.0664 9.8724C11.9384 9.71806 13.0723 9.18745 13.5131 8.9382Z" fill="#4E4E4E"/>
</svg>
