<svg width="20" height="20" viewBox="0 0 20 20" fill="none" xmlns="http://www.w3.org/2000/svg">
<path d="M7.38756 10.1145C8.01452 9.48758 8.41159 8.60984 8.41159 7.6276C8.41159 7.27232 8.3071 6.87525 8.13991 6.45727C7.95182 6.0184 7.70104 5.57953 7.40846 5.11976C7.40846 5.09886 7.38756 5.09886 7.38756 5.07796C6.7815 4.15842 5.98735 3.25978 5.31859 2.48653L4.90062 2.00586L4.48265 2.48653C3.18693 3.99123 1.38965 6.0602 1.38965 7.6276C1.38965 8.58894 1.78672 9.46668 2.41368 10.1145C3.04064 10.7415 3.91838 11.1386 4.90062 11.1386C5.86196 11.1386 6.7397 10.7415 7.38756 10.1145Z" fill="#222222"/>
<path d="M16.7707 0.125392L16.6662 0L16.5617 0.125392C15.7885 1.02403 14.7227 2.25705 14.7227 3.1348C14.7227 3.67816 14.9316 4.15883 15.2869 4.51411C15.6422 4.86938 16.1229 5.07837 16.6662 5.07837C17.2096 5.07837 17.6903 4.86938 18.0455 4.51411C18.4008 4.15883 18.6098 3.67816 18.6098 3.1348C18.6098 2.25705 17.544 1.02403 16.7707 0.125392Z" fill="#222222"/>
<path d="M10.0624 3.03027C9.74888 3.40645 9.39361 3.80352 9.03833 4.24239L8.49497 4.86935C8.74575 5.26643 8.95474 5.6635 9.12192 6.06058C9.35181 6.60394 9.4772 7.12641 9.4772 7.62797C9.4772 8.88189 8.97563 10.0313 8.13969 10.8673C7.30374 11.7032 6.17522 12.2048 4.9004 12.2048C4.60782 12.2048 4.33614 12.1839 4.06446 12.1212C3.95996 12.1003 3.87637 12.0794 3.77188 12.0585C3.73008 12.2257 3.68828 12.3929 3.64649 12.5601C3.58379 12.8735 3.54199 13.1661 3.54199 13.4796C3.54199 15.2769 4.27344 16.907 5.44377 18.0982C6.63499 19.2894 8.26508 20 10.0624 20C11.8596 20 13.4897 19.2685 14.681 18.0982C15.8722 16.9279 16.5827 15.2769 16.5827 13.4796C16.5827 10.6165 13.3852 6.93832 11.0864 4.26329C10.7311 3.80352 10.3967 3.40645 10.0624 3.03027Z" fill="#222222"/>
</svg>
