<svg width="20" height="20" viewBox="0 0 20 20" fill="none" xmlns="http://www.w3.org/2000/svg">
<path d="M9.85456 17.381C11.1202 17.381 12.1462 16.355 12.1462 15.0895C12.1462 13.8238 11.1202 12.7979 9.85456 12.7979C8.58897 12.7979 7.56299 13.8238 7.56299 15.0895C7.56299 16.355 8.58897 17.381 9.85456 17.381Z" fill="#4E4E4E"/>
<path d="M15.3305 9.56849C15.2964 9.53354 15.2605 9.50238 15.2256 9.47025L15.1227 9.37296C15.1057 9.35502 15.0868 9.3418 15.0651 9.32479C12.1019 6.6327 7.56688 6.73945 4.73877 9.56755L4.40721 9.90005L3.94814 10.3591C3.38894 10.9183 3.39178 11.8298 3.95192 12.39C4.51301 12.952 5.42454 12.953 5.9828 12.3938L6.77436 11.6022C8.57286 9.80465 11.4983 9.80465 13.2958 11.6013L13.8673 12.1548C14.4209 12.7083 15.3239 12.7074 15.8803 12.1501C16.1495 11.8818 16.2977 11.5238 16.2987 11.1431C16.2996 10.7643 16.1532 10.4063 15.884 10.139L15.3305 9.56849Z" fill="#4E4E4E"/>
<path d="M19.2348 6.73537L18.7588 6.25929C18.7569 6.2574 18.7559 6.25457 18.7522 6.25363L18.3762 5.87579C18.31 5.81062 18.2383 5.75394 18.1627 5.70482C13.333 1.46455 5.98695 1.5949 1.31122 6.09304C1.28855 6.11383 1.26305 6.12799 1.24037 6.15067L0.380794 7.01118C-0.129284 7.52032 -0.12645 8.34873 0.386462 8.86164C0.89843 9.37361 1.72683 9.37739 2.23691 8.86636L3.0965 8.00774C3.10216 8.00018 3.10688 7.99357 3.11256 7.98884C6.89376 4.33611 12.8919 4.31343 16.7033 7.91422L17.3797 8.59149C17.8888 9.10063 18.7191 9.09873 19.231 8.58677C19.7421 8.07385 19.7439 7.2445 19.2348 6.73537Z" fill="#4E4E4E"/>
</svg>
