<svg width="20" height="20" viewBox="0 0 20 20" fill="none" xmlns="http://www.w3.org/2000/svg">
<path d="M14.3749 16.5625H12.5V17.5V17.8125H9.375V19.0625H19.0625V15.3125H14.3749V16.5625ZM17.8125 17.8125H18.4375V18.4374H17.8125V17.8125ZM16.5625 17.8125H17.1875V18.4374H16.5625V17.8125ZM15.3125 17.8125H15.9375V18.4374H15.3125V17.8125Z" fill="#4E4E4E"/>
<path d="M12.1874 4.06251C13.0504 4.06251 13.7499 3.36295 13.7499 2.5C13.7499 1.63705 13.0504 0.9375 12.1874 0.9375C11.3245 0.9375 10.625 1.63705 10.625 2.5C10.625 3.36295 11.3245 4.06251 12.1874 4.06251Z" fill="#4E4E4E"/>
<path d="M18.6444 2.1875C18.5668 2.1875 18.4913 2.20875 18.4253 2.24938L15.2922 4.17751C14.75 4.51126 14.1272 4.6875 13.4906 4.6875H11.8749C10.3241 4.6875 9.0625 5.94938 9.0625 7.50001V10C9.0625 10.5169 9.48312 10.9375 9.99999 10.9375V6.25001H10.625V17.1875H11.8749V15.9375V10.6251H12.5H14.3749C14.7197 10.6251 15 10.9053 15 11.25V14.6875H16.25V10.3125C16.25 9.79563 15.8294 9.37501 15.3125 9.37501H14.0622L14.0625 6.94282C14.0625 6.40094 14.3368 5.90563 14.7968 5.61813L18.8659 3.07469C18.989 2.99782 19.0625 2.86532 19.0625 2.72001V2.60563C19.0625 2.37532 18.8747 2.1875 18.6444 2.1875Z" fill="#4E4E4E"/>
<path d="M5.35875 7.47266L4.08125 9.26109L2.64125 7.53296C1.63156 8.0514 0.9375 9.1014 0.9375 10.3127V12.8127C0.9375 13.1573 1.21781 13.4376 1.56251 13.4376H1.875V9.06266H2.5V18.4376C2.5 18.7824 2.78032 19.0627 3.125 19.0627C3.46968 19.0627 3.75 18.7824 3.75 18.4376V12.1876H4.375V18.4376C4.375 18.7824 4.65532 19.0627 5 19.0627C5.34468 19.0627 5.625 18.7824 5.625 18.4376V9.06266H6.25V13.4376H6.56251C6.90719 13.4376 7.1875 13.1573 7.1875 12.8127V10.3127C7.1875 9.05234 6.43594 7.96672 5.35875 7.47266Z" fill="#4E4E4E"/>
<path d="M4.06251 6.56251C4.92544 6.56251 5.625 5.86295 5.625 5.00001C5.625 4.13706 4.92544 3.4375 4.06251 3.4375C3.19956 3.4375 2.5 4.13706 2.5 5.00001C2.5 5.86295 3.19956 6.56251 4.06251 6.56251Z" fill="#4E4E4E"/>
<path d="M3.25757 7.29626L4.04319 8.23875L4.74006 7.26345C4.52132 7.215 4.29475 7.1875 4.06194 7.1875C3.78351 7.1875 3.51475 7.2275 3.25757 7.29626Z" fill="#4E4E4E"/>
</svg>
