<svg width="24" height="24" viewBox="0 0 24 24" fill="none" xmlns="http://www.w3.org/2000/svg">
<path d="M21.7795 12.1498C21.5315 11.0723 20.6501 10.2774 19.5893 10.1591C17.0778 9.87857 14.5345 9.87724 12.0037 9.87857C9.47183 9.87724 6.92909 9.87857 4.41679 10.1591C3.3565 10.2777 2.47565 11.0725 2.22792 12.1498C1.87484 13.6841 1.87061 15.3589 1.87061 16.9388C1.87061 18.5186 1.87061 20.1932 2.22368 21.7276C2.47142 22.8048 3.35226 23.5996 4.41308 23.7182C6.92485 23.999 9.46759 24.0001 11.9992 23.999C14.5311 24.0003 17.0733 23.999 19.5859 23.7182C20.6462 23.5996 21.5275 22.8048 21.7753 21.7276C22.1281 20.1932 22.1299 18.5186 22.1299 16.9388C22.1297 15.3587 22.1323 13.6841 21.7795 12.1498ZM7.64927 13.3389H6.18297V21.1305H4.82095V13.3389H3.38137V12.0627H7.64927V13.3389ZM11.3486 21.1307H10.1235V20.3936C9.63672 20.9515 9.1746 21.2236 8.72438 21.2236C8.32975 21.2236 8.05819 21.0638 7.93565 20.7215C7.86895 20.5172 7.82766 20.1938 7.82766 19.7168V14.3741H9.05179V19.3487C9.05179 19.6356 9.05179 19.7846 9.0629 19.8248C9.09228 20.0149 9.18518 20.1112 9.34928 20.1112C9.5949 20.1112 9.85164 19.922 10.1232 19.5379V14.3741H11.3484L11.3486 21.1307ZM15.9998 19.1028C15.9998 19.7277 15.9577 20.1779 15.8759 20.4643C15.7123 20.9669 15.3849 21.2236 14.8979 21.2236C14.4623 21.2236 14.042 20.9817 13.6325 20.4762V21.131H12.4084V12.0627H13.6325V15.0241C14.028 14.5374 14.4477 14.2912 14.8979 14.2912C15.3849 14.2912 15.7126 14.5477 15.8759 15.0535C15.9582 15.3253 15.9998 15.7721 15.9998 16.4118V19.1028ZM20.6202 17.9755H18.1717V19.1732C18.1717 19.7986 18.3763 20.1109 18.7971 20.1109C19.0986 20.1109 19.2741 19.9471 19.344 19.62C19.3553 19.5535 19.3715 19.2814 19.3715 18.7905H20.6205V18.9691C20.6205 19.3637 20.6054 19.6356 20.5943 19.7579C20.5533 20.0289 20.4569 20.2748 20.3084 20.4913C19.9694 20.982 19.467 21.2239 18.8276 21.2239C18.1871 21.2239 17.6995 20.9934 17.3457 20.532C17.086 20.1938 16.9526 19.6612 16.9526 18.9432V16.5767C16.9526 15.8544 17.0709 15.3261 17.3311 14.9847C17.6847 14.5223 18.172 14.292 18.7974 14.292C19.4117 14.292 19.8987 14.5223 20.2417 14.9847C20.4982 15.3261 20.6208 15.8544 20.6208 16.5767V17.9755H20.6202Z" fill="#222222"/>
<path d="M18.7862 15.395C18.377 15.395 18.1719 15.7076 18.1719 16.3322V16.9574H19.396V16.3322C19.3957 15.7076 19.1911 15.395 18.7862 15.395Z" fill="#222222"/>
<path d="M14.2429 15.395C14.0412 15.395 13.8369 15.4903 13.6323 15.6928V19.8109C13.8367 20.0157 14.0412 20.1126 14.2429 20.1126C14.596 20.1126 14.7755 19.8109 14.7755 19.2008V16.3169C14.7755 15.7076 14.596 15.395 14.2429 15.395Z" fill="#222222"/>
<path d="M14.9268 9.25605C15.3781 9.25605 15.8476 8.98184 16.3402 8.41756V9.16235H17.5775V2.33398H16.3402V7.55286C16.066 7.94035 15.8061 8.13197 15.5586 8.13197C15.3929 8.13197 15.2955 8.03404 15.2685 7.84215C15.2534 7.80166 15.2534 7.65105 15.2534 7.36123V2.33398H14.02V7.73337C14.02 8.21561 14.0613 8.54195 14.1296 8.74866C14.254 9.0946 14.5285 9.25605 14.9268 9.25605Z" fill="#222222"/>
<path d="M6.31304 5.45179V9.16281H7.68512V5.45179L9.33564 0H7.94821L7.01205 3.59827L6.03804 0H4.59424C4.88353 0.849344 5.18447 1.70292 5.47376 2.55306C5.91391 3.83092 6.18865 4.79434 6.31304 5.45179Z" fill="#222222"/>
<path d="M11.1745 9.2566C11.7944 9.2566 12.2761 9.02342 12.6178 8.55759C12.8775 8.21589 13.0019 7.67754 13.0019 6.9518V4.56072C13.0019 3.83074 12.8777 3.29716 12.6178 2.95228C12.2761 2.48513 11.7947 2.25195 11.1745 2.25195C10.5578 2.25195 10.0764 2.48513 9.7339 2.95228C9.47108 3.29716 9.34668 3.83074 9.34668 4.56072V6.9518C9.34668 7.67754 9.47108 8.21589 9.7339 8.55759C10.0761 9.02342 10.5578 9.2566 11.1745 9.2566ZM10.584 4.31272C10.584 3.68094 10.7757 3.36597 11.1745 3.36597C11.5734 3.36597 11.7645 3.68067 11.7645 4.31272V7.18498C11.7645 7.81676 11.5734 8.13278 11.1745 8.13278C10.7757 8.13278 10.584 7.81676 10.584 7.18498V4.31272Z" fill="#222222"/>
</svg>
