<svg width="34" height="34" viewBox="0 0 34 34" fill="none" xmlns="http://www.w3.org/2000/svg">
<path fill-rule="evenodd" clip-rule="evenodd" d="M29.5445 24.5555C28.5388 23.549 27.3637 22.7276 26.073 22.1287C27.8931 20.6542 29.0543 18.4042 29.0543 15.881C29.0543 11.4292 25.3418 7.77695 20.89 7.84525C16.5065 7.91356 12.9748 11.4854 12.9748 15.881C12.9748 18.4042 14.14 20.6542 15.9561 22.1287C14.6652 22.7271 13.49 23.5486 12.4847 24.5555C10.2909 26.7533 9.04537 29.6542 8.96501 32.7479C8.96394 32.7908 8.97146 32.8335 8.98714 32.8734C9.00281 32.9133 9.02631 32.9497 9.05627 32.9804C9.08622 33.0111 9.12202 33.0355 9.16155 33.0522C9.20108 33.0688 9.24355 33.0774 9.28644 33.0774H30.5007H32.7507C32.7936 33.0774 32.8361 33.0688 32.8756 33.0522C32.9151 33.0355 32.9509 33.0111 32.9809 32.9804C33.0109 32.9497 33.0344 32.9133 33.05 32.8734C33.0657 32.8335 33.0732 32.7908 33.0722 32.7479C32.9918 29.6542 31.7463 26.7533 29.5445 24.5555ZM30.1793 32.768L30.1798 32.7797C30.1794 32.7759 30.1792 32.7719 30.1793 32.768ZM10.9539 16.9417C10.9177 16.5921 10.8976 16.2386 10.8976 15.881C10.8976 15.2421 10.9579 14.6194 11.0704 14.0127C11.0985 13.868 11.0222 13.7194 10.8896 13.6591C10.3431 13.414 9.84091 13.0765 9.40698 12.6506C8.89567 12.1548 8.49331 11.5579 8.22559 10.898C7.95786 10.238 7.83065 9.52946 7.85207 8.81757C7.88823 7.52784 8.40653 6.30239 9.31055 5.37829C10.303 4.36177 11.6369 3.8073 13.0552 3.82338C14.3369 3.83543 15.5744 4.32963 16.5105 5.20552C16.828 5.50284 17.1012 5.8323 17.3302 6.18588C17.4105 6.31043 17.5672 6.36266 17.7039 6.31445C18.411 6.06936 19.1583 5.89659 19.9257 5.81623C20.1507 5.79213 20.2793 5.55105 20.1789 5.35016C18.873 2.76668 16.2052 0.982751 13.1195 0.934536C8.66367 0.866233 4.95117 4.51847 4.95117 8.96623C4.95117 11.4894 6.11233 13.7394 7.93242 15.214C6.65475 15.8046 5.47751 16.6203 4.45698 17.6408C2.25519 19.8386 1.00966 22.7394 0.9293 25.8372C0.928227 25.8801 0.935749 25.9228 0.951421 25.9627C0.967094 26.0026 0.9906 26.039 1.02055 26.0697C1.05051 26.1004 1.08631 26.1248 1.12584 26.1415C1.16537 26.1581 1.20783 26.1667 1.25073 26.1667H3.50475C3.67751 26.1667 3.82216 26.0301 3.82617 25.8573C3.90251 23.5269 4.84671 21.3453 6.50609 19.6899C7.68734 18.5086 9.13376 17.689 10.7128 17.2912C10.8695 17.2511 10.9739 17.1024 10.9539 16.9417ZM21.0438 21.0564C23.9156 21.0564 26.2437 18.7283 26.2437 15.8564C26.2437 12.9845 23.9156 10.6564 21.0438 10.6564C18.1719 10.6564 15.8438 12.9845 15.8438 15.8564C15.8438 18.7283 18.1719 21.0564 21.0438 21.0564Z" fill="white"/>
</svg>
