<svg width="38" height="34" viewBox="0 0 38 34" fill="none" xmlns="http://www.w3.org/2000/svg">
<path fill-rule="evenodd" clip-rule="evenodd" d="M1.06887 33.084C1.41529 33.4304 1.88514 33.625 2.37505 33.625H35.6251C36.115 33.625 36.5848 33.4304 36.9312 33.084C37.2777 32.7375 37.4723 32.2677 37.4723 31.7778V2.22222C37.4723 1.73231 37.2777 1.26246 36.9312 0.916039C36.5848 0.569617 36.115 0.375 35.6251 0.375H9.76394C9.27403 0.375 8.80418 0.569617 8.45776 0.916039C8.11134 1.26246 7.91672 1.73231 7.91672 2.22222V10.616L1.16143 16.5068C0.962442 16.6802 0.802929 16.8942 0.693634 17.1345C0.58434 17.3748 0.527803 17.6356 0.527832 17.8996V31.7778C0.527832 32.2677 0.722449 32.7375 1.06887 33.084ZM33.7778 29.9305H22.6945V17.8996C22.6945 17.6356 22.638 17.3748 22.5287 17.1345C22.4194 16.8942 22.2599 16.6802 22.0609 16.5068L12.8248 8.45475C12.4775 8.14996 12.0434 7.99848 11.6112 7.99848V4.06944H33.7778V29.9305ZM22.6945 7.76392H19.0001V11.4584H22.6945V7.76392ZM26.3889 7.76392H30.0834V11.4584H26.3889V7.76392ZM30.0834 15.1528H26.3889V18.8472H30.0834V15.1528ZM30.0834 22.5417H26.3889V26.2361H30.0834V22.5417ZM13.4584 22.5417V29.9306H9.76394V22.5417H13.4584Z" fill="white"/>
</svg>
